<svg xmlns="http://www.w3.org/2000/svg" width="32" height="32" viewBox="0 0 24 24"><path fill="#888888" d="M6 19q-.425 0-.713-.288T5 18v-3q0-.425.288-.713T6 14q.425 0 .713.288T7 15v2h2q.425 0 .713.288T10 18q0 .425-.288.713T9 19H6Zm0-9q-.425 0-.713-.288T5 9V6q0-.425.288-.713T6 5h3q.425 0 .713.288T10 6q0 .425-.288.713T9 7H7v2q0 .425-.288.713T6 10Zm9 9q-.425 0-.713-.288T14 18q0-.425.288-.713T15 17h2v-2q0-.425.288-.713T18 14q.425 0 .713.288T19 15v3q0 .425-.288.713T18 19h-3Zm3-9q-.425 0-.713-.288T17 9V7h-2q-.425 0-.713-.288T14 6q0-.425.288-.713T15 5h3q.425 0 .713.288T19 6v3q0 .425-.288.713T18 10Z"/></svg>