<svg xmlns="http://www.w3.org/2000/svg" width="32" height="32" viewBox="0 0 24 24"><path fill="#888888" d="M9 19q-.425 0-.713-.288T8 18v-2H6q-.425 0-.713-.288T5 15q0-.425.288-.713T6 14h3q.425 0 .713.288T10 15v3q0 .425-.288.713T9 19Zm-3-9q-.425 0-.713-.288T5 9q0-.425.288-.713T6 8h2V6q0-.425.288-.713T9 5q.425 0 .713.288T10 6v3q0 .425-.288.713T9 10H6Zm9 9q-.425 0-.713-.288T14 18v-3q0-.425.288-.713T15 14h3q.425 0 .713.288T19 15q0 .425-.288.713T18 16h-2v2q0 .425-.288.713T15 19Zm0-9q-.425 0-.713-.288T14 9V6q0-.425.288-.713T15 5q.425 0 .713.288T16 6v2h2q.425 0 .713.288T19 9q0 .425-.288.713T18 10h-3Z"/></svg>