<?xml version="1.0" standalone="no"?><!DOCTYPE svg PUBLIC "-//W3C//DTD SVG 1.1//EN" "http://www.w3.org/Graphics/SVG/1.1/DTD/svg11.dtd"><svg class="icon" width="66px" height="66.00px" viewBox="0 0 1024 1024" version="1.1" xmlns="http://www.w3.org/2000/svg"><path d="M342.86 69.412s-54.368 20.798-154.31 120.74c-99.586 99.574-120.464 154.044-120.62 154.442-2.42 47.45-3.93 102.94-3.93 167.592 0 192.9 13.414 304.242 24.696 363.804 7.24 38.26 37.09 64.486 75.824 68.664 52.258 5.64 144.492 11.718 299.246 11.718 154.756 0 246.99-6.08 299.248-11.72 38.734-4.176 68.584-30.4 75.824-68.662 11.28-59.56 24.696-170.906 24.696-363.804 0-192.9-13.414-304.244-24.696-363.804-7.24-38.262-37.09-64.486-75.824-68.664C710.756 74.078 618.522 68 463.766 68c-45.528 0-85.638 0.526-120.906 1.412z" fill="#A871FF" /><path d="M206.666 428.05c0-16.306 12.268-29.768 28.544-30.596 25.686-1.306 70.572-2.788 142.124-2.788 71.552 0 116.436 1.48 142.122 2.788 16.278 0.828 28.544 14.29 28.544 30.596v18.568c0 16.304-12.266 29.766-28.544 30.594-25.686 1.308-70.57 2.788-142.122 2.788-71.552 0-116.438-1.48-142.124-2.788-16.276-0.828-28.544-14.29-28.544-30.594v-18.568zM206.666 618.716c0-16.306 12.268-29.916 28.524-30.96 18.708-1.202 45.674-2.422 78.144-2.422 32.468 0 59.434 1.22 78.144 2.42 16.256 1.046 28.522 14.656 28.522 30.96v18.57c0 16.306-12.266 29.916-28.522 30.96-18.71 1.202-45.676 2.422-78.144 2.422-32.47 0-59.436-1.22-78.144-2.42-16.256-1.046-28.524-14.656-28.524-30.96v-18.57z" fill="#FFFFFF" /><path d="M67.932 344.592c63.96 16.086 139.452 17.154 204.68-2.77 27.56-8.424 49.06-29.902 58.366-57.188 23.186-67.976 28.916-151.18 11.88-215.224 0 0-54.366 20.798-154.308 120.74-99.942 99.94-120.62 154.442-120.62 154.442z" fill="#CFAEFF" /><path d="M933.98 524.526c34.692-34.694 34.692-90.94 0-125.634l-68.202-68.194c-34.692-34.694-90.948-34.694-125.64 0L489.8 581.058a88.772 88.772 0 0 0-26.032 62.818v112.61c0 24.532 19.88 44.418 44.42 44.418h112.6a88.852 88.852 0 0 0 62.83-26.02l250.366-250.36z" fill="#FCBF28" /></svg>