<svg viewBox="0 0 1024 1024" version="1.1" xmlns="http://www.w3.org/2000/svg"><path d="M842.3936 171.6224c-80.8448-2.2528-237.4144-14.8992-315.136-76.8-17.664-14.08-42.1888-15.616-61.2352-3.4816-49.92 31.6928-150.784 83.7632-281.4464 89.5488-28.2624 1.2288-50.688 24.2688-50.688 52.5312 0.0512 198.5536 0.2048 193.3312 0.2048 245.5552 0 55.6032-14.1824 317.3376 356.096 456.6016 13.312 5.0176 27.9552 5.7856 41.1136 0.3584 306.1248-126.0544 361.984-258.9184 361.984-412.7744v-299.008c0.0512-28.416-22.4768-51.7632-50.8928-52.5312z m-205.568 340.224h-73.5744v73.5744c0 27.392-22.2208 49.6128-49.6128 49.6128s-49.6128-22.2208-49.6128-49.6128V511.8464H390.4512c-27.392 0-49.6128-22.2208-49.6128-49.6128s22.2208-49.6128 49.6128-49.6128h73.5744V339.0464c0-27.392 22.2208-49.6128 49.6128-49.6128s49.6128 22.2208 49.6128 49.6128v73.5744h73.5744c27.392 0 49.6128 22.2208 49.6128 49.6128s-22.2208 49.6128-49.6128 49.6128z" fill="#2595E8" ></path><path d="M893.3376 370.7904V224.1536c0-28.416-22.528-51.7632-50.944-52.5312-80.8448-2.2528-237.4144-14.8992-315.136-76.8-17.664-14.08-42.1888-15.616-61.2352-3.4816-49.92 31.6928-150.784 83.7632-281.4464 89.5488-28.2624 1.2288-50.688 24.2688-50.688 52.5312 0.0512 198.5536 0.2048 193.3312 0.2048 245.5552 0 42.6496-8.3456 206.6432 154.9824 343.6032 9.216 0.4096 18.432 0.7168 27.7504 0.7168 279.1936-0.0512 513.2288-192.8704 576.512-452.5056z m-256.512 141.056h-73.5744v73.5744c0 27.392-22.2208 49.6128-49.6128 49.6128s-49.6128-22.2208-49.6128-49.6128V511.8464H390.4512c-27.392 0-49.6128-22.2208-49.6128-49.6128s22.2208-49.6128 49.6128-49.6128h73.5744V339.0464c0-27.392 22.2208-49.6128 49.6128-49.6128s49.6128 22.2208 49.6128 49.6128v73.5744h73.5744c27.392 0 49.6128 22.2208 49.6128 49.6128s-22.2208 49.6128-49.6128 49.6128z" fill="#3A9CED" ></path><path d="M527.2576 94.7712c-17.664-14.08-42.1888-15.616-61.2352-3.4816-49.92 31.6928-150.784 83.7632-281.4464 89.5488-28.2624 1.2288-50.688 24.2688-50.688 52.5312 0.0512 198.5536 0.2048 193.3312 0.2048 245.5552 0 20.992-1.9968 71.3216 15.4112 133.376 1.6896 0 3.328 0.1024 5.0176 0.1024 113.408 0 219.3408-31.8464 309.4528-87.04v-13.568H390.4512c-27.392 0-49.6128-22.2208-49.6128-49.6128s22.2208-49.6128 49.6128-49.6128h73.5744V339.0464c0-27.392 22.2208-49.6128 49.6128-49.6128s49.6128 22.2208 49.6128 49.6128v73.5744h35.2768c62.3616-70.2976 108.3392-155.4944 131.7888-249.6512-73.1648-9.5744-153.856-28.9792-203.0592-68.1984z" fill="#59ADF8" ></path><path d="M525.9264 93.8496c-17.5616-13.1584-41.2672-14.3872-59.904-2.6112-49.92 31.6928-150.784 83.7632-281.4464 89.5488-28.2624 1.2288-50.688 24.2688-50.688 52.5312 0 77.568 0.0512 123.9552 0.1024 154.88 169.0624-37.3248 310.9888-146.688 391.936-294.3488z" fill="#6BC2FC" ></path></svg>