<svg viewBox="0 0 1024 1024" version="1.1" xmlns="http://www.w3.org/2000/svg"><path d="M458.9568 480.7168l-8.5504 49.9712 44.8512-23.6032c8.6016-4.5056 18.8928-4.5056 27.4944 0l44.8512 23.6032-8.5504-49.9712c-1.6384-9.5744 1.536-19.3536 8.4992-26.112l36.3008-35.3792-50.176-7.2704a29.45536 29.45536 0 0 1-22.2208-16.128l-22.4256-45.4656-22.4256 45.4656a29.45536 29.45536 0 0 1-22.2208 16.128l-50.176 7.2704 36.3008 35.3792a29.57824 29.57824 0 0 1 8.448 26.112z" fill="#F23D4F" ></path><path d="M740.0448 121.8048H277.9648c-80.6912 0-146.3296 65.6384-146.3296 146.3296v467.712c0 80.6912 65.6384 146.3296 146.3296 146.3296h462.08c80.6912 0 146.3296-65.6384 146.3296-146.3296V268.1344c0-80.6912-65.6384-146.3296-146.3296-146.3296zM305.5616 385.3824a32.1536 32.1536 0 0 1 26.0096-21.9136l102.6048-14.8992 45.8752-92.9792c5.4272-11.008 16.64-17.9712 28.8768-17.9712s23.4496 6.9632 28.8768 17.9712L583.68 348.5696l102.6048 14.8992c12.1344 1.7408 22.2208 10.24 26.0096 21.9136a32.256 32.256 0 0 1-8.1408 33.024l-74.24 72.3968 17.5104 102.1952c2.048 12.0832-2.9184 24.32-12.8 31.5392-5.632 4.096-12.288 6.144-18.944 6.144-5.12 0-10.2912-1.2288-15.0016-3.6864l-91.8016-48.2816-91.8016 48.2816a32.16896 32.16896 0 0 1-33.9456-2.4576 32.18944 32.18944 0 0 1-12.8-31.5392l17.5104-102.1952-74.24-72.3968a32.42496 32.42496 0 0 1-8.0384-33.024z m418.9696 388.6592H293.4784c-19.0464 0-34.4576-15.4112-34.4576-34.4576s15.4112-34.4576 34.4576-34.4576h431.0528c19.0464 0 34.4576 15.4112 34.4576 34.4576s-15.4624 34.4576-34.4576 34.4576z" fill="#F23D4F" ></path><path d="M886.3744 268.1344c0-80.6912-65.6384-146.3296-146.3296-146.3296H277.9648c-80.6912 0-146.3296 65.6384-146.3296 146.3296v467.712c0 72.0384 52.3264 131.8912 120.9344 143.9744 8.4992 0.3584 17.0496 0.5632 25.6512 0.5632 129.0752 0 248.9856-39.2192 348.5184-106.3424H293.4784c-19.0464 0-34.4576-15.4112-34.4576-34.4576 0-19.0464 15.4112-34.4576 34.4576-34.4576h418.2528c85.2992-82.432 147.2-188.928 174.6432-308.5824V268.1344z m-182.1184 150.272l-74.24 72.3968 17.5104 102.1952c2.048 12.0832-2.9184 24.32-12.8 31.5392-5.632 4.096-12.288 6.144-18.944 6.144-5.12 0-10.2912-1.2288-15.0016-3.6864l-91.8016-48.2816-91.8016 48.2816a32.16896 32.16896 0 0 1-33.9456-2.4576 32.18944 32.18944 0 0 1-12.8-31.5392l17.5104-102.1952-74.24-72.3968a32.1536 32.1536 0 0 1-8.1408-33.024 32.1536 32.1536 0 0 1 26.0096-21.9136l102.6048-14.8992 45.8752-92.9792a32.22016 32.22016 0 0 1 28.8768-17.9712c12.288 0 23.4496 6.9632 28.8768 17.9712L583.68 348.5696l102.6048 14.8992c12.1344 1.7408 22.2208 10.24 26.0096 21.9136a31.7952 31.7952 0 0 1-8.0384 33.024z" fill="#FC4956" ></path><path d="M370.1248 600.9344c-0.2048-2.6112-0.1536-5.2736 0.3072-7.936l17.5104-102.1952-74.24-72.3968a32.1536 32.1536 0 0 1-8.1408-33.024 32.1536 32.1536 0 0 1 26.0096-21.9136l102.6048-14.8992 45.8752-92.9792a32.22016 32.22016 0 0 1 28.8768-17.9712c12.288 0 23.4496 6.9632 28.8768 17.9712L583.68 348.5696l58.1632 8.448a620.01664 620.01664 0 0 0 83.456-235.2128h-447.488c-80.6912 0-146.3296 65.6384-146.3296 146.3296v390.144c85.0944-3.2256 165.6832-23.4496 238.6432-57.344z" fill="#FF5C64" ></path><path d="M493.4144 121.8048H277.9648c-80.6912 0-146.3296 65.6384-146.3296 146.3296v143.104c154.4192-46.7456 283.5456-151.7568 361.7792-289.4336z" fill="#FF716E" ></path></svg>