<svg viewBox="0 0 1024 1024" version="1.1" xmlns="http://www.w3.org/2000/svg"><path d="M258.816 774.6048c0 13.7216 11.1104 24.832 24.832 24.832h467.2v-49.664H283.648c-13.7216 0-24.832 11.1104-24.832 24.832z" fill="#FF8E12" ></path><path d="M447.9488 480.512c19.6608 0 37.9392-5.8368 53.2992-15.8208 0.256-0.2048 0.4608-0.4608 0.768-0.6656 1.2288-0.9728 2.5088-1.792 3.84-2.5088 24.4224-17.92 40.3968-46.7456 40.3968-79.2576 0-54.2208-44.0832-98.304-98.304-98.304s-98.304 44.0832-98.304 98.304 44.0832 98.2528 98.304 98.2528z" fill="#FCB138" ></path><path d="M849.5616 280.576c-16.4352 0-29.7984 13.3632-29.7984 29.7984v509.696c0 10.8544-4.2496 21.0432-11.9296 28.7232a40.30976 40.30976 0 0 1-28.7232 11.8784l-498.0736-0.0512c-40.448 0-81.0496-48.6912-81.0496-89.1392 0-62.0032 40.6016-85.6576 81.1008-85.6576h471.2448V172.3392c0-33.5872-27.3408-60.928-60.928-60.928H295.424c-108.6464 0-147.3536 70.8096-147.3536 137.1136v534.8864l0.0512 3.84v2.1504l0.1024 11.8784 0.512-0.9216c6.6048 67.1744 63.3856 119.8592 132.3008 119.8592l503.1936 0.0512c25.3952 0 49.3056-9.8816 67.2256-27.8528 17.9712-17.9712 27.8528-41.8304 27.8528-67.2768V310.3744c0.0512-16.4352-13.312-29.7984-29.7472-29.7984zM447.5904 216.1152c90.9312 0 164.9152 73.984 164.9152 164.9152 0 43.1616-16.64 84.0192-46.8992 115.0464l-3.072 3.1232 64.8704 81.2032a25.53344 25.53344 0 0 1 5.4784 18.944 25.5488 25.5488 0 0 1-9.5232 17.2544c-4.608 3.6864-10.1888 5.632-16.0768 5.632-7.8848 0-15.2576-3.5328-20.1728-9.6768l-66.7648-83.6096-3.5328 1.6384a163.50208 163.50208 0 0 1-69.2736 15.3088c-90.9312 0-164.9152-73.984-164.9152-164.9152 0.0512-90.88 74.0352-164.864 164.9664-164.864z" fill="#FF8E12" ></path><path d="M283.648 749.7728c-13.7216 0-24.832 11.1104-24.832 24.832 0 13.7216 11.1104 24.832 24.832 24.832h294.2464c25.1904-14.848 49.2032-31.488 71.8848-49.664H283.648z" fill="#FCA315" ></path><path d="M293.4784 860.7232c-47.2576 0-87.808-28.4672-87.808-88.3712 0-48.7936 35.6352-86.4256 84.4288-86.4256h400.8448c22.272-22.6816 42.8032-47.0016 61.3376-72.9088V172.3904c0-33.5872-27.3408-60.928-60.928-60.928H295.424c-108.6464 0-147.3536 70.8096-147.3536 137.1136v534.8864l0.0512 3.84v2.1504l0.1024 11.8784 0.512-0.9216c3.8912 39.5776 25.2928 74.0352 56.2688 95.744 19.5072 1.8432 39.2192 2.816 59.1872 2.816 75.4176 0 147.6608-13.5168 214.4768-38.2464H293.4784z m154.112-644.608c90.9312 0 164.9152 73.984 164.9152 164.9152 0 43.1616-16.64 84.0192-46.8992 115.0464l-3.072 3.1232 64.8704 81.2032a25.53344 25.53344 0 0 1 5.4784 18.944 25.5488 25.5488 0 0 1-9.5232 17.2544c-4.608 3.6864-10.1888 5.632-16.0768 5.632-7.8848 0-15.2576-3.5328-20.1728-9.6768l-66.7648-83.6096-3.5328 1.6384a163.50208 163.50208 0 0 1-69.2736 15.3088c-90.9312 0-164.9152-73.984-164.9152-164.9152 0.0512-90.88 74.0352-164.864 164.9664-164.864zM879.36 310.3744c0-16.4352-13.3632-29.7984-29.7984-29.7984s-29.7984 13.3632-29.7984 29.7984v241.152a613.18656 613.18656 0 0 0 59.5456-214.016v-27.136z" fill="#FCA315" ></path><path d="M483.9936 541.8496c-11.8784 2.7136-24.0128 4.096-36.4032 4.096-90.9312 0-164.9152-73.984-164.9152-164.9152s73.984-164.9152 164.9152-164.9152 164.9152 73.984 164.9152 164.9152c0 6.9632-0.6144 13.8752-1.4336 20.6848 55.7568-84.48 77.312-183.3984 85.8112-289.9968-1.8432-0.1536-3.6864-0.256-5.5296-0.256H295.424c-108.6464 0-147.3536 70.8096-147.3536 137.1136v428.7488c126.7712-10.752 242.5856-59.7504 335.9232-135.4752z" fill="#FCB138" ></path><path d="M284.6208 355.8912c11.3664-73.9328 71.9872-131.7888 147.1488-139.008 24.8832-32.7168 46.6432-68.0448 64.7168-105.4208H295.424c-108.6464 0-147.3536 70.8096-147.3536 137.1136V424.96c48.64-17.408 94.4128-40.704 136.5504-69.0688z" fill="#FFC65E" ></path></svg>