<svg viewBox="0 0 1024 1024" version="1.1" xmlns="http://www.w3.org/2000/svg"><path d="M804.6592 850.688a23.91552 23.91552 0 0 1 3.84-29.5936c79.4112-76.9536 128.768-184.6784 128.768-304.0256 0-240.5888-200.6528-434.3296-443.7504-423.0656-216.1664 10.0864-391.8336 185.0368-402.7392 401.152-12.1856 241.408 177.92 441.2416 415.6928 445.2864l-0.0512 0.2048h310.4768c18.6368 0 30.1056-20.4288 20.4288-36.352l-32.6656-53.6064z m-284.1088-36.5568c-27.2384 0-49.3568-22.0672-49.3568-49.3568 0-27.2384 22.0672-49.3568 49.3568-49.3568 27.2384 0 49.3568 22.0672 49.3568 49.3568-0.0512 27.2384-22.1184 49.3568-49.3568 49.3568z m50.9952-239.2576c-2.7136 0.8192-5.4272 2.8672-5.4272 5.7344v58.6752a45.62432 45.62432 0 0 1-91.2384 0V580.608c0-43.3152 28.4672-80.7424 70.8608-93.2352 39.7312-11.6736 65.9456-48.8448 63.744-90.368-2.3552-44.8512-39.3216-81.7664-84.1216-84.1216-24.7808-1.3312-48.2816 7.3216-66.2016 24.32-17.92 16.9984-27.8016 39.9872-27.8016 64.6656a45.62432 45.62432 0 0 1-91.2384 0c0-49.2544 20.48-96.9216 56.2176-130.816 36.2496-34.4064 83.6608-51.8656 133.7344-49.2544 90.8288 4.7616 165.6832 79.616 170.4448 170.4448 4.5056 83.8656-48.5888 158.976-128.9728 182.6304z" fill="#FC7032" ></path><path d="M878.7456 338.7392c0-12.9024-0.4608-25.7024-1.2288-38.4-77.1072-129.1264-220.928-213.8624-383.9488-206.2848-216.2176 10.0352-391.8848 184.9856-402.7904 401.1008-10.3936 206.336 126.976 382.1568 315.5456 431.4624 270.1824-59.1872 472.4224-299.8784 472.4224-587.8784z m-358.1952 475.392c-27.2384 0-49.3568-22.0672-49.3568-49.3568 0-27.2384 22.0672-49.3568 49.3568-49.3568 27.2384 0 49.3568 22.0672 49.3568 49.3568-0.0512 27.2384-22.1184 49.3568-49.3568 49.3568zM340.224 401.92c0-49.2544 20.48-96.9216 56.2176-130.816 36.2496-34.4064 83.6608-51.8656 133.7344-49.2544 90.8288 4.7616 165.6832 79.616 170.4448 170.4448 4.4032 83.8656-48.6912 158.976-129.0752 182.6304-2.7136 0.8192-5.4272 2.8672-5.4272 5.7344v58.6752a45.62432 45.62432 0 0 1-91.2384 0v-58.6752c0-43.3152 28.4672-80.7424 70.8608-93.2352 39.7312-11.6736 65.9456-48.8448 63.744-90.368-2.3552-44.8512-39.3216-81.7664-84.1216-84.1216-24.7808-1.3312-48.2816 7.3216-66.2016 24.32-17.92 16.9984-27.8016 39.9872-27.8016 64.6656 0 25.1904-20.4288 45.6192-45.6192 45.6192-25.1392-0.0512-45.5168-20.48-45.5168-45.6192z" fill="#FF7C33" ></path><path d="M474.9312 605.2864v-24.6784c0-43.3152 28.4672-80.7424 70.8608-93.2352 39.7312-11.6736 65.9456-48.8448 63.744-90.368-2.3552-44.8512-39.3216-81.7664-84.1216-84.1216-24.7808-1.3312-48.2816 7.3216-66.2016 24.32-17.92 16.9984-27.8016 39.9872-27.8016 64.6656a45.62432 45.62432 0 0 1-91.2384 0c0-49.2544 20.48-96.9216 56.2176-130.816 36.2496-34.4064 83.6608-51.8656 133.7344-49.2544 65.4848 3.4304 122.624 43.3152 151.2448 99.2768 19.2512-55.808 30.464-115.3536 32.4096-177.2544C648.704 108.9024 573.44 90.368 493.568 94.0544 277.3504 104.0896 101.6832 279.04 90.7776 495.1552c-4.2496 84.1728 16.128 163.2768 54.528 230.8096 123.4432-6.7072 236.9536-50.5856 329.6256-120.6784z" fill="#FF9552" ></path><path d="M341.9136 377.856c5.5296-40.448 24.6784-78.4384 54.528-106.752 22.0672-20.9408 48.3328-35.584 76.8-43.264 25.6-41.472 46.336-86.272 61.3376-133.632-13.5168-0.6656-27.1872-0.768-41.0624-0.1024-216.1664 9.984-391.8336 184.9344-402.7392 401.0496-0.1024 1.536-0.0512 3.072-0.1024 4.608 93.7984-20.6336 179.4048-63.1296 251.2384-121.9072z" fill="#FFA56A" ></path></svg>