<svg viewBox="0 0 1024 1024" version="1.1" xmlns="http://www.w3.org/2000/svg"><path d="M505.344 96c-234.3936 0-424.448 190.0032-424.448 424.448s190.0032 424.448 424.448 424.448 424.448-190.0032 424.448-424.448-190.0544-424.448-424.448-424.448z m0.5632 720.5376a42.19392 42.19392 0 0 1 0-84.3776 42.19392 42.19392 0 0 1 0 84.3776z m78.4384-246.8352c-28.0064 14.2848-45.3632 41.6768-45.3632 71.4752v22.4768c0 20.5312-16.64 37.1712-37.1712 37.1712s-37.1712-16.64-37.1712-37.1712v-22.4768c0-57.856 32.9216-110.592 85.8624-137.6256a107.50464 107.50464 0 0 0 58.2656-103.2704c-3.6352-52.9408-46.336-95.6416-99.2768-99.2768-30.208-2.048-58.88 8.0384-80.8448 28.5696-21.9648 20.5312-34.0992 48.384-34.0992 78.3872a37.1712 37.1712 0 0 1-37.1712 37.1712 37.1712 37.1712 0 0 1-37.1712-37.1712c0-50.1248 21.0432-98.5088 57.7024-132.7616 37.1712-34.7136 85.6576-51.8656 136.6528-48.384 89.7536 6.1952 162.1504 78.5408 168.2944 168.2944a181.4528 181.4528 0 0 1-98.5088 174.592z" fill="#FF8E12" ></path><path d="M847.3088 344.32c0-28.0576-1.9968-55.6544-5.6832-82.7392-77.6192-100.6592-199.3216-165.5808-336.2816-165.5808-234.3936 0-424.448 190.0032-424.448 424.448 0 193.28 129.2288 356.2496 305.9712 407.552 264.0896-62.976 460.4416-300.3904 460.4416-583.68z m-341.4016 472.2176a42.19392 42.19392 0 0 1 0-84.3776 42.19392 42.19392 0 0 1 0 84.3776z m-185.6512-408.576c0-50.1248 21.0432-98.5088 57.7024-132.7616 37.1712-34.7136 85.6576-51.8656 136.6528-48.384 89.7536 6.1952 162.1504 78.5408 168.2944 168.2944 5.0176 72.8576-33.6896 141.3632-98.56 174.5408-28.0064 14.2848-45.3632 41.6768-45.3632 71.4752v22.4768a37.1712 37.1712 0 0 1-37.1712 37.1712 37.1712 37.1712 0 0 1-37.1712-37.1712v-22.4768c0-57.856 32.9216-110.592 85.8624-137.6256a107.50464 107.50464 0 0 0 58.2656-103.2704c-3.6352-52.9408-46.336-95.6416-99.2768-99.2768-30.208-2.048-58.88 8.0384-80.8448 28.5696-21.9648 20.5312-34.0992 48.384-34.0992 78.3872a37.1712 37.1712 0 0 1-37.1712 37.1712c-20.48 0.0512-37.12-16.5888-37.12-37.12z" fill="#FCA315" ></path><path d="M80.9472 520.3968c0 75.8272 19.968 146.8928 54.784 208.4864 129.3824-11.2128 246.9888-63.488 339.7632-143.7184 13.7216-34.5088 39.936-63.744 75.0592-81.664 1.9456-0.9728 3.7888-2.048 5.632-3.1744 19.2512-24.6272 36.608-50.8416 51.8656-78.336 0.9728-7.1168 1.2288-14.3872 0.7168-21.76-3.6352-52.9408-46.336-95.6416-99.2768-99.2768-30.208-2.048-58.88 8.0384-80.8448 28.5696-21.9648 20.5312-34.0992 48.384-34.0992 78.3872a37.1712 37.1712 0 0 1-37.1712 37.1712 37.1712 37.1712 0 0 1-37.1712-37.1712c0-50.1248 21.0432-98.5088 57.7024-132.7616 37.1712-34.7136 85.6576-51.8656 136.6528-48.384 59.2384 4.096 110.8992 37.0176 140.9536 84.736 17.5616-55.7568 27.1872-115.0464 27.5456-176.5376a422.72256 422.72256 0 0 0-177.7664-39.0656c-234.3424 0.1024-424.3456 190.1056-424.3456 424.4992z" fill="#FCB138" ></path><path d="M81.4592 500.1728c90.8288-23.2448 173.312-67.1744 242.176-126.5152 7.2704-37.4272 26.1632-72.0896 54.3232-98.4576 18.6368-17.3568 40.0896-30.3616 63.232-38.5536 27.1872-43.4688 49.0496-90.6752 64.4608-140.6976h-0.3072c-227.6352 0.0512-413.3376 179.2-423.8848 404.224z" fill="#FFC65E" ></path></svg>