<svg viewBox="0 0 1024 1024" version="1.1" xmlns="http://www.w3.org/2000/svg"><path d="M893.5936 144.9984H136.9088a38.76352 38.76352 0 0 0 0 77.5168h28.2624v406.016c0 53.504 43.3664 96.8704 96.8704 96.8704h102.7072l-110.5408 106.4448a38.77888 38.77888 0 1 0 26.9312 66.7136c9.6768 0 19.3536-3.584 26.88-10.8544l168.5504-162.304h85.8624l163.7888 161.9456a38.79936 38.79936 0 0 0 54.8352-0.3072c15.0528-15.2064 14.8992-39.7824-0.3072-54.8352l-108.032-106.8032h89.9584c53.504 0 96.8704-43.3664 96.8704-96.8704v-406.016h33.9456c21.4016 0 38.7584-17.3568 38.7584-38.7584s-17.2544-38.7584-38.656-38.7584z m-327.5776 211.3024c0 21.4016-17.3568 38.7584-38.7584 38.7584H323.584a38.76352 38.76352 0 0 1 0-77.5168h203.6736c21.4016 0 38.7584 17.3568 38.7584 38.7584z m130.9696 211.3536H323.584a38.76352 38.76352 0 0 1 0-77.5168h373.3504c21.4016 0 38.7584 17.3568 38.7584 38.7584s-17.3056 38.7584-38.7072 38.7584z" fill="#F23D4F" ></path><path d="M98.1504 183.7568c0 21.4016 17.3568 38.7584 38.7584 38.7584h28.2624v406.016c0 53.504 43.3664 96.8704 96.8704 96.8704h102.7072L261.4784 824.832c0.9728 0 1.9968 0.0512 2.9696 0.0512 41.4208 0 81.8688-4.096 120.9856-11.776l91.0848-87.7056h85.8624l15.36 15.2064c132.864-77.2608 234.5472-202.1376 281.7536-351.2832V222.5664h28.6208c0.256-7.2192 0.4096-14.4896 0.4096-21.76 0-18.7904-0.8704-37.4272-2.5088-55.808H136.9088c-21.4016 0-38.7584 17.3568-38.7584 38.7584zM323.584 317.5424h203.6736a38.76352 38.76352 0 0 1 0 77.5168H323.584a38.76352 38.76352 0 0 1 0-77.5168z m0 172.544h373.3504a38.76352 38.76352 0 0 1 0 77.5168H323.584a38.76352 38.76352 0 0 1 0-77.5168z" fill="#FC4956" ></path><path d="M98.1504 183.7568c0 21.4016 17.3568 38.7584 38.7584 38.7584h28.2624v376.6272c50.176-5.7344 98.5088-17.3568 144.3328-34.2016a38.74816 38.74816 0 0 1 14.08-74.8544h128.6656c116.992-82.2272 204.4416-203.5712 243.3536-345.088H136.9088c-21.4016 0-38.7584 17.3568-38.7584 38.7584zM323.584 317.5424h203.6736a38.76352 38.76352 0 0 1 0 77.5168H323.584a38.76352 38.76352 0 0 1 0-77.5168z" fill="#FF5C64" ></path><path d="M98.1504 183.7568c0 21.4016 17.3568 38.7584 38.7584 38.7584h28.2624v116.736c103.5264-40.7552 193.536-108.3904 261.4784-194.2528H136.9088c-21.4016 0-38.7584 17.3568-38.7584 38.7584z" fill="#FF716E" ></path></svg>