<svg viewBox="0 0 1024 1024" version="1.1" xmlns="http://www.w3.org/2000/svg"><path d="M768.4608 307.7632l102.5536-193.4336c5.4784-10.2912-1.9968-22.6816-13.6704-22.6816h-238.6944c-5.632 0-10.8544 3.072-13.568 8.0384l-61.184 111.4624c85.9136 7.3728 163.7888 42.5984 224.5632 96.6144z" fill="#FC7032" ></path><path d="M251.904 307.7632c60.8256-54.0672 138.7008-89.2416 224.5632-96.6656L415.232 99.6352a15.47264 15.47264 0 0 0-13.568-8.0384H163.0208c-11.6736 0-19.0976 12.3904-13.6704 22.6816L251.904 307.7632z" fill="#FFA56A" ></path><path d="M510.208 261.4272c-186.2656 0-337.2544 150.9888-337.2544 337.2544 0 186.2656 150.9888 337.2544 337.2544 337.2544 186.2656 0 337.2544-150.9888 337.2544-337.2544 0-186.2656-150.9888-337.2544-337.2544-337.2544z m182.9888 291.0208l-65.8944 64.256a23.26528 23.26528 0 0 0-6.7072 20.5824l15.5648 90.7264c3.2768 18.9952-16.6912 33.4336-33.6896 24.4736l-81.4592-42.8032c-6.7584-3.584-14.848-3.584-21.6064 0l-81.4592 42.8032c-17.0496 8.96-36.9664-5.5296-33.6896-24.4736l15.5648-90.7264c1.28-7.5264-1.2288-15.2064-6.7072-20.5824L327.168 552.448c-13.7728-13.4656-6.1952-36.864 12.8512-39.6288l91.0848-13.2096a23.15776 23.15776 0 0 0 17.5104-12.6976l40.7552-82.5344c8.4992-17.2544 33.1264-17.2544 41.6768 0l40.7552 82.5344a23.15776 23.15776 0 0 0 17.5104 12.6976l91.0848 13.2096c18.9952 2.7648 26.624 26.2144 12.8 39.6288z" fill="#FC7032" ></path><path d="M834.0992 184.0128c-9.5232-32.1536-22.0672-63.0272-37.1712-92.3648h-178.2272c-5.632 0-10.8544 3.072-13.568 8.0384l-61.184 111.4624c85.8624 7.3728 163.7376 42.5984 224.5632 96.6656l65.5872-123.8016zM831.8976 497.3056c-43.0592-136.704-170.8032-235.8272-321.6896-235.8272-186.2656 0-337.2544 150.9888-337.2544 337.2544 0 113.2544 55.8592 213.3504 141.4656 274.5344 1.792 0 3.584 0.1536 5.4272 0.1536 240.384-0.1024 443.8528-158.208 512.0512-376.1152z m-211.2512 139.9808l15.5648 90.7264c3.2768 18.9952-16.6912 33.4336-33.6896 24.4736l-81.4592-42.8032c-6.7584-3.584-14.848-3.584-21.6064 0l-81.4592 42.8032c-17.0496 8.96-36.9664-5.5296-33.6896-24.4736l15.5648-90.7264c1.28-7.5264-1.2288-15.2064-6.656-20.5824L327.168 552.448c-13.7728-13.4656-6.1952-36.864 12.8512-39.6288l91.0848-13.2096a23.15776 23.15776 0 0 0 17.5104-12.6976l40.7552-82.5344c8.4992-17.2544 33.1264-17.2544 41.6768 0l40.7552 82.5344a23.15776 23.15776 0 0 0 17.5104 12.6976l91.0848 13.2096c19.0464 2.7648 26.6752 26.1632 12.8512 39.6288l-65.8944 64.256a23.02976 23.02976 0 0 0-6.7072 20.5824z" fill="#FF7E3E" ></path><path d="M172.9536 598.6816c0 28.9792 3.6352 57.0368 10.496 83.8656 77.2608-1.4848 150.528-19.2512 216.5248-50.0736a23.1424 23.1424 0 0 0-6.912-15.7696L327.168 552.448c-13.7728-13.4656-6.1952-36.864 12.8512-39.6288l91.0848-13.2096a23.15776 23.15776 0 0 0 17.5104-12.6976l40.7552-82.5344c8.4992-17.2544 33.1264-17.2544 41.6768 0l40.7552 82.5344c1.8432 3.7376 4.7104 6.7584 8.0896 9.0112 46.336-53.8624 82.176-116.9408 104.2944-186.1632a335.79008 335.79008 0 0 0-173.9264-48.2816c-186.3168-0.0512-337.3056 150.9376-337.3056 337.2032zM605.1328 99.6352l-61.184 111.4624a386.048 386.048 0 0 1 153.9072 46.7968c7.6288-35.9936 11.7248-73.3184 11.7248-111.616 0-18.4832-0.9216-36.7104-2.7648-54.6816h-88.1152c-5.632 0.0512-10.8544 3.1232-13.568 8.0384z" fill="#FF9552" ></path><path d="M199.0656 468.3776c114.3808-35.9424 212.1216-109.1584 279.2448-205.3632-126.1568 11.776-232.1408 93.1328-279.2448 205.3632z" fill="#FFA56A" ></path></svg>