<svg viewBox="0 0 1024 1024" version="1.1" xmlns="http://www.w3.org/2000/svg"><path d="M951.5008 323.84V269.2096c0-57.856-45.824-104.9088-102.1952-104.9088H174.2336c-56.3712 0-102.1952 47.0528-102.1952 104.9088v54.6304h879.4624zM72.0384 419.3792v329.0624c0 57.856 45.824 104.9088 102.1952 104.9088h675.0208c56.3712 0 102.1952-47.0528 102.1952-104.9088V419.3792H72.0384z m337.408 161.6896H253.952c-26.368 0-47.7696-21.4016-47.7696-47.7696s21.4016-47.7696 47.7696-47.7696h155.4944c26.368 0 47.7696 21.4016 47.7696 47.7696s-21.4016 47.7696-47.7696 47.7696z" fill="#FC7032" ></path><path d="M841.1648 164.3008H174.2336c-56.3712 0-102.1952 47.0528-102.1952 104.9088v54.6304h798.1568c-3.0208-55.296-12.9536-108.8-29.0304-159.5392zM72.0384 419.3792v329.0624c0 57.856 45.824 104.9088 102.1952 104.9088h467.8656c125.7984-106.5984 210.3296-260.352 226.2528-433.9712H72.0384z m337.408 161.6896H253.952c-26.368 0-47.7696-21.4016-47.7696-47.7696s21.4016-47.7696 47.7696-47.7696h155.4944c26.368 0 47.7696 21.4016 47.7696 47.7696s-21.4016 47.7696-47.7696 47.7696z" fill="#FF7E3E" ></path><path d="M693.248 164.3008H174.2336c-56.3712 0-102.1952 47.0528-102.1952 104.9088v54.6304h592.4352a644.352 644.352 0 0 0 28.7744-159.5392zM625.8176 419.3792H72.0384v329.0624c0 9.5744 1.3824 18.8416 3.7376 27.648 240.9984-10.496 447.7952-152.832 550.0416-356.7104z m-216.3712 161.6896H253.952c-26.368 0-47.7696-21.4016-47.7696-47.7696s21.4016-47.7696 47.7696-47.7696h155.4944c26.368 0 47.7696 21.4016 47.7696 47.7696s-21.4016 47.7696-47.7696 47.7696z" fill="#FF9552" ></path><path d="M475.392 164.3008H174.2336c-56.3712 0-102.1952 47.0528-102.1952 104.9088v54.6304h301.824c41.216-47.616 75.52-101.3248 101.5296-159.5392zM72.0384 520.0896c72.6016-21.9648 139.8272-56.32 199.168-100.7104h-199.168v100.7104z" fill="#FFA56A" ></path></svg>