<svg viewBox="0 0 1024 1024" version="1.1" xmlns="http://www.w3.org/2000/svg"><path d="M959.3856 487.8848l-110.336-110.336a26.96704 26.96704 0 0 1-7.8848-19.0976V202.3936a26.9824 26.9824 0 0 0-26.9824-26.9824h-156.0576c-7.168 0-14.0288-2.8672-19.0976-7.8848l-110.336-110.336a27.008 27.008 0 0 0-38.1952 0L380.0576 167.4752c-5.0688 5.0688-11.9296 7.8848-19.0976 7.8848H204.9024a26.9824 26.9824 0 0 0-26.9824 26.9824V358.4c0 7.168-2.8672 14.0288-7.8848 19.0976L59.648 487.8848a27.008 27.008 0 0 0 0 38.1952L169.984 636.416c5.0688 5.0688 7.8848 11.9296 7.8848 19.0976v156.0576a26.9824 26.9824 0 0 0 26.9824 26.9824H360.96c7.168 0 14.0288 2.8672 19.0976 7.8848l110.336 110.336a27.008 27.008 0 0 0 38.1952 0l110.336-110.336c5.0688-5.0688 11.9296-7.8848 19.0976-7.8848H814.08a26.9824 26.9824 0 0 0 26.9824-26.9824v-156.0576c0-7.168 2.8672-14.0288 7.8848-19.0976l110.336-110.336c10.6496-10.5472 10.6496-27.648 0.1024-38.1952zM295.168 389.4272c0-64.0512 39.0144-114.2784 88.7808-114.2784 49.7664 0 88.7808 50.176 88.7808 114.2784s-39.0144 114.2784-88.7808 114.2784c-49.7664 0-88.7808-50.176-88.7808-114.2784z m155.7504 339.3536a36.62336 36.62336 0 0 1-49.3056 15.872c-18.0224-9.216-25.088-31.2832-15.872-49.3056l191.0272-372.6848c9.216-17.9712 31.2832-25.088 49.3056-15.872 18.0224 9.216 25.088 31.2832 15.872 49.3056l-191.0272 372.6848z m217.1904-2.2016c-49.7664 0-88.7808-50.176-88.7808-114.2784s39.0144-114.2784 88.7808-114.2784 88.7808 50.176 88.7808 114.2784-38.9632 114.2784-88.7808 114.2784z" fill="#FF3369" ></path><path d="M667.9552 571.2896c-3.4304 0.9216-15.36 15.0016-15.36 41.0112s11.9296 40.1408 15.7184 41.0112c3.4304-0.9216 15.36-15.0016 15.36-41.0112s-11.9296-40.0896-15.7184-41.0112z" fill="#FF4D7C" ></path><path d="M399.5136 389.4272c0-26.0096-11.9296-40.1408-15.7184-41.0624-3.4304 0.9216-15.36 15.0016-15.36 41.0624 0 26.0096 11.9296 40.1408 15.7184 41.0112 3.4304-0.8704 15.36-15.0016 15.36-41.0112z" fill="#FF5F89" ></path><path d="M873.3184 401.8176l-24.32-24.32a26.96704 26.96704 0 0 1-7.8848-19.0976V202.3936a26.9824 26.9824 0 0 0-26.9824-26.9824h-156.0576c-7.168 0-14.0288-2.8672-19.0976-7.8848l-110.336-110.336a27.008 27.008 0 0 0-38.1952 0L380.0576 167.4752c-5.0688 5.0688-11.9296 7.8848-19.0976 7.8848H204.9024a26.9824 26.9824 0 0 0-26.9824 26.9824V358.4c0 7.168-2.8672 14.0288-7.8848 19.0976L59.648 487.8848a27.008 27.008 0 0 0 0 38.1952L169.984 636.416c5.0688 5.0688 7.8848 11.9296 7.8848 19.0976v156.0576a26.9824 26.9824 0 0 0 26.9824 26.9824H360.96c7.168 0 14.0288 2.8672 19.0976 7.8848l33.0752 33.0752c235.3152-49.7664 419.0208-239.3088 460.1856-477.696zM295.168 389.4272c0-64.0512 39.0144-114.2784 88.7808-114.2784 49.7664 0 88.7808 50.176 88.7808 114.2784s-39.0144 114.2784-88.7808 114.2784c-49.7664 0-88.7808-50.176-88.7808-114.2784z m123.136 359.2704c-5.632 0-11.3152-1.28-16.6912-4.0448-18.0224-9.216-25.088-31.2832-15.872-49.3056l191.0272-372.6848c9.216-17.9712 31.2832-25.088 49.3056-15.872 18.0224 9.216 25.088 31.2832 15.872 49.3056l-191.0272 372.6848a36.56704 36.56704 0 0 1-32.6144 19.9168z m161.024-136.3456c0-64.0512 39.0144-114.2784 88.7808-114.2784 49.7664 0 88.7808 50.176 88.7808 114.2784 0 64.0512-39.0144 114.2784-88.7808 114.2784-49.7664-0.0512-88.7808-50.2272-88.7808-114.2784z" fill="#FF4D7C" ></path><path d="M638.976 167.4752l-110.336-110.336a27.008 27.008 0 0 0-38.1952 0L380.0576 167.4752c-5.0688 5.0688-11.9296 7.8848-19.0976 7.8848H204.9024a26.9824 26.9824 0 0 0-26.9824 26.9824V358.4c0 7.168-2.8672 14.0288-7.8848 19.0976L59.648 487.8848a27.008 27.008 0 0 0 0 38.1952L169.984 636.416c5.0688 5.0688 7.8848 11.9296 7.8848 19.0976v24.5248c94.4128-7.8848 182.5792-37.888 259.1744-84.8896l139.6736-272.4864c9.216-17.9712 31.2832-25.088 49.3056-15.872 18.0224 9.216 25.088 31.2832 15.872 49.3056l-56.064 109.3632c66.816-81.408 112.2816-180.9408 128.0512-290.0992h-55.8592a26.9312 26.9312 0 0 1-19.0464-7.8848zM383.9488 503.7056c-49.7664 0-88.7808-50.176-88.7808-114.2784s39.0144-114.2784 88.7808-114.2784c49.7664 0 88.7808 50.176 88.7808 114.2784s-39.0144 114.2784-88.7808 114.2784z" fill="#FF5F89" ></path><path d="M295.4752 381.1328c3.2256-60.0064 40.8576-105.9328 88.4736-105.9328 10.752 0 20.9408 2.4576 30.4128 6.7584 55.9104-60.6208 99.3792-132.9664 126.1568-212.8896l-11.9296-11.9296a27.008 27.008 0 0 0-38.1952 0L380.0576 167.4752c-5.0688 5.0688-11.9296 7.8848-19.0976 7.8848H204.9024a26.9824 26.9824 0 0 0-26.9824 26.9824V358.4c0 7.168-2.8672 14.0288-7.8848 19.0976L84.1728 463.36c76.544-13.6704 147.968-42.1376 211.3024-82.2272z" fill="#FF7196" ></path></svg>