<svg viewBox="0 0 1024 1024" version="1.1" xmlns="http://www.w3.org/2000/svg"><path d="M557.5168 156.2624v-32.7168c0-28.2624-17.5616-44.8512-39.2192-44.8512s-39.2192 16.5376-39.2192 44.8512v32.512c-340.4288 20.992-384.768 325.2224-390.2976 420.352-0.8704 15.3088 11.3664 28.2112 26.7264 28.2112h369.7152v255.488c0 14.3872-11.7248 26.112-26.112 26.112-14.3872 0-26.112-11.7248-26.112-26.112v-0.9216c0-19.8656-16.0768-35.9424-35.9424-35.9424s-35.9424 16.0768-35.9424 35.9424v0.9216c0 54.016 43.9808 97.9968 97.9968 97.9968s97.9968-43.9808 97.9968-97.9968v-255.488h359.4752c15.3088 0 27.5456-12.8 26.7264-28.1088-5.0176-94.72-47.8208-397.7728-385.792-420.2496z m-95.3856 154.624c-1.28 0.256-128.5632 25.7536-182.8864 136.3456a30.0032 30.0032 0 0 1-26.9312 16.7424c-4.4544 0-8.9088-0.9728-13.1584-3.072a29.91616 29.91616 0 0 1-13.6704-40.0896c67.7888-138.1376 219.2384-167.6288 225.6384-168.8064a29.952 29.952 0 0 1 34.9184 24.0128 29.9008 29.9008 0 0 1-23.9104 34.8672z" fill="#6C6CEA" ></path><path d="M861.5936 317.8496c-55.6032-81.5104-148.5824-151.2448-304.0768-161.5872v-32.7168c0-28.2624-17.5616-44.8512-39.2192-44.8512s-39.2192 16.5888-39.2192 44.8512v32.512c-340.4288 20.992-384.768 325.2224-390.2976 420.352-0.8704 15.3088 11.3664 28.2112 26.7264 28.2112h369.7152v255.488c0 1.6896-0.2048 3.328-0.512 4.9152 24.9856-9.728 49.152-21.1456 72.3968-34.048v-226.3552h228.0448c48.0256-84.7872 75.7248-182.5792 76.4416-286.7712z m-399.4624-6.9632c-1.28 0.256-128.5632 25.7536-182.8864 136.3456a29.94688 29.94688 0 0 1-40.0896 13.6704 29.91616 29.91616 0 0 1-13.6704-40.0896c67.7888-138.1376 219.2384-167.6288 225.6384-168.8576a29.952 29.952 0 0 1 34.9184 24.0128c3.0208 16.2816-7.68 31.8976-23.9104 34.9184zM433.0496 860.1088v-0.9216c0-19.8656-16.0768-35.9424-35.9424-35.9424-19.8656 0-35.9424 16.0768-35.9424 35.9424v0.9216c0 13.056 2.6112 25.4976 7.2704 36.9152 25.1392-4.1984 49.7664-9.984 73.728-17.2544-5.5808-4.8128-9.1136-11.8272-9.1136-19.6608z" fill="#757BF2" ></path><path d="M557.5168 156.2624v-32.7168c0-28.2624-17.5616-44.8512-39.2192-44.8512s-39.2192 16.5888-39.2192 44.8512v32.512c-340.4288 20.992-384.768 325.2224-390.2976 420.352-0.8704 15.3088 11.3664 28.2112 26.7264 28.2112h307.0976c144.64-90.9824 247.1424-242.7904 271.5648-419.5328-39.1168-15.1552-84.3264-25.344-136.6528-28.8256z m-95.3856 154.624c-1.28 0.256-128.5632 25.7536-182.8864 136.3456a29.94688 29.94688 0 0 1-40.0896 13.6704 29.91616 29.91616 0 0 1-13.6704-40.0896c67.7888-138.1376 219.2384-167.6288 225.6384-168.8576a29.952 29.952 0 0 1 34.9184 24.0128c3.0208 16.2816-7.68 31.8976-23.9104 34.9184z" fill="#8486F8" ></path><path d="M518.2976 78.6944c-21.6576 0-39.2192 16.5888-39.2192 44.8512v32.512c-251.2384 15.5136-341.1968 185.1904-373.2992 311.296 41.5744-10.5984 81.408-25.6 118.9888-44.4928 0.256-0.6656 0.4096-1.3824 0.768-2.048 51.7632-105.472 152.2176-147.5584 199.7312-162.1504a589.71648 589.71648 0 0 0 96.256-179.8656c-1.0752-0.0512-2.1504-0.1024-3.2256-0.1024z" fill="#8D92F8" ></path></svg>