<svg viewBox="0 0 1024 1024" version="1.1" xmlns="http://www.w3.org/2000/svg"><path d="M731.392 261.7856H295.5264c-31.3856 0-56.8832-25.4464-56.8832-56.8832V120.5248a34.816 34.816 0 0 1 34.816-34.816h479.9488a34.816 34.816 0 0 1 34.816 34.816v84.3776c0 31.3856-25.4464 56.8832-56.832 56.8832z" fill="#1DCE75" ></path><path d="M744.6528 301.6704H282.2144c-55.3984 0-100.3008 44.9024-100.3008 100.3008v446.208c0 55.3984 44.9024 100.3008 100.3008 100.3008h462.4384c55.3984 0 100.3008-44.9024 100.3008-100.3008V401.9712c0-55.3984-44.9024-100.3008-100.3008-100.3008z m-85.9136 359.8848h-108.8v108.8H476.9792v-108.8H368.1792v-72.96h108.8V479.7952h72.96v108.8h108.8v72.96z" fill="#05C46D" ></path><path d="M844.9536 549.2736V401.9712c0-55.3984-44.9024-100.3008-100.3008-100.3008H282.2144c-55.3984 0-100.3008 44.9024-100.3008 100.3008v446.208c0 52.4288 40.2944 95.4368 91.5456 99.8912 1.536 0 3.1232 0.0512 4.6592 0.0512 261.2224 0 483.5328-166.3488 566.8352-398.848z m-186.2144 112.2816h-108.8v108.8H476.9792v-108.8H368.1792v-72.96h108.8V479.7952h72.96v108.8h108.8v72.96z" fill="#1DCE75" ></path><path d="M715.4688 132.352c0-15.6672-0.6144-31.232-1.792-46.592h-428.544a46.4896 46.4896 0 0 0-46.4896 46.4896V185.856c0 41.9328 33.9968 75.9296 75.9296 75.9296H701.44c9.1648-41.728 14.0288-84.992 14.0288-129.4336zM282.2144 301.6704c-55.3984 0-100.3008 44.9024-100.3008 100.3008v328.448c78.4384-8.8576 152.3712-32.8192 218.7264-68.864h-32.4608v-72.96h108.8V479.7952h72.96v67.1744c65.024-68.4544 114.1248-152.2176 141.3632-245.2992h-409.088z" fill="#3CD38E" ></path><path d="M540.7232 85.7088H285.1328a46.4896 46.4896 0 0 0-46.4896 46.4896v53.6064c0 41.9328 33.9968 75.9296 75.9296 75.9296h142.592a597.78048 597.78048 0 0 0 83.5584-176.0256zM181.9136 401.9712v77.8752c96.256-37.7856 180.4288-99.6352 245.0944-178.176H282.2144c-55.3984 0-100.3008 44.9024-100.3008 100.3008z" fill="#48E1AA" ></path></svg>