<svg viewBox="0 0 1024 1024" version="1.1" xmlns="http://www.w3.org/2000/svg"><path d="M703.8464 106.4448H203.6736c-42.752 0-77.4144 34.6624-77.4144 77.4144v683.6224c0 26.4192 21.4528 47.872 47.872 47.872 10.0864 0 19.968-3.2256 28.16-9.1648l84.5312-61.44 75.5712 54.8864c3.2768 2.4064 7.7312 2.4064 11.0592 0L448.9728 844.8l76.0832 55.2448c3.1744 2.304 7.424 2.3552 10.6496 0.2048-39.936-46.3872-64.1536-106.7008-64.1536-172.6976 0-146.2272 118.528-264.7552 264.7552-264.7552 15.36 0 30.3616 1.3824 45.0048 3.8912V183.8592c-0.0512-42.752-34.7136-77.4144-77.4656-77.4144z m-288.6656 516.096H290.9184a43.5712 43.5712 0 1 1 0-87.1424h124.2624a43.5712 43.5712 0 1 1 0 87.1424z m151.1424-162.9184H290.9184a43.5712 43.5712 0 1 1 0-87.1424h275.4048a43.5712 43.5712 0 1 1 0 87.1424z m50.2784-156.6208H290.9184a43.5712 43.5712 0 1 1 0-87.1424h325.6832a43.5712 43.5712 0 1 1 0 87.1424z" fill="#1DCE75" ></path><path d="M736.256 538.4192c-104.4992 0-189.184 84.6848-189.184 189.184s84.6848 189.184 189.184 189.184c104.4992 0 189.184-84.6848 189.184-189.184s-84.6848-189.184-189.184-189.184z m87.5008 226.4576c17.2032 0 31.1296 13.9264 31.1296 31.1296s-13.9264 31.1296-31.1296 31.1296h-55.808v25.9584c0 17.2032-13.9264 31.1296-31.1296 31.1296s-31.1296-13.9264-31.1296-31.1296v-25.9584h-55.808c-17.2032 0-31.1296-13.9264-31.1296-31.1296s13.9264-31.1296 31.1296-31.1296h55.808v-17.6128h-55.808c-17.2032 0-31.1296-13.9264-31.1296-31.1296s13.9264-31.1296 31.1296-31.1296h15.5136l-29.0304-31.3344a31.13984 31.13984 0 0 1 1.6896-43.9808 31.13984 31.13984 0 0 1 43.9808 1.6896l54.4256 58.7264 53.0944-63.744a31.10912 31.10912 0 0 1 43.8272-3.9936 31.10912 31.10912 0 0 1 3.9936 43.8272l-32.3584 38.8096h18.7904c17.2032 0 31.1296 13.9264 31.1296 31.1296s-13.9264 31.1296-31.1296 31.1296H768v17.6128h55.7568z" fill="#05C46D" ></path><path d="M547.072 727.552c0 52.1728 21.1456 99.4304 55.296 133.6832 14.1312-11.0592 27.8016-22.6816 41.0112-34.8672a31.11424 31.11424 0 0 1 6.5536-61.5424h51.9168l3.8912-4.6592v-12.9024h-55.808c-17.2032 0-31.1296-13.9264-31.1296-31.1296s13.9264-31.1296 31.1296-31.1296h15.5136l-29.0304-31.3344a31.13984 31.13984 0 0 1 1.6896-43.9808 31.13984 31.13984 0 0 1 43.9808 1.6896l54.4256 58.7264 53.0944-63.744c3.7376-4.5056 8.4992-7.5264 13.6704-9.3184 5.4272-13.1584 10.4448-26.5216 15.0016-40.0896a188.37504 188.37504 0 0 0-81.92-18.5856c-104.5504 0.0512-189.2864 84.736-189.2864 189.184z" fill="#1DCE75" ></path><path d="M566.3232 459.6224H290.9184a43.5712 43.5712 0 1 1 0-87.1424h275.4048c20.4288 0 37.5296 14.1312 42.24 33.1264 19.456-39.5776 35.0208-81.408 46.08-125.0304a43.53536 43.53536 0 0 1-38.0416 22.4256H290.9184a43.5712 43.5712 0 1 1 0-87.1424h325.6832c23.3984 0 42.4448 18.4832 43.4688 41.6256 9.5232-44.1856 14.592-90.0608 14.592-137.1136 0-4.6592-0.1024-9.3184-0.1536-13.9264H203.6736c-42.752 0-77.4144 34.6624-77.4144 77.4144v576.6656c192.256-29.5936 356.608-143.7184 453.9392-303.1552-4.352 1.4336-9.0112 2.2528-13.8752 2.2528z m-151.1424 162.9184H290.9184a43.5712 43.5712 0 1 1 0-87.1424h124.2624a43.5712 43.5712 0 1 1 0 87.1424z" fill="#3CD38E" ></path><path d="M247.5008 413.1328c1.536-22.6816 20.3264-40.6016 43.4176-40.6016h6.4c23.8592-21.504 46.1312-44.7488 66.6112-69.5296H290.9184a43.5712 43.5712 0 1 1 0-87.1424h133.632c20.0704-34.56 37.0176-71.168 50.4832-109.4144h-271.36c-42.752 0-77.4144 34.6624-77.4144 77.4144v299.6736c43.1104-19.0976 83.712-42.752 121.2416-70.4z" fill="#48E1AA" ></path></svg>