<svg viewBox="0 0 1024 1024" version="1.1" xmlns="http://www.w3.org/2000/svg"><path d="M793.6 167.7312h-14.4896v82.5344c0 53.9136-43.7248 97.6384-97.6384 97.6384-53.9136 0-97.6384-43.7248-97.6384-97.6384V167.7312H414.0032v82.5344c0 53.9136-43.7248 97.6384-97.6384 97.6384S218.7776 304.128 218.7776 250.2144V168.3456C156.16 174.7968 107.264 227.6864 107.264 292.0448v500.1728c0 68.6592 55.6544 124.3136 124.3136 124.3136H793.6c68.6592 0 124.3136-55.6544 124.3136-124.3136V292.0448c0-68.6592-55.6544-124.3136-124.3136-124.3136z m-172.4928 584.7552H281.1904c-25.1392 0-45.568-20.3776-45.568-45.568s20.3776-45.568 45.568-45.568h339.9168c25.1392 0 45.568 20.3776 45.568 45.568s-20.3776 45.568-45.568 45.568z m117.1456-218.4704H281.1904c-25.1392 0-45.568-20.3776-45.568-45.568s20.3776-45.568 45.568-45.568h457.0624c25.1392 0 45.568 20.3776 45.568 45.568s-20.3776 45.568-45.568 45.568z" fill="#FF3369" ></path><path d="M316.416 295.7824c-25.1392 0-45.568-20.3776-45.568-45.568V138.3936c0-25.1392 20.3776-45.568 45.568-45.568s45.568 20.3776 45.568 45.568v111.872c0 25.1392-20.4288 45.5168-45.568 45.5168z" fill="#FF7196" ></path><path d="M681.472 295.7824c-25.1392 0-45.568-20.3776-45.568-45.568V138.3936c0-25.1392 20.3776-45.568 45.568-45.568s45.568 20.3776 45.568 45.568v111.872c0 25.1392-20.3776 45.5168-45.568 45.5168z" fill="#FF5F89" ></path><path d="M917.9136 292.0448c0-68.6592-55.6544-124.3136-124.3136-124.3136h-14.4896v82.5344c0 53.9136-43.7248 97.6384-97.6384 97.6384-53.9136 0-97.6384-43.7248-97.6384-97.6384V167.7312H414.0032v82.5344c0 53.9136-43.7248 97.6384-97.6384 97.6384S218.7776 304.128 218.7776 250.2144V168.3968C156.16 174.7968 107.264 227.6864 107.264 292.0448v500.1728c0 68.6592 55.6544 124.3136 124.3136 124.3136h252.416c223.6928-71.5776 393.5744-263.2704 433.92-499.2V292.0448z m-296.8064 460.4416H281.1904c-25.1392 0-45.568-20.3776-45.568-45.568 0-25.1392 20.3776-45.568 45.568-45.568h339.9168c25.1392 0 45.568 20.3776 45.568 45.568s-20.3776 45.568-45.568 45.568z m117.1456-218.4704H281.1904c-25.1392 0-45.568-20.3776-45.568-45.568 0-25.1392 20.3776-45.568 45.568-45.568h457.0624c25.1392 0 45.568 20.3776 45.568 45.568s-20.3776 45.568-45.568 45.568z" fill="#FF4D7C" ></path><path d="M107.264 720.2816c2.6112 0.0512 5.2224 0.1024 7.8336 0.1024 41.2672 0 81.5616-3.9424 120.6272-11.4688-0.0512-0.6656-0.1024-1.3312-0.1024-1.9968 0-25.1392 20.3776-45.568 45.568-45.568h102.0416a638.45888 638.45888 0 0 0 182.3232-127.3856H281.1904c-25.1392 0-45.568-20.3776-45.568-45.568 0-25.1392 20.3776-45.568 45.568-45.568h360.0896c20.7872-30.3104 39.0144-62.464 54.3744-96.2048-4.6592 0.6656-9.3696 1.1264-14.1824 1.1264-53.9136 0-97.6384-43.7248-97.6384-97.6384V167.7312H414.0032v82.5344c0 53.9136-43.7248 97.6384-97.6384 97.6384S218.7776 304.128 218.7776 250.2144V168.3968C156.16 174.7968 107.264 227.6864 107.264 292.0448v428.2368z" fill="#FF5F89" ></path><path d="M511.6416 167.7312H414.0032v82.5344c0 53.9136-43.7248 97.6384-97.6384 97.6384S218.7776 304.128 218.7776 250.2144V168.3968C156.16 174.7968 107.264 227.6864 107.264 292.0448v184.32c173.6704-42.6496 319.3344-156.416 404.3776-308.6336z" fill="#FF7196" ></path></svg>