<svg viewBox="0 0 1024 1024" version="1.1" xmlns="http://www.w3.org/2000/svg"><path d="M612.1472 924.0576l-115.2 27.7504c-18.0736 4.352-34.0992-12.544-28.8256-30.3616l32.5632-109.4144c1.1264-3.84 3.2256-7.3728 6.0928-10.1888l302.0288-302.0288a24.1664 24.1664 0 0 1 34.1504 0l82.176 82.176a24.1664 24.1664 0 0 1 0 34.1504l-301.568 301.568c-3.1232 3.1232-7.0656 5.3248-11.4176 6.3488zM717.312 81.7152H216.8832c-55.1936 0-99.9424 44.7488-99.9424 99.9424v622.1312c0 55.1936 44.7488 99.9424 99.9424 99.9424h198.912l40.448-139.0592 361.0112-348.928V181.6576c0-55.1936-44.7488-99.9424-99.9424-99.9424zM442.6752 659.5072H298.7008c-27.4432 0-49.664-22.2208-49.664-49.664s22.2208-49.664 49.664-49.664h143.9744c27.4432 0 49.664 22.2208 49.664 49.664s-22.2208 49.664-49.664 49.664z m192.8704-164.7616H298.7008c-27.4432 0-49.664-22.2208-49.664-49.664s22.2208-49.664 49.664-49.664h336.7936c27.4432 0 49.664 22.2208 49.664 49.664s-22.2208 49.664-49.6128 49.664z m0-153.0368H298.7008c-27.4432 0-49.664-22.2208-49.664-49.664s22.2208-49.664 49.664-49.664h336.7936c27.4432 0 49.664 22.2208 49.664 49.664s-22.2208 49.664-49.6128 49.664z" fill="#FC7032" ></path><path d="M817.2544 181.6576c0-55.1936-44.7488-99.9424-99.9424-99.9424H216.9344c-55.1936 0-99.9424 44.7488-99.9424 99.9424v622.1312c0 55.1936 44.7488 99.9424 99.9424 99.9424h74.5984c46.336-5.888 91.136-16.896 133.7344-32.3584l31.0272-106.7008 361.0112-348.928V181.6576z m-374.5792 477.8496H298.7008c-27.4432 0-49.664-22.2208-49.664-49.664s22.2208-49.664 49.664-49.664h143.9744c27.4432 0 49.664 22.2208 49.664 49.664s-22.2208 49.664-49.664 49.664z m192.8704-164.7616H298.7008c-27.4432 0-49.664-22.2208-49.664-49.664s22.2208-49.664 49.664-49.664h336.7936c27.4432 0 49.664 22.2208 49.664 49.664s-22.2208 49.664-49.6128 49.664z m0-153.0368H298.7008c-27.4432 0-49.664-22.2208-49.664-49.664s22.2208-49.664 49.664-49.664h336.7936c27.4432 0 49.664 22.2208 49.664 49.664s-22.2208 49.664-49.6128 49.664zM791.6544 517.0176l-284.8768 284.8768a24.6784 24.6784 0 0 0-6.0928 10.1888L491.52 842.8544c135.7312-68.096 243.1488-184.1152 300.1344-325.8368z" fill="#FF8345" ></path><path d="M264.5504 645.7856a49.3824 49.3824 0 0 1-15.4624-35.9424c0-27.4432 22.2208-49.664 49.664-49.664H418.304c26.2144-19.9168 50.7904-41.7792 73.5232-65.4848H298.7008c-27.4432 0-49.664-22.2208-49.664-49.664s22.2208-49.664 49.664-49.664h270.848c10.9568-17.3568 21.0944-35.2768 30.3104-53.7088H298.7008c-27.4432 0-49.664-22.2208-49.664-49.664s22.2208-49.664 49.664-49.664h336.7936c1.28 0 2.5088 0.1024 3.7376 0.2048 15.4112-51.2 24.4224-105.1136 26.112-160.9216H216.9344c-55.1936 0-99.9424 44.7488-99.9424 99.9424v500.736c51.3536-6.144 100.8128-18.5856 147.5584-36.5056z" fill="#FF9552" ></path><path d="M269.9776 332.544c-12.6464-9.0112-20.9408-23.7568-20.9408-40.448 0-27.4432 22.2208-49.664 49.664-49.664h64.1536c40.2432-47.9744 73.3696-102.0928 97.8432-160.7168H216.9344c-55.1936 0-99.9424 44.7488-99.9424 99.9424v239.4112a623.85664 623.85664 0 0 0 152.9856-88.5248z" fill="#FFA56A" ></path></svg>