<svg viewBox="0 0 1024 1024" version="1.1" xmlns="http://www.w3.org/2000/svg"><path d="M814.6944 113.8176H208.2816c-56.6272 0-102.5536 44.0832-102.5536 98.4064v450.9696c0 54.3744 45.9264 98.4064 102.5536 98.4064h201.0624v73.3184h-55.296c-19.968 0-36.1984 15.5648-36.1984 34.7136 0 19.2 16.1792 34.7136 36.1984 34.7136h314.8288c19.968 0 36.1984-15.5648 36.1984-34.7136 0-19.2-16.1792-34.7136-36.1984-34.7136h-55.296v-73.3184h201.0624c56.6272 0 102.5536-44.0832 102.5536-98.4064V212.2752c0-54.3744-45.8752-98.4576-102.5024-98.4576zM511.488 736.9216c-25.7536 0-46.6432-20.0192-46.6432-44.7488s20.8896-44.7488 46.6432-44.7488c25.7536 0 46.6432 20.0192 46.6432 44.7488s-20.8896 44.7488-46.6432 44.7488z m352.8192-173.3632c0 31.8976-27.0336 57.856-60.2624 57.856H218.9312c-33.2288 0-60.2624-25.9584-60.2624-57.856V227.3792c0-31.8976 27.0336-57.856 60.2624-57.856h585.1136c33.2288 0 60.2624 25.9584 60.2624 57.856v336.1792z" fill="#F23D4F" ></path><path d="M804.0448 221.952H218.9312c-3.1232 0-5.6832 2.4576-5.6832 5.4272v336.1792c0 3.0208 2.56 5.4272 5.6832 5.4272h585.1136c3.1232 0 5.6832-2.4576 5.6832-5.4272V227.3792c0-2.9696-2.56-5.4272-5.6832-5.4272zM421.2736 467.7632c-6.2976 9.1648-16.7424 14.1824-27.392 14.1824-6.1952 0-12.4416-1.6896-17.9712-5.1712L282.9824 418.0992c-9.4208-5.9392-15.0016-16.128-14.7456-26.9824 0.256-10.8032 6.2976-20.7872 15.9744-26.3168l89.6512-51.3536c15.5648-8.9088 35.6352-4.0448 44.9536 10.9056 9.2672 14.8992 4.1984 34.2016-11.3664 43.1104l-44.7488 25.6512 49.2032 31.0784c15.104 9.5744 19.3024 29.0816 9.3696 43.5712z m152.7296-160.8192L492.7488 506.88c-5.0688 12.4416-17.408 20.0192-30.5664 20.0192-3.9424 0-7.9872-0.7168-11.8784-2.1504-16.8448-6.2976-25.1904-24.5248-18.6368-40.7552l81.2544-199.936c6.5536-16.1792 25.6-24.1664 42.4448-17.8688 16.8448 6.3488 25.1904 24.576 18.6368 40.7552z m152.3712 111.1552l-92.8768 58.6752a33.80736 33.80736 0 0 1-17.9712 5.1712c-10.6496 0-21.0944-4.9664-27.392-14.1824-9.9328-14.4896-5.7344-33.9968 9.3696-43.5712l49.2032-31.0784-44.7488-25.6c-15.5648-8.9088-20.6336-28.2112-11.3664-43.1104s29.3888-19.8144 44.9536-10.9056l89.6512 51.3536c9.6768 5.5296 15.7184 15.5136 15.9744 26.3168 0.2048 10.8032-5.376 20.992-14.7968 26.9312z" fill="#FC4956" ></path><path d="M208.2816 113.8176c-56.6272 0-102.5536 44.0832-102.5536 98.4064v450.9696c0 54.3744 45.9264 98.4064 102.5536 98.4064h201.0624v73.3184h-55.296c-19.968 0-36.1984 15.5648-36.1984 34.7136 0 19.2 16.1792 34.7136 36.1984 34.7136h54.4768c75.3664-23.3984 144.6912-59.648 205.1072-106.1888v-36.608h58.8288c42.1376-41.5232 78.2848-88.6784 107.0592-140.2368H218.9312c-33.28 0-60.2624-25.9072-60.2624-57.856V227.3792c0-31.9488 26.9824-57.856 60.2624-57.856h585.1136c12.032 0 23.1936 3.4304 32.6144 9.2672-4.4544-17.152-9.6256-48.128-15.5136-64.6656-2.1504-0.1536-4.3008-0.3072-6.4512-0.3072H208.2816zM511.488 647.424c25.7536 0 46.6432 20.0192 46.6432 44.7488s-20.8896 44.7488-46.6432 44.7488c-25.7536 0-46.6432-20.0192-46.6432-44.7488s20.8896-44.7488 46.6432-44.7488z" fill="#FC4956" ></path><path d="M213.248 227.3792v336.1792c0 3.0208 2.56 5.4272 5.6832 5.4272h239.6672c63.2832-54.8864 115.1488-121.6 151.9104-196.5568l-8.6528-4.9664c-15.5648-8.9088-20.6336-28.2112-11.3664-43.1104s29.3888-19.8144 44.9536-10.9056l0.1536 0.1024c10.8032-29.5936 19.3024-60.16 25.344-91.5968H218.9312c-3.1232 0-5.6832 2.4576-5.6832 5.4272z m218.4704 256.6144l81.2544-199.936c6.5536-16.1792 25.6-24.1664 42.4448-17.8688 16.8448 6.2976 25.1904 24.5248 18.6368 40.7552L492.7488 506.88c-5.0688 12.4416-17.408 20.0192-30.5152 20.0192-3.9424 0-7.9872-0.7168-11.8784-2.1504-16.896-6.2976-25.2416-24.576-18.6368-40.7552zM284.2112 364.8l89.6512-51.3536c15.5648-8.9088 35.6352-4.0448 44.9536 10.9056 9.2672 14.8992 4.1984 34.2016-11.3664 43.1104l-44.7488 25.6512 49.2032 31.0784c15.104 9.5232 19.3024 29.0304 9.3696 43.5712-6.2976 9.1648-16.7424 14.1824-27.392 14.1824-6.1952 0-12.4416-1.6896-17.9712-5.1712L282.9824 418.0992c-9.4208-5.9392-15.0016-16.128-14.7456-26.9824 0.256-10.8032 6.2464-20.7872 15.9744-26.3168z" fill="#FF5C64" ></path><path d="M218.9312 621.4144c-33.2288 0-60.2624-25.9584-60.2624-57.856V227.3792c0-31.8976 27.0336-57.856 60.2624-57.856h449.6896c1.3824-13.7216 2.304-41.728 2.7648-55.7056H208.2816c-56.6272 0-102.5536 44.0832-102.5536 98.4064v450.9696c0 21.8112 7.4752 41.8816 19.968 58.2144 96.5632-14.4384 186.0096-49.3568 263.424-99.9936H218.9312z" fill="#FF5C64" ></path><path d="M213.248 227.3792v183.1424c78.3872-48.5888 145.0496-112.9984 195.1744-188.5696H218.9312c-3.1232 0-5.6832 2.4576-5.6832 5.4272z" fill="#FF716E" ></path><path d="M158.6176 440.8832v-213.504c0-31.8976 27.0336-57.856 60.2624-57.856h220.672c7.168-13.568 13.8752-41.5744 20.0192-55.7056H208.2816c-56.6272 0-102.5536 44.0832-102.5536 98.4064v251.904c18.0736-7.0144 35.6864-14.7456 52.8896-23.2448z" fill="#FF716E" ></path></svg>