<svg viewBox="0 0 1024 1024" version="1.1" xmlns="http://www.w3.org/2000/svg"><path d="M776.6528 660.1728c24.3712 24.1152 43.8272 43.4688 70.3488 69.7344-7.9872 7.3728-113.3056 113.8176-159.5904 160.6656-27.0848 27.392-63.4368 32.6144-98.2528 41.1648-11.008 2.7136-15.3088-5.5296-13.0048-15.104 8.96-37.4272 17.1008-74.24 47.5648-103.0656 52.3264-49.7152 102.0416-102.144 152.9344-153.3952z" fill="#2595E8" ></path><path d="M630.8864 89.9584c12.7488 5.3248 24.2176 7.2192 31.6928 13.7216 37.632 32.6656 75.1104 65.5872 110.5408 100.5568 9.3696 9.2672 11.3664 26.0096 18.3296 43.264-46.848 0-87.1424 0.6144-127.4368-0.5632-6.7584-0.2048-15.9232-6.6048-19.4048-12.6976-6.3488-11.264-12.4416-24.2688-13.1072-36.8128-1.792-33.9968-0.6144-68.1984-0.6144-107.4688z" fill="#3A9CED" ></path><path d="M879.0528 700.5696c-23.808-24.9856-45.4656-47.8208-68.1472-71.6288 8.5504-8.5504 25.2928-28.2624 45.312-23.5008 25.6512 5.9904 39.5264 24.0128 47.2064 47.36 7.424 22.528-11.2128 35.6352-24.3712 47.7696zM786.176 321.8944c0-6.144-0.6656-12.2368-1.0752-19.8656-39.2192 0-77.1072-0.4608-114.944 0.1024-39.68 0.6144-67.0208-18.5344-81.408-53.76-7.424-18.2272-10.4448-39.0144-11.6224-58.88-1.8432-31.3856-0.512-62.976-0.512-96.4608-108.9536 0-234.24-0.4096-340.0192 0.512-12.544 0.1024-26.4704 5.2224-37.2736 12.032-38.6048 24.2176-58.9312 59.0848-58.8288 105.8304 0.4096 181.76 1.8944 363.5712-0.8192 545.28-0.8704 56.32 54.3744 117.0432 112.384 121.4976h0.3584c3.4304 0.256 189.0304 1.7408 189.0304 1.7408 64.4096 0 88.1152-30.72 93.3888-36.1984 1.6384-1.6896 13.3632-14.336 28.7744-31.0272l89.2928-94.5664c-3.3792 0.6144-8.7552 1.1264-17.5616 1.1264-1.5872 0.1536-3.1232 0.2048-4.6592 0.2048-105.1648 0.1024-229.7856 0.256-335.0016-0.0512-21.5552-0.0512-37.4784-10.8032-46.592-30.3616-16.6912-35.84 9.1136-74.752 50.2784-74.9056 98.2016-0.3584 215.8592 0.0512 314.0608-0.256 20.1216-0.0512 39.424 0.7168 54.3744 16.64 14.4384 15.36 16.8448 33.8944 14.848 44.032 0 0-0.0512 7.0144-2.816 14.9504l93.4912-99.0208c7.0656-6.912 12.1344-19.3536 12.288-29.2864 1.024-79.7184 0.6144-159.488 0.5632-239.3088z m-163.84 189.0816c-49.9712 0.2048-99.9424 0.0512-149.9136 0.0512-49.9712 0-119.4496 0.1536-169.4208-0.0512-36.3008-0.1536-58.4192-20.3776-58.368-52.7872 0.0512-31.8976 22.7328-52.9408 58.5216-53.0432 99.9424-0.256 219.392-0.256 319.3344 0 35.84 0.1024 60.672 23.04 60.0064 54.1696-0.6144 31.1296-24.1664 51.5584-60.16 51.6608z" fill="#2595E8" ></path><path d="M786.176 321.8944c0-6.144-0.6656-12.2368-1.0752-19.8656-39.2192 0-77.1072-0.4608-114.944 0.1024-39.68 0.6144-67.0208-18.5344-81.408-53.76-7.424-18.2272-10.4448-39.0144-11.6224-58.88-1.8432-31.3856-0.512-62.976-0.512-96.4608-108.9536 0-234.24-0.4096-340.0192 0.512-12.544 0.1024-26.4704 5.2224-37.2736 12.032-38.6048 24.2176-58.9312 59.0848-58.8288 105.8304 0.4096 181.76 1.8944 363.5712-0.8192 545.28-0.4096 26.4192 11.6224 53.76 30.4128 75.8272 19.3536 1.9968 39.0144 3.0208 58.88 3.0208 129.6896 0 268.6976-43.2128 364.5952-116.0192-92.7744 0.1024-205.056 0.1536-297.8816-0.1024-21.5552-0.0512-37.4784-10.8032-46.592-30.3616-16.6912-35.84 9.1136-74.752 50.2784-74.9056 98.2016-0.3584 215.8592 0.0512 314.0608-0.256 20.1216-0.0512 39.424 0.7168 54.3744 16.64 3.6352 3.84 6.4512 7.8848 8.704 11.9808 47.4624-53.6576 84.992-116.224 109.7216-184.9856 0.1024-45.1584-0.0512-90.4192-0.0512-135.6288z m-163.84 189.0816c-49.9712 0.2048-99.9424 0.0512-149.9136 0.0512-49.9712 0-119.4496 0.1536-169.4208-0.0512-36.3008-0.1536-58.4192-20.3776-58.368-52.7872 0.0512-31.8976 22.7328-52.9408 58.5216-53.0432 99.9424-0.256 219.392-0.256 319.3344 0 35.84 0.1024 60.672 23.04 60.0064 54.1696-0.6144 31.1296-24.1664 51.5584-60.16 51.6608z" fill="#3A9CED" ></path><path d="M444.4672 511.0784c-40.6528 0.0512-100.8128 0.1024-141.4656-0.0512-36.3008-0.1536-58.4192-20.3776-58.368-52.7872 0.0512-31.8976 22.7328-52.9408 58.5216-53.0432 75.264-0.2048 169.984-0.2048 245.248-0.1024 27.392-36.3008 50.5856-76.032 68.8128-118.3744-12.288-9.0624-21.8624-21.9648-28.5696-38.4-7.424-18.2272-10.4448-39.0144-11.6224-58.88-1.8432-31.3856-0.512-62.976-0.512-96.4608-108.9536 0-234.24-0.4096-340.0192 0.512-12.544 0.1024-26.4704 5.2224-37.2736 12.032-38.6048 24.2176-58.9312 59.0848-58.8288 105.8304 0.3072 139.0592 1.2288 278.0672 0.4608 417.1264 106.496-12.6464 223.4368-54.528 303.616-117.4016zM630.8864 89.9584c0 39.2704-1.1776 73.4208 0.6144 107.4688 0.4608 9.216 3.8912 18.688 8.192 27.5456 11.6224-38.9632 19.2512-79.7184 22.3232-121.7024-7.5264-6.0928-18.688-8.0896-31.1296-13.312z" fill="#59ADF8" ></path><path d="M469.8624 92.9792c-71.8848-0.0512-162.304-0.0512-233.216 0.6144-12.544 0.1024-26.4704 5.2224-37.2736 12.032-38.6048 24.2176-58.9312 59.0848-58.8288 105.8304 0.1536 59.4432 0.3584 118.8352 0.5632 178.2784 137.5232-55.0912 268.1856-162.048 328.7552-296.7552z" fill="#6BC2FC" ></path></svg>