<svg viewBox="0 0 1024 1024" version="1.1" xmlns="http://www.w3.org/2000/svg"><path d="M362.496 339.6608l207.8208-192.4096c33.4336-30.976 87.6032-31.232 121.4464-0.6144l134.7584 122.0608c20.0192 18.176 21.0432 47.7184 2.2016 66.9696l-466.2272 3.9936z" fill="#1DCE75" ></path><path d="M212.736 339.2512l127.3856-190.4128c22.528-35.84 70.2464-50.7392 111.616-34.8672 31.1296 11.9296 60.3648 23.2448 59.4944 23.2448-1.8944 0-219.4432 201.1648-219.4432 201.1648l-79.0528 0.8704z" fill="#48E1AA" ></path><path d="M824.5248 400.9472H195.0208c-60.3136 0-109.2096 48.896-109.2096 109.2096v285.7984c0 60.3136 48.896 109.2096 109.2096 109.2096h629.504c60.3136 0 109.2096-48.896 109.2096-109.2096V510.1568c0-60.3136-48.896-109.2096-109.2096-109.2096zM246.8352 719.7696c-36.864 0-66.7136-29.8496-66.7136-66.7136 0-36.864 29.8496-66.7136 66.7136-66.7136 36.864 0 66.7136 29.8496 66.7136 66.7136 0 36.8128-29.8496 66.7136-66.7136 66.7136z" fill="#05C46D" ></path><path d="M195.0208 400.9472c-60.3136 0-109.2096 48.896-109.2096 109.2096v285.7984c0 60.3136 48.896 109.2096 109.2096 109.2096h432.6912c145.0496-110.4384 238.6432-284.8768 238.6432-481.2288 0-4.9152-0.0512-9.7792-0.2048-14.6944a108.37504 108.37504 0 0 0-41.6256-8.2432H195.0208z m51.8144 318.8224c-36.864 0-66.7136-29.8496-66.7136-66.7136 0-36.864 29.8496-66.7136 66.7136-66.7136 36.864 0 66.7136 29.8496 66.7136 66.7136 0 36.8128-29.8496 66.7136-66.7136 66.7136z" fill="#1DCE75" ></path><path d="M683.1616 336.896c11.6224-43.3152 17.8176-88.576 17.8176-135.2192 0-16.4352-0.8192-32.6656-2.304-48.7424l-6.9632-6.2976c-33.8432-30.6176-87.9616-30.3616-121.4464 0.6144L362.496 339.6608l320.6656-2.7648zM669.9008 400.9472H195.0208c-60.3136 0-109.2096 48.896-109.2096 109.2096v285.7984c0 6.0416 0.6144 11.9296 1.536 17.664 3.0208 0.0512 6.0416 0.1024 9.1136 0.1024 266.8544 0 493.2608-172.9024 573.44-412.7744z m-423.0656 318.8224c-36.864 0-66.7136-29.8496-66.7136-66.7136 0-36.864 29.8496-66.7136 66.7136-66.7136 36.864 0 66.7136 29.8496 66.7136 66.7136 0 36.8128-29.8496 66.7136-66.7136 66.7136z" fill="#3CD38E" ></path><path d="M428.3392 339.0976c33.2288-41.0112 60.4672-86.4256 80.64-135.0656L362.496 339.6608l65.8432-0.5632zM195.0208 400.9472c-60.3136 0-109.2096 48.896-109.2096 109.2096v72.96c120.2176-28.8256 226.4576-93.4912 306.7904-182.1696H195.0208z" fill="#48E1AA" ></path></svg>