<?xml version="1.0" standalone="no"?><!DOCTYPE svg PUBLIC "-//W3C//DTD SVG 1.1//EN" "http://www.w3.org/Graphics/SVG/1.1/DTD/svg11.dtd"><svg class="icon" width="66px" height="66.00px" viewBox="0 0 1024 1024" version="1.1" xmlns="http://www.w3.org/2000/svg"><path d="M128.37 199.122c3.28-38.772 28.064-70.668 66.322-78.238C249.256 110.094 347.04 98 511.24 98s261.984 12.094 316.548 22.884c38.26 7.57 63.04 39.466 66.32 78.238 5.454 64.148 12.372 179.596 12.372 352.198 0 159.56-3.084 257.776-6.76 318.148-3.42 56.204-46.42 74.148-94.184 44.128l-231.098-145.19c-38.614-24.268-87.782-24.268-126.398 0l-231.096 145.19c-47.764 30.02-90.766 12.076-94.186-44.128C119.082 809.096 116 710.88 116 551.32c0-172.6 6.916-288.05 12.37-352.198z" fill="#FF934A" /><path d="M327.648 411.852c-24.922 0.886-42.898 20.49-42.898 45.43v9.512c0 23.316 15.95 41.442 39.244 42.464 31.732 1.392 88.43 2.742 189.006 2.742s157.274-1.35 189.006-2.74c23.294-1.024 39.244-19.15 39.244-42.466v-16.23c0-21.788-14.3-38.658-36.056-39.828-31.068-1.67-88.158-3.12-192.194-2.2-96.824 0.854-152.986 2.162-185.352 3.316z" fill="#FFFFFF" /></svg>