<?xml version="1.0" standalone="no"?><!DOCTYPE svg PUBLIC "-//W3C//DTD SVG 1.1//EN" "http://www.w3.org/Graphics/SVG/1.1/DTD/svg11.dtd"><svg class="icon" width="66px" height="66.00px" viewBox="0 0 1024 1024" version="1.1" xmlns="http://www.w3.org/2000/svg"><path d="M109.744 186.572C113.666 151.234 136.66 123.26 171.622 116.866 224.968 107.114 326.644 96 513 96s288.03 11.114 341.38 20.866c34.962 6.394 57.954 34.368 61.876 69.706 5.478 49.262 11.744 133.694 11.744 262.178s-6.266 212.916-11.744 262.176c-3.922 35.338-26.914 63.308-61.876 69.7-53.35 9.752-155.024 20.874-341.38 20.874s-288.03-11.122-341.38-20.874c-34.962-6.392-57.954-34.362-61.876-69.7C104.266 661.666 98 577.234 98 448.75c0-128.484 6.266-212.916 11.744-262.18z" fill="#FF7B7B" /><path d="M264 481.9c0-15.538 11.454-28.66 26.912-30.074 15.46-1.412 35.774-2.792 56.088-2.792s40.628 1.38 56.088 2.792c15.458 1.412 26.912 14.536 26.912 30.072v37.836c0 15.614-11.558 28.784-27.12 30.166-15.418 1.372-35.648 2.744-55.88 2.884-20.398 0.14-40.794-1.25-56.274-2.7-15.396-1.444-26.726-14.524-26.726-29.98v-38.206zM264 298.112c0-16.77 13.218-30.518 29.984-31.054 51.668-1.646 157.866-4.774 219.016-4.774 61.15 0 167.348 3.128 219.016 4.774 16.766 0.536 29.984 14.284 29.984 31.054v32.096c0 16.768-13.218 30.516-29.984 31.05-51.668 1.648-157.866 4.776-219.016 4.776-61.15 0-167.348-3.128-219.016-4.776-16.766-0.534-29.984-14.282-29.984-31.05v-32.096z" fill="#FFFFFF" /><path d="M513 635.75c0 23.22 10.686 43.948 27.432 57.498-2.262 21.414 4.792 43.658 21.186 60.07a73.466 73.466 0 0 0 30.772 18.468c0.144 39.902 1.328 86.092 4.502 135.144 1.1 16.912 20.98 25.088 33.802 14.008l38.14-32.952a15.56 15.56 0 0 1 20.334 0l38.138 32.952c12.824 11.08 32.702 2.904 33.8-14.008 3.176-49.052 4.36-95.24 4.504-135.144a73.466 73.466 0 0 0 30.772-18.468c16.394-16.434 23.47-38.656 21.186-60.07 16.746-13.55 27.432-34.28 27.432-57.5s-10.686-43.936-27.432-57.48c2.284-21.426-4.792-43.652-21.186-60.072-16.392-16.42-38.594-23.498-59.988-21.232-13.528-16.75-34.216-27.464-57.394-27.464-23.178 0-43.866 10.714-57.394 27.464-21.394-2.266-43.596 4.81-59.988 21.23-16.394 16.42-23.448 38.646-21.186 60.074-16.746 13.544-27.432 34.26-27.432 57.48z" fill="#FFB0B0" /><path d="M679 635.5m-62.25 0a62.25 62.25 0 1 0 124.5 0 62.25 62.25 0 1 0-124.5 0Z" fill="#FFFFFF" /></svg>