<svg viewBox="0 0 1024 1024" version="1.1" xmlns="http://www.w3.org/2000/svg"><path d="M487.8336 104.7552c-83.968-27.1872-165.1712 3.6352-221.184 36.7104-9.8304-32.5632-40.2944-55.296-75.1104-50.944-31.3344 3.9424-56.832 30.6688-60.8256 63.8976-3.4816 29.0304 8.8576 55.1936 29.1328 70.3488v675.8912c0 23.3472 16.9984 43.7248 39.0144 44.4416 22.784 0.7168 41.472-18.6368 41.472-42.6496v-231.2704c227.5328-149.9648 365.8752-45.1072 462.592-21.504 78.8992 19.2512 146.176-11.6224 171.776-26.0608 6.8608-3.84 11.0592-11.4176 11.0592-19.6608V184.8832c0-16.7424-16.64-27.2384-30.7712-19.8144-113.8688 59.9552-227.584-15.104-367.1552-60.3136z m187.136 239.616c-33.9456-7.5776-78.592-23.6544-133.2224-56.0128-96-56.9344-179.6096-3.4304-183.1424-1.1264-18.432 12.0832-42.7008 6.2464-54.2208-13.2096s-6.1952-45.056 12.032-57.3952c5.0688-3.4304 125.7472-83.0464 263.7824-1.2288 47.9232 28.416 85.1456 41.4208 111.1552 47.2064 18.1248 4.0448 30.976 21.1968 30.976 40.8064 0 26.4704-22.9376 46.4384-47.36 40.96z" fill="#05C46D" ></path><path d="M854.9376 165.12c-113.8176 59.904-227.584-15.1552-367.1552-60.3136-83.968-27.1872-165.1712 3.6352-221.184 36.7104-9.8304-32.5632-40.2944-55.296-75.1104-50.944-31.3344 3.9424-56.832 30.6688-60.8256 63.8976-3.4816 29.0304 8.8576 55.1936 29.1328 70.3488v551.6288c26.2656 4.9152 53.1456 8.1408 80.4864 9.472v-114.688c199.3216-131.3792 330.1888-67.1744 424.6016-33.3824 124.5184-109.568 203.1616-270.08 203.1616-448.9728 0-8.704-0.2048-17.3056-0.6144-25.9072a19.8656 19.8656 0 0 0-12.4928 2.1504z m-179.968 179.2512c-33.9456-7.5776-78.592-23.6544-133.2224-56.0128-96-56.9344-179.6096-3.4304-183.1424-1.1264-18.432 12.0832-42.7008 6.2464-54.2208-13.2096s-6.1952-45.056 12.032-57.3952c5.0688-3.4304 125.7472-83.0464 263.7824-1.2288 47.9232 28.416 85.1456 41.4208 111.1552 47.2064 18.1248 4.0448 30.976 21.1968 30.976 40.8064 0 26.4704-22.9376 46.4384-47.36 40.96z" fill="#1DCE75" ></path><path d="M266.5984 141.4656c-9.8304-32.5632-40.2944-55.296-75.1104-50.944-31.3344 3.9424-56.832 30.6688-60.8256 63.8976-3.4816 29.0304 8.8576 55.1936 29.1328 70.3488v347.1872c181.2992-15.9744 339.3536-112.8448 437.8112-254.3104-17.2544-7.8848-35.8912-17.4592-55.8592-29.3376-96-56.8832-179.6096-3.3792-183.1424-1.0752-18.432 12.0832-42.7008 6.2464-54.2208-13.2096s-6.1952-45.056 12.032-57.3952c5.0688-3.4304 125.7472-83.0464 263.7824-1.2288 22.4768 13.312 42.496 23.1424 60.2624 30.5664 12.0832-23.8592 22.5792-48.6912 31.4368-74.2912-57.3952-17.2544-117.8112-45.4656-184.064-66.8672-83.968-27.1872-165.2224 3.584-221.2352 36.6592z" fill="#3CD38E" ></path><path d="M298.496 255.1808c-1.1776-14.8992 5.2224-29.952 17.9712-38.5536 2.1504-1.4336 24.8832-16.4352 60.7232-27.136 28.4672-28.2112 54.0672-59.2384 76.3904-92.672-71.4752-10.6496-138.6496 16.128-186.9824 44.6464-9.8304-32.5632-40.2944-55.296-75.1104-50.944-31.3344 3.9424-56.832 30.6688-60.8256 63.8976-3.4816 29.0304 8.8576 55.1936 29.1328 70.3488v102.4512c49.6128-17.9712 96.1536-42.2912 138.7008-72.0384z" fill="#48E1AA" ></path></svg>