<?xml version="1.0" standalone="no"?><!DOCTYPE svg PUBLIC "-//W3C//DTD SVG 1.1//EN" "http://www.w3.org/Graphics/SVG/1.1/DTD/svg11.dtd"><svg class="icon" width="66px" height="66.00px" viewBox="0 0 1024 1024" version="1.1" xmlns="http://www.w3.org/2000/svg"><path d="M798.42 76.032c37.804 4.244 66.988 29.9 73.858 67.306C883.114 202.426 896 314.252 896 512c0 177.468-5.76 285.732-11.306 348.78-4.224 48.078-39.872 83.73-87.916 88.304C739.882 954.498 648.49 960 512 960s-227.882-5.5-284.78-10.916c-48.04-4.574-83.69-40.226-87.914-88.304C133.76 797.732 128 689.466 128 512c0-177.466 5.76-285.732 11.306-348.78 4.224-48.078 39.872-83.73 87.916-88.304C284.118 69.502 375.51 64 512 64c145.9 0 235.242 6.284 286.42 12.032z" fill="#53B5FF" /><path d="M298.666 69.52v884.956c-28.202-1.654-51.86-3.53-71.444-5.392-48.044-4.574-83.692-40.226-87.916-88.304C133.76 797.73 128 689.466 128 512c0-177.468 5.76-285.732 11.306-348.782 4.224-48.076 39.872-83.73 87.916-88.3 19.584-1.866 43.242-3.74 71.444-5.396z" fill="#FCBF28" /><path d="M426.666 268.05c0-16.306 12.268-29.768 28.544-30.596 25.686-1.306 70.572-2.788 142.124-2.788 71.552 0 116.436 1.48 142.122 2.788 16.278 0.828 28.544 14.29 28.544 30.596v18.568c0 16.304-12.266 29.766-28.544 30.594-25.686 1.308-70.57 2.788-142.122 2.788-71.552 0-116.438-1.48-142.124-2.788-16.276-0.828-28.544-14.29-28.544-30.594v-18.568zM426.666 438.716c0-16.306 12.268-29.916 28.524-30.96 18.708-1.202 45.674-2.422 78.144-2.422 32.468 0 59.434 1.22 78.144 2.42 16.256 1.046 28.522 14.656 28.522 30.96v18.57c0 16.306-12.266 29.916-28.522 30.96-18.71 1.202-45.676 2.422-78.144 2.422-32.47 0-59.436-1.22-78.144-2.42-16.256-1.046-28.524-14.656-28.524-30.96v-18.57z" fill="#FFFFFF" /></svg>