<svg viewBox="0 0 1024 1024" version="1.1" xmlns="http://www.w3.org/2000/svg"><path d="M785.2544 105.3184H239.872c-46.592 0-84.3264 36.1472-84.3264 80.7424v662.4256c0 44.5952 37.7344 80.7424 84.3264 80.7424h545.3312c46.592 0 84.3264-36.1472 84.3264-80.7424V186.0608c0.0512-44.5952-37.7344-80.7424-84.2752-80.7424zM406.1696 781.312H281.6512v-119.1936h124.5184v119.1936z m0-204.4416H281.6512V457.6768h124.5184v119.1936z m0-204.4416H281.6512V253.2352h124.5184v119.1936z m343.6032 374.2208H496.0256v-49.8176h253.7472v49.8176z m0-204.4928H496.0256v-49.8176h253.7472v49.8176z m0-204.4416H496.0256v-49.8176h253.7472v49.8176z" fill="#FC7032" ></path><path d="M819.5072 112.3328c-10.496-4.4544-22.0672-7.0144-34.2528-7.0144H239.872c-46.592 0-84.3264 36.1472-84.3264 80.7424v662.4256c0 44.5952 37.7344 80.7424 84.3264 80.7424h30.976c151.1424-14.2336 286.8736-81.3056 388.5568-182.5792H496.0256v-49.8176h208.3328c88.8832-109.3632 142.1312-248.832 142.1312-400.7424 0-63.8976-9.472-125.5424-26.9824-183.7568zM406.1696 781.312H281.6512v-119.1936h124.5184v119.1936z m0-204.4416H281.6512V457.6768h124.5184v119.1936z m0-204.4416H281.6512V253.2352h124.5184v119.1936z m343.6032 169.728H496.0256v-49.8176h253.7472v49.8176z m0-204.4416H496.0256v-49.8176h253.7472v49.8176z" fill="#FF7E3E" ></path><path d="M155.5456 186.0608v508.9792c132.6592-25.088 250.7264-91.392 340.48-185.088v-17.5616h16.1792c40.9088-46.08 75.2128-98.0992 101.4784-154.6752H496.0256v-49.8176h138.2912c20.9408-57.4464 33.792-118.784 37.2736-182.5792H239.872c-46.5408 0-84.3264 36.1472-84.3264 80.7424z m126.1056 67.1744h124.5184v119.1936H281.6512V253.2352z m0 204.4416h124.5184v119.1936H281.6512V457.6768z" fill="#FF9552" ></path><path d="M155.5456 186.0608v230.7584c45.312-22.1696 87.6032-49.5104 126.1056-81.3568V253.2352h82.7392c37.2736-44.544 68.608-94.208 92.672-147.8656H239.872c-46.5408-0.0512-84.3264 36.096-84.3264 80.6912z" fill="#FFA56A" ></path></svg>