<svg viewBox="0 0 1024 1024" version="1.1" xmlns="http://www.w3.org/2000/svg"><path d="M753.7152 134.7584H262.5536c-91.392 0-165.4272 74.0864-165.4272 165.4272v423.68c0 91.392 74.0864 165.4272 165.4272 165.4272h491.1616c91.392 0 165.4272-74.0864 165.4272-165.4272V300.1856c0.0512-91.3408-74.0352-165.4272-165.4272-165.4272z m-238.7456 556.6976c-36.5568 0-66.2016-29.6448-66.2016-66.2016 0-4.9152 0.5632-9.6768 1.5872-14.2848l-101.888-100.7616a35.26144 35.26144 0 0 1-0.256-49.8688 35.26144 35.26144 0 0 1 49.8688-0.256l101.888 100.8128c4.8128-1.1264 9.8304-1.792 15.0016-1.792 36.5568 0 66.2016 29.6448 66.2016 66.2016s-29.6448 66.1504-66.2016 66.1504z m295.6288-105.728a35.2768 35.2768 0 0 1-35.2768-35.2768c0-143.5648-116.8384-260.4032-260.4032-260.4032s-260.4032 116.8384-260.4032 260.4032a35.2768 35.2768 0 0 1-70.5536 0c0-182.4768 148.4288-330.9056 330.9056-330.9056s330.9056 148.4288 330.9056 330.9056c0.1024 19.5072-15.6672 35.2768-35.1744 35.2768z" fill="#FF3369" ></path><path d="M753.7152 134.7584H262.5536c-91.392 0-165.4784 74.0864-165.4784 165.4272v423.68c0 91.392 74.0864 165.4272 165.4784 165.4272H402.432c175.2576-39.3728 322.8672-151.808 409.1392-303.7184-0.3072 0-0.6144 0.1024-0.9728 0.1024a35.2768 35.2768 0 0 1-35.2768-35.2768c0-143.5648-116.8384-260.4032-260.4032-260.4032S254.5152 406.8352 254.5152 550.4c0 19.456-15.7696 35.2768-35.2768 35.2768-19.456 0-35.2256-15.7696-35.2256-35.2768 0-182.4768 148.4288-330.9056 330.9056-330.9056 171.8784 0 313.4976 131.7376 329.3696 299.52 31.488-74.9568 48.9472-157.2864 48.9472-243.6608 0-23.6032-1.3312-46.9504-3.8912-69.888-29.8496-42.7008-79.4624-70.7072-135.6288-70.7072zM348.2624 460.3392a35.26144 35.26144 0 0 1 49.8688-0.256l101.888 100.8128c4.8128-1.1264 9.8304-1.792 15.0016-1.792 36.5568 0 66.2016 29.6448 66.2016 66.2016s-29.6448 66.2016-66.2016 66.2016-66.2016-29.6448-66.2016-66.2016c0-4.9152 0.5632-9.6768 1.5872-14.2848l-101.888-100.7616c-13.824-13.7728-13.9776-36.096-0.256-49.92z" fill="#FF4D7C" ></path><path d="M425.0112 585.8304L348.5184 510.1568a35.26144 35.26144 0 0 1-0.256-49.8688 35.26144 35.26144 0 0 1 49.8688-0.256l85.3504 84.4288a632.064 632.064 0 0 0 172.2368-212.9408 258.69824 258.69824 0 0 0-140.7488-41.472c-143.5648 0-260.4032 116.8384-260.4032 260.4032 0 19.456-15.7696 35.2768-35.2768 35.2768-19.456 0-35.2256-15.7696-35.2256-35.2768 0-182.4768 148.4288-330.9056 330.9056-330.9056 61.6448 0 119.3472 16.9984 168.8064 46.4384 15.1552-41.8816 25.9584-85.8112 31.9488-131.2768h-453.12c-91.392 0-165.4784 74.0864-165.4784 165.4272v380.928c120.3712-0.9216 232.6528-35.6864 327.8848-95.232z" fill="#FF5F89" ></path><path d="M228.4544 385.28c40.8576-70.5536 106.9056-124.7232 185.856-149.9648 26.2656-31.0784 49.5616-64.7168 69.4784-100.5056H262.5536c-91.392 0-165.4784 74.0864-165.4784 165.4272v136.8064c46.1312-12.3904 90.112-29.8496 131.3792-51.7632z" fill="#FF7196" ></path></svg>