<svg viewBox="0 0 1024 1024" version="1.1" xmlns="http://www.w3.org/2000/svg"><path d="M625.3056 172.3392h-33.8432c-8.6528-50.688-52.6848-89.344-105.8816-89.344s-97.2288 38.656-105.8816 89.344H327.5776c-14.5408 0-26.368 11.8272-26.368 26.368v73.3184a31.2832 31.2832 0 0 0 31.2832 31.2832h287.8976a31.2832 31.2832 0 0 0 31.2832-31.2832V198.7072c0-14.5408-11.8272-26.368-26.368-26.368zM485.5808 242.432c-28.672 0-51.9168-23.2448-51.9168-51.9168s23.2448-51.9168 51.9168-51.9168 51.9168 23.2448 51.9168 51.9168-23.2448 51.9168-51.9168 51.9168z" fill="#C65EDB" ></path><path d="M886.528 901.4272l-27.6992-34.3552c19.8656-25.6 31.744-57.7536 31.744-92.5696 0-83.456-67.8912-151.3984-151.3984-151.3984s-151.3984 67.8912-151.3984 151.3984 67.8912 151.3984 151.3984 151.3984c21.5552 0 42.0352-4.5568 60.6208-12.6976l28.416 35.2768a37.41696 37.41696 0 0 0 29.184 13.9264 37.48864 37.48864 0 0 0 29.1328-60.9792z m-223.8464-126.976c0-42.1888 34.304-76.4928 76.4928-76.4928s76.4928 34.304 76.4928 76.4928-34.304 76.4928-76.4928 76.4928-76.4928-34.304-76.4928-76.4928z" fill="#BD50D3" ></path><path d="M728.6784 219.2384h-45.4656V309.248a31.2832 31.2832 0 0 1-31.2832 31.2832H300.9536a31.2832 31.2832 0 0 1-31.2832-31.2832V219.2384h-45.4656c-44.6976 0-80.9984 36.2496-80.9984 80.9984v543.744c0 44.6976 36.2496 80.9984 80.9984 80.9984h395.7248c-44.3392-35.1744-72.7552-89.4976-72.7552-150.4768 0-106.0864 85.9648-192.0512 192.0512-192.0512 24.8832 0 48.64 4.7616 70.4512 13.4144V300.1856c0-44.6976-36.3008-80.9472-80.9984-80.9472z m-148.4288 348.2112h-65.024v65.024c0 20.6848-16.7424 37.4272-37.4272 37.4272S440.32 653.1584 440.32 632.4736v-65.024H375.296c-20.6848 0-37.4272-16.7424-37.4272-37.4272s16.7424-37.4272 37.4272-37.4272H440.32v-65.024c0-20.6848 16.7424-37.4272 37.4272-37.4272s37.4272 16.7424 37.4272 37.4272v65.024h65.024c20.6848 0 37.4272 16.7424 37.4272 37.4272s-16.7424 37.4272-37.376 37.4272z" fill="#BD50D3" ></path><path d="M728.6784 219.2384h-45.4656V309.248a31.2832 31.2832 0 0 1-31.2832 31.2832H300.9536a31.2832 31.2832 0 0 1-31.2832-31.2832V219.2384h-45.4656c-44.6976 0-80.9984 36.2496-80.9984 80.9984v543.744c0 44.6976 36.2496 80.9984 80.9984 80.9984h39.68c107.2128-8.1408 206.1312-45.7728 288.7168-104.9088-3.5328-14.592-5.4784-29.8496-5.4784-45.5168 0-106.0864 85.9648-192.0512 192.0512-192.0512 1.8944 0 3.7888 0.1024 5.6832 0.1536 30.4128-69.888 47.36-146.944 47.36-228.0448 0-39.9872-4.1472-79.0528-11.9296-116.736a80.34304 80.34304 0 0 0-51.6096-18.6368z m-148.4288 348.2112h-65.024v65.024c0 20.6848-16.7424 37.4272-37.4272 37.4272S440.32 653.1584 440.32 632.4736v-65.024H375.296c-20.6848 0-37.4272-16.7424-37.4272-37.4272 0-20.6848 16.7424-37.4272 37.4272-37.4272H440.32v-65.024c0-20.6848 16.7424-37.4272 37.4272-37.4272s37.4272 16.7424 37.4272 37.4272v65.024h65.024c20.6848 0 37.4272 16.7424 37.4272 37.4272 0.0512 20.6848-16.7424 37.4272-37.376 37.4272z" fill="#C65EDB" ></path><path d="M587.8272 774.4512c0 5.888 0.4096 11.6736 1.0752 17.3568 55.296-46.6944 101.6832-103.68 136.0384-168.0384-76.8 7.2192-137.1136 72.0384-137.1136 150.6816z" fill="#C65EDB" ></path><path d="M635.0848 174.2848c-3.0208-1.2288-6.2976-1.9456-9.7792-1.9456h-33.8432c-8.6528-50.688-52.6848-89.344-105.8816-89.344s-97.2288 38.656-105.8816 89.344H327.5776a26.368 26.368 0 0 0-26.368 26.368v73.3184a31.2832 31.2832 0 0 0 31.2832 31.2832h282.5728c11.4176-41.3184 18.2784-84.5312 20.0192-129.024z m-149.504 68.1472c-28.672 0-51.9168-23.2448-51.9168-51.9168s23.2448-51.9168 51.9168-51.9168 51.9168 23.2448 51.9168 51.9168-23.2448 51.9168-51.9168 51.9168z" fill="#CA6EE0" ></path><path d="M440.32 581.6832v-14.1824H375.296c-20.6848 0-37.4272-16.7424-37.4272-37.4272 0-20.6848 16.7424-37.4272 37.4272-37.4272H440.32v-65.024c0-20.6848 16.7424-37.4272 37.4272-37.4272s37.4272 16.7424 37.4272 37.4272v65.024h7.5264c34.1504-45.8752 61.4912-97.0752 80.7424-152.064H300.9536a31.2832 31.2832 0 0 1-31.2832-31.2832V219.2384h-45.4656c-44.6976 0-80.9984 36.2496-80.9984 80.9984v417.6384c112.9984-15.7696 215.3472-64.512 297.1136-136.192z" fill="#CA6EE0" ></path><path d="M433.664 190.5152c0-17.7152 8.9088-33.3312 22.4256-42.7008 7.7312-20.8896 14.2336-42.3936 19.5072-64.3072-48.64 4.4544-87.808 41.3696-95.8976 88.8832H327.5776a26.368 26.368 0 0 0-26.368 26.368v73.3184a31.2832 31.2832 0 0 0 31.2832 31.2832h35.9936c25.4976-32.256 47.7184-67.2768 65.8944-104.6528-0.4096-2.7136-0.7168-5.4272-0.7168-8.192z" fill="#D786EA" ></path><path d="M336.4352 340.5312h-35.4304a31.2832 31.2832 0 0 1-31.2832-31.2832V219.2384H224.256c-44.6976 0-80.9984 36.2496-80.9984 80.9984v175.36c73.5744-31.3344 139.1616-77.6704 193.1776-135.0656z" fill="#D786EA" ></path></svg>