<svg viewBox="0 0 1024 1024" version="1.1" xmlns="http://www.w3.org/2000/svg"><path d="M210.8416 888.9856c-12.2368-111.3088-24.4736-222.208-36.7616-333.8752h-32.4608c-28.416 0-51.4048-23.04-51.4048-51.4048v-66.048c0-28.416 23.04-51.4048 51.4048-51.4048h32.1024c14.6432-97.7408 60.9792-175.9744 140.7488-233.3184 58.8288-42.2912 125.44-61.5424 197.5808-61.952 142.4896-0.8192 307.9168 103.9872 334.08 294.9632h36.7104c28.416 0 51.4048 23.04 51.4048 51.4048v65.6896c0 28.416-23.04 51.4048-51.4048 51.4048h-32.0512c-13.0048 112.0256-25.9072 223.1808-38.8096 334.848-3.0208 25.9072-24.9856 45.5168-51.0976 45.5168H261.9392c-26.2144 0-48.2304-19.7632-51.0976-45.824zM759.296 385.3312c-14.3872-107.9808-115.1488-212.6336-252.2112-210.7904-142.6432 1.9456-234.2912 111.872-247.04 210.7904h499.2512z m-374.1184 422.8608v-210.6368H301.0048v210.6368h84.1728z m169.472 0v-210.6368H470.4256v210.6368h84.224z m168.5504-210.432h-83.456v210.2784h83.456v-210.2784z" fill="#F23D4F" ></path><path d="M884.224 385.9968c-0.4608 0-0.8704-0.0512-1.3312-0.0512h-36.7104c-26.1632-191.0272-191.5904-295.7824-334.08-294.9632-72.1408 0.4096-138.752 19.6608-197.5808 61.952-79.7696 57.344-126.1056 135.5776-140.7488 233.3184h-32.1024c-28.416 0-51.4048 23.04-51.4048 51.4048v66.048c0 28.416 23.04 51.4048 51.4048 51.4048H174.08c12.288 111.6672 24.5248 222.5664 36.7616 333.8752 2.8672 26.0608 24.8832 45.824 51.0976 45.824h151.9104c97.5872-20.48 186.3168-64.8704 259.84-126.8224h-33.8944v-210.2784h83.456v163.4816c93.44-99.0208 153.2416-230.1952 160.9728-375.1936z m-499.0464 422.1952H301.0048v-210.6368h84.1728v210.6368z m169.472 0H470.4256v-210.6368h84.224v210.6368zM260.0448 385.3312c12.7488-98.8672 104.3968-208.8448 247.04-210.7904 137.0112-1.8944 237.824 102.7584 252.2112 210.7904H260.0448z" fill="#FC4956" ></path><path d="M301.056 597.5552h84.1728v81.1008c29.9008-14.336 58.368-31.0784 85.248-49.9712v-31.1296h40.3456c68.2496-57.3952 123.392-129.792 160.3072-212.224H260.0448c12.7488-98.8672 104.3968-208.8448 247.04-210.7904 85.4528-1.1776 156.7744 39.0656 201.8816 95.744 7.3728-33.7408 11.8784-68.608 13.2608-104.2432-62.3616-49.664-139.0592-75.52-210.0736-75.1104-72.1408 0.4096-138.752 19.6608-197.5808 61.952-79.8208 57.3952-126.1568 135.6288-140.8 233.3696h-32.1024c-28.416 0-51.4048 23.04-51.4048 51.4048v66.048c0 28.416 23.04 51.4048 51.4048 51.4048H174.08c6.5536 59.4944 13.1072 118.784 19.6096 178.0224 36.9152-3.9936 72.8064-11.3664 107.3664-21.8112v-113.7664z" fill="#FF5C64" ></path><path d="M260.0448 385.3312c12.7488-98.8672 104.3968-208.8448 247.04-210.7904 5.0176-0.0512 9.984 0.0512 14.848 0.256 11.7248-26.2144 21.6064-53.4016 29.44-81.4592-13.2096-1.6384-26.3168-2.4576-39.2704-2.4064-72.1408 0.4096-138.752 19.6608-197.5808 61.952C234.752 210.2784 188.416 288.512 173.7728 386.2528h-32.1024c-28.416 0-51.4048 23.04-51.4048 51.4048v66.048c0 4.1984 0.5632 8.2944 1.536 12.2368 102.5536-19.6096 195.7376-65.536 272.2304-130.56-34.7136-0.0512-69.376-0.0512-103.9872-0.0512z" fill="#FF716E" ></path></svg>