<svg viewBox="0 0 1024 1024" version="1.1" xmlns="http://www.w3.org/2000/svg"><path d="M498.4832 497.2544m-117.5552 0a117.5552 117.5552 0 1 0 235.1104 0 117.5552 117.5552 0 1 0-235.1104 0Z" fill="#FC7032" ></path><path d="M750.0288 121.8048H275.3024c-82.8928 0-150.3232 67.4304-150.3232 150.3232V752.64c0 82.8928 67.4304 150.3232 150.3232 150.3232h474.7264c82.8928 0 150.3232-67.4304 150.3232-150.3232V272.128c0-82.8928-67.4304-150.3232-150.3232-150.3232z m-17.5616 611.3792a30.35648 30.35648 0 0 1-42.9056-0.256l-79.5648-80.64a189.696 189.696 0 0 1-111.5136 36.0448c-105.3696 0-191.0784-85.7088-191.0784-191.0784S393.1136 306.176 498.4832 306.176s191.0784 85.7088 191.0784 191.0784c0 41.9328-13.6192 80.6912-36.5568 112.2304l79.7696 80.7936a30.37696 30.37696 0 0 1-0.3072 42.9056z" fill="#FC7032" ></path><path d="M750.0288 121.8048H275.3024c-82.8928 0-150.3232 67.4304-150.3232 150.3232V752.64c0 82.8928 67.4304 150.3232 150.3232 150.3232h81.2544c132.6592-16.64 252.2112-75.5712 344.6272-162.8672-4.2496-1.4848-8.2432-3.7888-11.6224-7.2192l-79.5648-80.64a189.696 189.696 0 0 1-111.5136 36.0448c-105.3696 0-191.0784-85.7088-191.0784-191.0784S393.1136 306.176 498.4832 306.176c105.3696 0 191.0784 85.7088 191.0784 191.0784 0 41.9328-13.6192 80.6912-36.5568 112.2304l79.7696 80.7936c3.0208 3.072 5.2224 6.6048 6.656 10.3424 96.1536-108.4928 154.5728-251.1872 154.5728-407.5008 0-26.368-1.6896-52.3776-4.9152-77.8752-22.4768-54.784-76.3392-93.44-139.0592-93.44z" fill="#FF7E3E" ></path><path d="M602.9824 443.5968c-19.5584-37.888-58.9824-63.8976-104.4992-63.8976-64.8192 0-117.5552 52.736-117.5552 117.5552 0 41.8816 22.0672 78.592 55.1424 99.4304a619.776 619.776 0 0 0 166.912-153.088z" fill="#FF7E3E" ></path><path d="M124.928 272.128v417.1776c85.7088-1.8944 167.1168-21.2992 240.7424-54.8352-35.8912-34.7648-58.3168-83.4048-58.3168-137.216 0-105.3696 85.7088-191.0784 191.0784-191.0784 59.6992 0 113.1008 27.5456 148.1728 70.6048 43.1616-76.3392 70.4512-162.816 77.4144-254.976H275.3024c-82.8928 0-150.3744 67.4304-150.3744 150.3232z" fill="#FF9552" ></path><path d="M124.928 272.128v176.4864c170.8032-48.5376 311.296-169.1136 386.6112-326.8096H275.3024c-82.8928 0-150.3744 67.4304-150.3744 150.3232z" fill="#FFA56A" ></path></svg>