<svg viewBox="0 0 1024 1024" version="1.1" xmlns="http://www.w3.org/2000/svg"><path d="M824.4736 284.0576h-50.7904c-1.9456-30.7712-27.4432-55.1424-58.7264-55.1424H162.56c-32.512 0-58.88 26.368-58.88 58.88v257.536c0 103.8848 74.496 190.3616 173.0048 208.9984H122.4704c-21.76 0-39.424 17.664-39.424 39.424s17.664 39.424 39.424 39.424h658.5344c21.76 0 39.424-17.664 39.424-39.424s-17.664-39.424-39.424-39.424h-180.0192c73.5232-13.9776 133.632-65.7408 159.3344-134.2976h9.3696c92.6208 0 167.9872-75.3664 167.9872-167.9872V397.312c0.0512-62.464-50.7904-113.2544-113.2032-113.2544zM266.6496 539.136c0 21.76-17.664 39.424-39.424 39.424s-39.424-17.664-39.424-39.424V410.5728c0-21.76 17.664-39.424 39.424-39.424s39.424 17.664 39.424 39.424v128.5632z m592.1792-87.0912c0 47.7696-37.7856 86.7328-84.992 88.9344V362.9056h50.5856c18.944 0 34.4064 15.4112 34.4064 34.4064v54.7328z" fill="#05C46D" ></path><path d="M733.44 328.192c0-33.6896-3.328-66.6112-9.4208-98.5088-2.9696-0.4608-5.9904-0.768-9.0624-0.768H162.56c-32.512 0-58.88 26.368-58.88 58.88v257.536c0 103.8848 74.496 190.3616 173.0048 208.9984H122.4704c-21.76 0-39.424 17.664-39.424 39.424s17.664 39.424 39.424 39.424h223.6928c223.0272-59.6992 387.2768-263.1168 387.2768-504.9856z m-466.7904 210.944c0 21.76-17.664 39.424-39.424 39.424s-39.424-17.664-39.424-39.424V410.5728c0-21.76 17.664-39.424 39.424-39.424s39.424 17.664 39.424 39.424v128.5632z" fill="#1DCE75" ></path><path d="M583.168 228.9152H162.56c-32.512 0-58.88 26.368-58.88 58.88v257.536c0 42.496 12.4416 82.0224 33.8944 115.2 227.2256-30.4128 408.1664-206.6944 445.5936-431.616zM266.6496 539.136c0 21.76-17.664 39.424-39.424 39.424s-39.424-17.664-39.424-39.424V410.5728c0-21.76 17.664-39.424 39.424-39.424s39.424 17.664 39.424 39.424v128.5632z" fill="#3CD38E" ></path><path d="M187.8016 415.744v-5.1712c0-21.76 17.664-39.424 39.424-39.424 7.6288 0 14.6944 2.2016 20.736 5.9392A526.2848 526.2848 0 0 0 382.976 228.9152H162.56c-32.512 0-58.88 26.368-58.88 58.88v164.9152c29.2352-9.8816 57.3952-22.272 84.1216-36.9664z" fill="#48E1AA" ></path></svg>