<svg viewBox="0 0 1024 1024" version="1.1" xmlns="http://www.w3.org/2000/svg"><path d="M882.8416 830.0544h-62.9248V193.9456c0-49.152-41.3184-89.0368-92.2624-89.0368H295.7312c-50.944 0-92.2624 39.8848-92.2624 89.0368v636.1088h-62.976c-21.9136 0-39.68 17.152-39.68 38.2976s17.7664 38.2976 39.68 38.2976h742.3488c21.9136 0 39.68-17.152 39.68-38.2976s-17.7664-38.2976-39.68-38.2976z m-289.7408-271.104c16.0256 0 30.464 9.3184 36.6592 23.6032 6.144 14.2848 2.816 30.72-8.4992 41.728L471.4496 769.536c-7.7312 7.5264-17.92 11.264-28.1088 11.264a40.448 40.448 0 0 1-28.0064-11.1616c-15.5136-14.8992-15.616-39.168-0.1536-54.1696l82.432-79.9744H430.2848c-15.7696 0-30.0032-9.0112-36.352-22.8864-6.3488-13.9264-3.5328-30.1568 7.1168-41.3184l91.904-96.3584c14.848-15.5648 39.936-16.5888 56.064-2.2528 16.128 14.336 17.152 38.5536 2.304 54.1184l-30.6688 32.1536h72.448zM318.6176 248.064c0-29.5936 24.9344-53.6576 55.6032-53.6576h274.944c30.6688 0 55.6032 24.064 55.6032 53.6576v117.3504c0 29.5936-24.9344 53.6576-55.6032 53.6576h-274.944c-30.6688 0-55.6032-24.064-55.6032-53.6576V248.064z" fill="#2595E8" ></path><path d="M397.9776 271.0016h227.4304v71.4752H397.9776z" fill="#59ADF8" ></path><path d="M819.9168 584.2944V193.9456c0-49.152-41.3184-89.0368-92.2624-89.0368H295.7312c-50.944 0-92.2624 39.8848-92.2624 89.0368v636.1088h-62.976c-21.9136 0-39.68 17.152-39.68 38.2976s17.7664 38.2976 39.68 38.2976h331.4176c155.392-55.3472 281.344-172.7488 348.0064-322.3552zM318.6176 365.4144V248.064c0-29.5936 24.9344-53.6576 55.6032-53.6576h274.944c30.6688 0 55.6032 24.064 55.6032 53.6576v117.3504c0 29.5936-24.9344 53.6576-55.6032 53.6576h-274.944c-30.6688 0-55.6032-24.064-55.6032-53.6576z m96.7168 404.2752c-15.5136-14.8992-15.616-39.168-0.1536-54.1696l82.432-79.9744H430.2848c-15.7696 0-30.0032-9.0112-36.352-22.8864-6.3488-13.9264-3.5328-30.1568 7.1168-41.3184l91.904-96.3584c14.848-15.5648 39.936-16.5888 56.064-2.2528 16.128 14.336 17.152 38.5536 2.304 54.1184l-30.6688 32.1536h72.3456c16.0256 0 30.464 9.3184 36.6592 23.6032 6.144 14.2848 2.816 30.72-8.4992 41.728L471.4496 769.536c-7.7312 7.5264-17.92 11.264-28.1088 11.264-10.1376 0-20.2752-3.6864-28.0064-11.1104z" fill="#3A9CED" ></path><path d="M425.8816 635.2384c-13.9776-1.4848-26.2144-9.984-31.9488-22.5792-6.3488-13.9264-3.5328-30.1568 7.1168-41.3184l91.904-96.3584c14.848-15.5648 39.936-16.5888 56.064-2.2528 16.128 14.336 17.152 38.5536 2.304 54.1184l-30.6688 32.1536h2.4064c42.4448-40.96 78.848-88.064 107.8272-139.9296H374.2208c-30.6688 0-55.6032-24.064-55.6032-53.6576V248.064c0-29.5936 24.9344-53.6576 55.6032-53.6576h274.944c21.9136 0 40.8064 12.3392 49.8688 30.1056 5.2736-32.1024 8.0896-65.0752 8.0896-98.6624 0-7.0144-0.1536-13.9776-0.4096-20.9408H295.7312c-50.944 0-92.2624 39.8848-92.2624 89.0368v525.7216c80.6912-13.2096 155.9552-42.496 222.4128-84.4288z" fill="#59ADF8" ></path><path d="M323.7376 387.6864c-3.2256-6.8096-5.0688-14.336-5.0688-22.3232V248.064c0-29.5936 24.9344-53.6576 55.6032-53.6576h111.7184c15.1552-28.5696 28.0576-58.4704 38.5024-89.4976H295.7312c-50.944 0-92.2624 39.8848-92.2624 89.0368v266.752c43.0592-19.6608 83.3536-44.2368 120.2688-73.0112z" fill="#6BC2FC" ></path><path d="M437.6064 271.0016h-39.6288v48.0768c14.0288-15.3088 27.2384-31.3856 39.6288-48.0768z" fill="#6BC2FC" ></path></svg>