<svg viewBox="0 0 1024 1024" version="1.1" xmlns="http://www.w3.org/2000/svg"><path d="M135.2192 772.1984c-0.6656-57.088 16.896-94.8736 40.448-127.6928C222.976 578.56 272.3328 513.7408 325.0688 452.096c32.0512-37.4272 76.4416-61.0304 123.4944-77.312 69.9904-24.2176 131.584-1.28 187.4432 38.7584 97.6896 69.9392 164.608 166.7072 217.9584 271.616 47.9744 94.208-15.1552 214.3232-118.6304 237.6704-32.0512 7.2192-61.6448-0.9728-87.0912-20.2752-63.488-48.0768-135.0656-53.3504-208.7424-37.2224-27.4944 5.9904-53.4528 22.1184-78.1312 36.9152-53.4016 31.8976-96.2048 30.6688-144.6912-7.936-44.1344-35.2768-78.592-76.4928-81.4592-122.112z" fill="#FC7032" ></path><path d="M757.8112 237.4144c0 5.7856 0.4096 11.6224-0.0512 17.408-4.7616 61.7984-42.9568 92.928-103.5776 84.5312-65.2288-9.0624-94.1056-48.3328-81.8688-110.5408 10.0352-50.8928 34.9184-92.7744 75.6224-124.7232 30.5664-24.0128 55.3984-19.0464 77.6704 12.8512 25.3952 36.4032 30.6688 77.9264 32.2048 120.4736z" fill="#FF7C33" ></path><path d="M250.9312 236.1856c1.5872-42.752 7.5776-84.3264 33.3312-120.576 21.2992-30.0544 48.384-35.2256 76.3904-11.9808 38.8096 32.256 65.6896 72.0384 75.52 122.6752 12.5952 64.8192-15.1552 103.68-82.0736 113.0496-61.44 8.6528-99.3792-23.8592-103.0656-88.2176-0.3072-4.9152-0.1024-9.9328-0.1024-14.9504z" fill="#FFA56A" ></path><path d="M55.552 434.7392c-0.0512-53.1968 19.2512-67.84 71.424-55.6032 32 7.5264 58.112 23.1936 76.8512 50.5856 14.2848 20.9408 15.104 41.728-1.2288 61.696-23.3472 28.4672-50.176 52.4288-90.4704 45.0048-28.0576-5.1712-53.5552-48.0768-56.5248-89.2416-0.3072-4.1472-0.0512-8.3456-0.0512-12.4416z" fill="#FF9552" ></path><path d="M958.3104 434.0736c-9.1648 25.3952-15.4624 52.4288-28.2624 75.8272-16.1792 29.5424-45.2096 36.608-75.1616 21.0432-29.0304-15.0528-59.8016-32.8704-59.392-70.2976 0.4608-38.8608 30.6688-58.4192 62.3104-73.6768 8.8576-4.3008 18.7392-6.8096 28.416-9.0112 47.3088-10.752 67.584 5.8368 72.0896 56.1152z" fill="#FC7032" ></path><path d="M833.8944 647.2704c-50.0224-90.1632-112.0768-172.288-197.8368-233.728-55.9104-40.0384-117.504-62.976-187.4432-38.7584-47.0016 16.2816-91.4432 39.8848-123.4944 77.312-52.736 61.6448-102.144 126.464-149.4016 192.4608-23.5008 32.8192-41.1136 70.5536-40.448 127.6928 2.816 45.6192 37.3248 86.8352 81.4592 122.0096 48.4864 38.656 91.2896 39.8336 144.6912 7.936 24.7296-14.7456 50.688-30.8736 78.1312-36.9152 49.7152-10.9056 98.4576-11.9296 144.384 3.2256 102.0928-49.7152 188.5696-126.6176 249.9584-221.2352zM886.2208 377.9072c-9.6768 2.2016-19.5584 4.7104-28.416 9.0112-31.6416 15.2576-61.8496 34.8672-62.3104 73.6768-0.4608 37.4272 30.3616 55.2448 59.392 70.2976 12.1344 6.2976 24.1152 8.8576 35.1744 7.7312 20.0704-50.5344 33.6384-104.3456 39.8336-160.3584-10.9568-4.5056-25.2416-4.5056-43.6736-0.3584z" fill="#FF8345" ></path><path d="M660.2752 432.0256a581.12 581.12 0 0 0-24.2176-18.5344c-55.9104-40.0384-117.504-62.976-187.4432-38.7584-47.0016 16.2816-91.4432 39.8848-123.4944 77.312-52.736 61.6448-102.144 126.464-149.4016 192.4608-13.7728 19.2512-25.4976 40.192-32.7168 65.6896 215.9104-0.256 406.0672-110.6944 517.2736-278.1696zM725.6064 116.9408c-22.272-31.8976-47.1552-36.864-77.6704-12.8512-40.704 31.9488-65.5872 73.8304-75.6224 124.7232-12.2368 62.208 16.64 101.4784 81.8688 110.5408 23.808 3.328 44.0832 0.4608 60.3136-7.8848 18.2784-43.008 31.7952-88.4736 39.9872-135.7824-3.9424-27.7504-11.8784-54.4256-28.8768-78.7456z" fill="#FF9552" ></path><path d="M203.8272 429.7216c-18.7392-27.392-44.8-43.0592-76.8512-50.5856-52.1728-12.2368-71.4752 2.4064-71.424 55.6032 0 4.1472-0.256 8.2944 0.0512 12.3904 0.9216 13.0048 4.1472 26.112 8.9088 38.2464 51.6096-6.5024 101.2736-19.4048 148.1216-37.7856-1.792-5.9392-4.7104-11.9296-8.8064-17.8688z" fill="#FFA56A" ></path></svg>