<svg viewBox="0 0 1024 1024" version="1.1" xmlns="http://www.w3.org/2000/svg"><path d="M738.816 95.6416H269.8752c-43.3152 0-78.4384 33.9968-78.4384 75.8784v691.2c0 41.9328 35.1232 75.8784 78.4384 75.8784h468.9408c43.3152 0 78.4384-33.9968 78.4384-75.8784v-691.2c0-41.8816-35.1232-75.8784-78.4384-75.8784zM435.0464 157.4912h138.5984c8.448 0 15.2576 6.8096 15.2576 15.2576s-6.8096 15.2576-15.2576 15.2576H435.0464c-8.448 0-15.2576-6.8096-15.2576-15.2576 0-8.3968 6.8608-15.2576 15.2576-15.2576z m69.3248 725.4016c-34.8672 0-63.0784-28.2624-63.0784-63.0784 0-34.8672 28.2624-63.0784 63.0784-63.0784 34.8672 0 63.0784 28.2624 63.0784 63.0784 0 34.8672-28.2624 63.0784-63.0784 63.0784z m222.4128-190.9248c0 15.9232-13.9776 28.8768-31.2832 28.8768H313.1904c-17.2544 0-31.2832-12.9024-31.2832-28.8768V269.6704c0-15.9232 13.9776-28.8768 31.2832-28.8768h382.3104c17.2544 0 31.2832 12.9024 31.2832 28.8768v422.2976z" fill="#6C6CEA" ></path><path d="M817.2544 526.3872V171.52c0-41.9328-35.1232-75.8784-78.4384-75.8784H269.8752c-43.3152 0-78.4384 33.9968-78.4384 75.8784v691.2c0 5.3248 0.5632 10.5472 1.6384 15.5648 25.856 3.4304 52.224 5.2224 79.0016 5.2224 62.8736 0 123.4432-9.7792 180.3264-27.8528a62.84288 62.84288 0 0 1-11.1616-35.7888c0-34.8672 28.2624-63.0784 63.0784-63.0784 30.0544 0 55.1936 21.0432 61.5424 49.2032 41.6768-23.7568 80.1792-52.3776 114.7904-85.0944H313.1904c-17.2544 0-31.2832-12.9024-31.2832-28.8768V269.6704c0-15.9232 13.9776-28.8768 31.2832-28.8768h382.3104c17.2544 0 31.2832 12.9024 31.2832 28.8768v402.2784a593.5104 593.5104 0 0 0 90.4704-145.5616z m-243.6096-338.3808H435.0464c-8.448 0-15.2576-6.8096-15.2576-15.2576s6.8096-15.2576 15.2576-15.2576h138.5984c8.448 0 15.2576 6.8096 15.2576 15.2576s-6.8096 15.2576-15.2576 15.2576z" fill="#757BF2" ></path><path d="M191.4368 171.52v495.1552c30.976-4.2496 61.2352-10.9056 90.5216-19.8144V269.6704c0-15.9232 13.9776-28.8768 31.2832-28.8768h380.2624c6.912-36.1984 10.5472-73.5744 10.5472-111.7696 0-11.2128-0.3584-22.3232-0.9728-33.3824h-433.152c-43.3664 0-78.4896 33.9968-78.4896 75.8784z m243.6096-14.0288h138.5984c8.448 0 15.2576 6.8096 15.2576 15.2576s-6.8096 15.2576-15.2576 15.2576H435.0464c-8.448 0-15.2576-6.8096-15.2576-15.2576 0-8.3968 6.8608-15.2576 15.2576-15.2576z" fill="#8486F8" ></path><path d="M191.4368 171.52v294.8608c31.6928-13.4144 61.9008-29.4912 90.5216-47.9232V269.6704c0-15.9232 13.9776-28.8768 31.2832-28.8768h146.432c11.008-16.9984 21.1456-34.6112 30.4128-52.7872H435.0464c-8.448 0-15.2576-6.8096-15.2576-15.2576s6.8096-15.2576 15.2576-15.2576h69.4272c8.8064-20.0704 16.5888-40.704 23.1936-61.8496H269.8752c-43.3152 0-78.4384 33.9968-78.4384 75.8784z" fill="#8D92F8" ></path></svg>