<svg viewBox="0 0 1024 1024" version="1.1" xmlns="http://www.w3.org/2000/svg"><path d="M799.8976 248.4224h-54.0672V196.7616c0-35.072-29.1328-74.1888-70.912-74.1888H337.9712c-41.7792 0-70.912 39.1168-70.912 74.1888v51.6608H212.992c-71.8336 0-130.304 58.4704-130.304 130.304v387.7376c0 71.8336 58.4704 130.304 130.304 130.304h586.9056c71.8336 0 130.304-58.4704 130.304-130.304V378.7264c0-71.8336-58.4192-130.304-130.304-130.304z m-447.3856-40.3968h307.8656v40.3968H352.512v-40.3968z m202.24 187.4944c0 29.4912-23.9104 53.3504-53.3504 53.3504-29.4912 0-53.3504-23.9104-53.3504-53.3504 0-29.4912 23.9104-53.3504 53.3504-53.3504s53.3504 23.9104 53.3504 53.3504z m236.6976 162.304H222.1056c-23.6032 0-42.752-19.1488-42.752-42.752 0-23.6032 19.1488-42.752 42.752-42.752h569.3952c23.6032 0 42.752 19.1488 42.752 42.752a42.8032 42.8032 0 0 1-42.8032 42.752z" fill="#FC7032" ></path><path d="M799.8976 248.4224h-54.0672V196.7616c0-35.072-29.1328-74.1888-70.912-74.1888H337.9712c-41.7792 0-70.912 39.1168-70.912 74.1888v51.6608H212.992c-71.8336 0-130.304 58.4704-130.304 130.304v387.7376c0 71.8336 58.4704 130.304 130.304 130.304h409.7024c172.4416-116.8384 285.7472-314.368 285.7472-538.368 0-18.4832-0.8192-36.7616-2.304-54.8352-23.6032-33.3312-62.3616-55.1424-106.24-55.1424z m-447.3856-40.3968h307.8656v40.3968H352.512v-40.3968z m202.24 187.4944c0 29.4912-23.9104 53.3504-53.3504 53.3504S448.0512 424.96 448.0512 395.52c0-29.4912 23.9104-53.3504 53.3504-53.3504s53.3504 23.9104 53.3504 53.3504z m236.6976 162.304H222.1056c-23.6032 0-42.752-19.1488-42.752-42.752 0-23.6032 19.1488-42.752 42.752-42.752h569.3952c23.6032 0 42.752 19.1488 42.752 42.752a42.8032 42.8032 0 0 1-42.8032 42.752z" fill="#FF7E3E" ></path><path d="M567.808 557.824H222.1056c-23.6032 0-42.752-19.1488-42.752-42.752 0-23.6032 19.1488-42.752 42.752-42.752h409.6512c58.6752-93.5936 94.208-203.1616 98.4576-320.768-12.5952-16.8448-31.9488-29.0304-55.2448-29.0304H337.9712c-41.7792 0-70.912 39.1168-70.912 74.1888v51.6608H212.992c-71.8336 0-130.304 58.4704-130.304 130.304v387.7376c0 3.6864 0.256 7.3728 0.5632 11.008 192.9216-0.7168 365.9776-85.4528 484.5568-219.5968zM501.4016 448.8704c-29.4912 0-53.3504-23.9104-53.3504-53.3504 0-29.4912 23.9104-53.3504 53.3504-53.3504s53.3504 23.9104 53.3504 53.3504c0 29.4912-23.9104 53.3504-53.3504 53.3504zM352.512 208.0256h307.8656v40.3968H352.512v-40.3968z" fill="#FF9552" ></path><path d="M188.9792 488.0896a42.60864 42.60864 0 0 1 31.6416-15.6672 652.6464 652.6464 0 0 0 243.8656-224.0512H352.512v-40.3968h135.8848c14.8992-27.3408 27.904-55.9104 38.8096-85.4528H337.9712c-41.7792 0-70.912 39.1168-70.912 74.1888v51.6608H212.992c-71.8336 0-130.304 58.4704-130.304 130.304v147.5072c36.8128-9.6256 72.3456-22.4256 106.2912-38.0928z" fill="#FFA56A" ></path></svg>