<svg viewBox="0 0 1024 1024" version="1.1" xmlns="http://www.w3.org/2000/svg"><path d="M932.0448 553.1648l-120.064-365.5168c-7.424-22.6304-28.0576-37.8368-51.3024-37.8368H263.4752c-23.2448 0-43.8784 15.2064-51.3024 37.888l-119.8592 365.5168c-1.8944 5.7344-2.816 11.7248-2.816 17.7664v241.408c0 30.6688 24.2688 55.6544 54.1696 55.6544h93.7984c24.2688 0 45.7728-16.7936 52.224-40.8576l14.592-54.4256c0.8704-3.1744 3.2768-5.376 5.9392-5.376h398.336c2.0992 0 4.096 1.3824 5.2736 3.6352l34.7648 67.4304c9.4208 18.2784 27.7504 29.5936 47.872 29.5936h84.3776c29.8496 0 54.1696-24.9856 54.1696-55.6544v-241.408c-0.1024-6.0928-1.0752-12.0832-2.9696-17.8176zM272.5888 391.8336l29.5424-120.064c3.9424-9.3696 11.9808-15.2576 20.6848-15.2576h376.7296c8.7552 0 16.7424 5.888 20.6848 15.2576l29.5424 120.064c7.8848 18.5856-3.328 40.6528-20.6848 40.6528H293.2736c-17.3056 0-28.5696-22.0672-20.6848-40.6528z m65.9456 262.0928H246.8352a29.3888 29.3888 0 0 1-29.3888-29.3888v-41.1648a29.3888 29.3888 0 0 1 29.3888-29.3888h10.8544c44.6464 0 80.8448 36.1984 80.8448 80.8448v19.0976z m473.9072-29.3888a29.3888 29.3888 0 0 1-29.3888 29.3888h-91.6992v-19.0976c0-44.6464 36.1984-80.8448 80.8448-80.8448h10.8544a29.3888 29.3888 0 0 1 29.3888 29.3888v41.1648z" fill="#05C46D" ></path><path d="M811.9808 187.648c-7.424-22.6304-28.0576-37.8368-51.3024-37.8368H263.4752c-23.2448 0-43.8784 15.2064-51.3024 37.888l-119.8592 365.5168c-1.8944 5.7344-2.816 11.7248-2.816 17.7664v241.408c0 30.6688 24.2688 55.6544 54.1696 55.6544h93.7984c24.2688 0 45.7728-16.7936 52.224-40.8576l14.592-54.4256c0.8192-3.1744 3.2768-5.376 5.9392-5.376h398.336c2.0992 0 4.096 1.3824 5.2736 3.6352l1.1776 2.2528c91.1872-88.2176 155.5456-203.8784 179.8656-333.6704l-82.8928-251.9552zM272.5888 391.8336l29.5424-120.064c3.9424-9.3696 11.9808-15.2576 20.6848-15.2576h376.7296c8.7552 0 16.7424 5.888 20.6848 15.2576l29.5424 120.064c7.8848 18.5856-3.328 40.6528-20.6848 40.6528H293.2736c-17.3056 0-28.5696-22.0672-20.6848-40.6528z m65.9456 262.0928H246.8352a29.3888 29.3888 0 0 1-29.3888-29.3888v-41.1648a29.3888 29.3888 0 0 1 29.3888-29.3888h10.8544c44.6464 0 80.8448 36.1984 80.8448 80.8448v19.0976z m444.5184 0h-91.6992v-19.0976c0-44.6464 36.1984-80.8448 80.8448-80.8448h10.8544a29.3888 29.3888 0 0 1 29.3888 29.3888v41.1648a29.3888 29.3888 0 0 1-29.3888 29.3888z" fill="#1DCE75" ></path><path d="M109.2608 727.04c223.8976 0 420.2496-117.7088 530.6368-294.5536h-346.624c-17.3568 0-28.5696-22.0672-20.6848-40.6528l29.5424-120.064c3.9424-9.3696 11.9808-15.2576 20.6848-15.2576h376.7296c5.1712 0 10.0864 2.0992 14.08 5.7856 9.6256-36.3008 16.0768-73.8816 18.9952-112.4352H263.4752c-23.2448 0-43.8784 15.2064-51.3024 37.888l-119.8592 365.5168c-1.8944 5.7344-2.816 11.7248-2.816 17.7664v155.7504c6.5536 0.1024 13.1584 0.256 19.7632 0.256z m108.1856-143.6672a29.3888 29.3888 0 0 1 29.3888-29.3888h10.8544c44.6464 0 80.8448 36.1984 80.8448 80.8448v19.0976H246.8352a29.3888 29.3888 0 0 1-29.3888-29.3888v-41.1648z" fill="#3CD38E" ></path><path d="M272.6912 417.3824a32.512 32.512 0 0 1-0.1024-25.5488l29.5424-120.064c3.9424-9.3696 11.9808-15.2576 20.6848-15.2576H451.584c24.9856-33.1776 46.7456-68.864 64.8192-106.7008h-252.928c-23.2448 0-43.8784 15.2064-51.3024 37.888l-97.28 296.6528c56.1152-15.104 109.1072-37.8368 157.7984-66.9696z" fill="#48E1AA" ></path></svg>