<svg viewBox="0 0 1024 1024" version="1.1" xmlns="http://www.w3.org/2000/svg"><path d="M926.8736 384.1536h-61.9008V377.856c0-66.2528-53.7088-119.9616-119.9616-119.9616H568.832v-28.416c25.1392-0.1536 45.4656-20.5824 45.4656-45.7728 0-25.2928-20.48-45.7728-45.7728-45.7728H453.0176c-25.2928 0-45.7728 20.48-45.7728 45.7728 0 25.1904 20.3264 45.568 45.4656 45.7728v28.416H276.5312c-66.2528 0-119.9616 53.7088-119.9616 119.9616v6.2976H94.6688c-18.4832 0-33.4848 15.0016-33.4848 33.4848v58.112c0 18.4832 15.0016 33.4848 33.4848 33.4848h61.9008v251.9552c0 66.2528 53.7088 119.9616 119.9616 119.9616h468.5312c66.2528 0 119.9616-53.7088 119.9616-119.9616V509.184h61.9008c18.4832 0 33.4848-15.0016 33.4848-33.4848V417.6384c-0.0512-18.4832-15.0528-33.4848-33.536-33.4848zM322.304 675.6352a35.33312 35.33312 0 0 1-70.656 0V493.5168a35.33312 35.33312 0 0 1 70.656 0v182.1184z" fill="#05C46D" ></path><path d="M826.4704 289.8944c-21.4016-19.8144-49.9712-32.0512-81.4592-32.0512H568.832v-28.416c25.1392-0.1536 45.4656-20.5824 45.4656-45.7728 0-25.2928-20.48-45.7728-45.7728-45.7728H453.0176c-25.2928 0-45.7728 20.48-45.7728 45.7728 0 25.1904 20.3264 45.568 45.4656 45.7728v28.416H276.5312c-66.2528 0-119.9616 53.7088-119.9616 119.9616v6.2976H94.6688c-18.4832 0-33.4848 15.0016-33.4848 33.4848v58.112c0 18.4832 15.0016 33.4848 33.4848 33.4848h61.9008v251.9552c0 66.2528 53.7088 119.9616 119.9616 119.9616h200.3456c207.3088-83.9168 353.536-287.1296 353.536-524.544 0-22.528-1.3824-44.7488-3.9424-66.6624z m-504.1664 385.6896a35.33312 35.33312 0 0 1-70.656 0V493.5168a35.33312 35.33312 0 0 1 70.656 0v182.0672z" fill="#1DCE75" ></path><path d="M568.8832 257.8432v-28.416c25.1392-0.1536 45.4656-20.5824 45.4656-45.7728 0-25.2928-20.48-45.7728-45.7728-45.7728H453.0176c-25.2928 0-45.7728 20.48-45.7728 45.7728 0 25.1904 20.3264 45.568 45.4656 45.7728v28.416H276.5312c-66.2528 0-119.9616 53.7088-119.9616 119.9616v6.2976H94.6688c-18.4832 0-33.4848 15.0016-33.4848 33.4848v58.112c0 18.4832 15.0016 33.4848 33.4848 33.4848h61.9008v210.2784c36.2496-2.9696 71.5264-9.3184 105.5232-18.7904a35.16416 35.16416 0 0 1-10.4448-25.0368V493.5168a35.33312 35.33312 0 0 1 70.656 0v182.0672c0 1.5872-0.1536 3.1232-0.3584 4.6592 176.896-71.5776 309.3504-229.9904 344.4736-422.4h-97.536z" fill="#3CD38E" ></path><path d="M445.7984 257.8432H276.5312c-66.2528 0-119.9616 53.7088-119.9616 119.9616v6.2976H94.6688c-18.4832 0-33.4848 15.0016-33.4848 33.4848v58.112c0 16.0768 11.3152 29.44 26.4192 32.6656 150.3232-32.4096 278.4256-124.6208 358.1952-250.5216zM452.7104 229.4272v17.3056c20.5312-34.0992 37.5808-70.5536 50.5856-108.8512h-50.2784c-25.2928 0-45.7728 20.48-45.7728 45.7728 0 25.1904 20.3264 45.6192 45.4656 45.7728z" fill="#48E1AA" ></path></svg>