<svg viewBox="0 0 1024 1024" version="1.1" xmlns="http://www.w3.org/2000/svg"><path d="M947.968 402.9952c-4.9664-82.0224-71.0656-149.0432-153.0368-155.0848-35.2768-2.6112-68.4032 5.888-96.3072 22.272-13.9776-92.928-94.1568-164.1472-190.9248-164.1472-97.0752 0-177.3568 71.6288-191.0272 164.864-27.9552-16.7424-61.2864-25.4976-96.768-23.04-82.176 5.632-148.6848 72.4992-153.9072 154.6752-5.4784 86.6816 55.6032 160.1024 137.0112 174.2336v286.1568c0 28.1088 22.784 50.8928 50.8928 50.8928h504.7808c28.1088 0 50.8928-22.784 50.8928-50.8928V577.024c81.92-13.568 143.6672-87.0912 138.3936-174.0288z m-311.808 377.8048H377.7536a43.1104 43.1104 0 0 1 0-86.2208h258.4064a43.1104 43.1104 0 0 1 0 86.2208z" fill="#6C6CEA" ></path><path d="M846.6432 260.608c-16.128-6.8608-33.4848-11.3664-51.712-12.6976-35.2768-2.6112-68.4032 5.888-96.3072 22.272-13.9776-92.928-94.1568-164.1472-190.9248-164.1472-97.0752 0-177.3568 71.6288-191.0272 164.864-27.9552-16.7424-61.2864-25.4976-96.768-23.04-82.176 5.632-148.6848 72.4992-153.9072 154.6752-5.4784 86.6816 55.6032 160.1024 137.0112 174.2336v286.1568c0 28.1088 22.784 50.8928 50.8928 50.8928h172.4928c246.3232-70.2464 426.7008-297.0112 426.7008-565.9136 0-29.6448-2.2016-58.8288-6.4512-87.296z m-210.4832 520.192H377.7536a43.1104 43.1104 0 0 1 0-86.2208h258.4064a43.1104 43.1104 0 0 1 0 86.2208z" fill="#757BF2" ></path><path d="M685.8752 224.8192c-29.1328-69.7856-97.9456-118.8352-178.2272-118.8352-97.0752 0-177.3568 71.6288-191.0272 164.864-27.9552-16.7424-61.2864-25.4976-96.768-23.04-82.1248 5.6832-148.6336 72.5504-153.856 154.7264-5.4784 86.6816 55.6032 160.1024 137.0112 174.2336v142.1824c249.856-42.4448 446.0544-242.3808 482.8672-494.1312z" fill="#8486F8" ></path><path d="M517.5296 106.24c-3.2768-0.1536-6.5536-0.256-9.8304-0.256-97.0752 0-177.3568 71.6288-191.0272 164.864-27.9552-16.7424-61.2864-25.4976-96.768-23.04-82.176 5.6832-148.6848 72.5504-153.9072 154.7264-2.3552 37.2224 7.5776 71.9872 26.112 100.6592 202.24-47.9744 364.032-200.2944 425.4208-396.9536z" fill="#8D92F8" ></path></svg>