<svg viewBox="0 0 1024 1024" version="1.1" xmlns="http://www.w3.org/2000/svg"><path d="M894.5664 406.7328h-7.6288L795.5456 154.624a59.3664 59.3664 0 0 0-55.7568-39.1168H287.1296c-25.6512 0-48.384 16.4864-56.3712 40.8576l-82.0224 250.368h-11.9808c-35.584 0-64.4096 28.8256-64.4096 64.4096v257.4848c0 35.584 28.8256 64.4096 64.4096 64.4096h34.56v75.1104a32.768 32.768 0 0 0 32.768 32.768h115.0464a32.768 32.768 0 0 0 32.768-32.768v-75.1104h322.5088v75.1104a32.768 32.768 0 0 0 32.768 32.768h115.0464a32.768 32.768 0 0 0 32.768-32.768v-75.1104h39.68c35.584 0 64.4096-28.8256 64.4096-64.4096V471.1424c-0.0512-35.584-28.928-64.4096-64.512-64.4096zM257.2288 670.976c-33.792 0-61.1328-27.392-61.1328-61.1328 0-33.792 27.392-61.1328 61.1328-61.1328s61.1328 27.392 61.1328 61.1328-27.392 61.1328-61.1328 61.1328z m-2.9184-214.1696c-22.0672 0-39.936-17.8688-39.936-39.936s17.8688-39.936 39.936-39.936h522.7008c22.0672 0 39.936 17.8688 39.936 39.936s-17.8688 39.936-39.936 39.936H254.3104z m507.392 214.1696c-33.792 0-61.1328-27.392-61.1328-61.1328 0-33.792 27.392-61.1328 61.1328-61.1328s61.1328 27.392 61.1328 61.1328c0.0512 33.7408-27.3408 61.1328-61.1328 61.1328z" fill="#2595E8" ></path><path d="M795.5456 154.624a59.29984 59.29984 0 0 0-55.7568-39.1168H287.1296c-25.6512 0-48.384 16.4864-56.3712 40.8576l-82.0224 250.368h-11.9808c-35.584 0-64.4096 28.8256-64.4096 64.4096v257.4848c0 35.584 28.8256 64.4096 64.4096 64.4096h34.56v75.1104a32.768 32.768 0 0 0 32.768 32.768h115.0464a32.768 32.768 0 0 0 32.768-32.768v-75.1104h276.7872c46.4896-34.816 87.6544-76.3392 122.1632-123.0848-28.5184-5.1712-50.2272-30.1056-50.2272-60.1088 0-33.792 27.392-61.1328 61.1328-61.1328 19.3536 0 36.608 9.0112 47.8208 23.0912a589.51168 589.51168 0 0 0 56.064-223.9488L795.5456 154.624zM257.2288 670.976c-33.792 0-61.1328-27.392-61.1328-61.1328 0-33.792 27.392-61.1328 61.1328-61.1328s61.1328 27.392 61.1328 61.1328-27.392 61.1328-61.1328 61.1328z m519.7824-214.1696H254.3104c-22.0672 0-39.936-17.8688-39.936-39.936s17.8688-39.936 39.936-39.936h522.7008c22.0672 0 39.936 17.8688 39.936 39.936s-17.8688 39.936-39.936 39.936z" fill="#3A9CED" ></path><path d="M214.3744 416.9216c0-22.0672 17.8688-39.936 39.936-39.936h385.28c40.1408-78.6432 63.232-167.424 64.4608-261.4784H287.1296c-25.6512 0-48.384 16.4864-56.3712 40.8576l-82.0224 250.368h-11.9808c-35.584 0-64.4096 28.8256-64.4096 64.4096v228.1472c12.8512 0.8192 25.8048 1.28 38.912 1.28 196.9152 0 371.4048-96.0512 479.232-243.8144H254.3104a39.8336 39.8336 0 0 1-39.936-39.8336z m103.9872 192.9216c0 33.792-27.392 61.1328-61.1328 61.1328S196.096 643.584 196.096 609.8432c0-33.792 27.392-61.1328 61.1328-61.1328s61.1328 27.3408 61.1328 61.1328z" fill="#59ADF8" ></path><path d="M217.7536 432.9472a39.936 39.936 0 0 1-3.3792-16.0256c0-22.0672 17.8688-39.936 39.936-39.936h57.0368c90.0096-65.7408 160.8704-156.2112 202.3936-261.4784H287.1296c-25.6512 0-48.384 16.4864-56.3712 40.8576l-82.0224 250.368h-11.9808c-35.584 0-64.4096 28.8256-64.4096 64.4096v9.3696c51.0464-9.6256 99.84-25.7536 145.408-47.5648z" fill="#6BC2FC" ></path></svg>