<svg viewBox="0 0 1024 1024" version="1.1" xmlns="http://www.w3.org/2000/svg"><path d="M746.9568 154.5216v227.5328c0 63.2832-51.3024 114.5344-114.5344 114.5344h-230.912c-63.2832 0-114.5344-51.3024-114.5344-114.5344V129.0752h-40.8064c-52.224 0-94.5152 42.3424-94.5152 94.5152v578.8672c0 52.224 42.3424 94.5152 94.5152 94.5152h542.464c52.224 0 94.5152-42.3424 94.5152-94.5152V305.92c0-9.0624-3.584-17.7664-9.984-24.2176l-126.208-127.1808z" fill="#FF8E12" ></path><path d="M371.1488 129.0752v253.0304c0 16.7424 13.6192 30.3616 30.3616 30.3616h230.912c16.7424 0 30.3616-13.6192 30.3616-30.3616V129.0752H371.1488z m222.72 243.3024H473.1392c-22.6304 0-41.0112-18.8416-41.0112-42.0864s18.3808-42.0864 41.0112-42.0864h120.7296c22.6304 0 41.0112 18.8416 41.0112 42.0864s-18.3808 42.0864-41.0112 42.0864z" fill="#FCB138" ></path><path d="M883.0976 305.92c0-9.0624-3.584-17.7664-9.984-24.2176l-126.1568-127.1808v227.5328c0 63.2832-51.3024 114.5344-114.5344 114.5344h-230.912c-63.2832 0-114.5344-51.3024-114.5344-114.5344V129.0752h-40.8064c-52.224 0-94.5152 42.3424-94.5152 94.5152v578.8672c0 52.224 42.3424 94.5152 94.5152 94.5152H430.592c205.056-36.9664 374.3232-176.7936 452.5568-364.0832V305.92z" fill="#FCA315" ></path><path d="M151.6032 690.688c1.3312 0 2.6624 0.0512 3.9936 0.0512 175.9232 0 334.336-74.752 445.3376-194.1504H401.5104c-63.2832 0-114.5344-51.3024-114.5344-114.5344V129.0752h-40.8064c-52.224 0-94.5152 42.3424-94.5152 94.5152v467.0976zM757.9648 165.5808l-10.9568-11.0592v69.7856c4.5568-19.2512 8.2432-38.8096 10.9568-58.7264z" fill="#FCB138" ></path><path d="M289.0752 404.0192c-1.3824-7.1168-2.1504-14.4384-2.1504-21.9648V129.0752h-40.8064c-52.224 0-94.5152 42.3424-94.5152 94.5152V457.216c48.384-12.1856 94.464-30.208 137.472-53.1968zM371.1488 351.1808c76.4928-58.368 138.7008-134.4512 180.5312-222.1568H371.1488v222.1568z" fill="#FFC65E" ></path></svg>