<svg viewBox="0 0 1024 1024" version="1.1" xmlns="http://www.w3.org/2000/svg"><path d="M920.7808 322.56l-219.904-219.904c-36.1984-36.1984-94.9248-36.1984-131.1232 0s-36.1984 94.9248 0 131.1232l23.5008 23.5008-86.272 86.3232c-123.0336-75.1104-285.7984-59.4944-392.192 46.8992l-37.376 37.376 216.5248 216.5248-89.088 89.088c-23.5008 23.5008-23.5008 61.6448 0 85.1456s61.6448 23.5008 85.1456 0l89.088-89.088 216.5248 216.5248 37.376-37.376c106.3936-106.3936 122.0096-269.2096 46.8992-392.192l86.3232-86.3232 23.5008 23.5008c36.1984 36.1984 94.9248 36.1984 131.1232 0s36.1984-94.9248-0.0512-131.1232zM466.0224 454.8608a41.20576 41.20576 0 0 1-34.304 18.2784c-7.8848 0-15.9232-2.2528-22.9888-7.0144-55.9104-37.5808-122.2656-8.0896-122.9312-7.7824-20.6336 9.728-45.2096 0.8704-54.8864-19.7632a41.19552 41.19552 0 0 1 19.7632-54.8864c4.4032-2.048 108.8512-50.0224 204.0832 13.9264 18.8928 12.6976 23.9616 38.3488 11.264 57.2416z" fill="#F23D4F" ></path><path d="M569.7536 102.656c-36.1984 36.1984-36.1984 94.9248 0 131.1232l23.5008 23.5008-86.272 86.3232c-123.0336-75.1104-285.7984-59.4944-392.192 46.8992l-37.376 37.376 216.5248 216.5248-89.088 89.088c-23.5008 23.5008-23.5008 61.6448 0 85.1456s61.6448 23.5008 85.1456 0l89.088-89.088 105.8304 105.8304c99.2256-42.4448 182.1184-115.5584 236.8512-207.4624a319.14496 319.14496 0 0 0-41.8816-111.4112l86.3232-86.3232 20.1728 20.1728c4.3008-26.624 6.656-53.8624 6.656-81.664 0-82.0736-19.6096-159.5392-54.2208-228.1472l-37.888-37.888c-36.2496-36.1984-94.976-36.1984-131.1744 0zM466.0224 454.8608a41.20576 41.20576 0 0 1-34.304 18.2784c-7.8848 0-15.9232-2.2528-22.9888-7.0144-55.9104-37.5808-122.2656-8.0896-122.9312-7.7824-20.6336 9.728-45.2096 0.8704-54.8864-19.7632a41.19552 41.19552 0 0 1 19.7632-54.8864c4.4032-2.048 108.8512-50.0224 204.0832 13.9264 18.8928 12.6976 23.9616 38.3488 11.264 57.2416z" fill="#FC4956" ></path><path d="M253.8496 684.4416c228.8128-49.152 400.3328-252.4672 400.3328-495.9232 0-38.7584-4.5056-76.4416-12.6976-112.6912-25.7536-1.6896-52.0704 7.168-71.7312 26.88-36.1984 36.1984-36.1984 94.9248 0 131.1232l23.5008 23.5008-86.272 86.272c-123.0336-75.1104-285.7984-59.4944-392.192 46.8992l-37.376 37.376 216.5248 216.5248-40.0896 40.0384z m32-226.1504c-20.6336 9.728-45.2096 0.8704-54.8864-19.7632a41.19552 41.19552 0 0 1 19.7632-54.8864c4.4032-2.048 108.8512-50.0224 204.0832 13.9264 18.8928 12.6976 23.9616 38.3488 11.264 57.2416a41.20576 41.20576 0 0 1-34.304 18.2784c-7.8848 0-15.9232-2.2528-22.9888-7.0144-55.9616-37.5296-122.3168-8.0896-122.9312-7.7824z" fill="#FF5C64" ></path><path d="M230.912 438.5792a41.19552 41.19552 0 0 1 19.7632-54.8864c3.2256-1.536 60.0576-27.5456 127.6416-16.3328 18.0224-18.0736 34.6624-37.5296 49.8176-58.112-107.8272-30.6176-228.5056-3.584-313.3952 81.3056l-37.376 37.376L148.992 499.5584c36.4032-9.6256 71.168-23.1936 103.8848-40.2432a41.86112 41.86112 0 0 1-21.9648-20.736z" fill="#FF716E" ></path></svg>