<svg viewBox="0 0 1024 1024" version="1.1" xmlns="http://www.w3.org/2000/svg"><path d="M626.8928 751.9232c-42.496 0-77.056-34.56-77.056-77.056v-137.1136c0-42.496 34.56-77.056 77.056-77.056h289.024V372.2752c0-47.872-38.8096-86.6816-86.6816-86.6816H114.1248v545.9456c0 47.872 38.8096 86.6816 86.6816 86.6816h628.4288c47.872 0 86.6816-38.8096 86.6816-86.6816v-79.616h-289.024z" fill="#FF8E12" ></path><path d="M648.9088 121.4976H165.3248c-28.2624 0-51.2 22.9376-51.2 51.2v55.1936h585.984V172.6976c0-28.3136-22.8864-51.2-51.2-51.2z" fill="#FCB138" ></path><path d="M626.8928 525.4656c-10.5984 0-19.2512 8.6528-19.2512 19.2512v122.5216c0 10.5984 8.6528 19.2512 19.2512 19.2512h289.024v-161.024h-289.024z m56.7296 116.0704c-19.6608 0-35.584-15.9232-35.584-35.584s15.9232-35.584 35.584-35.584 35.584 15.9232 35.584 35.584-15.9232 35.584-35.584 35.584z" fill="#FF8E12" ></path><path d="M877.0048 525.4656h-250.112c-10.5984 0-19.2512 8.6528-19.2512 19.2512v122.5216c0 10.5984 8.6528 19.2512 19.2512 19.2512h155.4432c38.912-48.4352 70.9632-102.6048 94.6688-161.024z m-193.3824 116.0704c-19.6608 0-35.584-15.9232-35.584-35.584 0-19.6608 15.9232-35.584 35.584-35.584 19.6608 0 35.584 15.9232 35.584 35.584 0.0512 19.6608-15.9232 35.584-35.584 35.584z" fill="#FCA315" ></path><path d="M915.9168 372.2752c0-47.872-38.8096-86.6816-86.6816-86.6816H114.1248v545.9456c0 47.872 38.8096 86.6816 86.6816 86.6816h188.0576c127.744-21.76 242.6368-81.1008 332.9536-166.2976h-94.9248c-42.496 0-77.056-34.56-77.056-77.056v-137.1136c0-42.496 34.56-77.056 77.056-77.056h272.4864c6.9632-24.2688 12.4928-49.2032 16.5376-74.5472v-13.8752z" fill="#FCA315" ></path><path d="M114.1248 285.5936v412.928c170.6496-2.7136 325.12-71.7824 438.8864-182.528 6.8096-23.04 24.1152-41.5744 46.3872-50.1248 44.4416-53.4528 80.384-114.2272 105.7792-180.2752H114.1248z" fill="#FCB138" ></path><path d="M514.4576 121.4976H187.3408c-40.3968 0-73.1648 32.768-73.1648 73.1648v33.2288H445.44c26.3168-32.9728 49.5104-68.608 69.0176-106.3936zM393.4208 285.5936H114.1248v161.6384c106.8544-29.5936 202.496-86.0672 279.296-161.6384z" fill="#FFC65E" ></path></svg>