<svg viewBox="0 0 1024 1024" version="1.1" xmlns="http://www.w3.org/2000/svg"><path d="M923.7504 247.1424V217.6c0-42.24-34.2528-76.4928-76.4928-76.4928H176.2816c-42.24 0-76.4928 34.2528-76.4928 76.4928v29.5424h823.9616z" fill="#757BF2" ></path><path d="M99.7888 318.8736v495.5136c0 42.24 34.2528 76.4928 76.4928 76.4928h670.976c42.24 0 76.4928-34.2528 76.4928-76.4928V318.8736H99.7888z m423.5776 331.776h-21.76c-137.3184 0-249.0368-112.6912-249.0368-251.2384 0-17.8176 14.4384-32.3072 32.3072-32.3072s32.3072 14.4384 32.3072 32.3072c0 102.912 82.7392 186.6752 184.4736 186.6752h21.76c101.7344 0 184.4736-83.712 184.4736-186.6752 0-17.8176 14.4384-32.3072 32.3072-32.3072s32.3072 14.4384 32.3072 32.3072c-0.0512 138.496-111.7696 251.2384-249.1392 251.2384z" fill="#6C6CEA" ></path><path d="M923.7504 318.8736H99.7888v495.5136c0 42.24 34.2528 76.4928 76.4928 76.4928h332.5952c202.1888-65.7408 359.5776-230.6048 414.8736-437.248V318.8736z m-400.384 331.776h-21.76c-137.3184 0-249.0368-112.6912-249.0368-251.2384 0-17.8176 14.4384-32.3072 32.3072-32.3072s32.3072 14.4384 32.3072 32.3072c0 102.912 82.7392 186.6752 184.4736 186.6752h21.76c101.7344 0 184.4736-83.712 184.4736-186.6752 0-17.8176 14.4384-32.3072 32.3072-32.3072s32.3072 14.4384 32.3072 32.3072c-0.0512 138.496-111.7696 251.2384-249.1392 251.2384z" fill="#757BF2" ></path><path d="M767.8464 141.1072H176.2816c-42.24 0-76.4928 34.2528-76.4928 76.4928v29.5424h646.0416c10.24-34.2016 17.664-69.632 22.016-106.0352zM99.7888 696.0128c13.4656 0.8704 27.0336 1.3312 40.704 1.3312 98.304 0 191.3344-22.4256 274.3296-62.5152C320.1536 599.1936 252.5696 507.0848 252.5696 399.36c0-17.8176 14.4384-32.3072 32.3072-32.3072s32.3072 14.4384 32.3072 32.3072c0 101.9392 81.2544 185.0368 181.6576 186.5728 96.3072-66.4064 173.2096-158.8224 220.672-267.1104H99.7888v377.1904z" fill="#8486F8" ></path><path d="M538.2144 141.1072H176.2816c-42.24 0-76.4928 34.2528-76.4928 76.4928v29.5424h366.5408c27.392-32.7168 51.5072-68.1984 71.8848-106.0352zM99.7888 462.6944c53.76-10.1888 105.1136-27.136 153.1392-50.0224-0.2048-4.4032-0.3584-8.8064-0.3584-13.2608a32.3072 32.3072 0 0 1 32.3072-32.3072c10.9568 0 20.6336 5.4784 26.4704 13.8752 29.952-18.3808 58.3168-39.168 84.6848-62.1056H99.7888v143.8208z" fill="#8D92F8" ></path></svg>