<svg viewBox="0 0 1024 1024" version="1.1" xmlns="http://www.w3.org/2000/svg"><path d="M808.6528 177.1008h-96.1536v-15.5648c0-19.5072-16.3328-35.2768-36.5056-35.2768s-36.5056 15.7696-36.5056 35.2768v15.5648H397.5168v-15.5648c0-19.5072-16.3328-35.2768-36.5056-35.2768s-36.5056 15.7696-36.5056 35.2768v15.5648H225.2288c-54.6304 0-98.9184 42.752-98.9184 95.5392v527.2064c0 52.7872 44.288 95.5392 98.9184 95.5392h583.424c54.6304 0 98.9184-42.752 98.9184-95.5392V272.64c-0.0512-52.736-44.3392-95.5392-98.9184-95.5392z m-87.1936 375.3472l-232.2944 222.2592a41.6256 41.6256 0 0 1-28.9792 11.6224c-10.8032 0-21.5552-4.1472-29.7472-12.3904L303.872 646.656a41.90208 41.90208 0 0 1 0.2048-59.2896 41.90208 41.90208 0 0 1 59.2896 0.2048l97.536 98.1504 202.5984-193.792c16.7424-16.0256 43.264-15.4112 59.2896 1.3312 15.9744 16.64 15.4112 43.2128-1.3312 59.1872z m106.9568-209.3056c0 13.2096-11.1104 23.9104-24.7808 23.9104H230.2464c-13.6704 0-24.7808-10.7008-24.7808-23.9104V276.736c0-13.2096 11.1104-23.9104 24.7808-23.9104h94.2592v20.7872c0 19.5072 16.3328 35.2768 36.5056 35.2768s36.5056-15.7696 36.5056-35.2768v-20.7872h241.92v20.7872c0 19.5072 16.3328 35.2768 36.5056 35.2768s36.5056-15.7696 36.5056-35.2768v-20.7872h91.1872c13.6704 0 24.7808 10.7008 24.7808 23.9104v66.4064z" fill="#2595E8" ></path><path d="M907.52 272.64c0-52.7872-44.288-95.5392-98.9184-95.5392h-96.1536v-15.5648c0-19.5072-16.3328-35.2768-36.5056-35.2768s-36.5056 15.7696-36.5056 35.2768v15.5648H397.5168v-15.5648c0-19.5072-16.3328-35.2768-36.5056-35.2768s-36.5056 15.7696-36.5056 35.2768v15.5648H225.2288c-54.6304 0-98.9184 42.752-98.9184 95.5392v527.2064c0 52.7872 44.288 95.5392 98.9184 95.5392h344.4224c150.7328-59.1872 272.384-176.128 337.8688-323.5328V272.64z m-186.0608 279.808l-232.2944 222.2592a41.6256 41.6256 0 0 1-28.9792 11.6224c-10.8032 0-21.5552-4.1472-29.7472-12.3904L303.872 646.656a41.90208 41.90208 0 0 1 0.2048-59.2896 41.90208 41.90208 0 0 1 59.2896 0.2048l97.536 98.1504 202.5984-193.792c16.7424-16.0256 43.264-15.4112 59.2896 1.3312 15.9744 16.64 15.4112 43.2128-1.3312 59.1872z m106.9568-209.3056c0 13.2096-11.1104 23.9104-24.7808 23.9104H230.2464c-13.6704 0-24.7808-10.7008-24.7808-23.9104V276.736c0-13.2096 11.1104-23.9104 24.7808-23.9104h94.2592v20.7872c0 19.5072 16.3328 35.2768 36.5056 35.2768s36.5056-15.7696 36.5056-35.2768v-20.7872h241.92v20.7872c0 19.5072 16.3328 35.2768 36.5056 35.2768s36.5056-15.7696 36.5056-35.2768v-20.7872h91.1872c13.6704 0 24.7808 10.7008 24.7808 23.9104v66.4064z" fill="#3A9CED" ></path><path d="M176.5376 719.2064c60.6208 0 119.1424-8.8064 174.4384-25.1392l-47.1552-47.4624a41.90208 41.90208 0 0 1 0.2048-59.2896 41.90208 41.90208 0 0 1 59.2896 0.2048l73.5744 73.984c129.6896-60.6208 234.7008-165.1712 295.9872-294.4512H230.2464c-13.6704 0-24.7808-10.7008-24.7808-23.9104V276.736c0-13.2096 11.1104-23.9104 24.7808-23.9104h94.2592v20.7872c0 19.5072 16.3328 35.2768 36.5056 35.2768s36.5056-15.7696 36.5056-35.2768v-20.7872h241.92v20.7872c0 19.5072 16.3328 35.2768 36.5056 35.2768s36.5056-15.7696 36.5056-35.2768v-20.7872h61.2352c6.144-24.6784 10.752-49.92 13.824-75.6736h-75.0592v-15.5648c0-19.5072-16.3328-35.2768-36.5056-35.2768s-36.5056 15.7696-36.5056 35.2768v15.5648H397.5168v-15.5648c0-19.5072-16.3328-35.2768-36.5056-35.2768s-36.5056 15.7696-36.5056 35.2768v15.5648H225.2288c-54.6304 0-98.9184 42.752-98.9184 95.5392v444.5184c16.5888 1.28 33.3312 1.9968 50.2272 1.9968z" fill="#59ADF8" ></path><path d="M405.5552 367.0528H230.2464c-13.6704 0-24.7808-10.7008-24.7808-23.9104V276.736c0-13.2096 11.1104-23.9104 24.7808-23.9104h94.2592v20.7872c0 19.5072 16.3328 35.2768 36.5056 35.2768s36.5056-15.7696 36.5056-35.2768v-20.7872h118.4256c17.8176-23.9616 33.8944-49.2544 48.128-75.6736H397.5168v-15.5648c0-19.5072-16.3328-35.2768-36.5056-35.2768s-36.5056 15.7696-36.5056 35.2768v15.5648H225.2288c-54.6304 0-98.9184 42.752-98.9184 95.5392V492.544c104.448-17.8688 199.8848-62.0544 279.2448-125.4912z" fill="#6BC2FC" ></path></svg>