<svg viewBox="0 0 1024 1024" version="1.1" xmlns="http://www.w3.org/2000/svg"><path d="M718.1824 273.8176a31.2832 31.2832 0 0 1-31.2832-31.2832v-110.592a31.2832 31.2832 0 0 1 31.2832-31.2832 31.2832 31.2832 0 0 1 31.2832 31.2832v110.592c0.0512 17.2544-13.9776 31.2832-31.2832 31.2832z" fill="#59ADF8" ></path><path d="M790.5792 157.696v84.8384c0 35.9424-36.4544 65.2288-72.3968 65.2288-35.9424 0-72.3968-29.2352-72.3968-65.2288V157.2352H379.5968v85.248c0 35.9424-36.4544 65.2288-72.3968 65.2288s-72.3968-29.2352-72.3968-65.2288V157.3888c-68.2496 2.7648-122.6752 58.88-122.6752 127.744v100.1984h796.416V285.1328c0-67.2768-51.968-122.368-117.9648-127.4368z" fill="#3A9CED" ></path><path d="M307.1488 273.8176a31.2832 31.2832 0 0 1-31.2832-31.2832v-110.592a31.2832 31.2832 0 0 1 31.2832-31.2832 31.2832 31.2832 0 0 1 31.2832 31.2832v110.592c0.0512 17.2544-13.9776 31.2832-31.2832 31.2832z" fill="#6BC2FC" ></path><path d="M728.576 306.8416c-3.4304 0.512-6.912 0.8704-10.3936 0.8704-35.9424 0-72.3968-29.2352-72.3968-65.2288V157.2352H379.5968v85.248c0 35.9424-36.4544 65.2288-72.3968 65.2288s-72.3968-29.2352-72.3968-65.2288V157.3888c-68.2496 2.7648-122.6752 58.88-122.6752 127.744v100.1984h577.8944c14.592-25.1392 27.4432-51.3536 38.5536-78.4896z" fill="#59ADF8" ></path><path d="M510.0032 157.2352H379.5968v85.248c0 35.9424-36.4544 65.2288-72.3968 65.2288s-72.3968-29.2352-72.3968-65.2288V157.3888c-68.2496 2.7648-122.6752 58.88-122.6752 127.744v100.1984h158.8736a638.08512 638.08512 0 0 0 239.0016-228.096z" fill="#6BC2FC" ></path><path d="M112.128 449.28v334.7456c0 70.6048 57.2416 127.8976 127.8976 127.8976h540.6208c70.656 0 127.8976-57.2416 127.8976-127.8976V449.28H112.128z m566.4256 183.4496l-191.5392 155.4944c-9.8816 7.9872-22.1696 12.288-34.7648 12.288-2.6624 0-5.376-0.2048-8.0384-0.6144a54.9376 54.9376 0 0 1-37.5296-23.6544l-73.5232-108.7488c-13.3632-19.8144-8.192-46.6944 11.6224-60.0576 19.7632-13.4144 46.6944-8.192 60.0576 11.5712l54.3232 80.3328 164.9152-133.8368a43.24352 43.24352 0 0 1 60.8256 6.2976c15.0528 18.6368 12.1856 45.8752-6.3488 60.928z" fill="#2595E8" ></path><path d="M112.128 449.28v334.7456c0 70.6048 57.2416 127.8976 127.8976 127.8976h214.1696c209.6128-47.1552 379.904-197.9392 454.3488-395.7248V449.28H112.128z m566.4256 183.4496l-191.5392 155.4944c-9.8816 7.9872-22.1696 12.288-34.7648 12.288-2.6624 0-5.376-0.2048-8.0384-0.6144a54.9376 54.9376 0 0 1-37.5296-23.6544l-73.5232-108.7488c-13.3632-19.8144-8.192-46.6944 11.6224-60.0576 19.7632-13.4144 46.6944-8.192 60.0576 11.5712l54.3232 80.3328 164.9152-133.8368a43.24352 43.24352 0 0 1 60.8256 6.2976c15.0528 18.6368 12.1856 45.8752-6.3488 60.928z" fill="#3A9CED" ></path><path d="M333.1072 667.5456c-13.3632-19.8144-8.192-46.6944 11.6224-60.0576 19.7632-13.4144 46.6944-8.192 60.0576 11.5712l13.0048 19.2c90.7776-44.1344 169.472-109.2096 229.7344-189.0304H112.128v252.0576c9.4208 0.4096 18.944 0.6656 28.4672 0.6656 68.096 0 133.5808-10.8544 195.0208-30.6688l-2.5088-3.7376z" fill="#59ADF8" ></path></svg>