<svg viewBox="0 0 1024 1024" version="1.1" xmlns="http://www.w3.org/2000/svg"><path d="M903.936 779.6736L871.424 228.6592c-2.9184-49.664-44.0832-88.4224-93.7984-88.4224H248.8832c-49.7664 0-90.88 38.7584-93.7984 88.4224l-32.512 551.0656c-3.1744 53.9648 39.7312 99.5328 93.7984 99.5328h593.7664c54.0672-0.0512 97.024-45.568 93.7984-99.584z m-144.4864-402.0736c-11.6224 128.6144-117.0432 229.632-244.992 229.632-127.1808 0-232.0896-99.7888-244.7872-227.2768-11.8784-9.984-19.5072-25.2416-19.5072-42.2912 0-30.1056 23.6032-54.528 52.6848-54.528 29.0816 0 52.6848 24.4224 52.6848 54.528 0 13.9264-5.12 26.624-13.4144 36.2496 9.5744 90.2656 83.2 160.6656 172.3392 160.6656 88.3712 0 161.4848-69.2224 172.032-158.3104a55.27552 55.27552 0 0 1-15.5136-38.6048c0-30.1056 23.6032-54.528 52.6848-54.528 29.0816 0 52.6848 24.4224 52.6848 54.528a54.9888 54.9888 0 0 1-16.896 39.936z" fill="#F23D4F" ></path><path d="M871.424 228.6592c-2.9184-49.664-44.0832-88.4224-93.7984-88.4224H248.8832c-49.7664 0-90.88 38.7584-93.7984 88.4224l-32.512 551.0656c-3.1744 53.9648 39.7312 99.5328 93.7984 99.5328h312.1152c174.2336-75.264 307.456-227.3792 356.9152-413.696l-13.9776-236.9024z m-111.9744 148.9408c-11.6224 128.6144-117.0432 229.632-244.992 229.632-127.1808 0-232.1408-99.7888-244.7872-227.2768-11.8784-9.984-19.5072-25.2416-19.5072-42.2912 0-30.1056 23.6032-54.528 52.6848-54.528 29.0816 0 52.6848 24.4224 52.6848 54.528 0 13.9264-5.12 26.624-13.4144 36.2496 9.5744 90.2656 83.2 160.6656 172.3392 160.6656 88.3712 0 161.4848-69.2224 172.032-158.3104a55.27552 55.27552 0 0 1-15.5136-38.6048c0-30.1056 23.6032-54.528 52.6848-54.528 29.0816 0 52.6848 24.4224 52.6848 54.528a54.9888 54.9888 0 0 1-16.896 39.936z" fill="#FC4956" ></path><path d="M459.7248 600.8832c-101.4272-23.808-179.2512-112.2816-190.0544-220.928-11.8784-9.984-19.5072-25.2416-19.5072-42.2912 0-30.1056 23.6032-54.528 52.6848-54.528 29.0816 0 52.6848 24.4224 52.6848 54.528 0 13.9264-5.12 26.624-13.4144 36.2496 9.5744 90.2656 83.2 160.6656 172.3392 160.6656 10.3424 0 20.4288-0.9728 30.2592-2.816a626.19648 626.19648 0 0 0 128.6144-177.9712c-1.536-5.12-2.3552-10.5472-2.3552-16.1792 0-21.3504 11.9296-39.8336 29.2352-48.7424 16.5376-47.2064 27.5456-97.024 32.256-148.6848H248.8832c-49.7664 0-90.88 38.7584-93.7984 88.4224l-28.2624 479.1296c123.136-3.328 237.4144-42.24 332.9024-106.8544z" fill="#FF5C64" ></path><path d="M272.2304 398.4896c-1.0752-6.144-1.9456-12.288-2.6112-18.5344-11.8784-9.984-19.5072-25.2416-19.5072-42.2912 0-30.1056 23.6032-54.528 52.6848-54.528 29.0816 0 52.6848 24.4224 52.6848 54.528 0 0.512-0.0512 0.9728-0.0512 1.4848C420.1984 284.4672 473.7536 216.832 512 140.2368H248.832c-49.7664 0-90.88 38.7584-93.7984 88.4224l-13.4656 228.6592a622.5408 622.5408 0 0 0 130.6624-58.8288z" fill="#FF716E" ></path></svg>