<svg viewBox="0 0 1024 1024" version="1.1" xmlns="http://www.w3.org/2000/svg"><path d="M509.4912 80.4864c-239.1552 0-433.0496 193.8944-433.0496 433.0496s193.8944 433.0496 433.0496 433.0496 433.0496-193.8944 433.0496-433.0496-193.8944-433.0496-433.0496-433.0496z m213.248 279.296l-119.296 373.0432c-7.6288 23.808-29.2352 39.5264-54.0672 39.5264h-1.536c-25.4976-0.6656-47.0016-17.7152-53.4528-42.3936l-43.1616-164.352-169.3696-45.7216c-24.4224-6.6048-41.3184-28.0064-41.984-53.2992s15.0016-47.616 39.0144-55.552l372.0704-122.5728A56.6784 56.6784 0 0 1 708.7616 302.08c15.104 15.1552 20.48 37.2224 13.9776 57.7024z" fill="#2595E8" ></path><path d="M487.2704 489.5232c19.6096 5.2736 34.9696 20.7872 40.1408 40.3968l24.32 92.4672 76.544-239.3088-241.0496 79.4624 100.0448 26.9824z" fill="#2595E8" ></path><path d="M76.4416 513.536c0 178.5856 108.1344 331.9296 262.5024 398.1312 263.2704-54.1184 461.2608-287.1296 461.2608-566.3744 0-61.0304-9.472-119.8592-27.0336-175.1552-73.0112-56.1664-164.4544-89.6512-263.68-89.6512-239.1552 0-433.0496 193.8944-433.0496 433.0496zM708.608 302.08a56.6272 56.6272 0 0 1 14.1312 57.6512l-119.296 373.0432c-7.6288 23.808-29.2352 39.5264-54.0672 39.5264h-1.536c-25.4976-0.6656-47.0016-17.7152-53.4528-42.3936l-43.1616-164.352-169.3696-45.6704c-24.4224-6.6048-41.3184-28.0064-41.984-53.2992-0.7168-25.2928 15.0016-47.616 39.0144-55.552l372.0704-122.5728c20.224-6.7072 42.3936-1.4848 57.6512 13.6192z" fill="#3A9CED" ></path><path d="M76.4416 513.536c0 72.704 17.9712 141.1072 49.6128 201.2672 124.7744-13.3632 237.6704-66.4064 325.8368-146.2784l-0.768-2.9696-169.3696-45.6704c-24.4224-6.6048-41.3184-28.0064-41.984-53.2992-0.7168-25.2928 15.0016-47.616 39.0144-55.552l341.1968-112.4352c14.3872-50.432 22.0672-103.68 22.0672-158.72 0-13.1584-0.4608-26.2144-1.3312-39.1168a432.128 432.128 0 0 0-131.1744-20.2752c-239.2064 0-433.1008 193.8944-433.1008 433.0496z" fill="#59ADF8" ></path><path d="M387.2256 462.5408l100.0448 26.9824c9.7792 2.6624 18.5344 7.8336 25.4464 14.7968 26.368-32.4608 49.3056-67.84 68.2496-105.6256L387.2256 462.5408z" fill="#59ADF8" ></path><path d="M77.0048 491.4688C272.8448 435.712 426.24 279.3472 477.8496 81.7664c-217.1392 15.7184-389.888 191.3344-400.8448 409.7024z" fill="#6BC2FC" ></path></svg>