<svg viewBox="0 0 1024 1024" version="1.1" xmlns="http://www.w3.org/2000/svg"><path d="M823.296 133.12H216.832c-54.0672 0-97.8944 43.8272-97.8944 97.8944v420.2496c0 54.0672 43.8272 97.8944 97.8944 97.8944H823.296c54.0672 0 97.8944-43.8272 97.8944-97.8944V231.0144c0-54.0672-43.8272-97.8944-97.8944-97.8944zM487.5776 401.2032H430.1312v153.7536a43.6224 43.6224 0 0 1-87.2448 0V401.2032H285.3888a43.6224 43.6224 0 0 1 0-87.2448h202.1376a43.6224 43.6224 0 0 1 43.6224 43.6224c0.0512 24.064-19.5072 43.6224-43.5712 43.6224z m307.5072-27.0336l-81.2032 197.376a43.58144 43.58144 0 0 1-40.3456 27.0336h-0.3584a43.76576 43.76576 0 0 1-40.2944-27.648l-77.6192-197.376c-8.8064-22.4256 2.2016-47.7696 24.6272-56.576 22.4256-8.8064 47.7696 2.2016 56.576 24.6272l37.888 96.4096 39.8848-97.024c9.1648-22.272 34.6624-32.9216 56.9856-23.7568a43.56096 43.56096 0 0 1 23.8592 56.9344zM820.9408 882.8416H219.1872c-24.1152 0-43.6224-17.5616-43.6224-39.2192s19.5584-39.2192 43.6224-39.2192h601.7024c24.1152 0 43.6224 17.5616 43.6224 39.2192s-19.5072 39.2192-43.5712 39.2192z" fill="#6C6CEA" ></path><path d="M216.832 133.12c-54.0672 0-97.8944 43.8272-97.8944 97.8944v420.2496c0 54.0672 43.8272 97.8944 97.8944 97.8944h457.4208c110.2848-118.9888 177.7152-278.272 177.7152-453.3248a667.136 667.136 0 0 0-19.9168-162.2528c-2.8672-0.256-5.7856-0.4608-8.7552-0.4608H216.832z m270.7456 268.0832H430.1312v153.7536a43.6224 43.6224 0 0 1-87.2448 0V401.2032H285.3888a43.6224 43.6224 0 0 1 0-87.2448h202.1376a43.6224 43.6224 0 0 1 43.6224 43.6224c0.0512 24.064-19.5072 43.6224-43.5712 43.6224z m307.5072-27.0336l-81.2032 197.376a43.58144 43.58144 0 0 1-40.3456 27.0336h-0.3584a43.76576 43.76576 0 0 1-40.2944-27.648l-77.6192-197.376c-8.8064-22.4256 2.2016-47.7696 24.6272-56.576 22.4256-8.8064 47.7696 2.2016 56.576 24.6272l37.888 96.4096 39.8848-97.024c9.1648-22.272 34.6624-32.9216 56.9344-23.7568a43.54048 43.54048 0 0 1 23.9104 56.9344zM219.1872 804.4544c-24.1152 0-43.6224 17.5616-43.6224 39.2192s19.5584 39.2192 43.6224 39.2192h282.9312c40.9088-22.1696 79.2064-48.4864 114.432-78.4384H219.1872z" fill="#757BF2" ></path><path d="M118.9376 231.0144v420.2496c0 22.8864 7.936 43.8784 21.0944 60.5696 94.1568-19.7632 181.0432-59.392 256-114.2784-3.072 0.6656-6.2464 1.0752-9.5232 1.0752a43.6224 43.6224 0 0 1-43.6224-43.6224V401.2032H285.3888a43.6224 43.6224 0 0 1 0-87.2448h202.1376a43.6224 43.6224 0 0 1 0 87.2448H430.1312v153.7536c0 7.168-1.7408 13.9264-4.8128 19.8656a671.2832 671.2832 0 0 0 144.384-164.8128l-14.336-36.4544c-8.8064-22.4256 2.2016-47.7696 24.6272-56.576 12.4928-4.9152 25.856-3.6352 36.8128 2.304 24.7296-58.2656 41.3696-120.7808 48.5888-186.112h-448.512C162.7648 133.12 118.9376 176.9472 118.9376 231.0144z" fill="#8486F8" ></path><path d="M118.9376 231.0144v195.3792a665.5488 665.5488 0 0 0 123.392-75.6736c3.2768-20.8384 21.2992-36.864 43.0592-36.864h0.6144A668.8256 668.8256 0 0 0 425.1648 133.12H216.832c-54.0672 0-97.8944 43.8272-97.8944 97.8944z" fill="#8D92F8" ></path></svg>