<?xml version="1.0" standalone="no"?><!DOCTYPE svg PUBLIC "-//W3C//DTD SVG 1.1//EN" "http://www.w3.org/Graphics/SVG/1.1/DTD/svg11.dtd"><svg class="icon" width="66px" height="66.00px" viewBox="0 0 1024 1024" version="1.1" xmlns="http://www.w3.org/2000/svg"><path d="M494.752 98.18c17.21 1.438 37.44 4.19 56.94 9.374 41.794 11.094 63.564 52.634 66.188 95.976 3.302 54.598 1.302 110.046-1.42 151.02 64.928-5.83 129.334-10.446 187.308-13.22 61.21-2.914 112.412 43.444 113.66 104.966 2.052 101.32-4.356 255.56-50.726 380.504-18.204 49.052-66.446 78-118.538 79.7-243.788 7.956-478.212-24.514-478.212-24.514V398.8c27.216-5.12 58.76-10.242 93.216-15.222 30.82-86.442 59.966-187.66 75.51-243.778 7.082-25.548 29.748-43.828 56.074-41.62z" fill="#FF934A" /><path d="M110.888 873.34c0.544 21.38 12.596 40.814 33.254 46.36 16.32 4.392 38.368 8.3 65.078 8.3s48.758-3.908 65.078-8.3c20.656-5.546 32.71-24.98 33.252-46.36a9323.62 9323.62 0 0 0 2.89-228.756c0-98.426-1.748-183.592-2.89-228.756-0.54-21.378-12.596-40.812-33.252-46.36-16.32-4.392-38.368-8.3-65.08-8.3-26.708 0-48.756 3.908-65.076 8.3-20.658 5.548-32.71 24.982-33.254 46.36A9323.614 9323.614 0 0 0 108 644.584c0 98.426 1.748 183.594 2.888 228.758z" fill="#1677FF" /></svg>