<svg viewBox="0 0 1024 1024" version="1.1" xmlns="http://www.w3.org/2000/svg"><path d="M458.9568 506.88l0.0512 0.0512z" fill="#BD50D3" ></path><path d="M418.9184 580.096a50.8928 50.8928 0 0 1-26.5728-41.8304 50.86208 50.86208 0 0 1 21.0944-44.6976 23.69024 23.69024 0 0 0 9.9328-19.3536v-42.3424c0-22.8864-18.6368-41.5744-41.5744-41.5744s-41.5744 18.6368-41.5744 41.5744v42.3424c0 7.5776 3.4816 14.5408 9.5232 19.0976 14.1312 10.7008 21.8112 27.5456 20.48 45.1072a50.8928 50.8928 0 0 1-26.5216 41.0624l-84.2752 45.9776v5.1712h242.4832v-5.1712l-82.9952-45.3632z" fill="#BF5CD6" ></path><path d="M798.4128 157.8496H225.792c-84.8896 0-153.9072 69.0688-153.9072 153.9072v397.4656c0 84.8896 69.0688 153.9072 153.9072 153.9072h572.6208c84.8896 0 153.9072-69.0688 153.9072-153.9072V311.808c0-84.8896-69.0176-153.9584-153.9072-153.9584z m-212.992 514.56c0 23.04-18.688 41.728-41.728 41.728H217.7536c-23.04 0-41.728-18.688-41.728-41.728v-71.6288c0-15.2576 8.3456-29.2864 21.7088-36.608l71.8336-39.2192c-8.2944-15.4624-12.8-32.8704-12.8-50.688v-42.3424c0-68.9152 56.064-124.9792 124.9792-124.9792S506.7264 363.008 506.7264 431.9232v42.3424c0 18.2272-4.7104 35.9424-13.2608 51.5584l70.144 38.3488a41.76384 41.76384 0 0 1 21.7088 36.608v71.6288z m234.496 11.5712h-164.864c-23.04 0-41.728-18.688-41.728-41.728s18.688-41.728 41.728-41.728h164.864c23.04 0 41.728 18.688 41.728 41.728s-18.688 41.728-41.728 41.728z m-206.592-166.2464c0-23.04 18.688-41.728 41.728-41.728h117.3504c23.04 0 41.728 18.688 41.728 41.728s-18.688 41.728-41.728 41.728h-117.3504c-23.0912 0-41.728-18.688-41.728-41.728z m206.592-70.2464h-164.864c-23.04 0-41.728-18.688-41.728-41.728s18.688-41.728 41.728-41.728h164.864c23.04 0 41.728 18.688 41.728 41.728s-18.688 41.728-41.728 41.728z" fill="#BD50D3" ></path><path d="M798.4128 157.8496H225.792c-84.8896 0-153.9072 69.0688-153.9072 153.9072v397.4656c0 84.8896 69.0688 153.9072 153.9072 153.9072h250.1632c109.056-33.9968 205.4656-96.6656 280.4224-179.1488h-101.376c-23.04 0-41.728-18.688-41.728-41.728s18.688-41.728 41.728-41.728H820.3776c63.5904-98.7648 100.5056-216.3712 100.5056-342.5792 0-13.7216-0.512-27.3408-1.3312-40.8576-28.2112-35.9424-71.9872-59.2384-121.1392-59.2384z m-212.992 514.56c0 23.04-18.688 41.728-41.728 41.728H217.7536c-23.04 0-41.728-18.688-41.728-41.728v-71.6288c0-15.2576 8.3456-29.2864 21.7088-36.608l71.8336-39.2192c-8.2944-15.4624-12.8-32.8704-12.8-50.688v-42.3424c0-68.9152 56.064-124.9792 124.9792-124.9792S506.7264 363.008 506.7264 431.9232v42.3424c0 18.2272-4.7104 35.9424-13.2608 51.5584l70.144 38.3488a41.76384 41.76384 0 0 1 21.7088 36.608v71.6288z m186.9312-112.9472h-117.3504c-23.04 0-41.728-18.688-41.728-41.728s18.688-41.728 41.728-41.728h117.3504c23.04 0 41.728 18.688 41.728 41.728s-18.688 41.728-41.728 41.728z m47.5648-111.9744h-164.864c-23.04 0-41.728-18.688-41.728-41.728s18.688-41.728 41.728-41.728h164.864c23.04 0 41.728 18.688 41.728 41.728 0 23.0912-18.688 41.728-41.728 41.728z" fill="#BF5CD6" ></path><path d="M71.8848 665.2928c13.8752 0.9216 27.8016 1.4336 41.8816 1.4336 20.992 0 41.7792-1.0752 62.2592-3.072v-62.8736c0-15.2576 8.3456-29.2864 21.7088-36.608l71.8336-39.2192c-8.2944-15.4624-12.8-32.8704-12.8-50.688v-42.3424c0-68.9152 56.064-124.9792 124.9792-124.9792S506.7264 363.008 506.7264 431.9232v42.3424c0 18.2272-4.7104 35.9424-13.2608 51.5584l11.0592 6.0416c41.5232-32.5632 78.8992-70.2464 111.1552-112.0768a41.984 41.984 0 0 1-2.4576-13.9776c0-22.7328 18.2272-41.216 40.8576-41.6768a629.51424 629.51424 0 0 0 80.9984-206.2336H225.792c-84.8896 0-153.9072 69.0688-153.9072 153.9072v353.4848z" fill="#CA6EE0" ></path><path d="M413.44 493.568a23.69024 23.69024 0 0 0 9.9328-19.3536v-42.3424c0-22.8864-18.6368-41.5744-41.5744-41.5744-22.9376 0-41.5744 18.6368-41.5744 41.5744v42.3424c0 7.5776 3.4816 14.5408 9.5232 19.0976 14.1312 10.7008 21.8112 27.5456 20.48 45.1072a50.8928 50.8928 0 0 1-26.5216 41.0624l-84.2752 45.9776v5.1712h65.2288c35.4816-12.544 69.5296-28.1088 101.7856-46.4384l-7.5776-4.1472a50.8928 50.8928 0 0 1-26.5728-41.8304 50.9952 50.9952 0 0 1 21.1456-44.6464z" fill="#CA6EE0" ></path><path d="M292.2496 344.8832c11.5712-11.9296 25.4976-21.6064 41.0112-28.16a636.63616 636.63616 0 0 0 149.9648-158.8224H225.792c-84.8896 0-153.9072 69.0688-153.9072 153.9072v119.7056c79.7184-14.9504 154.1632-44.8512 220.3648-86.6304z" fill="#D786EA" ></path></svg>