<svg viewBox="0 0 1024 1024" version="1.1" xmlns="http://www.w3.org/2000/svg"><path d="M907.4176 460.3392c39.3728-38.4 17.664-105.3184-36.7616-113.2032l-100.1984-14.5408c-1.1264 2.304-2.4576 4.5568-4.0448 6.7072l-190.3616 253.5936a41.66144 41.66144 0 0 1-18.4832 13.9776l-120.0128 46.3872c-30.7712 11.8784-62.6688-14.6944-56.4224-47.1552l22.528-117.248c1.2288-6.2976 3.84-12.1856 7.68-17.3056l198.7584-264.7552-37.6832-76.3392c-24.32-49.3056-94.6688-49.3056-119.04 0L376.6272 285.9008a66.304 66.304 0 0 1-49.9712 36.3008L155.0848 347.136c-54.4256 7.936-76.1856 74.8032-36.7616 113.2032l124.16 121.0368c15.6672 15.2576 22.784 37.2224 19.0976 58.7264l-29.2864 170.9056c-9.3184 54.2208 47.616 95.5904 96.3072 69.9904l153.4464-80.6912c19.3536-10.1888 42.4448-10.1888 61.7472 0l153.4464 80.6912c48.6912 25.6 105.6256-15.7696 96.3072-69.9904l-29.2864-170.9056c-3.6864-21.5552 3.4304-43.52 19.0976-58.7264l124.0576-121.0368z" fill="#FF8E12" ></path><path d="M540.5696 541.2352L469.4528 488.0896l241.9712-323.584c3.1744-4.2496 9.1648-5.12 13.4144-1.9456l55.7056 41.6768c4.2496 3.1744 5.12 9.1648 1.9456 13.4144l-241.92 323.584z" fill="#FCA315" ></path><path d="M456.5504 507.4944l66.56 51.712-70.3488 37.888c-8.1408 4.4032-17.664-2.9696-15.4112-11.9808l19.2-77.6192z" fill="#FCB138" ></path><path d="M812.6976 338.7392l-42.24-6.144c-1.1264 2.304-2.4576 4.5568-4.0448 6.7072l-190.3616 253.5936a41.66144 41.66144 0 0 1-18.4832 13.9776l-120.0128 46.3872c-30.7712 11.8784-62.6688-14.6944-56.4224-47.1552l22.528-117.248c1.2288-6.2976 3.84-12.1856 7.68-17.3056l198.7584-264.7552-37.6832-76.3392c-24.32-49.3056-94.6688-49.3056-119.04 0L376.6272 285.9008a66.304 66.304 0 0 1-49.9712 36.3008L155.0848 347.136c-54.4256 7.936-76.1856 74.8032-36.7616 113.2032l124.16 121.0368c15.6672 15.2576 22.784 37.2224 19.0976 58.7264l-29.2864 170.9056c-9.3184 54.2208 47.616 95.5904 96.3072 69.9904l153.4464-80.6912c19.3536-10.1888 42.4448-10.1888 61.7472 0l30.8736 16.2304c144.1792-90.9312 240.0256-251.4944 240.0256-434.5344-0.0512-14.592-0.8192-28.9792-1.9968-43.264z" fill="#FCA315" ></path><path d="M250.368 705.1776c54.6304-9.6256 106.24-28.0064 153.4464-53.4528-15.9232-7.936-26.5216-25.6512-22.6816-45.6192l22.528-117.248c1.2288-6.2976 3.84-12.1856 7.68-17.3056l198.7584-264.7552-37.6832-76.3392c-24.32-49.3056-94.6688-49.3056-119.04 0L376.6272 285.9008a66.304 66.304 0 0 1-49.9712 36.3008L155.0848 347.136c-54.4256 7.936-76.1856 74.8032-36.7616 113.2032l124.16 121.0368c15.6672 15.2576 22.784 37.2224 19.0976 58.7264l-11.2128 65.0752z" fill="#FCB138" ></path><path d="M469.4528 488.0896l71.1168 53.1456 69.0688-92.3648c38.7584-69.6832 61.696-149.248 64.1536-234.0352L469.4528 488.0896z" fill="#FCB138" ></path><path d="M538.6752 98.56c-30.3104-12.5952-68.608-1.9456-85.2992 31.8464L376.6272 285.9008a66.304 66.304 0 0 1-49.9712 36.3008L155.0848 347.136c-54.4256 7.936-76.1856 74.8032-36.7616 113.2032L171.264 512c190.464-53.76 336.0256-214.5792 367.4112-413.44z" fill="#FFC65E" ></path></svg>