<svg viewBox="0 0 1024 1024" version="1.1" xmlns="http://www.w3.org/2000/svg"><path d="M814.6432 249.344h-66.1504l37.1712-56.2688c8.3456-12.6464 4.864-29.696-7.7824-38.0416l-40.96-27.0336a27.47392 27.47392 0 0 0-38.0416 7.7824L623.872 249.344H407.8592L319.8464 129.2288a27.48416 27.48416 0 0 0-38.4-5.9392l-39.5776 28.9792a27.48416 27.48416 0 0 0-5.9392 38.4l42.9568 58.6752H204.4416c-66.56 0-120.576 53.9648-120.576 120.576v405.1456c0 66.56 53.9648 120.576 120.576 120.576h610.2016c66.56 0 120.576-53.9648 120.576-120.576V369.8688c0-66.56-53.9648-120.5248-120.576-120.5248z m-149.2992 354.7136l-223.5392 129.0752c-19.0464 11.008-42.8032-2.7648-42.8032-24.7296V450.2528c0-21.9648 23.808-35.6864 42.8032-24.7296l223.5392 129.0752c18.9952 11.008 18.9952 38.5024 0 49.4592z" fill="#2595E8" ></path><path d="M935.2192 369.8688c0-66.56-53.9648-120.576-120.576-120.576h-66.1504l37.1712-56.2688c8.3456-12.6464 4.864-29.696-7.7824-38.0416l-40.96-27.0336a27.47392 27.47392 0 0 0-38.0416 7.7824L623.872 249.344H407.8592L319.8464 129.2288c-8.96-12.2368-26.1632-14.8992-38.3488-5.9392l-39.5776 28.9792a27.48416 27.48416 0 0 0-5.9392 38.4l42.9568 58.6752H204.4416c-66.56 0-120.576 53.9648-120.576 120.576v405.1456c0 66.56 53.9648 120.576 120.576 120.576h382.5664c193.3824-101.5296 329.6768-297.0112 348.2112-525.7728z m-269.8752 234.1888l-223.5392 129.0752c-19.0464 11.008-42.8032-2.7648-42.8032-24.7296V450.2528c0-21.9648 23.808-35.6864 42.8032-24.7296l223.5392 129.0752c18.9952 11.008 18.9952 38.5024 0 49.4592z" fill="#3A9CED" ></path><path d="M83.9168 737.6384c6.8608 0.2048 13.7728 0.3584 20.6848 0.3584 105.8816 0 205.8752-25.1904 294.3488-69.888V450.2528c0-21.9648 23.808-35.6864 42.8032-24.7296l154.7264 89.344c89.2416-101.7856 147.3536-231.4752 159.5904-374.3232l-19.0976-12.5952a27.47392 27.47392 0 0 0-38.0416 7.7824L623.872 249.344H407.8592L319.8464 129.2288c-8.96-12.2368-26.1632-14.8992-38.3488-5.9392l-39.5776 28.9792a27.48416 27.48416 0 0 0-5.9392 38.4l42.9568 58.6752H204.4416c-66.56 0-120.576 53.9648-120.576 120.576v367.7184z" fill="#59ADF8" ></path><path d="M459.9808 249.344H407.8592L319.8464 129.2288c-8.96-12.2368-26.1632-14.8992-38.3488-5.9392l-39.5776 28.9792a27.48416 27.48416 0 0 0-5.9392 38.4l42.9568 58.6752H204.4416c-66.56 0-120.576 53.9648-120.576 120.576v120.7808c152.32-34.2016 284.4672-121.4464 376.1152-241.3568z" fill="#6BC2FC" ></path></svg>