<svg viewBox="0 0 1024 1024" version="1.1" xmlns="http://www.w3.org/2000/svg"><path d="M764.2112 114.3296H270.5408c-59.9552 0-108.544 48.5888-108.544 108.544v618.0864c0 54.9888 60.1088 88.9344 107.2128 60.5184l236.9024-143.0016c4.4032-2.6624 9.9328-2.7136 14.3872-0.0512l245.6576 144.896c47.104 27.8016 106.5984-6.1952 106.5984-60.8768v-619.52c0-60.0064-48.5888-108.5952-108.544-108.5952zM640.256 494.08H560.64v79.616c0 23.9104-19.3536 43.264-43.264 43.264s-43.264-19.3536-43.264-43.264V494.08H394.5472c-23.9104 0-43.264-19.3536-43.264-43.264s19.3536-43.264 43.264-43.264H474.112V327.9872c0-23.9104 19.3536-43.264 43.264-43.264s43.264 19.3536 43.264 43.264V407.552h79.616c23.9104 0 43.264 19.3536 43.264 43.264s-19.4048 43.264-43.264 43.264z" fill="#FF8E12" ></path><path d="M872.7552 222.8736c0-59.9552-48.5888-108.544-108.544-108.544H270.5408c-59.9552 0-108.544 48.5888-108.544 108.544v608.1536c51.3536 13.6704 105.3184 20.992 160.9728 20.992 9.7792 0 19.5072-0.256 29.184-0.7168l153.9072-92.928c4.4032-2.6624 9.9328-2.7136 14.3872-0.0512l62.6688 36.9664c123.5968-56.7808 225.4336-152.7808 289.5872-272.0768V222.8736zM640.256 494.08H560.64v79.616c0 23.9104-19.3536 43.264-43.264 43.264s-43.264-19.3536-43.264-43.264V494.08H394.5472c-23.9104 0-43.264-19.3536-43.264-43.264s19.3536-43.264 43.264-43.264H474.112V327.9872c0-23.9104 19.3536-43.264 43.264-43.264s43.264 19.3536 43.264 43.264V407.552h79.5648c23.9104 0 43.264 19.3536 43.264 43.264s-19.3536 43.264-43.2128 43.264z" fill="#FCA315" ></path><path d="M764.2112 114.3296H270.5408c-59.9552 0-108.544 48.5888-108.544 108.544v407.5008c114.0736-1.7408 220.7232-34.048 312.1152-89.1904v-47.104H394.5472c-23.9104 0-43.264-19.3536-43.264-43.264s19.3536-43.264 43.264-43.264H474.112V327.9872c0-23.9104 19.3536-43.264 43.264-43.264s43.264 19.3536 43.264 43.264V407.552h69.632c69.12-82.3296 117.3504-182.6816 136.5504-293.0688-0.8192 0-1.6896-0.1536-2.6112-0.1536z" fill="#FCB138" ></path><path d="M525.8752 114.3296H270.5408c-59.9552 0-108.544 48.5888-108.544 108.544v164.352c152.8832-42.24 282.2144-141.2096 363.8784-272.896z" fill="#FFC65E" ></path></svg>