<svg viewBox="0 0 1024 1024" version="1.1" xmlns="http://www.w3.org/2000/svg"><path d="M763.8528 101.2736H253.0304C193.28 101.2736 144.896 148.48 144.896 206.6944V730.624c0 32.9728 27.4432 59.7504 61.2352 59.7504h604.5696c33.8432 0 61.2352-26.7264 61.2352-59.7504V206.6944c0-58.2144-48.384-105.4208-108.0832-105.4208zM274.4832 685.1072c-32.6144 0-59.0848-25.8048-59.0848-57.6 0-31.8464 26.4704-57.6 59.0848-57.6 32.6144 0 59.0848 25.8048 59.0848 57.6 0 31.8464-26.4704 57.6-59.0848 57.6z m465.7664 0c-32.6144 0-59.0848-25.8048-59.0848-57.6 0-31.8464 26.4704-57.6 59.0848-57.6 32.6144 0 59.0848 25.8048 59.0848 57.6 0 31.8464-26.4192 57.6-59.0848 57.6z m66.304-273.664c0 18.9952-15.7696 34.3552-35.2256 34.3552H249.4464c-19.456 0-35.2256-15.4112-35.2256-34.3552V283.3408c0-38.6048 32.1024-69.888 71.68-69.888h448.9728c39.5776 0 71.68 31.2832 71.68 69.888v128.1024zM756.5312 907.52H260.352c-13.4144 0-24.2688-10.8544-24.2688-24.2688v-20.5824c0-13.4144 10.8544-24.2688 24.2688-24.2688h496.1792c13.4144 0 24.2688 10.8544 24.2688 24.2688v20.5824c0 13.4144-10.9056 24.2688-24.2688 24.2688z" fill="#05C46D" ></path><path d="M871.936 206.6944c0-58.2144-48.384-105.4208-108.1344-105.4208H253.0304C193.28 101.2736 144.896 148.48 144.896 206.6944V730.624c0 32.9728 27.4432 59.7504 61.2352 59.7504h376.7808c49.664-30.3104 94.7712-67.3792 133.9904-109.9264-20.992-8.8576-35.6864-29.184-35.6864-52.8896 0-31.8464 26.4704-57.6 59.0848-57.6 18.2784 0 34.6112 8.0896 45.4656 20.8384 41.984-66.4064 71.7824-141.2608 86.2208-221.4912V206.6944zM274.4832 685.1072c-32.6144 0-59.0848-25.8048-59.0848-57.6 0-31.8464 26.4704-57.6 59.0848-57.6 32.6144 0 59.0848 25.8048 59.0848 57.6 0 31.8464-26.4704 57.6-59.0848 57.6z m532.1216-273.664c0 18.9952-15.7696 34.3552-35.2256 34.3552H249.4464c-19.456 0-35.2768-15.4112-35.2768-34.3552V283.3408c0-38.6048 32.1024-69.888 71.68-69.888h449.024c39.5776 0 71.68 31.2832 71.68 69.888v128.1024zM486.2464 838.4h-215.552c-19.0976 0-34.56 15.4624-34.56 34.56 0 2.7136 0.3584 5.2736 0.9728 7.7824 7.2704 0.256 14.5408 0.4096 21.8624 0.4096 80.1792 0.0512 156.8256-15.1552 227.2768-42.752z" fill="#1DCE75" ></path><path d="M218.6752 646.2976c-2.0992-5.888-3.2768-12.1856-3.2768-18.7904 0-31.8464 26.4704-57.6 59.0848-57.6 26.7264 0 49.3056 17.3056 56.576 41.0624 88.0128-37.2224 165.632-94.1056 227.4816-165.1712H249.4464c-19.456 0-35.2768-15.4112-35.2768-34.3552V283.3408c0-38.6048 32.1024-69.888 71.68-69.888h400.1792c10.6496-36.1472 18.1248-73.6256 22.1184-112.1792H253.0304C193.28 101.2736 144.896 148.48 144.896 206.6944v450.6624c25.0368-2.2016 49.664-5.9392 73.7792-11.0592z" fill="#3CD38E" ></path><path d="M214.2208 371.968V283.3408c0-38.6048 32.1024-69.888 71.68-69.888h126.1056c28.5184-34.4576 53.4016-72.0384 74.0352-112.1792H253.0304C193.28 101.2736 144.896 148.48 144.896 206.6944v195.3792c23.808-8.6528 46.9504-18.688 69.3248-30.1056z" fill="#48E1AA" ></path></svg>