<svg viewBox="0 0 1024 1024" version="1.1" xmlns="http://www.w3.org/2000/svg"><path d="M264.1408 377.6c11.2128-10.3936 19.5584-17.6128 27.3408-25.3952 69.9904-69.8368 139.9808-139.7248 209.664-209.92 6.8096-6.8608 13.5168-9.984 23.1424-9.472 13.2096 0.768 26.4704 0.2048 42.3424 0.2048-3.3792 4.4032-5.376 7.3728-7.7312 10.0352-76.1856 86.272-82.688 199.5264-16.4352 293.376 6.8096 9.6768 14.9504 18.5856 23.3472 26.9824 47.0528 47.2576 94.3104 94.2592 141.568 141.2608 17.7664 17.664 26.8288 17.6128 44.4416 0.0512 44.4416-44.2368 88.832-88.5248 133.2224-132.7104 3.2768-3.2768 6.8096-6.2464 12.4416-11.4688V476.16c0 106.8544 0.0512 213.6576 0 320.512 0 60.16-34.1504 93.5424-94.5664 94.5152-15.9232 0.256-26.6752-4.6592-37.8368-15.8208-161.9968-162.6624-324.4032-324.9152-486.8096-487.168-3.4304-3.3792-7.7312-5.8368-14.1312-10.5984zM220.2624 423.4752c156.3136 155.7504 311.3472 310.2208 467.968 466.3296-5.0176 0.4096-8.5504 0.9728-12.1344 0.9728-149.1968 0.0512-298.3936 0.1536-447.5904-0.0512-53.248-0.1024-88.6272-35.7888-88.7808-89.1904-0.256-95.7952-0.1024-191.5904 0.1024-287.3344 0-4.5056 0.7168-10.4448 3.4816-13.312 25.4976-26.2144 51.5584-51.968 76.9536-77.4144z" fill="#F23D4F" ></path><path d="M897.3824 310.2208c-0.6144 48.384-16.9472 90.4704-50.3296 125.7984-33.6384 35.584-67.1232 71.3728-100.8128 106.9568-13.824 14.592-19.8144 14.3872-33.4848-0.1024-32.768-34.6112-65.4848-69.3248-98.4064-103.7824-73.216-76.6464-70.6048-191.3344 6.1952-264.192 57.7536-54.784 157.9008-55.1936 216.5248-0.9216 39.7312 36.864 60.416 83.5072 60.3136 136.2432zM729.9072 217.088c-47.0528-0.3584-84.1728 35.8912-84.8896 82.8416-0.6656 47.5136 36.1984 85.2992 83.6096 85.5552 47.0016 0.3072 84.1216-36.0448 84.736-82.9952 0.7168-47.8208-35.7376-85.0432-83.456-85.4016z" fill="#FC4956" ></path><path d="M415.3856 133.0176L140.1856 408.2176c-0.1536-2.9696-0.4608-7.168-0.4608-11.3664-0.0512-57.344-0.1024-114.6368 0-171.9808 0.1024-56.7296 34.9184-91.648 91.4432-91.7504 57.7536-0.1024 115.5584-0.0512 173.312-0.0512 3.84-0.0512 7.6288-0.0512 10.9056-0.0512z" fill="#FF716E" ></path><path d="M613.12 814.9504L220.2624 423.4752c-25.3952 25.4464-51.456 51.2-76.9024 77.4144-2.816 2.8672-3.4816 8.8064-3.4816 13.312-0.2048 95.7952-0.3072 191.5904-0.0512 287.3344 0.1536 53.4016 35.5328 89.088 88.7808 89.1904 63.9488 0.1024 127.9488 0.1024 191.8976 0.1024 68.9152-14.8992 133.7856-40.8064 192.6144-75.8784zM885.0432 472.0128c-44.4416 44.2368-88.832 88.4736-133.2224 132.7104-17.6128 17.5104-26.6752 17.6128-44.4416-0.0512-47.2576-47.0016-94.5152-94.0032-141.568-141.2608-8.3968-8.3968-16.4864-17.3056-23.3472-26.9824-66.2528-93.8496-59.7504-207.104 16.4352-293.376 2.3552-2.6624 4.3008-5.5808 7.68-10.0352-15.872 0-29.1328 0.5632-42.3424-0.2048-9.6256-0.5632-16.3328 2.6112-23.1424 9.472-69.6832 70.1952-139.6736 140.032-209.664 209.92-7.7824 7.7824-16.128 15.0016-27.3408 25.3952 6.3488 4.7104 10.7008 7.2192 14.1312 10.5984 130.048 129.9456 260.0448 259.8912 389.888 390.0416 105.5232-78.592 186.112-188.672 227.9424-316.3648-4.8128 4.352-8.0384 7.168-11.008 10.1376z" fill="#FC4956" ></path><path d="M220.2624 423.4752c-25.3952 25.4464-51.456 51.2-76.9024 77.4144-2.816 2.8672-3.4816 8.8064-3.4816 13.312-0.1024 53.8624-0.1536 107.776-0.2048 161.6384 94.464-4.608 183.552-29.5936 263.0144-70.656-60.7744-60.4672-121.4976-120.9856-182.4256-181.7088zM576.512 474.112c-3.584-3.584-7.168-7.1168-10.7008-10.7008-8.3968-8.3968-16.4864-17.3056-23.3472-26.9824-66.2528-93.8496-59.7504-207.104 16.4352-293.376 2.3552-2.6624 4.3008-5.5808 7.68-10.0352-15.872 0-29.1328 0.5632-42.3424-0.2048-9.6256-0.5632-16.3328 2.6112-23.1424 9.472-69.6832 70.1952-139.6736 140.032-209.664 209.92-7.7824 7.7824-16.128 15.0016-27.3408 25.3952 6.3488 4.7104 10.7008 7.2192 14.1312 10.5984 60.9792 60.928 121.9584 121.856 182.8864 182.784 42.1888-27.7504 80.896-60.2624 115.4048-96.8704z" fill="#FF5C64" ></path><path d="M610.5088 434.944c19.968-24.9344 38.0928-51.3536 54.272-79.0528-12.5952-14.9504-20.0192-34.4064-19.712-55.9104 0.6656-45.2096 35.1232-80.4352 79.7184-82.6368 8.0896-26.9824 14.4384-54.7328 18.944-83.0976-44.4928-3.7376-90.5728 9.8304-123.1872 40.7552-75.4176 71.4752-79.2576 183.3472-10.0352 259.9424z" fill="#FF5C64" ></path><path d="M303.6672 340.0192a647.2192 647.2192 0 0 0 177.7152-177.8688 58207.488 58207.488 0 0 1-177.7152 177.8688z" fill="#FF716E" ></path></svg>