<svg viewBox="0 0 1024 1024" version="1.1" xmlns="http://www.w3.org/2000/svg"><path d="M953.6512 320.768c0-99.2768-80.4864-179.7632-179.7632-179.7632-71.424 0-133.0688 41.6256-162.0992 101.9392a359.38816 359.38816 0 0 0-200.448-0.768c-29.184-59.8528-90.624-101.12-161.6896-101.12-99.2768 0-179.7632 80.4864-179.7632 179.7632 0 69.4784 39.424 129.6896 97.0752 159.5904a360.0384 360.0384 0 0 0-16.3328 107.4688c0 198.6048 160.9728 359.5776 359.5776 359.5776s359.5776-160.9728 359.5776-359.5776c0-36.9152-5.5808-72.4992-15.9232-106.0352 59.136-29.4912 99.7888-90.5216 99.7888-161.0752z m-245.248 352.2048c-22.1184 73.1136-102.8096 124.2112-196.3008 124.2112-95.6928 0-176.8448-52.5824-197.376-127.8976-6.9632-25.4976 8.0896-51.8144 33.5872-58.7264 25.4976-6.9632 51.8144 8.0896 58.7264 33.5872 7.5776 27.8016 46.9504 57.344 105.0112 57.344 56.9856 0 96.4608-28.928 104.704-56.1664 7.6288-25.2928 34.3552-39.6288 59.648-31.9488 25.344 7.5776 39.6288 34.304 32 59.5968z" fill="#FC7032" ></path><path d="M891.8016 275.0464c0-32.6144-2.4576-64.6144-7.2192-95.8976a178.816 178.816 0 0 0-110.6944-38.1952c-71.424 0-133.0688 41.6256-162.0992 101.9392a359.38816 359.38816 0 0 0-200.448-0.768c-29.184-59.8528-90.624-101.12-161.6896-101.12-99.2768 0-179.7632 80.4864-179.7632 179.7632 0 69.4784 39.424 129.6896 97.0752 159.5904a360.0384 360.0384 0 0 0-16.3328 107.4688c0 136.448 76.032 255.1296 188.0064 316.0576 240.0768-30.5152 438.1696-195.2768 516.7616-416.6656l-1.536-5.4272c1.4336-0.7168 2.8672-1.536 4.3008-2.304 21.76-64.1536 33.6384-132.9152 33.6384-204.4416z m-183.3984 397.9264c-22.1184 73.1136-102.8096 124.2112-196.3008 124.2112-95.6928 0-176.8448-52.5824-197.376-127.8976-6.9632-25.4976 8.0896-51.8144 33.5872-58.7264 25.4976-6.9632 51.8144 8.0896 58.7264 33.5872 7.5776 27.8016 46.9504 57.344 105.0112 57.344 56.9856 0 96.4608-28.928 104.704-56.1664 7.6288-25.2928 34.3552-39.6288 59.648-31.9488 25.344 7.5776 39.6288 34.304 32 59.5968z" fill="#FF7E3E" ></path><path d="M611.7888 242.8928a359.38816 359.38816 0 0 0-200.448-0.768c-29.184-59.8528-90.624-101.12-161.6896-101.12-99.2768 0-179.7632 80.4864-179.7632 179.7632 0 69.4784 39.424 129.6896 97.0752 159.5904a360.0384 360.0384 0 0 0-16.3328 107.4688c0 31.5392 4.096 62.1056 11.7248 91.2896 53.6064-6.5536 105.1136-19.8144 153.7536-38.8608 5.1712-14.0288 16.7936-25.4464 32.3072-29.6448 10.1376-2.7648 20.3776-1.9968 29.4912 1.4336 173.4144-90.6752 299.6224-259.2768 332.2368-459.3664a179.88096 179.88096 0 0 0-98.3552 90.2144z" fill="#FF9552" ></path><path d="M408.1152 236.032c-30.3104-56.5248-89.856-95.0272-158.464-95.0272-99.2768 0-179.7632 80.4864-179.7632 179.7632 0 42.24 14.6432 80.9984 39.0144 111.6672C226.816 396.6976 330.24 327.5776 408.1152 236.032z" fill="#FFA56A" ></path></svg>