<svg viewBox="0 0 1024 1024" version="1.1" xmlns="http://www.w3.org/2000/svg"><path d="M508.8256 85.7088c-236.032 0-427.3664 191.3344-427.3664 427.3664s191.3344 427.3664 427.3664 427.3664 427.3664-191.3344 427.3664-427.3664c0-235.9808-191.3344-427.3664-427.3664-427.3664z m218.0608 572.0064h-284.672l43.3664 71.8336-79.5648 47.9744-112.7936-186.9312c-6.8608-11.3664 1.3312-25.8048 14.592-25.8048h419.072v92.928z m-17.0496-184.832H290.7648V379.9552h284.672l-43.3664-71.8336 79.5648-47.9744 112.7936 186.9312c6.8096 11.3152-1.3312 25.8048-14.592 25.8048z" fill="#FF3369" ></path><path d="M823.808 345.856c0-47.7696-5.7856-94.1568-16.5888-138.5472-77.0048-75.1616-182.272-121.5488-298.3936-121.5488-236.032 0-427.3664 191.3344-427.3664 427.3664 0 186.2656 119.1936 344.576 285.3888 403.1488 261.4272-58.1632 456.96-291.4816 456.96-570.4192zM290.7648 379.9552h284.672l-43.3664-71.8336 79.5648-47.9744 112.7936 186.9312c6.8608 11.3664-1.3312 25.8048-14.592 25.8048H290.7648V379.9552z m17.0496 184.832h419.072v92.928h-284.672l43.3664 71.8336-79.5648 47.9744-112.7936-186.9312c-6.8608-11.3152 1.3312-25.8048 14.592-25.8048z" fill="#FF4D7C" ></path><path d="M81.4592 513.1264c0 75.1104 19.4048 145.6128 53.4528 206.9504 71.936-6.7584 140.0832-26.5216 202.0352-56.9856l-43.7248-72.448c-6.8608-11.3664 1.3312-25.8048 14.592-25.8048h171.2128c29.6448-27.7504 56.3712-58.5728 79.7184-91.904H290.7648V379.9552h284.672l-43.3664-71.8336 79.5648-47.9744 27.8016 46.08c15.9232-53.1968 24.5248-109.5168 24.5248-167.8848 0-7.936-0.2048-15.7696-0.512-23.6544a425.87648 425.87648 0 0 0-154.624-28.9792c-236.032 0-427.3664 191.3856-427.3664 427.4176z" fill="#FF5F89" ></path><path d="M81.8688 496.5888c77.0048-20.2752 147.7632-55.9104 208.896-103.3728v-13.312h16.4864c90.112-75.3664 157.1328-177.3568 189.0304-293.888-224.7168 6.5536-405.9136 186.368-414.4128 410.5728z" fill="#FF7196" ></path></svg>