<svg viewBox="0 0 1024 1024" version="1.1" xmlns="http://www.w3.org/2000/svg"><path d="M658.5856 777.728c-42.6496 19.712-87.1424 30.208-134.4512 28.8768-19.0464-1.3312-38.6048-0.512-57.1392-4.352-131.7376-27.4432-209.7152-109.9776-239.872-239.0528-25.3952-108.5952 26.1632-234.3936 121.9584-302.1312 112.8448-79.7696 266.1888-72.2944 370.432 18.1248 21.1456 18.3296 20.736 26.4704-3.84 41.216-34.5088 20.6848-69.5808 40.5504-104.3456 60.928-50.1248 29.3888-100.4032 58.4704-150.0672 88.576-44.7488 27.1872-47.8208 77.2096-6.7072 109.4656 27.4432 21.5552 56.064 14.08 83.2512-1.5872 120.7296-69.4784 241.3056-139.1616 361.8304-208.9984 25.1392-14.5408 28.0064-26.112 15.3088-52.224-38.0416-78.336-95.2832-138.3424-170.752-181.8624-83.1488-47.9744-171.3664-71.1168-267.5712-59.3408-67.328 8.2432-128.6144 32.9216-186.7264 67.1744C93.5936 258.2016 46.5408 505.088 120.1152 670.5664c70.912 159.3856 194.0992 255.6928 372.736 270.2336 104.0384 8.448 198.656-18.9952 283.0848-80.7936 10.9568-7.9872 16.3328-17.3568 9.5744-30.4128-38.144-73.8816-61.3376-82.176-126.9248-51.8656z" fill="#2595E8" ></path><path d="M909.4656 525.312c-2.2016-3.5328-13.7728-5.1712-18.3808-2.7648-29.2352 15.3088-58.1632 31.2832-86.016 48.896-5.1712 3.2256-9.2672 16.9984-6.6048 22.272 14.848 29.3888 31.3856 58.0096 48.7424 86.0672 3.072 4.9664 15.36 10.1376 19.0464 7.936 23.6544-14.1824 47.0016-29.2864 68.5056-46.5408 7.0656-5.632 8.3968-18.432 10.3936-23.2448-1.792-38.8096-19.1488-65.7408-35.6864-92.6208z" fill="#2595E8" ></path><path d="M744.2432 134.7072c-83.1488-47.9744-171.3664-71.1168-267.52-59.3408-67.328 8.2432-128.6144 32.9216-186.7264 67.1744C93.5936 258.2016 46.5408 505.088 120.1152 670.5664c48.5888 109.2608 121.8048 188.8768 220.5696 232.8064 99.9424-13.0048 192.0512-51.0976 269.7216-107.6736-27.8016 7.8848-56.4736 11.7248-86.272 10.9056-19.0464-1.3312-38.6048-0.512-57.1392-4.352-131.7376-27.4432-209.7152-109.9776-239.872-239.0528-25.3952-108.5952 26.1632-234.3936 121.9584-302.1312 112.8448-79.7696 266.1888-72.2944 370.432 18.1248 21.1456 18.3296 20.736 26.4704-3.84 41.216-34.5088 20.6848-69.5808 40.5504-104.3456 60.928-50.1248 29.3888-100.4032 58.4704-150.0672 88.576-44.7488 27.1872-47.8208 77.2096-6.7072 109.4656 27.4432 21.5552 56.064 14.08 83.2512-1.5872 103.3216-59.4944 206.592-119.1936 309.76-178.944a591.83104 591.83104 0 0 0-4.4032-186.7264c-28.3648-30.0032-61.3888-55.7568-98.9184-77.4144z" fill="#3A9CED" ></path><path d="M227.1232 563.2c-25.3952-108.5952 26.1632-234.3936 121.9584-302.1312 97.8944-69.2224 226.2528-72.704 326.6048-13.4144 10.5472-44.1344 16.1792-90.1632 16.1792-137.5232v-1.9456c-67.6864-29.5424-138.8544-42.1888-215.1424-32.8704-67.328 8.2432-128.6144 32.9216-186.7264 67.1744-196.4032 115.712-243.456 362.5984-169.8816 528.0768 4.2496 9.5232 8.6528 18.7904 13.2608 27.8016 48.0768-2.4576 94.5664-10.7008 138.9056-24.0128-20.224-31.8976-35.2768-68.9664-45.1584-111.1552z" fill="#59ADF8" ></path><path d="M611.3792 381.3376c-50.1248 29.3888-100.4032 58.4704-150.0672 88.576-44.7488 27.1872-47.8208 77.2096-6.7072 109.4656 0.7168 0.5632 1.4848 1.0752 2.2016 1.5872a591.40096 591.40096 0 0 0 175.0528-211.5584c-6.8608 3.9936-13.6704 7.936-20.48 11.9296z" fill="#59ADF8" ></path><path d="M234.2912 420.2496c19.712-62.6688 60.0064-120.4224 114.7904-159.1808a299.14624 299.14624 0 0 1 105.1648-47.2064c27.3408-43.6224 49.1008-91.0848 64.3072-141.3632-13.7728 0.256-27.6992 1.1264-41.8304 2.8672-67.328 8.2432-128.6144 32.9216-186.7264 67.1744-127.488 75.0592-192 205.4144-201.472 332.9024 51.5072-11.9296 100.4544-30.6688 145.7664-55.1936z" fill="#6BC2FC" ></path></svg>