<svg viewBox="0 0 1024 1024" version="1.1" xmlns="http://www.w3.org/2000/svg"><path d="M267.776 690.2272m-92.5696 0a92.5696 92.5696 0 1 0 185.1392 0 92.5696 92.5696 0 1 0-185.1392 0Z" fill="#FF7E3E" ></path><path d="M867.84 410.1632c-16.6912-97.6896-100.0448-218.6752-318.5664-218.6752S227.8912 395.8784 227.8912 395.8784c-64.256 5.12-196.6592 80.3328-196.6592 179.1488 0 94.3104 49.3056 116.48 90.112 119.8592-0.0512-1.536-0.1024-3.072-0.1024-4.6592 0-80.9472 65.5872-146.5344 146.5344-146.5344S414.3104 609.28 414.3104 690.2272c0 1.7408-0.0512 3.4304-0.1536 5.12h205.4656c-0.0512-1.6896-0.1536-3.4304-0.1536-5.12 0-80.9472 65.5872-146.5344 146.5344-146.5344s146.5344 65.5872 146.5344 146.5344c0 1.7408-0.0512 3.4304-0.1536 5.12h21.1456c42.4448 0 62.976-17.9712 62.976-68.1472 0.1024-50.0736-6.5536-147.6096-128.6656-217.0368z m-348.4672 22.1696H299.1104s62.6688-156.672 220.3136-179.8144v179.8144z m69.4272 0V249.6512s175.7696 10.5984 216.9344 182.6816H588.8z" fill="#FC7032" ></path><path d="M766.0544 690.2272m-92.5696 0a92.5696 92.5696 0 1 0 185.1392 0 92.5696 92.5696 0 1 0-185.1392 0Z" fill="#FC7032" ></path><path d="M867.84 410.1632c-16.6912-97.6896-100.0448-218.6752-318.5664-218.6752S227.9424 395.8784 227.9424 395.8784c-64.256 5.12-196.6592 80.3328-196.6592 179.1488 0 94.3104 49.3056 116.48 90.112 119.8592-0.0512-1.536-0.1024-3.072-0.1024-4.6592 0-80.9472 65.5872-146.5344 146.5344-146.5344S414.3616 609.28 414.3616 690.2272c0 1.7408-0.0512 3.4304-0.1536 5.12h205.4656c-0.0512-1.6896-0.1536-3.4304-0.1536-5.12 0-80.9472 65.5872-146.5344 146.5344-146.5344 43.3664 0 82.3296 18.8416 109.1584 48.7936a529.8176 529.8176 0 0 0 52.1728-138.5472c-15.9232-15.3088-35.4304-30.1056-59.5456-43.776z m-348.4672 22.1696H299.1104s62.6688-156.672 220.3136-179.8144v179.8144z m69.4272 0V249.6512s175.7696 10.5984 216.9344 182.6816H588.8z" fill="#FF7E3E" ></path><path d="M844.6976 641.536c-16.3328-26.3168-45.3632-43.8784-78.592-43.8784-51.0976 0-92.5696 41.4208-92.5696 92.5696 0 33.6896 18.0736 63.0784 44.9536 79.2576 48.9472-35.1744 91.648-78.4896 126.208-127.9488z" fill="#FF7E3E" ></path><path d="M588.8 432.3328V249.6512s104.2944 6.4 171.0592 88.0128a535.552 535.552 0 0 0 22.4256-75.0592c-50.2272-41.5744-125.1328-71.1168-232.96-71.1168-218.5216 0-321.3824 204.3904-321.3824 204.3904-64.256 5.12-196.6592 80.3328-196.6592 179.1488 0 22.784 2.8672 41.2672 7.8336 56.3712 27.136 12.544 55.5008 22.8864 84.8896 30.7712 13.1072-67.5328 72.4992-118.528 143.8208-118.528 70.2976 0 129.024 49.5104 143.2064 115.5584 126.0032-36.608 232.704-118.4768 301.3632-226.9184-64.0512 0.0512-123.5968 0.0512-123.5968 0.0512z m-69.4272 0H299.1104s62.6688-156.672 220.3136-179.8144v179.8144z" fill="#FF9552" ></path><path d="M176.7936 673.536c27.8528 4.5056 56.3712 6.912 85.4528 6.912 32.8704 0 64.9728-3.1232 96.2048-8.8576-8.6016-42.1888-45.9264-73.9328-90.6752-73.9328-45.4144 0-83.0976 32.768-90.9824 75.8784z" fill="#FF9552" ></path><path d="M299.1104 432.3328s62.6688-156.672 220.3136-179.8144v68.2496c34.6624-37.5296 64-80.0256 86.8352-126.3104-17.8688-1.9456-36.8128-2.9696-56.9344-2.9696-218.5216 0-321.3824 204.3904-321.3824 204.3904-43.52 3.4816-118.2208 39.1168-161.9456 92.3648 20.48 2.4064 41.216 3.7376 62.3104 3.7376 88.32 0 171.52-21.6064 244.8384-59.648H299.1104z" fill="#FFA56A" ></path></svg>