<svg viewBox="0 0 1024 1024" version="1.1" xmlns="http://www.w3.org/2000/svg"><path d="M882.3808 800.7168v-339.456c0-42.2912-34.304-76.5952-76.5952-76.5952h-91.136v416.0512H635.392V215.6032c0-42.2912-34.304-76.5952-76.5952-76.5952h-346.112c-42.2912 0-76.5952 34.304-76.5952 76.5952v585.1136h-37.4272c-22.3744 0-40.4992 18.1248-40.4992 40.4992s18.1248 40.4992 40.4992 40.4992h821.5552c22.3744 0 40.4992-18.1248 40.4992-40.4992s-18.1248-40.4992-40.4992-40.4992h-37.8368z m-414.7712-246.528H305.6128V473.1904h161.9968v80.9984z m0-167.3216H305.6128V305.8688h161.9968v80.9984z" fill="#BD50D3" ></path><path d="M714.5984 774.5024c74.4448-69.888 132.4544-157.0816 167.7312-255.0784V461.312c0-42.2912-34.304-76.5952-76.5952-76.5952h-91.136v389.7856zM685.0048 800.7168h-49.6128V215.6032c0-42.2912-34.304-76.5952-76.5952-76.5952h-346.112c-42.2912 0-76.5952 34.304-76.5952 76.5952v585.1136h-37.4272c-22.3744 0-40.4992 18.1248-40.4992 40.4992s18.1248 40.4992 40.4992 40.4992h462.8992c44.288-22.3232 85.6576-49.5616 123.4432-80.9984z m-217.3952-246.528H305.6128V473.1904h161.9968v80.9984z m0-167.3216H305.6128V305.8688h161.9968v80.9984z" fill="#BF5CD6" ></path><path d="M635.392 423.9872v-208.384c0-42.2912-34.304-76.5952-76.5952-76.5952h-346.112c-42.2912 0-76.5952 34.304-76.5952 76.5952v502.2208c208.9472-15.0016 390.7072-128.256 499.3024-293.8368zM305.6128 305.8688h161.9968v80.9984H305.6128V305.8688z m0 167.3216h161.9968v80.9984H305.6128V473.1904z" fill="#CA6EE0" ></path><path d="M305.6128 365.5168V305.8688h71.5264c50.2272-48.3328 92.7744-104.6528 125.5424-166.8608H212.6848c-42.2912 0-76.5952 34.304-76.5952 76.5952v237.568c61.1328-20.9408 118.1184-50.6368 169.5232-87.6544z" fill="#D786EA" ></path></svg>