<svg viewBox="0 0 1024 1024" version="1.1" xmlns="http://www.w3.org/2000/svg"><path d="M836.1472 164.1984H321.9456v95.0784a31.2832 31.2832 0 0 1-31.2832 31.2832 31.2832 31.2832 0 0 1-31.2832-31.2832V164.1984H184.3712c-51.712 0-93.6448 41.9328-93.6448 93.6448v152.064c50.9952 3.84 91.1872 46.336 91.1872 98.3552 0 51.968-40.192 94.5152-91.1872 98.3552v152.064c0 51.712 41.9328 93.6448 93.6448 93.6448h75.0592v-95.4368a31.2832 31.2832 0 0 1 31.2832-31.2832 31.2832 31.2832 0 0 1 31.2832 31.2832v95.4368h514.2016c51.712 0 93.6448-41.9328 93.6448-93.6448V257.8432c-0.0512-51.712-41.984-93.6448-93.696-93.6448zM321.9456 573.952a31.2832 31.2832 0 0 1-31.2832 31.2832 31.2832 31.2832 0 0 1-31.2832-31.2832V442.2144a31.2832 31.2832 0 0 1 31.2832-31.2832 31.2832 31.2832 0 0 1 31.2832 31.2832v131.7376z m469.5552-20.9408a31.2832 31.2832 0 0 1 31.2832 31.2832 31.2832 31.2832 0 0 1-31.2832 31.2832h-131.2256v67.2768c0 17.2544-13.9776 31.2832-31.2832 31.2832s-31.2832-13.9776-31.2832-31.2832v-67.2768H466.5344a31.2832 31.2832 0 0 1-31.2832-31.2832 31.2832 31.2832 0 0 1 31.2832-31.2832h131.2256V499.0464H466.5344a31.2832 31.2832 0 0 1-31.2832-31.2832 31.2832 31.2832 0 0 1 31.2832-31.2832h98.816l-76.8-76.0832a31.24224 31.24224 0 0 1-0.2048-44.2368c12.1344-12.288 31.9488-12.3392 44.2368-0.2048l96.9216 96 98.7648-96.1536a31.29344 31.29344 0 0 1 44.2368 0.6144 31.29344 31.29344 0 0 1-0.6144 44.2368l-77.9264 75.8784h97.5872a31.2832 31.2832 0 0 1 31.2832 31.2832 31.2832 31.2832 0 0 1-31.2832 31.2832h-131.2256v53.9648h131.1744z" fill="#F23D4F" ></path><path d="M929.792 257.8432c0-51.712-41.9328-93.6448-93.6448-93.6448H321.9456v95.0784a31.2832 31.2832 0 0 1-31.2832 31.2832 31.2832 31.2832 0 0 1-31.2832-31.2832V164.1984H184.3712c-51.712 0-93.6448 41.9328-93.6448 93.6448v152.064c50.9952 3.84 91.1872 46.336 91.1872 98.3552s-40.192 94.464-91.1872 98.3552v152.064c0 51.712 41.9328 93.6448 93.6448 93.6448h75.0592v-95.4368a31.2832 31.2832 0 0 1 31.2832-31.2832 31.2832 31.2832 0 0 1 31.2832 31.2832v95.4368h229.632c192.3072-72.1408 337.7664-240.128 378.1632-445.7984V257.8432zM321.9456 573.952a31.2832 31.2832 0 0 1-31.2832 31.2832 31.2832 31.2832 0 0 1-31.2832-31.2832V442.2144a31.2832 31.2832 0 0 1 31.2832-31.2832 31.2832 31.2832 0 0 1 31.2832 31.2832v131.7376z m469.5552-20.9408a31.2832 31.2832 0 0 1 31.2832 31.2832 31.2832 31.2832 0 0 1-31.2832 31.2832h-131.2256v67.2768a31.2832 31.2832 0 0 1-31.2832 31.2832 31.2832 31.2832 0 0 1-31.2832-31.2832v-67.2768H466.5344a31.2832 31.2832 0 0 1-31.2832-31.2832 31.2832 31.2832 0 0 1 31.2832-31.2832h131.2256V499.0464H466.5344a31.2832 31.2832 0 0 1-31.2832-31.2832 31.2832 31.2832 0 0 1 31.2832-31.2832h98.816l-76.8-76.0832a31.24224 31.24224 0 0 1-0.2048-44.2368c12.1344-12.288 31.9488-12.3392 44.2368-0.2048l96.9216 96 98.7648-96.1536a31.29344 31.29344 0 0 1 44.2368 0.6144 31.29344 31.29344 0 0 1-0.6144 44.2368l-77.9264 75.8784h97.5872a31.2832 31.2832 0 0 1 31.2832 31.2832 31.2832 31.2832 0 0 1-31.2832 31.2832h-131.2256v53.9648h131.1744z" fill="#FC4956" ></path><path d="M321.9456 259.2768a31.2832 31.2832 0 0 1-31.2832 31.2832 31.2832 31.2832 0 0 1-31.2832-31.2832V164.1984H184.3712c-51.712 0-93.6448 41.9328-93.6448 93.6448v152.064c50.9952 3.84 91.1872 46.336 91.1872 98.3552s-40.192 94.464-91.1872 98.3552v64.4608c28.0576 4.0448 56.7808 6.144 85.9648 6.144 98.7136 0 191.8976-23.8592 274.0224-66.0992-9.216-5.4272-15.4624-15.36-15.4624-26.8288a31.2832 31.2832 0 0 1 31.2832-31.2832h75.7248c19.456-15.0016 37.9904-31.1296 55.5008-48.3328v-5.632H466.5344a31.2832 31.2832 0 0 1-31.2832-31.2832 31.2832 31.2832 0 0 1 31.2832-31.2832h98.816l-76.8-76.0832a31.24224 31.24224 0 0 1-0.2048-44.2368c12.1344-12.288 31.9488-12.3392 44.2368-0.2048l96.9216 96 97.4336-94.8224c20.992-48.0256 35.8912-99.328 43.6736-152.9344H321.9456v95.0784z m0 314.6752a31.2832 31.2832 0 0 1-31.2832 31.2832 31.2832 31.2832 0 0 1-31.2832-31.2832V442.2144a31.2832 31.2832 0 0 1 31.2832-31.2832 31.2832 31.2832 0 0 1 31.2832 31.2832v131.7376z" fill="#FF5C64" ></path><path d="M321.9456 259.2768a31.2832 31.2832 0 0 1-31.2832 31.2832 31.2832 31.2832 0 0 1-31.2832-31.2832V164.1984H184.3712c-51.712 0-93.6448 41.9328-93.6448 93.6448v152.064c29.2352 2.2016 54.8864 17.152 71.4752 39.2704 163.7888-38.0928 301.8752-143.2576 383.6928-284.9792H321.9456v95.0784z" fill="#FF716E" ></path></svg>