<svg viewBox="0 0 1024 1024" version="1.1" xmlns="http://www.w3.org/2000/svg"><path d="M757.9648 121.8048h-474.624c-66.5088 0-120.4224 53.9136-120.4224 120.4224v576.0512c0 33.8944 36.6592 55.1424 66.048 38.2464l102.4512-58.88a44.12416 44.12416 0 0 1 51.3536 5.3248l108.8512 97.1264a44.09856 44.09856 0 0 0 58.6752 0.0512l109.8752-97.7408a44.01664 44.01664 0 0 1 51.5072-5.12l100.3008 58.5216c29.3888 17.152 66.304-4.0448 66.304-38.0928V242.2272c0.1024-66.5088-53.8112-120.4224-120.32-120.4224z m-117.5552 426.7008a35.33312 35.33312 0 0 1 0 70.656h-84.48v42.1376a35.33312 35.33312 0 0 1-70.656 0v-42.1376h-84.48a35.33312 35.33312 0 0 1 0-70.656h84.48v-36.352h-84.48a35.33312 35.33312 0 0 1 0-70.656h41.5744L382.4128 363.5712c-10.8544-14.1312-6.5536-33.2288 9.6256-42.7008 16.1792-9.472 38.144-5.7344 48.9984 8.3968l80.0768 103.9872 78.8992-105.1136c10.7008-14.2336 32.5632-18.2272 48.896-8.9088 16.3328 9.3184 20.8896 28.3648 10.24 42.5984l-59.8016 79.6672h41.1136a35.33312 35.33312 0 0 1 0 70.656h-84.48v36.352h84.4288z" fill="#FF8E12" ></path><path d="M757.9648 121.8048h-474.624c-66.5088 0-120.4224 53.9136-120.4224 120.4224v576.0512c0 14.6432 6.8608 26.9312 16.9984 34.7648 15.0528 2.2528 30.2592 3.9936 45.6704 5.12 1.1264-0.512 2.2528-1.024 3.3792-1.6384l102.4512-58.88a44.12416 44.12416 0 0 1 51.3536 5.3248l41.3696 36.9152c257.1776-67.9936 446.8224-302.2336 446.8224-580.8128 0-22.6816-1.28-45.1072-3.7376-67.1232-19.0464-41.4208-60.7744-70.144-109.2608-70.144z m-117.5552 426.7008a35.33312 35.33312 0 0 1 0 70.656h-84.48v42.1376a35.33312 35.33312 0 0 1-70.656 0v-42.1376h-84.48a35.33312 35.33312 0 0 1 0-70.656h84.48v-36.352h-84.48a35.33312 35.33312 0 0 1 0-70.656h41.5744L382.4128 363.5712c-10.8544-14.1312-6.5536-33.2288 9.6256-42.7008 16.1792-9.472 38.144-5.7344 48.9984 8.3968l80.0768 103.9872 78.8992-105.1136c10.7008-14.2336 32.5632-18.2272 48.896-8.9088 16.3328 9.3184 20.8896 28.3648 10.24 42.5984l-59.8016 79.6672h41.1136a35.33312 35.33312 0 0 1 0 70.656h-84.48v36.352h84.4288z" fill="#FCA315" ></path><path d="M283.3408 121.8048c-66.5088 0-120.4224 53.9136-120.4224 120.4224v401.5104c72.1408-6.8096 140.544-26.3168 203.008-56.32-0.1024-1.1776-0.3584-2.3552-0.3584-3.584 0-19.5072 15.8208-35.328 35.328-35.328h33.792c17.2032-11.264 33.8432-23.3984 49.7664-36.352H400.8448a35.33312 35.33312 0 0 1 0-70.656h41.5744L382.4128 363.5712c-10.8544-14.1312-6.5536-33.2288 9.6256-42.7008 16.1792-9.472 38.144-5.7344 48.9984 8.3968l80.0768 103.9872 78.8992-105.1136c9.3184-12.3904 27.136-16.9984 42.3424-11.8272 30.208-59.8016 50.7392-125.2864 59.4944-194.5088H283.3408z" fill="#FCB138" ></path><path d="M162.9184 242.2272V396.8c136.448-50.3808 249.6-148.9408 318.8224-274.9952H283.3408c-66.5088 0-120.4224 53.9136-120.4224 120.4224z" fill="#FFC65E" ></path></svg>