<svg viewBox="0 0 1024 1024" version="1.1" xmlns="http://www.w3.org/2000/svg"><path d="M931.4304 510.0544c2.7648 229.4784-184.832 421.888-417.4336 423.7312-229.4784 1.792-421.9392-185.0368-423.7312-417.6384-1.792-230.2464 185.8048-421.888 417.6384-423.7312 229.7856-1.8432 424.7552 183.0912 423.5264 417.6384zM333.1072 707.9424c1.792-0.4608 5.3248-1.1776 8.704-2.304 84.6336-27.648 169.2672-55.3472 253.952-82.8928 12.0832-3.9424 19.0976-11.3152 22.9888-23.552 15.7696-49.4592 32.256-98.6624 48.4864-147.968 11.8784-36.0448 23.9104-71.9872 35.6352-108.0832 4.7104-14.592-2.6624-22.6816-17.7152-19.8144-3.5328 0.6656-6.912 1.8944-10.3424 2.9696C592.4352 353.28 510.1568 380.416 427.7248 407.0912c-13.0048 4.1984-20.5312 11.5712-24.7808 24.7808-18.6368 58.1632-38.0416 116.1216-57.1904 174.1312-9.0112 27.2896-18.0736 54.5792-26.9312 81.92-3.7888 11.7248 1.792 20.224 14.2848 20.0192z" fill="#2595E8" ></path><path d="M509.5424 576.8704c-35.9424-1.4336-63.9488-30.9248-62.2592-65.5872 1.6896-35.584 30.2592-62.8736 64.7168-61.952 35.4304 0.9728 64 30.6688 62.6688 65.2288-1.3312 36.5056-29.7984 63.6928-65.1264 62.3104z" fill="#3A9CED" ></path><path d="M819.5072 347.3408c0-47.5136-5.7856-93.696-16.64-137.8816-77.0048-73.4208-181.76-117.9136-294.9632-117.0432-231.8336 1.8432-419.4304 193.4848-417.6384 423.7824 1.4336 182.1696 119.7568 336.2304 281.2416 393.6256 256.5632-58.624 448-288.2048 448-562.4832z m-500.6848 340.5824c8.8064-27.3408 17.92-54.6304 26.9312-81.92 19.1488-58.0096 38.5536-115.968 57.1904-174.1312 4.1984-13.2096 11.776-20.5312 24.7808-24.7808C510.1568 380.416 592.4352 353.28 674.816 326.3488c3.4304-1.1264 6.8096-2.304 10.3424-2.9696 15.0528-2.8672 22.4768 5.2224 17.7152 19.8144-11.7248 36.096-23.7568 72.0384-35.6352 108.0832-16.2304 49.3056-32.7168 98.5088-48.4864 147.968-3.8912 12.2368-10.9056 19.6096-22.9888 23.552-84.6848 27.4944-169.3184 55.2448-253.952 82.8928-3.3792 1.1264-6.912 1.8432-8.704 2.304-12.4928 0.1536-18.0736-8.3456-14.2848-20.0704z" fill="#3A9CED" ></path><path d="M345.7536 606.0032c19.1488-58.0096 38.5536-115.968 57.1904-174.1312 4.1984-13.2096 11.776-20.5312 24.7808-24.7808 66.2016-21.4016 132.3008-43.1104 198.4-64.8192 22.9888-62.2592 35.584-129.5872 35.584-199.8848 0-7.4752-0.2048-14.8992-0.4608-22.3232a420.80256 420.80256 0 0 0-153.2928-27.6992c-231.8336 1.8432-419.4304 193.4848-417.6384 423.7824 0.5632 72.704 19.7632 140.9024 52.8384 200.2944 64.6144-6.5024 126.1056-23.7056 182.6304-49.7152 6.6048-20.2752 13.312-40.4992 19.968-60.7232z" fill="#59ADF8" ></path><path d="M512 449.3312c-34.5088-0.9216-63.0272 26.368-64.7168 61.952-1.0752 22.7328 10.5984 43.1616 28.8768 54.9888 30.8736-28.5184 58.624-60.3648 82.6368-94.976-11.4688-12.9536-28.16-21.4528-46.7968-21.9648z" fill="#59ADF8" ></path><path d="M90.6752 495.1552C286.72 442.112 441.344 288.3584 495.616 92.8256c-219.0848 8.1408-395.776 185.6-404.9408 402.3296z" fill="#6BC2FC" ></path></svg>