<svg viewBox="0 0 1024 1024" version="1.1" xmlns="http://www.w3.org/2000/svg"><path d="M741.632 579.9424c-19.4048 0-36.7616-11.9808-43.6224-30.1056l-48.896-128.8192-147.5584 322.304a46.67392 46.67392 0 0 1-41.984 27.2384h-0.4096c-17.92 0-34.304-10.2912-42.0864-26.4704l-95.3856-198.8608-48.9472 36.7616a46.83264 46.83264 0 0 1-28.0064 9.3184H99.2256v228.352c0 62.72 50.8416 113.6128 113.6128 113.6128h597.2992c62.72 0 113.6128-50.8416 113.6128-113.6128v-239.6672h-182.1184z" fill="#F23D4F" ></path><path d="M229.1712 497.9712l82.0224-61.5424a46.55616 46.55616 0 0 1 39.0656-7.9872c13.568 3.328 24.9344 12.544 30.976 25.1392l76.9024 160.4096 152.576-333.2096a46.68928 46.68928 0 0 1 86.0672 2.8672l77.056 203.0592h149.9136V222.3104c0-62.72-50.8416-113.6128-113.6128-113.6128H212.7872c-62.72 0-113.6128 50.8416-113.6128 113.6128v275.6608h129.9968z" fill="#F23D4F" ></path><path d="M923.6992 222.3104c0-62.72-50.8416-113.6128-113.6128-113.6128H212.7872c-62.72 0-113.6128 50.8416-113.6128 113.6128v275.6608h129.9456l82.0224-61.5424a46.55616 46.55616 0 0 1 39.0656-7.9872c13.568 3.328 24.9344 12.544 30.976 25.1392l76.9024 160.4096 152.576-333.2096a46.68928 46.68928 0 0 1 86.0672 2.8672l77.056 203.0592h114.8928a665.4464 665.4464 0 0 0 34.9696-158.9248v-105.472z" fill="#FC4956" ></path><path d="M847.5136 579.9424h-105.8816c-19.4048 0-36.7616-11.9808-43.6224-30.1056l-48.896-128.8192-147.5584 322.304a46.67392 46.67392 0 0 1-41.984 27.2384h-0.4096c-17.92 0-34.304-10.2912-42.0864-26.4704l-95.3856-198.912-48.9472 36.7616a46.83264 46.83264 0 0 1-28.0064 9.3184H99.2256v228.352c0 52.2752 35.3792 96.2048 83.5072 109.4144 24.4736 2.7136 49.3568 4.1472 74.5984 4.1472 255.3344 0.0512 477.2864-142.9504 590.1824-353.2288z" fill="#FC4956" ></path><path d="M212.7872 108.6976c-62.72 0-113.6128 50.8416-113.6128 113.6128v275.6608h129.9456l82.0224-61.5424a46.55616 46.55616 0 0 1 39.0656-7.9872c13.568 3.328 24.9344 12.544 30.976 25.1392l62.6176 130.6112c14.2848-9.472 28.16-19.456 41.6768-30.0032l125.184-273.4592a46.68928 46.68928 0 0 1 43.9808-27.1872c16.896 0.5632 31.9488 10.24 39.68 24.9344 21.8112-53.504 36.9152-110.3872 44.1856-169.728H212.7872z" fill="#FF5C64" ></path><path d="M362.496 630.3232l-40.8576-85.1456-48.9472 36.7616a46.83264 46.83264 0 0 1-28.0064 9.3184H99.2256v103.68c94.0032-3.4304 183.04-26.2656 263.2704-64.6144z" fill="#FF5C64" ></path><path d="M494.1312 108.6976H212.7872c-62.72 0-113.6128 50.8416-113.6128 113.6128v207.8208C269.2096 378.88 410.7264 261.9392 494.1312 108.6976z" fill="#FF716E" ></path></svg>