<svg viewBox="0 0 1024 1024" version="1.1" xmlns="http://www.w3.org/2000/svg"><path d="M820.8896 211.2c-62.72-0.1024-176.128-15.4624-273.4592-110.5408-17.2544-16.8448-44.2368-18.6368-63.1296-3.7376-50.5856 39.8848-154.5728 107.4176-281.9072 110.6432-26.0096 0.6656-46.6944 22.016-46.6944 48.0768v302.5408c0 61.2352-3.4816 197.12 333.824 389.4272a48.18432 48.18432 0 0 0 45.4656 1.2288c332.1856-167.0656 333.824-310.528 333.824-365.568V259.328c-0.0512-26.5216-21.4016-48.0768-47.9232-48.128z m-155.2384 330.0864l-165.7344 172.6464a43.70944 43.70944 0 0 1-31.5904 13.4656c-10.9056 0-21.8112-4.0448-30.3104-12.1856-17.4592-16.7424-18.0224-44.4928-1.28-61.952l94.5664-98.5088H390.4c-17.7152 0-33.7408-10.7008-40.4992-27.0848s-3.0208-35.2256 9.5744-47.7696l154.8288-154.3168a43.776 43.776 0 0 1 61.952 0.1024 43.776 43.776 0 0 1-0.1024 61.952L496.4352 467.1488h137.6256c17.5616 0 33.4336 10.496 40.2944 26.624 6.8608 16.128 3.4304 34.8672-8.704 47.5136z" fill="#FF8E12" ></path><path d="M868.7616 384.3072V259.328c0-26.5216-21.4016-48.0768-47.9232-48.0768-62.72-0.1024-176.128-15.4624-273.4592-110.5408-17.2544-16.8448-44.2368-18.6368-63.1296-3.7376-50.5856 39.8848-154.5728 107.4176-281.9072 110.6432-26.0096 0.6656-46.6944 22.016-46.6944 48.0768v302.5408c0 50.8928-2.4064 153.344 190.4128 296.8576 260.1984-25.5488 471.1424-219.136 522.7008-470.784zM359.4752 479.9488l154.8288-154.3168a43.776 43.776 0 0 1 61.952 0.1024 43.776 43.776 0 0 1-0.1024 61.952L496.4352 467.1488h137.6256a43.79648 43.79648 0 0 1 31.5904 74.1376l-165.7344 172.6464a43.70944 43.70944 0 0 1-31.5904 13.4656c-10.9056 0-21.8112-4.0448-30.3104-12.1856-17.4592-16.7424-18.0224-44.4928-1.28-61.952l94.5664-98.5088H390.4c-17.7152 0-33.7408-10.7008-40.4992-27.0848s-2.9696-35.2256 9.5744-47.7184z" fill="#FCA315" ></path><path d="M547.4304 100.7104c-17.2544-16.8448-44.2368-18.6368-63.1296-3.7376-50.5856 39.8848-154.5728 107.4176-281.9072 110.6432-26.0096 0.6656-46.6944 22.016-46.6944 48.0768v302.5408c0 20.7872-0.4096 50.176 12.288 87.4496 100.8128-7.168 194.6624-39.5776 275.3024-90.88H390.4c-17.7152 0-33.7408-10.7008-40.4992-27.0848s-3.0208-35.2256 9.5744-47.7696l154.8288-154.3168a43.776 43.776 0 0 1 61.952 0.1024 43.776 43.776 0 0 1-0.1024 61.952L496.4352 467.1488h54.3744c72.8064-74.9568 125.952-169.0624 151.2448-274.0224-49.7152-15.4624-104.2944-43.264-154.624-92.416z" fill="#FCB138" ></path><path d="M517.2736 86.9888c-11.52-0.9216-23.3472 2.304-33.024 9.984-50.5856 39.8848-154.5728 107.4176-281.9072 110.6432-26.0096 0.6656-46.6944 22.016-46.6944 48.0768v153.7536c161.4336-51.3024 292.9152-169.6768 361.6256-322.4576z" fill="#FFC65E" ></path></svg>