<svg viewBox="0 0 1024 1024" version="1.1" xmlns="http://www.w3.org/2000/svg"><path d="M103.2704 606.3616l250.9824 94.3104c5.4784 2.048 11.6224 0.8192 15.872-3.1744l381.952-356.9664c1.28-1.2288 3.1744 0.5632 2.0992 1.9456l-292.0448 371.5584c-6.4 8.1408-3.072 20.0704 6.5536 23.808l316.7744 121.344c8.9088 3.4304 18.7392-2.048 20.5312-11.4688L945.664 114.8416c2.4576-12.9024-11.4176-22.7328-22.784-16.128L100.9152 578.7648c-11.1104 6.5536-9.728 23.0912 2.3552 27.5968zM453.1712 783.7184l74.3936 32.4608c10.0352 4.352 12.3904 17.5104 4.5056 25.088l-74.3936 71.5776c-9.728 9.3696-25.9584 2.4576-25.9584-11.0592v-104.0384c0-11.0592 11.3152-18.4832 21.4528-14.0288z" fill="#2595E8" ></path><path d="M473.2416 699.904a409.52832 409.52832 0 0 0 124.672 19.3536c93.4912 0 179.6096-31.3344 248.576-83.968L945.664 114.8416c2.4576-12.9024-11.4176-22.7328-22.784-16.128L235.1104 500.4288a411.65312 411.65312 0 0 0 165.6832 168.3968l351.2832-328.2432c1.28-1.2288 3.1744 0.5632 2.0992 1.9456l-280.9344 357.376z" fill="#3A9CED" ></path><path d="M581.4272 562.2784c180.3264-43.1104 314.4704-205.2608 314.4704-398.7968 0-16.0256-1.024-31.744-2.816-47.2576L244.3776 495.0016c67.7376 49.408 151.0912 78.592 241.3568 78.592 5.8368 0 11.6736-0.2048 17.4592-0.4608l248.8832-232.6016c1.28-1.2288 3.1744 0.5632 2.0992 1.9456l-172.7488 219.8016z" fill="#59ADF8" ></path><path d="M382.5664 428.4416c161.4848 0 301.1584-93.3888 368.0256-229.0688L359.5264 427.776c7.6288 0.4096 15.3088 0.6656 23.04 0.6656z" fill="#6BC2FC" ></path></svg>