<?xml version="1.0" standalone="no"?><!DOCTYPE svg PUBLIC "-//W3C//DTD SVG 1.1//EN" "http://www.w3.org/Graphics/SVG/1.1/DTD/svg11.dtd"><svg class="icon" width="66px" height="66.00px" viewBox="0 0 1024 1024" version="1.1" xmlns="http://www.w3.org/2000/svg"><path d="M825.238 227.37c15.808 31.616 3.008 70.06-28.608 85.868L416 511.994l380.63 198.756c31.616 15.808 44.416 54.25 28.608 85.864-15.808 31.616-54.252 44.43-85.868 28.624l-533.332-256a64.008 64.008 0 0 1 0-114.488l533.332-256c31.616-15.808 70.06-2.994 85.868 28.62z" fill="#53B5FF" /><path d="M448 512c0 106.04-85.952 192-192 192s-192-85.96-192-192 85.952-192 192-192 192 85.96 192 192zM960 256c0 106.04-85.952 192-192 192s-192-85.96-192-192 85.952-192 192-192 192 85.96 192 192zM960 768c0 106.04-85.952 192-192 192s-192-85.96-192-192 85.952-192 192-192 192 85.96 192 192z" fill="#FCDA6E" /></svg>