<svg viewBox="0 0 1024 1024" version="1.1" xmlns="http://www.w3.org/2000/svg"><path d="M419.6864 121.0368H195.2768c-33.7408 0-61.0304 27.3408-61.0304 61.0304v222.5664c0 33.7408 27.3408 61.0304 61.0304 61.0304h224.4096c33.7408 0 61.0304-27.3408 61.0304-61.0304V182.0672c0-33.6896-27.3408-61.0304-61.0304-61.0304z" fill="#3CD38E" ></path><path d="M419.6864 540.7744H195.2768c-33.7408 0-61.0304 27.3408-61.0304 61.0304v222.5664c0 33.7408 27.3408 61.0304 61.0304 61.0304h224.4096c33.7408 0 61.0304-27.3408 61.0304-61.0304v-222.5664c0-33.6896-27.3408-61.0304-61.0304-61.0304zM616.704 465.7152h224.4096c33.7408 0 61.0304-27.3408 61.0304-61.0304V182.0672c0-33.7408-27.3408-61.0304-61.0304-61.0304h-224.4096c-33.7408 0-61.0304 27.3408-61.0304 61.0304v222.5664c-0.0512 33.7408 27.2896 61.0816 61.0304 61.0816z" fill="#30CE77" ></path><path d="M600.4736 536.9344a45.0048 45.0048 0 0 0-45.0048 45.0048v276.5312a45.0048 45.0048 0 0 0 45.0048 45.0048 45.0048 45.0048 0 0 0 45.0048-45.0048v-276.5312c-0.0512-24.8832-20.1728-45.0048-45.0048-45.0048zM857.5488 536.9344a45.0048 45.0048 0 0 0-45.0048 45.0048v276.5312a45.0048 45.0048 0 0 0 45.0048 45.0048 45.0048 45.0048 0 0 0 45.0048-45.0048v-276.5312c-0.0512-24.8832-20.1728-45.0048-45.0048-45.0048zM732.7232 624.0768a45.0048 45.0048 0 0 0-45.0048 45.0048v189.3888a45.0048 45.0048 0 0 0 45.0048 45.0048 45.0048 45.0048 0 0 0 45.0048-45.0048v-189.3888a45.0048 45.0048 0 0 0-45.0048-45.0048z" fill="#05C46D" ></path><path d="M600.4736 536.9344a45.0048 45.0048 0 0 0-45.0048 45.0048v276.5312c0 6.144 1.2288 12.032 3.4816 17.3568a630.2208 630.2208 0 0 0 86.4768-46.7456v-247.1424c0-24.8832-20.1216-45.0048-44.9536-45.0048zM777.728 714.9056v-45.824a45.0048 45.0048 0 0 0-45.0048-45.0048 45.0048 45.0048 0 0 0-45.0048 45.0048v130.1504c32.7168-25.1904 62.8224-53.4016 90.0096-84.3264zM884.224 545.7408a44.68736 44.68736 0 0 0-26.6752-8.8064 45.0048 45.0048 0 0 0-45.0048 45.0048v89.6c28.4672-38.8096 52.5824-80.9984 71.68-125.7984z" fill="#30CE77" ></path><path d="M134.1952 601.856v103.7824c128.1024-0.6656 247.1936-39.4752 346.4192-105.6768-1.024-32.8192-27.904-59.136-60.9792-59.136H195.2768c-33.7408-0.0512-61.0816 27.2896-61.0816 61.0304zM616.704 121.0368c-33.7408 0-61.0304 27.3408-61.0304 61.0304v222.5664c0 33.7408 27.3408 61.0304 61.0304 61.0304h9.472c76.032-96.1536 124.6208-214.9888 133.9904-344.6784h-143.4624z" fill="#3CD38E" ></path><path d="M480.7168 225.024v-42.9568c0-33.7408-27.3408-61.0304-61.0304-61.0304H195.2768c-33.7408 0-61.0304 27.3408-61.0304 61.0304v222.5664c0 20.3776 10.0352 38.4 25.3952 49.5104 130.0992-40.3968 242.176-121.8048 321.0752-229.12z" fill="#48E1AA" ></path></svg>