<svg viewBox="0 0 1024 1024" version="1.1" xmlns="http://www.w3.org/2000/svg"><path d="M513.7408 124.0576c-128.8192 0-233.216 104.3968-233.216 233.216s122.7776 287.488 233.216 359.0656c127.0784-114.1248 233.216-230.2464 233.216-359.0656s-104.448-233.216-233.216-233.216z m0 344.2688c-63.3856 0-114.7392-51.3536-114.7392-114.7392s51.3536-114.7392 114.7392-114.7392 114.7392 51.3536 114.7392 114.7392c0 63.3344-51.4048 114.7392-114.7392 114.7392z" fill="#FCA315" ></path><path d="M934.144 829.952l-60.4672-248.3712a48.90624 48.90624 0 0 0-47.5648-37.376h-96.1536c-24.6272 33.9456-46.1824 60.16-62.464 78.6944 31.7952 16.1792 51.0976 37.2736 51.0976 60.416 0 50.8928-93.2352 92.1088-208.2816 92.1088s-208.2816-41.2672-208.2816-92.1088c0-22.1696 17.664-42.4448 47.104-58.368-18.0736-25.9584-38.7584-57.4464-53.8112-80.7936H198.7584c-22.528 0-42.1376 15.36-47.5648 37.2224l-61.3376 248.3712c-7.6288 30.8736 15.7184 60.7232 47.5648 60.7232h749.1072c31.744 0.0512 55.0912-29.696 47.616-60.5184z" fill="#FF8E12" ></path><path d="M861.5936 559.5136a48.81408 48.81408 0 0 0-35.4816-15.3088h-96.1536c-24.576 33.9456-46.1824 60.16-62.464 78.6944 31.7952 16.1792 51.0976 37.2736 51.0976 60.416 0 50.8928-93.2352 92.1088-208.2816 92.1088s-208.2816-41.2672-208.2816-92.1088c0-22.1696 17.664-42.4448 47.104-58.368-18.0736-25.9584-38.7584-57.4464-53.8112-80.7936H198.7584c-22.528 0-42.1376 15.36-47.5648 37.2224l-61.3376 248.3712c-7.6288 30.8736 15.7184 60.7232 47.5648 60.7232h449.4848c130.0992-69.3248 229.9904-187.904 274.688-330.9568z" fill="#FCA315" ></path><path d="M727.3472 263.68c-36.0448-82.176-118.1184-139.6224-213.6064-139.6224-128.8192 0-233.216 104.3968-233.216 233.216 0 107.5712 85.6064 235.9296 178.176 317.0304 143.9232-87.04 245.8112-236.3904 268.6464-410.624zM398.9504 353.536c0-63.3856 51.3536-114.7392 114.7392-114.7392s114.7392 51.3536 114.7392 114.7392-51.3536 114.7392-114.7392 114.7392-114.7392-51.3536-114.7392-114.7392zM166.0416 755.712c57.7536 0 113.4592-8.704 165.9392-24.7808-19.0464-13.9264-30.0032-30.208-30.0032-47.616 0-22.1696 17.664-42.4448 47.104-58.368-18.0736-25.9584-38.7584-57.4464-53.8112-80.7936H198.7584c-22.528 0-42.1376 15.36-47.5648 37.2224l-42.3424 171.4176c18.8416 1.9456 37.888 2.9184 57.1904 2.9184z" fill="#FCB138" ></path><path d="M398.9504 353.536c0-63.3856 51.3536-114.7392 114.7392-114.7392 5.9392 0 11.7248 0.6144 17.408 1.4848 17.1008-34.4576 30.8736-70.912 40.704-108.9024-18.5856-4.7616-38.0416-7.3216-58.112-7.3216-128.8192 0-233.216 104.3968-233.216 233.216 0 38.5024 11.008 79.616 29.3376 120.32A566.0672 566.0672 0 0 0 410.112 402.688a114.42176 114.42176 0 0 1-11.1616-49.152z" fill="#FFC65E" ></path></svg>