<svg viewBox="0 0 1024 1024" version="1.1" xmlns="http://www.w3.org/2000/svg"><path d="M892.6208 241.2544h-286.208L696.7296 153.6a42.16832 42.16832 0 0 0 0.8704-59.6992 42.16832 42.16832 0 0 0-59.6992-0.8704l-125.1328 121.4464-112.7424-120.1152c-15.9744-16.9984-42.7008-17.8688-59.6992-1.8944-16.9984 15.9744-17.8688 42.7008-1.8944 59.6992l83.6096 89.088H143.9744c-28.416 0-51.4048 23.04-51.4048 51.4048v120.1664c0 28.416 23.04 51.4048 51.4048 51.4048h39.2704v344.2688c0 65.0752 52.736 117.8624 117.8624 117.8624h434.3808c65.0752 0 117.8624-52.736 117.8624-117.8624V464.2304h39.2704c28.416 0 51.4048-23.04 51.4048-51.4048V292.6592c0-28.416-22.9888-51.4048-51.4048-51.4048z m-332.0832 493.312c0 23.3472-18.8928 42.24-42.24 42.24-23.3472 0-42.24-18.8928-42.24-42.24v-140.9536c0-23.3472 18.8928-42.24 42.24-42.24 23.3472 0 42.24 18.8928 42.24 42.24v140.9536z" fill="#FF3369" ></path><path d="M890.8288 241.2544h-284.416L696.7296 153.6a42.16832 42.16832 0 0 0 0.8704-59.6992c-16.2304-16.7424-43.008-17.152-59.6992-0.8704l-125.1328 121.4464-112.7424-120.1152c-15.9744-16.9984-42.7008-17.8688-59.6992-1.8944-16.9984 15.9744-17.8688 42.7008-1.8944 59.6992l83.6096 89.088H143.9744c-28.416 0-51.4048 23.04-51.4048 51.4048v120.1664c0 28.416 23.04 51.4048 51.4048 51.4048h39.2704v344.2688c0 65.0752 52.736 117.8624 117.8624 117.8624H394.752c211.456-45.9776 383.5392-197.2736 458.5984-396.2368V464.2304h20.9408a636.1088 636.1088 0 0 0 19.8656-158.1056c-0.0512-21.9136-1.1264-43.5712-3.328-64.8704z m-330.2912 493.312c0 23.3472-18.8928 42.24-42.24 42.24-23.3472 0-42.24-18.8928-42.24-42.24v-140.9536c0-23.3472 18.8928-42.24 42.24-42.24 23.3472 0 42.24 18.8928 42.24 42.24v140.9536z" fill="#FF4D7C" ></path><path d="M606.4128 241.2544L696.7296 153.6a42.16832 42.16832 0 0 0 0.8704-59.6992c-16.2304-16.7424-43.008-17.152-59.6992-0.8704l-125.1328 121.4464-112.7424-120.1152c-15.9744-16.9984-42.7008-17.8688-59.6992-1.8944-16.9984 15.9744-17.8688 42.7008-1.8944 59.6992l83.6096 89.088H143.9744c-28.416 0-51.4048 23.04-51.4048 51.4048v120.1664c0 28.416 23.04 51.4048 51.4048 51.4048h39.2704v243.8144c110.5408-17.0496 211.5584-62.7712 295.4752-129.0752 5.12-13.7728 17.2032-24.1152 31.9488-26.8288 90.5728-81.7152 157.4912-189.184 189.2352-310.8352h-93.4912z" fill="#FF5F89" ></path><path d="M475.0848 174.2848L400.0256 94.3616c-15.9744-16.9984-42.7008-17.8688-59.6992-1.8944-16.9984 15.9744-17.8688 42.7008-1.8944 59.6992l83.6096 89.088H143.9744c-28.416 0-51.4048 23.04-51.4048 51.4048v120.1664c0 20.7872 12.3904 38.656 30.1568 46.7456 149.5552-48.7424 274.6368-151.5008 352.3584-285.2864z" fill="#FF7196" ></path></svg>