<svg viewBox="0 0 1024 1024" version="1.1" xmlns="http://www.w3.org/2000/svg"><path d="M904.8576 182.4256l-157.5424-83.9168h-72.0896c-21.6064 68.3008-85.4016 117.8624-160.8704 117.8624-75.4688 0-139.3152-49.5616-160.8704-117.8624h-76.288L123.3408 183.7056a30.16704 30.16704 0 0 0-15.5136 26.368V335.872c0 13.6704 9.216 25.6512 22.4256 29.1328l71.2704 18.8416c13.2096 3.4816 22.4256 15.4624 22.4256 29.1328v452.1984c0 31.5392 25.6 57.1392 57.1392 57.1392h455.9872c31.5392 0 57.1392-25.6 57.1392-57.1392V412.672c0-14.1312 9.8304-26.368 23.6032-29.3888l79.36-17.6128c13.7728-3.072 23.6032-15.3088 23.6032-29.3888V208.9984a29.96736 29.96736 0 0 0-15.9232-26.5728zM384.0512 697.0368c0 19.3024-15.6672 34.9696-34.9696 34.9696s-34.9696-15.6672-34.9696-34.9696V507.8528c0-19.3024 15.6672-34.9696 34.9696-34.9696s34.9696 15.6672 34.9696 34.9696v189.184z" fill="#05C46D" ></path><path d="M675.1744 98.4576c-21.6064 68.3008-85.4016 117.8624-160.8704 117.8624-75.4688 0-139.3152-49.5616-160.8704-117.8624H277.1968L123.3408 183.7056a30.16704 30.16704 0 0 0-15.5136 26.368V335.872c0 13.6704 9.216 25.6512 22.4256 29.1328l71.2704 18.8416c13.2096 3.4816 22.4256 15.4624 22.4256 29.1328v452.1984c0 2.6624 0.256 5.2736 0.6144 7.8336 15.0528 1.1264 30.208 1.6896 45.568 1.6896 222.72 0 417.5872-119.3472 524.1344-297.5232V412.672c0-14.1312 9.8304-26.368 23.6032-29.3888l53.1968-11.8272a615.05536 615.05536 0 0 0 1.28-206.3872l-125.0304-66.6112h-72.1408zM384.0512 697.0368c0 19.3024-15.6672 34.9696-34.9696 34.9696s-34.9696-15.6672-34.9696-34.9696V507.8528c0-19.3024 15.6672-34.9696 34.9696-34.9696s34.9696 15.6672 34.9696 34.9696v189.184z" fill="#1DCE75" ></path><path d="M675.1744 98.4576c-21.6064 68.3008-85.4016 117.8624-160.8704 117.8624-75.4688 0-139.3152-49.5616-160.8704-117.8624H277.1968L123.3408 183.7056a30.16704 30.16704 0 0 0-15.5136 26.368V335.872c0 13.6704 9.216 25.6512 22.4256 29.1328l71.2704 18.8416c13.2096 3.4816 22.4256 15.4624 22.4256 29.1328v233.0112c30.9248-6.1952 61.0304-14.7456 90.0608-25.4464V507.8528c0-19.3024 15.6672-34.9696 34.9696-34.9696s34.9696 15.6672 34.9696 34.9696v81.7152c181.504-94.2592 309.6576-276.992 327.3216-491.1104h-36.096z" fill="#3CD38E" ></path><path d="M437.8112 197.9904c-39.936-20.3776-70.656-56.1152-84.3776-99.4816H277.1968L123.3408 183.7056a30.16704 30.16704 0 0 0-15.5136 26.368V335.872c0 13.6704 9.216 25.6512 22.4256 29.1328l71.2704 18.8416c1.6384 0.4096 3.2256 1.024 4.7104 1.6896 91.904-42.6496 171.3664-107.4688 231.5776-187.5456z" fill="#48E1AA" ></path></svg>