<svg viewBox="0 0 1024 1024" version="1.1" xmlns="http://www.w3.org/2000/svg"><path d="M847.6672 543.1296h-318.0544c-23.9616 0-43.4176-19.456-43.4176-43.4176V181.6576c0-16.128-13.7728-28.8256-29.9008-27.648-207.5648 15.7184-369.7664 193.792-359.936 407.552 9.216 199.936 171.4688 362.1888 371.4048 371.4048 213.76 9.8304 391.8336-152.3712 407.552-359.936 1.2288-16.128-11.4688-29.9008-27.648-29.9008z" fill="#2595E8" ></path><path d="M550.7072 477.44h353.3312c16.1792 0 28.8768-13.8752 27.5968-30.0032-14.5408-187.0848-163.84-336.384-350.9248-350.9248-16.128-1.28-30.0032 11.4176-30.0032 27.5968v353.3312z" fill="#2595E8" ></path><path d="M580.7104 96.512c-16.128-1.28-30.0032 11.4176-30.0032 27.5968v353.3312h284.5696c19.8144-57.2928 30.5664-118.7328 30.5664-182.7328 0-11.7248-0.4096-23.3984-1.1264-34.9696-63.6928-91.648-166.3488-154.112-284.0064-163.2256z" fill="#3A9CED" ></path><path d="M802.6112 543.1296h-272.9472c-23.9616 0-43.4176-19.456-43.4176-43.4176V181.6576c0-16.1792-13.7728-28.8256-29.9008-27.648-207.5648 15.7184-369.7664 193.792-359.936 407.552 5.7856 125.7472 72.192 236.5952 170.3936 303.8208 9.5232 0.4608 19.1488 0.7168 28.7744 0.7168 224.4608 0 417.9456-132.1984 507.0336-322.9696z" fill="#3A9CED" ></path><path d="M580.7104 96.512c-16.128-1.28-30.0032 11.4176-30.0032 27.5968v353.3312h11.8784c85.8112-92.0064 140.9536-212.9408 149.1456-346.5728a378.94144 378.94144 0 0 0-131.0208-34.3552zM486.1952 499.712V181.6576c0-16.1792-13.7728-28.8256-29.9008-27.648-207.5648 15.7184-369.7664 193.792-359.936 407.552 1.6896 36.608 8.5504 71.936 19.7632 105.3184 8.7552 0.4096 17.5616 0.6144 26.4192 0.6144 137.8816 0 264.0896-49.92 361.5744-132.6592a43.47904 43.47904 0 0 1-17.92-35.1232z" fill="#59ADF8" ></path><path d="M104.9088 460.0832c162.9184-30.3104 301.0048-131.2768 381.2864-269.8752v-8.5504c0-16.1792-13.7728-28.8256-29.9008-27.648-173.568 13.1584-315.3408 139.9296-351.3856 306.0736z" fill="#6BC2FC" ></path></svg>