<svg viewBox="0 0 1024 1024" version="1.1" xmlns="http://www.w3.org/2000/svg"><path d="M361.5232 137.8816H252.2624c-66.7136 0-120.9856 54.272-120.9856 120.9856v109.2096c0 66.7136 54.272 120.9856 120.9856 120.9856H361.472c66.7136 0 120.9856-54.272 120.9856-120.9856V258.8672c0-66.7136-54.272-120.9856-120.9344-120.9856zM775.9872 132.1984h-109.2096c-66.7136 0-120.9856 54.272-120.9856 120.9856v109.2096c0 66.7136 54.272 120.9856 120.9856 120.9856h109.2096c66.7136 0 120.9856-54.272 120.9856-120.9856V253.184c-0.0512-66.7136-54.3232-120.9856-120.9856-120.9856zM361.5232 541.3376H252.2624c-66.7136 0-120.9856 54.272-120.9856 120.9856v109.2096c0 66.7136 54.272 120.9856 120.9856 120.9856H361.472c66.7136 0 120.9856-54.272 120.9856-120.9856v-109.2096c0-66.7136-54.272-120.9856-120.9344-120.9856zM775.9872 535.6544h-109.2096c-66.7136 0-120.9856 54.272-120.9856 120.9856v109.2096c0 66.7136 54.272 120.9856 120.9856 120.9856h109.2096c66.7136 0 120.9856-54.272 120.9856-120.9856v-109.2096c-0.0512-66.7136-54.3232-120.9856-120.9856-120.9856z" fill="#F23D4F" ></path><path d="M361.5232 137.8816H252.2624c-66.7136 0-120.9856 54.272-120.9856 120.9856v109.2096c0 66.7136 54.272 120.9856 120.9856 120.9856H361.472c66.7136 0 120.9856-54.272 120.9856-120.9856V258.8672c0-66.7136-54.272-120.9856-120.9344-120.9856z" fill="#FF5C64" ></path><path d="M775.9872 132.1984h-109.2096c-66.7136 0-120.9856 54.272-120.9856 120.9856v109.2096c0 66.7136 54.272 120.9856 120.9856 120.9856h109.2096c66.7136 0 120.9856-54.272 120.9856-120.9856V253.184c-0.0512-66.7136-54.3232-120.9856-120.9856-120.9856z" fill="#F23D4F" ></path><path d="M361.5232 541.3376H252.2624c-66.7136 0-120.9856 54.272-120.9856 120.9856v109.2096c0 66.7136 54.272 120.9856 120.9856 120.9856H361.472c66.7136 0 120.9856-54.272 120.9856-120.9856v-109.2096c0-66.7136-54.272-120.9856-120.9344-120.9856z" fill="#FC4956" ></path><path d="M775.9872 535.6544h-109.2096c-66.7136 0-120.9856 54.272-120.9856 120.9856v109.2096c0 66.7136 54.272 120.9856 120.9856 120.9856h109.2096c66.7136 0 120.9856-54.272 120.9856-120.9856v-109.2096c-0.0512-66.7136-54.3232-120.9856-120.9856-120.9856z" fill="#F23D4F" ></path><path d="M775.9872 132.1984h-109.2096c-66.7136 0-120.9856 54.272-120.9856 120.9856v109.2096c0 66.7136 54.272 120.9856 120.9856 120.9856h109.2096c25.9072 0 49.8688-8.2432 69.5808-22.1696 17.5616-57.9072 27.0336-119.3472 27.0336-182.9888 0-37.0176-3.2256-73.3184-9.3696-108.5952-22.0672-22.9888-52.992-37.4272-87.2448-37.4272zM814.6944 542.1568c-12.1856-4.1472-25.1904-6.5024-38.7584-6.5024h-109.2096c-66.7136 0-120.9856 54.272-120.9856 120.9856v109.2096c0 20.3776 5.12 39.5776 14.0288 56.4224 111.1552-64.768 200.6016-162.6624 254.9248-280.1152z" fill="#FC4956" ></path><path d="M666.7264 132.1984c-66.7136 0-120.9856 54.272-120.9856 120.9856v109.2096c0 27.9552 9.6256 53.6064 25.6 74.1376 66.1504-86.528 110.3872-190.7712 124.3136-304.3328h-28.928zM131.2768 662.3232v18.944c113.0496-10.752 217.344-51.3536 304.9472-113.8688-20.5824-16.2304-46.5408-26.0096-74.752-26.0096H252.2624c-66.7136-0.0512-120.9856 54.2208-120.9856 120.9344z" fill="#FF5C64" ></path><path d="M443.5456 170.1888c-21.6064-20.0192-50.3808-32.3584-82.0736-32.3584H252.2624c-66.7136 0-120.9856 54.272-120.9856 120.9856v109.2096c0 17.8688 3.9936 34.816 11.008 50.0736 124.7744-48.8448 230.0928-136.3968 301.2608-247.9104z" fill="#FF716E" ></path></svg>