<svg viewBox="0 0 1024 1024" version="1.1" xmlns="http://www.w3.org/2000/svg"><path d="M430.3872 475.0848H166.2976c-24.4736 0-44.3392-19.8656-44.3392-44.3392V166.7072c0-24.4736 19.8656-44.3392 44.3392-44.3392h264.0896c24.4736 0 44.3392 19.8656 44.3392 44.3392v264.0896c-0.0512 24.4736-19.8656 44.288-44.3392 44.288z" fill="#8486F8" ></path><path d="M857.856 475.0848h-264.0896c-24.4736 0-44.3392-19.8656-44.3392-44.3392V166.7072c0-24.4736 19.8656-44.3392 44.3392-44.3392h264.0896c24.4736 0 44.3392 19.8656 44.3392 44.3392v264.0896c0 24.4736-19.8656 44.288-44.3392 44.288zM430.3872 896.8192H166.2976c-24.4736 0-44.3392-19.8656-44.3392-44.3392v-264.0896c0-24.4736 19.8656-44.3392 44.3392-44.3392h264.0896c24.4736 0 44.3392 19.8656 44.3392 44.3392v264.0896c-0.0512 24.5248-19.8656 44.3392-44.3392 44.3392z" fill="#757BF2" ></path><path d="M857.856 896.8192h-264.0896c-24.4736 0-44.3392-19.8656-44.3392-44.3392v-264.0896c0-24.4736 19.8656-44.3392 44.3392-44.3392h264.0896c24.4736 0 44.3392 19.8656 44.3392 44.3392v264.0896c0 24.5248-19.8656 44.3392-44.3392 44.3392z" fill="#6C6CEA" ></path><path d="M868.096 551.0656c-8.5504-4.4032-18.2784-6.9632-28.5696-6.9632h-227.4304c-34.6112 0-62.6688 28.0576-62.6688 62.6688v227.4304c0 7.9872 1.536 15.616 4.3008 22.6304 137.472-61.5424 249.1904-170.3424 314.368-305.7664z" fill="#757BF2" ></path><path d="M121.9584 606.7712v79.104c128.256-0.512 247.5008-38.912 347.2896-104.5504-9.7792-21.9136-31.6928-37.1712-57.1904-37.1712H184.6272c-34.6112-0.0512-62.6688 28.0064-62.6688 62.6176zM752.2816 122.368h-140.1856c-34.6112 0-62.6688 28.0576-62.6688 62.6688v227.4304c0 28.672 19.2512 52.7872 45.568 60.2112 85.0944-95.3856 141.9264-216.5248 157.2864-350.3104z" fill="#8486F8" ></path><path d="M474.6752 197.6832v-12.6464c0-34.6112-28.0576-62.6688-62.6688-62.6688H184.6272c-34.6112 0-62.6688 28.0576-62.6688 62.6688v227.4304c0 9.0624 1.9968 17.664 5.4272 25.4464 141.4656-38.6048 263.3216-124.7744 347.2896-240.2304z" fill="#8D92F8" ></path></svg>