<svg viewBox="0 0 1024 1024" version="1.1" xmlns="http://www.w3.org/2000/svg"><path d="M732.5184 303.2064h116.6336l-172.032-191.6416v139.264c0 28.8768 24.8832 52.3776 55.3984 52.3776z" fill="#39A5E9" ></path><path d="M732.5184 392.8576c-79.9744 0-145.0496-63.744-145.0496-142.0288V95.0272H319.0272C233.472 95.0272 163.84 164.608 163.84 250.2144v533.0944c0 85.6064 69.632 155.1872 155.2384 155.1872h402.1248c85.6064 0 155.2384-69.632 155.2384-155.1872V392.8576h-143.9232zM357.3248 312.5248h163.4816c24.7808 0 44.8512 20.0704 44.8512 44.8512s-20.0704 44.8512-44.8512 44.8512H357.3248c-24.7808 0-44.8512-20.0704-44.8512-44.8512s20.0704-44.8512 44.8512-44.8512z m322.7648 433.5616H357.3248c-24.7808 0-44.8512-20.0704-44.8512-44.8512s20.0704-44.8512 44.8512-44.8512h322.7648c24.7808 0 44.8512 20.0704 44.8512 44.8512-0.0512 24.7808-20.1216 44.8512-44.8512 44.8512z m0-171.9296H357.3248c-24.7808 0-44.8512-20.0704-44.8512-44.8512s20.0704-44.8512 44.8512-44.8512h322.7648c24.7808 0 44.8512 20.0704 44.8512 44.8512s-20.1216 44.8512-44.8512 44.8512z" fill="#3A9CED" ></path><path d="M876.3904 412.2624v-19.4048h-143.8208c-79.9744 0-145.0496-63.744-145.0496-142.0288V95.0272H319.0272C233.472 95.0272 163.84 164.608 163.84 250.2144v533.0944c0 61.2864 35.6864 114.3808 87.3984 139.5712 8.448 0.3584 16.9472 0.5632 25.4976 0.5632 302.6944 0.0512 553.6256-221.44 599.6544-511.1808zM357.3248 312.5248h163.4816c24.7808 0 44.8512 20.0704 44.8512 44.8512s-20.0704 44.8512-44.8512 44.8512H357.3248c-24.7808 0-44.8512-20.0704-44.8512-44.8512s20.0704-44.8512 44.8512-44.8512z m0 171.9808h322.7648c24.7808 0 44.8512 20.0704 44.8512 44.8512s-20.0704 44.8512-44.8512 44.8512H357.3248c-24.7808 0-44.8512-20.0704-44.8512-44.8512s20.0704-44.8512 44.8512-44.8512z m0 261.5808c-24.7808 0-44.8512-20.0704-44.8512-44.8512s20.0704-44.8512 44.8512-44.8512h322.7648c24.7808 0 44.8512 20.0704 44.8512 44.8512s-20.0704 44.8512-44.8512 44.8512H357.3248z" fill="#39A5E9" ></path><path d="M327.4752 667.904a44.66688 44.66688 0 0 1 27.5968-11.3664c48.9472-21.5552 94.464-49.3568 135.6288-82.432H357.3248c-24.7808 0-44.8512-20.0704-44.8512-44.8512s20.0704-44.8512 44.8512-44.8512h223.744a607.5904 607.5904 0 0 0 73.5744-114.0224c-40.3456-25.2416-67.1744-69.376-67.1744-119.6544V95.0272H319.0272C233.472 95.0272 163.84 164.608 163.84 250.2144v455.2704c57.1904-4.9664 112.0768-17.8688 163.6352-37.5808z m29.8496-355.3792h163.4816c24.7808 0 44.8512 20.0704 44.8512 44.8512s-20.0704 44.8512-44.8512 44.8512H357.3248c-24.7808 0-44.8512-20.0704-44.8512-44.8512s20.0704-44.8512 44.8512-44.8512zM677.12 111.5648v139.264c0 12.544 4.7104 24.064 12.4928 33.1264 13.1072-41.472 21.9136-84.8896 25.8048-129.6896l-38.2976-42.7008z" fill="#55B5F3" ></path><path d="M316.4672 375.7568c-2.5088-5.632-3.9936-11.8272-3.9936-18.3808 0-24.7808 20.0704-44.8512 44.8512-44.8512h32.4096c60.4672-61.184 108.0832-135.168 138.3424-217.5488H319.0272C233.472 95.0272 163.84 164.608 163.84 250.2144v206.848c54.9888-19.8144 106.2912-47.36 152.6272-81.3056z" fill="#6BC2FC" ></path></svg>