<svg viewBox="0 0 1024 1024" version="1.1" xmlns="http://www.w3.org/2000/svg"><path d="M912.2816 846.3872l-96.1536-94.6176c57.0368-69.8368 91.3408-158.9248 91.3408-255.9488 0-223.3344-181.7088-405.0944-405.0944-405.0944s-405.0432 181.76-405.0432 405.0944 181.7088 405.0944 405.0944 405.0944c90.3168 0 173.824-29.7472 241.3056-79.9232l98.304 96.768a49.8176 49.8176 0 0 0 35.1232 14.3872c12.9536 0 25.9072-5.0176 35.6864-14.9504 19.3536-19.712 19.1488-51.4048-0.5632-70.8096zM648.1408 501.248h-96.3584v42.3424h79.1552c27.648 0 50.0736 22.4256 50.0736 50.0736 0 27.648-22.4256 50.0736-50.0736 50.0736h-79.1552v41.2672c0 27.648-22.4256 50.0736-50.0736 50.0736-27.648 0-50.0736-22.4256-50.0736-50.0736v-41.2672H369.6128c-27.648 0-50.0736-22.4256-50.0736-50.0736 0-27.648 22.4256-50.0736 50.0736-50.0736H451.584V501.248H352.4096c-27.648 0-50.0736-22.4256-50.0736-50.0736 0-27.648 22.4256-50.0736 50.0736-50.0736h57.088l-42.6496-37.4272c-20.7872-18.2272-22.8352-49.8688-4.608-70.656 18.2272-20.7872 49.8688-22.8352 70.656-4.608l67.6352 59.392 62.3104-58.3168c20.1728-18.8928 51.8656-17.8688 70.7584 2.3552 18.8928 20.1728 17.8688 51.8656-2.3552 70.7584l-41.1136 38.5024h57.9072c27.648 0 50.0736 22.4256 50.0736 50.0736 0.0512 27.648-22.3232 50.0736-49.9712 50.0736z" fill="#05C46D" ></path><path d="M850.1248 312.5248c0-8.448-0.2048-16.8448-0.5632-25.2416-70.9632-117.6576-199.9872-196.5568-347.136-196.5568-223.3856 0-405.0944 181.7088-405.0944 405.0944 0 206.6944 155.6992 377.6512 355.9424 401.9712 232.4992-92.6208 396.8512-319.744 396.8512-585.2672zM319.5392 593.664c0-27.648 22.4256-50.0736 50.0736-50.0736H451.584V501.248H352.4096c-27.648 0-50.0736-22.4256-50.0736-50.0736 0-27.648 22.4256-50.0736 50.0736-50.0736h57.088l-42.6496-37.4272c-20.7872-18.2272-22.8352-49.8688-4.608-70.656 18.2272-20.7872 49.8688-22.8352 70.656-4.608l67.6352 59.392 62.3104-58.3168c20.1728-18.8928 51.8656-17.8688 70.7584 2.3552 18.8928 20.1728 17.8688 51.8656-2.3552 70.7584l-41.1136 38.5024h57.9072c27.648 0 50.0736 22.4256 50.0736 50.0736 0 27.648-22.4256 50.0736-50.0736 50.0736h-96.3584v42.3424h79.1552c27.648 0 50.0736 22.4256 50.0736 50.0736 0 27.648-22.4256 50.0736-50.0736 50.0736h-79.1552v41.2672c0 27.648-22.4256 50.0736-50.0736 50.0736-27.648 0-50.0736-22.4256-50.0736-50.0736v-41.2672h-81.92c-27.648 0-50.0736-22.4256-50.0736-50.0736z" fill="#1DCE75" ></path><path d="M590.2336 401.1008h4.864c1.792-3.1744 3.584-6.3488 5.3248-9.5744l-10.1888 9.5744zM97.3312 495.8208c0 78.1824 22.3232 151.2448 60.8768 213.1968 69.1712-12.1856 134.4512-35.7376 193.8944-68.5568-18.9952-7.1168-32.512-25.3952-32.512-46.848 0-27.648 22.4256-50.0736 50.0736-50.0736h81.9712V501.248H352.4096c-27.648 0-50.0736-22.4256-50.0736-50.0736 0-27.648 22.4256-50.0736 50.0736-50.0736h57.088l-42.6496-37.4272c-20.7872-18.2272-22.8352-49.8688-4.608-70.656 18.2272-20.7872 49.8688-22.8352 70.656-4.608l67.6352 59.392 62.3104-58.3168c20.1728-18.8928 51.8656-17.8688 70.7584 2.3552 2.8672 3.072 5.2224 6.4512 7.2192 9.984 19.456-54.1696 31.6928-111.8208 35.584-171.7248a402.79552 402.79552 0 0 0-174.0288-39.3728c-223.3344 0.0512-405.0432 181.76-405.0432 405.0944z" fill="#3CD38E" ></path><path d="M99.0208 460.0832c173.9264-61.2864 312.832-196.8128 378.7264-368.5376-200.0384 12.1344-361.2672 169.984-378.7264 368.5376z" fill="#48E1AA" ></path></svg>