<svg viewBox="0 0 1024 1024" version="1.1" xmlns="http://www.w3.org/2000/svg"><path d="M99.4816 914.5344v-61.3376c0-8.448 6.8096-15.3088 15.2576-15.4112 9.216-0.1024 18.176-0.2048 29.696-0.2048v-29.5424-495.36c0-66.816 18.688-94.3104 81.0496-119.2448 85.3504-34.1504 170.5472-68.7104 256.2048-102.0928 59.5456-23.1936 112.0256 0.4096 129.9968 58.1632 4.2496 13.7216 4.352 29.0816 4.4032 43.6736 0.256 204.544 0.1536 409.088 0.1536 613.632v30.4128h95.3344v-30.0544c0-128.1536-0.0512-256.3072 0.0512-384.4608 0.0512-45.4656 17.2544-49.8176 65.536-21.9136 28.8256 16.6912 59.3408 30.0544 89.9072 43.1616 25.0368 10.7008 34.5088 25.9072 34.1504 53.2992-1.4336 103.4752-0.5632 207.0016-0.5632 310.528v29.696h28.5184c8.4992 0 15.4112 6.912 15.4112 15.4112v61.5424c0 8.4992-6.912 15.4112-15.4112 15.4112H114.8416c-8.448 0.1024-15.36-6.8096-15.36-15.3088z m186.0608-455.168h189.5424c25.6 0 46.3872-20.7872 46.3872-46.3872 0-25.6-20.7872-46.3872-46.3872-46.3872H285.5424c-25.6 0-46.3872 20.7872-46.3872 46.3872 0 25.6 20.7872 46.3872 46.3872 46.3872z m0.2048 236.6464h188.5696c25.8048 0 46.7456-20.9408 46.7456-46.7456 0-25.8048-20.9408-46.7456-46.7456-46.7456H285.7472c-25.8048 0-46.7456 20.9408-46.7456 46.7456a46.6944 46.6944 0 0 0 46.7456 46.7456z" fill="#FF8E12" ></path><path d="M658.944 837.376h-42.7008v-30.4128c0-204.544 0.1024-409.088-0.1536-613.632 0-14.592-0.1024-30.0032-4.4032-43.6736-17.9712-57.7536-70.4512-81.3568-129.9968-58.1632-85.6576 33.28-170.8544 67.8912-256.2048 102.0416-62.3616 24.9344-81.0496 52.4288-81.0496 119.2448v524.9024c-11.52 0-20.5312 0.1024-29.696 0.2048a15.42656 15.42656 0 0 0-15.2576 15.4112v61.3376c0 8.4992 6.912 15.4112 15.4112 15.4112h379.4944a642.64704 642.64704 0 0 0 164.5568-92.672zM285.5424 366.5408h189.5424c25.6512 0 46.3872 20.7872 46.3872 46.3872 0 25.6-20.7872 46.3872-46.3872 46.3872H285.5424c-25.6 0-46.3872-20.7872-46.3872-46.3872 0-25.6 20.7872-46.3872 46.3872-46.3872z m-46.5408 282.7264c0-25.8048 20.9408-46.7456 46.7456-46.7456h188.5696c25.8048 0 46.7456 20.9408 46.7456 46.7456 0 25.8048-20.9408 46.7456-46.7456 46.7456H285.7472a46.6944 46.6944 0 0 1-46.7456-46.7456zM711.5776 791.6032c90.112-87.296 154.624-200.8576 181.1456-328.3456-5.4784-7.936-13.7728-14.08-25.6512-19.2-30.6176-13.1072-61.0816-26.5216-89.9072-43.1616-48.2816-27.9552-65.4848-23.552-65.536 21.9136-0.1024 122.9312-0.0512 245.8624-0.0512 368.7936z" fill="#FCA315" ></path><path d="M337.152 696.0128H285.7472c-25.8048 0-46.7456-20.9408-46.7456-46.7456 0-25.8048 20.9408-46.7456 46.7456-46.7456h188.5696c5.6832 0 11.1104 1.0752 16.1792 2.9184a642.2016 642.2016 0 0 0 125.7472-133.888c0-92.7744-0.0512-185.5488-0.1536-278.3232 0-14.592-0.1024-30.0032-4.4032-43.6736-17.9712-57.7536-70.4512-81.3568-129.9968-58.1632-85.6576 33.3824-170.8544 67.9936-256.2048 102.144-62.3616 24.9344-81.0496 52.4288-81.0496 119.2448v429.7728c67.7888-5.4784 132.5568-21.5552 192.7168-46.5408zM285.5424 366.5408h189.5424c25.6512 0 46.3872 20.7872 46.3872 46.3872 0 25.6-20.7872 46.3872-46.3872 46.3872H285.5424c-25.6 0-46.3872-20.7872-46.3872-46.3872 0-25.6 20.7872-46.3872 46.3872-46.3872z" fill="#FCB138" ></path><path d="M245.504 436.2752a46.11584 46.11584 0 0 1-6.2976-23.296c0-25.6512 20.7872-46.3872 46.3872-46.3872h59.7504c87.5008-74.3936 154.7264-171.9296 192.1536-283.136-17.152-2.0992-36.0448 0.3072-55.7568 7.9872-85.7088 33.3312-170.9056 67.9424-256.256 102.0928-62.3616 24.9344-81.0496 52.4288-81.0496 119.2448v169.472c35.2256-12.4416 68.9664-27.8528 101.0688-45.9776z" fill="#FFC65E" ></path></svg>