<svg viewBox="0 0 1024 1024" version="1.1" xmlns="http://www.w3.org/2000/svg"><path d="M305.4592 118.272h-24.0128C225.28 118.272 179.7632 163.84 179.7632 220.0064V803.328c0 56.1664 45.5168 101.7344 101.7344 101.7344h24.0128V118.272z" fill="#C65EDB" ></path><path d="M626.8416 287.4368l54.7328 25.6V118.272h-141.568v194.7648l54.7328-25.6c10.1376-4.7616 21.9136-4.7616 32.1024 0z" fill="#CA6EE0" ></path><path d="M757.4528 119.5008v253.184c0 12.9536-6.6048 25.0368-17.5616 32a37.90336 37.90336 0 0 1-36.4544 2.3552l-92.672-43.3664-92.672 43.3664c-11.776 5.4784-25.4976 4.608-36.4544-2.3552a37.90848 37.90848 0 0 1-17.5616-32V118.272H381.3376v786.7904h360.96c56.1664 0 101.7344-45.5168 101.7344-101.7344V220.0064c0-51.0464-37.5808-93.184-86.5792-100.5056z" fill="#BD50D3" ></path><path d="M844.032 220.0064c0-51.0464-37.632-93.184-86.6304-100.4544V372.736c0 12.9536-6.6048 25.0368-17.5616 32a37.90336 37.90336 0 0 1-36.4544 2.3552l-92.672-43.3664-92.672 43.3664c-11.776 5.4784-25.4976 4.608-36.4544-2.3552a37.90848 37.90848 0 0 1-17.5616-32V118.272H381.3376v786.7904h1.1264c218.2656-35.0208 395.9296-191.4368 461.568-397.7728V220.0064z" fill="#C65EDB" ></path><path d="M651.6224 382.8224l-40.8576-19.0976-92.672 43.3664c-11.776 5.4784-25.4976 4.608-36.4544-2.3552a37.90848 37.90848 0 0 1-17.5616-32V118.272H381.3376v530.8416c117.0944-56.064 212.5312-150.1696 270.2848-266.2912zM179.7632 220.0064v483.7888c43.4176-3.6352 85.504-12.032 125.696-24.6784V118.272h-24.0128C225.28 118.272 179.7632 163.84 179.7632 220.0064z" fill="#CA6EE0" ></path><path d="M381.3376 343.2448c30.9248-28.928 58.6752-61.1328 82.7392-96.1536V118.272H381.3376v224.9728zM179.7632 220.0064v246.272c44.6976-15.9232 86.8352-37.2224 125.696-63.0272V118.272h-24.0128C225.28 118.272 179.7632 163.84 179.7632 220.0064z" fill="#D786EA" ></path></svg>