<svg viewBox="0 0 1024 1024" version="1.1" xmlns="http://www.w3.org/2000/svg"><path d="M732.3136 89.0368H334.7968c-67.84 0-122.9824 55.1936-122.9824 122.9824v13.568c-27.392 13.3632-46.2848 41.4208-46.2848 73.9328v542.8736c0 45.4656 36.864 82.3296 82.3296 82.3296h397.5168c40.448 0 73.984-29.184 80.9472-67.6352h6.0416c67.84 0 122.9824-55.1936 122.9824-122.9824V212.0192c-0.0512-67.84-55.2448-122.9824-123.0336-122.9824z m-114.6368 439.8592l-42.5984 41.5232 10.0352 58.6752c3.84 22.3744-5.1712 44.544-23.552 57.9072-18.3808 13.3632-42.24 15.0528-62.3104 4.5056l-52.6848-27.6992-52.6848 27.6992c-8.7552 4.608-18.176 6.8608-27.5968 6.8608-12.2368 0-24.3712-3.84-34.7136-11.3664-18.3808-13.3632-27.392-35.5328-23.552-57.9072l10.0352-58.624-42.5984-41.5232c-16.2304-15.8208-22.016-39.0656-15.0016-60.672 7.0144-21.6064 25.2928-37.0176 47.7696-40.2944l58.88-8.5504 26.3168-53.3504c10.0352-20.3776 30.3616-32.9728 53.0944-32.9728 22.6816 0 43.008 12.6464 53.0432 32.9728l26.3168 53.3504 58.88 8.5504c22.4768 3.2768 40.7552 18.688 47.7696 40.2944s1.3824 44.8-14.848 60.6208z m156.2624 205.2608c0 22.9888-18.688 41.6768-41.6768 41.6768h-4.6592V299.52c0-45.4656-36.864-82.3296-82.3296-82.3296H293.12v-5.1712c0-22.9888 18.688-41.6768 41.6768-41.6768h397.5168c22.9888 0 41.6768 18.688 41.6768 41.6768v522.1376z" fill="#BD50D3" ></path><path d="M458.1888 465.8176l-11.6224-23.552-11.6224 23.552a59.07968 59.07968 0 0 1-44.544 32.3584l-26.0096 3.7888 18.7904 18.3296a59.136 59.136 0 0 1 16.9984 52.3776l-4.4544 25.9072 23.2448-12.2368c8.6016-4.5568 18.0736-6.8096 27.5456-6.8096s18.944 2.2528 27.5456 6.8096l23.2448 12.2368-4.4544-25.9072c-3.2768-19.2 3.072-38.7584 16.9984-52.3776l18.8416-18.3296-26.0096-3.7888c-19.2-2.7648-35.84-14.848-44.4928-32.3584z" fill="#C65EDB" ></path><path d="M426.7008 402.0224z" fill="#BD50D3" ></path><path d="M855.296 446.3616V212.0192c0-67.84-55.1936-122.9824-122.9824-122.9824H334.7968c-67.84 0-122.9824 55.1936-122.9824 122.9824v13.568c-27.392 13.3632-46.2848 41.4208-46.2848 73.9328v542.8736c0 31.5904 17.8176 58.9824 43.9296 72.8064 16.6912 1.3824 33.536 2.0992 50.5856 2.0992 187.5968 0 355.4816-84.5312 467.6608-217.4976V299.52c0-45.4656-36.864-82.3296-82.3296-82.3296h-352.256v-5.1712c0-22.9888 18.688-41.6768 41.6768-41.6768h397.5168c22.9888 0 41.6768 18.688 41.6768 41.6768v425.3184a608.8192 608.8192 0 0 0 81.3056-190.976zM308.2752 427.9808l58.88-8.5504 26.3168-53.3504c10.0352-20.3776 30.3616-32.9728 53.0944-32.9728 22.6816 0 43.008 12.6464 53.0432 32.9728l26.3168 53.3504 58.88 8.5504c22.4768 3.2768 40.7552 18.688 47.7696 40.2944 7.0144 21.6064 1.28 44.8512-15.0016 60.672l-42.5984 41.5232 10.0352 58.6752c3.84 22.3744-5.1712 44.544-23.552 57.9072-18.3808 13.3632-42.24 15.0528-62.3104 4.5056l-52.6848-27.6992-52.6848 27.6992c-8.7552 4.608-18.176 6.8608-27.5968 6.8608-12.2368 0-24.3712-3.84-34.7136-11.3664-18.3808-13.312-27.392-35.5328-23.552-57.9072l10.0352-58.624-42.5984-41.5232c-16.2304-15.8208-22.016-39.0656-15.0016-60.672 7.168-21.6576 25.4464-37.12 47.9232-40.3456z" fill="#C65EDB" ></path><path d="M645.3248 217.1904H293.12v-5.1712c0-22.9888 18.688-41.6768 41.6768-41.6768h364.032c3.5328-26.624 5.4272-53.76 5.4272-81.3568H334.7968c-67.84 0-122.9824 55.1936-122.9824 122.9824v13.568c-27.392 13.3632-46.2848 41.4208-46.2848 73.9328v396.288c50.688-5.9904 99.4304-18.2272 145.5104-35.84-3.6352-9.6256-4.8128-20.224-2.9696-30.9248l10.0352-58.624-42.5984-41.5232c-16.2304-15.8208-22.016-39.0656-15.0016-60.672 7.0144-21.6064 25.2928-37.0176 47.7696-40.2944l58.88-8.5504 26.3168-53.3504c10.0352-20.3776 30.3616-32.9728 53.0944-32.9728 22.6816 0 43.008 12.6464 53.0432 32.9728l26.3168 53.3504 58.88 8.5504c4.9152 0.7168 9.5744 2.0992 14.0288 3.9424a608.21504 608.21504 0 0 0 89.088-202.6496 81.75616 81.75616 0 0 0-42.5984-11.9808z" fill="#CA6EE0" ></path><path d="M502.784 498.2272c-19.3024-2.816-35.9424-14.8992-44.544-32.3584l-11.6224-23.552-11.6224 23.552a59.07968 59.07968 0 0 1-44.544 32.3584l-26.0096 3.7888 18.7904 18.3296c13.9264 13.568 20.3264 33.1776 16.9984 52.3776l-4.4544 25.9072 23.2448-12.2368c8.6016-4.5568 18.0736-6.8096 27.5456-6.8096 3.2256 0 6.4 0.3584 9.5744 0.8704 12.8-9.472 25.1904-19.4048 37.2224-29.7984 2.3552-11.3664 8.0384-21.9648 16.5888-30.3104l18.8416-18.3296-26.0096-3.7888z" fill="#CA6EE0" ></path><path d="M293.12 212.0192c0-22.9888 18.688-41.6768 41.6768-41.6768h138.1376c14.5408-26.0096 27.2384-53.1456 37.9392-81.3568H334.7968c-67.84 0-122.9824 55.1936-122.9824 122.9824v13.568c-27.392 13.3632-46.2848 41.4208-46.2848 73.9328V440.32C279.04 395.0592 375.7568 316.7232 443.904 217.1904H293.12v-5.1712z" fill="#D786EA" ></path></svg>