<svg viewBox="0 0 1024 1024" version="1.1" xmlns="http://www.w3.org/2000/svg"><path d="M688.384 353.8432c-12.8 0-25.4976-5.4784-34.4064-16.0256-15.872-18.9952-13.3632-47.2576 5.5808-63.1296l121.6-101.7856c18.9952-15.9232 47.2576-13.3632 63.1296 5.5808 15.872 18.9952 13.3632 47.2576-5.5808 63.1296l-121.6 101.7856a44.55936 44.55936 0 0 1-28.7232 10.4448zM809.9328 847.872c-10.1376 0-20.3776-3.4304-28.7232-10.4448l-121.6-101.7856c-18.9952-15.872-21.504-44.1344-5.5808-63.1296 15.872-18.9952 44.1344-21.504 63.1296-5.5808l121.6 101.7856c18.9952 15.872 21.504 44.1344 5.5808 63.1296a44.70272 44.70272 0 0 1-34.4064 16.0256zM892.928 553.6768h-169.6768c-24.7296 0-44.8-20.0704-44.8-44.8s20.0704-44.8 44.8-44.8h169.6768c24.7296 0 44.8 20.0704 44.8 44.8s-20.0704 44.8-44.8 44.8zM508.5696 185.9072L302.08 322.2016a77.1072 77.1072 0 0 1-45.1072 14.592H170.3936c-42.5472 0-77.056 34.5088-77.056 77.056v199.5264c0 42.5472 34.5088 77.056 77.056 77.056h114.2272c16.0256 0 31.6928 5.0176 44.7488 14.336l179.5072 115.2c35.9936 25.6512 85.9648-0.0512 85.9648-44.288V229.9904c-0.0512-44.3392-50.2784-70.0416-86.272-44.0832zM312.5248 586.752c0 24.7296-20.0704 44.8-44.8 44.8s-44.8-20.0704-44.8-44.8V434.7904c0-24.7296 20.0704-44.8 44.8-44.8s44.8 20.0704 44.8 44.8v151.9616z" fill="#FF3369" ></path><path d="M594.7904 662.7328V229.9904c0-44.3392-50.2272-70.0416-86.2208-44.0832L302.08 322.2016a77.1072 77.1072 0 0 1-45.1072 14.592H170.3936c-42.5472 0-77.056 34.5088-77.056 77.056v199.5264c0 42.5472 34.5088 77.056 77.056 77.056h114.2272c16.0256 0 31.6928 5.0176 44.7488 14.336l99.4304 63.7952a438.85568 438.85568 0 0 0 165.9904-105.8304zM312.5248 586.752c0 24.7296-20.0704 44.8-44.8 44.8s-44.8-20.0704-44.8-44.8V434.7904c0-24.7296 20.0704-44.8 44.8-44.8s44.8 20.0704 44.8 44.8v151.9616zM678.4512 508.8768c0 7.9872 2.0992 15.4112 5.7344 21.9136a431.5648 431.5648 0 0 0 22.1184-63.3856 44.78976 44.78976 0 0 0-27.8528 41.472zM704.6144 236.9536l-45.056 37.6832c-18.9952 15.872-21.504 44.1344-5.5808 63.1296a44.62592 44.62592 0 0 0 34.4064 16.0256c10.1376 0 20.3264-3.4304 28.7232-10.4448l3.3792-2.816a435.07712 435.07712 0 0 0-15.872-103.5776z" fill="#FF4D7C" ></path><path d="M302.5408 614.912c151.1424-50.9952 265.3696-182.016 292.2496-342.7328v-42.1376c0-44.3392-50.2272-70.0416-86.2208-44.0832L302.08 322.2016a77.1072 77.1072 0 0 1-45.1072 14.592H170.3936c-42.5472 0-77.056 34.5088-77.056 77.056v199.5264c0 6.7584 0.9728 13.312 2.6112 19.5584 21.6576 3.2768 43.8272 5.0176 66.4064 5.0176 30.7712 0 60.7744-3.1744 89.7024-9.216-17.0496-6.3488-29.184-22.7328-29.184-41.9328V434.7904c0-24.7296 20.0704-44.8 44.8-44.8s44.8 20.0704 44.8 44.8v151.9616c0.0512 10.6496-3.6864 20.4288-9.9328 28.16z" fill="#FF5F89" ></path><path d="M452.5056 222.9248L302.08 322.2016a77.1072 77.1072 0 0 1-45.1072 14.592H170.3936c-42.5472 0-77.056 34.5088-77.056 77.056V480.768c45.568-4.2496 89.1392-15.4112 129.5872-32.512v-13.4144c0-24.7296 20.0704-44.8 44.8-44.8 13.312 0 25.2416 5.8368 33.4336 15.0528a440.58624 440.58624 0 0 0 151.3472-182.1696z" fill="#FF7196" ></path></svg>