<svg viewBox="0 0 1024 1024" version="1.1" xmlns="http://www.w3.org/2000/svg"><path d="M191.0272 240.896c-20.736 0-40.4992-1.024-60.1088 0.2048-34.2016 2.1504-64.0512-39.2192-47.36-77.6192 6.5024-15.0016 19.9168-22.1696 35.84-22.4768 32.6656-0.5632 65.3824-0.768 97.9968 0.1536 27.2896 0.768 42.5472 12.8512 49.408 39.4752 3.84 14.848 4.3008 30.5152 6.2464 45.824 1.7408 13.6704 3.328 27.392 5.0688 41.6256H885.248c15.5136 0 30.3616 2.56 43.1616 11.9808 14.9504 11.008 18.9952 28.7744 11.3664 50.944-10.3424 30.2592-21.2992 60.3648-31.5904 90.6752-11.8272 34.8672-22.4768 70.1952-35.072 104.8064-12.0832 33.2288-34.56 51.4048-71.3216 51.2512-147.8656-0.6656-295.7312-0.3072-443.5968-0.3072h-13.2096c4.096 24.7296 8.2944 48.5888 11.8784 72.4992 1.0752 7.168 5.632 6.5536 10.5472 6.5536h162.0992c87.04 0 174.08-0.0512 261.12 0.1024 8.6528 0 17.5104 0.6144 26.0096 2.2016 12.7488 2.4576 20.4288 11.008 22.4256 23.7056 4.0448 25.3952-7.0144 51.1488-40.8576 51.0464-150.4256-0.5632-300.9024-0.8192-451.328 0.1536-39.1168 0.256-60.1088-22.9888-68.864-57.4976-13.9264-55.04-23.6032-111.1552-34.6112-166.912-16.8448-85.6064-33.28-171.3664-49.92-257.024-0.6656-3.3792-1.4848-6.8096-2.4576-11.3664zM735.5392 920.9344c-36.9664 1.6896-84.224-39.1168-82.3296-79.872 2.0992-46.0288 32.512-81.2544 80.128-81.9712 47.3088-0.7168 83.968 34.0992 84.8384 79.4624 0.8704 43.776-38.2976 82.2272-82.6368 82.3808zM369.3056 917.2992c-44.544 0.0512-80.7936-35.2768-81.152-79.104-0.3584-42.3936 36.3008-79.9232 78.336-80.2816 46.2336-0.3584 84.48 35.6352 84.3776 79.4112-0.1024 44.2368-36.5056 79.9232-81.5616 79.9744z" fill="#FC7032" ></path><path d="M293.12 268.1344h-15.0528c-1.7408-14.2336-3.3792-27.9552-5.0688-41.6256-1.9456-15.3088-2.4064-30.976-6.2464-45.824-6.8608-26.624-22.0672-38.7072-49.408-39.4752-32.6656-0.9216-65.3312-0.7168-97.9968-0.1536-15.9232 0.256-29.3376 7.4752-35.84 22.4768-16.64 38.4512 13.1584 79.7696 47.36 77.6192 19.6096-1.2288 39.3728-0.2048 60.1088-0.2048 0.9728 4.5568 1.792 7.9872 2.4576 11.4688 16.64 85.6576 33.0752 171.3664 49.92 257.024 10.9568 55.7568 20.6336 111.872 34.6112 166.912 8.7552 34.5088 29.696 57.7536 68.864 57.4976 96.1536-0.6144 192.256-0.7168 288.4096-0.5632 29.9008-22.9888 57.6512-48.64 82.8928-76.5952-62.8736-0.0512-125.7984-0.0512-188.672-0.0512H367.36c-4.9152 0-9.472 0.6656-10.5472-6.5536-3.584-23.9104-7.7824-47.7184-11.8784-72.4992h13.2096c140.1344 0 280.2688-0.3584 420.4032 0.2048 58.0608-89.856 93.3888-195.7888 97.9456-309.6064-194.4064-0.0512-388.864-0.0512-583.3728-0.0512zM366.4896 757.9136c-42.0352 0.3584-78.6944 37.888-78.336 80.2816 0.0512 7.5776 1.28 14.8992 3.328 21.8624 55.2448-2.8672 108.544-13.0048 159.0272-29.44-3.584-40.6528-40.192-73.0624-84.0192-72.704z" fill="#FF7C33" ></path><path d="M278.1184 268.1344c-1.7408-14.2336-3.3792-27.9552-5.0688-41.6256-1.9456-15.3088-2.4064-30.976-6.2464-45.824-6.8608-26.624-22.0672-38.7072-49.408-39.4752-32.6656-0.9216-65.3312-0.7168-97.9968-0.1536-15.9232 0.256-29.3376 7.4752-35.84 22.4768-16.64 38.4512 13.1584 79.7696 47.36 77.6192 19.6096-1.2288 39.3728-0.2048 60.1088-0.2048 0.9728 4.5568 1.792 7.9872 2.4576 11.4688 16.64 85.6576 33.0752 171.3664 49.92 257.024 7.0144 35.6864 13.5168 71.4752 20.9408 107.0592a614.144 614.144 0 0 0 82.0224-30.5664c-0.4608-2.816-0.9216-5.5296-1.3824-8.3456h18.8416c130.9184-64.8704 235.6224-174.6944 293.7344-309.4016H293.0688c-4.4032-0.0512-8.9088-0.0512-14.9504-0.0512z" fill="#FF8D4D" ></path><path d="M293.12 268.1344h-15.0528c-1.7408-14.2336-3.3792-27.9552-5.0688-41.6256-1.9456-15.3088-2.4064-30.976-6.2464-45.824-6.8608-26.624-22.0672-38.7072-49.408-39.4752-32.6656-0.9216-65.3312-0.7168-97.9968-0.1536-15.9232 0.256-29.3376 7.4752-35.84 22.4768-16.64 38.4512 13.1584 79.7696 47.36 77.6192 19.6096-1.2288 39.3728-0.2048 60.1088-0.2048 0.9728 4.5568 1.792 7.9872 2.4576 11.4688l20.1216 103.8336c47.0016-23.8592 90.5728-53.504 129.6896-88.064-16.6912-0.0512-33.3824-0.0512-50.1248-0.0512z" fill="#FFA56A" ></path></svg>