<svg viewBox="0 0 1024 1024" version="1.1" xmlns="http://www.w3.org/2000/svg"><path d="M331.3152 292.1984c-25.0368 0-45.3632-20.3264-45.3632-45.3632V133.9392c0-25.0368 20.3264-45.3632 45.3632-45.3632s45.3632 20.3264 45.3632 45.3632V246.784c0 25.088-20.3264 45.4144-45.3632 45.4144z" fill="#48E1AA" ></path><path d="M687.7184 292.1984c-25.0368 0-45.3632-20.3264-45.3632-45.3632V133.9392c0-25.0368 20.3264-45.3632 45.3632-45.3632 25.0368 0 45.3632 20.3264 45.3632 45.3632V246.784c0 25.088-20.3264 45.4144-45.3632 45.4144z" fill="#3CD38E" ></path><path d="M820.8384 164.5056h-47.0528v82.3296c0 48.3328-39.168 87.5008-87.5008 87.5008s-87.5008-39.168-87.5008-87.5008V164.5056H418.816v82.3296c0 48.3328-39.168 87.5008-87.5008 87.5008s-87.5008-39.168-87.5008-87.5008V164.5056h-38.4512c-68.7616 0-124.5184 55.7568-124.5184 124.5184v518.144c0 68.7616 55.7568 124.5184 124.5184 124.5184h615.4752c68.7616 0 124.5184-55.7568 124.5184-124.5184V289.024c0-68.7616-55.7568-124.5184-124.5184-124.5184z m-81.8688 326.4l-234.752 232.6016a45.26592 45.26592 0 0 1-31.9488 13.1584h-1.4336a45.42976 45.42976 0 0 1-32.4608-15.2064l-133.12-149.6064c-16.64-18.7392-15.0016-47.4112 3.7376-64.0512s47.4112-15.0016 64.0512 3.7376l101.2736 113.8176 200.7552-198.912c17.8176-17.6128 46.5408-17.5104 64.1536 0.3072 17.664 17.7664 17.5616 46.4896-0.256 64.1536z" fill="#05C46D" ></path><path d="M945.3568 289.024c0-68.7616-55.7568-124.5184-124.5184-124.5184h-47.0528v82.3296c0 48.3328-39.168 87.5008-87.5008 87.5008s-87.5008-39.168-87.5008-87.5008V164.5056H418.816v82.3296c0 48.3328-39.168 87.5008-87.5008 87.5008s-87.5008-39.168-87.5008-87.5008V164.5056h-38.4512c-68.7616 0-124.5184 55.7568-124.5184 124.5184v518.144c0 68.7616 55.7568 124.5184 124.5184 124.5184h246.528c255.1296-61.2352 452.1984-271.6672 493.5168-534.016V289.024z m-206.3872 201.8816l-234.752 232.6016a45.26592 45.26592 0 0 1-31.9488 13.1584h-1.4336a45.42976 45.42976 0 0 1-32.4608-15.2064l-133.12-149.6064c-16.64-18.7392-15.0016-47.4112 3.7376-64.0512s47.4112-15.0016 64.0512 3.7376l101.2736 113.8176 200.7552-198.912c17.8176-17.6128 46.5408-17.5104 64.1536 0.3072 17.664 17.7664 17.5616 46.4896-0.256 64.1536z" fill="#1DCE75" ></path><path d="M119.3984 731.7504c98.048 0 190.976-21.7088 274.4832-60.3136l-88.6272-99.584c-16.64-18.7392-15.0016-47.4112 3.7376-64.0512s47.4112-15.0016 64.0512 3.7376l101.2736 113.8176 195.1744-193.4336c21.76-33.6896 40.6016-69.4272 55.9616-107.008-11.8272 5.9392-25.088 9.3696-39.2192 9.3696-48.3328 0-87.5008-39.168-87.5008-87.5008V164.5056H418.816v82.3296c0 48.3328-39.168 87.5008-87.5008 87.5008s-87.5008-39.168-87.5008-87.5008V164.5056h-38.4512c-68.7616 0-124.5184 55.7568-124.5184 124.5184v441.4976c12.7488 0.768 25.6 1.2288 38.5536 1.2288z" fill="#3CD38E" ></path><path d="M518.0928 164.5056H418.816v82.3296c0 48.3328-39.168 87.5008-87.5008 87.5008s-87.5008-39.168-87.5008-87.5008V164.5056h-38.4512c-68.7616 0-124.5184 55.7568-124.5184 124.5184v184.32c185.9584-36.2496 343.7056-151.1936 437.248-308.8384z" fill="#48E1AA" ></path></svg>