<svg viewBox="0 0 1024 1024" version="1.1" xmlns="http://www.w3.org/2000/svg"><path d="M253.0816 686.08h133.2736c2.56 0 4.6592-2.0992 4.6592-4.6592V314.6752c0-2.56-2.0992-4.6592-4.6592-4.6592H253.0816c-97.6384 0-176.7936 79.1552-176.7936 176.7936v22.528c0 97.5872 79.1552 176.7424 176.7936 176.7424z" fill="#FCB138" ></path><path d="M455.7824 687.2576l296.1408 158.2592c33.6896 17.2032 73.728-7.2704 73.728-45.1072V203.6224c0-37.4272-39.168-61.9008-72.8064-45.568l-296.96 150.8352c-1.4336 0.7168-2.3552 2.2016-2.3552 3.7888v370.8416c-0.0512 1.536 0.8192 3.0208 2.2528 3.7376zM940.2368 498.0224c0-39.424-30.8224-71.68-69.6832-73.984-2.4064-0.1536-4.4032 1.8944-4.4032 4.2496v139.3664c0 2.4064 1.9968 4.4032 4.4032 4.2496 38.8608-2.2016 69.6832-34.4064 69.6832-73.8816z" fill="#FF8E12" ></path><path d="M271.4624 712.6528h90.9312c1.4336 0 2.816 0.768 3.584 1.9968L439.296 830.976c1.28 2.048 0.6144 4.7104-1.4848 5.9392l-90.4192 51.8656a4.2496 4.2496 0 0 1-5.9904-1.9456l-73.7792-168.2432a4.224 4.224 0 0 1 3.84-5.9392zM825.6 203.6224c0-37.4272-39.168-61.9008-72.8064-45.568l-296.96 150.8352c-1.4336 0.7168-2.3552 2.2016-2.3552 3.7888v370.8416c0 1.5872 0.8704 3.0208 2.304 3.7888l207.8208 113.2032c73.6768-68.864 130.0992-155.9552 161.9968-254.1056V203.6224z" fill="#FCA315" ></path><path d="M688.5376 189.2352L455.8336 308.8384c-1.4336 0.7168-2.3552 2.2016-2.3552 3.7888v322.0992c140.5952-101.4784 222.0032-262.144 235.0592-445.4912z" fill="#FCB138" ></path><path d="M390.9632 319.3344v-5.2736c0-2.2528-1.792-4.0448-4.0448-4.0448H256.7168c-99.6352 0-180.4288 80.7936-180.4288 180.4288v15.2064c0 4.352 0.2048 8.6016 0.512 12.9024 127.5904-30.6688 232.5504-101.8368 314.1632-199.2192z" fill="#FFC65E" ></path></svg>