<svg viewBox="0 0 1024 1024" version="1.1" xmlns="http://www.w3.org/2000/svg"><path d="M930.1504 494.3872c7.168 210.8928-147.8144 404.5824-371.5584 428.4416-242.7904 25.9072-437.3504-151.9616-460.4416-368.8448-25.4976-239.6672 149.9136-436.5312 369.0496-460.6464 237.312-26.1632 453.9904 154.112 462.9504 401.0496z m-411.0848 288.5632c6.0928-0.3584 19.1488-0.1024 31.8464-2.0992 162.816-25.7536 266.496-171.6224 235.0592-333.6704-12.8512-66.2528-48.0768-120.832-101.3248-162.9696-18.2272-14.4384-40.448-12.8-53.1456 2.304-14.6944 17.4592-12.0832 39.9872 6.6048 56.4736 2.2528 1.9968 4.9152 3.584 7.2704 5.5296 63.1808 50.8416 88.3712 141.056 61.6448 220.7232-27.392 81.664-101.9392 137.472-186.5216 139.5712-86.6816 2.1504-165.3248-47.3088-195.6864-123.0848-35.6352-88.8832-16.0256-170.1376 57.7024-239.3088 20.9408-19.6608 24.4224-40.448 9.5744-57.7536-14.5408-16.9472-36.8128-16.128-58.368 2.2016-92.2624 78.4384-122.9312 197.4272-80.9472 313.856 37.888 104.704 144.5376 177.9712 266.2912 178.2272z m30.72-404.736c0-37.2224 0.256-74.3936-0.1024-111.616-0.256-28.3136-15.104-45.6192-37.632-44.9024-21.9648 0.7168-35.7888 17.152-35.8912 44.3392-0.256 74.3936-0.256 148.7872 0 223.1808 0.1024 28.4672 14.848 45.4144 37.632 44.7488 22.2208-0.6656 35.6352-16.7424 35.8912-44.1856 0.3584-37.12 0.1024-74.3424 0.1024-111.5648z" fill="#2595E8" ></path><path d="M888.7296 326.7072c-75.2128-155.2896-242.4832-253.1328-421.5296-233.3696-219.136 24.1664-394.5472 220.9792-369.0496 460.6464 12.6464 118.784 76.8 225.7408 172.032 294.0928 16.7424 1.4848 33.6896 2.304 50.8416 2.304 119.4496 0 230.2976-36.8128 321.8432-99.6352-27.7504 14.4896-58.5728 24.8832-91.9552 30.1568-12.6976 1.9968-25.7536 1.7408-31.8464 2.0992-121.8048-0.256-228.4544-73.5232-266.1888-178.2272-41.984-116.4288-11.3152-235.4688 80.9472-313.856 21.5552-18.3296 43.8272-19.1488 58.368-2.2016 14.848 17.3056 11.3664 38.0928-9.5744 57.7536-73.728 69.1712-93.3376 150.4256-57.7024 239.3088 30.4128 75.8272 109.0048 125.2864 195.6864 123.0848 84.5312-2.0992 159.0784-57.9072 186.5216-139.5712 26.7264-79.6672 1.536-169.8816-61.6448-220.7232-2.3552-1.8944-4.9664-3.4816-7.2704-5.5296-18.688-16.4864-21.2992-39.0144-6.6048-56.4736 12.6976-15.104 34.9184-16.7424 53.1456-2.304 53.1968 42.0864 88.4736 96.7168 101.3248 162.9184 15.7184 81.1008-2.4064 158.1568-44.8512 218.1632 82.9952-90.7776 137.1136-208.5376 147.5072-338.6368z m-339.0464 163.1232c-0.256 27.392-13.7216 43.52-35.8912 44.1856-22.8352 0.7168-37.5296-16.2304-37.632-44.7488-0.256-74.3936-0.256-148.7872 0-223.1808 0.1024-27.1872 13.9264-43.6224 35.8912-44.3392 22.5792-0.7168 37.4272 16.5376 37.632 44.9024 0.3072 37.1712 0.1024 74.3936 0.1024 111.616 0 37.1712 0.256 74.3936-0.1024 111.5648z" fill="#3A9CED" ></path><path d="M467.2 93.2864c-219.136 24.1664-394.5472 220.9792-369.0496 460.6464 3.3792 31.744 10.5472 62.6688 20.8896 92.2112 15.2576 1.2288 30.6176 1.8944 46.1824 1.8944 35.1744 0 69.5808-3.2256 102.9632-9.3184a251.27936 251.27936 0 0 1-15.3088-34.048c-41.984-116.4288-11.3152-235.4688 80.9472-313.856 21.5552-18.3296 43.8272-19.1488 58.368-2.2016 14.848 17.3056 11.3664 38.0928-9.5744 57.7536-73.728 69.1712-93.3376 150.4256-57.7024 239.3088 4.864 12.0832 11.008 23.3984 18.1248 33.9968 59.8528-19.6608 115.3024-48.9472 164.608-86.016-19.2512-2.304-31.3344-18.5856-31.4368-44.3904-0.256-74.3936-0.256-148.7872 0-223.1808 0.1024-27.1872 13.9264-43.6224 35.8912-44.3392 22.5792-0.7168 37.4272 16.5376 37.632 44.9024 0.3072 37.1712 0.1024 74.3936 0.1024 111.616 0 37.2224 0.256 74.3936-0.1024 111.616-0.0512 3.328-0.256 6.5024-0.6656 9.5232 43.6224-39.8336 81.0496-86.3232 110.6432-137.9328-4.5056-4.5056-9.216-8.8576-14.2336-12.9024-2.3552-1.8944-4.9664-3.4816-7.2704-5.5296-18.688-16.4864-21.2992-39.0144-6.6048-56.4736 12.6976-15.104 34.9184-16.7424 53.1456-2.304 3.0208 2.4064 5.9392 4.8128 8.8576 7.3216 17.7664-44.032 30.208-90.7264 36.5056-139.4176-76.4416-46.6944-167.9872-69.3248-262.912-58.88z" fill="#59ADF8" ></path><path d="M467.2 93.2864c-183.5008 20.224-336.2816 161.536-366.1312 347.6992 54.3232-7.5264 106.1376-22.7328 154.4192-44.4416 16.64-39.5776 42.9056-75.6736 78.2848-105.728 21.5552-18.3296 43.8272-19.1488 58.368-2.2016 3.8912 4.5568 6.4512 9.3184 7.8848 14.2336 64.5632-57.344 116.0192-129.1776 149.248-210.432-26.88-2.304-54.3232-2.1504-82.0736 0.8704z" fill="#6BC2FC" ></path></svg>