<svg viewBox="0 0 1024 1024" version="1.1" xmlns="http://www.w3.org/2000/svg"><path d="M731.8528 775.0144c-25.0368-106.3424-97.3824-190.6688-191.7952-233.0624 58.4704-44.8 95.0784-116.6848 90.7776-196.8128-6.2464-115.7632-99.2768-210.4832-214.9376-218.5216C280.576 117.1968 167.4752 224.5632 167.4752 357.888c0 74.9568 35.7888 141.6704 91.136 184.064-94.4128 42.3936-166.7584 126.72-191.7952 233.0624-7.168 30.4128-15.6672 71.6288 5.632 95.1296 18.6368 20.5824 62.464 21.76 90.2144 21.76h487.9872c4.9152 0 43.4688-1.1264 48.2304-2.304 48.4352-11.9296 43.8784-68.1472 32.9728-114.5856z m-196.2496 42.9568H267.008c-25.856 0-46.7968-20.9408-46.7968-46.7968 0-25.856 20.9408-46.7968 46.7968-46.7968h268.5952c25.856 0 46.7968 20.9408 46.7968 46.7968 0 25.856-20.992 46.7968-46.7968 46.7968z" fill="#2595E8" ></path><path d="M540.0064 541.952c55.3472-42.3936 91.136-109.1072 91.136-184.064 0-127.8464-103.9872-231.8336-231.8336-231.8336-127.8464 0-231.8336 103.9872-231.8336 231.8336 0 74.9568 35.7888 141.6704 91.136 184.064-94.4128 42.3936-166.7584 126.72-191.7952 233.0624-6.656 28.3136-16.896 65.6384 1.8944 87.9616 7.0144 8.3456 19.8656 16.6912 36.9664 20.6848 42.496 9.3184 87.3472 6.0416 132.6592 6.0416 104.0896 0 202.0864-25.9584 287.8976-71.7312H267.008c-25.856 0-46.7968-20.9408-46.7968-46.7968 0-25.856 20.9408-46.7968 46.7968-46.7968h268.5952c25.856 0 46.7968 20.9408 46.7968 46.7968 0 5.0688-0.8192 9.8816-2.304 14.4384 42.8544-28.8256 81.92-62.9248 116.1728-101.376a339.44576 339.44576 0 0 0-156.2624-142.2848z" fill="#3A9CED" ></path><path d="M829.1328 515.1744c38.3488-36.6592 62.3104-88.2688 62.3104-145.3568 0-110.9504-90.2656-201.2672-201.2672-201.2672-24.9856 0-45.2608 20.2752-45.2608 45.2608s20.2752 45.2608 45.2608 45.2608c61.0304 0 110.6944 49.664 110.6944 110.6944 0 57.1392-43.4688 104.2432-99.072 110.08-3.84-0.1536-7.7312-0.3072-11.6224-0.3072-24.9856 0-45.2608 20.2752-45.2608 45.2608v0.9216c0 24.9856 20.2752 45.2608 45.2608 45.2608 4.3008 0 8.6016-0.2048 12.8512-0.4608 103.8336 6.656 186.3168 93.2352 186.3168 198.7072 0 24.9856 20.2752 45.2608 45.2608 45.2608s45.2608-20.2752 45.2608-45.2608c0.0512-109.312-60.9792-204.7488-150.7328-254.0544z" fill="#2595E8" ></path><path d="M850.9952 248.9856c-36.7616-48.7936-95.1808-80.4352-160.8192-80.4352-24.9856 0-45.2608 20.2752-45.2608 45.2608s20.2752 45.2608 45.2608 45.2608c61.0304 0 110.6944 49.664 110.6944 110.6944 0 57.1392-43.4688 104.2432-99.072 110.08-3.84-0.1536-7.7312-0.3072-11.6224-0.3072-24.9856 0-45.2608 20.2752-45.2608 45.2608v0.9216c0 24.9856 20.2752 45.2608 45.2608 45.2608 4.3008 0 8.6016-0.2048 12.8512-0.4608 22.8352 1.4848 44.6464 6.8096 64.768 15.36 53.248-90.88 83.8144-196.6592 83.8144-309.6064 0-9.1136-0.2048-18.2272-0.6144-27.2896z" fill="#3A9CED" ></path><path d="M644.864 213.8112c0 11.1104 4.0448 21.2992 10.7008 29.184 7.3216-23.1936 13.2608-46.9504 17.7664-71.2192-16.64 6.7072-28.4672 22.9888-28.4672 42.0352zM110.592 670.5152c229.5296-14.7968 424.6528-155.8528 516.6592-354.4576-19.7632-107.9296-114.432-190.0032-227.9936-190.0032-127.8464 0-231.8336 103.9872-231.8336 231.8336 0 74.9568 35.7888 141.6704 91.136 184.064-60.7232 27.2384-112.1792 71.936-147.968 128.5632z" fill="#59ADF8" ></path><path d="M455.936 133.0688c-18.1248-4.5568-37.12-7.0144-56.6272-7.0144-127.8464 0-231.8336 103.9872-231.8336 231.8336 0 14.1824 1.28 28.0576 3.7376 41.5744 121.344-55.6032 221.4912-149.5552 284.7232-266.3936z" fill="#6BC2FC" ></path></svg>