<svg viewBox="0 0 1024 1024" version="1.1" xmlns="http://www.w3.org/2000/svg"><path d="M509.952 421.632c-45.312 0-82.176 36.864-82.176 82.2272 0 45.312 36.864 82.176 82.176 82.176 45.312 0 82.2272-36.864 82.2272-82.176-0.0512-45.3632-36.9152-82.2272-82.2272-82.2272z" fill="#757BF2" ></path><path d="M936.96 424.9088c-4.864-26.2656-26.7264-46.0288-53.1456-48.0256-30.208-2.304-57.2928-19.2512-72.4992-45.312-15.4112-26.4704-16.5888-58.7776-3.1232-86.4768 11.5712-23.808 5.5296-52.5824-14.6944-70.0416a431.58528 431.58528 0 0 0-138.3424-80.5376c-25.4976-9.0624-53.8112 0.3584-68.8128 22.8864-17.152 25.7024-45.7216 41.0112-76.4416 41.0112s-59.2896-15.36-76.4416-41.0112c-15.0016-22.528-43.3152-31.9488-68.8128-22.8864-50.4832 17.92-96.8192 44.8512-137.6768 79.9744-20.2752 17.408-26.368 46.2336-14.848 70.0416 13.4144 27.6992 12.1856 60.0576-3.328 86.4768a91.98592 91.98592 0 0 1-72.5504 45.1584c-26.4192 1.9968-48.3328 21.7088-53.248 47.9232a435.54304 435.54304 0 0 0-7.424 79.7696c0 29.2352 2.9696 58.5216 8.7552 87.04 5.1712 25.4464 26.7264 44.7488 52.3776 46.8992 29.8496 2.56 56.6784 19.456 71.7312 45.2608 14.7968 25.344 16.5376 56.576 4.6592 83.5072-10.3936 23.5008-3.7888 51.6608 15.9744 68.4544a432.66048 432.66048 0 0 0 139.9296 79.616c24.6272 8.448 51.4048 0.1536 66.6112-20.6336 17.5616-24.0128 44.5952-37.7856 74.24-37.7856 29.6448 0 56.7296 13.7728 74.24 37.7856 11.2128 15.36 28.7744 23.9104 47.104 23.9104 6.4512 0 13.056-1.0752 19.456-3.2768a432.22016 432.22016 0 0 0 139.3152-79.0528c19.8144-16.7424 26.4704-44.9024 16.128-68.4544-11.8272-26.9824-10.0352-58.1632 4.8128-83.5072 15.104-25.8048 41.9328-42.6496 71.8336-45.1584 25.6512-2.1504 47.2064-21.4016 52.48-46.7968a435.36384 435.36384 0 0 0 8.9088-87.8592c0.1024-26.3168-2.3552-52.8384-7.168-78.8992z m-427.008 252.3648c-95.6416 0-173.4656-77.824-173.4656-173.4656s77.824-173.4656 173.4656-173.4656 173.4656 77.824 173.4656 173.4656-77.824 173.4656-173.4656 173.4656z" fill="#6C6CEA" ></path><path d="M808.2432 245.0432c1.4336-2.9696 2.6112-6.0416 3.5328-9.1648-4.1984-19.8144-9.3696-39.2704-15.4624-58.3168-0.9216-0.8704-1.792-1.7408-2.7648-2.6112a431.58528 431.58528 0 0 0-138.3424-80.5376c-25.4976-9.0624-53.8112 0.3584-68.8128 22.8864-17.152 25.7024-45.7216 41.0112-76.4416 41.0112s-59.2896-15.36-76.4416-41.0112c-15.0016-22.528-43.3152-31.9488-68.8128-22.8864-50.4832 17.92-96.8192 44.8512-137.6768 79.9744-20.2752 17.408-26.368 46.2336-14.848 70.0416 13.4144 27.6992 12.1856 60.0576-3.328 86.4768a91.98592 91.98592 0 0 1-72.5504 45.1584c-26.4192 1.9968-48.3328 21.7088-53.248 47.9232a435.54304 435.54304 0 0 0-7.424 79.7696c0 29.2352 2.9696 58.5216 8.7552 87.04 5.1712 25.4464 26.7264 44.7488 52.3776 46.8992 29.8496 2.56 56.6784 19.456 71.7312 45.2608 14.7968 25.344 16.5376 56.576 4.6592 83.5072-10.3936 23.5008-3.7888 51.6608 15.9744 68.4544a432.66048 432.66048 0 0 0 139.9296 79.616c24.6272 8.448 51.4048 0.1536 66.6112-20.6336 17.5616-24.0128 44.5952-37.7856 74.24-37.7856 10.5472 0 20.736 1.8432 30.3104 5.12 170.2912-103.0656 284.16-290.048 284.16-503.6544 0-3.0208-0.0512-6.0416-0.1024-9.0624-4.9152-5.12-9.2672-10.8032-12.9024-17.1008-15.4112-26.3168-16.5888-58.624-3.1232-86.3744zM509.952 677.2736c-95.6416 0-173.4656-77.824-173.4656-173.4656 0-95.6416 77.824-173.4656 173.4656-173.4656s173.4656 77.824 173.4656 173.4656c-0.0512 95.6416-77.824 173.4656-173.4656 173.4656z" fill="#757BF2" ></path><path d="M586.3424 117.3504c-17.152 25.7024-45.7216 41.0112-76.4416 41.0112s-59.2896-15.36-76.4416-41.0112c-15.0016-22.528-43.3152-31.9488-68.8128-22.8864-50.4832 17.92-96.8192 44.8512-137.6768 79.9744-20.2752 17.408-26.368 46.2336-14.848 70.0416 13.4144 27.6992 12.1856 60.0576-3.328 86.4768a91.98592 91.98592 0 0 1-72.5504 45.1584c-26.4192 1.9968-48.3328 21.7088-53.248 47.9232a435.54304 435.54304 0 0 0-7.424 79.7696c0 29.2352 2.9696 58.5216 8.7552 87.04 5.1712 25.4464 26.7264 44.7488 52.3776 46.8992 29.8496 2.56 56.6784 19.456 71.7312 45.2608 6.5024 11.1616 10.3424 23.4496 11.7248 35.9936 65.28-16.5376 126.208-44.032 180.736-80.384-39.3216-31.8464-64.512-80.4352-64.512-134.8096 0-95.6416 77.824-173.4656 173.4656-173.4656 41.9328 0 80.384 14.9504 110.3872 39.7824 27.8016-68.352 43.1104-143.0528 43.1104-221.3888 0-17.5104-0.8192-34.8672-2.304-52.0192-1.9968-0.7168-3.9424-1.536-5.9392-2.2528-25.3952-9.0112-53.7088 0.3584-68.7616 22.8864z" fill="#8486F8" ></path><path d="M509.952 421.632c-45.312 0-82.176 36.864-82.176 82.2272 0 33.4336 20.0704 62.208 48.7936 75.008 38.656-36.096 72.448-77.312 100.3008-122.624-15.0016-20.9408-39.3728-34.6112-66.9184-34.6112z" fill="#8486F8" ></path><path d="M476.3136 151.9616a91.65312 91.65312 0 0 1-42.8032-34.6112c-15.0016-22.528-43.3152-31.9488-68.8128-22.8864-50.4832 17.92-96.8192 44.8512-137.6768 79.9744-20.2752 17.408-26.368 46.2336-14.848 70.0416 13.4144 27.6992 12.1856 60.0576-3.328 86.4768a91.98592 91.98592 0 0 1-72.5504 45.1584c-26.4192 1.9968-48.3328 21.7088-53.248 47.9232a435.54304 435.54304 0 0 0-7.424 79.7696c0 2.048 0.1024 4.096 0.1536 6.144 184.064-47.9232 333.0048-182.7328 400.5376-357.9904z" fill="#8D92F8" ></path></svg>