<svg viewBox="0 0 1024 1024" version="1.1" xmlns="http://www.w3.org/2000/svg"><path d="M514.6624 72.4992c-241.6128 0-437.504 195.8912-437.504 437.504s195.8912 437.504 437.504 437.504 437.504-195.8912 437.504-437.504-195.8912-437.504-437.504-437.504zM356.5056 628.8384c0 12.8-10.3936 23.1936-23.1936 23.1936h-5.6832v87.04a28.416 28.416 0 0 1-56.832 0v-87.04h-5.6832c-12.8 0-23.1936-10.3936-23.1936-23.1936V363.3152c0-12.8 10.3936-23.1936 23.1936-23.1936h5.6832v-52.224a28.416 28.416 0 0 1 56.832 0v52.224h5.6832c12.8 0 23.1936 10.3936 23.1936 23.1936v265.5232z m215.4496 71.1168c0 12.8-10.3936 23.1936-23.1936 23.1936h-5.6832v87.04a28.416 28.416 0 0 1-56.832 0v-87.04h-5.6832c-12.8 0-23.1936-10.3936-23.1936-23.1936V434.3808c0-12.8 10.3936-23.1936 23.1936-23.1936h5.6832v-52.224a28.416 28.416 0 0 1 56.832 0v52.224h5.6832c12.8 0 23.1936 10.3936 23.1936 23.1936v265.5744z m211.8656-97.2288c0 12.8-10.3936 23.1936-23.1936 23.1936h-5.6832v87.04a28.416 28.416 0 0 1-56.832 0v-87.04h-5.6832c-12.8 0-23.1936-10.3936-23.1936-23.1936V337.2032c0-12.8 10.3936-23.1936 23.1936-23.1936h5.6832v-52.224a28.416 28.416 0 0 1 56.832 0v52.224h5.6832c12.8 0 23.1936 10.3936 23.1936 23.1936v265.5232z" fill="#6C6CEA" ></path><path d="M760.576 625.92h-5.6832v28.6208c83.7632-98.7648 135.1168-225.8432 137.6768-364.8-75.8784-129.8944-216.6784-217.2928-377.9584-217.2928-241.6128 0-437.504 195.8912-437.504 437.504 0 141.3632 67.072 266.9568 171.1104 346.9312 20.6848 2.2016 41.6256 3.3792 62.8736 3.3792 64.2048 0 126.0032-10.4448 183.808-29.6448a28.38528 28.38528 0 0 1-8.704-20.3776v-87.04h-5.6832c-12.8 0-23.1936-10.3936-23.1936-23.1936V434.3808c0-12.8 10.3936-23.1936 23.1936-23.1936h5.6832v-52.224c0-15.7184 12.6976-28.416 28.416-28.416s28.416 12.6976 28.416 28.416v52.224h5.6832c12.8 0 23.1936 10.3936 23.1936 23.1936v265.5232c0 12.8-10.3936 23.1936-23.1936 23.1936h-5.6832v87.04c0 0.7168-0.1536 1.3312-0.2048 2.048a582.35904 582.35904 0 0 0 155.2384-99.3792v-86.8864h-5.6832c-12.8 0-23.1936-10.3936-23.1936-23.1936V337.2032c0-12.8 10.3936-23.1936 23.1936-23.1936h5.6832v-52.224c0-15.7184 12.6976-28.416 28.416-28.416a28.416 28.416 0 0 1 28.416 28.416v52.224h5.6832c12.8 0 23.1936 10.3936 23.1936 23.1936v265.5232c0.0512 12.8-10.3424 23.1936-23.1936 23.1936z m-404.0704 2.9184c0 12.8-10.3936 23.1936-23.1936 23.1936h-5.6832v87.04c0 15.7184-12.6976 28.416-28.416 28.416a28.416 28.416 0 0 1-28.416-28.416v-87.04h-5.6832c-12.8 0-23.1936-10.3936-23.1936-23.1936V363.3152c0-12.8 10.3936-23.1936 23.1936-23.1936h5.6832v-52.224c0-15.7184 12.6976-28.416 28.416-28.416s28.416 12.6976 28.416 28.416v52.224h5.6832c12.8 0 23.1936 10.3936 23.1936 23.1936v265.5232z" fill="#757BF2" ></path><path d="M77.1584 509.952c0 49.5104 8.3456 97.0752 23.5008 141.4656 16.9472 1.4848 34.048 2.304 51.3536 2.304 33.0752 0 65.4848-2.816 97.0752-8.0896a23.11168 23.11168 0 0 1-7.2192-16.7936V363.3152c0-12.8 10.3936-23.1936 23.1936-23.1936h5.6832v-52.224c0-15.7184 12.6976-28.416 28.416-28.416s28.416 12.6976 28.416 28.416v52.224h5.6832c12.8 0 23.1936 10.3936 23.1936 23.1936v253.44c35.3792-13.312 69.12-29.9008 100.864-49.5104V434.3808c0-12.8 10.3936-23.1936 23.1936-23.1936h5.6832v-52.224c0-15.7184 12.6976-28.416 28.416-28.416s28.416 12.6976 28.416 28.416v52.224h5.6832c12.8 0 23.1936 10.3936 23.1936 23.1936v40.0896c38.5536-40.2432 71.424-86.016 97.2288-136.0384v-1.3312c0-7.8848 3.9424-14.848 9.984-19.0464 6.912-14.7968 13.2608-29.9008 18.944-45.312V261.632c0-9.1648 4.4032-17.2032 11.1104-22.4256 10.5472-35.2768 17.92-71.936 21.6064-109.6192-63.7952-36.352-137.5232-57.1904-216.1664-57.1904-241.5616 0.1024-437.4528 195.9424-437.4528 437.5552z" fill="#8486F8" ></path><path d="M82.2784 442.88c56.1152-7.3728 109.6704-22.7328 159.5904-44.9536v-34.6624c0-12.8 10.3936-23.1936 23.1936-23.1936h5.6832v-52.224c0-15.7184 12.6976-28.416 28.416-28.416s28.416 12.6976 28.416 28.416v52.224h5.6832c2.7648 0 5.376 0.5632 7.8336 1.4336 93.44-66.048 166.5536-159.0272 208.0768-267.5712-11.4176-0.8704-22.8864-1.4848-34.5088-1.4848-218.8288 0.0512-400.0768 160.6656-432.384 370.432z" fill="#8D92F8" ></path></svg>