<svg viewBox="0 0 1024 1024" version="1.1" xmlns="http://www.w3.org/2000/svg"><path d="M801.28 106.0352H216.3712c-59.4944 0-107.776 48.2304-107.776 107.776v440.576c0 59.4944 48.2304 107.776 107.776 107.776h247.296v66.6624H356.4544c-24.9344 0-45.1584 20.224-45.1584 45.1584s20.224 45.1584 45.1584 45.1584h304.7936c24.9344 0 45.1584-20.224 45.1584-45.1584s-20.224-45.1584-45.1584-45.1584H553.984v-66.6624h247.296c59.4944 0 107.776-48.2304 107.776-107.776V213.8112c0-59.5456-48.2816-107.776-107.776-107.776z m-29.4912 333.312c0 24.9344-20.224 45.1584-45.1584 45.1584s-45.1584-20.224-45.1584-45.1584v-17.3568l-140.288 138.6496c-17.7152 17.5104-46.2848 17.3568-63.7952-0.3584l-47.9744-48.4352-115.4048 104.2944a45.07648 45.07648 0 0 1-30.2592 11.6224c-12.3392 0-24.576-5.0176-33.4848-14.8992-16.6912-18.4832-15.2576-47.0528 3.2256-63.744L400.896 415.9488c17.92-16.1792 45.3632-15.4112 62.3104 1.7408l46.592 47.0528 102.144-100.9152-12.8-0.2048c-24.9344-0.4096-44.8-20.992-44.3904-45.8752a45.12768 45.12768 0 0 1 45.1072-44.3904h0.768l126.7712 2.1504c24.6272 0.4096 44.3904 20.48 44.3904 45.1584v118.6816z" fill="#2595E8" ></path><path d="M800.9216 106.0352H216.3712c-59.4944 0-107.776 48.2304-107.776 107.776v440.576c0 59.4944 48.2304 107.776 107.776 107.776h247.296v66.6624H356.4544c-24.9344 0-45.1584 20.224-45.1584 45.1584 0 18.944 11.6736 35.1232 28.2112 41.8304a635.5456 635.5456 0 0 0 214.4768-95.7952v-57.856h71.8848c125.184-116.5312 203.52-282.7264 203.52-467.2-0.0512-65.792-9.984-129.2288-28.4672-188.928z m-74.24 378.4192c-24.9344 0-45.1584-20.224-45.1584-45.1584v-17.3568L541.184 560.64c-17.7152 17.5104-46.2848 17.3568-63.7952-0.3584l-47.9744-48.4352-115.4048 104.2944a45.07648 45.07648 0 0 1-30.2592 11.6224c-12.3392 0-24.576-5.0176-33.4848-14.8992-16.6912-18.4832-15.2576-47.0528 3.2256-63.744L400.896 415.9488c17.92-16.1792 45.3632-15.4112 62.3104 1.7408l46.592 47.0528 102.144-100.9152-12.8-0.2048c-24.9344-0.4096-44.8-20.992-44.3904-45.8752a45.12768 45.12768 0 0 1 45.1072-44.3904h0.768l126.7712 2.1504c24.6272 0.4096 44.3904 20.48 44.3904 45.1584v118.7328c0 24.8832-20.224 45.056-45.1072 45.056z" fill="#3A9CED" ></path><path d="M108.5952 213.8112v440.576c0 15.7184 3.4304 30.5664 9.472 44.032 128.0512-20.48 243.3024-79.0016 333.9776-163.6352l-22.6304-22.8352-115.4048 104.2944a45.07648 45.07648 0 0 1-30.2592 11.6224c-12.3392 0-24.576-5.0176-33.4848-14.8992-16.6912-18.4832-15.2576-47.0528 3.2256-63.744L400.896 416.0512c17.92-16.1792 45.3632-15.4112 62.3104 1.7408l46.592 47.0528 26.8288-26.5216c17.5616-24.6272 33.3824-50.5344 47.3088-77.568-17.3056-6.5536-29.5424-23.3984-29.184-42.9568a45.12768 45.12768 0 0 1 45.1072-44.3904h0.768l20.3264 0.3584c18.0224-53.0944 29.2352-109.312 32.6656-167.68h-437.248c-59.4944-0.0512-107.776 48.1792-107.776 107.7248z" fill="#59ADF8" ></path><path d="M108.5952 213.8112v214.8352c145.664-62.8736 263.2704-178.3808 328.8064-322.6112H216.3712c-59.4944 0-107.776 48.2304-107.776 107.776z" fill="#6BC2FC" ></path></svg>