<svg viewBox="0 0 1024 1024" version="1.1" xmlns="http://www.w3.org/2000/svg"><path d="M271.9744 875.9296h474.1632V252.416h-86.784v-4.2496c0-83.5584-67.9936-151.552-151.552-151.552s-151.552 67.9936-151.552 151.552v4.2496H271.9744v623.5136zM433.6128 248.1664c0-40.9088 33.28-74.1888 74.1888-74.1888s74.1888 33.28 74.1888 74.1888v4.2496H433.6128v-4.2496z" fill="#FF8E12" ></path><path d="M194.6112 252.416h-11.3664c-45.4656 0-82.3808 36.864-82.3808 82.3808V793.6c0 45.4656 36.864 82.3808 82.3808 82.3808h11.3664V252.416z" fill="#FCA315" ></path><path d="M832.4096 252.416h-8.9088v623.5136h8.9088c45.4656 0 82.3808-36.864 82.3808-82.3808v-458.752c-0.0512-45.5168-36.9152-82.3808-82.3808-82.3808z" fill="#FF8E12" ></path><path d="M746.1376 252.416h-86.784v-4.2496c0-83.5584-67.9936-151.552-151.552-151.552s-151.552 67.9936-151.552 151.552v4.2496H271.9744v623.5136h190.0544c109.7728-28.4672 207.5136-86.7328 284.1088-165.6832V252.416z m-164.096 0H433.6128v-4.2496c0-40.9088 33.28-74.1888 74.1888-74.1888s74.1888 33.28 74.1888 74.1888v4.2496zM914.7392 350.976v-16.2304c0-45.4656-36.864-82.3808-82.3808-82.3808h-8.9088v359.8848a604.96384 604.96384 0 0 0 91.2896-261.2736z" fill="#FCA315" ></path><path d="M723.456 252.416h-64.1024v-4.2496c0-83.5584-67.9936-151.552-151.552-151.552s-151.552 67.9936-151.552 151.552v4.2496H271.9744v412.5184c214.2208-46.592 386.4576-205.7728 451.4816-412.5184z m-289.8432-4.2496c0-40.9088 33.28-74.1888 74.1888-74.1888s74.1888 33.28 74.1888 74.1888v4.2496H433.6128v-4.2496zM100.9152 334.7968v342.7328c13.5168 0.9216 27.1872 1.3824 40.96 1.3824 17.7664 0 35.3792-0.8192 52.7872-2.304V252.416H183.296c-45.5168 0-82.3808 36.864-82.3808 82.3808z" fill="#FCB138" ></path><path d="M100.9152 334.7968v118.016c32.2048-5.9904 63.488-14.5408 93.696-25.3952V252.416h-11.3664c-45.4656 0-82.3296 36.864-82.3296 82.3808zM449.536 252.416h-15.9232v-4.2496c0-40.704 32.9216-73.7792 73.5232-74.1376 14.3872-23.1936 27.2384-47.4624 38.4512-72.6016-12.0832-3.1232-24.7296-4.7616-37.7856-4.7616-83.5584 0-151.552 67.9936-151.552 151.552v4.2496H271.9744v140.9536A613.6576 613.6576 0 0 0 449.536 252.416z" fill="#FFC65E" ></path></svg>