<svg viewBox="0 0 1024 1024" version="1.1" xmlns="http://www.w3.org/2000/svg"><path d="M800.3072 155.648H230.9632c-63.6928 0-115.3024 51.6096-115.3024 115.3024v474.112c0 63.6928 51.6096 115.3024 115.3024 115.3024h569.344c63.6928 0 115.3024-51.6096 115.3024-115.3024v-474.112c0-63.6928-51.6096-115.3024-115.3024-115.3024zM363.2128 714.0864c0 18.7904-15.2064 33.9968-33.9968 33.9968-18.7904 0-33.9968-15.2064-33.9968-33.9968v-104.448c0-18.7904 15.2064-33.9968 33.9968-33.9968 18.7904 0 33.9968 15.2064 33.9968 33.9968v104.448z m125.696 0c0 18.7904-15.2064 33.9968-33.9968 33.9968s-33.9968-15.2064-33.9968-33.9968v-202.0352c0-18.7904 15.2064-33.9968 33.9968-33.9968s33.9968 15.2064 33.9968 33.9968v202.0352z m125.7472 0c0 18.7904-15.2064 33.9968-33.9968 33.9968s-33.9968-15.2064-33.9968-33.9968v-155.7504c0-18.7904 15.2064-33.9968 33.9968-33.9968s33.9968 15.2064 33.9968 33.9968v155.7504z m125.696 0c0 18.7904-15.2064 33.9968-33.9968 33.9968s-33.9968-15.2064-33.9968-33.9968v-242.688c0-18.7904 15.2064-33.9968 33.9968-33.9968s33.9968 15.2064 33.9968 33.9968v242.688z m-4.2496-371.456l-123.8528 106.9568a33.93024 33.93024 0 0 1-42.7008 1.3824L459.264 367.7184 344.3712 470.4256a33.97632 33.97632 0 0 1-45.312-50.6368l135.7312-121.344a33.98656 33.98656 0 0 1 43.1104-1.792l110.6944 83.5584 103.0656-89.0368a33.9712 33.9712 0 0 1 47.9232 3.4816c12.288 14.2336 10.752 35.6864-3.4816 47.9744z" fill="#6C6CEA" ></path><path d="M230.9632 155.648c-63.6928 0-115.3024 51.6096-115.3024 115.3024v474.112c0 63.6928 51.6096 115.3024 115.3024 115.3024h194.2528c94.0544-24.9856 179.0464-72.0896 249.1392-135.4752-1.1264-3.4304-1.8944-7.0144-1.8944-10.8032v-242.688c0-18.7904 15.2064-33.9968 33.9968-33.9968s33.9968 15.2064 33.9968 33.9968v183.3472c82.8416-103.2192 132.4032-234.2912 132.4032-376.8832 0-35.1232-3.0208-69.5296-8.8064-102.9632a114.52416 114.52416 0 0 0-63.6416-19.2H230.9632z m132.2496 558.4384c0 18.7904-15.2064 33.9968-33.9968 33.9968-18.7904 0-33.9968-15.2064-33.9968-33.9968v-104.448c0-18.7904 15.2064-33.9968 33.9968-33.9968 18.7904 0 33.9968 15.2064 33.9968 33.9968v104.448z m125.696 0c0 18.7904-15.2064 33.9968-33.9968 33.9968s-33.9968-15.2064-33.9968-33.9968v-202.0352c0-18.7904 15.2064-33.9968 33.9968-33.9968s33.9968 15.2064 33.9968 33.9968v202.0352z m125.7472 0c0 18.7904-15.2064 33.9968-33.9968 33.9968-18.7904 0-33.9968-15.2064-33.9968-33.9968v-155.7504c0-18.7904 15.2064-33.9968 33.9968-33.9968 18.7904 0 33.9968 15.2064 33.9968 33.9968v155.7504z m121.4464-371.456l-123.8528 106.9568a33.93024 33.93024 0 0 1-42.7008 1.3824L459.264 367.7184 344.3712 470.4256a33.97632 33.97632 0 0 1-45.312-50.6368l135.7312-121.344a33.98656 33.98656 0 0 1 43.1104-1.792l110.6944 83.5584 103.0656-89.0368a33.9712 33.9712 0 0 1 47.9232 3.4816c12.288 14.2336 10.752 35.6864-3.4816 47.9744z" fill="#757BF2" ></path><path d="M115.6608 270.9504v395.4176c62.6688-1.0752 122.9824-11.6736 179.5584-30.464v-26.2656c0-18.7904 15.2064-33.9968 33.9968-33.9968 18.432 0 33.3824 14.6944 33.8944 33.024 19.9168-9.4208 39.2192-19.9168 57.856-31.4368v-65.1776c0-18.7904 15.2064-33.9968 33.9968-33.9968s33.9968 15.2064 33.9968 33.9968v16.5376c28.7232-23.7568 55.1936-50.1248 79.104-78.7456L459.264 367.7184 344.3712 470.4256a33.97632 33.97632 0 0 1-45.312-50.6368l135.7312-121.344a33.98656 33.98656 0 0 1 43.1104-1.792l110.6944 83.5584 56.8832-49.152c26.9312-54.3232 45.9264-113.3056 55.4496-175.4112H230.9632c-63.6416 0-115.3024 51.6096-115.3024 115.3024z" fill="#8486F8" ></path><path d="M115.6608 270.9504v160.2048c151.8592-42.2912 279.552-142.592 357.7344-275.5072H230.9632c-63.6416 0-115.3024 51.6096-115.3024 115.3024z" fill="#8D92F8" ></path></svg>