<svg viewBox="0 0 1024 1024" version="1.1" xmlns="http://www.w3.org/2000/svg"><path d="M362.6496 927.9488l-125.44-147.2512c-1.4848-1.7408-3.072-3.2768-4.864-4.7104l-135.3728-107.5712c-15.8208-12.544-17.7152-35.84-4.2496-50.8416l68.4032-75.9808a35.0208 35.0208 0 0 1 34.7136-10.496l77.056 19.7632c11.7248 3.0208 24.1152-0.256 32.8704-8.6016l49.7664-47.5136c17.152-16.384 13.4144-44.6976-7.424-56.064l-229.1712-124.928c-20.3776-11.1104-24.4736-38.656-8.2432-55.2448l104.0384-106.0864a35.01056 35.01056 0 0 1 33.9968-9.3184l341.4016 90.6752c12.6976 3.3792 26.1632-0.6656 34.9696-10.3936 46.7968-51.5584 200.448-205.8752 297.984-127.3344C1026.304 179.2 860.9792 355.4304 810.496 405.1456a34.96448 34.96448 0 0 0-9.5232 32.6144l80.5376 356.3008c2.8672 12.6976-1.536 25.9072-11.4688 34.3552l-95.3856 81.2032c-16.5888 14.1312-41.8816 9.8304-52.8896-8.96l-132.0448-225.6896c-11.8272-20.224-39.7824-23.3472-55.7568-6.2464L482.304 723.9168a35.02592 35.02592 0 0 0-7.9872 33.8944l22.4256 75.1616a34.9696 34.9696 0 0 1-11.008 36.7616l-73.8816 62.208a34.8928 34.8928 0 0 1-49.2032-3.9936z" fill="#05C46D" ></path><path d="M884.736 321.7408c0.256-7.7824 0.4608-15.5648 0.4608-23.4496 0-78.2848-13.3632-153.3952-37.888-223.3344-87.9616 9.3184-186.368 108.9536-222.208 148.3776a35.11808 35.11808 0 0 1-34.9696 10.3936l-341.4016-90.624c-12.1856-3.2256-25.1392 0.3072-33.9968 9.3184L110.6944 258.5088c-16.2816 16.5888-12.1344 44.1344 8.2432 55.2448L348.1088 438.784c20.8384 11.3664 24.576 39.68 7.424 56.064l-49.7664 47.5136a35.08736 35.08736 0 0 1-32.8704 8.6016l-77.056-19.7632a35.0208 35.0208 0 0 0-34.7136 10.496l-68.4032 75.9808c-13.5168 15.0016-11.5712 38.2464 4.2496 50.8416l135.3728 107.5712c1.792 1.3824 3.3792 2.9696 4.864 4.7104l125.44 147.2512a34.99008 34.99008 0 0 0 49.2032 4.0448l73.8816-62.208a35.06176 35.06176 0 0 0 11.008-36.7616l-22.4256-75.1616c-3.5328-11.9296-0.512-24.832 7.9872-33.8944l51.6096-55.1424c15.9744-17.1008 43.9296-13.9776 55.7568 6.2464l72.7552 124.3648a676.56704 676.56704 0 0 0 167.4752-233.2672l-28.9792-128.3072c-2.6624-11.8272 0.9216-24.1152 9.5232-32.6144 16.7936-16.6912 46.2336-47.2064 74.2912-83.6096z" fill="#1DCE75" ></path><path d="M625.1008 223.3856a35.11808 35.11808 0 0 1-34.9696 10.3936L248.7296 143.104c-12.1856-3.2256-25.1392 0.3072-33.9968 9.3184L110.6944 258.5088c-16.2816 16.5888-12.1344 44.1344 8.2432 55.2448L348.1088 438.784c20.8384 11.3664 24.576 39.68 7.424 56.064l-49.7664 47.5136a35.08736 35.08736 0 0 1-32.8704 8.6016l-77.056-19.7632a35.0208 35.0208 0 0 0-34.7136 10.496l-68.4032 75.9808c-13.5168 15.0016-11.5712 38.2464 4.2496 50.8416l64.6656 51.3536c276.1216-56.4736 490.8032-281.6 531.8144-563.0464-29.696 25.3952-54.016 50.7904-68.352 66.56z" fill="#3CD38E" ></path><path d="M248.7296 143.104c-12.1856-3.2256-25.1392 0.3072-33.9968 9.3184L110.6944 258.5088c-16.2816 16.5888-12.1344 44.1344 8.2432 55.2448l116.992 63.8464a678.7072 678.7072 0 0 0 185.088-188.7232l-172.288-45.7728z" fill="#48E1AA" ></path></svg>