<?xml version="1.0" standalone="no"?><!DOCTYPE svg PUBLIC "-//W3C//DTD SVG 1.1//EN" "http://www.w3.org/Graphics/SVG/1.1/DTD/svg11.dtd"><svg class="icon" width="66px" height="66.00px" viewBox="0 0 1024 1024" version="1.1" xmlns="http://www.w3.org/2000/svg"><path d="M512 512m-448 0a448 448 0 1 0 896 0 448 448 0 1 0-896 0Z" fill="#FF934A" /><path d="M712.346 270.726c16.262 13.514 0 39.674-21.146 39.674-111.35 0-201.6 90.26-201.6 201.6 0 111.34 90.25 201.6 201.6 201.6 21.146 0 37.408 26.16 21.146 39.674C658.004 798.44 588.18 825.6 512 825.6c-173.196 0-313.6-140.404-313.6-313.6 0-173.196 140.404-313.6 313.6-313.6 76.182 0 146.004 27.16 200.346 72.326z" fill="#FFFFFF" /></svg>