<svg viewBox="0 0 1024 1024" version="1.1" xmlns="http://www.w3.org/2000/svg"><path d="M767.2832 94.5664H257.0752c-56.2688 0-101.888 45.6192-101.888 101.888v634.3168c0 56.2688 45.6192 101.888 101.888 101.888h510.208c56.2688 0 101.888-45.6192 101.888-101.888V196.4544c0-56.2688-45.6192-101.888-101.888-101.888z m-437.4528 155.648h332.4928c23.1936 0 41.984 18.7904 41.984 41.984s-18.7904 41.984-41.984 41.984H329.8304c-23.1936 0-41.984-18.7904-41.984-41.984s18.7904-41.984 41.984-41.984z m0 150.784h191.5392c23.1936 0 41.984 18.7904 41.984 41.984 0 23.1936-18.7904 41.984-41.984 41.984H329.8304c-23.1936 0-41.984-18.7904-41.984-41.984 0-23.1424 18.7904-41.984 41.984-41.984z m95.7952 234.8032h-95.744c-23.1936 0-41.984-18.7904-41.984-41.984 0-23.1936 18.7904-41.984 41.984-41.984h95.744c23.1936 0 41.984 18.7904 41.984 41.984 0 23.1936-18.7904 41.984-41.984 41.984z m370.9952 5.7856l-61.0816 59.4944c-2.7648 2.7136-4.0448 6.6048-3.3792 10.4448l14.4384 84.0192c1.6384 9.6768-8.4992 16.9984-17.152 12.4416l-75.4688-39.68c-3.4304-1.792-7.5776-1.792-11.008 0l-75.4688 39.68c-8.6528 4.5568-18.7904-2.816-17.152-12.4416l14.4384-84.0192c0.6656-3.84-0.6144-7.7312-3.3792-10.4448l-61.0816-59.4944c-7.0144-6.8608-3.1232-18.7392 6.5536-20.1728l84.3776-12.2368c3.84-0.5632 7.168-2.9696 8.9088-6.4512l37.7344-76.4416c4.352-8.8064 16.8448-8.8064 21.1968 0l37.7344 76.4416c1.7408 3.4816 5.0688 5.888 8.9088 6.4512l84.3776 12.2368c9.6768 1.3824 13.5168 13.312 6.5024 20.1728z" fill="#6C6CEA" ></path><path d="M735.5904 701.0816c-2.7648 2.7136-4.0448 6.6048-3.3792 10.4448l0.4608 2.7136c12.3392-14.2848 24.0128-29.184 35.072-44.544l-32.1536 31.3856zM869.1712 196.4544c0-56.2688-45.6192-101.888-101.888-101.888H257.0752c-56.2688 0-101.888 45.6192-101.888 101.888v634.3168c0 56.2688 45.6192 101.888 101.888 101.888h50.7392c138.3936-12.3904 263.9872-69.0176 362.6496-155.648l-16.4864-8.6528c-3.4304-1.792-7.5776-1.792-11.008 0l-75.4688 39.68c-8.6528 4.5568-18.7904-2.816-17.152-12.4416l14.4384-84.0192c0.6656-3.84-0.6144-7.7312-3.3792-10.4448l-61.0816-59.4944c-7.0144-6.8608-3.1232-18.7392 6.5536-20.1728l84.3776-12.2368c3.84-0.5632 7.168-2.9696 8.9088-6.4512l37.7344-76.4416c4.352-8.8064 16.8448-8.8064 21.1968 0l37.7344 76.4416c1.7408 3.4816 5.0688 5.888 8.9088 6.4512l84.3776 12.2368c2.9184 0.4096 5.2224 1.8432 6.912 3.7376a632.4736 632.4736 0 0 0 72.1408-176.1792V196.4544z m-443.5456 439.3472h-95.744c-23.1936 0-41.984-18.7904-41.984-41.984 0-23.1936 18.7904-41.984 41.984-41.984h95.744c23.1936 0 41.984 18.7904 41.984 41.984 0 23.1936-18.7904 41.984-41.984 41.984z m95.744-150.784H329.8304c-23.1936 0-41.984-18.7904-41.984-41.984s18.7904-41.984 41.984-41.984h191.5392c23.1936 0 41.984 18.7904 41.984 41.984s-18.7904 41.984-41.984 41.984z m140.9536-150.784H329.8304c-23.1936 0-41.984-18.7904-41.984-41.984 0-23.1936 18.7904-41.984 41.984-41.984h332.4928c23.1936 0 41.984 18.7904 41.984 41.984 0 23.1936-18.7904 41.984-41.984 41.984z" fill="#757BF2" ></path><path d="M373.0944 635.8016h-43.264c-23.1936 0-41.984-18.7904-41.984-41.984 0-23.1936 18.7904-41.984 41.984-41.984h95.744c17.3056 0 32.2048 10.496 38.6048 25.4464 82.5856-63.5904 149.1968-146.944 192.5632-243.0464H329.8304c-23.1936 0-41.984-18.7904-41.984-41.984 0-23.1936 18.7904-41.984 41.984-41.984h332.4928c8.6528 0 16.64 2.6112 23.296 7.0656 15.6672-51.7632 24.9344-106.2912 26.8288-162.7136H257.0752c-56.2688 0-101.888 45.6192-101.888 101.888v507.8528a632.6784 632.6784 0 0 0 217.9072-68.5568z m-43.264-234.8032h191.5392c23.1936 0 41.984 18.7904 41.984 41.984s-18.7904 41.984-41.984 41.984H329.8304c-23.1936 0-41.984-18.7904-41.984-41.984s18.7904-41.984 41.984-41.984z" fill="#8486F8" ></path><path d="M326.2976 334.08a41.94816 41.94816 0 0 1-38.4512-41.8304c0-23.1936 18.7904-41.984 41.984-41.984h79.104c38.2976-46.7968 70.0928-99.1232 93.952-155.648H257.0752c-56.2688 0-101.888 45.6192-101.888 101.888v240.9472a638.60736 638.60736 0 0 0 171.1104-103.3728z" fill="#8D92F8" ></path></svg>