<svg viewBox="0 0 1024 1024" version="1.1" xmlns="http://www.w3.org/2000/svg"><path d="M469.9648 896.1024c6.656-8.8576 14.1312-17.2032 19.7632-26.624 26.0096-43.3664 20.0192-94.0032-17.664-133.2224-56.1664-58.4192-113.1008-116.1216-170.5472-173.312-34.1504-33.9968-84.1216-32.8192-119.5008 1.2288-24.7296 23.808-49.152 47.872-74.8032 72.8576-23.2448-8.4992-34.2016-27.648-34.3552-52.5312-0.5632-88.9344-0.7168-177.8688 0.0512-266.752 0.256-32.3072 21.248-53.4016 52.8896-54.1696 39.8848-0.9728 79.872-0.256 121.9072-0.256-2.6624 4.352-4.352 7.3728-6.3488 10.1888-22.1184 31.2832-17.152 72.8064 13.1584 96.7168 43.3152 34.2016 91.8016 40.0896 143.3088 22.3232 35.0208-12.0832 69.888-24.7808 104.448-38.0928 10.5472-4.0448 16.5376-3.4816 23.5008 6.656 75.6736 109.7728 151.9616 219.0848 227.9424 328.6016 25.5488 36.8128 16.9984 70.2464-23.0912 90.1632-75.008 37.3248-150.1184 74.5984-225.4336 111.36-10.1376 4.9664-21.8624 6.656-32.8704 9.8816-0.768-1.6384-1.536-3.328-2.3552-5.0176z" fill="#2298E0" ></path><path d="M547.2768 261.1712c-51.1488 23.8592-100.7616 46.4896-149.9136 70.144-29.3888 14.1824-56.9856 9.216-83.8656-5.1712-18.7904-10.0352-21.504-26.4704-6.0416-41.216 19.0464-18.176 38.8608-36.0448 60.416-50.9952 42.9568-29.7472 86.784-58.368 131.3792-85.6576 55.9616-34.2016 110.7968-21.6064 164.8128 7.1168 50.5856 26.88 101.632 52.8896 152.32 79.4624 22.1184 11.5712 45.5168 13.9264 70.144 13.4656 46.3872-0.8704 65.9456 19.0976 65.9968 65.0752 0.0512 82.688 0.1024 165.4272 0 248.1152-0.0512 45.3632-19.3024 64.4608-64.7168 64.512-23.6544 0.0512-47.3088-0.6656-70.8608 0.256-11.9808 0.4608-19.0464-3.2256-26.0096-13.3632-77.0048-112.1792-154.6752-223.9488-232.1408-335.8208-3.5328-4.9664-7.168-9.8816-11.52-15.9232zM427.9296 810.6496c-3.9424 14.1312-6.4512 28.8768-12.1344 42.2912-9.6768 22.9888-34.3552 30.464-54.528 15.9232-60.7232-43.776-121.1392-88.1152-180.9408-133.12-23.8592-17.9712-25.4464-48.1792-5.4272-71.424 9.2672-10.8032 19.3024-21.0432 29.696-30.8224 20.1728-18.944 50.3296-18.176 69.9904 1.6896 44.544 44.8 88.8832 89.856 133.4272 134.7072 11.1616 11.2128 19.5584 23.5008 19.9168 40.7552z" fill="#2298E0" ></path><path d="M862.5152 292.864c0-15.3088-0.8192-30.4128-2.048-45.4144-15.2064-1.536-29.9008-5.12-44.032-12.544-50.7392-26.5728-101.7856-52.5824-152.32-79.4624-54.016-28.7232-108.8512-41.3696-164.8128-7.1168A2776.6528 2776.6528 0 0 0 367.9232 233.984c-21.6064 14.9504-41.3696 32.8192-60.416 50.9952-15.5136 14.7968-12.7488 31.232 6.0416 41.216 26.88 14.336 54.4768 19.3024 83.8656 5.1712 49.1008-23.7056 98.7648-46.2848 149.9136-70.144 4.352 6.0416 8.0384 10.9568 11.52 15.9744 71.7312 103.5776 143.5136 207.0528 214.9376 310.8352 56.0128-84.6336 88.7296-186.0608 88.7296-295.168zM274.6368 635.136c-19.712-19.8144-49.8176-20.6336-70.0416-1.6896-10.3936 9.728-20.3776 20.0192-29.696 30.8224-20.0192 23.2448-18.432 53.4528 5.4272 71.424 40.96 30.8224 82.2272 61.184 123.648 91.392 7.8336 0.3584 15.7184 0.6144 23.6544 0.6144 33.5872 0 66.4064-3.2256 98.2528-9.1648 0.6656-2.6624 1.3312-5.3248 2.048-7.936-0.3584-17.2544-8.7552-29.5424-19.9168-40.8064-44.4928-44.8-88.832-89.8048-133.376-134.656z" fill="#39A5E9" ></path><path d="M525.824 361.1136c-7.0144-10.1376-12.9536-10.7008-23.5008-6.656-34.56 13.312-69.4272 26.0096-104.448 38.0928-51.5584 17.8176-100.0448 11.9296-143.36-22.272-30.3104-23.9616-35.2768-65.4336-13.1584-96.7168 1.9968-2.816 3.6864-5.8368 6.3488-10.1888-42.0864 0-82.0224-0.7168-121.9072 0.256-31.6416 0.768-52.6336 21.8112-52.8896 54.1696-0.7168 88.9344-0.6144 177.8688-0.0512 266.752 0.1536 24.8832 11.1616 44.032 34.3552 52.5312 25.6-24.9856 50.0736-49.0496 74.8032-72.8576 35.3792-34.048 85.3504-35.2256 119.5008-1.2288 57.3952 57.1904 114.3808 114.8928 170.5472 173.312 17.8688 18.5856 28.5184 39.7824 32.1024 61.4912 86.1184-30.1056 162.1504-81.5104 221.7984-148.0192-66.7648-96.2048-133.6832-192.256-200.1408-288.6656z" fill="#39A5E9" ></path><path d="M710.6048 179.8144c-15.5136-8.0896-31.0784-16.128-46.5408-24.3712-54.016-28.7232-108.8512-41.3696-164.8128-7.1168A2776.6528 2776.6528 0 0 0 367.872 233.984c-21.6064 14.9504-41.3696 32.8192-60.416 50.9952-15.5136 14.7968-12.7488 31.232 6.0416 41.216 26.88 14.336 54.4768 19.3024 83.8656 5.1712 49.1008-23.7056 98.7648-46.2848 149.9136-70.144 4.352 6.0416 8.0384 10.9568 11.52 15.9744l75.8784 109.5168c38.656-61.696 65.1264-131.7376 75.9296-206.8992z" fill="#55B5F3" ></path><path d="M525.824 361.1136c-7.0144-10.1376-12.9536-10.7008-23.5008-6.656-34.56 13.312-69.4272 26.0096-104.448 38.0928-51.5584 17.8176-100.0448 11.9296-143.36-22.272-30.3104-23.9616-35.2768-65.4336-13.1584-96.7168 1.9968-2.816 3.6864-5.8368 6.3488-10.1888-42.0864 0-82.0224-0.7168-121.9072 0.256-31.6416 0.768-52.6336 21.8112-52.8896 54.1696-0.7168 88.9344-0.6144 177.8688-0.0512 266.752 0.1024 20.0192 7.424 36.2496 22.3232 46.2848 5.3248 0.8704 10.7008 1.5872 16.128 2.304 24.1152-23.552 47.3088-46.336 70.7072-68.864 35.3792-34.048 85.3504-35.2256 119.5008-1.2288 15.9232 15.872 31.6928 31.8464 47.5648 47.8208 93.696-30.9248 175.872-86.9888 238.592-160.3072-20.6336-29.8496-41.3184-59.5968-61.8496-89.4464z" fill="#55B5F3" ></path><path d="M204.5952 633.4976c-1.3312 1.2288-2.56 2.56-3.8912 3.7888 23.2448-0.8192 46.08-3.1232 68.5056-6.8096-19.5072-15.104-46.1824-14.2848-64.6144 3.0208z" fill="#55B5F3" ></path><path d="M288.256 390.8096c-11.5712-5.12-22.784-11.9296-33.7408-20.5312-30.3104-23.9616-35.2768-65.4336-13.1584-96.7168 1.9968-2.816 3.6864-5.8368 6.3488-10.1888-42.0864 0-82.0224-0.7168-121.9072 0.256-31.6416 0.768-52.6336 21.8112-52.8896 54.1696-0.3584 43.3664-0.512 86.7328-0.512 130.0992 77.4656-3.7376 150.4768-23.9104 215.8592-57.088zM534.7328 132.7104c-11.776 3.328-23.552 8.3968-35.4304 15.616A2776.6528 2776.6528 0 0 0 367.9232 233.984c-21.6064 14.9504-41.3696 32.8192-60.416 50.9952-15.5136 14.7968-12.7488 31.232 6.0416 41.216 18.5344 9.8816 37.4784 15.36 57.0368 13.1072a537.7024 537.7024 0 0 0 164.1472-206.592z" fill="#6BC2FC" ></path></svg>