<svg viewBox="0 0 1024 1024" version="1.1" xmlns="http://www.w3.org/2000/svg"><path d="M306.2784 357.9904c22.6304-92.1088 105.728-160.4096 204.8-160.4096 98.4064 0 181.0944 67.4304 204.3904 158.6176l154.5728-93.0816v-48.3328c0-63.6928-51.6096-115.3024-115.3024-115.3024H267.4176c-63.6928 0-115.3024 51.6096-115.3024 115.3024v55.0912l154.1632 88.1152z" fill="#FC4956" ></path><path d="M718.848 444.8768c-17.2544 99.1744-103.68 174.592-207.7696 174.592-103.7312 0-189.9008-74.9056-207.5648-173.5168L152.1152 359.424v456.2944c0 63.6928 51.6096 115.3024 115.3024 115.3024h487.3216c63.6928 0 115.3024-51.6096 115.3024-115.3024V353.8432L718.848 444.8768z" fill="#F23D4F" ></path><path d="M591.5136 439.8592h-44.544v-26.3168h44.544a33.3312 33.3312 0 0 0 0-66.6624h-18.7904l31.1808-48.5376c9.9328-15.4624 5.4784-36.096-10.0352-46.0288-15.4624-9.9328-36.096-5.4784-46.0288 10.0352l-36.5568 56.8832-41.0624-53.4016c-11.2128-14.592-32.1536-17.3056-46.7456-6.0928-14.592 11.2128-17.3056 32.1536-6.0928 46.7456l31.1296 40.4992h-12.8a33.3312 33.3312 0 0 0 0 66.6624h44.544v26.3168h-44.544c-18.3808 0-33.3312 14.8992-33.3312 33.3312s14.8992 33.3312 33.3312 33.3312h44.544v22.3232a33.3312 33.3312 0 0 0 66.6624 0v-22.3232h44.544c18.3808 0 33.3312-14.8992 33.3312-33.3312s-14.8992-33.4336-33.28-33.4336z" fill="#FC4956" ></path><path d="M870.0416 353.8432L718.848 444.8768c-17.2544 99.1744-103.68 174.592-207.7696 174.592-103.7312 0-189.9008-74.9056-207.5648-173.5168L152.1152 359.424v456.2944c0 63.6928 51.6096 115.3024 115.3024 115.3024h52.8384c271.616-22.528 493.1072-221.44 549.7344-481.8944V353.8432z" fill="#FC4956" ></path><path d="M267.4176 99.4816c-63.6928 0-115.3024 51.6096-115.3024 115.3024v55.0912l154.112 88.1152c22.6304-92.1088 105.728-160.4096 204.8-160.4096 72.5504 0 136.4992 36.7104 174.4384 92.5184 19.5584-60.0064 30.208-124.0576 30.2592-190.6176H267.4176z" fill="#FF5C64" ></path><path d="M591.5136 439.8592h-44.544v-26.3168h44.544a33.3312 33.3312 0 0 0 0-66.6624h-18.7904l31.1808-48.5376c9.9328-15.4624 5.4784-36.096-10.0352-46.0288-15.4624-9.9328-36.096-5.4784-46.0288 10.0352l-36.5568 56.8832-41.0624-53.4016c-11.2128-14.592-32.1536-17.3056-46.7456-6.0928-14.592 11.2128-17.3056 32.1536-6.0928 46.7456l31.1296 40.4992h-12.8a33.3312 33.3312 0 0 0 0 66.6624h44.544v26.3168h-44.544a33.3312 33.3312 0 0 0 0 66.6624h44.544v22.3744c0 15.9744 11.264 29.2864 26.2656 32.5632 14.0288-12.3392 27.4944-25.2928 40.3456-38.8608v-16.0256h14.6432c17.152-19.4048 33.1264-39.8848 47.7696-61.3888-5.12-3.4304-11.2128-5.4272-17.7664-5.4272zM445.184 608.9728c-72.704-23.9104-127.9488-86.272-141.6704-163.0208L152.1152 359.424v352.9728a612.1984 612.1984 0 0 0 293.0688-103.424z" fill="#FF5C64" ></path><path d="M521.1136 99.4816H267.4176c-63.6928 0-115.3024 51.6096-115.3024 115.3024v55.0912l154.112 88.1152c19.5584-79.4624 84.0704-141.1584 165.0176-156.6208 19.6608-32.1536 36.352-66.2528 49.8688-101.888zM250.8288 415.8464L152.1152 359.424v101.7856c34.4064-12.288 67.4304-27.4944 98.7136-45.3632z" fill="#FF716E" ></path></svg>