<svg viewBox="0 0 1024 1024" version="1.1" xmlns="http://www.w3.org/2000/svg"><path d="M509.44 561.2544c-168.2944 0-318.464-78.6944-415.8976-201.1648v423.6288c0 43.7248 35.4304 79.2064 79.2064 79.2064h673.4848c43.7248 0 79.2064-35.4304 79.2064-79.2064V360.0896c-97.536 122.4192-247.7056 201.1648-416 201.1648z" fill="#F23D4F" ></path><path d="M846.1824 161.536H172.6976c-41.5744 0-75.5712 32.0512-78.848 72.7552C169.5232 387.4816 327.3728 493.056 509.44 493.056s339.9168-105.6256 415.5904-258.7648c-3.2768-40.704-37.2736-72.7552-78.848-72.7552zM509.44 438.6816c-30.5152 0-55.2448-24.7296-55.2448-55.2448S478.9248 328.192 509.44 328.192s55.2448 24.7296 55.2448 55.2448-24.7296 55.2448-55.2448 55.2448z" fill="#FC4956" ></path><path d="M509.44 561.2544c-168.2944 0-318.464-78.6944-415.8976-201.1648v423.6288c0 43.7248 35.4304 79.2064 79.2064 79.2064h306.8416c230.9632-65.8432 407.3472-261.1712 445.5936-502.528-97.536 122.2656-247.6032 200.8576-415.744 200.8576z" fill="#FC4956" ></path><path d="M172.6976 161.536c-41.5744 0-75.5712 32.0512-78.848 72.7552C169.5232 387.4304 327.3728 493.056 509.44 493.056c21.0944 0 41.8304-1.4848 62.1568-4.1984 89.6-86.784 153.344-200.0896 178.432-327.3216H172.6976zM509.44 438.6816c-30.5152 0-55.2448-24.7296-55.2448-55.2448S478.9248 328.192 509.44 328.192c30.5152 0 55.2448 24.7296 55.2448 55.2448s-24.7296 55.2448-55.2448 55.2448z" fill="#FF5C64" ></path><path d="M136.96 664.7808c127.8464 0 246.6816-38.4 345.7024-104.2944-157.3888-7.8848-296.9088-84.5312-389.12-200.448v303.2064c14.336 1.024 28.8256 1.536 43.4176 1.536z" fill="#FF5C64" ></path><path d="M93.8496 234.2912A466.6368 466.6368 0 0 0 223.744 394.1888c114.2784-48.4864 211.0976-130.048 278.528-232.6528H172.6976c-41.5744 0-75.5712 32.0512-78.848 72.7552zM149.5552 420.3008c-20.1728-18.5856-38.912-38.7072-56.0128-60.2112v73.216c18.944-3.5328 37.6832-7.8848 56.0128-13.0048z" fill="#FF716E" ></path></svg>