<svg viewBox="0 0 1024 1024" version="1.1" xmlns="http://www.w3.org/2000/svg"><path d="M654.4384 593.1008c-78.1312 88.9344-220.7744 75.5712-281.2928-0.768-31.3856 36.864-70.8608 59.1872-119.3984 62.0544-84.0192 4.9664-155.648-43.5712-172.8-130.6112-5.2736-26.6752 2.4576-58.3168 11.776-84.992 35.1232-100.352 112.5888-158.8224 207.1552-197.1712 32.2048-13.056 66.7648-20.5824 100.5568-29.3376 5.632-1.4848 15.36 1.4848 19.2 5.888 53.0432 60.7232 150.272 49.2544 187.904-1.024 2.9696-3.9424 11.264-6.8608 16.1792-5.888 108.9536 21.2992 204.9024 66.1504 273.5104 157.0816 27.2896 36.1472 47.36 77.1072 52.2752 122.624 7.3216 67.7888-44.6464 137.5744-114.6368 156.7744-70.656 19.3536-130.048-0.8704-180.4288-54.6304z" fill="#FF8E12" ></path><path d="M848.64 706.2528c-18.2784 67.4304-35.072 131.2768-53.0944 194.7136-7.1168 25.1904-23.6544 37.2224-49.8688 37.3248-154.7264 0.3584-309.4528 0.3584-464.1792 0.0512-26.7264-0.0512-41.7792-10.7008-48.8448-35.2256-18.7904-65.28-36.608-130.8672-55.8592-200.192 77.2608 20.8384 144.6912 9.1648 199.3216-49.5616 72.4992 83.968 200.0896 83.5072 272.896 1.8944 54.3744 57.9584 120.6784 73.5744 199.6288 50.9952z" fill="#FF8E12" ></path><path d="M579.84 145.92c-0.512 39.1168-28.4672 65.8432-68.2496 65.024-35.6352-0.7168-66.2528-31.8464-65.3824-66.6624 0.8704-35.84 31.5904-65.9456 66.8672-65.4848 38.656 0.4608 67.2256 29.184 66.7648 67.1232z" fill="#FCB138" ></path><path d="M765.2864 715.3152c-43.52-4.1472-82.2272-23.808-116.1728-60.0576-72.8064 81.6128-200.448 82.0224-272.896-1.8944-54.6304 58.7264-122.0608 70.4-199.3216 49.5616 19.2512 69.3248 37.0688 134.912 55.8592 200.192 7.0656 24.5248 22.1184 35.1744 48.8448 35.2256 48.6912 0.1024 97.4336 0.1024 146.1248 0.1536 138.1888-30.7712 257.4336-111.872 337.5616-223.1808z" fill="#FCA315" ></path><path d="M869.9904 335.9744c-65.792-69.5808-151.04-106.1888-246.2208-124.7744-4.9664-0.9728-13.2608 1.9456-16.1792 5.888-37.632 50.2272-134.8608 61.7472-187.904 1.024-3.84-4.4032-13.5168-7.3728-19.2-5.888-33.792 8.7552-68.352 16.2816-100.5568 29.3376-94.5664 38.3488-172.032 96.8704-207.1552 197.1712-9.3696 26.7264-17.0496 58.3168-11.776 84.992 17.152 87.04 88.832 135.6288 172.8 130.6112 48.4864-2.8672 88.0128-25.1904 119.3984-62.0544 60.4672 76.3392 203.1616 89.7024 281.2928 0.768 42.8544 45.7216 92.3136 67.072 149.6576 60.5184 43.4176-80.2816 68.0448-172.2368 68.0448-269.8752-0.0512-16.0768-0.8704-31.9488-2.2016-47.7184z" fill="#FCA315" ></path><path d="M376.1664 653.3632c-54.6304 58.7264-122.0608 70.4-199.3216 49.5616 4.3008 15.4624 8.4992 30.6176 12.6464 45.7728a564.3776 564.3776 0 0 0 222.5152-63.3344c-12.9024-8.8064-25.0368-19.456-35.84-32zM713.984 235.9296c-28.7744-10.5472-58.9312-18.688-90.2144-24.7808-4.9664-0.9728-13.2608 1.9456-16.1792 5.888-37.632 50.2272-134.8608 61.7472-187.904 1.024-3.84-4.4032-13.5168-7.3728-19.2-5.888-33.792 8.7552-68.352 16.2816-100.5568 29.3376-94.5664 38.3488-172.032 96.8704-207.1552 197.1712-9.3696 26.7264-17.0496 58.3168-11.776 84.992 17.152 87.04 88.832 135.6288 172.8 130.6112 48.4864-2.8672 88.0128-25.1904 119.3984-62.0544 23.1424 29.184 58.3168 49.152 97.28 57.7024 134.656-92.7744 227.2768-242.2272 243.5072-414.0032z" fill="#FCB138" ></path><path d="M513.024 78.7456c-35.2768-0.4096-65.9968 29.6448-66.8672 65.4848-0.8704 34.816 29.7472 65.9968 65.3824 66.6624 4.7616 0.1024 9.3184-0.256 13.6704-0.9216 15.6672-35.4304 27.8528-72.7552 36.0448-111.5648-11.8784-12.032-28.7744-19.4048-48.2304-19.6608zM500.9408 258.7136c-29.7472-2.7648-59.2896-15.4624-81.2544-40.6528-3.84-4.4032-13.5168-7.3728-19.2-5.888-33.792 8.7552-68.352 16.2816-100.5568 29.3376-94.5664 38.3488-172.032 96.8704-207.1552 197.1712-9.3696 26.7264-17.0496 58.3168-11.776 84.992 1.3312 6.7584 3.1232 13.2608 5.0688 19.5584 178.3808-25.3952 330.0352-133.5808 414.8736-284.5184z" fill="#FFC65E" ></path></svg>