<?xml version="1.0" standalone="no"?><!DOCTYPE svg PUBLIC "-//W3C//DTD SVG 1.1//EN" "http://www.w3.org/Graphics/SVG/1.1/DTD/svg11.dtd"><svg class="icon" width="66px" height="66.00px" viewBox="0 0 1024 1024" version="1.1" xmlns="http://www.w3.org/2000/svg"><path d="M308.586 388.462c10.932 6.596 25.134 3.01 31.496-7.902 33.666-57.784 92.488-158.71 131.688-225.968 17.562-30.122 61.848-30.122 79.408 0 39.2 67.26 98.024 168.184 131.712 225.968 6.362 10.912 20.564 14.5 31.472 7.902 57.792-34.924 123.604-78.328 173.824-112.194 32.056-21.624 75.466 2.736 71.568 40.698-12.946 126.192-39.312 349.476-76.764 499.802-5.286 21.168-17.764 39.334-38.864 46.166-40.656 13.126-132.452 30.666-332.64 30.666-195.328 0-287.46-16.688-329.594-29.702-23.206-7.168-36.354-27.306-41.418-50.646-36.69-169.816-62.832-376.206-76.18-495.084-4.28-38.124 39.31-62.924 71.544-41.19 50.086 33.762 115.382 76.804 172.748 111.484z" fill="#FCBF28" /><path d="M646.4 602.4c0 33.6-100.8 179.2-134.4 179.2-33.6 0-134.4-145.6-134.4-179.2 0-33.6 100.8-179.2 134.4-179.2 33.6 0 134.4 145.6 134.4 179.2z" fill="#FFFFFF" /></svg>