<svg viewBox="0 0 1024 1024" version="1.1" xmlns="http://www.w3.org/2000/svg"><path d="M508.8768 484.1472c-56.5248 0-112.9984 0.1536-169.5232-0.2048-7.424-0.0512-15.5648-1.3312-22.0672-4.6592-15.104-7.7312-19.0976-21.8112-13.3632-41.3184l53.76-183.5008c6.0928-20.7872 12.0832-41.6256 18.3296-62.4128 5.7344-19.0464 16.5376-27.0336 36.5568-27.0336 64.1536-0.0512 128.3584-0.0512 192.512 0 20.6336 0 31.0272 7.8336 36.9152 27.8528 24.064 81.9712 48.0768 163.9936 71.9872 246.016 7.8336 26.8288-6.2976 45.2608-34.7136 45.2608-56.7296 0.0512-113.5616 0-170.3936 0zM271.6672 848.9984c-57.4976 0-114.944 0.0512-172.4416-0.0512-18.688-0.0512-31.1808-8.8064-34.56-25.344-1.2288-5.9392-0.4096-12.8 1.3312-18.7392 23.9616-82.688 48.1792-165.2736 72.4992-247.8592 5.4784-18.688 16.9984-27.1872 36.608-27.2384 63.8464-0.1024 127.6928-0.1024 191.5904 0 20.0192 0 30.976 7.9872 36.6592 27.0336 24.6784 82.8416 49.2544 165.632 73.6256 248.5248 7.2192 24.6272-7.1168 43.4688-32.9216 43.52-57.4464 0.256-114.944 0.1536-172.3904 0.1536z" fill="#FCA315" ></path><path d="M745.6768 848.9984h-168.5504c-30.4128 0-43.9296-17.8176-35.4304-46.848 23.7056-81.0496 47.4624-162.1504 71.2192-243.2 6.2464-21.2992 16.6912-29.0816 38.9632-29.0816 62.5664-0.0512 125.1328-0.0512 187.6992 0 22.6816 0 33.0752 7.7824 39.5264 29.696 23.9104 81.3568 47.7696 162.7136 71.5264 244.1216 7.8848 27.0848-6.0928 45.312-34.5088 45.312h-170.4448z" fill="#FF8E12" ></path><path d="M879.104 559.5648c-6.4512-21.9648-16.7936-29.696-39.5264-29.696-62.5664-0.0512-125.1328-0.0512-187.6992 0-22.272 0-32.7168 7.7824-38.9632 29.0816-23.7568 81.0496-47.5136 162.0992-71.2192 243.2-8.4992 29.0304 5.0176 46.848 35.4304 46.848 56.1664 0.0512 112.384 0 168.5504 0h33.4336a602.04544 602.04544 0 0 0 104.3456-274.7392c-1.4848-4.9152-2.9184-9.8304-4.352-14.6944z" fill="#FCA315" ></path><path d="M642.048 192.8192c-5.888-20.0192-16.2304-27.8528-36.9152-27.8528-64.1536-0.0512-128.3584-0.0512-192.512 0-20.0704 0-30.8736 7.9872-36.5568 27.0336-6.2464 20.7872-12.2368 41.6256-18.3296 62.4128-17.92 61.184-35.8912 122.3168-53.76 183.5008-5.7344 19.5072-1.7408 33.5872 13.3632 41.3184 6.5024 3.328 14.6432 4.608 22.0672 4.6592 56.5248 0.3584 112.9984 0.2048 169.5232 0.2048 56.832 0 113.664 0.0512 170.496 0 3.7888 0 7.3216-0.3584 10.5984-1.024 7.168-21.1456 13.2096-42.8032 18.0224-64.9216C686.08 343.04 664.1152 267.9296 642.048 192.8192zM403.3024 556.9024c-5.6832-19.0464-16.5888-27.0336-36.6592-27.0336-63.8464-0.0512-127.6928-0.1024-191.5904 0-19.6096 0.0512-31.1296 8.4992-36.608 27.2384-24.32 82.5856-48.5376 165.1712-72.4992 247.8592-1.6896 5.9392-2.5088 12.8-1.3312 18.7392 3.3792 16.5376 15.872 25.2928 34.56 25.344 57.4976 0.1024 114.944 0.0512 172.4416 0.0512 24.4224 0 48.8448-0.0512 73.2672 0 44.3904-18.0736 86.1696-41.2672 124.5696-68.8128-21.9136-74.5984-43.9808-148.992-66.1504-223.3856z" fill="#FCB138" ></path><path d="M671.8464 529.8176h-19.968c-22.272 0-32.7168 7.7824-38.9632 29.0816-11.9808 40.7552-23.9104 81.5616-35.84 122.3168a602.5216 602.5216 0 0 0 94.7712-151.3984z" fill="#FCA315" ></path><path d="M563.0464 164.9664c-50.1248 0-100.2496-0.0512-150.3744 0-20.0704 0-30.8736 7.9872-36.5568 27.0336-6.2464 20.7872-12.2368 41.6256-18.3296 62.4128-17.92 61.184-35.8912 122.3168-53.76 183.5008-5.7344 19.5072-1.7408 33.5872 13.3632 41.3184 6.5024 3.328 14.6432 4.608 22.0672 4.6592 23.4496 0.1536 46.8992 0.2048 70.3488 0.2048 79.872-86.7328 134.8096-196.9152 153.2416-319.1296zM362.8032 529.8688c-62.5664-0.0512-125.1328-0.1024-187.6992 0-19.6096 0.0512-31.1296 8.4992-36.608 27.2384l-30.8736 105.216c96.0512-23.296 183.1424-69.4784 255.1808-132.4544z" fill="#FFC65E" ></path></svg>