<svg viewBox="0 0 1024 1024" version="1.1" xmlns="http://www.w3.org/2000/svg"><path d="M492.8512 82.688C286.72 93.3376 118.9888 260.2496 107.4688 466.3808c-6.4512 115.0976 34.9696 220.5184 106.0864 298.2912 5.8368 6.4 9.2672 14.6944 9.2672 23.3472v111.7184c0 24.2688 24.6784 40.7552 47.104 31.488l113.664-47.1552c7.1168-2.9696 15.0016-3.2768 22.4768-1.2288a408.08448 408.08448 0 0 0 115.8144 14.5408c213.0944-3.84 389.632-174.8992 399.7184-387.7888 11.4176-241.408-187.1872-439.3472-428.7488-426.9056z m200.704 379.392h-40.7552l-17.1008 62.5664h17.7664c27.136 0 49.152 22.016 49.152 49.152s-22.016 49.152-49.152 49.152h-44.6464l-8.96 32.768a49.2032 49.2032 0 0 1-47.36 36.1984 49.664 49.664 0 0 1-13.0048-1.7408c-26.1632-7.168-41.5744-34.2016-34.4064-60.3648l1.8432-6.8096H450.1504l-8.96 32.768a49.2032 49.2032 0 0 1-47.36 36.1984 49.664 49.664 0 0 1-13.0048-1.7408c-26.1632-7.168-41.5744-34.2016-34.4064-60.3648l1.8432-6.8096h-12.9536c-27.136 0-49.152-22.016-49.152-49.152s22.016-49.152 49.152-49.152h39.8848l17.1008-62.5664h-16.896c-27.136 0-49.152-22.016-49.152-49.152s22.016-49.152 49.152-49.152h43.776L429.1072 327.68a49.11616 49.11616 0 0 1 60.3648-34.4064c26.1632 7.168 41.5744 34.2016 34.4064 60.3648l-2.816 10.2912h56.7808l9.9328-36.1984a49.11616 49.11616 0 0 1 60.3648-34.4064c26.1632 7.168 41.5744 34.2016 34.4064 60.3648l-2.816 10.2912h13.824c27.136 0 49.152 22.016 49.152 49.152 0 26.9312-22.016 48.9472-49.152 48.9472z" fill="#FF8E12" ></path><path d="M477.0304 524.5952h56.7808l17.152-62.5152h-56.832z" fill="#FCB138" ></path><path d="M492.8512 82.688C286.72 93.3376 118.9888 260.2496 107.4688 466.3808c-6.4512 115.0976 34.9696 220.5184 106.0864 298.2912 5.8368 6.4 9.2672 14.6944 9.2672 23.3472v28.2624c33.4336 6.8608 67.9936 10.496 103.4752 10.496 282.4192 0 511.3856-228.9664 511.3856-511.3856 0-28.1088-2.3552-55.6544-6.7072-82.4832-79.0016-97.1264-201.6768-157.2352-338.1248-150.2208z m200.704 379.392h-40.7552l-17.1008 62.5664h17.7664c27.136 0 49.152 22.016 49.152 49.152s-22.016 49.152-49.152 49.152h-44.6464l-8.96 32.768a49.2032 49.2032 0 0 1-47.36 36.1984 49.664 49.664 0 0 1-13.0048-1.7408c-26.1632-7.168-41.5744-34.2016-34.4064-60.3648l1.8432-6.8096H450.1504l-8.96 32.768a49.2032 49.2032 0 0 1-47.36 36.1984 49.664 49.664 0 0 1-13.0048-1.7408c-26.1632-7.168-41.5744-34.2016-34.4064-60.3648l1.8432-6.8096h-12.9536c-27.136 0-49.152-22.016-49.152-49.152s22.016-49.152 49.152-49.152h39.8848l17.1008-62.5664h-16.896c-27.136 0-49.152-22.016-49.152-49.152s22.016-49.152 49.152-49.152h43.776L429.1072 327.68a49.11616 49.11616 0 0 1 60.3648-34.4064c26.1632 7.168 41.5744 34.2016 34.4064 60.3648l-2.816 10.2912h56.7808l9.9328-36.1984a49.11616 49.11616 0 0 1 60.3648-34.4064c26.1632 7.168 41.5744 34.2016 34.4064 60.3648l-2.816 10.2912h13.824c27.136 0 49.152 22.016 49.152 49.152 0 26.9312-22.016 48.9472-49.152 48.9472z" fill="#FCA315" ></path><path d="M492.8512 82.688C286.72 93.3376 118.9888 260.2496 107.4688 466.3808c-3.5328 62.6176 7.2192 122.368 29.1328 176.3328a511.73376 511.73376 0 0 0 199.3728-19.8144h-0.6656c-27.136 0-49.152-22.016-49.152-49.152s22.016-49.152 49.152-49.152h39.8848l17.1008-62.5664h-16.896c-27.136 0-49.152-22.016-49.152-49.152s22.016-49.152 49.152-49.152h43.776l9.9328-36.1984a49.11616 49.11616 0 0 1 60.3648-34.4064c26.1632 7.168 41.5744 34.2016 34.4064 60.3648l-2.816 10.2912h56.7808l9.9328-36.1984a49.11616 49.11616 0 0 1 60.3648-34.4064c7.8848 2.1504 14.7456 6.144 20.3264 11.3152a510.85824 510.85824 0 0 0 29.2864-170.7008c0-2.7648-0.1536-5.4784-0.2048-8.192-61.0816-30.7712-130.8672-46.6944-204.6976-42.9056z" fill="#FCB138" ></path><path d="M492.8512 82.688c-204.5952 10.5472-371.2512 175.0528-385.024 379.0336 85.0432-8.2432 163.9936-37.4272 231.6288-82.176a49.80224 49.80224 0 0 1 17.3568-12.0832C451.2256 299.264 521.4208 199.68 552.0384 83.968c-19.3536-1.7408-39.1168-2.304-59.1872-1.28z" fill="#FFC65E" ></path></svg>