<svg viewBox="0 0 1024 1024" version="1.1" xmlns="http://www.w3.org/2000/svg"><path d="M505.7536 84.992C260.352 84.992 61.44 256.6144 61.44 468.3264c0 119.2448 63.1808 225.7408 162.1504 296.0384 7.7824 5.5296 12.288 14.592 12.288 24.1152v123.8528c0 22.9888 24.8832 37.376 44.8 25.856l148.6848-85.9648c5.5808-3.2256 12.032-4.5056 18.4832-3.7888 18.944 2.1504 38.2976 3.2256 57.9072 3.2256 245.4016 0 444.3136-171.6224 444.3136-383.3856 0-211.6608-198.912-383.2832-444.3136-383.2832z m101.5808 539.5968H329.6768c-27.3408 0-49.5104-22.1696-49.5104-49.5104s22.1696-49.5104 49.5104-49.5104h277.7088c27.3408 0 49.5104 22.1696 49.5104 49.5104s-22.1696 49.5104-49.5616 49.5104z m89.4464-186.2144h-367.104c-27.3408 0-49.5104-22.1696-49.5104-49.5104s22.1696-49.5104 49.5104-49.5104h367.104c27.3408 0 49.5104 22.1696 49.5104 49.5104s-22.1696 49.5104-49.5104 49.5104z" fill="#F23D4F" ></path><path d="M870.656 265.3184c0-5.3248-0.0512-10.5984-0.2048-15.872-80.2816-99.3792-213.6576-164.4544-364.6976-164.4544C260.352 84.992 61.44 256.6144 61.44 468.3264c0 119.2448 63.1808 225.7408 162.1504 296.0384 7.7824 5.5296 12.288 14.592 12.288 24.1152v99.5328c3.9424 0.0512 7.8848 0.1536 11.8784 0.1536 52.2752 0 103.0656-6.5024 151.6032-18.6368l30.0032-17.3568c5.5808-3.2256 12.032-4.5056 18.4832-3.7888 5.0688 0.5632 10.1888 1.0752 15.3088 1.4848 237.8752-87.6032 407.5008-316.2624 407.5008-584.5504zM329.6768 339.3536h367.104c27.3408 0 49.5104 22.1696 49.5104 49.5104s-22.1696 49.5104-49.5104 49.5104h-367.104c-27.3408 0-49.5104-22.1696-49.5104-49.5104s22.1696-49.5104 49.5104-49.5104z m277.6576 285.2352H329.6768c-27.3408 0-49.5104-22.1696-49.5104-49.5104s22.1696-49.5104 49.5104-49.5104h277.7088c27.3408 0 49.5104 22.1696 49.5104 49.5104s-22.1696 49.5104-49.5616 49.5104z" fill="#FC4956" ></path><path d="M61.44 468.3264c0 72.0384 23.1424 139.3152 63.232 196.864 65.8432-4.9664 128.768-20.1216 187.2896-43.9808-18.5856-7.1168-31.8464-25.088-31.8464-46.1824 0-27.3408 22.1696-49.5104 49.5104-49.5104H472.576c31.7952-26.112 60.928-55.3472 86.9376-87.1424H329.6768c-27.3408 0-49.5104-22.1696-49.5104-49.5104s22.1696-49.5104 49.5104-49.5104h296.2944c35.7376-66.2528 59.8016-139.776 69.4784-217.7024-57.5488-23.5008-121.8048-36.6592-189.696-36.6592C260.352 84.992 61.44 256.6144 61.44 468.3264z" fill="#FF5C64" ></path><path d="M63.6416 430.08c187.8528-44.1344 342.9376-173.2608 422.4-344.6784C264.6528 93.7472 85.2992 241.8688 63.6416 430.08z" fill="#FF716E" ></path></svg>