<svg viewBox="0 0 1024 1024" version="1.1" xmlns="http://www.w3.org/2000/svg"><path d="M367.3088 909.7728c-21.8624 0-43.8272 1.024-65.6384-0.2048-42.8544-2.4064-57.344-30.3616-53.4528-61.7984 14.5408-117.6064 26.4704-235.52 38.7584-353.3312 0.7168-6.7072-2.0992-15.5648-6.4-20.736-53.8624-64.3584-108.288-128.2048-162.6112-192.1536-18.5344-21.8112-18.7904-28.0064-1.28-50.432 126.0544-161.3824 375.1424-158.5152 497.8176 5.4784 11.4176 15.2576 7.6288 27.6992-3.072 40.96-51.3024 63.2832-102.6048 126.5664-153.0368 190.5152-5.632 7.1168-9.1136 18.7904-8.192 27.8016 12.032 117.8624 24.8832 235.6736 37.9904 353.4848 3.6864 33.28-13.9776 57.2928-47.9232 59.7504-24.1664 1.7408-48.5888 0.3584-72.9088 0.3584-0.0512 0.0512-0.0512 0.1536-0.0512 0.3072z m-0.0512-474.2656c17.1008 0 30.9248 0.4096 44.6976-0.3072 3.072-0.1536 8.0896-3.9424 8.6016-6.7584 5.6832-29.696 11.1104-58.7264 15.1552-88.6784 1.792-13.4144-5.9904-24.1664-19.712-26.4192-14.8992-2.4576-27.0848 4.608-30.208 19.712-6.9632 33.0752-11.9808 65.792-18.5344 102.4512z m-1.9968 0.1024c-8.4992-34.56-16.2304-67.4304-24.6784-100.096-4.3008-16.7424-16.1792-24.32-30.6176-21.0432-14.1824 3.2256-22.016 15.7696-18.4832 32.3584 5.5808 26.0608 11.776 52.0192 18.688 77.7728 1.1776 4.352 7.0144 10.0864 11.1616 10.496 13.7216 1.3824 27.648 0.512 43.9296 0.512z m43.6736 136.3456c-3.6352-13.0048-10.752-45.312-11.8784-50.8928-20.1728 0.3584-41.9328 0.512-63.744 0.512-2.7136 19.712-5.3248 32.6144-7.936 50.3808h83.5584z" fill="#C65EDB" ></path><path d="M672.768 432.5376v-45.8752c0-39.5264 0.512-79.0528-0.1536-118.528-0.6144-38.4 16.0768-68.0448 44.9536-91.2384 21.76-17.5104 44.7488-33.4848 67.2256-50.0224 3.8912-2.8672 7.9872-5.5808 12.288-7.8848 32.8192-17.408 58.1632-3.328 60.8256 33.792 0.6144 8.4992 0.4608 16.9984 0.4608 25.4976 0.0512 77.824 0 155.648 0 233.4208v20.4288c4.1984 0.9216 7.0144 1.6896 9.8816 2.0992 25.2416 3.584 36.0448 14.08 36.096 39.3216 0.4096 132.5056 0.4096 265.0624 0 397.568-0.1024 26.368-13.312 38.9632-39.8336 39.1168-68.0448 0.4096-136.1408 0.4608-204.2368 0-25.6512-0.2048-38.4512-12.8512-38.5024-38.3488-0.3072-133.12-0.3072-266.2912 0-399.4112 0.0512-24.7808 11.7248-35.7888 36.9152-38.2464 4.1984-0.3584 8.2944-0.9728 14.08-1.6896z m152.7808 235.3152c0-35.1744 0.1536-70.4-0.0512-105.5744-0.1024-20.1216-10.5984-32.9216-26.1632-32.8704-16.128 0.0512-25.2416 11.6736-25.2928 32.9728-0.1024 70.4-0.1024 140.8 0 211.2 0.0512 20.9408 9.7792 33.2288 25.4976 33.024 16.0256-0.2048 25.8048-12.288 25.9072-33.1264 0.3072-35.2256 0.1024-70.4512 0.1024-105.6256z" fill="#BD50D3" ></path><path d="M868.3008 434.2784c-2.8672-0.4096-5.6832-1.1776-9.8816-2.0992v-20.4288-233.4208c0-8.4992 0.1536-17.0496-0.4608-25.4976-2.6624-37.1712-28.0064-51.2-60.8256-33.792-4.3008 2.2528-8.3456 4.9664-12.288 7.8848-22.528 16.5376-45.4656 32.512-67.2256 50.0224-28.8768 23.1936-45.568 52.8896-44.9536 91.2384 0.6144 39.5264 0.1536 79.0528 0.1536 118.528v45.8752c-5.8368 0.7168-9.8816 1.3312-13.9776 1.7408-25.1904 2.4576-36.864 13.5168-36.9152 38.2464-0.3072 118.1696-0.256 236.288-0.0512 354.4576a635.5968 635.5968 0 0 0 152.2688-152.576c0-37.3248-0.0512-74.7008 0-112.0256 0.0512-21.2992 9.1648-32.9728 25.2928-32.9728 15.5136-0.0512 26.0096 12.8 26.1632 32.8704 0.0512 8.3968 0.0512 16.7424 0.0512 25.1392 23.1936-47.4624 40.6528-98.2528 51.4048-151.5008-2.7648-0.7168-5.632-1.28-8.7552-1.6896z" fill="#C65EDB" ></path><path d="M611.3792 277.5552c10.7008-13.2096 14.4896-25.7024 3.072-40.96-122.6752-164.0448-371.712-166.8608-497.8176-5.4784-17.5104 22.4256-17.2544 28.6208 1.28 50.432C172.288 345.4976 226.7136 409.344 280.576 473.6512c4.352 5.1712 7.1168 14.0288 6.4 20.736-6.8608 65.6384-13.6192 131.2256-20.736 196.8128a631.66464 631.66464 0 0 0 194.2528-97.792c-3.4304-32.512-6.9632-65.0752-10.2912-97.5872-0.9216-9.0112 2.56-20.6848 8.192-27.8016 50.432-63.8976 101.7344-127.1808 152.9856-190.464zM310.1696 424.6528c-6.912-25.7536-13.1072-51.712-18.688-77.7728-3.5328-16.5888 4.3008-29.1328 18.4832-32.3584 14.4384-3.2768 26.3168 4.3008 30.6176 21.0432 8.448 32.6656 16.1792 65.536 24.6784 100.096-16.3328 0-30.208 0.8192-43.9296-0.512-4.096-0.4096-9.984-6.144-11.1616-10.496z m15.1552 147.3024c2.6112-17.7152 5.2224-30.6176 7.936-50.3808 21.8624 0 43.5712-0.1536 63.744-0.512 1.1264 5.5808 8.2432 37.888 11.8784 50.8928H325.3248zM435.712 339.7632c-4.0448 29.952-9.472 58.9824-15.1552 88.6784-0.512 2.816-5.5296 6.6048-8.6016 6.7584-13.7728 0.7168-27.5456 0.3072-44.6976 0.3072 6.6048-36.6592 11.5712-69.376 18.4832-102.4 3.1744-15.104 15.3088-22.1184 30.208-19.712 13.7728 2.2016 21.5552 12.9536 19.7632 26.368zM672.6656 268.0832c0.256 15.8208 0.3072 31.6928 0.3072 47.5648a630.5792 630.5792 0 0 0 35.4816-130.7136c-23.1936 21.9136-36.352 49.1008-35.7888 83.1488z" fill="#CA6EE0" ></path><path d="M116.6848 231.1168c-17.5104 22.4256-17.2544 28.6208 1.28 50.432C155.648 325.888 193.3312 370.2784 230.8608 414.72c23.04-12.8 45.2096-27.0336 66.4064-42.496-1.9456-8.448-3.9424-16.896-5.7344-25.3952-3.5328-16.5888 4.3008-29.1328 18.4832-32.3584 14.4384-3.2768 26.3168 4.3008 30.6176 21.0432 0.1536 0.5632 0.256 1.0752 0.4096 1.6384a635.5456 635.5456 0 0 0 151.6032-197.8368c-126.1568-56.2176-283.904-26.112-375.9616 91.8016z" fill="#D285E5" ></path></svg>