<svg viewBox="0 0 1024 1024" version="1.1" xmlns="http://www.w3.org/2000/svg"><path d="M879.0528 722.6368h-0.3584v-93.0304c0-113.5616-18.4832-167.9872-36.9152-194.0992 10.8032-16.2816 17.152-35.7376 17.152-56.6784 0-56.576-46.0288-102.6048-102.6048-102.6048s-102.6048 46.0288-102.6048 102.6048 46.0288 102.6048 102.6048 102.6048c15.4112 0 30.0032-3.5328 43.1616-9.6256 1.1776 2.048 2.4576 4.5056 3.84 7.6288 9.2672 20.8384 20.2752 63.8464 20.2752 150.2208v93.0304H107.3152c-15.2064 0-27.5456 12.3392-27.5456 27.5456v112.4864c0 36.352 29.5936 65.8944 65.8944 65.8944h733.3888c36.352 0 65.8944-29.5936 65.8944-65.8944v-74.1376c0.0512-36.4032-29.5424-65.9456-65.8944-65.9456z" fill="#6C6CEA" ></path><path d="M149.1968 680.0384l565.8624 0.0512c7.3216 0 14.336-2.9184 19.456-8.0896a27.5968 27.5968 0 0 0 8.0896-19.5072v-65.4336c0-22.6816-12.4928-43.3664-32.5632-53.9136l-153.4464-80.5888c24.064-28.672 37.4272-64.8704 37.4272-103.2704V250.6752c0-87.5008-69.6832-161.1776-155.2896-164.2496-44.1856-1.6896-85.9648 14.4384-117.76 45.056-31.744 30.6688-49.2544 71.8336-49.2544 115.968v101.888c0 38.0928 13.2096 74.1376 36.9664 102.7584l-154.5216 81.152a60.7744 60.7744 0 0 0-32.5632 53.9136v65.3824a27.58656 27.58656 0 0 0 27.5968 27.4944z" fill="#757BF2" ></path><path d="M756.3264 481.4336c15.4112 0 30.0032-3.5328 43.1616-9.6256 1.1776 2.048 2.4576 4.5056 3.84 7.6288 9.2672 20.8384 20.2752 63.8464 20.2752 150.2208v60.1088c21.2992-33.9456 39.3728-70.0416 53.8112-107.9808-4.4032-81.5104-20.0192-124.1088-35.6352-146.176 10.8032-16.2816 17.152-35.7376 17.152-56.6784 0-56.576-46.0288-102.6048-102.6048-102.6048-56.576 0-102.6048 46.0288-102.6048 102.6048s46.0288 102.5024 102.6048 102.5024zM801.4848 722.6368H107.3152c-15.2064 0-27.5456 12.3392-27.5456 27.5456v112.4864c0 36.352 29.5936 65.8944 65.8944 65.8944h401.4592c102.1952-44.8 189.9008-116.4288 254.3616-205.9264z" fill="#757BF2" ></path><path d="M594.0224 349.3376V250.6752c0-87.5008-69.6832-161.1776-155.2896-164.2496-44.1856-1.6896-85.9648 14.4384-117.76 45.056-31.744 30.6688-49.2544 71.8336-49.2544 115.968v101.888c0 38.144 13.2096 74.1376 36.9664 102.7584l-154.5216 81.152a60.7744 60.7744 0 0 0-32.5632 53.9136v65.3824c0 15.2064 12.3392 27.5456 27.5456 27.5456l285.184 0.0512a622.9504 622.9504 0 0 0 202.9568-185.0368l-80.7424-42.3936c24.1664-28.7232 37.4784-64.9728 37.4784-103.3728zM128.8704 760.576c75.1616 0 147.2512-13.4144 213.9136-37.9392H107.3152c-15.2064 0-27.5456 12.3392-27.5456 27.5456v8.448c16.1792 1.28 32.5632 1.9456 49.1008 1.9456zM653.7216 378.8288c0 22.0672 7.0656 42.4448 18.944 59.2384 26.9824-49.3056 47.4624-102.7072 60.3136-159.0272-45.312 10.5984-79.2576 51.2512-79.2576 99.7888z" fill="#8486F8" ></path><path d="M552.4992 141.312c-28.3648-32.256-68.864-53.2992-113.7664-54.8864-44.1856-1.6896-85.9648 14.4384-117.76 45.056-31.744 30.6688-49.2544 71.8336-49.2544 115.968v101.888c0 35.328 11.4688 68.8128 32.1024 96.3072 112.6912-71.2704 200.7552-177.92 248.6784-304.3328z" fill="#8D92F8" ></path></svg>