<svg viewBox="0 0 1024 1024" version="1.1" xmlns="http://www.w3.org/2000/svg"><path d="M949.3504 456.4992l-169.472-293.5296a112.71168 112.71168 0 0 0-97.6896-56.3712h-338.944c-40.2944 0-77.5168 21.504-97.6896 56.3712l-169.472 293.5296a112.92672 112.92672 0 0 0 0 112.7936l169.472 293.5296a112.71168 112.71168 0 0 0 97.6896 56.3712h338.944c40.2944 0 77.5168-21.504 97.6896-56.3712l169.472-293.5296a112.92672 112.92672 0 0 0 0-112.7936z m-263.2192-97.536h-125.184v367.0016c0 26.624-21.5552 48.1792-48.1792 48.1792s-48.1792-21.5552-48.1792-48.1792V358.9632H339.3536c-26.624 0-48.1792-21.5552-48.1792-48.1792s21.5552-48.1792 48.1792-48.1792h346.7776c26.624 0 48.1792 21.5552 48.1792 48.1792s-21.5552 48.1792-48.1792 48.1792z" fill="#FF3369" ></path><path d="M682.1888 106.5984h-338.944c-40.2944 0-77.5168 21.504-97.6896 56.3712l-169.472 293.5296a112.92672 112.92672 0 0 0 0 112.7936l169.472 293.5296a112.71168 112.71168 0 0 0 97.6896 56.3712h11.8784c276.4288-46.1312 487.2192-286.3616 487.2192-575.8976 0-27.9552-2.0992-55.3984-5.888-82.2784l-56.576-97.9968a112.75776 112.75776 0 0 0-97.6896-56.4224z m3.9424 252.3648h-125.184v367.0016c0 26.624-21.5552 48.1792-48.1792 48.1792s-48.1792-21.5552-48.1792-48.1792V358.9632H339.3536c-26.624 0-48.1792-21.5552-48.1792-48.1792s21.5552-48.1792 48.1792-48.1792h346.7776c26.624 0 48.1792 21.5552 48.1792 48.1792s-21.5552 48.1792-48.1792 48.1792z" fill="#FF4D7C" ></path><path d="M464.5376 590.848V358.9632H339.3536c-26.624 0-48.1792-21.5552-48.1792-48.1792s21.5552-48.1792 48.1792-48.1792h329.2672c9.0112-40.8064 13.9264-83.2 13.9264-126.72 0-9.8304-0.256-19.5584-0.7168-29.2864H343.296c-40.2944 0-77.5168 21.504-97.6896 56.3712l-169.472 293.5296a112.92672 112.92672 0 0 0 0 112.7936l84.992 147.2512c114.2272-12.1856 218.5728-57.344 303.4112-125.696z" fill="#FF5F89" ></path><path d="M560.9472 358.9632v133.4784a584.96 584.96 0 0 0 77.4144-133.4784h-77.4144z" fill="#FF5F89" ></path><path d="M346.9824 358.9632h-7.6288c-26.624 0-48.1792-21.5552-48.1792-48.1792s21.5552-48.1792 48.1792-48.1792h91.6992c33.024-47.36 59.1872-99.7888 77.1072-156.0064h-164.864c-40.2944 0-77.5168 21.504-97.6896 56.3712l-169.472 293.5296c-8.3456 14.4384-13.1584 30.208-14.592 46.2336 108.9024-20.736 207.0528-71.6288 285.44-143.7696z" fill="#FF7196" ></path></svg>