<svg viewBox="0 0 1024 1024" version="1.1" xmlns="http://www.w3.org/2000/svg"><path d="M949.8112 391.2192l-163.7888-213.6576c-12.8512-16.7424-32.768-26.5728-53.8624-26.5728H285.3888c-20.8896 0-40.6016 9.6256-53.4528 26.0608L71.8848 381.696c-20.4288 26.112-18.9952 63.1808 3.3792 87.6544l385.3824 420.9152c26.7264 29.184 72.6016 29.44 99.6352 0.512l385.1776-411.9552c22.6816-24.2176 24.5248-61.2864 4.352-87.6032z m-208.7936 99.5328l-201.0112 220.8256c-6.3488 7.0144-15.36 10.9568-24.832 10.9568h-0.2048a33.34144 33.34144 0 0 1-24.8832-11.3152l-194.4576-219.136a33.60256 33.60256 0 0 1 2.816-47.4112 33.64864 33.64864 0 0 1 47.4112 2.816l169.6768 191.232 175.872-193.1776a33.536 33.536 0 0 1 47.4112-2.2016 33.57696 33.57696 0 0 1 2.2016 47.4112z" fill="#BD50D3" ></path><path d="M732.1088 150.9376H285.3888c-20.8896 0-40.6016 9.6256-53.4528 26.0608L71.8848 381.696c-20.4288 26.112-18.9952 63.1808 3.4304 87.6544l348.5696 380.7232c231.8336-81.2544 398.08-301.9776 398.08-561.5616 0-23.4496-1.3824-46.592-4.0448-69.376l-31.8976-41.6256c-12.8512-16.7424-32.768-26.5728-53.9136-26.5728z m8.9088 339.8144l-201.0112 220.8256c-6.3488 7.0144-15.36 10.9568-24.832 10.9568h-0.2048a33.34144 33.34144 0 0 1-24.8832-11.3152l-194.4576-219.136a33.60256 33.60256 0 0 1 2.816-47.4112 33.64864 33.64864 0 0 1 47.4112 2.816l169.6768 191.232 175.872-193.1776a33.536 33.536 0 0 1 47.4112-2.2016 33.57696 33.57696 0 0 1 2.2016 47.4112z" fill="#C65EDB" ></path><path d="M295.5776 492.0832a33.60256 33.60256 0 0 1 2.816-47.4112 33.64864 33.64864 0 0 1 47.4112 2.816l86.3232 97.28c120.064-94.6176 202.8032-234.4448 222.5152-393.8304H285.3888c-20.8896 0-40.6016 9.6256-53.4528 26.0608L71.8848 381.696c-20.4288 26.112-18.9952 63.1808 3.4304 87.6544l162.2016 177.152c49.4592-15.0528 96.1536-36.352 139.264-62.976L295.5776 492.0832z" fill="#CA6EE0" ></path><path d="M437.3504 150.9376H285.3888c-20.8896 0-40.6016 9.6256-53.4528 26.0608L71.8848 381.696a67.77344 67.77344 0 0 0-11.3664 61.8496c162.5088-40.96 298.4448-148.8384 376.832-292.608z" fill="#D786EA" ></path></svg>