<svg viewBox="0 0 1024 1024" version="1.1" xmlns="http://www.w3.org/2000/svg"><path d="M890.7776 345.4464c-35.5328 0-64.3072 28.8256-64.3072 64.3072 0 4.0448 0.4096 8.0384 1.1264 11.8784l-166.2464 100.7104-119.9616-233.9328c26.88-13.7216 45.312-41.6256 45.312-73.8816 0-45.824-37.1712-82.9952-82.9952-82.9952-45.824 0-82.9952 37.1712-82.9952 82.9952 0 33.6384 20.0192 62.5152 48.7424 75.52l-111.4112 232.2944-171.52-102.912c0.4608-3.1744 0.8192-6.3488 0.8192-9.6256 0-35.5328-28.8256-64.3072-64.3072-64.3072S58.624 374.272 58.624 409.8048c0 31.3344 22.4256 57.3952 52.0704 63.1296l72.0896 358.7584c7.0656 35.2256 38.0416 60.5696 73.984 60.5696h501.2992c35.9424 0 66.8672-25.344 73.984-60.5696l72.0896-358.9632c29.1328-6.144 50.944-32 50.944-62.9248 0.0512-35.5328-28.7744-64.3584-64.3072-64.3584z m-236.8512 463.36H359.8336c-19.8656 0-35.9936-16.128-35.9936-35.9936s16.128-35.9936 35.9936-35.9936h294.0928c19.8656 0 35.9936 16.128 35.9936 35.9936s-16.128 35.9936-35.9936 35.9936z" fill="#FC7032" ></path><path d="M827.2384 421.8368l-165.888 100.5056-119.9616-233.9328c26.88-13.7216 45.312-41.6256 45.312-73.8816 0-45.824-37.1712-82.9952-82.9952-82.9952-45.824 0-82.9952 37.1712-82.9952 82.9952 0 33.6384 20.0192 62.5152 48.7424 75.52l-111.4112 232.2944-171.52-102.912c0.4608-3.1232 0.8192-6.3488 0.8192-9.6256 0-35.5328-28.8256-64.3072-64.3072-64.3072-35.5328 0-64.3072 28.8256-64.3072 64.3072 0 31.3344 22.4256 57.3952 52.0704 63.1296l72.0896 358.7584c7.0656 35.2256 38.0416 60.5696 73.984 60.5696h324.352c148.5824-100.2496 246.3232-270.1312 246.3232-462.848-0.1024-2.5088-0.256-5.0176-0.3072-7.5776z m-173.312 386.9696H359.8336c-19.8656 0-35.9936-16.128-35.9936-35.9936 0-19.8656 16.128-35.9936 35.9936-35.9936h294.0928c19.8656 0 35.9936 16.128 35.9936 35.9936 0 19.8656-16.128 35.9936-35.9936 35.9936zM827.1872 418.7136c-0.1024-5.12-0.1536-10.2912-0.4096-15.36-0.2048 2.1504-0.3072 4.3008-0.3072 6.4512 0 3.0208 0.3072 5.9904 0.7168 8.9088z" fill="#FF7E3E" ></path><path d="M340.6848 742.3488a34.048 34.048 0 0 1 9.1136-4.096c123.5456-56.832 222.72-157.44 277.7088-281.9584l-86.0672-167.8336c26.88-13.7216 45.312-41.6256 45.312-73.8816 0-45.824-37.1712-82.9952-82.9952-82.9952-45.824 0-82.9952 37.1712-82.9952 82.9952 0 33.6384 20.0192 62.5152 48.7424 75.52l-111.4112 232.2944-171.5712-102.9632c0.4608-3.1232 0.8192-6.3488 0.8192-9.6256 0-35.5328-28.8256-64.3072-64.3072-64.3072-35.5328 0-64.3072 28.8256-64.3072 64.3072 0 31.3344 22.4256 57.3952 52.0704 63.1296l62.976 313.3952c58.7776-5.9392 114.8928-21.1456 166.912-43.9808z" fill="#FF9552" ></path><path d="M525.2608 134.5024c-6.8608-1.8432-14.08-2.9184-21.5552-2.9184-45.824 0-82.9952 37.1712-82.9952 82.9952 0 33.6384 20.0192 62.5152 48.7424 75.52l-16.1792 33.7408c34.8672-57.1904 59.5456-121.1392 71.9872-189.3376zM186.5216 419.4304c0.4608-3.1232 0.8192-6.3488 0.8192-9.6256 0-35.5328-28.8256-64.3072-64.3072-64.3072-35.5328 0-64.3072 28.8256-64.3072 64.3072 0 31.3344 22.4256 57.3952 52.0704 63.1296l19.5584 97.2288a556.6464 556.6464 0 0 0 170.3936-82.2784L186.5216 419.4304z" fill="#FFA56A" ></path></svg>