<svg viewBox="0 0 1024 1024" version="1.1" xmlns="http://www.w3.org/2000/svg"><path d="M896.4608 876.0832l-152.576-113.152h35.1744c51.9168 0 94.0544-42.0864 94.0544-94.0544l-20.48-424.4992c0-51.9168-42.0864-94.0544-94.0544-94.0544h-69.2736c-4.9664-20.224-23.1424-35.2256-44.9024-35.2256H384.6144c-21.7088 0-39.936 15.0016-44.9024 35.2256H270.4384c-51.9168 0-94.0544 42.0864-94.0544 94.0544l-20.48 424.4992c0 51.9168 42.0864 94.0544 94.0544 94.0544h33.4848l-151.296 113.152c-11.4176 8.4992-5.376 26.624 8.8576 26.624h746.5984c14.336 0.0512 20.3264-18.1248 8.8576-26.624z m-633.1392-15.5648l40.2432-36.7104 419.6864 3.5328 29.5936 33.1776H263.3216z m481.8432-154.9312c-29.696 0-53.8112-24.1152-53.8112-53.8112s24.1152-53.8112 53.8112-53.8112 53.8112 24.1152 53.8112 53.8112c0 29.7472-24.064 53.8112-53.8112 53.8112zM375.04 189.0816h278.9376v35.2256H375.04v-35.2256zM254.1056 317.3376a37.2224 37.2224 0 0 1 37.2224-37.2224h446.4128a37.2224 37.2224 0 0 1 37.2224 37.2224l20.48 184.576a37.2224 37.2224 0 0 1-37.2224 37.2224H270.848a37.2224 37.2224 0 0 1-37.2224-37.2224l20.48-184.576z m-26.9312 334.4384c0-29.696 24.1152-53.8112 53.8112-53.8112s53.8112 24.1152 53.8112 53.8112-24.1152 53.8112-53.8112 53.8112c-29.7472 0-53.8112-24.064-53.8112-53.8112z m451.6352 111.1552l24.32 29.184H325.1712l27.5968-29.184h326.0416z" fill="#6D6DF2" ></path><path d="M567.9104 860.5184H263.3216l40.2432-36.7104 319.6416 2.6624c15.5648-10.752 30.5664-22.2208 45.0048-34.3552h-343.04l27.5968-29.184h325.9904l9.5232 11.4688c23.2448-21.4016 44.8512-44.5952 64.512-69.376-2.5088 0.3584-5.0688 0.6144-7.68 0.6144-29.696 0-53.8112-24.1152-53.8112-53.8112s24.1152-53.8112 53.8112-53.8112c25.7024 0 47.1552 18.0224 52.48 42.1376 29.3888-49.1008 51.9168-102.7584 66.3552-159.6416l-11.3664-236.032c0-51.9168-42.0864-94.0544-94.0544-94.0544h-69.2736c-4.9664-20.224-23.1424-35.2256-44.9024-35.2256H384.6144c-21.7088 0-39.936 15.0016-44.9024 35.2256H270.4384c-51.968 0-94.0544 42.0864-94.0544 94.0544l-20.48 424.4992c0 51.968 42.0864 94.0544 94.0544 94.0544h33.4848l-151.296 113.152c-11.4176 8.4992-5.376 26.624 8.8576 26.624h328.9088c34.1504-11.264 66.9184-25.4464 97.9968-42.2912zM375.04 189.0816h278.9376v35.2256H375.04v-35.2256zM254.1056 317.3376a37.2224 37.2224 0 0 1 37.2224-37.2224h446.4128a37.2224 37.2224 0 0 1 37.2224 37.2224l20.48 184.576a37.2224 37.2224 0 0 1-37.2224 37.2224H270.848a37.2224 37.2224 0 0 1-37.2224-37.2224l20.48-184.576z m26.88 388.2496c-29.696 0-53.8112-24.1152-53.8112-53.8112s24.1152-53.8112 53.8112-53.8112 53.8112 24.1152 53.8112 53.8112c0 29.7472-24.1152 53.8112-53.8112 53.8112z" fill="#757BF2" ></path><path d="M227.1744 651.776c0-29.696 24.1152-53.8112 53.8112-53.8112s53.8112 24.1152 53.8112 53.8112c0 11.6224-3.7376 22.3744-9.984 31.1808 84.5824-31.0784 160.256-80.64 222.0544-143.8208H270.848a37.2224 37.2224 0 0 1-37.2224-37.2224l20.48-184.576a37.2224 37.2224 0 0 1 37.2224-37.2224h405.0432a599.1424 599.1424 0 0 0 21.0432-129.7408h-28.1088c-4.9664-20.224-23.1424-35.2256-44.9024-35.2256H384.6144c-21.7088 0-39.936 15.0016-44.9024 35.2256H270.4384c-51.968 0-94.0544 42.0864-94.0544 94.0544l-20.48 424.4992c0 17.7664 5.0176 34.304 13.568 48.4352 31.5904-2.7136 62.5152-7.8336 92.5184-15.2576-20.3264-7.68-34.816-27.2896-34.816-50.3296z m147.8656-462.6944h278.9376v35.2256H375.04v-35.2256z" fill="#8486F8" ></path><path d="M240.3328 441.344l13.7216-124.0064a37.2224 37.2224 0 0 1 37.2224-37.2224h145.664c14.1824-17.8176 27.3408-36.4544 39.424-55.808H375.04v-35.2256h121.7024c12.6976-23.7568 23.808-48.4352 33.28-73.9328h-145.408c-21.7088 0-39.936 15.0016-44.9024 35.2256H270.4384c-51.968 0-94.0544 42.0864-94.0544 94.0544l-11.0592 229.0688c25.856-9.0624 50.944-19.8144 75.008-32.1536z" fill="#8D92F8" ></path></svg>