<svg viewBox="0 0 1024 1024" version="1.1" xmlns="http://www.w3.org/2000/svg"><path d="M742.7584 92.9792h-457.728c-70.2976 0-127.232 56.9856-127.232 127.232v619.6224c0 66.4576 74.2912 105.8304 129.28 68.5056l180.2752-122.368c20.2752-13.7728 46.7968-14.2336 67.5328-1.1264l208.2304 131.2256c55.1424 34.7648 126.9248-4.864 126.9248-70.0416V220.2112c0-70.2976-56.9856-127.232-127.2832-127.232z m-88.4736 336.7424l-51.2512 49.9712c-4.0448 3.9424-5.888 9.6256-4.9152 15.2064l12.0832 70.5536c2.4064 14.0288-12.3392 24.7296-24.9344 18.0736l-63.3856-33.3312c-5.0176-2.6112-10.9568-2.6112-15.9744 0l-63.3856 33.3312c-12.5952 6.6048-27.3408-4.096-24.9344-18.0736l12.0832-70.5536c0.9728-5.5808-0.8704-11.264-4.9152-15.2064l-51.2512-49.9712c-10.1888-9.9328-4.5568-27.2384 9.5232-29.2864l70.8608-10.2912c5.5808-0.8192 10.4448-4.3008 12.9024-9.3696l31.6928-64.2048c6.2976-12.7488 24.4736-12.7488 30.7712 0l31.6928 64.2048c2.5088 5.0688 7.3216 8.6016 12.9024 9.3696l70.8608 10.2912c14.1312 2.048 19.7632 19.3536 9.5744 29.2864z" fill="#F23D4F" ></path><path d="M870.0416 220.2112c0-70.2976-56.9856-127.232-127.232-127.232h-457.728c-70.2976 0-127.232 56.9856-127.232 127.232v619.6224c0 66.4576 74.2912 105.8304 129.28 68.5056l180.2752-122.368c20.2752-13.7728 46.7968-14.2336 67.5328-1.1264l63.6928 40.1408c128.5632-83.456 226.048-210.5856 271.4624-360.3968V220.2112z m-215.7568 209.5104l-51.2512 49.9712c-4.0448 3.9424-5.888 9.6256-4.9152 15.2064l12.0832 70.5536c2.4064 14.0288-12.3392 24.7296-24.9344 18.0736l-63.3856-33.3312c-5.0176-2.6112-10.9568-2.6112-15.9744 0l-63.3856 33.3312c-12.5952 6.6048-27.2896-4.096-24.9344-18.0736l12.0832-70.5536c0.9728-5.5808-0.8704-11.264-4.9152-15.2064l-51.2512-49.9712c-10.1888-9.9328-4.5568-27.2384 9.5232-29.2864l70.8608-10.2912c5.5808-0.8192 10.4448-4.3008 12.9024-9.3696l31.6928-64.2048c6.2976-12.7488 24.4736-12.7488 30.7712 0l31.6928 64.2048c2.5088 5.0688 7.3216 8.6016 12.9024 9.3696l70.8608 10.2912c14.1312 2.048 19.7632 19.3536 9.5744 29.2864z" fill="#FC4956" ></path><path d="M429.4144 584.6528c-7.6288-2.4576-13.3632-10.0864-11.776-19.2l12.0832-70.5536c0.9728-5.5808-0.8704-11.264-4.9152-15.2064l-51.2512-49.9712c-10.1888-9.9328-4.5568-27.2384 9.5232-29.2864l70.8608-10.2912c5.5808-0.8192 10.4448-4.3008 12.9024-9.3696l31.6928-64.2048c6.2976-12.7488 24.4736-12.7488 30.7712 0l31.6928 64.2048c2.5088 5.0688 7.3216 8.6016 12.9024 9.3696l40.0896 5.8368a653.04576 653.04576 0 0 0 102.4512-303.0016H285.0304c-70.2976 0-127.232 56.9856-127.232 127.232v469.9648a652.81024 652.81024 0 0 0 271.616-105.5232z" fill="#FF5C64" ></path><path d="M488.3968 92.9792H285.0304c-70.2976 0-127.232 56.9856-127.232 127.232v190.464c144.64-62.8224 262.2976-176.128 330.5984-317.696z" fill="#FF716E" ></path></svg>