<svg viewBox="0 0 1024 1024" version="1.1" xmlns="http://www.w3.org/2000/svg"><path d="M734.9248 574.3104c-87.296 0-158.3104 71.0144-158.3104 158.3104S647.6288 890.88 734.9248 890.88s158.3104-71.0144 158.3104-158.3104-71.0144-158.2592-158.3104-158.2592z m53.9136 191.5392h-21.3504v26.368a32.8192 32.8192 0 0 1-65.6384 0v-26.368h-22.9888a32.8192 32.8192 0 0 1 0-65.6384h22.9888v-22.4768a32.8192 32.8192 0 0 1 65.6384 0v22.4768h21.3504a32.8192 32.8192 0 0 1 0 65.6384z" fill="#BD50D3" ></path><path d="M513.1264 91.1872c-231.0656 0-418.4064 187.3408-418.4064 418.4064 0 231.0656 187.3408 418.4064 418.4064 418.4064 36.2496 0 71.4752-4.608 105.0112-13.312-59.904-38.5024-99.6352-105.6256-99.6352-182.1184 0-119.5008 96.8704-216.3712 216.3712-216.3712 76.8512 0 144.3328 40.1408 182.7328 100.5568a419.87072 419.87072 0 0 0 13.8752-107.1104c0.0512-231.1168-187.2896-418.4576-418.3552-418.4576z m46.4384 420.1984c0 23.04-18.688 41.728-41.728 41.728H302.7456c-23.04 0-41.728-18.688-41.728-41.728s18.688-41.728 41.728-41.728h173.3632V259.072c0-23.04 18.688-41.728 41.728-41.728s41.728 18.688 41.728 41.728v252.3136z" fill="#BD50D3" ></path><path d="M513.1264 91.1872c-231.0656 0-418.4064 187.3408-418.4064 418.4064 0 193.4336 131.328 356.1472 309.6576 404.0704 53.6064-13.2096 104.2432-33.8432 150.784-60.8768-23.04-34.4064-36.608-75.6736-36.608-120.2176 0-119.5008 96.8704-216.3712 216.3712-216.3712 28.16 0 55.0912 5.4272 79.7696 15.2576 18.0736-55.9104 27.904-115.5584 27.904-177.4592 0-39.936-4.0448-78.8992-11.776-116.5312-76.8-89.4976-190.5664-146.2784-317.696-146.2784z m46.4384 420.1984c0 23.04-18.688 41.728-41.728 41.728H302.7456c-23.04 0-41.728-18.688-41.728-41.728s18.688-41.728 41.728-41.728h173.3632V259.072c0-23.04 18.688-41.728 41.728-41.728s41.728 18.688 41.728 41.728v252.3136z" fill="#BF5CD6" ></path><path d="M576.6144 732.5696c0 32.768 10.0352 63.2832 27.136 88.576 23.6544-17.152 45.9776-36.0448 66.7648-56.4736-14.0288-3.6864-24.4736-16.384-24.4736-31.5904a32.8192 32.8192 0 0 1 32.8192-32.8192h22.9888v-22.4256a32.8192 32.8192 0 0 1 32.8192-32.8192c9.1136 0 17.3056 3.6864 23.2448 9.6768 13.5168-22.016 25.5488-45.056 36.0448-68.9152a157.52192 157.52192 0 0 0-59.0848-11.4688c-87.2448 0-158.2592 70.9632-158.2592 158.2592z" fill="#BF5CD6" ></path><path d="M94.72 509.5936c0 78.336 21.5552 151.6032 59.0336 214.272 143.0016-11.1104 271.36-74.4448 366.0288-170.8544-0.6656 0.0512-1.28 0.1024-1.9456 0.1024H302.7456c-23.04 0-41.728-18.688-41.728-41.728s18.688-41.728 41.728-41.728h173.3632V259.072c0-23.04 18.688-41.728 41.728-41.728s41.728 18.688 41.728 41.728v248.9856c78.4384-98.4576 125.2864-223.1296 125.2864-358.8096 0-7.168-0.1536-14.2336-0.4096-21.3504a417.09568 417.09568 0 0 0-171.3152-36.7104c-231.1168 0-418.4064 187.3408-418.4064 418.4064z" fill="#CA6EE0" ></path><path d="M94.7712 506.624c207.9232-48.4352 372.6336-209.408 426.3936-415.232-2.7136-0.0512-5.376-0.2048-8.0896-0.2048-230.0416 0-416.7168 185.7536-418.304 415.4368z" fill="#D786EA" ></path></svg>