<svg viewBox="0 0 1024 1024" version="1.1" xmlns="http://www.w3.org/2000/svg"><path d="M765.0816 98.4576H248.6784C204.6464 98.4576 168.96 134.144 168.96 178.176v103.68h675.84V178.176c0-44.032-35.6864-79.7184-79.7184-79.7184z m-193.9968 139.8272a37.2736 37.2736 0 1 1 0.01024-74.55744 37.2736 37.2736 0 0 1-0.01024 74.55744z m139.4176 0a37.2736 37.2736 0 1 1 0.01024-74.55744 37.2736 37.2736 0 0 1-0.01024 74.55744zM506.88 450.6112c-89.8048 0-162.8672 73.0624-162.8672 162.8672S417.0752 776.3456 506.88 776.3456s162.8672-73.0624 162.8672-162.8672S596.6848 450.6112 506.88 450.6112z m0 287.3344c-68.608 0-124.4672-55.808-124.4672-124.4672 0-68.608 55.808-124.4672 124.4672-124.4672 68.608 0 124.4672 55.808 124.4672 124.4672 0 68.608-55.8592 124.4672-124.4672 124.4672z" fill="#FF4D7C" ></path><path d="M168.96 337.0496v522.6496c0 44.032 35.6864 79.7184 79.7184 79.7184h516.4032c44.032 0 79.7184-35.6864 79.7184-79.7184V337.0496H168.96z m337.92 494.5408c-120.2688 0-218.112-97.8432-218.112-218.112s97.8432-218.112 218.112-218.112 218.112 97.8432 218.112 218.112-97.8432 218.112-218.112 218.112z" fill="#FF3369" ></path><path d="M506.88 544.256c-38.144 0-69.1712 31.0272-69.1712 69.1712s31.0272 69.1712 69.1712 69.1712 69.1712-31.0272 69.1712-69.1712S545.024 544.256 506.88 544.256z" fill="#FF4D7C" ></path><path d="M844.8 337.0496H168.96v522.6496c0 20.3264 7.68 38.7584 20.1728 52.8384 20.3264 1.9968 40.96 3.072 61.8496 3.072 125.6448 0 242.6368-37.1712 340.5312-101.0688a216.64768 216.64768 0 0 1-84.5824 17.1008c-120.2688 0-218.112-97.8432-218.112-218.112s97.8432-218.112 218.112-218.112 218.112 97.8432 218.112 218.112c0 47.7696-15.4624 91.9552-41.6256 127.8976 73.3184-70.5024 129.4336-158.8224 161.4336-257.9456v-146.432z" fill="#FF4D7C" ></path><path d="M684.1856 227.3792a37.2224 37.2224 0 0 1-10.9568-26.4192c0-15.7184 9.7792-29.1328 23.6032-34.6112 3.4304-22.272 5.7344-44.9536 6.7584-67.9424H248.6784C204.6464 98.4576 168.96 134.1952 168.96 178.176v103.68h498.3296c6.4512-17.7664 12.0832-35.9424 16.896-54.4768z m-113.1008 10.9056a37.2736 37.2736 0 1 1 0.01024-74.55744 37.2736 37.2736 0 0 1-0.01024 74.55744zM344.0128 613.4784c0 7.2704 0.512 14.4384 1.4336 21.4528 12.5952-5.9392 24.9344-12.2368 37.0688-18.944 0-0.8192-0.1024-1.6384-0.1024-2.5088 0-68.608 55.808-124.4672 124.4672-124.4672 11.008 0 21.6064 1.5872 31.7952 4.2496 9.4208-10.1888 18.4832-20.736 27.2384-31.5392-18.3296-7.168-38.1952-11.1104-59.0336-11.1104-89.8048 0-162.8672 73.0624-162.8672 162.8672z" fill="#FF5F89" ></path><path d="M168.96 687.7184c42.9568-6.0928 84.48-16.5888 124.16-30.976-2.816-13.9776-4.3008-28.4672-4.3008-43.264 0-120.2688 97.8432-218.112 218.112-218.112 33.1264 0 64.512 7.4752 92.6208 20.6848 16.7936-25.1392 31.744-51.5072 44.8-79.0528H168.96v350.72z" fill="#FF5F89" ></path><path d="M495.4624 98.4576h-246.784C204.6464 98.4576 168.96 134.1952 168.96 178.176v103.68h203.8784a623.77984 623.77984 0 0 0 122.624-183.3984zM168.96 422.9632c51.7632-22.2208 99.9424-51.2 143.4112-85.9136H168.96v85.9136z" fill="#FF7196" ></path></svg>