<svg viewBox="0 0 1024 1024" version="1.1" xmlns="http://www.w3.org/2000/svg"><path d="M908.4928 460.1856c-51.968-22.8864-105.472 8.8064-116.8896 63.2832-11.8784 56.576-8.6016 94.2592-8.6016 94.2592s-92.3136-48.8448-271.1552-48.8448-270.7968 43.8272-270.7968 43.8272 0.7168-75.4176-14.3872-108.4416c-15.104-33.024-46.336-70.1952-107.3664-48.64-61.0304 21.5552-51.9168 96.4096-25.344 130.9184 26.5728 34.4576 35.7376 61.3888 37.1712 82.944 0.9216 13.7728 3.584 79.0528 5.4272 131.4816 0.9728 27.5456 22.4768 49.6128 49.5616 51.7632v36.5568a20.992 20.992 0 0 0 20.992 20.992h61.3888a20.992 20.992 0 0 0 20.992-20.992v-36.352h446.6176v36.352a20.992 20.992 0 0 0 20.992 20.992h61.3888a20.992 20.992 0 0 0 20.992-20.992v-36.9152c26.2656-3.584 46.4896-26.0608 46.4896-53.2992v-118.8352c0-38.0928 23.7056-84.736 48.128-117.0944 24.5248-32.3072 13.9264-85.5552-25.6-102.9632z" fill="#BD50D3" ></path><path d="M284.8256 537.2928s112.7936-34.4576 224.8192-34.4576 231.2704 39.5264 231.2704 39.5264S731.5968 436.736 844.3904 399.36c0-110.592 1.4336-289.4848-323.2256-289.4848-324.6592 0-322.5088 210.432-331.1104 275.0976 24.3712 10.8032 99.9936 72.4992 94.7712 152.32z" fill="#C65EDB" ></path><path d="M791.6032 523.4688c-11.8272 56.576-8.6016 94.2592-8.6016 94.2592s-92.3136-48.8448-271.1552-48.8448-270.7968 43.8272-270.7968 43.8272 0.7168-75.4176-14.3872-108.4416c-15.104-33.024-46.336-70.1952-107.3664-48.64-61.0816 21.5552-51.9168 96.4096-25.344 130.9184 26.5728 34.4576 35.7376 61.3888 37.1712 82.944 0.9216 13.7728 3.584 79.0528 5.4272 131.4816 0.9728 27.5456 22.4768 49.6128 49.5616 51.7632v36.5568a20.992 20.992 0 0 0 20.992 20.992h61.3888a20.992 20.992 0 0 0 20.992-20.992v-36.352h324.096c135.68-90.5728 233.3696-233.5744 264.0896-400.0768-40.7552-1.9968-76.9536 26.9312-86.0672 70.6048z" fill="#C65EDB" ></path><path d="M190.0544 385.024c24.4224 10.752 100.0448 72.448 94.8224 152.2688 0 0 112.7936-34.4576 224.8192-34.4576 24.7296 0 49.7664 1.9456 73.8304 4.9152C664.1664 407.552 714.1376 281.6 719.0528 144.128c-46.5408-21.1456-110.336-34.2016-197.888-34.2016-324.6592 0-322.5088 210.432-331.1104 275.0976z" fill="#CA6EE0" ></path><path d="M511.7952 568.8832c-178.8416 0-270.7968 43.8272-270.7968 43.8272s0.7168-75.4176-14.3872-108.4416c-15.104-33.024-46.336-70.1952-107.3664-48.64-61.0816 21.5552-51.9168 96.4096-25.344 130.9184 26.5728 34.4576 35.7376 61.3888 37.1712 82.944 0.5632 8.3456 1.7408 35.5328 3.0208 67.2768 151.8592-7.3728 289.28-69.7856 392.7552-167.7312-4.9152-0.1024-9.9328-0.1536-15.0528-0.1536z" fill="#CA6EE0" ></path><path d="M521.1648 109.9264c-324.6592 0-322.5088 210.432-331.1104 275.0976 12.9024 5.6832 40.0384 25.6 62.0544 54.8352 127.8976-72.4992 227.2768-189.44 277.1456-329.8816-2.7136 0-5.376-0.0512-8.0896-0.0512zM199.5264 466.3808c-18.1248-15.5648-43.8272-23.6544-80.2304-10.8032-26.7264 9.4208-39.9872 29.0304-44.2368 51.0464 43.3152-9.0112 84.992-22.6304 124.4672-40.2432z" fill="#D786EA" ></path></svg>