<?xml version="1.0" standalone="no"?><!DOCTYPE svg PUBLIC "-//W3C//DTD SVG 1.1//EN" "http://www.w3.org/Graphics/SVG/1.1/DTD/svg11.dtd"><svg class="icon" width="66px" height="66.00px" viewBox="0 0 1024 1024" version="1.1" xmlns="http://www.w3.org/2000/svg"><path d="M299.584 85.334S363.584 64 512.916 64c149.334 0 213.334 21.334 213.334 21.334V320s-21.334-21.334-213.334-21.334S299.584 320 299.584 320V85.334z" fill="#F7B500" /><path d="M79.38 307.62c-9.92 20.44-5.674 44.508 9.046 61.816 44.054 51.788 147.136 169.208 284.694 301.902a1217.822 1217.822 0 0 1-9.558 11.328h298.666c-3.2-3.754-6.378-7.53-9.556-11.328 137.556-132.694 240.64-250.114 284.714-301.902 14.72-17.308 18.966-41.376 9.024-61.818-71.98-148.19-220.18-222.284-220.18-222.284s-74.24 186.582-213.334 397.34C373.824 271.918 299.56 85.336 299.56 85.336S151.382 159.428 79.382 307.618z" fill="#FF934A" /><path d="M512.916 725.334m-234.666 0a234.666 234.666 0 1 0 469.332 0 234.666 234.666 0 1 0-469.332 0Z" fill="#FCBF28" /><path d="M488.724 590.78c10.176-19.706 38.208-19.706 48.384 0l32.94 63.834 70.186 13.888c20.758 4.116 29.14 29.396 14.998 45.204l-49.878 55.766 9.13 74.39c2.668 21.696-19.754 37.632-39.21 27.86l-62.358-31.274-62.356 31.274c-19.456 9.772-41.878-6.164-39.212-27.86l9.132-74.39-49.878-55.766c-14.144-15.808-5.76-41.088 14.998-45.204l70.186-13.888 32.94-63.834z" fill="#FFFFFF" /></svg>