<svg viewBox="0 0 1024 1024" version="1.1" xmlns="http://www.w3.org/2000/svg"><path d="M908.3392 196.096h-127.3856v-35.584c0-20.1728-16.384-36.5568-36.5568-36.5568H301.1072c-20.1728 0-36.5568 16.384-36.5568 36.5568v35.584H139.6736a35.7888 35.7888 0 0 0-35.7888 35.7888V407.552c0 62.9248 51.2 114.1248 114.1248 114.1248h53.5552c24.2176 102.5536 109.5168 181.4528 215.4496 196.1472v116.2752H357.6832a35.7888 35.7888 0 0 0 0 71.5776H696.32a35.7888 35.7888 0 0 0 0-71.5776h-137.728V717.824c105.9328-14.6944 191.232-93.5936 215.4496-196.1472h56.0128c62.9248 0 114.1248-51.2 114.1248-114.1248V231.936c-0.0512-19.7632-16.0768-35.84-35.84-35.84zM264.5504 450.0992h-46.5408c-23.4496 0-42.496-19.0464-42.496-42.496V267.7248h89.088v182.3744z m133.7856 0a34.36032 34.36032 0 0 1-68.7104 0V283.5456a34.36032 34.36032 0 0 1 68.7104 0v166.5536z m474.2144-42.496c0 23.4496-19.0976 42.496-42.496 42.496h-49.0496V267.7248h91.5968v139.8784z" fill="#FF8E12" ></path><path d="M745.472 124.1088c-0.3584 0-0.7168-0.1024-1.0752-0.1024H301.1072c-20.1728 0-36.5568 16.384-36.5568 36.5568v35.584H139.6736a35.7888 35.7888 0 0 0-35.7888 35.7888v175.6672c0 62.9248 51.2 114.1248 114.1248 114.1248h53.5552c24.2176 102.5536 109.5168 181.4528 215.4496 196.1472v9.0112c165.888-85.4016 279.3984-258.2016 279.3984-457.6256-0.0512-50.4832-7.424-99.1232-20.9408-145.152zM264.5504 450.0992h-46.5408c-23.4496 0-42.496-19.0464-42.496-42.496V267.7248h89.088v182.3744z m133.7856 0a34.36032 34.36032 0 0 1-68.7104 0V283.5456a34.36032 34.36032 0 0 1 68.7104 0v166.5536z" fill="#FCA315" ></path><path d="M301.1072 123.9552c-20.1728 0-36.5568 16.384-36.5568 36.5568v35.584H139.6736a35.7888 35.7888 0 0 0-35.7888 35.7888V407.552c0 62.9248 51.2 114.1248 114.1248 114.1248h53.5552c3.9424 16.7424 9.6768 32.7168 16.6912 48.0256 185.7024-68.096 321.024-240.2304 335.872-445.7472H301.1072z m-36.5568 326.144h-46.5408c-23.4496 0-42.496-19.0464-42.496-42.496V267.7248h89.088v182.3744z m133.7856 0a34.36032 34.36032 0 0 1-68.7104 0V283.5456a34.36032 34.36032 0 0 1 68.7104 0v166.5536z" fill="#FCB138" ></path><path d="M329.6256 283.136a34.34496 34.34496 0 0 1 33.5872-33.8944c33.6896-37.2224 62.0032-79.36 83.712-125.2864H301.1072c-20.1728 0-36.5568 16.384-36.5568 36.5568v35.584H139.6736a35.7888 35.7888 0 0 0-35.7888 35.7888v172.288c24.6272-5.9904 48.5376-13.7728 71.5776-23.1936V267.7248h89.088v66.3552c23.0912-15.2576 44.8-32.3072 65.0752-50.944z" fill="#FFC65E" ></path></svg>