<?xml version="1.0" standalone="no"?><!DOCTYPE svg PUBLIC "-//W3C//DTD SVG 1.1//EN" "http://www.w3.org/Graphics/SVG/1.1/DTD/svg11.dtd"><svg class="icon" width="66px" height="66.00px" viewBox="0 0 1024 1024" version="1.1" xmlns="http://www.w3.org/2000/svg"><path d="M162.322 344.124c29.034-34.04 80.982-26.482 116.994-8.452 20.82 10.86 46.506 2.846 57.472-17.958 10.986-20.864 2.986-46.69-17.856-57.686l-0.064-0.034c-71.02-37.24-166.424-35.824-221.442 28.67-47.298 55.44-41.43 141.954-1.024 207.804 42.602 69.41 125.46 122.87 244.93 122.87 23.574 0 42.666-19.114 42.666-42.7 0-23.584-19.092-42.702-42.666-42.702-91.99 0-146.264-39.86-172.226-82.166-28.14-45.872-22.294-89.48-6.784-107.646zM861.678 344.124c-29.034-34.04-80.982-26.482-116.994-8.452-20.82 10.86-46.506 2.846-57.472-17.958-10.986-20.864-2.986-46.69 17.856-57.686l0.064-0.034c71.02-37.24 166.424-35.824 221.442 28.67 47.298 55.44 41.43 141.954 1.024 207.804-42.602 69.41-125.46 122.87-244.93 122.87-23.574 0-42.666-19.114-42.666-42.7 0-23.584 19.092-42.702 42.666-42.702 91.99 0 146.264-39.86 172.226-82.166 28.14-45.872 22.294-89.48 6.784-107.646zM566.572 640.672h-109.144l-26.986 140.61c-3.456 17.984-18.24 31.808-36.758 34.39l-75.968 10.6c-27.5 3.84-49.516 24.194-54.956 50.796l-6.23 30.38c-3.37 16.49 9.536 31.894 26.774 31.894h457.392c17.238 0 30.144-15.404 26.774-31.894l-6.23-30.38c-5.44-26.602-27.456-46.954-54.956-50.794l-75.968-10.602c-18.518-2.582-33.3-16.406-36.758-34.39l-26.986-140.61z" fill="#FF934A" /><path d="M274.174 569.52c17.792 102.66 109.036 177.82 215.896 177.82h43.86c106.86 0 198.104-75.16 215.896-177.82l38.828-224.026a334.694 334.694 0 0 1 28.46-88.516l25.96-53.76c24.47-50.69 4.48-99.26-52.628-105.72C735.212 91.25 648.258 86 512 86c-136.258 0-223.212 5.25-278.446 11.5-57.11 6.46-77.1 55.028-52.63 105.72l25.964 53.758a334.67 334.67 0 0 1 28.46 88.516l38.826 224.024z" fill="#FCBF28" /><path d="M487.808 228.78c10.176-19.704 38.208-19.704 48.384 0l32.94 63.838 70.186 13.892c20.758 4.106 29.142 29.382 14.998 45.192l-49.878 55.766 9.13 74.404c2.668 21.688-19.754 37.624-39.21 27.866L512 478.452l-62.358 31.286c-19.456 9.758-41.878-6.18-39.21-27.866l9.13-74.404-49.878-55.766c-14.144-15.81-5.76-41.086 14.998-45.192l70.186-13.892 32.94-63.836z" fill="#FFFFFF" /></svg>