<svg viewBox="0 0 1024 1024" version="1.1" xmlns="http://www.w3.org/2000/svg"><path d="M714.6496 832.3072H311.296c-23.9616 0-43.4688 19.5072-43.4688 43.4688s19.5072 43.4688 43.4688 43.4688h403.3536c23.9616 0 43.4688-19.5072 43.4688-43.4688 0-24.0128-19.5072-43.4688-43.4688-43.4688zM804.864 100.7616H221.0816c-65.28 0-118.2208 52.9408-118.2208 118.1696v441.6c0 65.28 52.9408 118.2208 118.2208 118.2208H804.864c65.28 0 118.2208-52.9408 118.2208-118.2208V218.9312c0-65.28-52.9408-118.1696-118.2208-118.1696z m-13.0048 449.536h-143.3088c-10.5472 0-20.6848-4.0448-28.2624-11.3664L482.4576 407.0912l-63.744 117.9648a40.86784 40.86784 0 0 1-35.9936 21.4528H244.1216c-22.5792 0-40.9088-18.3296-40.9088-40.9088s18.3296-40.9088 40.9088-40.9088h114.176L435.968 321.024a40.71936 40.71936 0 0 1 29.6448-20.9408c12.5952-1.9456 25.3952 2.048 34.6112 10.8544l164.7104 157.5936h126.9248c22.5792 0 40.9088 18.3296 40.9088 40.9088-0.0512 22.528-18.3296 40.8576-40.9088 40.8576z" fill="#6C6CEA" ></path><path d="M923.0848 218.9312c0-65.28-52.9408-118.1696-118.2208-118.1696H221.0816c-65.28 0-118.2208 52.9408-118.2208 118.1696v441.6c0 65.28 52.9408 118.2208 118.2208 118.2208h409.6512c155.5456-100.9664 265.5232-266.1888 292.352-458.0864V218.9312z m-131.2256 331.3664h-143.3088c-10.5472 0-20.6848-4.0448-28.2624-11.3664L482.4576 407.0912l-63.744 117.9648a40.86784 40.86784 0 0 1-35.9936 21.4528H244.1216c-22.5792 0-40.9088-18.3296-40.9088-40.9088s18.3296-40.9088 40.9088-40.9088h114.176L435.968 321.024a40.71936 40.71936 0 0 1 29.6448-20.9408c12.5952-1.9456 25.3952 2.048 34.6112 10.8544l164.7104 157.5936h126.9248c22.5792 0 40.9088 18.3296 40.9088 40.9088-0.0512 22.528-18.3296 40.8576-40.9088 40.8576zM311.296 832.3072c-23.9616 0-43.4688 19.5072-43.4688 43.4688 0 2.7648 0.3072 5.4784 0.768 8.0896 2.048 0 4.096 0.1024 6.144 0.1024 90.5216 0 176.7936-18.3808 255.232-51.6096H311.296z" fill="#757BF2" ></path><path d="M548.096 469.9136L482.4576 407.0912l-63.744 117.9648a40.86784 40.86784 0 0 1-35.9936 21.4528H244.1216c-22.5792 0-40.9088-18.3296-40.9088-40.9088s18.3296-40.9088 40.9088-40.9088h114.176L435.968 321.024a40.71936 40.71936 0 0 1 29.6448-20.9408c12.5952-1.9456 25.3952 2.048 34.6112 10.8544l103.3216 98.8672c71.0144-87.1936 120.0128-193.024 138.5472-309.0432H221.0816c-65.28 0-118.2208 52.9408-118.2208 118.1696v432.384c172.6464-1.8944 329.2672-70.5024 445.2352-181.4016z" fill="#8486F8" ></path><path d="M493.1072 100.7616H221.0816c-65.28 0-118.2208 52.9408-118.2208 118.1696v177.92c165.1712-44.8 304.384-152.6272 390.2464-296.0896z" fill="#8D92F8" ></path></svg>