<svg viewBox="0 0 1024 1024" version="1.1" xmlns="http://www.w3.org/2000/svg"><path d="M912.4864 338.5856L688.64 114.7392a28.6464 28.6464 0 0 0-40.5504 0l-37.0688 37.0688a28.6464 28.6464 0 0 1-40.5504 0l-19.6096-19.6096a28.6464 28.6464 0 0 0-40.5504 0L421.4272 221.0816a28.6464 28.6464 0 0 0 0 40.5504l86.8864 86.8864a28.6464 28.6464 0 0 1 0 40.5504L393.3184 504.064a28.6464 28.6464 0 0 1-40.5504 0L266.1888 417.4336a28.6464 28.6464 0 0 0-40.5504 0L136.7552 506.3168a28.6464 28.6464 0 0 0 0 40.5504l20.224 20.224a28.6464 28.6464 0 0 1 0 40.5504l-34.9696 34.9696a28.6464 28.6464 0 0 0 0 40.5504l223.8464 223.8464a28.6464 28.6464 0 0 0 40.5504 0l34.9696-34.9696a28.6464 28.6464 0 0 1 40.5504 0l20.224 20.224a28.6464 28.6464 0 0 0 40.5504 0l88.8832-88.8832a28.6464 28.6464 0 0 0 0-40.5504l-98.4064-98.4064a28.6464 28.6464 0 0 1 0-40.5504l114.9952-114.9952a28.6464 28.6464 0 0 1 40.5504 0l98.0992 98.0992a28.6464 28.6464 0 0 0 40.5504 0l88.8832-88.8832a28.6464 28.6464 0 0 0 0-40.5504l-20.7872-20.7872a28.6464 28.6464 0 0 1 0-40.5504l37.0688-37.0688a28.69248 28.69248 0 0 0-0.0512-40.5504z" fill="#05C46D" ></path><path d="M648.0896 114.7392l-37.0688 37.0688a28.6464 28.6464 0 0 1-40.5504 0l-19.6096-19.6096a28.6464 28.6464 0 0 0-40.5504 0L421.4272 221.0816a28.6464 28.6464 0 0 0 0 40.5504l86.8864 86.8864a28.6464 28.6464 0 0 1 0 40.5504L393.3184 504.064a28.6464 28.6464 0 0 1-40.5504 0L266.1888 417.4336a28.6464 28.6464 0 0 0-40.5504 0L136.7552 506.3168a28.6464 28.6464 0 0 0 0 40.5504l20.224 20.224a28.6464 28.6464 0 0 1 0 40.5504l-34.9696 34.9696a28.6464 28.6464 0 0 0 0 40.5504l181.76 181.76c114.8928-0.7168 220.7744-39.3728 305.7152-104.1408l-96.3584-96.3584a28.6464 28.6464 0 0 1 0-40.5504l114.9952-114.9952a28.6464 28.6464 0 0 1 40.5504 0l83.4048 83.4048a508.01664 508.01664 0 0 0 58.6752-237.4656c0-47.36-6.6048-93.1328-18.6368-136.6528l-103.4752-103.424a28.6464 28.6464 0 0 0-40.5504 0z" fill="#1DCE75" ></path><path d="M666.624 106.496c-6.7584 0.4096-13.4144 3.072-18.5856 8.2432l-37.0688 37.0688a28.6464 28.6464 0 0 1-40.5504 0l-19.6096-19.6096a28.6464 28.6464 0 0 0-40.5504 0L421.4272 221.0816a28.6464 28.6464 0 0 0 0 40.5504l86.8864 86.8864a28.6464 28.6464 0 0 1 0 40.5504L393.3184 504.064a28.6464 28.6464 0 0 1-40.5504 0L266.1888 417.4336a28.6464 28.6464 0 0 0-40.5504 0L136.7552 506.3168a28.6464 28.6464 0 0 0 0 40.5504l20.224 20.224a28.6464 28.6464 0 0 1 0 40.5504l-34.9696 34.9696c-10.8544 10.8544-11.1104 28.2624-0.8704 39.4752 13.1584 1.024 26.4704 1.6896 39.8848 1.6896 281.7536 0 510.1056-228.4032 510.1056-510.1056 0.0512-22.8352-1.5872-45.2096-4.5056-67.1744z" fill="#3CD38E" ></path><path d="M266.1888 417.4336a28.6464 28.6464 0 0 0-40.5504 0L154.624 488.448c46.336-11.3664 90.112-29.0816 130.5088-52.1216l-18.944-18.8928zM510.3104 132.1984L421.4272 221.0816a28.6464 28.6464 0 0 0 0 40.5504l26.9824 26.9824a507.0336 507.0336 0 0 0 77.3632-164.4032c-5.632 0.9728-11.0592 3.584-15.4624 7.9872z" fill="#48E1AA" ></path></svg>