<svg viewBox="0 0 1024 1024" version="1.1" xmlns="http://www.w3.org/2000/svg"><path d="M510.7712 77.7216c-238.7456 0-432.2304 193.536-432.2304 432.2304s193.536 432.2304 432.2304 432.2304 432.2304-193.536 432.2304-432.2304-193.4848-432.2304-432.2304-432.2304zM267.3664 369.152L429.056 239.0016c9.9328-7.9872 24.7296-0.9216 24.7296 11.8272v85.1968h135.5264c46.0288 0 152.4224 6.4 170.496 133.7856 0.9216 6.4512-7.168 10.1888-11.52 5.3248-24.1664-27.2384-52.8384-47.8208-109.056-47.8208H453.7856v83.7632c0 12.7488-14.7968 19.8656-24.7296 11.8272L267.3664 392.8064a15.15008 15.15008 0 0 1 0-23.6544z m486.8608 269.4144l-161.6896 130.1504c-9.9328 7.9872-24.7296 0.9216-24.7296-11.8272v-85.1968H432.2816c-46.0288 0-152.4224-6.4-170.496-133.7856-0.9216-6.4512 7.168-10.1888 11.52-5.3248 24.1664 27.2384 52.8384 47.8208 109.056 47.8208h185.4464V496.5376c0-12.7488 14.7968-19.8656 24.7296-11.8272l161.6896 130.1504a15.26784 15.26784 0 0 1 0 23.7056z" fill="#6C6CEA" ></path><path d="M876.6464 307.9168c0-9.7792-0.256-19.5072-0.7168-29.184-76.6464-120.7808-211.456-201.0112-365.1072-201.0112-238.7456 0-432.2304 193.536-432.2304 432.2304 0 158.6688 85.5552 297.2672 212.992 372.48 3.4816 0.0512 6.9632 0.1536 10.496 0.1536 317.2864 0 574.5664-257.28 574.5664-574.6688z m-609.28 61.2352L429.056 239.0016c9.9328-7.9872 24.7296-0.9216 24.7296 11.8272v85.1968h135.5264c46.0288 0 152.4224 6.4 170.496 133.7856 0.9216 6.4512-7.168 10.1888-11.52 5.3248-24.1664-27.2384-52.8384-47.8208-109.056-47.8208H453.7856v83.7632c0 12.8-14.7968 19.8656-24.7296 11.8272L267.3664 392.8064c-7.5776-6.0416-7.5776-17.5616 0-23.6544z m300.3904 387.6864v-85.1968H432.2304c-46.0288 0-152.4224-6.4-170.496-133.7856-0.9216-6.4512 7.168-10.1888 11.52-5.3248 24.1664 27.2384 52.8384 47.8208 109.056 47.8208h185.4464V496.5376c0-12.7488 14.7968-19.8656 24.7296-11.8272l161.6896 130.1504a15.2064 15.2064 0 0 1 0 23.7056l-161.6896 130.1504c-9.9328 7.9872-24.7296 0.9216-24.7296-11.8784z" fill="#757BF2" ></path><path d="M78.5408 509.952c0 59.4432 11.9808 116.0192 33.6896 167.5776 10.752 0.6144 21.6064 0.9216 32.5632 0.9216 64.4096 0 126.3616-10.5984 184.1664-30.1568-31.488-18.4832-58.8288-51.5072-67.1744-110.4896-0.9216-6.4512 7.168-10.1888 11.52-5.3248 24.1664 27.2384 52.8384 47.8208 109.056 47.8208h83.7632c37.5296-25.344 71.8336-54.9888 102.3488-88.2688 1.3312-4.352 4.5056-7.6288 8.3968-9.3696 15.4112-17.5616 29.7472-36.0448 42.9568-55.3472H453.8368v83.7632c0 12.8-14.7968 19.8656-24.7296 11.8272L267.3664 392.8064a15.2064 15.2064 0 0 1 0-23.7056L429.056 239.0016c9.9328-7.9872 24.7296-0.9216 24.7296 11.8272v85.1968h135.5264c18.7392 0 47.5136 1.0752 76.2368 10.9568 30.9248-66.0992 49.6128-139.0592 53.1968-215.9616-61.696-33.9456-132.608-53.2992-208.0256-53.2992-238.6432 0-432.1792 193.536-432.1792 432.2304z" fill="#8486F8" ></path><path d="M80.4864 469.504c71.424-9.984 138.6496-33.0752 199.168-66.816l-12.288-9.8816a15.2064 15.2064 0 0 1 0-23.7056L429.056 239.0016c9.9328-7.9872 24.7296-0.9216 24.7296 11.8272v2.5088a573.08672 573.08672 0 0 0 92.672-174.0288c-11.776-0.9728-23.6544-1.5872-35.6864-1.5872-225.0752 0-409.9072 172.032-430.2848 391.7824z" fill="#8D92F8" ></path></svg>