<svg viewBox="0 0 1024 1024" version="1.1" xmlns="http://www.w3.org/2000/svg"><path d="M828.7232 178.944h-265.984v-26.4192c0-22.5792-18.2784-40.8576-40.8576-40.8576s-40.8576 18.2784-40.8576 40.8576v26.4192H189.5936c-38.2464 0-69.2736 31.0272-69.2736 69.2736v397.7728c0 38.2464 31.0272 69.2736 69.2736 69.2736H368.64l-76.288 139.4176c-10.8544 19.7632-3.584 44.5952 16.2304 55.4496 6.2464 3.3792 12.9536 5.0176 19.5584 5.0176 14.4384 0 28.4672-7.68 35.8912-21.248l97.792-178.6368h131.2768l97.792 178.6368a40.82176 40.82176 0 0 0 55.4496 16.2304 40.9088 40.9088 0 0 0 16.2304-55.4496l-76.288-139.4176h142.5408c38.2464 0 69.2736-31.0272 69.2736-69.2736V248.2176c-0.1024-38.2976-31.1296-69.2736-69.376-69.2736z m-275.968 401.664H310.272c-22.5792 0-40.8576-18.2784-40.8576-40.8576s18.2784-40.8576 40.8576-40.8576h242.4832c22.5792 0 40.8576 18.2784 40.8576 40.8576-0.0512 22.5792-18.3296 40.8576-40.8576 40.8576zM703.5904 404.48H310.272c-22.5792 0-40.8576-18.2784-40.8576-40.8576s18.2784-40.8576 40.8576-40.8576h393.3184c22.5792 0 40.8576 18.2784 40.8576 40.8576S726.1184 404.48 703.5904 404.48z" fill="#2595E8" ></path><path d="M828.7232 178.944h-265.984v-26.4192c0-22.5792-18.2784-40.8576-40.8576-40.8576s-40.8576 18.2784-40.8576 40.8576v26.4192H189.5936c-38.2464 0-69.2736 31.0272-69.2736 69.2736v397.7728c0 38.2464 31.0272 69.2736 69.2736 69.2736H368.64l-61.9008 113.0496c1.1264 0 2.2528 0.0512 3.3792 0.0512 31.9488 0 63.2832-2.6112 93.8496-7.5264l57.8048-105.5744h131.2768l16.7424 30.6176c171.0592-102.144 285.5936-289.0752 285.5936-502.8352 0-4.7104-0.0512-9.3696-0.1536-14.0288-8.2944-28.928-34.9184-50.0736-66.5088-50.0736z m-275.968 401.664H310.272c-22.5792 0-40.8576-18.2784-40.8576-40.8576s18.2784-40.8576 40.8576-40.8576h242.4832c22.5792 0 40.8576 18.2784 40.8576 40.8576s-18.3296 40.8576-40.8576 40.8576zM703.5904 404.48H310.272c-22.5792 0-40.8576-18.2784-40.8576-40.8576s18.2784-40.8576 40.8576-40.8576h393.3184c22.5792 0 40.8576 18.2784 40.8576 40.8576S726.1184 404.48 703.5904 404.48z" fill="#3A9CED" ></path><path d="M562.7392 152.4736c0-22.5792-18.2784-40.8576-40.8576-40.8576s-40.8576 18.2784-40.8576 40.8576v26.4192H189.5936c-38.2464 0-69.2736 31.0272-69.2736 69.2736v371.5584c9.8304 0.512 19.712 0.768 29.696 0.768 75.008 0 146.7392-14.1312 212.6848-39.8848H310.272c-22.5792 0-40.8576-18.2784-40.8576-40.8576s18.2784-40.8576 40.8576-40.8576h196.8128c35.84-27.648 68.4032-59.3408 96.9728-94.4128H310.272c-22.5792 0-40.8576-18.2784-40.8576-40.8576s18.2784-40.8576 40.8576-40.8576h349.5424c25.2416-44.6464 44.8-92.928 57.6512-143.872h-154.7264v-26.4192z" fill="#59ADF8" ></path><path d="M272.7936 347.4432a40.8576 40.8576 0 0 1 37.4784-24.6272h5.2736a587.35104 587.35104 0 0 0 155.6992-143.872H189.5936c-38.2464 0-69.2736 31.0272-69.2736 69.2736v153.344c53.9136-11.008 105.0624-29.44 152.4736-54.1184zM514.4576 112.3328c-18.9952 3.4816-33.4336 20.1216-33.4336 40.1408v13.0048c12.0832-17.0496 23.2448-34.816 33.4336-53.1456z" fill="#6BC2FC" ></path></svg>