<svg viewBox="0 0 1024 1024" version="1.1" xmlns="http://www.w3.org/2000/svg"><path d="M478.976 428.6976h372.8896c36.096 0 65.3312-29.2352 65.3312-65.3312V169.3696c0-36.096-29.2352-65.3312-65.3312-65.3312H478.976c-36.096 0-65.3312 29.2352-65.3312 65.3312v193.9968c0 36.0448 29.2352 65.3312 65.3312 65.3312zM533.6064 609.1776H160.7168c-36.096 0-65.3312 29.2352-65.3312 65.3312v193.9968c0 36.096 29.2352 65.3312 65.3312 65.3312h372.8896c36.096 0 65.3312-29.2352 65.3312-65.3312v-193.9968c0-36.096-29.2352-65.3312-65.3312-65.3312zM952.1152 550.5024l-76.4416-79.0016a43.4176 43.4176 0 0 0-57.856-4.096l-84.5824 65.8432a43.37664 43.37664 0 0 0-7.5776 60.928c14.7456 18.8928 41.984 22.3232 60.928 7.5776l9.3184-7.2704c-0.9728 8.2432-2.4576 16.8448-4.5568 25.6512-15.9744 65.6896-60.8256 112.5376-133.376 139.3664-22.4768 8.2944-33.9968 33.28-25.7024 55.7568 6.4512 17.5104 23.0912 28.3648 40.7552 28.3648 5.0176 0 10.0864-0.8704 15.0528-2.7136 135.5264-50.0736 184.2176-151.1424 194.816-237.1072l6.8608 7.0656a43.25888 43.25888 0 0 0 31.232 13.2096c10.8544 0 21.76-4.0448 30.1568-12.1856 17.152-16.64 17.6128-44.1344 0.9728-61.3888zM189.44 578.5088c10.752 0 21.504-3.9936 29.8496-11.8784l77.824-73.6768c17.408-16.4864 18.176-43.9808 1.6896-61.3888-16.4864-17.408-43.9808-18.176-61.3888-1.6896l-8.6016 8.1408c0.2048-8.2944 0.8192-16.9984 2.0992-25.9584 9.5232-66.9184 49.664-117.9136 119.2448-151.6032 21.6064-10.4448 30.6176-36.4032 20.1728-58.0096-10.4448-21.6064-36.4032-30.6176-58.0096-20.1728-130.048 62.976-168.7552 168.3456-170.9568 254.9248l-7.4752-6.4a43.39712 43.39712 0 1 0-56.2688 66.0992l83.712 71.2192a42.98752 42.98752 0 0 0 28.1088 10.3936z" fill="#2595E8" ></path><path d="M883.2 112.0256a65.28 65.28 0 0 0-31.2832-7.9872H478.976c-36.096 0-65.3312 29.2352-65.3312 65.3312v193.9968c0 36.096 29.2352 65.3312 65.3312 65.3312h372.8896a65.024 65.024 0 0 0 40.704-14.2848c9.216-42.7008 14.1824-86.9376 14.1824-132.4032 0.0512-58.9824-8.2944-115.9168-23.552-169.984zM657.92 759.5008c-17.8176 6.5536-28.672 23.6032-28.3136 41.5744 33.28-22.3232 64.3072-47.7696 92.6208-75.8784-18.2272 13.6704-39.6288 25.1392-64.3072 34.304zM771.7376 669.6448c46.08-58.112 82.0736-124.5696 105.2672-196.8128l-1.28-1.3312a43.4176 43.4176 0 0 0-57.856-4.096l-84.5824 65.8432a43.37664 43.37664 0 0 0-7.5776 60.928c14.7456 18.8928 41.984 22.3232 60.928 7.5776l9.3184-7.2704c-0.9728 8.2432-2.4576 16.8448-4.608 25.6512-4.4032 17.92-10.9568 34.4064-19.6096 49.5104zM533.6064 609.1776H160.7168c-36.096 0-65.3312 29.2352-65.3312 65.3312v193.9968c0 3.3792 0.3584 6.656 0.8192 9.8816 58.7776 18.3296 121.2416 28.16 186.0096 28.16 115.6096 0 223.8464-31.5392 316.7232-86.3232v-145.7152c0-36.096-29.2352-65.3312-65.3312-65.3312z" fill="#3A9CED" ></path><path d="M734.208 104.0384H478.976c-36.096 0-65.3312 29.2352-65.3312 65.3312v193.9968c0 36.096 29.2352 65.3312 65.3312 65.3312h136.5504c67.5328-92.2624 110.2848-203.6736 118.6816-324.6592zM95.3856 684.3392c5.3248 0.1536 10.6496 0.4096 16.0256 0.4096 107.9296 0 209.408-27.392 297.984-75.52H160.7168c-36.096 0-65.3312 29.2352-65.3312 65.3312v9.7792z" fill="#59ADF8" ></path><path d="M312.32 182.3232C183.296 244.736 144.2304 348.928 141.4656 435.1488c31.8976-9.984 62.5664-22.5792 92.0576-37.3248C246.4768 337.92 285.6448 291.7376 350.1568 260.5056c21.6064-10.4448 30.6176-36.4032 20.1728-58.0096-10.4448-21.6064-36.4544-30.6176-58.0096-20.1728zM72.6528 435.712c-4.608 5.4272-7.4752 11.7248-9.0112 18.2272 25.9072-4.5568 51.3024-10.5472 75.9808-18.2272l-5.7856-4.9152c-18.2272-15.5136-45.6192-13.312-61.184 4.9152zM519.8848 104.0384h-40.9088c-36.096 0-65.3312 29.2352-65.3312 65.3312V262.144a624.7936 624.7936 0 0 0 106.24-158.1056z" fill="#6BC2FC" ></path></svg>