<svg viewBox="0 0 1024 1024" version="1.1" xmlns="http://www.w3.org/2000/svg"><path d="M594.3808 659.968a175.232 175.232 0 0 1-172.4928 0l-171.264-96.8192v223.4368s95.8976 114.2784 257.4848 114.2784 253.5936-107.7248 253.5936-107.7248v-227.7888l-167.3216 94.6176z" fill="#6C6CEA" ></path><path d="M912.64 318.9248L576.6144 128a138.78272 138.78272 0 0 0-137.0112 0L103.5776 318.9248c-34.5088 19.6096-34.4576 69.376 0.1024 88.9344l13.7216 7.7312v209.3056c0 19.9168 16.128 36.0448 36.0448 36.0448s36.0448-16.128 36.0448-36.0448V456.3456l250.4704 141.6192a138.58304 138.58304 0 0 0 136.4992 0l336.2304-190.1056c34.4576-19.5584 34.5088-69.3248-0.0512-88.9344z" fill="#6C6CEA" ></path><path d="M439.6032 128L103.5776 318.9248c-34.5088 19.6096-34.4576 69.376 0.1024 88.9344l13.7216 7.7312v209.3056c0 19.9168 16.128 36.0448 36.0448 36.0448s36.0448-16.128 36.0448-36.0448V456.3456l250.4704 141.6192a138.58304 138.58304 0 0 0 136.4992 0l221.9008-125.4912c12.3392-46.848 18.8928-96.0512 18.8928-146.7904 0-21.2992-1.1776-42.2912-3.4304-63.0272L576.6144 128a138.78272 138.78272 0 0 0-137.0112 0z" fill="#757BF2" ></path><path d="M761.7024 572.5184v-7.2192l-167.3216 94.6176a175.232 175.232 0 0 1-172.4928 0l-171.264-96.8192v223.4368s51.712 61.5424 143.1552 94.3104c162.7136-44.4416 296.704-158.5664 367.9232-308.3264z" fill="#757BF2" ></path><path d="M657.3568 173.8752L576.6144 128a138.78272 138.78272 0 0 0-137.0112 0L103.5776 318.9248c-34.5088 19.6096-34.4576 69.376 0.1024 88.9344l13.7216 7.7312v209.3056c0 19.9168 16.128 36.0448 36.0448 36.0448s36.0448-16.128 36.0448-36.0448V456.3456l232.192 131.2768c130.8672-94.9248 220.2624-243.6096 235.6736-413.7472z" fill="#8486F8" ></path><path d="M361.4208 625.7664l-110.848-62.6688v109.2608c38.8608-11.6736 75.9808-27.392 110.848-46.592z" fill="#8486F8" ></path><path d="M481.1264 112.5888c-14.3872 2.8672-28.416 7.9872-41.5232 15.4624L103.5776 318.9248c-34.5088 19.6096-34.4576 69.376 0.1024 88.9344l13.7216 7.7312v49.5104c169.0112-54.8352 303.7696-185.856 363.7248-352.512z" fill="#8D92F8" ></path></svg>