<svg viewBox="0 0 1024 1024" version="1.1" xmlns="http://www.w3.org/2000/svg"><path d="M247.7056 377.3952H156.0064c-21.6064 0-39.1168-17.5104-39.1168-39.1168s17.5104-39.1168 39.1168-39.1168h91.6992c21.6064 0 39.1168 17.5104 39.1168 39.1168s-17.5104 39.1168-39.1168 39.1168z" fill="#6BC2FC" ></path><path d="M247.7056 726.4256H156.0064a39.1168 39.1168 0 0 1-39.1168-39.1168 39.1168 39.1168 0 0 1 39.1168-39.1168h91.6992a39.1168 39.1168 0 0 1 39.1168 39.1168 39.1168 39.1168 0 0 1-39.1168 39.1168z" fill="#3A9CED" ></path><path d="M818.688 99.8912H259.84c-43.776 0-79.2064 35.4816-79.2064 79.2064v70.656H242.688c49.664 0 89.9072 40.2432 89.9072 89.9072S292.352 429.568 242.688 429.568H180.6336v167.0144H242.688c49.664 0 89.9072 40.2432 89.9072 89.9072s-40.2432 89.9072-89.9072 89.9072H180.6336v66.3552c0 43.776 35.4816 79.2064 79.2064 79.2064H818.688c43.776 0 79.2064-35.4816 79.2064-79.2064V179.0976c0-43.7248-35.4304-79.2064-79.2064-79.2064z m-65.5872 373.5552l-69.1712 67.4304a23.168 23.168 0 0 0-6.656 20.4288l16.3328 95.1808c3.2256 18.8416-16.5888 33.2288-33.4848 24.3712l-85.504-44.9536a23.1424 23.1424 0 0 0-21.504 0l-85.504 44.9536c-16.9472 8.9088-36.7616-5.4784-33.4848-24.3712l16.3328-95.1808c1.28-7.4752-1.1776-15.1552-6.656-20.4288l-69.12-67.4304c-13.7216-13.3632-6.144-36.6592 12.8-39.3728l95.5904-13.8752a23.13216 23.13216 0 0 0 17.408-12.6464l42.752-86.6304c8.448-17.152 32.9728-17.152 41.4208 0l42.752 86.6304a23.25504 23.25504 0 0 0 17.408 12.6464l95.5904 13.8752c18.8416 2.7136 26.4192 26.0096 12.6976 39.3728z" fill="#2595E8" ></path><path d="M897.8944 179.0976c0-43.776-35.4816-79.2064-79.2064-79.2064H259.84c-43.776 0-79.2064 35.4816-79.2064 79.2064v70.656H242.688c49.664 0 89.9072 40.2432 89.9072 89.9072S292.352 429.568 242.688 429.568H180.6336v167.0144H242.688c49.664 0 89.9072 40.2432 89.9072 89.9072s-40.2432 89.9072-89.9072 89.9072H180.6336v66.3552c0 43.776 35.4816 79.2064 79.2064 79.2064h125.9008c244.3776-33.536 443.5968-208.6912 512.1536-440.064V179.0976z m-144.7936 294.3488l-69.1712 67.4304a23.168 23.168 0 0 0-6.656 20.4288l16.3328 95.1808c3.2256 18.8416-16.5888 33.2288-33.4848 24.3712l-85.504-44.9536a23.1424 23.1424 0 0 0-21.504 0l-85.504 44.9536c-16.9472 8.9088-36.7616-5.4784-33.4848-24.3712l16.3328-95.1808c1.28-7.4752-1.1776-15.1552-6.656-20.4288l-69.12-67.4304c-13.7216-13.3632-6.144-36.6592 12.8-39.3728l95.5904-13.8752a23.13216 23.13216 0 0 0 17.408-12.6464l42.752-86.6304c8.448-17.152 32.9728-17.152 41.4208 0l42.752 86.6304a23.25504 23.25504 0 0 0 17.408 12.6464l95.5904 13.8752c18.8416 2.7136 26.4192 26.0096 12.6976 39.3728z" fill="#3A9CED" ></path><path d="M286.8224 686.6432c-0.3584-21.2992-17.7152-38.5024-39.1168-38.5024H156.0064a39.1168 39.1168 0 0 0-34.048 58.368c2.6112 0.0512 5.2224 0.1024 7.8848 0.1024 54.1696 0 106.8032-6.912 156.9792-19.968zM180.6336 179.0976v70.656H242.688c49.664 0 89.9072 40.2432 89.9072 89.9072S292.352 429.568 242.688 429.568H180.6336v167.0144H242.688c45.1072 0 82.3808 33.28 88.832 76.5952 37.8368-12.9536 73.984-29.3888 108.1344-48.9984l10.8032-62.976c1.28-7.4752-1.1776-15.1552-6.656-20.4288l-69.12-67.328c-13.7216-13.3632-6.144-36.6592 12.8-39.3728l95.5904-13.8752a23.13216 23.13216 0 0 0 17.408-12.6464l42.752-86.6304c8.448-17.152 32.9728-17.152 41.4208 0l42.752 86.6304a23.25504 23.25504 0 0 0 17.408 12.6464l8.7552 1.28c60.2112-93.0816 96.3072-203.2128 99.3792-321.536H259.84c-43.776-0.0512-79.2064 35.4304-79.2064 79.1552z" fill="#59ADF8" ></path><path d="M180.6336 450.6112c17.664-6.2464 34.9696-13.2096 51.8144-20.9408H180.6336v20.9408zM180.6336 179.0976v70.656H242.688c49.664 0 89.9072 40.2432 89.9072 89.9072 0 13.6704-3.1232 26.5216-8.5504 38.144C423.936 309.6064 502.9376 213.0944 549.5296 99.84H259.84c-43.776 0.0512-79.2064 35.5328-79.2064 79.2576z" fill="#6BC2FC" ></path></svg>