<svg viewBox="0 0 1024 1024" version="1.1" xmlns="http://www.w3.org/2000/svg"><path d="M196.2496 525.4656l272.896 121.4464a97.0496 97.0496 0 0 0 79.2064-0.1536l252.7744-113.5104-31.2832 278.2208s-56.4224 90.624-261.0688 90.624-276.5824-89.088-276.5824-89.088l-35.9424-287.5392z" fill="#2595E8" ></path><path d="M938.6496 417.536c30.976-14.4896 31.3344-58.624 0.256-73.472L559.104 162.9696a100.03456 100.03456 0 0 0-84.7872-0.5632L79.104 344.4736c-31.6928 14.592-31.4368 59.7504 0.4096 74.0352l387.7888 173.4144a99.75296 99.75296 0 0 0 81.5616 0l339.8144-151.9616 49.9712-22.4256z" fill="#2595E8" ></path><path d="M765.2352 549.376l-216.8832 97.3824a97.0496 97.0496 0 0 1-79.2064 0.1536l-272.896-121.4464 35.9424 287.5904s30.72 38.0416 109.1584 64.4096c192.3072-26.4704 352.2048-154.368 423.8848-328.0896z" fill="#3A9CED" ></path><path d="M474.3168 162.4064L79.104 344.4736c-31.6928 14.592-31.4368 59.7504 0.4096 74.0352l387.7888 173.4144a99.75296 99.75296 0 0 0 81.5616 0l238.1312-106.496c12.2368-45.056 18.8416-92.3648 18.8416-141.2608 0-22.1696-1.4848-44.032-4.096-65.536L559.104 162.9696c-26.7776-12.8-57.856-13.0048-84.7872-0.5632z" fill="#3A9CED" ></path><path d="M655.616 208.9472l-96.512-46.0288a100.03456 100.03456 0 0 0-84.7872-0.5632L79.104 344.4736c-31.6928 14.592-31.4368 59.7504 0.4096 74.0352l365.7216 163.5328c115.5584-87.7056 194.6112-220.9792 210.3808-373.0944zM196.2496 525.4656l19.6608 157.2352c65.1264-11.7248 126.2592-35.072 180.992-67.9424l-200.6528-89.2928z" fill="#59ADF8" ></path><path d="M474.3168 162.4064L79.104 344.4736c-31.6928 14.592-31.4368 59.7504 0.4096 74.0352l101.2736 45.312c139.7248-54.784 250.9312-166.144 305.4592-305.92-4.0448 1.2288-8.0384 2.7136-11.9296 4.5056z" fill="#6BC2FC" ></path><path d="M941.6192 682.7008h-2.9696V475.0848l-50.0224 21.4528v186.1632h-2.9696c-4.5056 0-8.192 3.6352-8.192 8.192v89.856c0 4.5056 3.6352 8.192 8.192 8.192h55.9616c4.5056 0 8.192-3.6352 8.192-8.192v-89.856c-0.0512-4.5056-3.6864-8.192-8.192-8.192z" fill="#2595E8" ></path></svg>