<svg viewBox="0 0 1024 1024" version="1.1" xmlns="http://www.w3.org/2000/svg"><path d="M890.0096 837.4784h-209.7152V423.8848h29.696v265.216c0 54.3744 44.2368 98.6112 98.6112 98.6112 54.3744 0 98.6112-44.2368 98.6112-98.6112V365.056c0-24.7808-9.216-48.4352-25.9584-66.6624l-56.9856-62.1056c-14.7968-16.0768-39.8336-17.152-55.9104-2.4064-16.0768 14.7968-17.2032 39.8336-2.4064 55.9104l57.0368 62.1056c3.2768 3.584 5.12 8.2432 5.12 13.1584v324.0448c0 10.7008-8.704 19.4048-19.456 19.4048s-19.456-8.704-19.456-19.4048V411.392c0-36.7616-29.9008-66.6624-66.6624-66.6624h-42.24v-185.856c0-38.2464-31.0272-69.2736-69.2736-69.2736H241.408c-38.2464 0-69.2736 31.0272-69.2736 69.2736v678.656h-29.952c-21.8624 0-39.5776 17.7152-39.5776 39.5776 0 21.8624 17.7152 39.5776 39.5776 39.5776h747.8272c21.8624 0 39.5776-17.7152 39.5776-39.5776 0-21.9136-17.7152-39.6288-39.5776-39.6288zM335.9744 216.0128h180.48c21.8624 0 39.5776 17.7152 39.5776 39.5776s-17.7152 39.5776-39.5776 39.5776H335.9744c-21.8624 0-39.5776-17.7152-39.5776-39.5776s17.7152-39.5776 39.5776-39.5776z" fill="#F23D4F" ></path><path d="M680.2944 735.9488V423.8848h29.696v265.216c0 4.3008 0.3584 8.4992 0.9216 12.6464a649.5232 649.5232 0 0 0 78.2336-117.8112v-172.544c0-36.7616-29.9008-66.6624-66.6624-66.6624h-42.24v-185.856c0-38.2464-31.0272-69.2736-69.2736-69.2736H241.408c-38.2464 0-69.2736 31.0272-69.2736 69.2736v678.656h-29.952c-21.8624 0-39.5776 17.7152-39.5776 39.5776 0 21.8624 17.7152 39.5776 39.5776 39.5776h226.3552c120.7808-30.0032 228.2496-93.7472 311.7568-180.736zM296.3968 255.5904c0-21.8624 17.7152-39.5776 39.5776-39.5776h180.48c21.8624 0 39.5776 17.7152 39.5776 39.5776 0 21.8624-17.7152 39.5776-39.5776 39.5776H335.9744c-21.8624 0-39.5776-17.7152-39.5776-39.5776zM768.3072 233.8816c-16.0768 14.7968-17.2032 39.8336-2.4064 55.9104l57.0368 62.1056c3.2768 3.584 5.12 8.2432 5.12 13.1584v127.0272c21.7088-64.8704 33.4848-134.2464 33.4848-206.4384 0-2.9696-0.0512-5.9392-0.1024-8.9088l-37.1712-40.4992a39.63392 39.63392 0 0 0-55.9616-2.3552z" fill="#FC4956" ></path><path d="M677.9392 141.1584c-7.8336-29.696-34.7648-51.6096-66.9184-51.6096H241.408c-38.2464 0-69.2736 31.0272-69.2736 69.2736v531.2c264.96-57.4976 469.6576-276.5312 505.8048-548.864zM335.9744 215.9616h180.48c21.8624 0 39.5776 17.7152 39.5776 39.5776 0 21.8624-17.7152 39.5776-39.5776 39.5776H335.9744c-21.8624 0-39.5776-17.7152-39.5776-39.5776 0-21.8112 17.7152-39.5776 39.5776-39.5776z" fill="#FF5C64" ></path><path d="M321.5872 292.352c-14.6944-5.7856-25.1392-20.0192-25.1392-36.7616 0-21.8624 17.7152-39.5776 39.5776-39.5776h53.1968c29.44-38.9632 54.528-81.3568 74.7008-126.464H241.408c-38.2464 0-69.2736 31.0272-69.2736 69.2736v241.6128A652.25728 652.25728 0 0 0 321.5872 292.352z" fill="#FF716E" ></path></svg>