<svg viewBox="0 0 1024 1024" version="1.1" xmlns="http://www.w3.org/2000/svg"><path d="M112.64 523.008c0-108.032-0.0512-216.064 0-324.1472 0.0512-53.9648 26.88-80.5376 81.2544-80.5888 114.6368-0.0512 229.3248-0.1024 343.9616 0 52.6336 0.0512 79.7696 27.3408 79.872 80.4352 0.1536 79.36-0.0512 158.7712 0.1024 238.1312 0.0512 35.6352 7.0144 42.8544 41.728 44.544 60.6208 2.9184 92.7744 36.0448 93.0304 96.4608 0.256 71.2704 0 142.592 0.1536 213.8624 0.0512 17.92-0.9728 36.4544 25.088 38.0928 40.6016 2.56 59.2384-7.1168 62.5152-34.9696 1.4848-12.3392 0.9216-24.9344 0.9216-37.4272 0.0512-103.6288 0.0512-207.2576 0-310.8864 0-30.72-2.3552-33.3824-31.744-39.0656-42.0352-8.1408-65.3312-34.3552-67.3792-77.4144-0.9728-20.5312-1.0752-41.1648-0.256-61.696 1.3824-34.2528-10.3424-60.6208-39.0144-81.2544-11.3152-8.1408-19.2512-23.1936-24.3712-36.7616-2.4576-6.5024 3.1232-19.6096 9.2672-24.5248 4.9152-3.8912 18.0224-2.8672 24.2688 1.0752 54.016 34.0992 107.9808 68.352 160.5632 104.6528 28.6208 19.8144 38.0416 50.6368 37.9904 84.9408-0.256 148.48-0.1024 296.96-0.1024 445.3888 0 30.1568 0.3584 60.2624-0.1024 90.4192-0.512 31.3856-14.7968 46.0288-46.0288 46.3872-41.8816 0.5632-83.7632 0.3584-125.696 0.1024-37.3248-0.2048-53.76-16.1792-54.016-53.8624-0.4608-80.8448-0.1024-161.6896-0.256-242.5344 0-8.0384-0.4096-16.1792-1.8944-24.064-3.5328-18.7904-16.2304-28.2112-34.4576-27.0848-18.5344 1.1776-29.3888 12.5952-29.7984 31.7952-0.4096 22.016-0.3072 44.0832-0.3072 66.1504-0.0512 68.352 0.1024 136.704-0.0512 205.056-0.1024 34.304-10.496 44.544-44.8512 44.5952-138.1888 0.0512-276.3264 0.0512-414.5152 0-36.7616 0-45.6704-8.7552-45.7216-45.1584-0.2048-110.1312-0.1536-220.3648-0.1536-330.6496z m259.1232-125.7472c45.7216 0 91.4944-0.5632 137.216 0.256 19.8144 0.3584 28.672-7.936 28.672-27.1872-0.0512-42.9056 0-85.8624 0-128.768 0-19.3536-9.5744-27.2896-29.0304-27.1872-91.4944 0.4608-182.9376 0.1024-274.432 0.256-23.3472 0.0512-28.8768 5.4784-29.0304 28.416-0.256 42.24 0.3584 84.4288-0.256 126.6688-0.256 19.6096 7.5264 28.0576 27.5456 27.7504 46.3872-0.7168 92.8768-0.2048 139.3152-0.2048z m0.1024 167.3728c26.7264 0 53.4528 0.1024 80.2304-0.0512 28.6208-0.1536 32.1024-3.6352 32.2048-31.232 0.0512-9.8304-0.512-19.7632 0.1024-29.5424 1.3312-19.9168-7.5264-27.8528-27.392-27.5456-47.8208 0.7168-95.6928 0.6144-143.5136 0.1024-61.2352-0.6144-58.112-3.0208-57.7536 61.3888 0.1024 18.3808 9.3696 26.9312 27.4944 26.88 29.5424-0.1536 59.0848-0.0512 88.6272 0z" fill="#F23D4F" ></path><path d="M872.4992 231.6288c-52.5312-36.3008-106.496-70.5536-160.5632-104.6528-6.2464-3.9424-19.3536-4.9664-24.2688-1.0752-6.144 4.864-11.6736 18.0224-9.2672 24.5248 5.12 13.568 13.056 28.6208 24.3712 36.7616 28.672 20.5824 40.3968 47.0016 39.0144 81.2544-0.8192 20.5312-0.768 41.1648 0.256 61.7472 2.0992 43.0592 25.344 69.2736 67.3792 77.4144 29.3888 5.6832 31.744 8.3456 31.744 39.0656 0.0512 39.68 0 79.4112 0 119.0912 27.4432-39.7312 50.688-82.5344 69.1712-127.8464 0-40.448 0-80.8448 0.1024-121.2928 0.1024-34.4064-9.2672-65.2288-37.9392-84.992zM752.64 577.8944c-0.256-60.416-32.4096-93.5424-93.0304-96.4608-34.7136-1.6896-41.6768-8.9088-41.728-44.544-0.1024-79.36 0.1024-158.7712-0.1024-238.1312-0.1024-53.0944-27.2384-80.384-79.872-80.4352-114.6368-0.1024-229.3248-0.1024-343.9616 0-54.4256 0.0512-81.2544 26.624-81.2544 80.5888-0.0512 108.032 0 216.064 0 324.1472 0 103.1168-0.0512 206.2848 0.0512 309.4016 56.1152 15.2064 115.1488 23.3984 176.128 23.3984 119.552 0 231.8336-31.3344 329.0624-86.1184v-120.4224c0-22.0672-0.1536-44.0832 0.3072-66.1504 0.3584-19.2512 11.2128-30.6176 29.7984-31.7952 18.2272-1.1776 30.9248 8.2944 34.4576 27.0848 1.4848 7.8848 1.8944 16.0256 1.8944 24.064 0.0512 41.472 0.0512 82.944 0 124.416 24.064-17.6128 46.9504-36.7104 68.4032-57.2928-0.0512-30.6176-0.0512-61.184-0.1536-91.7504zM484.4544 503.7568c-0.6656 9.8304-0.0512 19.712-0.1024 29.5424-0.1536 27.648-3.6352 31.0784-32.2048 31.232-26.7264 0.1536-53.4528 0.0512-80.2304 0.0512-29.5424-0.0512-59.0848-0.1536-88.6784 0-18.1248 0.0512-27.392-8.4992-27.4944-26.88-0.3584-64.3584-3.4304-62.0032 57.7536-61.3888 47.8208 0.4608 95.6928 0.5632 143.5136-0.1024 19.9168-0.3072 28.7744 7.6288 27.4432 27.5456z m24.5248-106.24c-45.7216-0.8192-91.4944-0.256-137.216-0.256-46.4384 0-92.8768-0.512-139.3152 0.2048-20.0704 0.3072-27.8528-8.1408-27.5456-27.7504 0.6144-42.1888 0-84.4288 0.256-126.6688 0.1536-22.9376 5.6832-28.3648 29.0304-28.416 91.4944-0.1536 182.9376 0.2048 274.432-0.256 19.4048-0.1024 29.0304 7.7824 29.0304 27.1872 0 42.9056-0.0512 85.8624 0.0512 128.768-0.0512 19.2512-8.9088 27.5456-28.7232 27.1872z" fill="#FC4956" ></path><path d="M617.8304 379.4944c0-60.2624 0.0512-120.4736-0.0512-180.736-0.1024-53.0944-27.2384-80.384-79.872-80.4352-114.6368-0.1024-229.3248-0.1024-343.9616 0-54.4256 0.0512-81.2544 26.624-81.2544 80.5888-0.0512 108.032 0 216.064 0 324.1472v94.464c90.112-0.9728 176.0256-19.6608 254.2592-52.8384-27.904-0.0512-55.808-0.1024-83.712 0-18.1248 0.0512-27.392-8.4992-27.4944-26.88-0.3584-64.3584-3.4304-62.0032 57.7536-61.3888 47.8208 0.4608 95.6928 0.5632 143.5136-0.1024 18.5856-0.256 27.392 6.7584 27.392 23.9616 49.7664-34.2016 94.6176-74.8544 133.4272-120.7808z m-246.0672 17.7664c-46.4384 0-92.8768-0.512-139.3152 0.2048-20.0704 0.3072-27.8528-8.1408-27.5456-27.7504 0.6144-42.1888 0-84.4288 0.256-126.6688 0.1536-22.9376 5.6832-28.3648 29.0304-28.416 91.4944-0.1536 182.9376 0.2048 274.432-0.256 19.4048-0.1024 29.0304 7.7824 29.0304 27.1872 0 42.9056-0.0512 85.8624 0.0512 128.768 0 19.2512-8.8576 27.5456-28.672 27.1872-45.7728-0.8704-91.5456-0.256-137.2672-0.256zM687.7184 125.9008c-6.144 4.864-11.6736 18.0224-9.2672 24.5248 5.12 13.568 13.056 28.6208 24.3712 36.7616 8.4992 6.0928 15.3088 12.7488 20.9408 19.9168 8.0896-19.2 15.3088-38.912 21.6576-58.9824-11.1616-7.0656-22.272-14.1312-33.4336-21.1968-6.2464-3.9424-19.3536-4.9664-24.2688-1.024z" fill="#FF5C64" ></path><path d="M205.1584 324.096c0-27.0336-0.1536-54.0672 0-81.1008 0.1536-22.9376 5.6832-28.3648 29.0304-28.416 47.872-0.1024 95.6928-0.0512 143.5648-0.0512 33.2288-29.0304 63.5392-61.2864 90.5216-96.256-91.4432-0.0512-182.8352-0.0512-274.2784 0-54.4256 0.0512-81.2544 26.624-81.2544 80.5888-0.0512 52.5824 0 105.216 0 157.7984 31.744-8.6016 62.6176-19.5072 92.416-32.5632z" fill="#FF716E" ></path></svg>