<?xml version="1.0" standalone="no"?><!DOCTYPE svg PUBLIC "-//W3C//DTD SVG 1.1//EN" "http://www.w3.org/Graphics/SVG/1.1/DTD/svg11.dtd"><svg class="icon" width="66px" height="66.00px" viewBox="0 0 1024 1024" version="1.1" xmlns="http://www.w3.org/2000/svg"><path d="M512 512m-448 0a448 448 0 1 0 896 0 448 448 0 1 0-896 0Z" fill="#FCBF28" /><path d="M771.656 704.254c-63.656 87.816-164.966 135.53-268.148 133.504-166.044-3.264-306.84-139.13-316.776-306.686C176 349.956 322.15 190.156 503.508 186.26c90.964-1.958 185.35 34.574 248.782 100.036 0.306 0.32 0.612 0.646 0.918 0.97 14.864-9.22 27.612-16.276 38.282-21.66 22.828-11.526 45.574 3.72 46.144 29.416 0.714 31.54-0.488 78.908-8.368 141.336-3.218 25.496-27.186 42.844-52.254 37.822-61.356-12.296-106.42-26.166-135.926-36.856-24.05-8.708-31.198-35.228-13.094-53.356 8.654-8.66 19.65-18.824 33.498-30.406a160.624 160.624 0 0 1-1.284-1.484c-39.2-46.806-85.812-74.81-156.698-72.702-130.898 3.894-234.772 121.146-223.98 251.7 9.632 116.72 108.112 210.332 223.98 213.564 71.172 1.986 141.304-29.198 187.386-87.35 13.908-17.546 32.928-31.252 53.292-22.054a135.776 135.776 0 0 1 12.178 6.304 135.548 135.548 0 0 1 11.506 7.452c18.102 13.128 16.94 37.13 3.786 55.264z" fill="#FFFFFF" /></svg>