<svg viewBox="0 0 1024 1024" version="1.1" xmlns="http://www.w3.org/2000/svg"><path d="M512 914.688c-99.2768 0-198.5536 0.1024-297.8304 0-81.1008-0.1024-124.928-44.1344-124.928-125.4912-0.0512-137.8816-0.1536-275.7632 0.0512-413.6448 0.1024-60.16 29.1328-101.3248 81.3056-114.7904 12.4928-3.2256 26.0096-4.352 38.8608-3.584 29.6448 1.6896 56.9344-5.2224 84.48-15.6672 119.1424-45.1584 238.6432-89.4976 358.0928-133.8368 59.4432-22.0672 104.192-1.5872 127.0272 57.7536 9.8816 25.7024 18.688 51.9168 29.7472 77.1072 2.816 6.4512 12.1344 13.9776 18.7904 14.2336 53.3504 2.3552 102.8096 43.8784 103.1168 110.848 0.6144 145.4592 1.2288 290.9184-0.256 436.3776-0.7168 66.816-48.2304 110.2336-116.4288 110.592-100.7616 0.4608-201.3696 0.1024-302.0288 0.1024z m156.6208-145.5104c0.0512-0.6656 0.0512-1.28 0.1024-1.9456 17.92 0 35.8912 0.9728 53.7088-0.256 27.3408-1.8944 54.784-4.0448 81.7664-8.4992 17.664-2.9184 25.6512-15.4112 25.1904-34.5088-1.1776-51.5072-33.9968-101.5296-84.3264-112.3328-37.6832-8.0896-77.824-7.1168-116.7872-6.5024-60.16 0.9728-104.7552 41.1648-116.2752 100.608-7.2192 37.2736 1.9456 52.7872 39.2704 56.8832 38.8608 4.352 78.2336 4.5568 117.3504 6.5536z m94.8224-270.7456c-0.3584-51.8656-44.7488-95.3344-97.3312-95.2832-53.248 0.0512-98.7648 45.312-97.792 97.2288 0.9728 52.3776 44.6464 94.9248 97.6384 95.1296 53.1968 0.2048 97.8432-44.288 97.4848-97.0752z m-417.4848 49.6128c34.4576 0 68.864 0.4096 103.3216-0.1024 32.9216-0.512 53.0944-19.0976 53.4528-47.8208 0.3072-28.5696-19.9168-48.3328-52.4288-48.64-68.1984-0.6144-136.3456-0.5632-204.544-0.0512-31.7952 0.256-54.2208 20.736-54.3744 47.6672-0.2048 27.648 23.0912 48.4864 55.5008 48.896 32.9216 0.3584 65.9968 0.0512 99.072 0.0512z m-50.5344 199.1168c19.968 0 39.936 0.8192 59.8016-0.2048 26.9312-1.3824 44.0832-18.1248 46.3872-43.52 2.048-22.6304-13.1584-44.4928-37.9392-48.7936-20.0704-3.4816-40.96-3.2256-61.4912-3.2256-23.9616 0-48.2816-0.512-71.8336 2.9696-24.3712 3.6352-40.704 26.6752-38.8608 48.4352 2.0992 24.576 20.3776 42.752 46.1312 44.0832 19.2512 1.024 38.5536 0.2048 57.8048 0.256z" fill="#6C6CEA" ></path><path d="M930.6112 367.5648c-0.256-66.9184-49.7664-108.4928-103.1168-110.848-6.656-0.3072-15.9232-7.7824-18.7904-14.2336-11.0592-25.1904-19.8656-51.3536-29.7472-77.1072-22.784-59.3408-67.584-79.8208-127.0272-57.7536C532.48 152.0128 412.9792 196.3008 293.8368 241.4592c-27.4944 10.4448-54.8352 17.3056-84.48 15.6672-12.9024-0.7168-26.4192 0.4096-38.8608 3.584-52.1216 13.4656-81.2032 54.6304-81.3056 114.7904-0.2048 137.8816-0.1024 275.7632-0.0512 413.6448 0.0512 81.3568 43.8272 125.3888 124.928 125.4912 90.5216 0.1024 181.0944 0.0512 271.616 0 99.4816-27.8528 188.8768-79.9744 261.3248-149.504-8.2432 0.6656-16.4864 1.28-24.6784 1.8432-17.8176 1.2288-35.7888 0.256-53.7088 0.256-0.0512 0.6656-0.0512 1.28-0.1024 1.9456-39.1168-1.9968-78.4896-2.2016-117.3504-6.4512-37.3248-4.096-46.4896-19.6096-39.2704-56.8832 11.52-59.4944 56.1152-99.6352 116.2752-100.608 38.9632-0.6656 79.104-1.6384 116.7872 6.5024 35.7376 7.68 62.5664 35.1744 75.6224 68.9152 56.576-78.336 95.2832-170.4448 110.1824-270.336l-0.1536-42.752z m-528.9984 335.872c-2.304 25.3952-19.4048 42.1376-46.3872 43.52-19.9168 1.024-39.8848 0.2048-59.8016 0.2048-19.2512-0.0512-38.5536 0.7168-57.7536-0.256-25.7536-1.3312-44.032-19.456-46.1312-44.0832-1.8432-21.8112 14.4896-44.8512 38.8608-48.4352 23.6032-3.4816 47.872-2.9696 71.8336-2.9696 20.5312 0 41.3696-0.256 61.4912 3.2256 24.7296 4.3008 39.936 26.1632 37.888 48.7936z m47.6672-155.4944c-34.4064 0.5632-68.864 0.1024-103.3216 0.1024-33.0752 0-66.0992 0.3072-99.1744-0.1024-32.4096-0.4096-55.7056-21.248-55.5008-48.896 0.2048-26.9312 22.5792-47.4112 54.3744-47.6672 68.1984-0.512 136.3456-0.6144 204.544 0.0512 32.512 0.3072 52.7872 20.0704 52.4288 48.64-0.256 28.7232-20.4288 47.3088-53.3504 47.872z m216.6784 47.5648c-52.992-0.2048-96.6656-42.752-97.6384-95.1296-0.9728-51.9168 44.544-97.1264 97.792-97.2288 52.5312-0.0512 96.9728 43.4176 97.3312 95.2832 0.3584 52.7872-44.288 97.28-97.4848 97.0752z" fill="#757BF2" ></path><path d="M194.56 716.032c-1.4848-4.1472-2.6624-8.4992-3.072-13.1584-1.8432-21.8112 14.4896-44.8512 38.8608-48.4352 23.6032-3.4816 47.872-2.9696 71.8336-2.9696 20.5312 0 41.3696-0.256 61.4912 3.2256 10.8544 1.8944 19.8656 7.168 26.4192 14.3872 70.912-30.0032 135.0144-72.8576 189.5424-125.5936a95.17568 95.17568 0 0 1-11.3152-43.0592c-0.9728-51.9168 44.544-97.1264 97.792-97.2288 7.1168 0 14.0288 0.8192 20.736 2.3552 45.2096-79.0016 73.4208-168.96 79.872-264.8576-24.8832-39.8336-64.5632-51.6608-114.7392-33.024-119.4496 44.3904-238.9504 88.6784-358.0928 133.8368-27.4944 10.4448-54.8352 17.3056-84.48 15.6672-12.9024-0.7168-26.4192 0.4096-38.8608 3.584-52.1216 13.4656-81.2032 54.6304-81.3056 114.7904-0.2048 113.1008-0.1536 226.2016-0.1024 339.3024 19.712 1.8944 39.68 2.8672 59.904 2.8672 15.36-0.0512 30.5152-0.6144 45.5168-1.6896z m51.1488-264.6528c68.1984-0.512 136.3456-0.6144 204.544 0.0512 32.512 0.3072 52.7872 20.0704 52.4288 48.64-0.3072 28.7232-20.48 47.3088-53.4016 47.8208-34.4064 0.5632-68.864 0.1024-103.3216 0.1024-33.0752 0-66.0992 0.3072-99.1744-0.1024-32.4096-0.4096-55.7056-21.248-55.5008-48.896 0.2048-26.88 22.5792-47.36 54.4256-47.616z" fill="#8486F8" ></path><path d="M553.0624 144.384C466.5856 176.5376 380.16 208.7424 293.888 241.4592c-27.4944 10.4448-54.8352 17.3056-84.48 15.6672-12.9024-0.7168-26.4192 0.4096-38.8608 3.584-52.1216 13.4656-81.2032 54.6304-81.3056 114.7904-0.0512 38.5536-0.0512 77.1072-0.0512 115.6608 205.568-31.8976 377.6512-165.0176 463.872-346.7776z" fill="#8D92F8" ></path></svg>