<svg viewBox="0 0 1024 1024" version="1.1" xmlns="http://www.w3.org/2000/svg"><path d="M511.0272 84.1728C274.0736 84.1728 81.92 276.2752 81.92 513.28s192.1024 429.1072 429.1072 429.1072 429.1072-192.1024 429.1072-429.1072-192.1024-429.1072-429.1072-429.1072z m130.304 493.9776c21.1968 0 38.3488 17.152 38.3488 38.3488s-17.152 38.3488-38.3488 38.3488H549.376v34.2528c0 21.1968-17.152 38.3488-38.3488 38.3488-21.1968 0-38.3488-17.152-38.3488-38.3488v-34.2528H380.7744c-21.1968 0-38.3488-17.152-38.3488-38.3488s17.152-38.3488 38.3488-38.3488h91.904v-36.2496H380.7744c-21.1968 0-38.3488-17.152-38.3488-38.3488s17.152-38.3488 38.3488-38.3488h56.6784L364.4928 359.168c-11.9808-17.4592-7.5776-41.3184 9.8816-53.2992s41.3184-7.5776 53.2992 9.8816l82.432 119.8592L585.728 318.976a38.35904 38.35904 0 0 1 53.0432-11.3152 38.35904 38.35904 0 0 1 11.3152 53.0432l-67.7888 104.4992h59.0336c21.1968 0 38.3488 17.152 38.3488 38.3488s-17.152 38.3488-38.3488 38.3488H549.376v36.2496h91.9552z" fill="#FF8E12" ></path><path d="M887.7056 307.5584c-72.8576-133.12-214.1696-223.3856-376.6272-223.3856C274.0736 84.1728 81.92 276.2752 81.92 513.28c0 152.8832 80.0256 287.0272 200.448 363.0592 7.0656 0.256 14.1312 0.4096 21.248 0.4096 317.6448 0 576.1024-253.4912 584.0896-569.1904z m-246.3744 270.592c21.1968 0 38.3488 17.152 38.3488 38.3488s-17.152 38.3488-38.3488 38.3488H549.376v34.2528c0 21.1968-17.152 38.3488-38.3488 38.3488-21.1968 0-38.3488-17.152-38.3488-38.3488v-34.2528H380.7744c-21.1968 0-38.3488-17.152-38.3488-38.3488s17.152-38.3488 38.3488-38.3488h91.904v-36.2496H380.7744c-21.1968 0-38.3488-17.152-38.3488-38.3488 0-21.1968 17.152-38.3488 38.3488-38.3488h56.6784L364.4928 359.168c-11.9808-17.4592-7.5776-41.3184 9.8816-53.2992s41.3184-7.5776 53.2992 9.8816l82.432 119.8592L585.728 318.976a38.35904 38.35904 0 0 1 53.0432-11.3152 38.35904 38.35904 0 0 1 11.3152 53.0432l-67.7888 104.4992h59.0336c21.1968 0 38.3488 17.152 38.3488 38.3488 0 21.1968-17.152 38.3488-38.3488 38.3488H549.376v36.2496h91.9552z" fill="#FCA315" ></path><path d="M511.0272 84.1728C274.0736 84.1728 81.92 276.2752 81.92 513.28c0 54.6816 10.3424 106.9568 28.9792 155.0336 10.9056 0.6144 21.8624 0.9216 32.8704 0.9216 71.168 0 139.3664-12.7488 202.496-36.0448a38.32832 38.32832 0 0 1 34.5088-55.04h76.3904c5.2224-3.328 10.3936-6.7584 15.5136-10.24v-25.9584H380.7744c-21.1968 0-38.3488-17.152-38.3488-38.3488 0-21.1968 17.152-38.3488 38.3488-38.3488h56.6784L364.4928 359.168c-11.9808-17.4592-7.5776-41.3184 9.8816-53.2992s41.3184-7.5776 53.2992 9.8816l82.432 119.8592L585.728 318.976a38.35904 38.35904 0 0 1 53.0432-11.3152 38.35904 38.35904 0 0 1 11.3152 53.0432l-67.7888 104.4992h5.0688c76.1856-88.7808 126.1568-200.6528 137.984-323.6864a427.43808 427.43808 0 0 0-214.3232-57.344z" fill="#FCB138" ></path><path d="M85.9136 455.7312c101.5808-15.5136 194.6112-57.2416 271.872-118.016a38.2976 38.2976 0 0 1 43.8784-38.1952 585.32352 585.32352 0 0 0 141.6192-214.016c-10.6496-0.768-21.3504-1.3312-32.2048-1.3312-217.4976 0-397.056 161.792-425.1648 371.5584z" fill="#FFC65E" ></path></svg>