<svg viewBox="0 0 1024 1024" version="1.1" xmlns="http://www.w3.org/2000/svg"><path d="M716.032 626.2784c-58.6752-0.1024-114.5344-10.496-164.2496-42.0352-61.0304-38.7072-60.9792-95.9488-0.3584-134.5024 90.5216-57.4976 245.76-56.4224 335.5648 2.304 55.296 36.1984 54.4256 95.5392-1.9456 130.7136-51.3536 32.0512-108.4416 43.8784-169.0112 43.52z" fill="#FF8E12" ></path><path d="M118.9376 643.8912c92.3648 96.9216 208.0768 117.2992 331.1104 122.5216-3.9424 54.6304 6.7072 99.1744 50.1248 132.352l-1.0752 7.8336c-26.4704 0-44.032 0.8192-70.4-0.512-88.6784-4.4032-173.7216-21.8112-248.1152-71.1168-48.128-31.8976-82.1248-72.9088-77.2608-132.7104 1.4848-17.8688 9.2672-35.3792 15.616-58.368z" fill="#FCA315" ></path><path d="M517.7344 611.5328c91.5968 97.9968 316.3136 89.1392 396.7488 1.8432 21.0944 25.5488 18.944 59.648-6.8608 87.9104-34.048 37.2224-80.2304 52.0704-129.3312 59.7504-82.3808 12.8512-161.1776 5.1712-230.9632-42.9568-41.6256-28.7232-51.5584-67.84-29.5936-106.5472z" fill="#FF8E12" ></path><path d="M517.376 749.7728c88.7808 97.792 312.6784 94.1056 397.3632 3.1744 20.6848 26.88 18.2272 60.7232-7.2192 88.3712-37.5296 40.7552-88.4736 55.04-141.8752 61.8496-77.9776 9.9328-152.6784 1.024-218.0608-45.0048-41.728-29.3888-52.0704-67.5328-30.208-108.3904z" fill="#FF8E12" ></path><path d="M795.648 285.2864l-0.0512-0.0512c7.8336-43.6736-15.2064-90.2144-62.6688-122.0608-85.0944-57.1392-182.3232-72.704-297.4208-75.1104-18.7904 1.8432-51.3024 4.2496-83.6096 8.2944-66.6112 8.2944-128.7168 28.8768-183.7568 66.1504-83.456 56.576-88.1664 138.3936-10.1376 201.1648 23.2448 18.688 50.9952 33.3824 78.848 45.4656 59.392 25.7024 123.2384 33.6384 187.904 37.7856 1.4336 0.1024 2.8672 0.1536 4.2496 0.2048h0.0512c2.9696 0.1536 5.888 0.2048 8.704 0.1536 18.0224 0.256 36.4544-0.1024 43.008-1.2288 4.0448-8.0896 20.8384-25.1904 28.16-32.4608 58.4192-47.9232 132.5056-60.2624 207.7696-57.6 0 0 24.4224 0.7168 39.3216 2.5088 23.9616-15.9232 34.6624-52.0704 38.144-66.7648 0.1536-0.7168 0.3584-1.4336 0.512-2.1504 0.6656-2.6112 0.9728-4.3008 0.9728-4.3008zM472.8832 576.0512c-7.3728-11.3152-15.9232-38.144-15.9232-38.144l-30.3616-0.7168c-114.2272-6.3488-220.1088-32.768-302.7456-117.504-33.7408 49.0496-27.0336 107.1616 17.3568 152.4224 58.624 59.7504 135.7824 83.7632 216.9856 97.7408 10.7008 1.8432 21.4528 3.0208 32.0512 3.84 25.088 2.816 55.1936 5.0176 66.3552 4.352-7.3216-40.0896 3.5328-80.384 16.2816-101.9904zM517.376 749.7728c-21.8624 40.8576-11.52 79.0016 30.208 108.3904 11.008 7.7312 22.272 14.336 33.7408 20.0704 26.0608-18.5856 50.5344-39.1168 73.3696-61.44-54.784-9.3696-105.0112-31.4368-137.3184-67.0208zM761.0368 679.2704c-89.5488 10.496-189.44-10.0864-243.3024-67.7376-21.9648 38.7584-12.032 77.8752 29.5424 106.5472 47.616 32.8704 99.4816 46.848 153.8048 48.3328 22.3744-27.2384 42.4448-56.3712 59.9552-87.1424zM551.4752 449.7408c-60.672 38.5536-60.672 95.8464 0.3584 134.5024 49.7152 31.488 105.5744 41.9328 164.2496 42.0352 25.6512 0.1536 50.6368-1.8944 74.8544-6.7584 25.8048-59.4432 42.5984-123.648 48.64-191.0272-90.3168-33.8432-212.0192-27.0848-288.1024 21.248z" fill="#FCA315" ></path><path d="M118.9376 643.8912c-6.3488 22.9888-14.1312 40.4992-15.5648 58.4192-2.0992 25.5488 2.9696 47.6672 13.1584 67.1232 50.688-5.3248 99.584-16.6912 145.8688-33.4336-51.8656-18.1248-100.2496-46.6944-143.4624-92.1088zM426.5984 537.1392c-114.2272-6.3488-220.1088-32.768-302.7456-117.504-33.7408 49.0496-27.0336 107.1616 17.3568 152.4224 58.624 59.7504 135.7824 83.7632 216.9856 97.7408 9.984 1.7408 20.0704 2.816 30.0032 3.6352 24.1152-15.616 47.0528-32.8192 68.7104-51.5072 3.328-18.5856 9.3696-34.7648 16.0256-45.9776-7.3728-11.3152-15.9232-38.144-15.9232-38.144l-30.4128-0.6656zM351.8976 96.3584c-66.6112 8.2944-128.7168 28.8768-183.7568 66.1504-83.456 56.576-88.1664 138.3936-10.1376 201.1648 23.2448 18.688 50.9952 33.3824 78.848 45.4656 59.392 25.7024 123.2384 33.6384 187.904 37.7856 1.4336 0.1024 2.8672 0.1536 4.2496 0.2048h0.0512c2.9696 0.1536 5.888 0.2048 8.704 0.1536 18.0224 0.256 36.4544-0.1024 43.008-1.2288 4.0448-8.0896 20.8384-25.1904 28.16-32.4608 37.3248-30.6176 81.1008-46.6432 127.4368-53.6064 23.1424-65.0752 35.7888-135.168 35.7888-208.2304 0-7.3216-0.1536-14.6432-0.4096-21.9136-69.9392-30.3104-147.8656-39.9872-236.288-41.8816-18.7392 1.9456-51.2512 4.352-83.5584 8.3968z" fill="#FFBC42" ></path><path d="M123.8528 419.6864c-20.8896 30.3104-26.2144 64.1536-16.7936 96.256 30.5152-11.1104 59.904-24.5248 88.0128-40.0384a352.2816 352.2816 0 0 1-71.2192-56.2176zM435.5072 88.064c-18.7904 1.8432-51.3024 4.2496-83.6096 8.2944-66.6112 8.2944-128.7168 28.8768-183.7568 66.1504-83.456 56.576-88.1664 138.3936-10.1376 201.1648 23.2448 18.688 50.9952 33.3824 78.848 45.4656 12.544 5.4272 25.2928 10.0352 38.2464 14.0288 106.2912-82.3808 185.088-198.5024 220.3648-332.3392-19.456-1.4336-39.424-2.3552-59.9552-2.7648z" fill="#FFC65E" ></path></svg>