<svg viewBox="0 0 1024 1024" version="1.1" xmlns="http://www.w3.org/2000/svg"><path d="M894.7712 852.992c-3.3792 0-6.4-0.256-10.9056-0.256-0.1024-3.5328-0.3584-5.6832-0.4608-9.3696-2.0992-67.3792-1.792-134.7584-2.3552-202.1376 0-2.816 2.6112-6.2976 4.9664-8.3456 49.92-43.1104 49.3568-133.4784-10.0864-182.8352-38.0416-31.5904-75.7248-63.6416-113.664-95.3856-15.2064-12.7488-29.44-12.4928-44.3904 0.6144-16.896 14.848-33.536 29.952-50.432 44.8512-3.072 2.7136-6.7072 4.7104-10.3424 7.2192-4.9152-15.104-1.8432-25.6512 9.1648-34.8672 5.5296-4.608 9.3696-11.6736 13.056-18.1248 28.9792-50.7904 14.0288-115.968-36.2496-158.3616-36.3008-30.5664-72.704-60.9792-109.1072-91.4432-15.5136-13.0048-28.6208-13.0048-44.2368 0.3072-11.008 9.4208-21.4016 19.5584-32.4608 28.928-29.7472 25.1392-61.3376 48.384-89.2928 75.3664-47.872 46.1824-49.9712 122.9312-5.9392 167.4752 10.0864 10.1888 8.7552 18.8928 4.5568 31.744l-56.0128-49.8688c-19.8144-17.664-32.3584-17.2544-52.1728-0.1536-30.6176 26.4192-62.0544 51.968-92.672 78.4384-13.1584 11.3664-26.8288 22.8352-37.4784 36.4544-33.6384 43.008-33.6384 107.52 0.5632 147.2512 10.752 12.4928 14.4384 23.5008 13.9776 40.0384-1.6384 58.4704-0.6656 116.992-0.6656 175.5136v16.5376c-4.352 0-6.7584 0.1536-9.1648 0.1536-19.8144 0-30.2592 16.2816-29.3888 32.3072 0.8704 16.1792 14.1824 27.904 32.6144 28.5696 3.0208 0.1024 5.9904 0 9.0112 0h735.0784c5.0176 0 9.9328-0.1536 14.8992-0.1536 16.0768 0 26.7776-15.4112 26.6752-30.0032-0.0512-14.6944-7.7312-30.464-27.0848-30.464z m-321.6896 3.6864H452.1472v-123.5456c0-33.3824 27.0848-60.4672 60.4672-60.4672 33.3824 0 60.4672 27.0848 60.4672 60.4672v123.5456z" fill="#FF3369" ></path><path d="M875.9296 450.048c-38.0416-31.5904-75.7248-63.6416-113.664-95.3856-15.2064-12.7488-29.44-12.4928-44.3904 0.6144-16.896 14.848-33.536 29.952-50.432 44.8512-3.072 2.7136-6.7072 4.7104-10.3424 7.2192-4.9152-15.104-1.8432-25.6512 9.1648-34.8672 5.5296-4.608 9.3696-11.6736 13.056-18.1248 28.9792-50.7904 14.0288-115.968-36.2496-158.3616-36.3008-30.5664-72.704-60.9792-109.1072-91.4432-15.5136-13.0048-28.6208-13.0048-44.2368 0.3072-11.008 9.4208-21.4016 19.5584-32.4608 28.928-29.7472 25.1392-61.3376 48.384-89.2928 75.3664-47.872 46.1824-49.9712 122.9312-5.9392 167.4752 10.0864 10.1888 8.7552 18.8928 4.5568 31.744l-56.0128-49.8688c-19.8144-17.664-32.3584-17.2544-52.1728-0.1536-30.6176 26.4192-62.0544 51.968-92.672 78.4384-13.1584 11.3664-26.8288 22.8352-37.4784 36.4544-33.6384 43.008-33.6384 107.52 0.5632 147.2512 10.752 12.4928 14.4384 23.5008 13.9776 40.0384-1.6384 58.4704-0.6656 116.992-0.6656 175.5136v16.5376c-4.352 0-6.7584 0.1536-9.1648 0.1536-19.8144 0-30.2592 16.2816-29.3888 32.3072 0.8704 16.1792 14.1824 27.904 32.6144 28.5696 3.0208 0.1024 5.9904 0 9.0112 0h465.2032c151.6544-99.5328 256.768-264.1408 275.6096-454.1952-3.1232-3.2256-6.5024-6.4-10.0864-9.3696z m-302.848 406.6304H452.1472v-123.5456c0-33.3824 27.0848-60.4672 60.4672-60.4672 33.3824 0 60.4672 27.0848 60.4672 60.4672v123.5456z" fill="#FF4D7C" ></path><path d="M685.5168 384.0512c-5.9904 5.376-11.9808 10.752-18.0736 16.0768-3.072 2.7136-6.7072 4.7104-10.3424 7.2192-4.9152-15.104-1.8432-25.6512 9.1648-34.8672 5.5296-4.608 9.3696-11.6736 13.056-18.1248 28.9792-50.7904 14.0288-115.968-36.2496-158.3616-36.3008-30.5664-72.704-60.9792-109.1072-91.4432-15.5136-13.0048-28.6208-13.0048-44.2368 0.3072-11.008 9.4208-21.4016 19.5584-32.4608 28.928-29.7472 25.1392-61.3376 48.384-89.2928 75.3664-47.872 46.1824-49.9712 122.9312-5.9392 167.4752 10.0864 10.1888 8.7552 18.8928 4.5568 31.744l-56.0128-49.8688c-19.8144-17.664-32.3584-17.2544-52.1728-0.1536-30.6176 26.4192-62.0544 51.968-92.672 78.4384-13.1584 11.3664-26.8288 22.8352-37.4784 36.4544-33.6384 43.008-33.6384 107.52 0.5632 147.2512 10.752 12.4928 14.4384 23.5008 13.9776 40.0384-1.28 44.544-0.9728 89.1392-0.768 133.7856 252.0064-15.36 463.0016-182.016 543.488-410.2656z" fill="#FF5F89" ></path><path d="M546.0992 114.688c-3.9936-3.3792-8.0384-6.7584-12.032-10.0864-15.5136-13.0048-28.6208-13.0048-44.2368 0.3072-11.008 9.4208-21.4016 19.5584-32.4608 28.928-29.7472 25.1392-61.3376 48.384-89.2928 75.3664-47.872 46.1824-49.9712 122.9312-5.9392 167.4752 10.0864 10.1888 8.7552 18.8928 4.5568 31.744l-56.0128-49.8688c-19.8144-17.664-32.3584-17.2544-52.1728-0.1536-30.6176 26.4192-62.0544 51.968-92.672 78.4384-13.1584 11.3664-26.8288 22.8352-37.4784 36.4544-18.8928 24.1152-27.136 55.04-24.7296 84.5824C320.0512 501.8624 490.4448 331.264 546.0992 114.688z" fill="#FF7196" ></path></svg>