<svg viewBox="0 0 1024 1024" version="1.1" xmlns="http://www.w3.org/2000/svg"><path d="M900.7104 896.8704h-255.4368c0-26.2144 0.2048-51.5072-0.0512-76.8512-0.6656-76.8-56.1664-136.448-127.0272-136.8576-74.3936-0.4096-130.7648 59.1872-130.9184 138.3936-0.0512 24.576 0 49.152 0 74.9568H131.84v-115.6096c0-29.0816-0.9216-58.1632 0.2048-87.1936 1.4848-37.632 1.4848-69.12-38.144-95.2832-37.6832-24.832-49.5104-70.9632-46.5408-112.896 31.6928 1.3824 61.3888 6.912 89.4976 2.4576 21.2992-3.3792 47.0016-14.7456 59.3408-31.1296 21.6576-28.672 47.2064-29.5936 77.7728-29.44 171.008 0.8192 342.016 0.5632 513.024 0.1024 15.7696-0.0512 25.9584 3.84 36.1984 17.3056 35.6864 46.7456 89.6512 57.8048 157.2864 35.072 12.3904 46.2848-14.0288 106.0864-62.5664 136.448-13.6192 8.5504-17.7152 17.408-17.6128 32.6656 0.8192 81.92 0.4096 163.84 0.4096 247.8592z" fill="#BD50D3" ></path><path d="M113.0496 229.9904c94.0032 17.92 168.704-35.9424 188.2624-123.4944h427.4688c25.1904 101.9904 108.288 139.6736 188.7744 123.1872-3.2256 48.2304-27.5968 83.8144-66.304 105.8816-24.8832 14.1824-56.064 23.808-84.5824 24.1664-165.9392 2.2016-331.9296 1.3312-497.92 0.9728-85.1968-0.2048-148.3264-53.0432-155.6992-130.7136zM823.2448 444.8256c-10.24-13.4656-20.4288-17.3568-36.1984-17.3056-171.008 0.4608-342.016 0.7168-513.024-0.1024-30.6176-0.1536-56.1152 0.768-77.7728 29.44-12.3904 16.384-38.0416 27.7504-59.3408 31.1296-28.1088 4.4544-57.8048-1.0752-89.4976-2.4576-2.9696 41.8816 8.8576 88.0128 46.5408 112.896 39.6288 26.112 39.6288 57.6512 38.144 95.2832-1.1264 29.0304-0.2048 58.112-0.2048 87.1936v115.6096h255.4368c0-25.8048-0.0512-50.3808 0-74.9568 0.1536-79.2064 56.5248-138.8032 130.9184-138.3936 70.8608 0.3584 126.3616 60.0576 127.0272 136.8576v5.12c117.9648-79.5648 208.0256-197.2224 252.672-335.3088-29.9008-4.4544-55.0912-19.3024-74.7008-45.0048z" fill="#C65EDB" ></path><path d="M746.9568 153.7536c-7.5776-13.8752-13.7728-29.5424-18.176-47.3088H301.312c-19.5584 87.552-94.2592 141.4144-188.2624 123.4944 7.424 77.7216 70.5536 130.5088 155.6992 130.7136 137.3696 0.3072 274.688 0.8704 412.0576-0.2048a639.1808 639.1808 0 0 0 66.1504-206.6944zM640.2048 427.8272c-122.0608 0.2048-244.1216 0.1536-366.1824-0.4096-30.6176-0.1536-56.1152 0.768-77.7728 29.44-12.3904 16.384-38.0416 27.7504-59.3408 31.1296-28.1088 4.4544-57.8048-1.0752-89.4976-2.4576-2.9696 41.8816 8.8576 88.0128 46.5408 112.896 39.6288 26.112 39.6288 57.6512 38.144 95.2832-0.1536 4.096-0.2048 8.192-0.3072 12.3392 210.9952-6.8608 396.2368-115.4048 508.416-278.2208z" fill="#CA6EE0" ></path><path d="M301.312 106.496c-19.5584 87.552-94.2592 141.4144-188.2624 123.4944 7.424 77.7216 70.5536 130.5088 155.6992 130.7136l51.7632 0.1536c90.9824-64.5632 164.352-152.1664 211.7632-254.3104-77.056-0.0512-154.0608-0.0512-230.9632-0.0512z" fill="#D786EA" ></path></svg>