<svg viewBox="0 0 1024 1024" version="1.1" xmlns="http://www.w3.org/2000/svg"><path d="M778.6496 130.1504c-90.368-0.0512-180.7872 0-271.1552 0-90.8288 0-181.6576-0.0512-272.4864 0-67.2256 0.0512-109.4144 42.0864-109.4144 109.2096-0.1024 181.6576-0.0512 363.3152 0 544.9728 0 67.8912 42.0352 109.7728 110.1824 109.7728 181.1968 0.0512 362.4448 0.0512 543.6416 0 68.0448 0 110.08-41.9328 110.08-109.824 0.0512-181.1968 0.0512-362.4448 0-543.6416-0.0512-68.8128-41.8816-110.4384-110.848-110.4896zM432.5888 747.3152c-14.6432 14.7968-37.5808 13.8752-54.5792-2.1504-6.7072-6.3488-13.1072-13.2096-19.3024-19.8656-1.4336-1.536-2.8672-3.072-4.3008-4.5568l-5.7856 5.7856c-7.0656 7.0656-13.7216 13.7728-20.736 20.0704-8.448 7.5264-17.5616 11.3664-26.8288 11.3664-6.3488 0-12.8-1.792-19.0464-5.4272-14.7456-8.5504-21.2992-24.064-17.2032-40.3968 2.048-8.1408 7.68-15.36 11.776-20.1216 5.6832-6.656 11.8784-12.9024 17.8688-18.944 1.792-1.792 3.5328-3.584 5.3248-5.4272-1.9968-2.048-3.9936-4.1472-6.0416-6.1952-7.2704-7.424-14.7968-15.104-21.6576-23.4496-7.68-9.3184-10.4448-21.1456-7.5264-32.4608 3.0208-11.6736 11.52-21.0432 23.296-25.7024 21.4528-8.448 37.12 5.9904 42.2912 10.752 6.4 5.888 12.7488 12.1344 19.456 18.688 1.792 1.7408 3.6352 3.584 5.5296 5.4272l3.8912-4.352c6.3488-7.168 12.9536-14.5408 20.1728-21.3504 13.8752-13.056 30.5664-15.36 45.824-6.3488 15.8208 9.3696 22.0672 24.5248 17.2032 41.6256-1.792 6.1952-5.7344 12.4928-12.4416 19.7632-6.0928 6.6048-12.6976 12.8-19.6608 19.4048-1.5872 1.4848-3.2256 3.0208-4.864 4.608l5.376 4.9152c7.1168 6.4512 13.824 12.544 20.1728 19.0464 16.896 17.152 17.5616 39.3728 1.792 55.296z m29.7984-368.9472c-6.5536 14.336-18.7392 21.76-36.2496 22.0672-8.704 0.1536-17.408 0.1536-26.88 0.1024H391.68c0 2.0992 0.0512 4.1472 0.0512 6.1952 0.0512 9.0112 0.1536 17.5616-0.1536 26.2144-0.6144 20.3264-11.6224 36.608-27.4432 40.5504-3.584 0.8704-7.0656 1.3312-10.5472 1.3312-8.0384 0-15.5648-2.4064-21.9136-7.0656-9.1136-6.7072-14.4896-17.2544-15.2576-29.696-0.5632-9.728-0.4608-19.3024-0.3072-29.4912 0.0512-2.6624 0.0512-5.3248 0.1024-8.0384-2.6112 0-5.1712 0.0512-7.6288 0.0512-9.3184 0.0512-18.1248 0.1536-26.88-0.1536-24.064-0.768-39.3728-14.848-39.8848-36.7616-0.512-21.504 14.4896-36.608 38.1952-38.4 5.2224-0.4096 10.3936-0.3072 15.4112-0.3072 2.048 0 4.0448 0 6.0928 0.0512h14.592c0-2.304 0-4.5056-0.0512-6.7072-0.0512-8.9088-0.1024-17.2544 0.1024-25.6 0.5632-24.832 14.7456-41.4208 36.1984-42.2912 21.4016-0.8192 37.8368 16.4864 39.1168 41.1648 0.4608 8.5504 0.3584 16.9472 0.2048 25.9072-0.0512 2.2016-0.0512 4.4544-0.0512 6.7584 3.072 0.1024 6.144 0.2048 9.1648 0.256 11.3152 0.3072 22.016 0.5632 32.9216 1.8944 11.8784 1.4336 21.9648 8.0896 27.5968 18.176 5.8368 10.2912 6.1952 22.6304 1.0752 33.792z m88.5248-26.0608c3.2768-12.6464 12.1344-21.4016 25.6512-25.2416 5.9904-1.6896 12.3904-1.9456 17.2544-1.9456 43.3152-0.1024 89.7536-0.2048 135.3728 0 23.04 0.1024 38.6048 10.24 42.6496 27.8528 2.816 12.2368 0.768 23.7568-5.7344 32.3584-6.9632 9.1648-18.4832 14.592-32.5632 15.2576-0.8192 0.0512-1.6384 0.0512-2.4576 0.0512l-76.2368-0.0512c-5.2736 0-10.5984 0.0512-15.872 0.1024-7.2704 0.0512-14.592 0.1024-22.016 0.1024-9.472 0-18.9952-0.1024-28.416-0.3584-13.7728-0.4096-25.1904-5.7344-32.1536-15.0016-6.7584-9.0112-8.704-20.736-5.4784-33.1264z m212.5824 384.6656c-7.3216 7.7312-18.0224 11.8784-31.0272 12.0832-21.8112 0.3072-44.6464 0.4608-68.8128 0.4608-23.0912 0-47.4112-0.1536-73.3184-0.4608-27.3408-0.3072-36.8128-16.2304-39.936-29.4912-4.1472-17.6128 2.816-32.9728 18.5856-40.96 5.7856-2.9184 13.2608-4.4544 22.784-4.6592 16.8448-0.3072 33.9456-0.256 50.4832-0.2048 6.4512 0 12.8512 0.0512 19.3024 0.0512l21.0944-0.0512c16.2304 0 32.4096-0.0512 48.64 0.1024 24.9344 0.256 40.9088 14.0288 41.728 35.9424 0.4608 10.752-2.816 20.1216-9.5232 27.1872z m-29.4912-104.8064c-17.2032 0.4096-34.6112 0.3072-51.5072 0.2048-7.424-0.0512-14.7968-0.1024-22.2208-0.1024l-6.144-0.0512c-5.2736 0-10.5984 0.0512-15.872 0.1024-7.2704 0.0512-14.6432 0.1024-22.016 0.1024-9.4208 0-18.944-0.1024-28.3648-0.4096-13.5168-0.4608-24.7808-5.7344-31.6416-14.9504-6.7072-9.0624-8.6016-20.9408-5.2736-33.536 3.2768-12.3904 11.8784-20.4288 26.2144-24.5248 4.9664-1.4336 10.5984-2.0992 17.2544-2.1504 42.6496-0.1536 88.1152-0.256 134.0416 0 27.2896 0.1536 44.4416 14.592 44.6976 37.7344 0.3072 21.9136-15.4624 37.0176-39.168 37.5808z" fill="#6C6CEA" ></path><path d="M889.4464 240.5888c0-68.7616-41.8304-110.3872-110.848-110.4384-90.368-0.0512-180.7872 0-271.1552 0-90.8288 0-181.6576-0.0512-272.4864 0-67.2256 0.0512-109.4144 42.0864-109.4144 109.2096-0.1024 181.6576-0.0512 363.3152 0 544.9728 0 67.8912 42.0352 109.7728 110.1824 109.7728h165.7856c109.7728-22.0672 209.1008-73.0624 289.6896-144.6912-9.0112 0.0512-18.1248 0.1024-27.4944 0.1024-23.0912 0-47.4112-0.1536-73.3184-0.4608-27.3408-0.3072-36.8128-16.2304-39.936-29.4912-4.1472-17.6128 2.816-32.9728 18.5856-40.96 5.7856-2.9184 13.2608-4.4544 22.784-4.6592 16.8448-0.3072 33.9456-0.256 50.4832-0.2048 6.4512 0 12.8512 0.0512 19.3024 0.0512l21.0944-0.0512c16.2304 0 32.4096-0.0512 48.64 0.1024 10.4448 0.1024 19.2 2.7136 26.0608 7.168 65.7408-79.3088 112.128-175.2064 132.0448-280.4736 0-53.3504 0.0512-106.6496 0-159.9488z m-456.8576 506.7264c-14.6432 14.7968-37.5808 13.8752-54.5792-2.1504-6.7072-6.3488-13.1072-13.2096-19.3024-19.8656-1.4336-1.536-2.8672-3.072-4.3008-4.5568l-5.7856 5.7856c-7.0656 7.0656-13.7216 13.7728-20.736 20.0704-8.448 7.5264-17.5616 11.3664-26.8288 11.3664-6.3488 0-12.8-1.792-19.0464-5.4272-14.7456-8.5504-21.2992-24.064-17.2032-40.3968 2.048-8.1408 7.68-15.36 11.776-20.1216 5.6832-6.656 11.8784-12.9024 17.8688-18.944 1.792-1.792 3.5328-3.584 5.3248-5.4272-1.9968-2.048-3.9936-4.1472-6.0416-6.1952-7.2704-7.424-14.7968-15.104-21.6576-23.4496-7.68-9.3184-10.4448-21.1456-7.5264-32.4608 3.0208-11.6736 11.52-21.0432 23.296-25.7024 21.4528-8.448 37.12 5.9904 42.2912 10.752 6.4 5.888 12.7488 12.1344 19.456 18.688 1.792 1.7408 3.6352 3.584 5.5296 5.4272l3.8912-4.352c6.3488-7.168 12.9536-14.5408 20.1728-21.3504 13.8752-13.056 30.5664-15.36 45.824-6.3488 15.8208 9.3696 22.0672 24.5248 17.2032 41.6256-1.792 6.1952-5.7344 12.4928-12.4416 19.7632-6.0928 6.6048-12.6976 12.8-19.6608 19.4048-1.5872 1.4848-3.2256 3.0208-4.864 4.608l5.376 4.9152c7.1168 6.4512 13.824 12.544 20.1728 19.0464 16.896 17.152 17.5616 39.3728 1.792 55.296z m29.8496-368.9472c-6.5536 14.336-18.7392 21.76-36.2496 22.0672-8.704 0.1536-17.408 0.1536-26.88 0.1024h-7.5776c0 2.0992 0.0512 4.1472 0.0512 6.1952 0.0512 9.0112 0.1536 17.5616-0.1536 26.2144-0.6144 20.3264-11.6224 36.608-27.4432 40.5504-3.584 0.8704-7.0656 1.3312-10.5472 1.3312-8.0384 0-15.5648-2.4064-21.9136-7.0656-9.1136-6.7072-14.4896-17.2544-15.2576-29.696-0.5632-9.728-0.4608-19.3024-0.3072-29.4912 0.0512-2.6624 0.0512-5.3248 0.1024-8.0384-2.6112 0-5.1712 0.0512-7.6288 0.0512-9.3184 0.0512-18.1248 0.1536-26.88-0.1536-24.064-0.768-39.3728-14.848-39.8848-36.7616-0.512-21.504 14.4896-36.608 38.1952-38.4 5.2224-0.4096 10.3936-0.3072 15.4112-0.3072 2.048 0 4.0448 0 6.0928 0.0512h14.592c0-2.304 0-4.5056-0.0512-6.7072-0.0512-8.9088-0.1024-17.2544 0.1024-25.6 0.5632-24.832 14.7456-41.4208 36.1984-42.2912 21.4016-0.8192 37.8368 16.4864 39.1168 41.1648 0.4608 8.5504 0.3584 16.9472 0.2048 25.9072-0.0512 2.2016-0.0512 4.4544-0.0512 6.7584 3.072 0.1024 6.144 0.2048 9.1648 0.256 11.3152 0.3072 22.016 0.5632 32.9216 1.8944 11.8784 1.4336 21.9648 8.0896 27.5968 18.176 5.7856 10.2912 6.144 22.6304 1.0752 33.792z m88.4736-26.0608c3.2768-12.6464 12.1344-21.4016 25.6512-25.2416 5.9904-1.6896 12.3904-1.9456 17.2544-1.9456 43.3664-0.1024 89.7536-0.2048 135.3728 0 23.04 0.1024 38.6048 10.24 42.6496 27.8528 2.816 12.2368 0.768 23.7568-5.7344 32.3584-6.9632 9.1648-18.4832 14.592-32.5632 15.2576-0.8192 0.0512-1.6384 0.0512-2.4576 0.0512l-76.2368-0.0512c-5.2736 0-10.5984 0.0512-15.872 0.1024-7.2704 0.0512-14.592 0.1024-22.016 0.1024-9.472 0-18.9952-0.1024-28.416-0.3584-13.7728-0.4096-25.1904-5.7344-32.1536-15.0016-6.7584-9.0112-8.704-20.736-5.4784-33.1264z m183.0912 279.8592c-17.2032 0.4096-34.6112 0.3072-51.5072 0.2048-7.424-0.0512-14.7968-0.1024-22.2208-0.1024l-6.144-0.0512c-5.2736 0-10.5984 0.0512-15.872 0.1024-7.2704 0.0512-14.6432 0.1024-22.016 0.1024-9.4208 0-18.944-0.1024-28.3648-0.4096-13.5168-0.4608-24.7808-5.7344-31.6416-14.9504-6.7072-9.0624-8.6016-20.9408-5.2736-33.536 3.2768-12.3904 11.8784-20.4288 26.2144-24.5248 4.9664-1.4336 10.5984-2.0992 17.2544-2.1504 42.6496-0.1536 88.1152-0.256 134.0416 0 27.2896 0.1536 44.4416 14.592 44.6976 37.7344 0.3072 21.9136-15.4624 37.0176-39.168 37.5808z" fill="#757BF2" ></path><path d="M290.6112 658.1248c-6.2976-6.4512-12.6464-13.056-18.5344-20.1728-7.68-9.3184-10.4448-21.1456-7.5264-32.4608 3.0208-11.6736 11.52-21.0432 23.296-25.7024 21.4528-8.448 37.12 5.9904 42.2912 10.752 6.4 5.888 12.7488 12.1344 19.456 18.688 1.792 1.7408 3.6352 3.584 5.5296 5.4272l3.8912-4.352c6.3488-7.168 12.9536-14.5408 20.1728-21.3504 13.8752-13.056 30.5664-15.36 45.824-6.3488 4.4544 2.6624 8.0896 5.7856 10.9568 9.2672a625.7152 625.7152 0 0 0 194.6624-191.232c-4.608 0.0512-9.1648 0.0512-13.824 0.0512-9.472 0-18.9952-0.1024-28.416-0.3584-13.7728-0.4096-25.1904-5.7344-32.1536-15.0016-6.7072-8.96-8.6528-20.6848-5.4272-33.0752 3.2768-12.6464 12.1344-21.4016 25.6512-25.2416 5.9904-1.6896 12.3904-1.9456 17.2544-1.9456 25.4464-0.0512 51.968-0.1024 78.7456-0.1024 28.0064-60.3136 46.6432-125.8496 54.0672-194.816H507.4432c-90.8288 0-181.6576-0.0512-272.4864 0-67.2256 0.0512-109.4144 42.0864-109.4144 109.2096-0.0512 148.5824-0.0512 297.1648 0 445.7472 57.2928-1.5872 112.6912-10.9056 165.0688-26.9824zM280.064 325.2736c5.2224-0.4096 10.3936-0.3072 15.4112-0.3072 2.048 0 4.0448 0 6.0928 0.0512h14.592c0-2.304 0-4.5056-0.0512-6.7072-0.0512-8.9088-0.1024-17.2544 0.1024-25.6 0.5632-24.832 14.7456-41.4208 36.1984-42.2912 21.4016-0.8192 37.8368 16.4864 39.1168 41.1648 0.4608 8.5504 0.3584 16.9472 0.2048 25.9072-0.0512 2.2016-0.0512 4.4544-0.0512 6.7584 3.072 0.1024 6.144 0.2048 9.1648 0.256 11.3152 0.3072 22.016 0.5632 32.9216 1.8944 11.8784 1.4336 21.9648 8.0896 27.5968 18.176 5.7856 10.2912 6.144 22.6304 1.024 33.792-6.5536 14.336-18.7392 21.76-36.2496 22.0672-8.704 0.1536-17.408 0.1536-26.88 0.1024H391.68c0 2.0992 0.0512 4.1472 0.0512 6.1952 0.0512 9.0112 0.1536 17.5616-0.1536 26.2144-0.6144 20.3264-11.6224 36.608-27.4432 40.5504-3.584 0.8704-7.0656 1.3312-10.5472 1.3312-8.0384 0-15.5648-2.4064-21.9136-7.0656-9.1136-6.7072-14.4896-17.2544-15.2576-29.696-0.5632-9.728-0.4608-19.3024-0.3072-29.4912 0.0512-2.6624 0.0512-5.3248 0.1024-8.0384-2.6112 0-5.1712 0.0512-7.6288 0.0512-9.3184 0.0512-18.1248 0.1536-26.88-0.1536-24.064-0.768-39.3728-14.848-39.8848-36.7616-0.4096-21.504 14.592-36.608 38.2464-38.4z" fill="#8486F8" ></path><path d="M251.4432 388.1984c-5.8368-6.2464-9.2672-14.4896-9.5232-24.4736-0.512-21.504 14.4896-36.608 38.1952-38.4 5.2224-0.4096 10.3936-0.3072 15.4112-0.3072 2.048 0 4.0448 0 6.0928 0.0512h14.592c0-2.304 0-4.5056-0.0512-6.7072-0.0512-8.9088-0.1024-17.2544 0.1024-25.6 0.5632-24.832 14.7456-41.4208 36.1984-42.2912 19.0464-0.7168 34.1504 12.9024 38.144 33.3312a624.9472 624.9472 0 0 0 112.9472-153.6c-89.4976 0-178.9952-0.0512-268.544 0-67.2256 0.0512-109.4144 42.0864-109.4144 109.2096-0.0512 67.0208 0 134.0416 0 201.1136 44.1344-12.9024 86.272-30.5664 125.8496-52.3264z" fill="#8D92F8" ></path></svg>