<svg viewBox="0 0 1024 1024" version="1.1" xmlns="http://www.w3.org/2000/svg"><path d="M788.5312 105.1648H230.912c-68.096 0-123.2896 55.1936-123.2896 123.2896v557.6192c0 68.096 55.1936 123.2896 123.2896 123.2896h557.6192c68.096 0 123.2896-55.1936 123.2896-123.2896V228.4032c0-68.0448-55.1936-123.2384-123.2896-123.2384zM429.7216 683.3152a40.91392 40.91392 0 0 1-57.856 57.856l-37.6832-37.6832-37.6832 37.6832a40.82688 40.82688 0 0 1-28.928 11.9808 40.91392 40.91392 0 0 1-28.928-69.8368l37.6832-37.6832-37.6832-37.6832a40.91392 40.91392 0 0 1 57.856-57.856l37.6832 37.6832 37.6832-37.6832a40.91392 40.91392 0 0 1 57.856 57.856l-37.6832 37.6832 37.6832 37.6832z m5.12-308.736H246.3744c-22.5792 0-40.9088-18.3296-40.9088-40.9088s18.3296-40.9088 40.9088-40.9088h188.4672c22.5792 0 40.9088 18.3296 40.9088 40.9088s-18.2784 40.9088-40.9088 40.9088z m330.8544 371.3024h-188.4672c-22.5792 0-40.9088-18.3296-40.9088-40.9088s18.3296-40.9088 40.9088-40.9088h188.4672c22.5792 0 40.9088 18.3296 40.9088 40.9088 0.0512 22.5792-18.2784 40.9088-40.9088 40.9088z m0-139.8272h-188.4672c-22.5792 0-40.9088-18.3296-40.9088-40.9088s18.3296-40.9088 40.9088-40.9088h188.4672c22.5792 0 40.9088 18.3296 40.9088 40.9088s-18.2784 40.9088-40.9088 40.9088z m0-231.4752h-53.2992v53.2992c0 22.5792-18.3296 40.9088-40.9088 40.9088s-40.9088-18.3296-40.9088-40.9088V374.5792h-53.2992c-22.5792 0-40.9088-18.3296-40.9088-40.9088s18.3296-40.9088 40.9088-40.9088h53.2992V239.4112c0-22.5792 18.3296-40.9088 40.9088-40.9088s40.9088 18.3296 40.9088 40.9088v53.2992h53.2992c22.5792 0 40.9088 18.3296 40.9088 40.9088s-18.2784 40.96-40.9088 40.96z" fill="#6C6CEA" ></path><path d="M911.8208 228.4032c0-68.096-55.1936-123.2896-123.2896-123.2896H230.912c-68.096 0-123.2896 55.1936-123.2896 123.2896v557.6192c0 68.096 55.1936 123.2896 123.2896 123.2896h182.7328c114.176-27.7504 216.7296-85.0944 299.1616-163.4304h-135.5776c-22.5792 0-40.9088-18.3296-40.9088-40.9088s18.3296-40.9088 40.9088-40.9088h188.4672c6.144 0 11.9296 1.3824 17.152 3.7888 66.6624-87.1424 112.2304-191.2832 128.9216-304.8448V228.4032z m-482.0992 454.912a40.91392 40.91392 0 0 1-57.856 57.856l-37.6832-37.6832-37.6832 37.6832a40.82688 40.82688 0 0 1-28.928 11.9808 40.91392 40.91392 0 0 1-28.928-69.8368l37.6832-37.6832-37.6832-37.6832a40.91392 40.91392 0 0 1 57.856-57.856l37.6832 37.6832 37.6832-37.6832a40.91392 40.91392 0 0 1 57.856 57.856l-37.6832 37.6832 37.6832 37.6832z m5.12-308.736H246.3744c-22.5792 0-40.9088-18.3296-40.9088-40.9088s18.3296-40.9088 40.9088-40.9088h188.4672c22.5792 0 40.9088 18.3296 40.9088 40.9088s-18.2784 40.9088-40.9088 40.9088z m330.8544 231.4752h-188.4672c-22.5792 0-40.9088-18.3296-40.9088-40.9088s18.3296-40.9088 40.9088-40.9088h188.4672c22.5792 0 40.9088 18.3296 40.9088 40.9088s-18.2784 40.9088-40.9088 40.9088z m0-231.4752h-53.2992v53.2992c0 22.5792-18.3296 40.9088-40.9088 40.9088s-40.9088-18.3296-40.9088-40.9088V374.5792h-53.2992c-22.5792 0-40.9088-18.3296-40.9088-40.9088s18.3296-40.9088 40.9088-40.9088h53.2992V239.4112c0-22.5792 18.3296-40.9088 40.9088-40.9088s40.9088 18.3296 40.9088 40.9088v53.2992h53.2992c22.5792 0 40.9088 18.3296 40.9088 40.9088 0.0512 22.6304-18.2784 40.96-40.9088 40.96z" fill="#757BF2" ></path><path d="M253.2352 668.672l23.0912-23.0912-37.6832-37.6832a40.91392 40.91392 0 0 1 57.856-57.856l37.6832 37.6832 37.6832-37.6832a40.91392 40.91392 0 0 1 57.856 0c8.9088 8.9088 12.6976 20.8896 11.6224 32.5632a665.8816 665.8816 0 0 0 189.2352-190.8224v-17.2032h-53.2992c-22.5792 0-40.9088-18.3296-40.9088-40.9088s18.3296-40.9088 40.9088-40.9088h53.2992V239.4112c0-22.5792 18.3296-40.9088 40.9088-40.9088 16.896 0 31.4368 10.2912 37.6832 24.9344 11.5712-38.0928 19.8144-77.6192 24.3712-118.272H230.912c-68.096 0-123.2896 55.1936-123.2896 123.2896v463.6672c50.2272-2.4576 98.9696-10.4448 145.6128-23.4496z m-6.8608-375.9104h188.4672c22.5792 0 40.9088 18.3296 40.9088 40.9088s-18.3296 40.9088-40.9088 40.9088H246.3744c-22.5792 0-40.9088-18.3296-40.9088-40.9088s18.3296-40.9088 40.9088-40.9088z" fill="#8486F8" ></path><path d="M234.6496 372.8384c-16.8448-5.0688-29.184-20.6848-29.184-39.168 0-22.5792 18.3296-40.9088 40.9088-40.9088h100.5568a666.38848 666.38848 0 0 0 147.7632-187.5968H230.912c-68.096 0-123.2896 55.1936-123.2896 123.2896v199.6288a658.0736 658.0736 0 0 0 127.0272-55.2448z" fill="#8D92F8" ></path></svg>