<svg viewBox="0 0 1024 1024" version="1.1" xmlns="http://www.w3.org/2000/svg"><path d="M926.464 803.84h-56.6272V350.3104c0-27.4944-22.272-49.7664-49.7664-49.7664h-188.1088V173.1072c0-27.4944-22.272-49.7664-49.7664-49.7664h-372.224c-27.4944 0-49.7664 22.272-49.7664 49.7664V803.84H97.0752c-15.616 0-28.3136 12.6976-28.3136 28.3136v33.1776c0 15.616 12.6976 28.3136 28.3136 28.3136h829.3888c15.616 0 28.3136-12.6976 28.3136-28.3136v-33.1776c0-15.616-12.6464-28.3136-28.3136-28.3136zM365.7216 716.032H275.9168v-89.8048h89.8048v89.8048z m0-147.7632H275.9168V478.464h89.8048v89.8048z m0-147.1488H275.9168V331.3152h89.8048v89.8048z m148.992 294.912H424.9088v-89.8048h89.8048v89.8048z m0-147.7632H424.9088V478.464h89.8048v89.8048z m0-147.1488H424.9088V331.3152h89.8048v89.8048z m236.0832 294.912H660.992v-89.8048h89.8048v89.8048z m0-147.7632H660.992V478.464h89.8048v89.8048z" fill="#6C6CEA" ></path><path d="M869.8368 587.776V350.3104c0-27.4944-22.272-49.7664-49.7664-49.7664h-188.1088V173.1072c0-27.4944-22.272-49.7664-49.7664-49.7664h-372.224c-27.4944 0-49.7664 22.272-49.7664 49.7664V803.84H97.0752c-15.6672 0-28.3136 12.6976-28.3136 28.3136v33.1776c0 15.616 12.6976 28.3136 28.3136 28.3136h477.2864c128.9216-66.6624 233.1648-174.3872 295.4752-305.8688z m-208.896-109.312h89.8048v89.8048h-89.8048V478.464z m0 147.7632h89.8048v89.8048h-89.8048v-89.8048z m-295.2192 89.8048H275.9168v-89.8048h89.8048v89.8048z m0-147.7632H275.9168V478.464h89.8048v89.8048z m0-147.1488H275.9168V331.3152h89.8048v89.8048z m148.992 294.912H424.9088v-89.8048h89.8048v89.8048z m0-147.7632H424.9088V478.464h89.8048v89.8048zM424.9088 421.12V331.3152h89.8048v89.8048H424.9088z" fill="#757BF2" ></path><path d="M275.9168 704.8704v-78.6432h89.8048v44.9024c20.2752-9.3696 40.0384-19.712 59.1872-30.976v-13.9264h22.6304c119.1936-76.9024 212.1216-190.8736 262.5536-325.6832h-78.1312V173.1072c0-27.4944-22.272-49.7664-49.7664-49.7664h-372.224c-27.4944 0-49.7664 22.272-49.7664 49.7664v554.8032c39.7312-4.2496 78.3872-12.032 115.712-23.04z m148.992-373.5552h89.8048v89.8048H424.9088V331.3152z m0 147.1488h89.8048v89.8048H424.9088V478.464z m-148.992-147.1488h89.8048v89.8048H275.9168V331.3152z m0 147.1488h89.8048v89.8048H275.9168V478.464z" fill="#8486F8" ></path><path d="M275.9168 394.2912v-62.976h83.968a666.09152 666.09152 0 0 0 158.464-207.9744H209.9712c-27.4944 0-49.7664 22.272-49.7664 49.7664v279.4496c40.6528-15.6672 79.36-35.2256 115.712-58.2656z" fill="#8D92F8" ></path></svg>