<svg viewBox="0 0 1024 1024" version="1.1" xmlns="http://www.w3.org/2000/svg"><path d="M782.9504 416.512h-44.544v-39.0656H412.9792c-2.8672 46.5408-52.3776 74.24-99.6352 74.24s-86.0672-27.6992-88.9856-74.24h-48.8448v474.2656c0 48.9472 39.68 88.6784 88.6784 88.6784h385.5872c48.9472 0 88.6784-39.68 88.6784-88.6784v-27.904h44.544c84.4288 0 153.088-68.6592 153.088-153.088v-101.12c-0.0512-84.4288-68.7104-153.088-153.1392-153.088z m-430.1312 341.1968c0 14.1824-11.4688 25.6512-25.6512 25.6512-14.1824 0-25.6512-11.4688-25.6512-25.6512v-212.5312c0-14.1824 11.4688-25.6512 25.6512-25.6512 14.1824 0 25.6512 11.4688 25.6512 25.6512v212.5312z m122.8288 0c0 14.1824-11.4688 25.6512-25.6512 25.6512-14.1824 0-25.6512-11.4688-25.6512-25.6512v-212.5312c0-14.1824 11.4688-25.6512 25.6512-25.6512 14.1824 0 25.6512 11.4688 25.6512 25.6512v212.5312z m122.88 0c0 14.1824-11.4688 25.6512-25.6512 25.6512s-25.6512-11.4688-25.6512-25.6512v-212.5312c0-14.1824 11.4688-25.6512 25.6512-25.6512s25.6512 11.4688 25.6512 25.6512v212.5312zM869.12 670.72c0 47.5136-38.656 86.1696-86.1696 86.1696h-36.3008V483.4304h36.3008c47.5136 0 86.1696 38.656 86.1696 86.1696V670.72z" fill="#FF8E12" ></path><path d="M317.2352 403.456c35.0208 0 63.3856-28.3648 63.3856-63.3856h311.2448c2.048 0 4.0448-0.1024 5.9904-0.3584 2.2528 0.1536 4.4544 0.3584 6.7584 0.3584 48.9472 0 88.32-40.8064 86.016-90.2656-2.048-43.4176-37.4784-79.2576-80.896-81.7664-33.5872-1.9456-63.1808 15.4112-79.0016 41.9328l-6.1952-0.8192c-6.4-46.8992-46.4896-83.0464-95.1296-83.0464-39.7824 0-73.8816 24.1152-88.5248 58.5728 0-0.512 0.1024-1.0752 0.1024-1.5872 0-50.0224-39.7312-90.7776-89.3952-92.3648-43.4176-1.3824-82.0224 28.9792-92.7232 71.0656-3.7376 14.6432-3.2768 28.5696-0.3584 41.5744-52.2752-24.8832-118.8864-9.472-137.4208 50.6368-9.8304 31.8464-5.0688 53.9136 1.792 67.7376a33.0496 33.0496 0 0 0 29.6448 18.3808h101.376c-0.0512 34.9696 28.3136 63.3344 63.3344 63.3344z" fill="#FCA315" ></path><path d="M738.4064 416.512v-39.0656H412.9792c-2.8672 46.5408-52.3776 74.24-99.6352 74.24s-86.0672-27.6992-88.9856-74.24h-48.8448v474.2656c0 48.9472 39.68 88.6784 88.6784 88.6784h42.496c182.3744-15.4112 341.4016-112.896 439.9616-255.3856V483.4304h36.3008c18.432 0 35.4304 5.8368 49.4592 15.7184 5.9392-22.4768 10.5984-45.4656 13.9264-68.864a151.86944 151.86944 0 0 0-63.3856-13.7728h-44.544z m-385.5872 341.1968c0 14.1824-11.4688 25.6512-25.6512 25.6512-14.1824 0-25.6512-11.4688-25.6512-25.6512v-212.5312c0-14.1824 11.4688-25.6512 25.6512-25.6512 14.1824 0 25.6512 11.4688 25.6512 25.6512v212.5312z m122.88 0c0 14.1824-11.4688 25.6512-25.6512 25.6512-14.1824 0-25.6512-11.4688-25.6512-25.6512v-212.5312c0-14.1824 11.4688-25.6512 25.6512-25.6512 14.1824 0 25.6512 11.4688 25.6512 25.6512v212.5312z m122.8288 0c0 14.1824-11.4688 25.6512-25.6512 25.6512-14.1824 0-25.6512-11.4688-25.6512-25.6512v-212.5312c0-14.1824 11.4688-25.6512 25.6512-25.6512 14.1824 0 25.6512 11.4688 25.6512 25.6512v212.5312z" fill="#FCA315" ></path><path d="M688.0768 169.5232c-24.3712 4.7616-45.0048 19.8144-57.344 40.3968l-6.1952-0.8192c-6.4-46.8992-46.4896-83.0464-95.1296-83.0464-39.7824 0-73.8816 24.1152-88.5248 58.5728 0-0.512 0.1024-1.0752 0.1024-1.5872 0-50.0224-39.7312-90.7776-89.3952-92.3648-43.4176-1.3824-82.0224 28.9792-92.7232 71.0656-3.7376 14.6432-3.2768 28.5696-0.3584 41.5744-52.2752-24.8832-118.8864-9.472-137.4208 50.6368-9.8304 31.8464-5.0688 53.9136 1.792 67.7376a33.0496 33.0496 0 0 0 29.6448 18.3808h101.376c0 35.0208 28.3648 63.3856 63.3856 63.3856 35.0208 0 63.3856-28.3648 63.3856-63.3856h272.0256c19.6608-53.6576 31.8464-110.9504 35.3792-170.5472z" fill="#FCB138" ></path><path d="M412.9792 377.4464c-2.8672 46.5408-52.3776 74.24-99.6352 74.24s-86.0672-27.6992-88.9856-74.24h-48.8448v347.4432c43.7248-6.0928 85.9136-16.896 126.0544-31.8976v-147.8656c0-14.1824 11.4688-25.6512 25.6512-25.6512 14.1824 0 25.6512 11.4688 25.6512 25.6512v125.9008c24.8832-12.0832 48.7936-25.856 71.5776-41.1136v-84.7872c0-14.1824 11.4688-25.6512 25.6512-25.6512 14.1824 0 25.6512 11.4688 25.6512 25.6512v46.2336c68.864-57.7536 124.5184-130.816 161.6896-213.9136H412.9792z" fill="#FCB138" ></path><path d="M502.1696 130.048a96.3584 96.3584 0 0 0-61.2864 54.5792c0-0.512 0.1024-1.0752 0.1024-1.5872 0-50.0224-39.7312-90.7776-89.3952-92.3648-43.4176-1.3824-82.0224 28.9792-92.7232 71.0656-3.7376 14.6432-3.2768 28.5696-0.3584 41.5744-52.2752-24.8832-118.8864-9.472-137.4208 50.6368-9.8304 31.8464-5.0688 53.9136 1.792 67.7376a33.0496 33.0496 0 0 0 29.6448 18.3808h101.376c0 28.8768 19.3536 53.1968 45.7728 60.8256 91.2384-68.2496 162.2528-162.0992 202.496-270.848zM252.928 432.5376c-16.384-12.7488-27.0848-31.488-28.5696-55.0912h-48.8448v94.8736c26.88-11.3664 52.736-24.6784 77.4144-39.7824z" fill="#FFC65E" ></path></svg>