<svg viewBox="0 0 1024 1024" version="1.1" xmlns="http://www.w3.org/2000/svg"><path d="M867.8912 484.0448V309.8624h-301.4656v174.1824c0 77.9776 53.9136 142.6944 124.7744 155.5968v161.1264h-65.6896c-14.336 0-25.9584 12.8-25.9584 28.5696s11.6224 28.5696 25.9584 28.5696h183.296c14.336 0 25.9584-12.8 25.9584-28.5696s-11.6224-28.5696-25.9584-28.5696h-65.6896v-161.1264c70.8608-12.9024 124.7744-77.6192 124.7744-155.5968zM435.7632 317.2352V120.0128c0-17.5616-13.312-31.7952-29.696-31.7952H285.952c-16.384 0-29.696 14.2336-29.696 31.7952v197.2224c-57.2416 33.8944-96.1024 99.1744-96.1024 173.9776v334.0288c0 50.688 38.5536 91.9552 85.9648 91.9552h199.7824c47.4112 0 85.9648-41.2672 85.9648-91.9552V491.2128c0-74.8032-38.8608-140.0832-96.1024-173.9776z m-158.72 302.08c0 18.944-14.3872 34.304-32.1024 34.304s-32.1024-15.36-32.1024-34.304V465.5104c0-18.944 14.3872-34.304 32.1024-34.304s32.1024 15.36 32.1024 34.304v153.8048z" fill="#BD50D3" ></path><path d="M566.4256 484.0448c0 77.9776 53.9136 142.6944 124.7744 155.5968v22.016c53.1968-85.3504 84.224-187.2384 84.224-296.8064 0-18.5344-0.9216-36.9152-2.6112-54.9888h-206.3872v174.1824z" fill="#C65EDB" ></path><path d="M566.4256 439.04c21.7088-40.192 38.7072-83.456 50.1248-129.1776h-50.1248v129.1776z" fill="#CA6EE0" ></path><path d="M435.7632 317.2352V120.0128c0-17.5616-13.312-31.7952-29.696-31.7952H285.952c-16.384 0-29.696 14.2336-29.696 31.7952v197.2224c-57.2416 33.8944-96.1024 99.1744-96.1024 173.9776v334.0288c0 40.5504 24.6784 74.9568 58.7776 87.1424 1.1264 0 2.2016 0.1024 3.328 0.1024 114.944 0 221.5424-37.888 309.6576-102.5536V491.2128c-0.0512-74.8032-38.912-140.0832-96.1536-173.9776z m-158.72 302.08c0 18.944-14.3872 34.304-32.1024 34.304s-32.1024-15.36-32.1024-34.304V465.5104c0-18.944 14.3872-34.304 32.1024-34.304s32.1024 15.36 32.1024 34.304v153.8048z" fill="#C65EDB" ></path><path d="M435.7632 317.2352V120.0128c0-17.5616-13.312-31.7952-29.696-31.7952H285.952c-16.384 0-29.696 14.2336-29.696 31.7952v197.2224c-57.2416 33.8944-96.1024 99.1744-96.1024 173.9776v191.5904c204.9024-29.9008 320.9728-169.3696 366.4896-238.0288-12.3392-54.784-45.8752-100.864-90.88-127.5392z m-158.72 302.08c0 18.944-14.3872 34.304-32.1024 34.304s-32.1024-15.36-32.1024-34.304V465.5104c0-18.944 14.3872-34.304 32.1024-34.304s32.1024 15.36 32.1024 34.304v153.8048z" fill="#CA6EE0" ></path><path d="M435.7632 147.6096v-27.5968c0-17.5616-13.312-31.7952-29.696-31.7952H285.952c-16.384 0-29.696 14.2336-29.696 31.7952v197.2224c-44.2368 26.2144-77.4144 71.2192-90.2656 124.8256 119.9616-59.8528 216.1664-164.8128 269.7728-294.4512z" fill="#D786EA" ></path></svg>