<svg viewBox="0 0 1024 1024" version="1.1" xmlns="http://www.w3.org/2000/svg"><path d="M731.8016 655.1552c-49.4592 0-89.5488-40.0896-89.5488-89.5488 0-49.4592 40.0896-89.5488 89.5488-89.5488h208.5376v-101.376c0-59.5968-48.2816-107.8784-107.8784-107.8784H200.96c-59.5968 0-107.8784 48.2816-107.8784 107.8784v419.7376c0 59.5968 48.2816 107.8784 107.8784 107.8784H832.512c59.5968 0 107.8784-48.2816 107.8784-107.8784v-139.264h-208.5888z" fill="#6C6CEA" ></path><path d="M728.5248 567.552m-43.1616 0a43.1616 43.1616 0 1 0 86.3232 0 43.1616 43.1616 0 1 0-86.3232 0Z" fill="#7E80F7" ></path><path d="M389.888 218.0096h424.96l-50.688-89.856c-26.368-46.7456-85.1968-63.9488-132.608-38.7584l-241.664 128.6144zM731.8016 476.0064h125.184c2.5088-22.4256 3.7888-45.2608 3.7888-68.352 0-48.1792-5.5808-95.1296-16.0768-140.0832-3.9936-0.4608-8.0896-0.7168-12.1856-0.7168H200.96c-59.5968 0-107.8784 48.2816-107.8784 107.8784v419.7376c0 59.5968 48.2816 107.8784 107.8784 107.8784h409.344c86.016-63.232 154.88-148.3264 198.5024-247.1424h-76.9536c-49.4592 0-89.5488-40.0896-89.5488-89.5488-0.0512-49.5616 40.0384-89.6512 89.4976-89.6512z" fill="#757BF2" ></path><path d="M691.9168 218.0096c0.6656-11.6736 1.024-23.3984 1.024-35.2256 0-35.6864-3.072-70.656-8.9088-104.6528-17.6128-1.0752-35.7376 2.4064-52.4288 11.3152L389.888 218.0096h302.0288zM688.128 266.8032H200.96c-59.5968 0-107.8784 48.2816-107.8784 107.8784v419.7376c0 2.9696 0.2048 5.8368 0.4608 8.7552C399.872 796.2112 650.8032 564.736 688.128 266.8032z" fill="#8486F8" ></path><path d="M389.888 218.0096h94.5664c9.2672-20.5312 17.408-41.6768 24.4224-63.2832L389.888 218.0096zM463.5648 266.8032H200.96c-59.5968 0-107.8784 48.2816-107.8784 107.8784v188.2112c159.4368-45.312 292.4544-153.4976 370.4832-296.0896z" fill="#8D92F8" ></path></svg>