<svg viewBox="0 0 1024 1024" version="1.1" xmlns="http://www.w3.org/2000/svg"><path d="M778.9056 802.4064H119.4496c-24.4224 0-44.2368 21.4528-44.2368 47.872s19.8144 47.872 44.2368 47.872h659.456c24.4224 0 44.2368-21.4528 44.2368-47.872s-19.8144-47.872-44.2368-47.872z" fill="#FC7032" ></path><path d="M503.2448 802.4064H119.4496c-24.4224 0-44.2368 21.4528-44.2368 47.872 0 26.4704 19.8144 47.872 44.2368 47.872h142.9504c88.064-14.4384 169.7792-47.7696 240.8448-95.744z" fill="#FF7E3E" ></path><path d="M815.616 259.0208c-23.808 0-46.2336 5.8368-66.048 16.0768V162.4064c0-16.4352-13.312-29.7472-29.7472-29.7472H152.3712c-16.4352 0-29.7472 13.312-29.7472 29.7472v368.64c0 116.6336 94.5152 211.1488 211.1488 211.1488h204.6464c116.4288 0 210.8928-94.2592 211.1488-210.6368 19.8144 10.24 42.24 16.0768 66.048 16.0768 79.5648 0 144.2816-64.7168 144.2816-144.2816 0-79.616-64.768-144.3328-144.2816-144.3328zM285.2864 441.7536c0 22.9376-18.5856 41.5232-41.5232 41.5232s-41.5232-18.5856-41.5232-41.5232V282.112c0-22.9376 18.5856-41.5232 41.5232-41.5232s41.5232 18.5856 41.5232 41.5232v159.6416z m530.3296 26.2656c-35.6864 0-64.7168-29.0304-64.7168-64.7168 0-35.6864 29.0304-64.7168 64.7168-64.7168s64.7168 29.0304 64.7168 64.7168c-0.0512 35.6864-29.0816 64.7168-64.7168 64.7168z" fill="#FC7032" ></path><path d="M772.1984 296.8064c0-10.3424-0.256-20.5824-0.768-30.8224-7.5776 2.4576-14.8992 5.4784-21.8624 9.0624v-112.64c0-16.4352-13.312-29.7472-29.7472-29.7472H152.3712c-16.4352 0-29.7472 13.312-29.7472 29.7472v368.64c0 116.6336 94.5152 211.1488 211.1488 211.1488h204.6464c15.7184 0 30.976-1.7408 45.6704-5.0176 84.992-81.3568 146.432-187.0848 173.2096-305.9712a64.3072 64.3072 0 0 1-6.4-27.8528c0-17.408 6.9632-33.2288 18.2272-44.9024 1.9968-20.2752 3.072-40.8576 3.072-61.6448z m-486.912 144.9472c0 22.9376-18.5856 41.5232-41.5232 41.5232s-41.5232-18.5856-41.5232-41.5232V282.112c0-22.9376 18.5856-41.5232 41.5232-41.5232s41.5232 18.5856 41.5232 41.5232v159.6416z" fill="#FF7E3E" ></path><path d="M152.3712 132.6592c-16.4352 0-29.7472 13.312-29.7472 29.7472v368.64c0 50.6368 17.8688 97.1264 47.616 133.5296 235.6224-70.1952 411.4944-279.04 432.9472-531.9168H152.3712z m132.9152 309.0944c0 22.9376-18.5856 41.5232-41.5232 41.5232s-41.5232-18.5856-41.5232-41.5232V282.112c0-22.9376 18.5856-41.5232 41.5232-41.5232s41.5232 18.5856 41.5232 41.5232v159.6416z" fill="#FF9552" ></path><path d="M202.24 282.112c0-22.9376 18.5856-41.5232 41.5232-41.5232s41.5232 18.5856 41.5232 41.5232v1.28c42.0864-44.4928 77.6192-95.1808 104.8576-150.7328H152.3712c-16.4352 0-29.7472 13.312-29.7472 29.7472v243.7632a607.8976 607.8976 0 0 0 79.616-49.4592V282.112z" fill="#FFA56A" ></path></svg>