<svg viewBox="0 0 1024 1024" version="1.1" xmlns="http://www.w3.org/2000/svg"><path d="M820.3264 151.808H156.416c-19.7632 0-38.0416 10.7008-47.7696 27.8528-9.728 17.2032-9.4208 38.3488 0.768 55.2448l42.752 70.9632-50.7904 79.2576c-11.8272 18.4832-11.52 42.1376 0.768 60.2624l46.6944 69.0176-47.8208 76.6976c-11.5712 18.5344-11.008 42.1888 1.3824 60.16l47.6672 69.0688-39.8848 64.3072a54.79424 54.79424 0 0 0 46.592 83.712h663.5008c65.28 0 118.4256-53.1456 118.4256-118.4256v-479.744c0.0512-65.2288-53.0432-118.3744-118.3744-118.3744zM354.048 737.9456c0 25.7024-18.3296 46.592-41.0112 46.592s-41.0112-20.8384-41.0112-46.592V282.3168c0-25.7024 18.3296-46.592 41.0112-46.592s41.0112 20.8384 41.0112 46.592v455.6288z m402.9952-230.656h-86.528v40.3456h70.8608c25.7024 0 46.592 20.8384 46.592 46.592 0 25.7024-20.8384 46.592-46.592 46.592h-70.8608v32.4608c0 25.7024-20.8384 46.592-46.592 46.592s-46.592-20.8384-46.592-46.592v-32.4608H503.9616c-25.7024 0-46.592-20.8384-46.592-46.592 0-25.7024 20.8384-46.592 46.592-46.592h73.472v-40.3456h-89.088c-25.7024 0-46.592-20.8384-46.592-46.592s20.8384-46.592 46.592-46.592h49.1008l-36.608-32.1536c-19.3536-16.9472-21.248-46.3872-4.3008-65.7408s46.3872-21.248 65.7408-4.2496l60.7744 53.3504 55.9104-52.3264c18.7904-17.5616 48.2304-16.5888 65.8432 2.1504a46.592 46.592 0 0 1-2.2016 65.8432l-35.4304 33.1264h49.9712c25.7024 0 46.592 20.8384 46.592 46.592s-20.9408 46.592-46.6944 46.592z" fill="#FC7032" ></path><path d="M938.752 270.2336c0-65.28-53.1456-118.4256-118.4256-118.4256H156.416c-19.7632 0-38.0416 10.7008-47.7696 27.8528-9.728 17.2032-9.4208 38.3488 0.768 55.2448l42.752 70.9632-50.7904 79.2576c-11.8272 18.4832-11.52 42.1376 0.768 60.2624l46.6944 69.0176-47.8208 76.6976c-11.5712 18.5344-11.008 42.1888 1.3824 60.16l47.6672 69.0688-39.8848 64.3072a54.79424 54.79424 0 0 0 46.592 83.712h348.6208c231.5264-74.4448 404.6336-279.04 433.3056-527.616V270.2336z m-584.704 467.712c0 25.7024-18.3296 46.592-41.0112 46.592s-41.0112-20.8384-41.0112-46.592V282.3168c0-25.7024 18.3296-46.592 41.0112-46.592s41.0112 20.8384 41.0112 46.592v455.6288z m402.9952-230.656h-86.528v40.3456h70.8608c25.7024 0 46.592 20.8384 46.592 46.592 0 25.7024-20.8384 46.592-46.592 46.592h-70.8608v32.4608c0 25.7024-20.8384 46.592-46.592 46.592s-46.592-20.8384-46.592-46.592v-32.4608H503.9616c-25.7024 0-46.592-20.8384-46.592-46.592 0-25.7024 20.8384-46.592 46.592-46.592h73.472v-40.3456h-89.088c-25.7024 0-46.592-20.8384-46.592-46.592s20.8384-46.592 46.592-46.592h49.1008l-36.608-32.1536c-19.3536-16.9472-21.248-46.3872-4.3008-65.7408s46.3872-21.248 65.7408-4.2496l60.7744 53.3504 55.9104-52.3264c18.7904-17.5616 48.2304-16.5888 65.8432 2.1504a46.592 46.592 0 0 1-2.2016 65.8432l-35.4304 33.1264h49.9712c25.7024 0 46.592 20.8384 46.592 46.592s-20.9408 46.592-46.6944 46.592z" fill="#FF7E3E" ></path><path d="M108.6464 179.712c-9.728 17.2032-9.4208 38.3488 0.768 55.2448l42.752 70.9632-50.7904 79.2064c-11.8272 18.4832-11.52 42.1376 0.768 60.2624l46.6944 69.0176-47.8208 76.6976c-11.5712 18.5344-11.008 42.1888 1.3824 60.16l15.8208 22.8864c7.0656 0.256 14.1824 0.4096 21.3504 0.4096 45.4656 0 89.7536-4.864 132.5056-13.9776V282.3168c0-25.7024 18.3296-46.592 41.0112-46.592s41.0112 20.8384 41.0112 46.592v354.8672a628.7872 628.7872 0 0 0 103.7312-48.64c2.816-23.04 22.3744-40.9088 46.1824-40.9088h15.2064c16.7424-12.6464 32.8704-26.112 48.2816-40.3456H488.2944c-25.7024 0-46.592-20.8384-46.592-46.592s20.8384-46.592 46.592-46.592h49.1008l-36.608-32.1536c-19.3536-16.9472-21.248-46.3872-4.3008-65.7408s46.3872-21.248 65.7408-4.2496l60.7744 53.3504 55.9104-52.3264a46.27968 46.27968 0 0 1 36.9664-12.2368c20.9408-46.8992 36.3008-96.8192 45.312-148.8896H156.416c-19.7632-0.0512-38.0416 10.6496-47.7696 27.8528z" fill="#FF9552" ></path><path d="M108.6464 179.712c-9.728 17.2032-9.4208 38.3488 0.768 55.2448l42.752 70.9632-50.7904 79.2064a54.74816 54.74816 0 0 0-2.2528 55.04c61.2352-11.6224 119.296-32.0512 172.9024-60.0064V282.3168c0-25.7024 18.3296-46.592 41.0112-46.592s41.0112 20.8384 41.0112 46.592v46.848a634.20928 634.20928 0 0 0 163.7376-177.3056H156.416c-19.7632-0.0512-38.0416 10.6496-47.7696 27.8528z" fill="#FFA56A" ></path></svg>