<svg viewBox="0 0 1024 1024" version="1.1" xmlns="http://www.w3.org/2000/svg"><path d="M720.7936 274.6368c-17.3568 0-31.4368-14.08-31.4368-31.4368V132.096c0-17.3568 14.08-31.4368 31.4368-31.4368 17.3568 0 31.4368 14.08 31.4368 31.4368v111.104c0.0512 17.3568-14.0288 31.4368-31.4368 31.4368z" fill="#FF7E3E" ></path><path d="M793.5488 157.952V243.2c0 36.1472-36.608 65.536-72.7552 65.536s-72.7552-29.3888-72.7552-65.536V157.5424H380.6208V243.2c0 36.1472-36.608 65.536-72.7552 65.536s-72.7552-29.3888-72.7552-65.536V157.696c-68.5056 2.7648-123.1872 59.1872-123.1872 128.3584v100.6592h800.1024V286.0032c0.0512-67.584-52.1728-122.9824-118.4768-128.0512z" fill="#FF7E3E" ></path><path d="M307.8656 274.6368c-17.3568 0-31.4368-14.08-31.4368-31.4368V132.096c0-17.3568 14.08-31.4368 31.4368-31.4368 17.3568 0 31.4368 14.08 31.4368 31.4368v111.104c0 17.3568-14.08 31.4368-31.4368 31.4368z" fill="#FFA56A" ></path><path d="M752.2816 132.096c0-17.3568-14.08-31.4368-31.4368-31.4368-17.3568 0-31.4368 14.08-31.4368 31.4368v111.104c0 13.568 8.6528 25.0368 20.6848 29.44 18.7392-42.3424 33.024-87.0912 42.24-133.632V132.096zM695.1936 303.872c-25.9584-9.728-47.104-33.28-47.104-60.672V157.5424H380.6208V243.2c0 36.1472-36.608 65.536-72.7552 65.536s-72.7552-29.3888-72.7552-65.536V157.696c-68.5056 2.7648-123.1872 59.1872-123.1872 128.3584v100.6592h532.736c18.8416-26.2656 35.7376-53.9136 50.5344-82.8416z" fill="#FF9552" ></path><path d="M486.7072 157.5424H380.6208V243.2c0 36.1472-36.608 65.536-72.7552 65.536s-72.7552-29.3888-72.7552-65.536V157.696c-68.5056 2.7648-123.1872 59.1872-123.1872 128.3584v100.6592H188.928c120.832-45.1072 224.3584-125.696 297.7792-229.1712z" fill="#FFA56A" ></path><path d="M111.9232 450.9184v336.3328c0 70.9632 57.5488 128.4608 128.4608 128.4608h543.1296c70.9632 0 128.4608-57.5488 128.4608-128.4608V450.9184H111.9232z m367.3088 164.8128H246.2208c-24.0128 0-43.4688-19.456-43.4688-43.4688s19.456-43.4688 43.4688-43.4688H479.232c24.0128 0 43.4688 19.456 43.4688 43.4688s-19.456 43.4688-43.4688 43.4688z" fill="#FC7032" ></path><path d="M111.9232 450.9184v336.3328c0 24.2176 6.8096 46.7968 18.4832 66.0992 56.832 16.5888 116.8896 25.4976 179.0464 25.4976 278.7328 0 515.6352-178.7904 602.4192-427.9296H111.9232z m367.3088 164.8128H246.2208c-24.0128 0-43.4688-19.456-43.4688-43.4688s19.456-43.4688 43.4688-43.4688H479.232c24.0128 0 43.4688 19.456 43.4688 43.4688s-19.456 43.4688-43.4688 43.4688z" fill="#FF7E3E" ></path><path d="M111.9232 450.9184v201.2672c4.9152 0.1024 9.7792 0.2048 14.6944 0.2048 74.752 0 146.3808-13.0048 213.0432-36.608H246.2208c-24.0128 0-43.4688-19.456-43.4688-43.4688s19.456-43.4688 43.4688-43.4688H479.232c6.6048 0 12.9024 1.536 18.4832 4.1984 33.9456-24.32 65.536-51.7632 94.0544-82.1248H111.9232z" fill="#FF9552" ></path></svg>