<svg viewBox="0 0 1024 1024" version="1.1" xmlns="http://www.w3.org/2000/svg"><path d="M334.8992 319.744c-25.4976 0-46.1824-20.6848-46.1824-46.1824V148.224c0-25.4976 20.6848-46.1824 46.1824-46.1824s46.1824 20.6848 46.1824 46.1824v125.3376c-0.0512 25.4976-20.6848 46.1824-46.1824 46.1824z" fill="#FFC65E" ></path><path d="M695.04 319.744c-25.4976 0-46.1824-20.6848-46.1824-46.1824V148.224c0-25.4976 20.6848-46.1824 46.1824-46.1824s46.1824 20.6848 46.1824 46.1824v125.3376c-0.0512 25.4976-20.6848 46.1824-46.1824 46.1824z" fill="#FF8E12" ></path><path d="M824.7808 183.4496h-27.7504v90.112c0 56.7808-46.1824 102.9632-102.9632 102.9632s-102.9632-46.1824-102.9632-102.9632v-90.112H437.8624v90.112c0 56.7808-46.1824 102.9632-102.9632 102.9632S231.936 330.3936 231.936 273.6128v-90.112h-21.3504c-51.3024 0-93.0816 41.7792-93.0816 93.0816v507.5968c0 74.496 60.6208 135.1168 135.1168 135.1168h530.176c74.496 0 135.1168-60.6208 135.1168-135.1168V276.5824c-0.0512-51.3536-41.8304-93.1328-93.1328-93.1328z m-78.6944 351.3856l-109.8752 110.7968c-12.9024 13.0048-30.72 20.4288-48.9984 20.4288h-0.6656c-18.5344-0.2048-36.4544-7.936-49.2544-21.3504l-62.976-65.9456-97.2288 96.4608a46.11072 46.11072 0 0 1-32.512 13.4144c-11.8784 0-23.7568-4.5568-32.768-13.6704-17.9712-18.0736-17.8176-47.3088 0.256-65.28l114.1248-113.2032c13.2608-13.1584 30.976-20.1728 49.5616-20.0192 18.688 0.256 36.0448 7.8336 48.9472 21.3504l62.8224 65.792 93.0304-93.7984c17.9712-18.1248 47.2064-18.2272 65.28-0.256 18.0736 17.92 18.2272 47.1552 0.256 65.28z" fill="#FF8E12" ></path><path d="M917.8624 276.5824c0-51.3024-41.7792-93.0816-93.0816-93.0816h-27.7504v90.112c0 56.7808-46.1824 102.9632-102.9632 102.9632s-102.9632-46.1824-102.9632-102.9632v-90.112H437.8624v90.112c0 56.7808-46.1824 102.9632-102.9632 102.9632S231.936 330.3936 231.936 273.6128v-90.112h-21.3504c-51.3024 0-93.0816 41.7792-93.0816 93.0816v507.5968c0 74.496 60.6208 135.1168 135.1168 135.1168h202.6496c244.3264-63.5392 430.5408-271.0528 462.592-526.592V276.5824z m-171.776 258.2528l-109.8752 110.7968c-12.9024 13.0048-30.72 20.4288-48.9984 20.4288h-0.6656c-18.5344-0.2048-36.4544-7.936-49.2544-21.3504l-62.976-65.9456-97.2288 96.4608a46.11072 46.11072 0 0 1-32.512 13.4144c-11.8784 0-23.7568-4.5568-32.768-13.6704-17.9712-18.0736-17.8176-47.3088 0.256-65.28l114.1248-113.2032c13.2608-13.1584 30.976-20.1728 49.5616-20.0192 18.688 0.256 36.0448 7.8336 48.9472 21.3504l62.8224 65.792 93.0304-93.7984c17.9712-18.1248 47.2064-18.2272 65.28-0.256 18.0736 17.92 18.2272 47.1552 0.256 65.28z" fill="#FCA315" ></path><path d="M117.504 717.1584c2.9696 0.0512 5.9392 0.1024 8.9088 0.1024 69.8368 0 137.0112-11.4688 199.7312-32.5632a45.01504 45.01504 0 0 1-14.2848-9.7792c-17.9712-18.0736-17.8176-47.3088 0.256-65.28l114.1248-113.2032c13.2608-13.1584 30.976-20.1728 49.5616-20.0192 18.688 0.256 36.0448 7.8336 48.9472 21.3504l39.1168 40.96c48.1792-47.2064 88.832-102.0928 119.808-162.7136-51.8656-5.2736-92.5184-49.2032-92.5184-102.4512v-90.112H437.8624v90.112c0 56.7808-46.1824 102.9632-102.9632 102.9632S231.936 330.3936 231.936 273.6128v-90.112h-21.3504c-51.3024 0-93.0816 41.7792-93.0816 93.0816v440.576z" fill="#FCB138" ></path><path d="M396.288 656.1792c34.0992-16.3328 66.5088-35.7376 96.8704-57.7536l-18.7904-19.712-78.08 77.4656zM741.1712 148.224c0-25.4976-20.6848-46.1824-46.1824-46.1824s-46.1824 20.6848-46.1824 46.1824v125.3376c0 25.4976 20.6848 46.1824 46.1824 46.1824 5.1712 0 10.1888-0.9216 14.848-2.4576 13.6704-35.4304 24.2688-72.448 31.3344-110.6432V148.224z" fill="#FCB138" ></path><path d="M510.6688 183.4496H437.8624v90.112c0 3.9936-0.256 7.8848-0.7168 11.7248 27.7504-31.2832 52.4288-65.3824 73.5232-101.8368zM336.8448 376.4736c-0.6656 0-1.28 0.1024-1.9456 0.1024-56.7808 0-102.9632-46.1824-102.9632-102.9632v-90.112h-21.3504c-51.3024 0-93.0816 41.7792-93.0816 93.0816v201.6768a622.90432 622.90432 0 0 0 219.3408-101.7856z" fill="#FFC65E" ></path></svg>