<svg viewBox="0 0 1024 1024" version="1.1" xmlns="http://www.w3.org/2000/svg"><path d="M649.3696 690.6368c-16.3328 66.7136-76.5952 116.3776-148.2752 116.3776s-131.9424-49.664-148.2752-116.3776H130.048v116.1728c0 50.3808 40.8576 91.2384 91.2384 91.2384h572.4672c50.3808 0 91.2384-40.8576 91.2384-91.2384v-116.1728h-235.6224z" fill="#FC7032" ></path><path d="M384.7168 618.1376a36.2496 36.2496 0 0 1 36.2496 36.2496c0 44.1856 35.9424 80.128 80.128 80.128s80.128-35.9424 80.128-80.128a36.2496 36.2496 0 0 1 36.2496-36.2496h267.5712V218.3168c0-50.3808-40.8576-91.2384-91.2384-91.2384H221.2864c-50.3808 0-91.2384 40.8576-91.2384 91.2384v399.8208h254.6688z m16.64-195.328a36.2496 36.2496 0 0 1 0-72.4992h30.2592l-42.8544-52.4288a36.1984 36.1984 0 0 1 5.12-50.9952 36.1984 36.1984 0 0 1 50.9952 5.12L507.904 329.0624l62.1568-76.9536c12.5952-15.5648 35.4304-18.0224 50.9952-5.4272 15.5648 12.5952 18.0224 35.4304 5.4272 50.9952l-42.496 52.5824h29.7472a36.2496 36.2496 0 0 1 0 72.4992h-69.9392v23.7568h69.9392a36.2496 36.2496 0 0 1 0 72.4992h-69.9392v37.3248a36.2496 36.2496 0 0 1-72.4992 0v-37.3248H401.3568a36.2496 36.2496 0 0 1 0-72.4992h69.9392v-23.7568H401.3568z" fill="#FC7032" ></path><path d="M885.0432 361.0112V218.3168c0-50.3808-40.8576-91.2384-91.2384-91.2384H221.2864c-50.3808 0-91.2384 40.8576-91.2384 91.2384v399.8208h254.6688a36.2496 36.2496 0 0 1 36.2496 36.2496c0 44.1856 35.9424 80.128 80.128 80.128s80.128-35.9424 80.128-80.128a36.2496 36.2496 0 0 1 36.2496-36.2496h157.3888c55.5008-74.24 94.1056-161.8432 110.1824-257.1264z m-271.3088 158.0544h-69.9392v37.3248a36.2496 36.2496 0 0 1-72.4992 0v-37.3248H401.3568a36.2496 36.2496 0 0 1 0-72.4992h69.9392v-23.7568H401.3568a36.2496 36.2496 0 0 1 0-72.4992h30.2592l-42.8544-52.4288a36.1984 36.1984 0 0 1 5.12-50.9952 36.1984 36.1984 0 0 1 50.9952 5.12L507.904 329.0624l62.1568-76.9536c12.5952-15.5648 35.4304-18.0224 50.9952-5.4272 15.5648 12.5952 18.0224 35.4304 5.4272 50.9952l-42.496 52.5824h29.7472a36.2496 36.2496 0 0 1 0 72.4992h-69.9392v23.7568h69.9392a36.2496 36.2496 0 0 1 36.2496 36.2496c0 20.0704-16.2304 36.3008-36.2496 36.3008z" fill="#FF7E3E" ></path><path d="M710.8608 690.6368h-61.4912c-16.3328 66.7136-76.5952 116.3776-148.2752 116.3776s-131.9424-49.664-148.2752-116.3776H130.048v116.1728c0 10.1376 1.7408 19.8656 4.8128 29.0304 51.4048 14.4384 105.5744 22.1696 161.5872 22.1696 160.9728-0.0512 307.0464-63.7952 414.4128-167.3728z" fill="#FF7E3E" ></path><path d="M471.296 540.9792v-21.9136H401.3568a36.2496 36.2496 0 0 1 0-72.4992h69.9392v-23.7568H401.3568a36.2496 36.2496 0 0 1 0-72.4992h30.2592l-42.8544-52.4288a36.1984 36.1984 0 0 1 5.12-50.9952 36.1984 36.1984 0 0 1 50.9952 5.12L507.904 329.0624l62.1568-76.9536c12.5952-15.5648 35.4304-18.0224 50.9952-5.4272 15.5648 12.5952 18.0224 35.4304 5.4272 50.9952l-42.496 52.5824h29.7472c10.9056 0 20.5824 4.9152 27.2384 12.5952 43.52-70.2464 72.8576-150.1696 84.0704-235.8272H221.2864c-50.3808 0-91.2384 40.8576-91.2384 91.2384v399.8208h183.6544c56.6784-17.92 109.6704-44.0832 157.5936-77.1072z" fill="#FF9552" ></path><path d="M543.7952 422.8096v23.7568h34.6112c6.912-7.7312 13.6192-15.6672 20.1216-23.7568h-54.7328z" fill="#FF9552" ></path><path d="M381.44 282.2144c-2.6112-12.8 1.5872-26.5216 12.3904-35.3792 8.8576-7.2704 20.1216-9.472 30.5664-7.2192 31.0784-34.1504 58.2656-71.8848 80.8448-112.5376H221.2864c-50.3808 0-91.2384 40.8576-91.2384 91.2384v198.0928c94.9248-24.064 180.7872-70.8096 251.392-134.1952z" fill="#FFA56A" ></path></svg>