<svg viewBox="0 0 1024 1024" version="1.1" xmlns="http://www.w3.org/2000/svg"><path d="M493.4144 901.4784V249.9584c0-30.3104-13.9776-103.1168-117.7088-103.1168H169.472c-24.2176 0-72.8064 1.8432-72.8064 67.9424v518.0416c0 40.6016 6.0416 86.1184 70.9632 86.1184h116.48c20.0192 0 165.2224-14.6944 209.3056 82.5344z" fill="#1DCE75" ></path><path d="M542.6688 901.4784V249.9584c0-30.3104 13.9776-103.1168 117.7088-103.1168h206.2336c24.2688 0 72.8064 1.8432 72.8064 67.9424v518.0416c0 40.6016-6.0416 86.1184-70.9632 86.1184h-116.48c-20.0192 0-165.2224-14.6944-209.3056 82.5344z" fill="#05C46D" ></path><path d="M375.7568 146.8416H169.5232c-24.2176 0-72.8064 1.8432-72.8064 67.9424v518.0416c0 40.6528 6.0416 86.1184 70.9632 86.1184H284.16c13.824 0 87.1424-7.0144 145.8176 20.5312 21.6576-5.632 42.8544-12.4416 63.488-20.3776V249.9072c-0.0512-30.2592-13.9776-103.0656-117.7088-103.0656zM660.3776 146.8416c-103.7312 0-117.7088 72.8064-117.7088 103.1168v547.8912c203.2128-99.0208 343.296-307.6096 343.296-548.864 0-34.7136-2.9184-68.7104-8.4992-101.888-3.9424-0.2048-7.5776-0.256-10.8032-0.256h-206.2848z" fill="#1DCE75" ></path><path d="M375.7568 146.8416H169.5232c-24.2176 0-72.8064 1.8432-72.8064 67.9424v427.5712c3.9936 0.1024 8.0384 0.1536 12.0832 0.1536 145.8176 0 279.7056-51.2 384.6656-136.5504v-256c-0.0512-30.3104-13.9776-103.1168-117.7088-103.1168zM708.2496 146.8416h-47.872c-103.7312 0-117.7088 72.8064-117.7088 103.1168V461.312c83.5072-84.4288 142.4896-193.0752 165.5808-314.4704z" fill="#3CD38E" ></path><path d="M453.9904 167.9872c-17.5104-12.544-42.5984-21.1456-78.2848-21.1456H169.472c-24.2176 0-72.8064 1.8432-72.8064 67.9424v195.2256c146.7392-34.816 272.9472-122.5728 357.3248-242.0224z" fill="#48E1AA" ></path></svg>