<svg viewBox="0 0 1024 1024" version="1.1" xmlns="http://www.w3.org/2000/svg"><path d="M200.1408 511.2832L78.3872 389.5808a30.80704 30.80704 0 0 1 0-43.5712l255.3344-255.3344a30.80704 30.80704 0 0 1 43.5712 0l121.7024 121.7024a30.80704 30.80704 0 0 1 0 43.5712L243.712 511.2832a30.80704 30.80704 0 0 1-43.5712 0z" fill="#55B5F3" ></path><path d="M624.6912 935.8848l-121.7024-121.7024a30.80704 30.80704 0 0 1 0-43.5712l255.3344-255.3344a30.80704 30.80704 0 0 1 43.5712 0l121.7024 121.7024a30.80704 30.80704 0 0 1 0 43.5712l-255.3344 255.3344a30.80704 30.80704 0 0 1-43.5712 0z" fill="#2595E8" ></path><path d="M933.7344 384.2048c-75.52-75.52-245.0432-248.2176-309.4528-309.4528-72.2432 72.2432-83.4048 182.4256-33.4848 266.3936l-34.6112-34.6112c-15.872-15.872-41.6768-15.872-57.5488 0L294.2464 510.9248c-15.872 15.872-15.872 41.6768 0 57.5488l19.6608 19.6608-53.1456 5.3248c-20.5824 2.048-29.5424 27.136-14.8992 41.728l126.464 126.464c14.6432 14.6432 39.68 5.6832 41.728-14.8992l5.3248-53.1456 26.4704 26.4704c15.872 15.872 41.6768 15.872 57.5488 0l204.3904-204.3904c15.872-15.872 15.872-41.6768 0-57.5488l-40.3968-40.3968c83.9168 49.8688 194.0992 38.7072 266.3424-33.536z" fill="#2595E8" ></path><path d="M837.0176 286.7712c-77.9776-78.6944-169.2672-170.7008-212.736-212.0704-72.2432 72.2432-83.4048 182.4256-33.4848 266.3936l-34.6112-34.6112c-15.872-15.872-41.6768-15.872-57.5488 0L294.2464 510.9248c-15.872 15.872-15.872 41.6768 0 57.5488l19.6608 19.6608-53.1456 5.3248c-20.5824 2.048-29.5424 27.136-14.8992 41.728l126.464 126.464c14.6432 14.6432 39.68 5.6832 41.728-14.8992l5.3248-53.1456 26.4704 26.4704c15.872 15.872 41.6768 15.872 57.5488 0l204.3904-204.3904c15.872-15.872 15.872-41.6768 0-57.5488l-40.3968-40.3968c49.9712 29.696 109.1584 37.5808 164.1984 24.0128 5.2736-32.256 8.0384-65.3312 8.0384-99.072-0.0512-18.8928-0.9728-37.4784-2.6112-55.9104zM811.8272 525.2096l-2.2016-2.2016a41.80992 41.80992 0 0 0-59.136 0l-239.7696 239.7696a41.80992 41.80992 0 0 0 0 59.136l40.1408 40.1408c123.0848-76.6464 216.8832-195.7376 260.9664-336.8448z" fill="#39A5E9" ></path><path d="M672.256 125.44c0-1.3312-0.0512-2.6624-0.0512-3.9424-18.944-18.7392-35.4304-34.8672-47.9232-46.7456-72.2432 72.2432-83.4048 182.4256-33.4848 266.3936l-34.6112-34.6112c-15.872-15.872-41.6768-15.872-57.5488 0L294.2464 510.9248c-15.872 15.872-15.872 41.6768 0 57.5488l19.6608 19.6608-53.1456 5.3248c-20.5824 2.048-29.5424 27.136-14.8992 41.728l53.504 53.504c219.1872-92.9792 372.8896-310.1696 372.8896-563.2512z" fill="#55B5F3" ></path><path d="M458.9568 172.3392L385.0752 98.4576a41.80992 41.80992 0 0 0-59.136 0L86.1696 338.2272a41.80992 41.80992 0 0 0 0 59.136l70.1952 70.1952c132.5568-59.3408 240.128-164.4544 302.592-295.2192z" fill="#6BC2FC" ></path></svg>