<svg viewBox="0 0 1024 1024" version="1.1" xmlns="http://www.w3.org/2000/svg"><path d="M262.7584 931.2768c-19.456 10.24-42.1888-6.3488-38.5024-28.0576 14.7456-87.1936 28.7744-170.7008 43.776-254.0544 2.7136-15.104-0.7168-23.9616-10.8544-34.4064-58.88-60.6208-117.248-121.7536-175.0016-182.1184-14.9504-15.616-6.0928-41.5232 15.3088-44.6464 75.6224-11.1616 205.056-30.208 248.832-37.7344 8.8064-1.536 18.8928-11.7248 23.296-20.48 29.3888-58.5216 82.6368-166.656 113.5104-229.2736 9.728-19.712 37.7856-19.7632 47.616-0.1024 31.1808 62.5152 84.6848 170.7008 113.3056 230.0416 6.3488 13.2096 13.824 19.456 28.9792 21.5552 83.5072 11.6224 166.8608 24.1152 251.4944 36.7104 21.5552 3.2256 30.3616 29.5424 14.9504 45.0048-50.7904 51.0976-135.9872 136.2432-172.1856 170.8032-16.4864 15.7184-28.9792 30.3616-19.456 54.6816 2.2016 5.6832 1.0752 12.6464 1.6896 22.0672-94.72-7.936-187.648-15.7696-286.5664-24.1152 9.6256-7.7824 14.6432-12.288 20.0704-16.2304 79.9744-57.6 160.1024-114.944 239.872-172.8 7.0144-5.0688 15.36-11.6736 17.3056-19.9168 3.6864-15.616-4.352-27.0336-22.5792-27.0848-1.6384 0-3.2768-0.0512-4.9152-0.0512H255.8464c-0.4096 6.4-0.256 3.84-0.6656 10.24l352.2048 46.8992c-12.5952 7.8848-19.5584 12.3904-26.5728 16.64-84.8384 51.712-169.6768 103.3728-254.4128 155.2384-6.2464 3.84-13.824 6.8608-16.2816 12.8-4.3008 10.4448-2.048 19.5072 2.56 28.928 6.7072 13.6192 19.7632 14.3872 28.7232 14.08 132.1984-4.9152 252.7232-9.3184 384.8704-14.8992 8.0896-0.3584 16.1792-0.0512 26.8288-0.0512 12.2368 70.0928 24.32 139.6736 36.9152 211.968 3.7888 21.7088-18.8928 38.4-38.4512 28.2112-61.9008-32.3072-167.8848-88.064-224.4608-118.784-15.0016-8.1408-26.0608-7.4752-40.5504 0.3584-56.2688 30.3616-161.9968 86.1184-223.7952 118.5792z" fill="#FF8E12" ></path><path d="M672.9216 352.0512c-15.1552-2.0992-22.6304-8.3456-28.9792-21.5552-28.6208-59.3408-82.1248-167.5264-113.3056-230.0416-9.8304-19.6608-37.888-19.6096-47.616 0.1024-30.8736 62.6176-84.1216 170.752-113.5104 229.2224-4.4032 8.7552-14.4896 18.944-23.296 20.48-43.776 7.5264-173.2096 26.5216-248.832 37.7344-21.3504 3.1744-30.208 29.0816-15.3088 44.6464 57.7536 60.3648 116.1728 121.4464 175.0016 182.1184 10.1376 10.4448 13.6192 19.3024 10.8544 34.4064-13.9776 77.4656-27.0848 155.2384-40.704 235.8272 33.2288 6.3488 67.4304 9.7792 102.5024 9.7792 0.8192 0 1.5872-0.0512 2.4064-0.0512 54.7328-28.8768 115.968-61.3376 154.2656-81.9712 14.4896-7.8336 25.5488-8.4992 40.5504-0.3584 13.1072 7.1168 28.9792 15.6672 46.2848 24.8832a545.7408 545.7408 0 0 0 179.9168-144.9984c-0.0512-0.4096-0.1536-0.8192-0.2048-1.2288-10.5984 0-18.7392-0.3072-26.8288 0.0512-132.1472 5.5296-252.672 9.984-384.8704 14.8992-8.96 0.3584-22.016-0.4096-28.7232-14.08-4.6592-9.4208-6.912-18.4832-2.56-28.928 2.4576-5.9392 10.0352-8.96 16.2816-12.8 84.736-51.8656 169.6256-103.4752 254.4128-155.2384 7.0656-4.3008 13.9776-8.7552 26.5728-16.64l-352.2048-46.8992c0.4096-6.4 0.256-3.84 0.6656-10.24h456.8576c1.6384 0 3.2768 0.0512 4.9152 0.0512 18.2272 0.0512 26.3168 11.52 22.5792 27.0848-1.9456 8.2432-10.3424 14.848-17.3056 19.9168-79.7696 57.856-159.8976 115.2512-239.872 172.8-5.4272 3.8912-10.4448 8.3968-20.0704 16.2304 98.9184 8.2944 191.8464 16.128 286.5664 24.1152-0.6144-9.3696 0.5632-16.384-1.6896-22.0672-9.5232-24.32 2.9696-38.9632 19.456-54.6816 17.3056-16.4864 45.7728-44.544 76.3392-74.9056 16.3328-46.9504 26.5216-96.768 29.3376-148.5312-66.9696-10.0352-133.4272-19.8656-199.8848-29.1328z" fill="#FCA315" ></path><path d="M643.9424 330.496c-28.6208-59.3408-82.1248-167.5264-113.3056-230.0416-9.8304-19.6608-37.888-19.6096-47.616 0.1024-30.8736 62.6176-84.1216 170.752-113.5104 229.2224-4.4032 8.7552-14.4896 18.944-23.296 20.48-43.776 7.5264-173.2096 26.5216-248.832 37.7344-21.3504 3.1744-30.208 29.0816-15.3088 44.6464 57.7536 60.3648 116.1728 121.4464 175.0016 182.1184 10.1376 10.4448 13.6192 19.3024 10.8544 34.4064-2.816 15.5136-5.5296 31.1296-8.2944 46.6944 17.0496-2.4576 33.8432-5.7856 50.3296-9.7792-2.7648-7.424-3.5328-14.848-0.1024-23.1424 2.4576-5.9392 10.0352-8.96 16.2816-12.8 84.736-51.8656 169.6256-103.4752 254.4128-155.2384 7.0656-4.3008 13.9776-8.7552 26.5728-16.64l-352.2048-46.8992c0.4096-6.4 0.256-3.84 0.6656-10.24h401.152c11.8784-21.4528 22.3232-43.776 31.2832-66.9184l-15.3088-2.1504c-14.9504-2.0992-22.4256-8.3456-28.7744-21.5552z" fill="#FCB138" ></path><path d="M255.0784 431.36c0.4096-6.4 0.256-3.84 0.6656-10.24h84.8896c98.1504-63.9488 174.3872-158.5664 214.9888-270.3872-9.1648-18.432-17.7152-35.6352-24.9856-50.2784-9.8304-19.6608-37.888-19.6096-47.616 0.1024-30.8736 62.6176-84.1216 170.752-113.5104 229.2224-4.4032 8.7552-14.4896 18.944-23.296 20.48-43.776 7.5264-173.2096 26.5216-248.832 37.7344-21.3504 3.1744-30.208 29.0816-15.3088 44.6464 21.1968 22.1696 42.5984 44.4928 63.9488 66.7648 59.0848-11.2128 114.7392-31.9488 165.4272-60.5696l-56.3712-7.4752z" fill="#FFC65E" ></path></svg>