<svg viewBox="0 0 1024 1024" version="1.1" xmlns="http://www.w3.org/2000/svg"><path d="M800.9216 173.312H223.232c-54.272 0-98.2528 45.3632-98.2528 101.2736v387.6864c0 55.9104 43.9808 101.2736 98.2528 101.2736h63.2832c15.0528 0 27.2384 12.544 27.2384 28.0576v41.5744c0 22.3744 24.2176 35.7376 42.2912 23.3984l129.0752-88.32c4.4544-3.072 9.728-4.6592 15.0528-4.6592h300.6976c54.272 0 98.2528-45.3632 98.2528-101.2736V274.5856c0.0512-55.9616-43.9296-101.2736-98.2016-101.2736z m-273.664 459.0592H497.664c-135.68 0-246.1184-113.7664-246.1184-253.5936 0-21.76 17.152-39.424 38.2976-39.424s38.2976 17.664 38.2976 39.424c0 96.3584 76.032 174.6944 169.5232 174.6944h29.5936c93.4912 0 169.5232-78.3872 169.5232-174.6944 0-21.76 17.152-39.424 38.2976-39.424 21.1456 0 38.2976 17.664 38.2976 39.424-0.0512 139.8272-110.4384 253.5936-246.1184 253.5936z" fill="#FF8E12" ></path><path d="M800.9216 173.312H223.232c-54.272 0-98.2528 45.3632-98.2528 101.2736v387.6864c0 55.9104 43.9808 101.2736 98.2528 101.2736h63.2832c15.0528 0 27.2384 12.544 27.2384 28.0576v41.5744c0 22.3744 24.2176 35.7376 42.2912 23.3984l129.0752-88.32c4.4544-3.072 9.728-4.6592 15.0528-4.6592h122.7264c152.2176-109.7216 251.8016-291.6864 251.8016-497.6128 0-20.736-1.024-41.216-2.9696-61.44-17.8688-19.2512-42.9568-31.232-70.8096-31.232z m-273.664 459.0592H497.664c-135.68 0-246.1184-113.7664-246.1184-253.5936 0-21.76 17.152-39.424 38.2976-39.424s38.2976 17.664 38.2976 39.424c0 96.3584 76.0832 174.6944 169.5232 174.6944h29.5936c93.4912 0 169.5232-78.3872 169.5232-174.6944 0-21.76 17.152-39.424 38.2976-39.424 21.1456 0 38.2976 17.664 38.2976 39.424-0.0512 139.8272-110.4384 253.5936-246.1184 253.5936z" fill="#FCA315" ></path><path d="M124.9792 274.5856v382.6688c89.9072-0.0512 175.0528-20.8384 251.2896-58.0096-74.3936-43.6736-124.7232-126.1056-124.7232-220.4672 0-21.76 17.152-39.424 38.2976-39.424s38.2976 17.664 38.2976 39.424c0 83.0976 56.6272 152.7808 132.1472 170.3936 121.9072-87.2448 210.3296-220.7232 241.3056-375.8592H223.232c-54.272 0-98.2528 45.312-98.2528 101.2736z" fill="#FCB138" ></path><path d="M124.9792 274.5856v148.48c44.6464-11.9296 87.2448-29.184 127.1296-50.9952 3.072-18.5856 18.7392-32.768 37.6832-32.768 4.3008 0 8.448 0.768 12.288 2.0992 64.768-44.3392 120.576-101.5808 163.8912-168.1408H223.232c-54.272 0.0512-98.2528 45.3632-98.2528 101.3248z" fill="#FFC65E" ></path></svg>