<svg viewBox="0 0 1024 1024" version="1.1" xmlns="http://www.w3.org/2000/svg"><path d="M849.7152 170.1888c-80.4864-2.2528-236.2368-14.7968-313.5488-76.4416-17.5616-14.0288-41.9328-15.5136-60.928-3.4816-49.664 31.5392-150.016 83.3536-280.0128 89.088-28.1088 1.2288-50.432 24.1152-50.432 52.2752 0.0512 197.5296 0.2048 192.3584 0.2048 244.3264 0 55.296-63.3344 279.9616 340.224 454.2976 13.0048 5.632 27.8016 5.7856 40.9088 0.3584 304.5888-125.3888 374.3232-257.6384 374.3232-410.7264V222.464c-0.0512-28.2624-22.4768-51.5072-50.7392-52.2752z m-150.272 287.0784l-180.48 179.6608a50.47296 50.47296 0 0 1-35.7376 14.7456c-12.9024 0-25.8048-4.9152-35.6352-14.6944l-104.6016-103.8336c-19.8656-19.712-19.968-51.7632-0.256-71.5776 19.712-19.8656 51.7632-19.968 71.5776-0.256l68.9152 68.352 144.7936-144.1792c19.8144-19.712 51.8656-19.6608 71.5776 0.1536 19.7632 19.8656 19.6608 51.9168-0.1536 71.6288z" fill="#FC7032" ></path><path d="M872.6528 253.5936c0-27.0848-1.9968-53.7088-5.5296-79.872-5.4272-2.0992-11.264-3.3792-17.408-3.584-80.4864-2.2528-236.2368-14.7968-313.5488-76.4416-17.5616-14.0288-41.9328-15.5136-60.928-3.4816-49.664 31.5392-150.016 83.3536-280.0128 89.088-28.1088 1.2288-50.432 24.1152-50.432 52.2752 0.0512 197.5296 0.2048 192.3584 0.2048 244.3264 0 46.1312-43.9808 210.0224 175.4112 364.288 308.0704-18.3296 552.2432-273.8688 552.2432-586.5984zM342.7328 461.6192c19.712-19.8656 51.7632-19.968 71.5776-0.256l68.9152 68.352 144.7936-144.1792c19.8144-19.712 51.8656-19.6608 71.5776 0.1536 19.712 19.8144 19.6608 51.8656-0.1536 71.5776l-180.48 179.6608a50.47296 50.47296 0 0 1-35.7376 14.7456c-12.9024 0-25.8048-4.9152-35.6352-14.6944l-104.6016-103.8336c-19.8144-19.6608-19.968-51.712-0.256-71.5264z" fill="#FF7E3E" ></path><path d="M475.2384 90.2656c-49.664 31.5392-150.016 83.3536-280.0128 89.088-28.1088 1.2288-49.5616 24.1152-50.432 52.2752-5.5808 184.8832-5.6832 191.0784-5.6832 243.0464 0 24.7296-6.656 84.48 15.3088 157.184 81.664-4.1472 158.9248-25.0368 228.4544-59.1872l-39.7824-39.4752c-19.8656-19.712-19.968-51.7632-0.256-71.5776 19.712-19.8656 51.7632-19.968 71.5776-0.256l57.6512 57.2416c116.992-86.0672 200.9088-214.4768 229.2736-362.5984-61.7984-10.9056-124.3136-29.7472-165.0688-62.208-17.7152-14.08-42.0864-15.5648-61.0304-3.5328z" fill="#FF9552" ></path><path d="M510.0544 82.7392c-11.8784-1.5872-24.2176 0.768-34.8672 7.5264-49.664 31.5392-150.016 83.3536-280.0128 89.088-28.1088 1.2288-50.432 24.1152-50.432 52.2752 0 90.0096-4.864 136.5504-4.8128 166.9632 162.4064-48.5376 300.0832-164.0448 370.1248-315.8528z" fill="#FFA56A" ></path></svg>