<svg viewBox="0 0 1024 1024" version="1.1" xmlns="http://www.w3.org/2000/svg"><path d="M849.5104 745.7792c-185.8048-93.7472-365.6704-0.3072-510.1568 74.8032-65.536 34.048-105.7792 34.4064-120.32 24.32-6.9632-4.8128-6.9632-11.6736-6.656-14.3872 1.5872-13.568 19.0464-32.5632 36.352-46.4896 26.9312 8.1408 57.1904 3.1232 80.4864-15.9744l272.9984-223.9488L444.0064 389.12l-233.8816 252.416c-18.2272 19.6608-25.6512 45.6704-22.3744 70.6048-27.1872 22.1696-63.2832 59.904-68.9152 107.2128-4.8128 40.3456 13.1072 79.8208 46.6432 103.0144 21.6576 14.9504 47.9232 22.5792 78.1312 22.5792h0.0512c40.2944 0 87.1936-13.7216 139.264-40.8064 131.9936-68.5568 281.5488-146.2784 424.2432-74.2912 23.1936 11.7248 51.6096 2.3552 63.3344-20.8384 11.5712-23.0912 2.2016-51.5072-20.992-63.232z" fill="#6C6CEA" ></path><path d="M913.2032 304.9984c0-128.6656-104.3456-233.0112-233.0112-233.0112-60.0064 0-114.688 22.6816-155.9552 59.904l327.7824 330.4448c37.9904-41.4208 61.184-96.6656 61.184-157.3376zM654.4384 536.4736c8.4992 0.9216 17.0496 1.536 25.8048 1.536 45.568 0 88.064-13.1584 123.9552-35.7376L483.8912 179.6096a231.60832 231.60832 0 0 0-36.6592 125.3888c0 7.4752 0.4096 14.8992 1.0752 22.2208l206.1312 209.2544zM339.3536 820.5824c-65.536 34.048-105.7792 34.4064-120.32 24.32-6.9632-4.8128-6.9632-11.6736-6.656-14.3872 1.5872-13.568 19.0464-32.5632 36.352-46.4896 26.9312 8.1408 57.1904 3.1232 80.4864-15.9744l272.9984-223.9488L444.0064 389.12l-233.8816 252.416c-18.2272 19.6608-25.6512 45.6704-22.3744 70.6048-27.1872 22.1696-63.2832 59.904-68.9152 107.2128-4.8128 40.3456 13.1072 79.8208 46.6432 103.0144 21.6576 14.9504 47.9232 22.5792 78.1312 22.5792h0.0512c40.2944 0 87.1936-13.7216 139.264-40.8064 111.5648-57.9584 235.776-122.4704 357.7344-97.4848 25.6-23.808 49.2032-49.8176 70.2464-77.7728-172.0832-63.7952-337.1008 21.8624-471.552 91.6992z" fill="#757BF2" ></path><path d="M738.5088 347.904c18.8928-57.8048 29.2352-119.4496 29.2352-183.552 0-26.2144-1.8944-52.0192-5.2224-77.312a232.3968 232.3968 0 0 0-82.3296-15.0016c-60.0064 0-114.688 22.6816-155.9552 59.904l214.272 215.9616zM713.6768 411.0848L483.8912 179.6096a231.60832 231.60832 0 0 0-36.6592 125.3888c0 7.4752 0.4096 14.8992 1.0752 22.2208l195.6864 198.656c27.3408-35.2768 50.7904-73.728 69.6832-114.7904zM146.8416 754.176c10.0352 0.512 20.1728 0.768 30.3104 0.768 77.7216 0 151.9104-15.1552 219.8528-42.4448l205.1584-168.2944-158.208-154.9824-233.8816 252.416c-18.2272 19.6608-25.6512 45.6704-22.3744 70.6048-13.056 10.5472-28.1088 24.7808-40.8576 41.9328z" fill="#8486F8" ></path><path d="M524.2368 131.9424l49.7664 50.176c13.0048-31.2832 23.3472-63.8976 30.8224-97.6384a232.57088 232.57088 0 0 0-80.5888 47.4624zM483.8912 179.6096a231.60832 231.60832 0 0 0-36.6592 125.3888c0 7.4752 0.4096 14.8992 1.0752 22.2208l20.8896 21.248c29.1328-32.6144 54.6816-68.5056 76.032-107.008L483.8912 179.6096z" fill="#8D92F8" ></path></svg>