<svg viewBox="0 0 1024 1024" version="1.1" xmlns="http://www.w3.org/2000/svg"><path d="M816.5888 293.12h-51.7632V200.2432c0-43.52-35.2768-78.848-78.848-78.848H216.1152c-43.52 0-78.848 35.2768-78.848 78.848v636.672c0 43.52 35.2768 78.848 78.848 78.848h444.7232v0.1024h155.8016c50.6368 0 91.8016-39.168 91.8016-87.296V380.416c0-48.128-41.216-87.296-91.8528-87.296zM258.56 312.4736c0-13.7216 11.1104-24.832 24.832-24.832h183.3472c13.7216 0 24.832 11.1104 24.832 24.832v75.4176c0 13.7216-11.1104 24.832-24.832 24.832H283.392c-13.7216 0-24.832-11.1104-24.832-24.832V312.4736z m348.416 441.4976H287.6928a36.1984 36.1984 0 1 1 0-72.3968h319.2832c20.0192 0 36.1984 16.2304 36.1984 36.1984s-16.1792 36.1984-36.1984 36.1984z m0-169.1136H287.6928a36.1984 36.1984 0 1 1 0-72.3968h319.2832c20.0192 0 36.1984 16.2304 36.1984 36.1984s-16.1792 36.1984-36.1984 36.1984z m229.0176 243.7632c0 10.1376-8.704 18.432-19.4048 18.432h-52.5312c0.4096-3.328 0.7168-6.656 0.7168-10.0864V361.984h51.7632c10.7008 0 19.4048 8.2944 19.4048 18.432v448.2048z" fill="#FC7032" ></path><path d="M892.7744 331.776c-16.4864-23.296-44.4928-38.656-76.1856-38.656h-51.8144V200.2432c0-43.52-35.2768-78.848-78.848-78.848H216.1152c-43.52 0-78.848 35.2768-78.848 78.848v636.672c0 43.52 35.2768 78.848 78.848 78.848h116.224c176.2816-22.528 330.3424-116.1216 432.4864-251.1872V361.984h51.8144c10.7008 0 19.4048 8.2944 19.4048 18.432v165.5296c30.5152-66.0992 50.176-138.2912 56.7296-214.1696zM258.56 312.4736c0-13.7216 11.1104-24.832 24.832-24.832h183.3472c13.7216 0 24.832 11.1104 24.832 24.832v75.4176c0 13.7216-11.1104 24.832-24.832 24.832H283.392c-13.7216 0-24.832-11.1104-24.832-24.832V312.4736z m348.416 441.4976H287.6928a36.1984 36.1984 0 1 1 0-72.3968h319.2832c20.0192 0 36.1984 16.2304 36.1984 36.1984s-16.1792 36.1984-36.1984 36.1984z m0-169.1136H287.6928a36.1984 36.1984 0 1 1 0-72.3968h319.2832a36.1984 36.1984 0 0 1 36.1984 36.1984c0 20.0192-16.1792 36.1984-36.1984 36.1984z" fill="#FF7E3E" ></path><path d="M428.9536 584.8576H287.6928a36.1984 36.1984 0 1 1 0-72.3968h231.936c104.4992-100.096 175.36-234.9056 194.0992-385.9456-8.6528-3.2256-17.9712-5.12-27.6992-5.12H216.1152c-43.52 0-78.848 35.2768-78.848 78.848v488.3456c107.1104-10.5472 206.4896-47.3088 291.6864-103.7312zM258.56 312.4736c0-13.7216 11.1104-24.832 24.832-24.832h183.3472c13.7216 0 24.832 11.1104 24.832 24.832v75.4176c0 13.7216-11.1104 24.832-24.832 24.832H283.392c-13.7216 0-24.832-11.1104-24.832-24.832V312.4736z" fill="#FF9552" ></path><path d="M258.56 361.728v-49.2544c0-13.7216 11.1104-24.832 24.832-24.832h69.9904a646.656 646.656 0 0 0 127.1296-166.1952H216.1152c-43.52 0-78.848 35.2768-78.848 78.848v222.208A647.3728 647.3728 0 0 0 258.56 361.728z" fill="#FFA56A" ></path></svg>