<svg viewBox="0 0 1024 1024" version="1.1" xmlns="http://www.w3.org/2000/svg"><path d="M757.4528 114.6368H259.9936c-71.2704 0-129.2288 57.9584-129.2288 129.2288v530.688c0 71.2704 57.9584 129.2288 129.2288 129.2288l311.4496 0.1536-71.4752-123.8016a30.57152 30.57152 0 0 1 0-30.6176l98.816-171.1616a30.6176 30.6176 0 0 1 26.5216-15.3088h197.6832a30.6176 30.6176 0 0 1 26.5216 15.3088l37.2224 64.512V243.8656c-0.0512-71.2704-58.0096-129.2288-129.28-129.2288zM404.9408 724.0704H307.968c-25.7536 0-46.6432-20.8896-46.6432-46.6432 0-25.7536 20.8896-46.6432 46.6432-46.6432h96.9728c25.7536 0 46.6432 20.8896 46.6432 46.6432 0 25.7536-20.8896 46.6432-46.6432 46.6432z m92.16-186.9312H307.968c-25.7536 0-46.6432-20.8896-46.6432-46.6432 0-25.7536 20.8896-46.6432 46.6432-46.6432h189.1328c25.7536 0 46.6432 20.8896 46.6432 46.6432 0 25.7536-20.8896 46.6432-46.6432 46.6432z m216.9856-186.88H307.968c-25.7536 0-46.6432-20.8896-46.6432-46.6432s20.8896-46.6432 46.6432-46.6432h406.1184c25.7536 0 46.6432 20.8896 46.6432 46.6432s-20.8896 46.6432-46.6432 46.6432z" fill="#6C6CEA" ></path><path d="M817.4592 636.8256a33.60768 33.60768 0 0 0-29.1328-16.7936h-128.4096c-12.032 0-23.0912 6.4-29.1328 16.7936l-64.2048 111.2064a33.63328 33.63328 0 0 0 0 33.5872l64.2048 111.2064a33.60768 33.60768 0 0 0 29.1328 16.7936h128.4096c12.032 0 23.0912-6.4 29.1328-16.7936l64.2048-111.2064a33.63328 33.63328 0 0 0 0-33.5872l-64.2048-111.2064z m-93.3376 188.2112c-33.28 0-60.2112-26.9824-60.2112-60.2112 0-33.28 26.9824-60.2112 60.2112-60.2112 33.28 0 60.2112 26.9824 60.2112 60.2112 0 33.28-26.9312 60.2112-60.2112 60.2112z" fill="#6C6CEA" ></path><path d="M259.9936 114.6368c-71.2704 0-129.2288 57.9584-129.2288 129.2288v530.688c0 71.2704 57.9584 129.2288 129.2288 129.2288l146.5344 0.1024c45.7728-15.4624 89.1904-36.096 129.5872-61.0816l-36.1472-62.6176a30.57152 30.57152 0 0 1 0-30.6176l98.816-171.1616a30.6176 30.6176 0 0 1 26.5216-15.3088h155.7504c35.2256-78.7456 54.8864-165.9904 54.8864-257.8432 0-62.3104-9.0624-122.4704-25.856-179.3024a127.98976 127.98976 0 0 0-52.5824-11.3152H259.9936z m144.9472 609.4336H307.968c-25.7536 0-46.6432-20.8896-46.6432-46.6432 0-25.7536 20.8896-46.6432 46.6432-46.6432h96.9728c25.7536 0 46.6432 20.8896 46.6432 46.6432 0 25.7536-20.8896 46.6432-46.6432 46.6432z m92.16-186.9312H307.968c-25.7536 0-46.6432-20.8896-46.6432-46.6432 0-25.7536 20.8896-46.6432 46.6432-46.6432h189.1328c25.7536 0 46.6432 20.8896 46.6432 46.6432 0 25.7536-20.8896 46.6432-46.6432 46.6432z m216.9856-186.88H307.968c-25.7536 0-46.6432-20.8896-46.6432-46.6432s20.8896-46.6432 46.6432-46.6432h406.1184c25.7536 0 46.6432 20.8896 46.6432 46.6432s-20.8896 46.6432-46.6432 46.6432z" fill="#757BF2" ></path><path d="M630.8352 636.8256l-64.2048 111.2064a33.63328 33.63328 0 0 0 0 33.5872l16.6912 28.928a633.82016 633.82016 0 0 0 168.6528-190.5152h-92.0576a33.5872 33.5872 0 0 0-29.0816 16.7936z" fill="#757BF2" ></path><path d="M307.968 350.2592c-25.7536 0-46.6432-20.8896-46.6432-46.6432s20.8896-46.6432 46.6432-46.6432h330.1888c13.2096-45.568 21.4016-93.184 24.0128-142.336H259.9936c-71.2704 0-129.2288 57.9584-129.2288 129.2288v460.9536c45.568-7.2192 89.5488-19.2512 131.3792-35.6864 3.9424-21.8112 22.9376-38.3488 45.8752-38.3488h34.4576c45.824-25.9584 88.064-57.4464 125.7984-93.6448h-160.256c-25.7536 0-46.6432-20.8896-46.6432-46.6432 0-25.7536 20.8896-46.6432 46.6432-46.6432H497.152c15.36 0 28.928 7.4752 37.4272 18.8928a631.3472 631.3472 0 0 0 68.352-112.5376H307.968z" fill="#8486F8" ></path><path d="M279.3984 340.4288c-10.9568-8.5504-18.0736-21.8112-18.0736-36.8128 0-25.7536 20.8896-46.6432 46.6432-46.6432h53.6576c35.2256-43.0592 64.8704-90.88 87.8592-142.336H259.9936c-71.2704 0-129.2288 57.9584-129.2288 129.2288v190.1056c54.016-24.2688 103.936-55.8592 148.6336-93.5424z" fill="#8D92F8" ></path></svg>