<?xml version="1.0" standalone="no"?><!DOCTYPE svg PUBLIC "-//W3C//DTD SVG 1.1//EN" "http://www.w3.org/Graphics/SVG/1.1/DTD/svg11.dtd"><svg class="icon" width="66px" height="66.00px" viewBox="0 0 1024 1024" version="1.1" xmlns="http://www.w3.org/2000/svg"><path d="M813.026 210.68a64.114 64.114 0 0 0 18.304 2.654c35.35 0 64-28.652 64-64s-28.65-64-64-64-64 28.652-64 64c0 6.37 0.94 12.522 2.666 18.33-107.88 76.614-253.12 183.542-344 265.76l121.26 121.262c82.22-90.878 189.162-236.118 265.77-344.006z" fill="#FCBF28" /><path d="M108.706 901.16c73.856-190.794 173.334-367.826 173.334-367.826s253.034 196.416 371.82 364.9c16.894 23.98 0.554 54.414-29.164 56.13C577.294 957.1 500.6 960 388.366 960c-119.552 0-198.764-3.29-245.228-6.17-27.05-1.674-44.032-27.872-34.432-52.672z" fill="#A871FF" /><path d="M317.816 662.86c160.576 160.588 416.192 168.248 585.834 22.98 15.104-12.924 17.3-34.68 5.312-50.52-31.254-41.296-106.39-132.31-268.864-294.764C477.646 178.1 386.64 102.96 345.336 71.7c-15.83-11.994-37.59-9.788-50.518 5.304-145.258 169.654-137.6 425.264 22.998 585.854z" fill="#CFAEFF" /></svg>