<svg viewBox="0 0 1024 1024" version="1.1" xmlns="http://www.w3.org/2000/svg"><path d="M296.8576 272.3328s249.1392 50.2272 437.9136 0c-92.0576-123.648-146.8928-184.064-220.3648-184.064-107.8272-0.0512-217.5488 184.064-217.5488 184.064z" fill="#FCA315" ></path><path d="M900.9664 853.4016c-11.1104-13.9264-29.8496-36.352-59.4944-69.2224a16.77312 16.77312 0 0 1-2.0992-19.5584c43.1616-76.4928 28.5696-196.3008-3.1232-256.6144-4.6592-8.8576-0.6656-19.7632 8.6528-23.3984 17.664-6.912 31.1808-14.08 39.2192-18.7392a16.88064 16.88064 0 0 0 8.3968-14.5408V329.5232c0-10.5984-9.6768-18.5856-20.0704-16.4352-356.5568 73.6256-636.3136 6.2464-711.68-15.4624a16.7424 16.7424 0 0 0-21.3504 15.1552L131.584 445.5424c-0.4096 7.3728 3.9936 14.1824 10.9568 16.7424 8.9088 3.2768 22.784 8.3456 41.0624 14.848a16.8448 16.8448 0 0 1 10.0352 21.9136c-51.3024 134.4512-8.0384 234.8544 9.3696 266.8544 3.584 6.6048 2.304 14.7968-3.1232 20.0704l-71.2192 68.608c-9.1136 8.8064-5.632 24.1664 6.4512 28.0576 54.1696 17.5104 189.8496 54.0672 379.2896 54.0672 194.2528 0 328.96-39.5264 378.9312-56.9856 10.9568-3.84 14.848-17.3056 7.6288-26.3168z m-204.4928-323.9936c-50.8416 9.1136-108.4928 12.1344-162.6624 12.1344-103.9872 0-195.1232-11.1616-200.8576-11.8784a33.92512 33.92512 0 0 1-29.4912-37.9392 33.92512 33.92512 0 0 1 37.9392-29.4912c2.048 0.256 204.9536 25.088 343.0912 0.256a33.99168 33.99168 0 0 1 39.4752 27.4432c3.2256 18.4832-9.0624 36.1984-27.4944 39.4752z" fill="#FF8E12" ></path><path d="M845.056 527.8208c-2.7648-7.0656-5.6832-13.824-8.8576-19.8144a16.73728 16.73728 0 0 1 8.6528-23.3984c5.7344-2.2528 11.008-4.5056 15.8208-6.7072 12.8512-48.3328 19.8144-99.0208 19.8144-151.3984 0-4.4032-0.256-8.7552-0.3072-13.1584-2.4064-0.6656-5.0688-0.8192-7.7312-0.256-356.5568 73.6256-636.3136 6.2464-711.68-15.4624a16.7424 16.7424 0 0 0-21.3504 15.1552L131.584 445.5936a16.7424 16.7424 0 0 0 10.9568 16.7424c8.9088 3.2768 22.784 8.3456 41.0624 14.848a16.8448 16.8448 0 0 1 10.0352 21.9136c-51.3024 134.4512-8.0384 234.8544 9.3696 266.8544 3.584 6.6048 2.304 14.7968-3.1232 20.0704l-71.2192 68.608c-9.1136 8.8064-5.632 24.1664 6.4512 28.0576 24.2688 7.8336 64.8704 19.5072 119.296 29.952 12.7488 0.8192 25.5488 1.3824 38.5536 1.3824 253.7472-0.0512 469.9136-160.9216 552.0896-386.2016z m-311.2448 13.7728c-103.9872 0-195.1232-11.1616-200.8576-11.8784-18.6368-2.304-31.8464-19.3024-29.4912-37.9392s19.3024-31.8464 37.9392-29.4912c2.048 0.256 204.9536 25.088 343.0912 0.256a33.99168 33.99168 0 0 1 39.4752 27.4432 33.99168 33.99168 0 0 1-27.4432 39.4752c-50.8928 9.1136-108.544 12.1344-162.7136 12.1344z" fill="#FCA315" ></path><path d="M707.7376 236.5952c-76.3392-99.4304-127.3856-148.3264-193.3312-148.3264-107.8272 0-217.5488 184.064-217.5488 184.064s217.2928 43.776 399.7696 8.6528c4.1984-14.592 8.0384-29.3888 11.1104-44.3904zM533.8112 541.5936c-103.9872 0-195.1232-11.1616-200.8576-11.8784-18.6368-2.304-31.8464-19.3024-29.4912-37.9392s19.3024-31.8464 37.9392-29.4912c1.6384 0.2048 135.5264 16.5888 259.7888 9.5232 30.1056-39.8336 55.2448-83.6608 74.5472-130.56-260.0448 21.1456-454.0928-26.112-514.9184-43.6224a16.7424 16.7424 0 0 0-21.3504 15.1552l-7.8336 132.8128a16.7424 16.7424 0 0 0 10.9568 16.7424c8.9088 3.2768 22.784 8.3456 41.0624 14.848a16.8448 16.8448 0 0 1 10.0352 21.9136c-32.1536 84.3264-27.136 155.1872-14.6432 204.288 139.3152-10.9568 264.96-70.5024 359.9872-161.7408-1.792-0.1024-3.5328-0.0512-5.2224-0.0512z" fill="#FCB138" ></path><path d="M543.1808 91.648a124.9792 124.9792 0 0 0-28.7744-3.3792c-107.8272 0-217.5488 184.064-217.5488 184.064s56.1664 11.3152 135.3216 17.8176c48.9984-57.6512 87.0912-124.8768 111.0016-198.5024zM160.768 297.6256a16.7424 16.7424 0 0 0-21.3504 15.1552L131.584 445.5936a16.7424 16.7424 0 0 0 10.9568 16.7424c5.1712 1.8944 12.032 4.4032 20.3776 7.424 84.1216-26.7776 160-72.0384 222.9248-130.9696C275.1488 327.68 195.84 307.712 160.768 297.6256z" fill="#FFC65E" ></path></svg>