<svg viewBox="0 0 1024 1024" version="1.1" xmlns="http://www.w3.org/2000/svg"><path d="M514.6112 90.7776c230.6048 1.536 417.024 189.0816 415.8976 418.4576-1.1264 230.3488-189.1328 417.4336-418.2528 416.1024-231.424-1.28-417.9456-190.1056-415.744-420.7616 2.2016-229.12 190.3616-415.3344 418.0992-413.7984zM253.696 632.064c3.6352 49.9712 27.648 92.7232 78.3872 116.3264 49.6128 23.0912 99.6352 18.8416 140.8-17.0496 43.3152-37.7856 83.6096-79.4624 121.7536-122.5216 31.5392-35.584 35.1232-79.4624 20.8384-124.3136-9.3184-29.2352-26.9312-40.448-49.9712-33.0752-21.8112 7.0144-29.184 24.832-21.0944 53.76 6.8608 24.3712 5.12 47.0016-13.056 65.6896-32.768 33.7408-65.4848 67.6352-99.7888 99.7376-26.368 24.6784-62.976 23.2448-86.016-0.4608-23.7056-24.3712-23.808-61.7984 0.3584-88.3712 11.7248-12.9024 24.8832-24.5248 36.7616-37.2736 15.1552-16.2304 15.104-38.912 0.6656-52.992-13.7216-13.3632-35.7376-13.7728-51.4048 0.7168-16.128 14.9504-31.744 30.5664-46.2336 47.0528-21.8112 24.9344-31.6928 54.784-32 92.7744z m156.2112-149.0432c0.512 5.12 1.024 15.0016 2.7136 24.6784 1.1264 6.656 3.5328 13.1584 6.0416 19.456 9.6256 24.3712 28.928 35.072 49.408 27.6992 18.8416-6.7584 27.4944-27.2896 19.9168-50.944-9.2672-29.0816-2.9184-53.504 18.4832-74.8544 30.1056-29.952 59.7504-60.4672 90.0608-90.2656 26.0608-25.6512 63.6928-27.0848 87.9616-4.096 25.1904 23.8592 25.856 62.0032 0.9216 89.9072-11.1104 12.4416-23.7056 23.5008-35.072 35.7376-16.1792 17.3568-16.5888 37.888-1.792 52.736 15.4112 15.4112 35.9424 16.4352 52.6336 0.512 17.5104-16.7424 34.8672-33.9456 49.7664-52.9408 41.472-52.8896 34.6624-131.4304-14.1312-178.1248-49.5104-47.4112-127.1808-51.712-178.1248-6.8608-39.2192 34.56-76.0832 71.936-112.5376 109.4656-24.6272 25.4464-35.9936 57.4976-36.2496 97.8944z" fill="#05C46D" ></path><path d="M861.44 290.6112c0-4.1472-0.0512-8.2944-0.1536-12.4416-74.4448-112.0256-201.8304-186.4192-346.7264-187.392-227.7376-1.536-415.8976 184.6784-418.0992 413.7984-1.3824 145.2032 72.0384 273.7664 184.3712 349.44 5.632 0.1536 11.264 0.256 16.896 0.256 311.3472 0.0512 563.712-252.3136 563.712-563.6608z m-266.8032 318.2592c-38.1952 43.008-78.4384 84.736-121.7536 122.5216-41.1648 35.8912-91.1872 40.1408-140.8 17.0496-50.7392-23.6032-74.752-66.4064-78.3872-116.3264 0.256-38.0416 10.1888-67.84 32.0512-92.7232 14.4896-16.4864 30.1056-32.1024 46.2336-47.0528 15.6672-14.4896 37.6832-14.1312 51.4048-0.7168 14.4384 14.1312 14.4896 36.7616-0.6656 53.0432-11.8784 12.7488-25.0368 24.3712-36.7616 37.2736-24.1664 26.5728-24.064 64-0.3584 88.3712 23.04 23.7056 59.6992 25.1904 86.016 0.4608 34.304-32.1536 66.9696-66.048 99.7888-99.7376 18.176-18.688 19.9168-41.3184 13.056-65.6896-8.1408-28.928-0.7168-46.7456 21.0944-53.76 23.04-7.3728 40.6528 3.84 49.9712 33.0752 14.2336 44.7488 10.6496 88.6272-20.8896 124.2112z m53.9136-95.744c-14.848-14.848-14.3872-35.3792 1.792-52.736 11.3664-12.2368 23.9616-23.296 35.072-35.7376 24.9344-27.904 24.2688-66.048-0.9216-89.9072-24.2176-22.9376-61.9008-21.504-87.9616 4.096-30.3104 29.7984-59.904 60.3136-90.0608 90.2656-21.4016 21.2992-27.7504 45.7728-18.4832 74.8544 7.5264 23.6544-1.0752 44.1344-19.9168 50.944-20.48 7.3728-39.7824-3.3792-49.408-27.6992-2.5088-6.2976-4.9152-12.8512-6.0416-19.456-1.6896-9.6768-2.2016-19.5584-2.7136-24.6784 0.256-40.3968 11.6224-72.3968 36.352-97.8432 36.4544-37.5296 73.3184-74.9056 112.5376-109.4656 50.944-44.9024 128.6144-40.6016 178.1248 6.8608 48.7936 46.6944 55.6032 125.2352 14.1312 178.1248-14.8992 18.9952-32.3072 36.1984-49.7664 52.9408-16.7936 15.872-37.3248 14.848-52.736-0.5632z" fill="#1DCE75" ></path><path d="M541.44 489.728c-1.7408-19.8656 6.4512-32.6144 24.064-38.2464a43.6736 43.6736 0 0 1 12.8-2.2016c32.2048-38.9632 59.2384-82.2784 80.0768-128.9728-20.6848-5.2224-43.9808 0.9728-61.7984 18.5344-30.3104 29.7984-59.904 60.3136-90.0608 90.2656-21.4016 21.2992-27.7504 45.7728-18.4832 74.8544 3.9936 12.4928 3.4304 24.064-0.7168 33.2288 19.0464-14.6944 37.12-30.5152 54.1184-47.4624z" fill="#3CD38E" ></path><path d="M96.512 504.576a413.98784 413.98784 0 0 0 26.1632 149.0944 565.72416 565.72416 0 0 0 132.2496-10.5984c-0.512-3.6352-0.9216-7.3216-1.1776-11.0592 0.256-38.0416 10.1888-67.84 32.0512-92.7232 14.4896-16.4864 30.1056-32.1024 46.2336-47.0528 15.6672-14.4896 37.6832-14.1312 51.4048-0.7168 14.4384 14.1312 14.4896 36.7616-0.6656 53.0432-11.8784 12.7488-25.0368 24.3712-36.7616 37.2736-11.1616 12.288-17.1008 26.88-17.9712 41.3696 47.2576-16.3328 91.648-38.7584 132.1984-66.4064-17.4592 2.4064-33.1776-8.448-41.5232-29.6448-2.5088-6.2976-4.9152-12.8512-6.0416-19.456-1.6896-9.6768-2.2016-19.5584-2.7136-24.6784 0.256-40.3968 11.6224-72.3968 36.352-97.8432 36.4544-37.5296 73.3184-74.9056 112.5376-109.4656 35.072-30.9248 82.7904-38.5024 125.2864-24.7296 10.752-36.2496 17.9712-73.984 21.1968-112.896a417.99168 417.99168 0 0 0-190.6176-47.2576c-227.84-1.5872-416 184.6272-418.2016 413.7472z" fill="#3CD38E" ></path><path d="M101.2736 445.9008c196.7616-35.0208 358.144-172.1856 427.52-354.6624-4.7104-0.2048-9.4208-0.4096-14.1824-0.4608-207.9232-1.3824-382.7712 153.7536-413.3376 355.1232z" fill="#48E1AA" ></path></svg>