<svg viewBox="0 0 1024 1024" version="1.1" xmlns="http://www.w3.org/2000/svg"><path d="M238.1312 150.4256v521.3696s199.5776-22.6304 238.9504 43.8272c0-112.8448 2.0992-512.512 2.0992-512.512s-43.3664-65.792-241.0496-52.6848zM783.8208 150.4256v521.3696s-199.5776-22.6304-238.9504 43.8272c0-112.8448-2.0992-512.512-2.0992-512.512s43.3664-65.792 241.0496-52.6848z" fill="#3A9CED" ></path><path d="M510.6176 892.2624c-9.1648 0-18.2784-3.0208-25.8048-8.96L405.6064 820.736h-247.296a41.5744 41.5744 0 0 1-41.5744-41.5744V235.9296l83.2-35.6352v537.2928h220.2112c9.3696 0 18.432 3.1744 25.7536 8.96l67.0208 52.9408 77.9264-51.1488a41.45664 41.45664 0 0 1 22.8352-6.8096h207.7184V205.5168l83.2 35.6352v541.952a41.5744 41.5744 0 0 1-41.5744 41.5744h-236.9024l-92.6208 60.7744a41.9072 41.9072 0 0 1-22.8864 6.8096z" fill="#2595E8" ></path><path d="M821.3504 482.2016c24.2688-66.7136 37.5296-138.7008 37.5296-213.8112 0-15.9744-0.6144-31.8464-1.792-47.5136l-35.7376-15.3088v276.6336zM613.632 741.5296c-8.0896 0-16.0256 2.3552-22.8352 6.8096l-77.9264 51.1488-67.0208-52.9408a41.64096 41.64096 0 0 0-25.7536-8.96H199.8848V200.2944l-83.2 35.6352v543.232a41.5744 41.5744 0 0 0 41.5744 41.5744h247.3472l43.7248 34.56c71.3216-26.2144 136.5504-65.024 192.9216-113.7664h-28.6208z" fill="#3A9CED" ></path><path d="M199.8848 656.384V200.2944l-83.2 35.6352v433.2032c28.3136-2.4064 56.1152-6.7072 83.2-12.7488zM238.1312 150.4256v496.0768c89.856-26.2144 171.3664-72.0896 239.5648-132.608 0.6144-147.3536 1.4848-310.784 1.4848-310.784s-43.3664-65.792-241.0496-52.6848zM542.8224 203.1104s0.6144 116.9408 1.1776 242.2272c68.6592-82.7392 116.3776-183.4496 135.0656-294.0928-109.056 10.752-136.2432 51.8656-136.2432 51.8656z" fill="#59ADF8" ></path><path d="M199.8848 376.7296V200.2944l-83.2 35.6352v177.7152c28.7744-10.2912 56.576-22.6816 83.2-36.9152zM427.1616 169.6256c-36.1472-13.8752-95.1808-25.4464-189.0304-19.2v204.0832a628.9408 628.9408 0 0 0 189.0304-184.8832z" fill="#6BC2FC" ></path></svg>