<?xml version="1.0" standalone="no"?><!DOCTYPE svg PUBLIC "-//W3C//DTD SVG 1.1//EN" "http://www.w3.org/Graphics/SVG/1.1/DTD/svg11.dtd"><svg class="icon" width="66px" height="66.00px" viewBox="0 0 1024 1024" version="1.1" xmlns="http://www.w3.org/2000/svg"><path d="M512 512m-448 0a448 448 0 1 0 896 0 448 448 0 1 0-896 0Z" fill="#FCBF28" /><path d="M668.8 512c0 86.6-70.2 156.8-156.8 156.8-86.6 0-156.8-70.2-156.8-156.8 0-86.6 70.2-156.8 156.8-156.8 86.6 0 156.8 70.2 156.8 156.8zM467.29 219.472c0.358-24.728 17.226-43.322 41.954-43.466a551.292 551.292 0 0 1 5.512 0c24.728 0.144 41.596 18.74 41.954 43.466 0.068 3.868 0.09 8.04 0.09 12.528 0 4.486-0.022 8.66-0.09 12.528-0.358 24.728-17.226 43.322-41.954 43.466a551.292 551.292 0 0 1-5.512 0c-24.728-0.144-41.596-18.74-41.954-43.466-0.068-3.868-0.09-8.04-0.09-12.528 0-4.486 0.022-8.66 0.09-12.528zM467.29 804.528c0.358 24.728 17.226 43.322 41.954 43.466a551.292 551.292 0 0 0 5.512 0c24.728-0.144 41.596-18.74 41.954-43.466 0.068-3.868 0.09-8.04 0.09-12.528 0-4.486-0.022-8.66-0.09-12.528-0.358-24.728-17.226-43.322-41.954-43.466a551.292 551.292 0 0 0-5.512 0c-24.728 0.144-41.596 18.74-41.954 43.466-0.068 3.868-0.09 8.04-0.09 12.528 0 4.486 0.022 8.66 0.09 12.528zM219.48 556.712c-24.732-0.352-43.324-17.222-43.48-41.952V512v-2.76c0.156-24.73 18.748-41.6 43.48-41.952 3.852-0.056 8.04-0.088 12.52-0.088s8.668 0.032 12.52 0.088c24.732 0.352 43.324 17.222 43.48 41.952v5.52c-0.156 24.73-18.748 41.6-43.48 41.952-3.852 0.056-8.04 0.088-12.52 0.088s-8.668-0.032-12.52-0.088zM804.52 556.712c24.732-0.352 43.324-17.222 43.48-41.952V512v-2.76c-0.156-24.73-18.748-41.6-43.48-41.952-3.852-0.056-8.04-0.088-12.52-0.088s-8.668 0.032-12.52 0.088c-24.732 0.352-43.324 17.222-43.48 41.952v5.52c0.156 24.73 18.748 41.6 43.48 41.952 3.852 0.056 8.04 0.088 12.52 0.088s8.668-0.032 12.52-0.088zM273.53 336.768c-17.226-17.732-18.458-42.812-1.076-60.398 0.65-0.64 1.3-1.294 1.95-1.958 0.672-0.666 1.32-1.312 1.97-1.946 17.584-17.386 42.65-16.166 60.39 1.068a724.472 724.472 0 0 1 8.916 8.8 723.692 723.692 0 0 1 8.804 8.92c17.224 17.732 18.456 42.812 1.074 60.396-0.626 0.642-1.276 1.294-1.948 1.958-0.672 0.664-1.322 1.312-1.95 1.946-17.606 17.386-42.672 16.166-60.412-1.068a925.12 925.12 0 0 1-17.72-17.72zM687.236 750.466c17.74 17.234 42.806 18.454 60.39 1.068 0.65-0.634 1.3-1.28 1.97-1.946 0.65-0.664 1.3-1.318 1.928-1.958 17.404-17.586 16.172-42.666-1.054-60.398a954.29 954.29 0 0 0-17.718-17.718c-17.74-17.234-42.828-18.454-60.412-1.068-0.628 0.634-1.278 1.28-1.95 1.946-0.672 0.664-1.32 1.316-1.948 1.96-17.382 17.582-16.174 42.66 1.074 60.396a723.692 723.692 0 0 0 8.804 8.92c3.16 3.174 6.138 6.1 8.916 8.798zM336.764 750.466c-17.74 17.234-42.806 18.454-60.39 1.068-0.65-0.634-1.3-1.28-1.97-1.946-0.65-0.664-1.3-1.318-1.95-1.958-17.382-17.586-16.15-42.666 1.076-60.398a954.29 954.29 0 0 1 17.718-17.718c17.74-17.234 42.806-18.454 60.412-1.068 0.628 0.634 1.278 1.28 1.95 1.946 0.672 0.664 1.32 1.316 1.948 1.96 17.382 17.582 16.15 42.66-1.074 60.396a723.692 723.692 0 0 1-8.804 8.92 724.472 724.472 0 0 1-8.916 8.798zM750.47 336.768c17.226-17.732 18.458-42.812 1.054-60.398-0.628-0.64-1.278-1.294-1.928-1.958-0.672-0.666-1.32-1.312-1.97-1.946-17.584-17.386-42.65-16.166-60.39 1.068a724.472 724.472 0 0 0-8.916 8.8 723.692 723.692 0 0 0-8.804 8.92c-17.248 17.732-18.456 42.812-1.074 60.396 0.626 0.642 1.276 1.294 1.948 1.958 0.672 0.664 1.322 1.312 1.95 1.946 17.584 17.386 42.672 16.166 60.412-1.068a925.12 925.12 0 0 0 17.72-17.72z" fill="#FFFFFF" /></svg>