<svg viewBox="0 0 1024 1024" version="1.1" xmlns="http://www.w3.org/2000/svg"><path d="M645.9904 189.4912H458.1888c-2.3552 0-4.6592 0.0512-6.9632 0.1024-94.6176-53.0432-168.9088-60.0576-215.2448-20.224l-2.3552 2.304c-23.9104 26.5728-16.4864 70.7072 3.1232 108.5952A316.78464 316.78464 0 0 0 166.1952 385.024h-31.488c-32.1024 0-58.2144 26.112-58.2144 58.2144v99.9424c0 32.1024 26.112 58.2144 58.2144 58.2144h22.6304c25.2416 78.7456 81.7152 145.7152 155.2896 184.1152v35.0208c0 26.368 21.4528 47.7696 47.7696 47.7696h80.1792c26.1632 0 47.4624-21.1456 47.7696-47.2064h157.6448c2.7136 0 5.4784-0.0512 8.2432-0.1024 0.256 26.1632 21.5552 47.36 47.7696 47.36h80.1792c26.368 0 47.7696-21.4528 47.7696-47.7696V761.856c82.7904-59.392 131.7888-154.2656 131.7888-256.6144 0.0512-174.1312-141.6192-315.7504-315.7504-315.7504zM357.12 462.9504c-23.9616 0-43.3664-19.4048-43.3664-43.3664 0-23.9616 19.4048-43.3664 43.3664-43.3664 23.9616 0 43.3664 19.4048 43.3664 43.3664 0 23.9616-19.4048 43.3664-43.3664 43.3664z m287.232-105.2672H501.9136c-18.9952 0-34.4064-15.4112-34.4064-34.4064s15.4112-34.4064 34.4064-34.4064h142.4384c18.9952 0 34.4064 15.4112 34.4064 34.4064s-15.4112 34.4064-34.4064 34.4064z" fill="#FF8E12" ></path><path d="M863.3344 329.984c0-19.0976-1.0752-37.888-3.072-56.4736-56.32-52.1216-131.584-84.0704-214.2208-84.0704H458.1888c-2.3552 0-4.6592 0.0512-6.9632 0.1024-94.6176-52.992-168.9088-60.0064-215.2448-20.1728l-2.3552 2.304c-23.9104 26.5728-16.4864 70.7072 3.1232 108.5952A316.78464 316.78464 0 0 0 166.1952 385.024h-31.488c-32.1024 0-58.2144 26.112-58.2144 58.2144v99.9424c0 32.1024 26.112 58.2144 58.2144 58.2144h22.6816c25.2416 78.7456 81.7152 145.7152 155.2896 184.1152v35.0208c0 11.6224 4.1472 22.2208 11.0592 30.5152 6.0416 0.2048 12.032 0.4608 18.1248 0.4608 50.4832 0 99.2256-7.3216 145.408-20.6848 0.7168-3.1232 1.0752-6.4 1.1264-9.728h29.184c201.5232-72.192 345.7536-264.7552 345.7536-491.1104zM357.12 462.9504c-23.9616 0-43.3664-19.4048-43.3664-43.3664 0-23.9616 19.4048-43.3664 43.3664-43.3664 23.9616 0 43.3664 19.4048 43.3664 43.3664 0 23.9616-19.4048 43.3664-43.3664 43.3664z m287.232-105.2672H501.9136c-18.9952 0-34.4064-15.4112-34.4064-34.4064s15.4112-34.4064 34.4064-34.4064h142.4384c18.9952 0 34.4064 15.4112 34.4064 34.4064s-15.4112 34.4064-34.4064 34.4064z" fill="#FCA315" ></path><path d="M717.9776 197.8368A314.76736 314.76736 0 0 0 645.9904 189.44H458.1888c-2.3552 0-4.6592 0.0512-6.9632 0.1024-94.6176-52.992-168.9088-60.0064-215.2448-20.1728l-2.3552 2.304c-23.9104 26.5728-16.4864 70.7072 3.1232 108.5952A316.78464 316.78464 0 0 0 166.1952 385.024h-31.488c-32.1024 0-58.2144 26.112-58.2144 58.2144v99.9424c0 32.1024 26.112 58.2144 58.2144 58.2144h22.6816c7.2704 22.6304 17.2032 44.288 29.2864 64.6144 4.1984 0.1024 8.3456 0.3072 12.544 0.3072 270.0288-0.0512 492.1856-205.3632 518.7584-468.48zM357.12 462.9504c-23.9616 0-43.3664-19.4048-43.3664-43.3664 0-23.9616 19.4048-43.3664 43.3664-43.3664 23.9616 0 43.3664 19.4048 43.3664 43.3664 0 23.9616-19.4048 43.3664-43.3664 43.3664z m110.3872-139.6736c0-18.9952 15.4112-34.4064 34.4064-34.4064h142.4384c18.9952 0 34.4064 15.4112 34.4064 34.4064s-15.4112 34.4064-34.4064 34.4064H501.9136c-18.9952 0-34.4064-15.4112-34.4064-34.4064z" fill="#FCB138" ></path><path d="M458.1888 189.4912c-2.3552 0-4.6592 0.0512-6.9632 0.1024-94.6176-53.0432-168.9088-60.0576-215.2448-20.224l-2.3552 2.304c-23.9104 26.5728-16.4864 70.7072 3.1232 108.5952A316.78464 316.78464 0 0 0 166.1952 385.024h-31.488c-32.1024 0-58.2144 26.112-58.2144 58.2144v38.2976c85.7088-1.3824 166.4-23.3472 237.2608-61.2864 0-0.2048-0.0512-0.4096-0.0512-0.6144 0-23.9616 19.4048-43.3664 43.3664-43.3664 6.912 0 13.4144 1.6384 19.2 4.5568 67.6352-49.664 122.8288-115.2512 160.1024-191.232H458.1888z" fill="#FFC65E" ></path></svg>