<svg viewBox="0 0 1024 1024" version="1.1" xmlns="http://www.w3.org/2000/svg"><path d="M427.2128 376.1664h173.4144v76.3904H427.2128z" fill="#CA6EE0" ></path><path d="M336.0768 368.7936v-9.4208c0-40.96 33.3312-74.3424 74.3424-74.3424h207.0528c41.0112 0 74.3424 33.3312 74.3424 74.3424v9.4208h255.1808V251.9552c0-55.6032-45.056-100.6592-100.6592-100.6592H183.9104c-55.6032 0-100.6592 45.056-100.6592 100.6592v116.8384h252.8256zM691.8144 459.9296v9.4208c0 41.0112-33.3312 74.3424-74.3424 74.3424H410.4192c-41.0112 0-74.3424-33.3312-74.3424-74.3424v-9.4208H83.3024v320.256c0 55.6032 45.056 100.6592 100.6592 100.6592H846.336c55.6032 0 100.6592-45.056 100.6592-100.6592V459.9296h-255.1808z" fill="#BD50D3" ></path><path d="M846.336 151.3472H183.9104c-55.6032 0-100.6592 45.056-100.6592 100.6592v116.8384h252.7744V359.424c0-40.96 33.3312-74.3424 74.3424-74.3424h207.0528c41.0112 0 74.3424 33.3312 74.3424 74.3424v9.4208h238.592a661.4528 661.4528 0 0 0 12.9024-130.2528c0-4.608-0.1024-9.2672-0.1536-13.8752-11.8784-42.3424-50.6368-73.3696-96.768-73.3696zM691.8144 459.9296v9.4208c0 41.0112-33.3312 74.3424-74.3424 74.3424H410.4192c-41.0112 0-74.3424-33.3312-74.3424-74.3424v-9.4208H83.3024v320.256c0 55.6032 45.056 100.6592 100.6592 100.6592h246.3232c220.9792-49.7664 399.8208-210.688 474.88-420.9152h-213.3504z" fill="#BF5CD6" ></path><path d="M183.9104 151.3472c-55.6032 0-100.6592 45.056-100.6592 100.6592v116.8384h252.7744V359.424c0-40.96 33.3312-74.3424 74.3424-74.3424h207.0528c27.4432 0 51.4048 15.0016 64.256 37.1712 29.184-52.9408 51.3024-110.2848 65.0752-170.8544H183.9104zM83.3024 459.9296v202.8032c7.168 0.2048 14.336 0.4096 21.5552 0.4096 140.7488 0 271.1552-44.1856 378.2144-119.4496H410.4192c-41.0112 0-74.3424-33.3312-74.3424-74.3424v-9.4208H83.3024z" fill="#CA6EE0" ></path><path d="M477.2352 151.3472H183.9104c-55.6032 0-100.6592 45.056-100.6592 100.6592v116.8384h133.6832c104.6528-48.7936 194.304-124.16 260.3008-217.4976z" fill="#D786EA" ></path></svg>