<svg viewBox="0 0 1024 1024" version="1.1" xmlns="http://www.w3.org/2000/svg"><path d="M872.3968 707.4816l-57.1392-94.8736c21.76-20.0192 35.4816-48.6912 35.4816-80.5376 0-60.4672-49.152-109.6192-109.6192-109.6192s-109.6192 49.152-109.6192 109.6192c0 29.696 11.8784 56.576 31.1296 76.3392l-65.9456 99.2768c-33.8432 2.304-60.7232 31.9488-60.7232 68.1472v64.8192c0 37.7344 29.1328 68.4032 64.8704 68.4032h271.36c35.7888 0 64.8704-30.6688 64.8704-68.4032v-64.8192c0.1024-37.632-28.928-68.3008-64.6656-68.352z" fill="#2595E8" ></path><path d="M557.824 652.032l28.6208-43.008a171.60704 171.60704 0 0 1-18.0736-76.9024c0-95.2832 77.5168-172.8 172.8-172.8 21.76 0 42.5472 4.096 61.7472 11.4688V222.1056c0-65.024-52.9408-117.9648-117.9648-117.9648h-451.584c-65.024 0-117.9648 52.9408-117.9648 117.9648v557.8752c0 65.024 52.9408 117.9648 117.9648 117.9648l252.4672 0.0512a133.50912 133.50912 0 0 1-13.0048-57.3952v-64.8192c0-56.5248 35.2768-105.472 84.992-123.7504zM290.6112 258.9184h329.0112c22.5792 0 40.9088 18.3296 40.9088 40.9088s-18.3296 40.9088-40.9088 40.9088H290.6112c-22.5792 0-40.9088-18.3296-40.9088-40.9088s18.3296-40.9088 40.9088-40.9088z m116.3264 472.8832H290.6112c-22.5792 0-40.9088-18.3296-40.9088-40.9088s18.3296-40.9088 40.9088-40.9088h116.3776c22.5792 0 40.9088 18.3296 40.9088 40.9088s-18.3808 40.9088-40.96 40.9088z m-116.3264-206.1824c-22.5792 0-40.9088-18.3296-40.9088-40.9088s18.3296-40.9088 40.9088-40.9088h191.0784c22.5792 0 40.9088 18.3296 40.9088 40.9088s-18.3296 40.9088-40.9088 40.9088H290.6112z" fill="#39A5E9" ></path><path d="M831.3344 469.9136c-19.8144-28.6208-52.7872-47.4112-90.1632-47.4112-60.416 0-109.6192 49.152-109.6192 109.6192 0 29.696 11.8784 56.576 31.1296 76.3392l-65.9456 99.2768c-33.8432 2.304-60.7232 31.9488-60.7232 68.1472v64.8192c0 11.1104 2.56 21.5552 7.0656 30.8224 143.872-88.2176 249.9584-232.0384 288.256-401.6128z" fill="#39A5E9" ></path><path d="M619.6224 340.736H290.6112c-22.5792 0-40.9088-18.3296-40.9088-40.9088s18.3296-40.9088 40.9088-40.9088h329.0112c12.288 0 23.2448 5.4272 30.7712 14.0288 14.7968-53.76 22.784-110.336 22.8352-168.8064h-439.808c-65.024 0-117.9648 52.9408-117.9648 117.9648v512.2048c47.104-5.7344 92.6208-16.64 135.936-32.0512-1.024-3.6352-1.6384-7.424-1.6384-11.3664 0-22.5792 18.3296-40.9088 40.9088-40.9088h71.7824c119.2448-71.0144 213.2992-179.9168 265.472-310.1184-2.7648 0.5632-5.4784 0.8704-8.2944 0.8704z m-137.9328 184.8832H290.6112c-22.5792 0-40.9088-18.3296-40.9088-40.9088s18.3296-40.9088 40.9088-40.9088h191.0784c22.5792 0 40.9088 18.3296 40.9088 40.9088s-18.3296 40.9088-40.9088 40.9088z" fill="#55B5F3" ></path><path d="M249.7024 299.8272c0-22.5792 18.3296-40.9088 40.9088-40.9088h96.6656a634.2656 634.2656 0 0 0 84.992-154.7776H233.3696c-65.024 0-117.9648 52.9408-117.9648 117.9648v246.272A635.1616 635.1616 0 0 0 314.368 340.6848h-23.808c-22.5792 0.0512-40.8576-18.2784-40.8576-40.8576z" fill="#6BC2FC" ></path></svg>