<svg viewBox="0 0 1024 1024" version="1.1" xmlns="http://www.w3.org/2000/svg"><path d="M841.7792 287.744l-123.0848-148.1216a117.01248 117.01248 0 0 0-90.0608-42.24H293.6832c-64.6656 0-117.0944 52.4288-117.0944 117.0944V819.2c0 64.6656 52.4288 117.0944 117.0944 117.0944h458.0352c64.6656 0 117.0944-52.4288 117.0944-117.0944V362.5984c0-27.3408-9.5744-53.8112-27.0336-74.8544z m-148.8896 503.7568H352.512c-14.5408 0-26.368-11.8272-26.368-26.368v-154.1632c0-14.5408 11.8272-26.368 26.368-26.368h340.3776c14.5408 0 26.368 11.8272 26.368 26.368v154.1632c0 14.5408-11.776 26.368-26.368 26.368z" fill="#6C6CEA" ></path><path d="M868.8128 449.0752V362.5984c0-27.3408-9.5744-53.8112-27.0336-74.8544l-123.0848-148.1216a117.01248 117.01248 0 0 0-90.0608-42.24H293.6832c-64.6656 0-117.0944 52.4288-117.0944 117.0944V819.2c0 22.1184 6.2464 42.752 16.9472 60.416 28.9792 4.1984 58.624 6.4512 88.7808 6.4512 120.2176 0 232.3456-34.7136 326.912-94.5664H352.512c-14.5408 0-26.368-11.8272-26.368-26.368v-154.1632c0-14.5408 11.8272-26.368 26.368-26.368h340.3776c14.5408 0 26.368 11.8272 26.368 26.368v91.5456c68.7616-70.1952 120.7808-156.7744 149.5552-253.44z" fill="#757BF2" ></path><path d="M718.6944 139.6736a117.08928 117.08928 0 0 0-90.0608-42.24H293.6832c-64.6656 0-117.0944 52.4288-117.0944 117.0944v451.1744c52.0192-5.2224 102.144-16.9472 149.5552-34.3552v-20.3776c0-14.5408 11.8272-26.368 26.368-26.368h72.2432c157.44-92.6208 269.7728-253.696 296.0896-442.2656l-2.1504-2.6624z" fill="#8486F8" ></path><path d="M516.4032 97.3824h-222.72c-64.6656 0-117.0944 52.4288-117.0944 117.0944v198.6048c150.4256-56.6272 272.64-170.8032 339.8144-315.6992z" fill="#8D92F8" ></path><path d="M371.7632 672.0512h304.8448v41.9328H371.7632z" fill="#757BF2" ></path></svg>