<svg viewBox="0 0 1024 1024" version="1.1" xmlns="http://www.w3.org/2000/svg"><path d="M439.1424 155.5456c-200.448 0-362.9568 147.968-362.9568 330.5472 0 71.168 24.7296 137.0624 66.7648 191.0272 3.7888 4.864 5.9904 10.8544 5.9904 16.9984v112.2304c0 20.1728 21.1456 33.3824 39.2704 24.4736l83.712-40.96c6.8096-3.328 14.6944-3.7888 21.76-0.9728 44.544 17.7664 93.7472 27.648 145.5104 27.648 200.448 0 362.9568-147.968 362.9568-330.5472-0.0512-182.4768-162.56-330.4448-363.008-330.4448z m-166.912 229.9392h237.4144a41.5744 41.5744 0 0 1 41.5744 41.5744 41.5744 41.5744 0 0 1-41.5744 41.5744H272.2304a41.5744 41.5744 0 0 1-41.5744-41.5744c0-22.9888 18.5856-41.5744 41.5744-41.5744z m341.6576 228.0448H272.2304c-22.9376 0-41.5744-18.5856-41.5744-41.5744s18.5856-41.5744 41.5744-41.5744h341.6576c22.9376 0 41.5744 18.5856 41.5744 41.5744s-18.6368 41.5744-41.5744 41.5744z" fill="#FF8E12" ></path><path d="M694.528 855.5008c-16.7424 0-31.6928-11.8784-34.9696-28.928a35.70176 35.70176 0 0 1 28.2624-41.728c48.7936-9.3696 71.68-28.2624 74.24-30.464 9.0112-9.5232 21.6064-12.3904 34.2528-8.96l35.072 9.472v-55.7568c0-7.9872 2.6624-15.7184 7.5776-21.9648 59.5968-76.1344 21.4528-178.5856 21.0432-179.6096-7.0144-18.3296 2.0992-38.9632 20.3776-46.0288s38.8608 1.8944 46.0288 20.1728c2.1504 5.5296 50.4832 132.5568-23.7568 239.1552v90.5728c0 11.1104-5.1712 21.5552-13.9776 28.3136a35.53792 35.53792 0 0 1-30.976 6.0928l-63.0784-17.0496c-17.3056 11.52-47.6672 27.2384-93.3888 35.9936-2.2528 0.512-4.5056 0.7168-6.7072 0.7168z" fill="#FF8E12" ></path><path d="M751.6672 318.0032c-63.1808-97.2288-179.456-162.4576-312.5248-162.4576-200.448 0-362.9568 147.968-362.9568 330.5472 0 71.168 24.7296 137.0624 66.7648 191.0272 3.7888 4.864 5.9904 10.8544 5.9904 16.9984v112.2304c0 20.1728 21.1456 33.3824 39.2704 24.4736l83.712-40.96c6.8096-3.328 14.6944-3.7888 21.76-0.9728 36.5056 14.592 76.2368 23.7568 117.8112 26.624 197.3248-80.0256 337.0496-272.1792 340.1728-497.5104zM272.2304 385.4848h237.4144a41.5744 41.5744 0 1 1 0 83.1488H272.2304a41.5744 41.5744 0 0 1-41.5744-41.5744c0-22.9888 18.5856-41.5744 41.5744-41.5744z m0 228.0448a41.5744 41.5744 0 0 1-41.5744-41.5744 41.5744 41.5744 0 0 1 41.5744-41.5744h341.6576a41.5744 41.5744 0 0 1 41.5744 41.5744 41.5744 41.5744 0 0 1-41.5744 41.5744H272.2304z" fill="#FCA315" ></path><path d="M76.1856 486.0416c0 62.6176 19.1488 121.1392 52.3776 171.0592 54.016-7.0144 105.5232-21.9136 153.3952-43.5712h-9.728a41.5744 41.5744 0 0 1-41.5744-41.5744 41.5744 41.5744 0 0 1 41.5744-41.5744h140.288c22.0672-18.944 42.5984-39.5776 61.3888-61.7984H272.2304a41.5744 41.5744 0 0 1-41.5744-41.5744 41.5744 41.5744 0 0 1 41.5744-41.5744h237.4144c7.0656 0 13.6704 1.7408 19.456 4.864 35.328-60.7232 59.1872-128.8704 68.8128-201.5744-47.9744-21.2992-101.7856-33.2288-158.72-33.2288-200.4992 0.0512-363.008 148.0192-363.008 330.5472z" fill="#FCB138" ></path><path d="M79.0016 445.4912c148.0704-44.9024 269.4144-151.0912 334.6432-289.0752-173.7216 11.008-313.7024 133.2736-334.6432 289.0752z" fill="#FFC65E" ></path></svg>