<svg viewBox="0 0 1024 1024" version="1.1" xmlns="http://www.w3.org/2000/svg"><path d="M790.7328 242.944h-21.76c-14.4896-42.5472-54.7328-73.216-102.1952-73.216H197.3248c-59.6992 0-108.032 48.384-108.032 108.032v312.1152c0 54.8864 44.4928 99.328 99.328 99.328 28.416 0 51.5072 23.04 51.5072 51.5072v25.5488c0 35.072 41.728 53.4016 67.5328 29.6448l101.2224-93.0816c9.5232-8.7552 21.9648-13.6192 34.8672-13.6192h223.0272c59.6992 0 108.032-48.384 108.032-108.032V327.6288h15.872c32.1536 0 58.2656 26.1632 58.2656 58.2656v290.6624c0 27.648-22.528 50.176-50.176 50.176-49.8176 0-90.3168 40.4992-90.3168 90.3168v12.7488l-86.1184-79.2064c-16.6912-15.36-38.4512-23.8592-61.1328-23.8592H450.7136c-23.3472 0-42.3424 18.9952-42.3424 42.3424s18.9952 42.3424 42.3424 42.3424h110.4896c1.3824 0 2.7648 0.512 3.7888 1.4848l94.2592 86.6816c14.8992 13.6704 33.9968 21.248 53.76 21.248 11.1104 0 22.016-2.304 32.4096-6.8608 29.4912-12.9024 47.7696-40.96 47.7696-73.1136v-23.808c0-3.072 2.5088-5.5808 5.5808-5.5808 74.3936 0 134.912-60.5184 134.912-134.8608V385.9456c0.0512-78.8992-64.1024-143.0016-142.9504-143.0016z m-277.6576 309.8624h-239.104c-21.8624 0-39.6288-17.7152-39.6288-39.6288s17.7152-39.6288 39.6288-39.6288h239.104c21.8624 0 39.6288 17.7152 39.6288 39.6288s-17.7664 39.6288-39.6288 39.6288z m80.1792-154.5216H273.9712a39.6288 39.6288 0 0 1-39.6288-39.6288 39.6288 39.6288 0 0 1 39.6288-39.6288h319.2832a39.6288 39.6288 0 1 1 0 79.2576z" fill="#FC7032" ></path><path d="M622.3872 750.592c-16.6912-15.36-38.4512-23.8592-61.1328-23.8592H450.7136c-23.3472 0-42.3424 18.9952-42.3424 42.3424 0 21.0432 15.4624 38.5024 35.6352 41.7792a578.304 578.304 0 0 0 178.688-60.0064l-0.3072-0.256z" fill="#FF7E3E" ></path><path d="M923.8016 333.6704c-20.8896-53.0944-72.6528-90.7264-133.0688-90.7264h-21.76c-14.4896-42.5472-54.7328-73.216-102.1952-73.216H197.3248c-59.6992 0-108.032 48.384-108.032 108.032v312.1152c0 54.8864 44.4928 99.328 99.328 99.328 28.416 0 51.5072 23.04 51.5072 51.5072v25.5488c0 35.072 41.728 53.4016 67.5328 29.6448l101.2224-93.0816c9.5232-8.7552 21.9648-13.6192 34.8672-13.6192h223.0272c59.6992 0 108.032-48.384 108.032-108.032V327.6288h15.872c32.1536 0 58.2656 26.1632 58.2656 58.2656v150.3744c36.8128-61.0816 62.6176-129.536 74.8544-202.5984z m-410.7264 219.136h-239.104c-21.8624 0-39.6288-17.7152-39.6288-39.6288s17.7152-39.6288 39.6288-39.6288h239.104c21.8624 0 39.6288 17.7152 39.6288 39.6288s-17.7664 39.6288-39.6288 39.6288z m80.1792-154.5216H273.9712a39.6288 39.6288 0 0 1-39.6288-39.6288 39.6288 39.6288 0 0 1 39.6288-39.6288h319.2832a39.6288 39.6288 0 1 1 0 79.2576z" fill="#FF7E3E" ></path><path d="M447.2832 552.8064H273.9712c-21.8624 0-39.6288-17.7152-39.6288-39.6288s17.7152-39.6288 39.6288-39.6288h239.104c13.7728 0 25.9072 7.0656 33.024 17.7152 93.2864-71.936 164.1472-171.52 200.192-286.5664-19.712-21.5552-47.9744-35.1232-79.5136-35.1232H197.3248c-59.6992 0-108.032 48.384-108.032 108.032v312.1152c0 4.5056 0.4096 8.96 0.9728 13.312 32.9216 5.7856 66.7648 8.8064 101.2736 8.8064 91.8016 0.1536 178.5856-21.1456 255.744-59.0336zM273.9712 319.0784h319.2832a39.6288 39.6288 0 0 1 39.6288 39.6288 39.6288 39.6288 0 0 1-39.6288 39.6288H273.9712a39.6288 39.6288 0 0 1-39.6288-39.6288 39.6288 39.6288 0 0 1 39.6288-39.6288z" fill="#FF9552" ></path><path d="M237.3632 373.8112c-1.9456-4.6592-3.0208-9.7792-3.0208-15.104a39.6288 39.6288 0 0 1 39.6288-39.6288h77.7216a585.20064 585.20064 0 0 0 161.7408-149.3504H197.3248c-59.6992 0-108.032 48.384-108.032 108.032v126.8736c51.5072-3.84 101.1712-14.4384 148.0704-30.8224z" fill="#FFA56A" ></path></svg>