<svg viewBox="0 0 1024 1024" version="1.1" xmlns="http://www.w3.org/2000/svg"><path d="M513.0752 76.2368c-236.5952 0-428.3904 191.7952-428.3904 428.3904s191.7952 428.3904 428.3904 428.3904 428.3904-191.7952 428.3904-428.3904-191.7952-428.3904-428.3904-428.3904zM388.352 362.8544c0-68.864 55.8592-124.7232 124.7232-124.7232s124.7232 55.8592 124.7232 124.7232v127.8464c0 68.864-55.8592 124.7232-124.7232 124.7232s-124.7232-55.8592-124.7232-124.7232V362.8544z m352.3072 125.6448c0 114.8416-84.0192 210.2272-193.4336 227.2768v62.0544c0 18.7904-15.2064 33.9968-33.9968 33.9968s-33.9968-15.2064-33.9968-33.9968v-61.7984c-110.3872-16.128-195.4816-112.0256-195.4816-227.5328v-16.9984c0-18.7904 15.2064-33.9968 33.9968-33.9968 18.7904 0 33.9968 15.2064 33.9968 33.9968v16.9984c0 89.2928 71.9872 161.9968 160.4608 161.9968s160.4608-72.6528 160.4608-161.9968v-16.9984c0-18.7904 15.2064-33.9968 33.9968-33.9968s33.9968 15.2064 33.9968 33.9968v16.9984z" fill="#6C6CEA" ></path><path d="M893.5424 307.8656C822.272 170.3424 678.7072 76.288 513.0752 76.288 276.48 76.288 84.6848 268.0832 84.6848 504.6784c0 155.4944 82.8416 291.6352 206.7968 366.6944 1.536 0 3.0208 0.0512 4.5568 0.0512 318.8224-0.0512 579.3792-249.2928 597.504-563.5584zM388.352 362.8544c0-68.864 55.8592-124.7232 124.7232-124.7232s124.7232 55.8592 124.7232 124.7232v127.8464c0 68.864-55.8592 124.7232-124.7232 124.7232s-124.7232-55.8592-124.7232-124.7232V362.8544z m158.8736 352.9216v62.0544c0 18.7904-15.2064 33.9968-33.9968 33.9968s-33.9968-15.2064-33.9968-33.9968v-61.7984c-110.3872-16.128-195.4816-112.0256-195.4816-227.5328v-16.9984c0-18.7904 15.2064-33.9968 33.9968-33.9968 18.7904 0 33.9968 15.2064 33.9968 33.9968v16.9984c0 89.2928 71.9872 161.9968 160.4608 161.9968s160.4608-72.6528 160.4608-161.9968v-16.9984c0-18.7904 15.2064-33.9968 33.9968-33.9968s33.9968 15.2064 33.9968 33.9968v16.9984c0 114.7904-84.0192 210.2272-193.4336 227.2768z" fill="#757BF2" ></path><path d="M84.6848 504.6272c0 54.2208 10.1888 106.0864 28.5696 153.856 6.3488 0.2048 12.6976 0.3072 19.0464 0.3072 68.9152 0 135.1168-11.6736 196.7616-33.1264a229.53984 229.53984 0 0 1-45.2608-137.1648v-16.9984c0-18.7904 15.2064-33.9968 33.9968-33.9968 18.7904 0 33.9968 15.2064 33.9968 33.9968v16.9984c0 42.3936 16.2304 81.0496 42.752 109.9264 11.1616-5.4272 22.0672-11.2128 32.8192-17.3056-23.9616-22.7328-39.0144-54.784-39.0144-90.4192V362.8544c0-68.864 55.8592-124.7232 124.7232-124.7232s124.7232 55.8592 124.7232 124.7232v18.0224c46.592-73.2672 77.6704-157.3888 88.6272-247.7056-62.8224-36.1984-135.6288-56.9856-213.3504-56.9856-236.5952 0.0512-428.3904 191.8464-428.3904 428.4416z" fill="#8486F8" ></path><path d="M90.0096 437.1968C292.096 400.2816 458.7008 261.9392 535.1424 76.8c-7.3216-0.3584-14.6944-0.5632-22.0672-0.5632-213.6576 0-390.7072 156.416-423.0656 360.96z" fill="#8D92F8" ></path></svg>