<svg viewBox="0 0 1024 1024" version="1.1" xmlns="http://www.w3.org/2000/svg"><path d="M872.2432 832.3072h-25.8048c-13.6192-250.112-104.3968-350.5152-183.296-390.1952 63.232-9.9328 155.904-16.4864 210.1248-5.888 6.912 1.3312 12.4928-5.6832 9.5232-12.0832-18.2272-38.9632-96.0512-98.7136-186.4704-89.5488-7.936 0.8192-12.6976-8.6016-7.2704-14.4896 29.8496-32.256 72.192-72.0384 127.5904-91.4944 7.5776-2.6624 7.7824-13.312 0.3584-16.2304-51.2-20.1728-155.4944-13.3632-199.5264 43.1104-4.7616 6.0928-14.5408 3.2768-15.4112-4.4032-6.4512-56.2688-11.1104-95.2832 3.8912-143.36 2.4576-7.8848-6.656-14.5408-13.312-9.6256-64.256 47.616-108.7488 163.8912-79.2576 236.288 11.8272 29.0304-150.5792-71.1168-253.7472 64.768-4.4544 5.888-0.2048 14.2848 7.168 14.0288 49.0496-1.8944 109.6704-2.4064 151.7568 2.5088 7.4752 0.8704 10.1888 10.1376 4.5056 15.0528-34.8672 30.1056-85.9648 115.0464-58.6752 188.9792 2.2528 6.0928 10.1376 7.8336 14.5408 3.0208 41.5744-44.9024 92.0064-90.5728 120.5248-115.6096 6.3488-5.5808 16.128 0.3072 14.1312 8.5504-12.2368 51.1488-23.6544 159.8976 77.2096 220.2112 5.2224 3.1232 11.9296 0 13.0048-5.9904 14.08-77.312 10.752-177.408 0.9728-250.9824 122.112 142.7456 106.1888 297.7792 95.1808 353.3824h-157.952c-3.584-101.9392-87.296-183.552-190.1056-183.552-102.8096 0-186.5728 81.5616-190.1056 183.552h-17.92c-27.8528 0-50.432 22.5792-50.432 50.432 0 27.8528 22.5792 50.432 50.432 50.432h728.4736c27.8528 0 50.432-22.5792 50.432-50.432-0.1024-27.8528-22.6816-50.432-50.5344-50.432z" fill="#05C46D" ></path><path d="M833.3312 718.08c-30.8736-167.936-104.6016-242.944-170.1888-275.968 63.232-9.9328 155.904-16.4864 210.1248-5.888 6.8608 1.3312 12.4928-5.6832 9.5232-12.0832-18.2272-38.9632-96.0512-98.7136-186.4704-89.5488-7.936 0.8192-12.6976-8.6016-7.2704-14.4896 29.8496-32.256 72.192-72.0384 127.5904-91.4944 7.5776-2.6624 7.7824-13.312 0.3584-16.2304-51.2-20.1728-155.4944-13.3632-199.5264 43.1104-4.7616 6.0928-14.5408 3.2768-15.4112-4.4032-6.4512-56.2688-11.1104-95.2832 3.8912-143.36 2.4576-7.8848-6.656-14.5408-13.312-9.6256-64.256 47.616-108.7488 163.8912-79.3088 236.288 11.8272 29.0304-150.5792-71.1168-253.7472 64.768-4.4544 5.888-0.2048 14.2848 7.168 14.0288 49.0496-1.8944 109.6192-2.4064 151.7568 2.5088 7.4752 0.8704 10.1888 10.1376 4.5056 15.0528-34.8672 30.1056-85.9648 115.0464-58.6752 188.9792 2.2528 6.0928 10.1376 7.8336 14.5408 3.0208 41.5744-44.9024 92.0064-90.5728 120.5248-115.6096 6.3488-5.5808 16.128 0.3072 14.1312 8.5504-12.2368 51.1488-23.6544 159.8976 77.2096 220.2112 5.2224 3.1232 11.9296 0 13.0048-5.9904 14.08-77.312 10.752-177.408 0.9728-250.9824 122.112 142.7456 106.1888 297.7792 95.1808 353.3824h-157.952c-3.584-101.9392-87.296-183.552-190.1056-183.552-102.8096 0-186.5728 81.5616-190.1056 183.552h-17.92c-27.8528 0-50.432 22.5792-50.432 50.432 0 27.8528 22.5792 50.432 50.432 50.432H614.4a566.86592 566.86592 0 0 0 218.9312-215.0912z" fill="#1DCE75" ></path><path d="M513.3312 334.3872c11.8272 29.0304-150.5792-71.1168-253.7472 64.768-4.4544 5.888-0.2048 14.2848 7.168 14.0288 49.0496-1.8944 109.6192-2.4064 151.7568 2.5088 7.4752 0.8704 10.1888 10.1376 4.5056 15.0528-34.8672 30.1056-85.9648 115.0464-58.6752 188.9792 2.2528 6.0928 10.1376 7.8336 14.5408 3.0208 41.5744-44.9024 92.0064-90.5728 120.5248-115.6096 6.3488-5.5808 16.128 0.3072 14.1312 8.5504-9.216 38.4512-17.92 109.5168 21.1968 168.0384a566.1696 566.1696 0 0 0 78.4384-73.7792c0-46.2336-3.328-92.3136-8.448-131.0208a440.0128 440.0128 0 0 1 51.9168 75.0592c18.2784-26.9824 34.2016-55.7056 47.616-85.76a239.68256 239.68256 0 0 0-41.0624-26.1632c16.5888-2.6112 35.2768-4.9664 54.7328-6.8608 11.8784-31.7952 20.8896-65.024 26.88-99.2256-15.5136-2.4576-31.744-3.1232-48.4352-1.3824-7.936 0.8192-12.6976-8.6016-7.2704-14.4896 17.1008-18.4832 38.3488-39.424 63.744-57.6 0.3584-8.1408 0.6144-16.3328 0.6144-24.5248 0-12.032-0.512-23.9616-1.2288-35.84-49.3056 0.256-105.3696 15.7184-134.7072 53.3504-4.7616 6.0928-14.5408 3.2768-15.4112-4.4032-6.4512-56.2688-11.1104-95.2832 3.8912-143.36 2.4576-7.8848-6.656-14.5408-13.312-9.6256-64.3072 47.616-108.8 163.8912-79.36 236.288zM189.3888 801.9968c112.1792 0 216.6784-32.8704 304.4864-89.3952-34.816-39.1168-85.5552-63.8464-142.08-63.8464-92.16 0-168.96 65.5872-186.4192 152.576 7.9872 0.4096 15.9744 0.6656 24.0128 0.6656z" fill="#3CD38E" ></path><path d="M375.4496 497.152c108.7488-77.8752 188.6208-193.3824 220.6208-327.5264 0.4096-20.3776 3.1744-40.192 9.8816-61.9008 2.4576-7.8848-6.656-14.5408-13.312-9.6256-64.256 47.616-108.7488 163.8912-79.3088 236.288 11.8272 29.0304-150.5792-71.1168-253.7472 64.768-4.4544 5.888-0.2048 14.2848 7.168 14.0288 49.0496-1.8944 109.6192-2.4064 151.7568 2.5088 7.4752 0.8704 10.1888 10.1376 4.5056 15.0528-15.4112 13.312-33.9968 37.3248-47.5648 66.4064z" fill="#48E1AA" ></path></svg>