<svg viewBox="0 0 1024 1024" version="1.1" xmlns="http://www.w3.org/2000/svg"><path d="M921.344 867.4816H101.0688c-21.248 0-38.4512-17.2032-38.4512-38.4512v-33.3312c0-21.248 17.2032-38.4512 38.4512-38.4512h820.2752c21.248 0 38.4512 17.2032 38.4512 38.4512v33.3312c0 21.248-17.2032 38.4512-38.4512 38.4512zM904.704 591.9744h-5.6832c-21.0944-156.8256-134.912-284.16-284.5696-324.9664 0-0.512 0.0512-0.9728 0.0512-1.4848 0-57.0368-46.2336-103.3216-103.3216-103.3216s-103.3216 46.2336-103.3216 103.3216c0 0.512 0.0512 0.9728 0.0512 1.4848-149.6576 40.8064-263.5264 168.1408-284.5696 324.9664h-5.6832c-30.4128 0-55.0912 24.6784-55.0912 55.0912 0 30.4128 24.6784 55.0912 55.0912 55.0912h786.944c30.4128 0 55.0912-24.6784 55.0912-55.0912 0.1024-30.4128-24.576-55.0912-54.9888-55.0912zM447.5392 436.7872c-3.84 0.5632-86.6816 13.8752-121.1904 96.4096a37.06368 37.06368 0 0 1-34.2528 22.784 37.12 37.12 0 0 1-34.2016-51.456c51.3536-122.7264 174.3872-140.5952 179.5584-141.312 20.224-2.7648 39.0144 11.52 41.728 31.8464a37.2224 37.2224 0 0 1-31.6416 41.728z" fill="#FF3369" ></path><path d="M889.6 544.6656C854.1184 409.9072 748.6976 303.616 614.4 267.008c0-0.512 0.0512-0.9728 0.0512-1.4848 0-57.0368-46.2336-103.3216-103.3216-103.3216-57.0368 0-103.3216 46.2336-103.3216 103.3216 0 0.512 0.0512 0.9728 0.0512 1.4848-149.6576 40.8064-263.5264 168.1408-284.5696 324.9664h-5.6832c-30.4128 0-55.0912 24.6784-55.0912 55.0912s24.6784 55.0912 55.0912 55.0912h689.152c34.9184-47.7184 62.976-100.6592 82.8416-157.4912zM447.5392 436.7872c-3.84 0.5632-86.6816 13.8752-121.1904 96.4096a37.06368 37.06368 0 0 1-34.2528 22.784 37.12 37.12 0 0 1-34.2016-51.456c51.3536-122.7264 174.3872-140.5952 179.6096-141.312 20.224-2.7648 39.0144 11.52 41.728 31.8464 2.6112 20.224-11.52 38.8608-31.6928 41.728zM114.5856 757.2992c-28.7232 0-51.968 23.2448-51.968 51.968v6.2976c0 28.7232 23.2448 51.968 51.968 51.968h510.9248c50.5344-30.1056 96.3584-67.2768 136.0896-110.2336H114.5856z" fill="#FF4D7C" ></path><path d="M726.4256 317.7472c-33.9968-22.4256-71.68-39.7824-111.9744-50.7392 0-0.512 0.0512-0.9728 0.0512-1.4848 0-57.0368-46.2336-103.3216-103.3216-103.3216-57.0368 0-103.3216 46.2336-103.3216 103.3216 0 0.512 0.0512 0.9728 0.0512 1.4848-149.6576 40.8064-263.5264 168.1408-284.5696 324.9664h-5.6832c-30.4128 0-55.0912 24.6784-55.0912 55.0912s24.6784 55.0912 55.0912 55.0912h231.7824c177.8688-62.464 317.952-205.0048 376.9856-384.4096z m-434.3808 238.2336a37.12 37.12 0 0 1-34.2016-51.456c51.3536-122.7264 174.3872-140.5952 179.6096-141.312 20.224-2.7648 39.0144 11.52 41.728 31.8464a37.0944 37.0944 0 0 1-31.6416 41.6768c-3.84 0.5632-86.6816 13.8752-121.1904 96.4096a37.15072 37.15072 0 0 1-34.304 22.8352z" fill="#FF5F89" ></path><path d="M146.8928 501.5552c53.8624-13.9264 104.8576-35.0208 151.8592-62.1568 27.9552-31.232 60.4672-49.9712 86.9888-61.0304 67.8912-57.0368 123.136-128.512 161.024-209.7664-11.1104-4.096-23.04-6.4-35.584-6.4-57.0368 0-103.3216 46.2336-103.3216 103.3216 0 0.512 0.0512 0.9728 0.0512 1.4848-119.552 32.6144-216.2176 120.5248-261.0176 234.5472z" fill="#FF7196" ></path><path d="M206.6432 757.2992H114.5856c-24.2688 0-44.5952 16.64-50.3296 39.168 51.3536-11.0592 100.1472-25.2416 142.3872-39.168z" fill="#FF5F89" ></path></svg>