<svg viewBox="0 0 1024 1024" version="1.1" xmlns="http://www.w3.org/2000/svg"><path d="M686.336 644.864v228.9664c0 19.9168 16.128 36.096 36.096 36.096h113.3056c19.9168 0 36.096-16.128 36.096-36.096V150.9376c0-18.7392-14.2848-34.3552-32.9728-35.9424-72.6016-6.2464-241.0496 5.632-255.0272 246.3744-12.5952 200.2944 29.184 254.8736 102.5024 283.4944z" fill="#FC7032" ></path><path d="M494.4384 153.088a41.72288 41.72288 0 0 0-41.6256-39.2192h-27.8016v268.4928c0 19.3536-15.6672 35.0208-35.0208 35.0208s-35.0208-15.6672-35.0208-35.0208V113.8176h-43.2128v268.4928c0 19.3536-15.6672 35.0208-35.0208 35.0208s-35.0208-15.6672-35.0208-35.0208V113.8176h-29.1328c-22.0672 0-40.3456 17.2032-41.6256 39.2192l-18.688 315.8016c0 54.3232 27.6992 102.144 69.7856 130.1504v265.7792c0 24.8832 20.1728 45.1072 45.1072 45.1072h133.888c24.8832 0 45.1072-20.1728 45.1072-45.1072v-267.6224c40.5504-28.2624 67.072-75.1616 67.072-128.3072L494.4384 153.088zM871.7824 563.0464v-412.16c0-18.7392-14.2848-34.3552-32.9728-35.9424-72.6016-6.2464-241.0496 5.632-255.0272 246.3744-12.544 200.3456 29.2352 254.9248 102.5536 283.5456v154.2144c79.6672-61.9008 143.7696-142.848 185.4464-236.032z" fill="#FF8048" ></path><path d="M452.8128 113.8176h-27.7504v268.4928c0 19.3536-15.6672 35.0208-35.0208 35.0208s-35.0208-15.6672-35.0208-35.0208V113.8176H311.808v268.4928c0 19.3536-15.6672 35.0208-35.0208 35.0208s-35.0208-15.6672-35.0208-35.0208V113.8176h-29.1328c-22.0672 0-40.3456 17.2032-41.6256 39.2192l-18.688 315.8016c0 54.3232 27.6992 102.144 69.7856 130.1504v104.8064c80.64-10.752 156.3648-37.0688 224.0512-75.8784v-30.7712c40.5504-28.2624 67.072-75.1616 67.072-128.3072L494.4384 153.088c-1.3312-22.0672-19.5584-39.2704-41.6256-39.2704zM583.7824 361.3184c-4.096 65.8432-2.3552 115.8656 4.4544 154.4704 98.5088-104.3456 160.9728-242.9952 167.6288-396.1856-75.6736 16.128-162.2016 72.0384-172.0832 241.7152z" fill="#FF9552" ></path><path d="M311.7056 113.8176v268.4928c0 6.5536-1.8944 12.6464-5.0688 17.92a611.328 611.328 0 0 0 48.2816-32.8704V113.8176h-43.2128zM276.992 417.3312c-0.1024 0-0.2048 0.0512-0.3072 0.0512-19.3536 0-35.0208-15.6672-35.0208-35.0208V113.8176h-29.1328c-22.0672 0-40.3456 17.2032-41.6256 39.2192l-18.6368 314.8288c43.7248-12.288 85.504-29.3376 124.7232-50.5344zM498.1248 215.7568l-3.6864-62.6688a41.72288 41.72288 0 0 0-41.6256-39.2192h-27.7504v192a621.8752 621.8752 0 0 0 73.0624-90.112z" fill="#FFA56A" ></path></svg>