<svg viewBox="0 0 1024 1024" version="1.1" xmlns="http://www.w3.org/2000/svg"><path d="M969.216 444.5696c0-59.904-63.9488-76.0832-97.5872-87.5008-33.6384-11.4688-199.7824-72.8576-199.7824-72.8576s-113.6128-185.2928-215.6032-115.6096c-24.7296 15.6672-20.6848 72.192 13.6192 95.9488C422.4 255.9488 344.1152 273.664 348.16 318.5664c4.0448 44.9536 66.1504 68.1472 176.2304 49.4592 19.2-4.0448 45.9264 10.0864 13.6192 37.376-17.152 12.1344-91.904 32.8192-255.488 3.5328-116.4288-20.8384-184.7296-36.5568-214.4768-43.8784-4.9152 28.4672-7.5264 57.7536-7.5264 87.6544 0 169.6256 82.5856 319.9488 209.7664 413.0304 24.9344-7.424 51.0464-17.1008 77.824-29.6448 68.6592-32.3072 48.4864-65.6384 32.3072-77.2608s-48.4864-57.5488 41.9328-111.5648 202.8032-102.3488 336.7424-119.1424c43.0592-6.0416 94.9248-6.7072 119.808-8.0896 25.0368-1.4336 90.3168-15.5648 90.3168-75.4688z m-295.5264-47.4624c-18.0224 0-32.6656-14.592-32.6656-32.6656s14.592-32.6656 32.6656-32.6656c18.0224 0 32.6656 14.592 32.6656 32.6656s-14.592 32.6656-32.6656 32.6656z" fill="#FF8E12" ></path><path d="M671.8464 284.16s-113.6128-185.2928-215.6032-115.6096c-24.7296 15.6672-20.6848 72.192 13.6192 95.9488C422.4 255.8976 344.1152 273.6128 348.16 318.5152c4.0448 44.9536 66.1504 68.1472 176.2304 49.4592 19.2-4.0448 45.9264 10.0864 13.6192 37.376-17.152 12.1344-91.904 32.8192-255.488 3.5328-116.4288-20.8384-184.7296-36.5568-214.4768-43.8784-4.9152 28.4672-7.5264 57.7536-7.5264 87.6544 0 118.4256 40.2944 227.3792 107.8272 314.0608a483.84 483.84 0 0 0 185.9072 36.9664c12.6464 0 25.1904-0.6144 37.5808-1.5872 11.008-19.4048-1.024-35.84-11.4176-43.3152-16.1792-11.6224-48.4864-57.5488 41.9328-111.5648s202.8032-102.3488 336.7424-119.1424c11.1616-1.5872 22.8864-2.7648 34.56-3.7376a482.02752 482.02752 0 0 0 45.0048-178.944c-59.4432-21.504-166.8096-61.2352-166.8096-61.2352z m1.8432 112.9472c-18.0224 0-32.6656-14.592-32.6656-32.6656s14.592-32.6656 32.6656-32.6656c18.0224 0 32.6656 14.592 32.6656 32.6656s-14.592 32.6656-32.6656 32.6656z" fill="#FCA315" ></path><path d="M456.2432 168.5504c-24.7296 15.6672-20.6848 72.192 13.6192 95.9488C422.4 255.8976 344.1152 273.6128 348.16 318.5152c4.0448 44.9536 66.1504 68.1472 176.2304 49.4592 19.2-4.0448 45.9264 10.0864 13.6192 37.376-17.152 12.1344-91.904 32.8192-255.488 3.5328-116.4288-20.8384-184.7296-36.5568-214.4768-43.8784-4.9152 28.4672-7.5264 57.7536-7.5264 87.6544 0 55.6544 8.96 109.2096 25.3952 159.3344a485.90336 485.90336 0 0 0 135.6288 19.3536c182.528 0 341.4528-100.864 424.2944-249.8048a32.3584 32.3584 0 0 1-4.864-17.1008c0-16.7424 12.5952-30.5152 28.8256-32.4096 5.7856-13.9776 11.008-28.2624 15.5136-42.8544-8.448-3.1232-13.5168-5.0176-13.5168-5.0176s-113.5616-185.2928-215.552-115.6096z" fill="#FCB138" ></path><path d="M282.5728 408.8832c-116.4288-20.8384-184.7296-36.5568-214.4768-43.8784-4.9152 28.4672-7.5264 57.7536-7.5264 87.6544 0 1.792 0.0512 3.5328 0.1024 5.3248 12.8512 1.024 25.7536 1.6896 38.8608 1.6896 74.3424 0 144.6912-16.7424 207.6672-46.6432-7.936-1.28-16.128-2.6112-24.6272-4.1472zM469.9136 264.4992c-47.4624-8.6016-125.7472 9.1136-121.7024 54.016 1.8432 20.3264 15.5648 36.1984 40.2432 45.7728 69.4272-51.5072 124.5696-121.088 158.5664-201.8304-29.0816-12.8-60.416-14.592-90.7264 6.0928-24.7808 15.6672-20.736 72.192 13.6192 95.9488z" fill="#FFC65E" ></path></svg>