<svg viewBox="0 0 1024 1024" version="1.1" xmlns="http://www.w3.org/2000/svg"><path d="M515.1744 190.0032c-198.8096 0-359.936 161.1264-359.936 359.936s161.1264 359.936 359.936 359.936 359.936-161.1264 359.936-359.936-161.1264-359.936-359.936-359.936zM497.9712 794.624v-212.5312H364.6976l165.4272-259.6352V507.392h130.9696l-163.1232 287.232z" fill="#FF8E12" ></path><path d="M148.736 350.0544s44.8-99.9424 178.0736-167.7312C285.44 118.016 192.3584 89.856 120.0128 153.6c-66.5088 58.5728-44.8 168.9088 28.7232 196.4544z" fill="#FFC65E" ></path><path d="M875.264 350.0544s-44.8-99.9424-178.0736-167.7312c41.3696-64.3072 134.4-92.4672 206.7968-28.7232 66.5088 58.5728 44.8 168.9088-28.7232 196.4544zM874.1888 525.1072c-12.8-187.1872-168.5504-335.104-359.0144-335.104-198.8096 0-359.936 161.1776-359.936 359.936 0 121.9072 60.6208 229.5296 153.344 294.656 14.0288 1.024 28.2112 1.536 42.496 1.536 228.352 0 426.1888-130.5088 523.1104-321.024zM497.9712 794.624v-212.5312H364.6976l165.4272-259.6352V507.392h130.9696l-163.1232 287.232z" fill="#FCA315" ></path><path d="M515.1744 190.0032c-198.8096 0-359.936 161.1776-359.936 359.936 0 30.1056 3.7376 59.392 10.752 87.3472 8.192 0.3584 16.384 0.5632 24.6272 0.5632 89.344 0 173.9776-20.0192 249.7536-55.7056H364.6976l165.4272-259.6352v184.9344h29.184c78.1824-63.232 139.776-146.176 177.2032-241.2544-61.0816-47.6672-137.8304-76.1856-221.3376-76.1856zM697.2416 182.3232a463.4112 463.4112 0 0 1 56.3712 33.792c8.704-29.7472 15.104-60.4672 18.9952-91.9552-30.7712 9.984-57.7536 30.7712-75.3664 58.1632z" fill="#FCB138" ></path><path d="M182.016 413.6448c136.3456-33.1264 254.0032-113.8688 334.4384-223.6416-0.4096 0-0.8704-0.0512-1.28-0.0512-150.528 0.0512-279.4496 92.5184-333.1584 223.6928z" fill="#FFC65E" ></path></svg>