<svg viewBox="0 0 1024 1024" version="1.1" xmlns="http://www.w3.org/2000/svg"><path d="M894.1056 860.5184L831.5392 340.224c-3.328-27.7504-28.928-48.7424-59.4432-48.7424h-43.9808c-1.4848-110.0288-99.6352-199.0656-220.1088-199.0656s-218.5728 89.088-220.1088 199.0656h-43.9808c-30.464 0-56.064 20.992-59.4432 48.7424l-62.464 520.2944c-3.8912 32.4096 23.808 60.7232 59.4432 60.7232h653.2608c35.584 0.0512 63.2832-28.3136 59.392-60.7232zM508.0576 161.7408c78.6944 0 142.8992 57.9584 144.384 129.7408h-288.768c1.4848-71.7824 65.6896-129.7408 144.384-129.7408z m169.9328 473.8048l-175.9232 187.3408c-6.656 7.1168-19.3536 1.6896-17.7152-7.5776l22.272-124.5184c0.768-4.2496-1.792-8.448-6.1952-10.0864l-157.7472-59.0336c-6.3488-2.3552-8.3456-9.6768-3.9936-14.4896l184.1152-203.776c6.4512-7.168 19.1488-2.1504 17.8688 7.0656l-20.8896 150.8864c-0.6144 4.3008 2.1504 8.3968 6.5536 9.8816l147.4048 49.5616c6.7072 2.2016 8.8576 9.8304 4.2496 14.7456z" fill="#FF3369" ></path><path d="M831.5392 340.224c-3.328-27.7504-28.928-48.7424-59.4432-48.7424h-43.9808c-1.4848-110.0288-99.6352-199.0656-220.1088-199.0656s-218.5728 89.088-220.1088 199.0656h-43.9808c-30.464 0-56.064 20.992-59.4432 48.7424l-62.464 520.2944c-3.8912 32.4096 23.808 60.7232 59.4432 60.7232H573.44c135.3728-78.3872 238.4896-206.1312 284.8768-358.6048l-26.7776-222.4128zM508.0576 161.7408c78.6944 0 142.8992 57.9584 144.384 129.7408h-288.768c1.4848-71.7824 65.6896-129.7408 144.384-129.7408z m169.9328 473.8048l-175.9232 187.3408c-6.656 7.1168-19.3536 1.6896-17.7152-7.5776l22.272-124.5184c0.768-4.2496-1.792-8.448-6.1952-10.0864l-157.7472-59.0336c-6.3488-2.3552-8.3456-9.6768-3.9936-14.4896l184.1152-203.776c6.4512-7.168 19.1488-2.1504 17.8688 7.0656l-20.8896 150.8864c-0.6144 4.3008 2.1504 8.3968 6.5536 9.8816l147.4048 49.5616c6.7072 2.2016 8.8576 9.8304 4.2496 14.7456z" fill="#FF4D7C" ></path><path d="M456.9088 664.3712l-114.176-42.752c-6.3488-2.3552-8.3456-9.6768-3.9936-14.4896l184.1152-203.776c6.4512-7.168 19.1488-2.1504 17.8688 7.0656l-20.8896 150.8864c-0.6144 4.3008 2.1504 8.3968 6.5536 9.8816l25.2416 8.4992c88.832-97.3824 147.2512-223.0272 160.1536-361.8816-32.8704-73.5232-111.7696-125.44-203.7248-125.44-120.4736 0-218.5728 89.088-220.1088 199.0656h-43.9808c-30.464 0-56.064 20.992-59.4432 48.7424l-53.0944 441.7024c121.1904-7.8336 232.96-50.2272 325.4784-117.504z m51.1488-502.6304c78.6944 0 142.8992 57.9584 144.384 129.7408h-288.768c1.4848-71.7824 65.6896-129.7408 144.384-129.7408z" fill="#FF5F89" ></path><path d="M448.1536 291.4816h-84.48c1.4848-71.7824 65.6896-129.7408 144.384-129.7408 2.7648 0 5.4784 0.256 8.192 0.3584 8.448-22.016 15.7696-44.6464 21.7088-67.84-9.7792-1.2288-19.7632-1.8944-29.9008-1.8944-120.4736 0-218.5728 89.088-220.1088 199.0656h-43.9808c-30.464 0-56.064 20.992-59.4432 48.7424l-21.504 178.6368c116.2752-45.9264 215.296-125.7984 285.1328-227.328z" fill="#FF7196" ></path></svg>