<?xml version="1.0" standalone="no"?><!DOCTYPE svg PUBLIC "-//W3C//DTD SVG 1.1//EN" "http://www.w3.org/Graphics/SVG/1.1/DTD/svg11.dtd"><svg class="icon" width="66px" height="66.00px" viewBox="0 0 1024 1024" version="1.1" xmlns="http://www.w3.org/2000/svg"><path d="M219.146 308.14C227.21 171.044 340.742 64 478.066 64h68.71c137.324 0 250.856 107.046 258.92 244.14l13.134 223.284c2.286 39-27.47 72.474-66.47 74.77-39 2.294-72.458-27.46-74.768-66.46l-13.134-223.288c-3.654-62.314-55.268-110.972-117.682-110.972h-68.71c-62.412 0-114.028 48.658-117.682 110.972l-13.134 223.288c-2.286 39-35.768 68.754-74.768 66.46-39-2.296-68.756-35.77-66.47-74.77l13.134-223.286z" fill="#FCBF28" /><path d="M96.488 481.13c4.6-40.826 34.59-69.188 75.43-73.71 57.39-6.356 161.186-13.314 340.504-13.314 184.268 0 287.732 7.346 343.168 13.838 37.254 4.364 65.22 29.62 70.476 66.768 5.54 39.038 10.776 102.378 10.776 202.34 0 99.976-5.234 163.308-10.776 202.332-5.258 37.16-33.222 62.414-70.476 66.776-55.436 6.484-158.9 13.84-343.168 13.84-184.27 0-287.734-7.356-343.168-13.84-37.256-4.362-65.22-29.616-70.48-66.776C93.236 840.36 88 777.028 88 677.052c0-94.66 4.032-156.48 8.488-195.92z" fill="#A871FF" /><path d="M512.42 559.158c23.816 0 43.692 18.014 45.014 41.796a1374.26 1374.26 0 0 1 2.144 76.1c0 29.544-1.012 55.858-2.144 76.088-1.32 23.792-21.2 41.806-45.012 41.806-23.816 0-43.692-18.014-45.014-41.806a1374.312 1374.312 0 0 1-2.144-76.09c0-29.556 1.014-55.87 2.144-76.098 1.32-23.78 21.2-41.796 45.014-41.796z" fill="#FFFFFF" /></svg>