<svg viewBox="0 0 1024 1024" version="1.1" xmlns="http://www.w3.org/2000/svg"><path d="M508.2624 769.8432m-149.3504 0a149.3504 149.3504 0 1 0 298.7008 0 149.3504 149.3504 0 1 0-298.7008 0Z" fill="#FF3369" ></path><path d="M898.3552 385.2288c-48.1792-111.9744-173.6192-262.8096-386.7648-262.8096-120.2176 0-277.76 52.992-367.36 211.3024s-40.2944 294.1952 50.7904 330.0352c91.0848 35.84 166.5024-22.3744 198.6048-49.2544 32.1024-26.88 64.2048-38.8096 117.9648-38.8096s83.8144 16.2304 113.5104 36.9664c29.696 20.736 56.0128 65.536 164.6592 53.76 111.7696-12.1856 156.7232-169.216 108.5952-281.1904zM339.8144 328.704c-1.0752 0.768-62.7712 46.2336-81.4592 126.6176a36.25472 36.25472 0 0 1-43.52 27.0848c-19.5072-4.5568-31.6416-24.0128-27.0848-43.52 25.2416-108.3392 106.7008-166.8608 110.1312-169.3184 16.3328-11.52 38.9632-7.6288 50.5344 8.704a36.26496 36.26496 0 0 1-8.6016 50.432z" fill="#FF3369" ></path><path d="M144.2304 333.6704c-89.6 158.3104-40.2944 294.1952 50.7904 330.0352 91.0848 35.84 166.5024-22.3744 198.6048-49.2544 32.1024-26.88 64.2048-38.8096 117.9648-38.8096s83.8144 16.2304 113.5104 36.9664c19.0976 13.312 36.8128 36.608 75.9808 48.384 54.4768-81.3056 86.272-179.0464 86.272-284.2624 0-60.416-10.5472-118.3232-29.7472-172.0832-62.8736-47.9232-144.4352-82.176-245.9648-82.176-120.2688-0.1024-277.8112 52.9408-367.4112 211.2z m195.584-4.9664c-1.0752 0.768-62.7712 46.2336-81.4592 126.6176a36.25472 36.25472 0 0 1-43.52 27.0848c-19.5072-4.5568-31.6416-24.0128-27.0848-43.52 25.2416-108.3392 106.7008-166.8608 110.1312-169.3184 16.3328-11.52 38.9632-7.6288 50.5344 8.704a36.26496 36.26496 0 0 1-8.6016 50.432z" fill="#FF4D7C" ></path><path d="M650.5984 724.5824c-19.2-60.3136-75.6224-104.0384-142.336-104.0384-82.4832 0-149.3504 66.8672-149.3504 149.3504 0 39.936 15.7184 76.1856 41.216 102.9632 97.6384-24.4224 184.1152-76.8512 250.4704-148.2752z" fill="#FF4D7C" ></path><path d="M144.2304 333.6704c-89.6 158.3104-40.2944 294.1952 50.7904 330.0352 91.0848 35.84 166.5024-22.3744 198.6048-49.2544 24.064-20.1216 48.128-31.8976 81.3056-36.5056 105.7792-93.696 172.4928-230.4512 172.4928-382.8736 0-17.2032-0.8704-34.2016-2.56-50.944-39.8848-13.6704-84.224-21.7088-133.2736-21.7088-120.2176-0.0512-277.76 52.992-367.36 211.2512z m195.584-4.9664c-1.0752 0.768-62.7712 46.2336-81.4592 126.6176a36.25472 36.25472 0 0 1-43.52 27.0848c-19.5072-4.5568-31.6416-24.0128-27.0848-43.52 25.2416-108.3392 106.7008-166.8608 110.1312-169.3184 16.3328-11.52 38.9632-7.6288 50.5344 8.704a36.26496 36.26496 0 0 1-8.6016 50.432z" fill="#FF5F89" ></path><path d="M339.8144 328.704c-1.0752 0.768-62.7712 46.2336-81.4592 126.6176-0.4096 1.8432-1.024 3.5328-1.7408 5.2224 126.0544-70.5536 219.136-192.8192 250.5216-338.1248-119.6032 1.28-274.3808 54.8864-362.9056 211.2512-38.0928 67.2768-50.9952 130.4064-46.3872 183.6544a506.93632 506.93632 0 0 0 115.712-35.2768c-18.7392-5.0688-30.2592-24.1152-25.8048-43.1616 25.2416-108.3392 106.7008-166.8608 110.1312-169.3184 16.3328-11.52 38.9632-7.6288 50.5344 8.704a36.26496 36.26496 0 0 1-8.6016 50.432z" fill="#FF7196" ></path></svg>