<svg viewBox="0 0 1024 1024" version="1.1" xmlns="http://www.w3.org/2000/svg"><path d="M894.8736 417.28h-191.8464l73.5232-147.0976h69.0688c23.1936 0 41.984-18.7904 41.984-41.984s-18.7904-41.984-41.984-41.984H750.592c-15.872 0-30.4128 8.96-37.5296 23.1936l-103.1168 206.2336c-0.256 0.512-0.4608 1.0752-0.7168 1.5872H126.0032c0 212.2752 172.0832 384.4096 384.4096 384.4096 212.3264 0.0512 384.4608-172.0832 384.4608-384.3584z" fill="#2595E8" ></path><path d="M307.3024 83.7632c-166.3488 102.9632-182.272 287.5904-182.272 287.5904h358.7584S425.728 270.6944 307.3024 83.7632z" fill="#59ADF8" ></path><path d="M277.8112 795.2384c-37.12 0-67.1744 30.1056-67.1744 67.1744s30.1056 67.1744 67.1744 67.1744 67.1744-30.1056 67.1744-67.1744-30.0544-67.1744-67.1744-67.1744zM750.4896 795.2384c-37.12 0-67.1744 30.1056-67.1744 67.1744s30.1056 67.1744 67.1744 67.1744c37.12 0 67.1744-30.1056 67.1744-67.1744s-30.0544-67.1744-67.1744-67.1744z" fill="#2595E8" ></path><path d="M804.1984 417.28h-101.1712l73.5232-147.0976h54.9888c0.5632-10.7008 0.9216-21.4528 0.9216-32.3072 0-17.408-0.9216-34.6112-2.4064-51.6608H750.592c-15.872 0-30.4128 8.96-37.5296 23.1936l-103.1168 206.2336c-0.256 0.512-0.4608 1.0752-0.7168 1.5872H126.0032c0 183.808 129.0752 337.408 301.4656 375.3472 178.3296-56.9344 319.1808-197.3248 376.7296-375.296zM226.048 819.6096c8.0384 0.3072 16.0768 0.6144 24.1664 0.6144 25.5488 0 50.688-1.8432 75.3664-5.0176-12.1856-12.288-29.0816-19.968-47.7696-19.968-20.8384 0-39.424 9.472-51.7632 24.3712z" fill="#3A9CED" ></path><path d="M526.592 417.28H126.1056c0 69.0688 18.3296 133.8368 50.176 189.8496 138.7008-20.3776 261.4784-89.7024 350.3104-189.8496z" fill="#59ADF8" ></path><path d="M307.3024 83.7632c-166.3488 102.9632-182.272 287.5904-182.272 287.5904h21.248c92.7744-34.2528 174.2848-91.5968 237.9264-164.864-22.016-35.4816-47.616-76.4416-76.9024-122.7264z" fill="#6BC2FC" ></path></svg>