<svg viewBox="0 0 1024 1024" version="1.1" xmlns="http://www.w3.org/2000/svg"><path d="M406.8864 219.5968l-303.2064 300.4928c-36.5056 36.5056-36.5056 95.6928 0 132.1984l266.5984 266.5984c36.5056 36.5056 95.6928 36.5056 132.1984 0l303.2064-300.4928-398.7968-398.7968z m22.3744 220.672l-167.168 164.5056a48.80896 48.80896 0 0 1-34.6112 14.336 48.64 48.64 0 0 1-34.6112-14.336 48.9472 48.9472 0 0 1 0-69.2736l167.168-164.5056a48.9472 48.9472 0 0 1 69.2736 0c19.0464 19.0976 19.0464 50.1248-0.0512 69.2736zM906.1888 189.4912l28.2624-30.7712c18.2784-19.9168 16.9984-50.8928-2.9184-69.2224-19.9168-18.2784-50.8928-16.9984-69.2224 2.9184l-26.0608 28.3648c-113.7152-78.3872-223.4368-18.5344-265.5232 10.9056l-21.1456-20.8896c-19.2512-19.0464-50.2272-18.8416-69.2736 0.3584-18.9952 19.2512-18.8416 50.2272 0.3584 69.2736l365.7728 361.7792a48.896 48.896 0 0 0 34.4576 14.1312c12.6464 0 25.2416-4.864 34.816-14.5408 18.9952-19.2512 18.8416-50.2272-0.3584-69.2736l-24.832-24.576c32.512-44.544 91.4944-151.0912 15.6672-258.4576z" fill="#BD50D3" ></path><path d="M570.7776 131.7376l-21.1456-20.8896c-19.2512-19.0464-50.2272-18.8416-69.2736 0.3584-18.9952 19.2512-18.8416 50.2272 0.3584 69.2736l326.4512 322.8672a468.30592 468.30592 0 0 0 30.464-166.4c0-91.3408-26.1632-176.4864-71.3216-248.6272-86.528-22.2208-162.2528 20.0704-195.5328 43.4176zM768.8704 581.5808l-361.984-361.984-303.2064 300.4928c-36.5056 36.5056-36.5056 95.6928 0 132.1984l135.7312 135.7312a468.67456 468.67456 0 0 0 129.024 18.1248c169.5232 0 318.0032-89.856 400.4352-224.5632z m-339.6096-141.312l-167.168 164.5056c-9.5744 9.5744-22.1184 14.336-34.6112 14.336s-25.088-4.7616-34.6112-14.336a48.9472 48.9472 0 0 1 0-69.2736l167.168-164.5056a48.9472 48.9472 0 0 1 69.2736 0c19.0464 19.0976 19.0464 50.1248-0.0512 69.2736z" fill="#C65EDB" ></path><path d="M709.3248 170.3424c0-30.0032-2.9184-59.2896-8.2944-87.7056-58.0096 4.352-105.6768 31.8464-130.2528 49.1008l-21.1456-20.8896c-19.2512-19.0464-50.2272-18.8416-69.2736 0.3584-18.9952 19.2512-18.8416 50.2272 0.3584 69.2736l186.368 184.32a467.2512 467.2512 0 0 0 42.24-194.4576zM625.3568 438.0672L406.8864 219.5968l-303.2064 300.4928c-24.7296 24.7296-32.6656 59.8528-23.8592 91.2896 50.0224 18.176 103.9872 28.1088 160.3072 28.1088 159.5904 0.0512 300.4928-79.6672 385.2288-201.4208z m-432.5888 166.7072a48.9472 48.9472 0 0 1 0-69.2736L359.936 370.9952a48.9472 48.9472 0 0 1 69.2736 0 48.9472 48.9472 0 0 1 0 69.2736l-167.168 164.5056c-9.5744 9.5744-22.1184 14.336-34.6112 14.336s-25.088-4.7616-34.6624-14.336z" fill="#CA6EE0" ></path><path d="M570.7776 131.7376l-21.1456-20.8896c-19.2512-19.0464-50.2272-18.8416-69.2736 0.3584-18.9952 19.2512-18.8416 50.2272 0.3584 69.2736l51.7632 51.2a466.4832 466.4832 0 0 0 41.8304-102.4512c-1.1776 0.8704-2.4064 1.6896-3.5328 2.5088zM406.8864 219.5968L151.808 472.4736c46.7968-2.9184 91.6992-12.6464 133.7856-28.2624l74.3936-73.216c16.896-16.896 43.008-18.8416 62.1056-5.888 23.6544-19.712 45.312-41.6768 64.7168-65.5872L406.8864 219.5968z" fill="#D786EA" ></path></svg>