<svg viewBox="0 0 1024 1024" version="1.1" xmlns="http://www.w3.org/2000/svg"><path d="M337.408 333.4144c8.8576 13.0048 24.7808 39.5776 31.5392 63.7952h287.6416c1.5872-4.864 3.84-9.984 6.912-16.0256 8.0384-15.6672 32.5632-50.688 43.1104-67.072 10.5472-16.3328 20.5824-39.424 16.7936-86.6304-3.7888-47.2576-16.128-131.1744-16.128-146.6368-14.336 0-53.504-4.9152-53.504-4.9152s-18.7904 59.8016-51.5072 99.3792c-32.6656 39.6288-78.0288 85.504-87.0912 183.2448-15.4624-96.7168-52.736-142.7456-74.24-166.5536-21.504-23.8592-62.9248-80.5888-65.6896-116.5312l-52.8384 4.7104s-25.2928 150.4256-14.5408 193.4336c4.5056 18.8416 18.1248 43.008 29.5424 59.8016z" fill="#FF5F89" ></path><path d="M919.7568 745.0112c-16.5888-32.256-63.3344-135.5776-233.5232-285.1328-9.5232-7.9872-16.2304-13.056-21.0432-16.9984H365.9264c-5.5808 9.8816-13.6192 15.5648-18.6368 20.5824-8.2944 8.2944-130.304 115.968-237.312 285.2352-6.7072 10.2912-13.2096 26.9824 0.7168 35.6864 13.9264 8.7552 58.112 36.096 58.112 36.096s-29.2352 46.6944 22.3232 58.7776c51.5584 12.0832 130.4064 15.616 130.4064 15.616s-21.0432 50.3808 54.6304 38.5024 205.7728-20.3776 289.4848-5.8368c23.9616 4.0448 66.7136 18.5856 62.464-43.4176 36.9664-1.3312 81.4592-2.5088 104.448-5.376 22.9888-2.8672 59.2896-4.0448 31.3856-75.5712 38.0928-12.4416 36.9152-11.776 49.0496-15.616 12.0832-3.84 23.296-10.2912 6.7584-42.5472z" fill="#FF3369" ></path><path d="M686.2336 459.8784c-9.5232-7.9872-16.2304-13.056-21.0432-16.9984H365.9264c-5.5808 9.8816-13.6192 15.5648-18.6368 20.5824-8.2944 8.2944-130.304 115.968-237.312 285.2352-6.7072 10.2912-13.2096 26.9824 0.7168 35.6864 13.9264 8.7552 58.112 36.096 58.112 36.096s-29.2352 46.6944 22.3232 58.7776c51.5584 12.0832 130.4064 15.616 130.4064 15.616s-1.9968 4.7616-2.56 11.008c1.8432 0 3.6352 0.0512 5.4784 0.0512 217.6512 0 408.576-114.0736 516.4032-285.696-34.7648-44.288-84.0704-98.304-154.624-160.3584z" fill="#FF4D7C" ></path><path d="M647.4752 442.88H365.9264c-5.5808 9.8816-13.6192 15.5648-18.6368 20.5824-7.2704 7.2704-102.144 91.136-197.5808 225.9456 2.6624 0.0512 5.376 0.1024 8.0384 0.1024 200.6528 0.0512 378.6752-96.9728 489.728-246.6304z" fill="#FF5F89" ></path><path d="M479.3856 246.272c-13.6704-25.5488-27.904-42.5984-38.4512-54.2208-21.504-23.8592-62.9248-80.5888-65.6896-116.5312l-52.8384 4.7104s-25.2928 150.4256-14.5408 193.4336c4.4544 18.7904 18.1248 43.008 29.5424 59.8016 4.6592 6.8608 11.264 17.5104 17.5104 29.5936 46.7968-32.9728 88.6784-72.3456 124.4672-116.7872z" fill="#FF7196" ></path></svg>