<svg viewBox="0 0 1024 1024" version="1.1" xmlns="http://www.w3.org/2000/svg"><path d="M781.824 131.7376H241.8688c-76.6464 0-138.8032 62.1568-138.8032 138.8032v480.4096c0 76.6464 62.1568 138.8032 138.8032 138.8032H781.824c76.6464 0 138.8032-62.1568 138.8032-138.8032V270.5408c0-76.6976-62.1568-138.8032-138.8032-138.8032z m-163.84 237.1072c0-6.3488 5.1712-11.52 11.52-11.52h83.6096c6.3488 0 11.52 5.1712 11.52 11.52v252.928c0 6.3488-5.1712 11.52-11.52 11.52h-83.6096c-6.3488 0-11.52-5.1712-11.52-11.52v-252.928zM458.5472 285.6448c0-6.3488 5.1712-11.52 11.52-11.52h83.6096c6.3488 0 11.52 5.1712 11.52 11.52v336.1792c0 6.3488-5.1712 11.52-11.52 11.52H470.0672c-6.3488 0-11.52-5.1712-11.52-11.52V285.6448zM299.0592 453.1712c0-6.3488 5.1712-11.52 11.52-11.52h83.6096c6.3488 0 11.52 5.1712 11.52 11.52v168.6016c0 6.3488-5.1712 11.52-11.52 11.52H310.5792c-6.3488 0-11.52-5.1712-11.52-11.52V453.1712z m447.4368 312.7808H278.0672c-23.552 0-42.5984-19.0976-42.5984-42.5984s19.0976-42.5984 42.5984-42.5984h468.4288a42.5984 42.5984 0 0 1 0 85.1968z" fill="#BD50D3" ></path><path d="M781.824 131.7376H241.8688c-76.6464 0-138.8032 62.1568-138.8032 138.8032v480.4096c0 59.392 37.3248 109.8752 89.7536 129.7408 32.6144 5.2736 66.0992 8.0384 100.1984 8.0384 139.3664 0 268.0832-45.6192 372.0704-122.7264H278.016c-23.552 0-42.5984-19.0976-42.5984-42.5984s19.0976-42.5984 42.5984-42.5984h468.4288c3.7376 0 7.3728 0.512 10.8544 1.4336 100.0448-110.848 160.9728-257.6896 160.9728-418.7648 0-6.656-0.1536-13.2608-0.3584-19.8144-12.4928-63.7952-68.6592-111.9232-136.0896-111.9232z m-376.1152 490.0352c0 6.3488-5.1712 11.52-11.52 11.52H310.5792c-6.3488 0-11.52-5.1712-11.52-11.52V453.1712c0-6.3488 5.1712-11.52 11.52-11.52h83.6096c6.3488 0 11.52 5.1712 11.52 11.52v168.6016z m159.4368 0c0 6.3488-5.1712 11.52-11.52 11.52H470.0672c-6.3488 0-11.52-5.1712-11.52-11.52V285.6448c0-6.3488 5.1712-11.52 11.52-11.52h83.6096c6.3488 0 11.52 5.1712 11.52 11.52v336.128z m159.488 0c0 6.3488-5.1712 11.52-11.52 11.52h-83.6096c-6.3488 0-11.52-5.1712-11.52-11.52v-252.928c0-6.3488 5.1712-11.52 11.52-11.52h83.6096c6.3488 0 11.52 5.1712 11.52 11.52v252.928z" fill="#BF5CD6" ></path><path d="M103.0656 666.3168c6.2976 0.2048 12.5952 0.3072 18.944 0.3072 70.656 0 138.5984-11.7248 201.984-33.3312h-13.4144c-6.3488 0-11.52-5.1712-11.52-11.52V453.1712c0-6.3488 5.1712-11.52 11.52-11.52h83.6096c6.3488 0 11.52 5.1712 11.52 11.52v145.5616c18.1248-9.2672 35.7888-19.3536 52.8384-30.2592V285.6448c0-6.3488 5.1712-11.52 11.52-11.52h83.6096c6.3488 0 11.52 5.1712 11.52 11.52v196.864c18.8928-18.944 36.5056-39.1168 52.8384-60.3648v-53.248c0-6.3488 5.1712-11.52 11.52-11.52h32.1024c39.936-68.0448 67.328-144.2816 79.104-225.6384H241.8688c-76.6464 0-138.8032 62.1568-138.8032 138.8032v395.776z" fill="#CA6EE0" ></path><path d="M506.9312 131.7376H241.8688c-76.6464 0-138.8032 62.1568-138.8032 138.8032v159.488c172.544-39.0144 318.0544-149.2992 403.8656-298.2912z" fill="#D786EA" ></path></svg>