<svg viewBox="0 0 1024 1024" version="1.1" xmlns="http://www.w3.org/2000/svg"><path d="M289.6896 922.9824H167.7312c-33.8944 0-61.3376-27.4432-61.3376-61.3376V445.0816c0-33.8944 27.4432-61.3376 61.3376-61.3376h122.0096c33.8944 0 61.3376 27.4432 61.3376 61.3376v416.5632c0 33.8432-27.4944 61.3376-61.3888 61.3376z" fill="#3A9CED" ></path><path d="M576.4608 922.9824H452.9152c-33.4336 0-60.5696-27.136-60.5696-60.5696V162.9696c0-33.4336 27.136-60.5696 60.5696-60.5696h123.5456c33.4336 0 60.5696 27.136 60.5696 60.5696v699.4432c0 33.4336-27.0848 60.5696-60.5696 60.5696zM880.0768 922.9824h-158.7712c-23.7568 0-42.9568-19.2512-42.9568-42.9568v-254.6176c0-23.7568 19.2512-42.9568 42.9568-42.9568h158.7712c23.7568 0 42.9568 19.2512 42.9568 42.9568v254.6176c0 23.7056-19.2512 42.9568-42.9568 42.9568z" fill="#2595E8" ></path><path d="M577.6384 102.4H451.7888c-32.8192 0-59.4432 26.624-59.4432 59.4432v701.696c0 32.8192 26.624 59.4432 59.4432 59.4432h94.8736c30.5664-11.8784 59.904-26.1632 87.9104-42.496 1.5872-5.376 2.4576-11.0592 2.4576-16.9472V161.8432c0-32.8192-26.5728-59.4432-59.392-59.4432zM892.5184 589.9776c-8.5504-4.7616-18.432-7.5264-28.928-7.5264H737.792c-32.8192 0-59.4432 26.624-59.4432 59.4432v210.4832c93.4912-65.6896 168.1408-156.416 214.1696-262.4z" fill="#3A9CED" ></path><path d="M291.6352 383.6928H165.7856c-32.8192 0-59.4432 26.624-59.4432 59.4432v299.2128c14.3872 0.9728 28.8768 1.536 43.4688 1.536 70.4 0 138.0864-11.6736 201.216-33.1776V443.136c0.0512-32.8192-26.5728-59.4432-59.392-59.4432zM637.0304 509.44V161.8432c0-32.8192-26.624-59.4432-59.4432-59.4432H451.7888c-32.8192 0-59.4432 26.624-59.4432 59.4432v533.1456c96.3584-40.7552 180.2752-105.0112 244.6848-185.5488z" fill="#59ADF8" ></path><path d="M106.3424 443.136v69.7856a620.288 620.288 0 0 0 237.6704-97.8432c-10.0352-18.688-29.696-31.3856-52.3776-31.3856H165.7856c-32.8192 0-59.4432 26.624-59.4432 59.4432zM582.7072 102.656c-1.6896-0.1536-3.3792-0.256-5.12-0.256H451.7888c-32.8192 0-59.4432 26.624-59.4432 59.4432v216.7296c86.4256-72.192 152.9856-167.2704 190.3616-275.9168z" fill="#6BC2FC" ></path></svg>