<svg viewBox="0 0 1024 1024" version="1.1" xmlns="http://www.w3.org/2000/svg"><path d="M518.0928 358.2464c-85.1456 0-154.4192 69.2736-154.4192 154.4192s69.2736 154.4192 154.4192 154.4192c85.1456 0 154.4192-69.2736 154.4192-154.4192s-69.2736-154.4192-154.4192-154.4192z" fill="#05C46D" ></path><path d="M754.6368 113.5104H263.3728c-82.3808 0-149.1456 66.7648-149.1456 149.1456v500.0192c0 82.3808 66.7648 149.1456 149.1456 149.1456h491.264c82.3808 0 149.1456-66.7648 149.1456-149.1456V262.656c0-82.3808-66.816-149.1456-149.1456-149.1456zM205.7728 270.336c0-31.7952 25.7536-57.5488 57.5488-57.5488s57.5488 25.7536 57.5488 57.5488-25.7536 57.5488-57.5488 57.5488-57.5488-25.7536-57.5488-57.5488z m312.32 476.8768c-129.3312 0-234.5472-105.216-234.5472-234.5472s105.216-234.5472 234.5472-234.5472S752.64 383.3344 752.64 512.6656s-105.216 234.5472-234.5472 234.5472z" fill="#05C46D" ></path><path d="M856.832 154.2144c-26.7264-25.1904-62.6176-40.704-102.1952-40.704H263.3728c-82.3808 0-149.1456 66.7648-149.1456 149.1456v500.0192c0 82.3808 66.7648 149.1456 149.1456 149.1456h134.8608c273.408-68.7104 475.8528-316.1088 475.8528-610.816a636.0576 636.0576 0 0 0-17.2544-146.7904zM205.7728 270.336c0-31.7952 25.7536-57.5488 57.5488-57.5488s57.5488 25.7536 57.5488 57.5488-25.7536 57.5488-57.5488 57.5488c-31.744 0-57.5488-25.7536-57.5488-57.5488z m312.32 476.8768c-129.3312 0-234.5472-105.216-234.5472-234.5472s105.216-234.5472 234.5472-234.5472S752.64 383.3344 752.64 512.6656s-105.216 234.5472-234.5472 234.5472z" fill="#1DCE75" ></path><path d="M616.5504 393.8304a153.56416 153.56416 0 0 0-98.4576-35.584c-85.1456 0-154.4192 69.2736-154.4192 154.4192 0 38.7584 14.4384 74.1376 38.144 101.2736a632.65792 632.65792 0 0 0 214.7328-220.1088z" fill="#3CD38E" ></path><path d="M114.2272 262.656v443.0336c76.3392-5.0688 148.9408-23.6544 215.4496-53.504a233.216 233.216 0 0 1-46.1312-139.52c0-129.3312 105.216-234.5472 234.5472-234.5472 50.176 0 96.6656 15.872 134.8608 42.8032 27.0336-64.4096 43.6224-134.2464 47.7696-207.4112H263.3728c-82.3808 0-149.1456 66.7648-149.1456 149.1456z m206.6944 7.68c0 31.7952-25.7536 57.5488-57.5488 57.5488S205.824 302.1312 205.824 270.336s25.7536-57.5488 57.5488-57.5488c31.7952-0.0512 57.5488 25.7536 57.5488 57.5488z" fill="#3CD38E" ></path><path d="M114.2272 262.656v188.9792c166.5024-55.9104 301.9264-179.5072 373.5552-338.1248H263.3728c-82.3808 0-149.1456 66.7648-149.1456 149.1456z m206.6944 7.68c0 31.7952-25.7536 57.5488-57.5488 57.5488S205.824 302.1312 205.824 270.336s25.7536-57.5488 57.5488-57.5488c31.7952-0.0512 57.5488 25.7536 57.5488 57.5488z" fill="#48E1AA" ></path></svg>