<svg viewBox="0 0 1024 1024" version="1.1" xmlns="http://www.w3.org/2000/svg"><path d="M902.0928 212.3776h-94.0544v-59.904c0-22.0672-17.92-39.9872-39.9872-39.9872H262.8096c-22.0672 0-39.9872 17.92-39.9872 39.9872v59.904H125.696c-22.0672 0-39.9872 17.92-39.9872 39.9872v107.9296c0 83.5584 63.9488 152.4224 145.4592 160.256 28.2624 115.6096 125.3888 204.4928 245.3504 220.4672v86.7328H321.8432c-22.0672 0-39.9872 17.92-39.9872 39.9872s17.92 39.9872 39.9872 39.9872h389.3248c22.0672 0 39.9872-17.92 39.9872-39.9872s-17.92-39.9872-39.9872-39.9872h-154.6752v-87.04c119.04-16.7936 215.2448-105.472 243.2-220.5696 80.0256-9.2672 142.336-77.4144 142.336-159.8976V252.3648c0.0512-22.0672-17.8688-39.9872-39.936-39.9872zM222.8224 437.7088c-33.024-10.24-57.088-41.0624-57.088-77.4656V292.352h57.088v145.3568z m375.0912 85.5552l-84.0192-44.1856-84.0192 44.1856 16.0256-93.5424L378.0096 363.52l93.9008-13.6704 41.984-85.0944 41.984 85.0944L649.8304 363.52l-67.9424 66.2528 16.0256 93.4912z m264.192-162.9696c0 35.2256-22.6304 65.1776-54.0672 76.3392V292.352h54.0672v67.9424z" fill="#FF8E12" ></path><path d="M808.0384 152.4736c0-22.0672-17.92-39.9872-39.9872-39.9872H262.8096c-22.0672 0-39.9872 17.92-39.9872 39.9872v59.904H125.696c-22.0672 0-39.9872 17.92-39.9872 39.9872v107.9296c0 83.5584 63.9488 152.4224 145.4592 160.256 15.4624 63.1296 51.456 118.272 100.4544 157.952 8.6528 0.4608 17.3568 0.6656 26.112 0.6656 198.0928 0 369.2544-115.1488 450.2528-282.112V292.352h36.864a495.25248 495.25248 0 0 0 11.8272-79.9744h-48.6912v-59.904zM222.8224 437.7088c-33.024-10.24-57.088-41.0624-57.088-77.4144V292.352h57.088v145.3568z m375.0912 85.5552l-84.0192-44.1856-84.0192 44.1856 16.0256-93.5424L378.0096 363.52l93.9008-13.6704 41.984-85.0944 41.984 85.0944L649.8304 363.52l-67.9424 66.2528 16.0256 93.4912z" fill="#FCA315" ></path><path d="M445.952 429.7728L378.0096 363.52l93.9008-13.6704 41.984-85.0944 41.984 85.0944 20.7872 3.0208a499.36896 499.36896 0 0 0 131.9424-240.384H262.8096c-22.0672 0-39.9872 17.92-39.9872 39.9872v59.904H125.696c-22.0672 0-39.9872 17.92-39.9872 39.9872v107.9296c0 58.5216 31.4368 109.7216 78.2336 137.8816a498.11456 498.11456 0 0 0 278.5792-48.4352l3.4304-19.968z m-223.1296 7.936c-33.024-10.24-57.088-41.0624-57.088-77.4144V292.352h57.088v145.3568z" fill="#FCB138" ></path><path d="M503.808 112.4864H262.8096c-22.0672 0-39.9872 17.92-39.9872 39.9872v59.904H125.696c-22.0672 0-39.9872 17.92-39.9872 39.9872v71.8848c3.1232 0.0512 6.2464 0.256 9.3696 0.256 23.9616 0 47.5136-1.792 70.5536-5.0688V292.352H222.72v15.616c115.3536-30.3104 214.2208-100.7616 281.088-195.4816z" fill="#FFC65E" ></path></svg>