<svg viewBox="0 0 1024 1024" version="1.1" xmlns="http://www.w3.org/2000/svg"><path d="M689.664 842.496H146.432c-19.0464 0-34.4576 15.4624-34.4576 34.4576v4.3008c0 19.0464 15.4624 34.4576 34.4576 34.4576h543.232c19.0464 0 34.4576-15.4624 34.4576-34.4576v-4.3008c0-18.9952-15.4112-34.4576-34.4576-34.4576zM881.0496 540.8768l-290.816-113.152 37.8368-97.1776c21.1968 6.912 44.3392-3.84 52.48-24.832 8.4992-21.76-2.304-46.2848-24.1152-54.784L328.704 123.392a42.3424 42.3424 0 0 0-54.784 24.1152 42.3424 42.3424 0 0 0 24.1152 54.784l1.536 0.6144L161.3824 558.08a42.21952 42.21952 0 0 0-52.992 24.6784 42.3424 42.3424 0 0 0 24.1152 54.784l327.7312 127.488a42.3424 42.3424 0 0 0 54.784-24.1152 42.3424 42.3424 0 0 0-24.1152-54.784l-1.024-0.4096 38.8608-99.8912 290.816 113.152c41.1136 15.9744 87.3472-4.352 103.3728-45.4656l3.6352-9.2672c15.9232-41.1136-4.4032-87.3984-45.5168-103.3728zM375.1424 338.176L310.8352 508.0576c-5.12 13.568-18.176 21.8112-31.8976 21.5552a33.32096 33.32096 0 0 1-30.464-45.1584l64.3072-169.9328a33.38752 33.38752 0 0 1 43.008-19.4048 33.43872 33.43872 0 0 1 19.3536 43.0592z" fill="#F23D4F" ></path><path d="M541.7472 842.496H146.432c-19.0464 0-34.4576 15.4624-34.4576 34.4576v4.3008c0 19.0464 15.4624 34.4576 34.4576 34.4576h244.7872c54.0672-17.1008 104.6528-41.9328 150.528-73.216zM715.008 658.3296c28.672-48.2816 50.5856-101.0176 64.4096-156.9792l-189.184-73.5744 37.7856-97.1776c21.1968 6.912 44.3392-3.84 52.48-24.832a42.3424 42.3424 0 0 0-24.1152-54.784l-327.68-127.5904a42.3424 42.3424 0 0 0-54.784 24.1152 42.3424 42.3424 0 0 0 24.1152 54.784l1.536 0.6144L161.3824 558.08a42.21952 42.21952 0 0 0-52.992 24.6784 42.3424 42.3424 0 0 0 24.1152 54.784l327.7312 127.488a42.3424 42.3424 0 0 0 54.784-24.1152 42.3424 42.3424 0 0 0-24.1152-54.784l-1.024-0.4096 38.8608-99.8912 186.2656 72.4992zM375.1424 338.176L310.8352 508.0576c-5.12 13.568-18.176 21.8112-31.8976 21.5552a33.32096 33.32096 0 0 1-30.464-45.1584l64.3072-169.9328a33.38752 33.38752 0 0 1 43.008-19.4048 33.43872 33.43872 0 0 1 19.3536 43.0592z" fill="#FC4956" ></path><path d="M630.9888 240.9984L328.704 123.392a42.3424 42.3424 0 0 0-54.784 24.1152 42.3424 42.3424 0 0 0 24.1152 54.784l1.536 0.6144L161.3824 558.08a42.21952 42.21952 0 0 0-52.992 24.6784 42.3424 42.3424 0 0 0 24.1152 54.784l143.6672 55.9104c186.4192-76.4416 324.4032-246.8864 354.816-452.4544zM375.1424 338.176L310.8352 508.0576c-5.12 13.568-18.176 21.8112-31.8976 21.5552a33.32096 33.32096 0 0 1-30.464-45.1584l64.3072-169.9328a33.38752 33.38752 0 0 1 43.008-19.4048 33.43872 33.43872 0 0 1 19.3536 43.0592z" fill="#FF5C64" ></path><path d="M328.704 123.392a42.3424 42.3424 0 0 0-54.784 24.1152 42.3424 42.3424 0 0 0 24.1152 54.784l1.536 0.6144L202.752 451.6352a581.4784 581.4784 0 0 0 79.1552-55.6032l30.8224-81.4592a33.38752 33.38752 0 0 1 43.008-19.4048c5.632 2.0992 10.1888 5.6832 13.7728 9.984 31.8464-41.1136 58.2656-86.5792 78.2848-135.424L328.704 123.392z" fill="#FF716E" ></path></svg>