<svg viewBox="0 0 1024 1024" version="1.1" xmlns="http://www.w3.org/2000/svg"><path d="M563.8656 383.1296c32.8704 0 59.5968-26.7264 59.5968-59.5968 0-32.8704-26.7264-59.5968-59.5968-59.5968-32.8704 0-59.5968 26.7264-59.5968 59.5968 0 32.8704 26.7264 59.5968 59.5968 59.5968z" fill="#FF5F89" ></path><path d="M888.4224 400.8448l-139.1616 76.2368v-1.2288c0-25.5488-12.288-48.2304-31.1808-62.5664 15.36-26.368 24.2176-56.9856 24.2176-89.7024 0-98.56-79.872-178.432-178.432-178.432S385.4336 225.024 385.4336 323.584c0 26.2656 5.7344 51.2 15.9232 73.6768H333.2096c1.7408-8.2944 2.6624-16.9472 2.6624-25.7536 0-68.864-55.808-124.672-124.672-124.672S86.4768 302.592 86.4768 371.456c0 29.5936 10.3424 56.832 27.5968 78.1824-2.9184 8.192-4.5568 16.9984-4.5568 26.1632V757.76c0 43.4176 35.1744 78.592 78.592 78.592h482.5088c43.4176 0 78.592-35.1744 78.592-78.592v-27.9552l139.9296 72.3968c24.1152 12.4928 52.8896-5.0176 52.8896-32.1536V432.64c0.0512-27.5456-29.44-45.056-53.6064-31.7952z m-324.5568-179.3536c56.2688 0 102.0416 45.7728 102.0416 102.0416s-45.7728 102.0416-102.0416 102.0416S461.824 379.8016 461.824 323.5328c0.0512-56.2688 45.824-102.0416 102.0416-102.0416z m121.0368 503.04c0 29.9008-24.32 54.2208-54.2208 54.2208H472.7808c-17.6128 0-31.8464-14.2848-31.8464-31.8464s14.2848-31.8464 31.8464-31.8464h148.4288v-46.7456a31.8464 31.8464 0 0 1 63.6928 0v56.2176z" fill="#FF3369" ></path><path d="M676.5568 753.3056c87.04-85.5552 146.432-199.0656 163.6352-326.0416l-90.9312 49.8176v-1.2288c0-25.5488-12.288-48.2304-31.1808-62.5664 15.36-26.368 24.2176-56.9856 24.2176-89.7024 0-98.56-79.872-178.432-178.432-178.432S385.4336 225.024 385.4336 323.584c0 26.2656 5.7344 51.2 15.9232 73.6768H333.2096c1.7408-8.2944 2.6624-16.9472 2.6624-25.7536 0-68.864-55.808-124.672-124.672-124.672-68.864 0-124.672 55.808-124.672 124.672 0 29.5936 10.3424 56.832 27.5968 78.1824-2.9184 8.192-4.5568 16.9984-4.5568 26.1632V757.76c0 43.4176 35.1744 78.592 78.592 78.592h380.672c31.1808-18.5344 60.4672-39.9872 87.3984-64-7.6288 4.096-16.3328 6.4-25.5488 6.4H472.7808c-17.6128 0-31.8464-14.2848-31.8464-31.8464s14.2848-31.8464 31.8464-31.8464h148.4288v-46.7456a31.8464 31.8464 0 0 1 63.6928 0v56.2688c0 10.5472-3.1232 20.3776-8.3456 28.7232z m-112.6912-327.7824c-56.2688 0-102.0416-45.7728-102.0416-102.0416s45.7728-102.0416 102.0416-102.0416 102.0416 45.7728 102.0416 102.0416c0 56.32-45.7728 102.0416-102.0416 102.0416z" fill="#FF4D7C" ></path><path d="M109.5168 714.496c5.5808 0.1536 11.1616 0.256 16.7936 0.256 223.1296 0 416-129.4336 507.6992-317.3376-18.2784 17.3568-42.9568 28.1088-70.144 28.1088-56.2688 0-102.0416-45.7728-102.0416-102.0416s45.7728-102.0416 102.0416-102.0416c54.3232 0 98.7136 42.7008 101.7344 96.256a562.8928 562.8928 0 0 0 23.3984-121.3952c-32.2048-31.6928-76.3904-51.2512-125.1328-51.2512-98.56 0-178.432 79.872-178.432 178.432 0 26.2656 5.7344 51.2 15.9232 73.6768H333.2096c1.7408-8.2944 2.6624-16.9472 2.6624-25.7536 0-68.864-55.808-124.672-124.672-124.672-68.864 0-124.672 55.808-124.672 124.672 0 29.5936 10.3424 56.832 27.5968 78.1824-2.9184 8.192-4.5568 16.9984-4.5568 26.1632v238.7456z" fill="#FF5F89" ></path><path d="M385.4848 323.5328c0 7.68 0.5632 15.2064 1.4848 22.5792 53.76-54.6816 96.4608-120.2688 124.4672-193.1776-72.96 22.4256-125.952 90.3168-125.952 170.5984zM109.5168 501.0432c83.2-18.8416 159.4368-56.064 224.2048-107.1616 1.3312-7.2704 2.1504-14.7456 2.1504-22.4256 0-68.864-55.808-124.672-124.672-124.672-68.864 0-124.672 55.808-124.672 124.672 0 29.5936 10.3424 56.832 27.5968 78.1824-2.9184 8.192-4.5568 16.9984-4.5568 26.1632v25.2416z" fill="#FF7196" ></path></svg>