<svg viewBox="0 0 1024 1024" version="1.1" xmlns="http://www.w3.org/2000/svg"><path d="M861.2352 252.672h-103.7312a31.0784 31.0784 0 0 1-28.8768-19.6096l-23.1424-58.5728c-7.8336-19.7632-26.9312-32.768-48.1792-32.768H372.0704c-21.8624 0-41.3696 13.7216-48.7424 34.304l-20.1728 56.1664a30.98624 30.98624 0 0 1-29.184 20.5312H166.8096c-48.6912 0-88.1152 39.4752-88.1152 88.1152v441.4464c0 48.6912 39.4752 88.1152 88.1152 88.1152h694.4256c48.6912 0 88.1152-39.4752 88.1152-88.1152V340.7872c0-48.6912-39.4752-88.1152-88.1152-88.1152z m-347.2384 481.8432c-110.4896 0-200.3456-89.856-200.3456-200.3456S403.5072 333.824 513.9968 333.824s200.3456 89.856 200.3456 200.3456-89.856 200.3456-200.3456 200.3456z m281.9584-321.9456c-26.5728 0-48.128-21.5552-48.128-48.128s21.5552-48.128 48.128-48.128 48.128 21.5552 48.128 48.128-21.5552 48.128-48.128 48.128z" fill="#6C6CEA" ></path><path d="M513.9968 534.1696m-122.7776 0a122.7776 122.7776 0 1 0 245.5552 0 122.7776 122.7776 0 1 0-245.5552 0Z" fill="#757BF2" ></path><path d="M861.2352 252.672h-103.7312a31.0784 31.0784 0 0 1-28.8768-19.6096l-23.1424-58.5728c-7.8336-19.7632-26.9312-32.768-48.1792-32.768H372.0704c-21.8624 0-41.3696 13.7216-48.7424 34.304l-20.1728 56.1664a30.98624 30.98624 0 0 1-29.184 20.5312H166.8096c-48.6912 0-88.1152 39.4752-88.1152 88.1152v441.4464c0 48.6912 39.4752 88.1152 88.1152 88.1152h326.0928c246.9888-86.2208 424.2944-321.024 424.6528-597.2992-15.2576-12.8-34.9184-20.4288-56.32-20.4288z m-347.2384 481.8432c-110.4896 0-200.3456-89.856-200.3456-200.3456 0-110.4896 89.9072-200.3456 200.3456-200.3456 110.4896 0 200.3456 89.856 200.3456 200.3456 0.0512 110.4896-89.856 200.3456-200.3456 200.3456z m281.9584-321.9456c-26.5728 0-48.128-21.5552-48.128-48.128s21.5552-48.128 48.128-48.128 48.128 21.5552 48.128 48.128-21.5552 48.128-48.128 48.128z" fill="#757BF2" ></path><path d="M110.848 680.6528c81.664 0 159.6416-15.4624 231.3216-43.5712a199.26016 199.26016 0 0 1-28.5184-102.912c0-110.4896 89.9072-200.3456 200.3456-200.3456 51.0464 0 97.6384 19.2 133.0688 50.7392a630.79424 630.79424 0 0 0 74.6496-169.1136l-16.1792-40.96c-7.8336-19.7632-26.9312-32.768-48.1792-32.768H372.0704c-21.8624 0-41.3696 13.7216-48.7424 34.304l-20.1728 56.1664a30.98624 30.98624 0 0 1-29.184 20.5312H166.8096c-48.6912 0-88.1152 39.4752-88.1152 88.1152v339.0464c10.6496 0.512 21.3504 0.768 32.1536 0.768z" fill="#8486F8" ></path><path d="M601.344 448c-22.272-22.5792-53.1968-36.608-87.3472-36.608-67.6864 0-122.7776 55.0912-122.7776 122.7776 0 25.9584 8.1408 49.9712 21.9136 69.8368 72.4992-39.424 136.3456-92.6208 188.2112-156.0064z" fill="#8486F8" ></path><path d="M499.0464 141.6704h-126.976c-21.8624 0-41.3696 13.7216-48.7424 34.304l-20.1728 56.1664a30.98624 30.98624 0 0 1-29.184 20.5312H166.8096c-48.6912 0-88.1152 39.4752-88.1152 88.1152v102.912c179.3024-36.5568 331.008-148.8384 420.352-302.0288z" fill="#8D92F8" ></path></svg>