<svg viewBox="0 0 1024 1024" version="1.1" xmlns="http://www.w3.org/2000/svg"><path d="M474.5216 157.1328H199.3216c-13.9264 0-25.1904 10.2912-25.1904 22.9376v197.6832c0 12.6976 11.264 22.9376 25.1904 22.9376h275.2c13.9264 0 25.1904-10.2912 25.1904-22.9376V180.0704c0-12.6464-11.264-22.9376-25.1904-22.9376zM266.4448 284.5184c-9.3696 0-16.9984-7.5776-16.9984-16.9984V212.1728c0-9.3696 7.5776-16.9984 16.9984-16.9984 9.3696 0 16.9984 7.5776 16.9984 16.9984v55.3472c-0.0512 9.3696-7.6288 16.9984-16.9984 16.9984z m68.4032 0c-9.3696 0-16.9984-7.5776-16.9984-16.9984V212.1728c0-9.3696 7.5776-16.9984 16.9984-16.9984 9.3696 0 16.9984 7.5776 16.9984 16.9984v55.3472c0 9.3696-7.6288 16.9984-16.9984 16.9984z m68.4032 0c-9.3696 0-16.9984-7.5776-16.9984-16.9984V212.1728c0-9.3696 7.5776-16.9984 16.9984-16.9984 9.3696 0 16.9984 7.5776 16.9984 16.9984v55.3472c0 9.3696-7.5776 16.9984-16.9984 16.9984z" fill="#FF5F89" ></path><path d="M956.0064 684.1856c0-41.3184-32.2048-126.72-150.4768-140.6976-30.8224-77.0048-62.3104-158.8736-62.3104-158.8736s41.984-12.9536 41.984-48.2816-6.2976-47.2576-23.0912-61.5936h-118.9376a42.624 42.624 0 0 0-33.28-15.9744c-23.6032 0-42.7008 19.0976-42.7008 42.7008s19.0976 42.7008 42.7008 42.7008c8.3456 0 16.128-2.4576 22.7328-6.6048 1.6384 5.0688 3.328 10.4448 4.9152 16.2816 16.7936 61.952 33.5872 137.5232 38.8608 172.1856 5.2736 34.6624 13.1072 87.6544-8.3968 112.3328s-36.1984 46.1824-69.8368 46.1824H511.2832c-14.9504 0-51.2-16.7936-51.2-54.0672v-56.6784c0-13.6704 6.8608-56.1664 39.68-58.2656s42.24-17.152 42.24-44.0832-7.68-42.7008-55.6544-42.7008H194.0992c-20.3264 0-52.48 12.3904-52.48 45.3632 0 33.024 17.5104 34.4064 25.1904 39.3216s15.7696 13.312-3.4816 25.5488c-19.2512 12.2368-91.3408 67.8912-91.3408 185.4976v18.8928c0 12.544 10.1888 22.7328 22.7328 22.7328h59.648c5.9904 56.6272 53.9136 100.7616 112.128 100.7616s106.1376-44.1344 112.128-100.7616H696.32c5.9904 56.6272 53.9136 100.7616 112.128 100.7616 62.3104 0 112.7936-50.4832 112.7936-112.7936 0-4.7104-0.3584-9.3184-0.9216-13.8752h0.0512c19.5072 0 35.6352-14.6944 35.6352-56.0128zM266.496 789.1968a29.3888 29.3888 0 1 1 29.3888-29.3888c0.0512 16.2304-13.1072 29.3888-29.3888 29.3888z m545.9968 0a29.3888 29.3888 0 1 1 0-58.7776 29.3888 29.3888 0 0 1 0 58.7776z" fill="#FF3369" ></path><path d="M805.4784 543.488c-30.8224-77.0048-62.3104-158.8736-62.3104-158.8736s41.984-12.9536 41.984-48.2816-6.2976-47.2576-23.0912-61.5936h-118.9376a42.624 42.624 0 0 0-33.28-15.9744c-23.6032 0-42.7008 19.0976-42.7008 42.7008s19.0976 42.7008 42.7008 42.7008c8.3456 0 16.128-2.4576 22.7328-6.6048 1.6384 5.0688 3.328 10.4448 4.9152 16.2816 16.7936 61.952 33.5872 137.5232 38.8608 172.1856 5.2736 34.6624 13.1072 87.6544-8.3968 112.3328s-36.2496 46.1824-69.8368 46.1824H511.232c-14.9504 0-51.2-16.7936-51.2-54.0672v-56.6784c0-13.6192 6.8608-56.1664 39.68-58.2656s42.24-17.152 42.24-44.0832-7.68-42.7008-55.6544-42.7008H194.048c-20.3264 0-52.48 12.3904-52.48 45.3632 0 33.024 17.5104 34.4064 25.1904 39.3216s15.7696 13.312-3.4816 25.5488-91.3408 67.8912-91.3408 185.4976v18.8928c0 12.544 10.1888 22.7328 22.7328 22.7328h59.648c5.9904 56.6272 53.9136 100.7616 112.128 100.7616s106.1376-44.1344 112.128-100.7616h317.696c0.6656 6.4512 1.9968 12.7488 3.7376 18.8416 65.7408-64.3072 116.6336-143.7696 146.944-232.7552-12.4928-3.8912-26.2656-6.8608-41.472-8.704zM266.496 789.1968a29.3888 29.3888 0 1 1 29.3888-29.3888c0.0512 16.2304-13.1072 29.3888-29.3888 29.3888z" fill="#FF4D7C" ></path><path d="M643.1744 274.7392a42.624 42.624 0 0 0-33.28-15.9744c-23.6032 0-42.7008 19.0976-42.7008 42.7008s19.0976 42.7008 42.7008 42.7008c8.3456 0 16.128-2.4576 22.7328-6.6048 1.6384 5.0688 3.328 10.4448 4.9152 16.2816 5.4272 19.9168 10.8032 41.2672 15.8208 62.1568a587.8784 587.8784 0 0 0 49.664-141.2608h-59.8528zM460.0832 630.4768v-56.6784c0-13.6192 6.8608-56.1664 39.68-58.2656s42.24-17.152 42.24-44.0832-7.68-42.7008-55.6544-42.7008H194.0992c-20.3264 0-52.48 12.3904-52.48 45.3632 0 33.024 17.5104 34.4064 25.1904 39.3216s15.7696 13.312-3.4816 25.5488-91.3408 67.8912-91.3408 185.4976v16.7936c16.7424 1.4336 33.6896 2.2016 50.8416 2.2016 125.5424 0 241.9712-39.0144 337.8688-105.5232-0.4096-2.4576-0.6144-4.9152-0.6144-7.4752z" fill="#FF5F89" ></path><path d="M194.048 428.6976c-20.2752 0-52.48 12.3904-52.48 45.3632 0 18.2272 5.3248 26.8288 11.4176 31.6416a591.0016 591.0016 0 0 0 157.1328-77.056c-56.832 0.0512-106.9568 0.0512-116.0704 0.0512zM499.712 180.0704c0-12.6976-11.264-22.9376-25.1904-22.9376H199.3216c-13.9264 0-25.1904 10.2912-25.1904 22.9376v197.6832c0 12.6976 11.264 22.9376 25.1904 22.9376h148.1728A595.62496 595.62496 0 0 0 499.712 214.4256v-34.3552zM283.392 267.52c0 9.3696-7.5776 16.9984-16.9984 16.9984-9.3696 0-16.9984-7.5776-16.9984-16.9984V212.1728c0-9.3696 7.5776-16.9984 16.9984-16.9984 9.3696 0 16.9984 7.5776 16.9984 16.9984v55.3472z m68.4544 0a16.97792 16.97792 0 1 1-33.9456 0V212.1728c0-9.3696 7.5776-16.9984 16.9984-16.9984a16.9472 16.9472 0 0 1 16.9472 16.9984v55.3472z m68.4032 0c0 9.3696-7.5776 16.9984-16.9984 16.9984s-16.9984-7.5776-16.9984-16.9984V212.1728c0-9.3696 7.5776-16.9984 16.9984-16.9984s16.9984 7.5776 16.9984 16.9984v55.3472z" fill="#FF7196" ></path></svg>