<svg viewBox="0 0 1024 1024" version="1.1" xmlns="http://www.w3.org/2000/svg"><path d="M872.9088 242.5344c-6.8608-58.368-44.6976-84.7872-100.9152-68.7104-35.584 10.1888-70.0928 24.4736-104.2944 38.8608-15.104 6.4-23.1936 2.9696-32.2048-9.2672-20.7872-28.2112-42.3936-55.808-64.256-83.2-36.1984-45.4144-88.5248-46.0288-125.952-1.7408-24.4736 28.928-49.1008 57.7536-72.8576 87.2448-7.9872 9.9328-15.2064 12.288-27.3408 7.4752-30.5664-12.0832-61.7472-22.6304-92.5184-34.0992-64.7168-24.064-114.0736 6.656-117.76 75.8784-2.2528 42.7008-2.5088 85.8112 0.768 128.4096 6.8608 89.4464 31.3344 172.544 94.3104 240.6912 62.5152 67.7376 134.8608 116.736 228.9664 126.6688 11.9296 1.28 15.2064 6.7072 15.0528 18.0736-0.256 23.2448-0.4608 46.4896-0.4096 69.7344v64.6656c0 18.432 14.7968 33.4848 33.2288 33.7408 18.7392 0.3072 34.1504-14.7456 34.304-33.536l0.0512-9.9328c0.3584-37.2224 1.2288-74.496-0.3584-111.6672-0.9728-22.3232 3.84-32.0512 28.5696-35.072 124.7232-15.3088 213.1456-83.0464 270.6944-193.3312 34.1504-65.4848 39.8336-136.448 39.9872-220.416-1.6384-22.1184-3.0208-56.4224-7.0656-90.4704zM329.8304 538.112a33.60768 33.60768 0 0 1-21.248 7.5264c-9.8304 0-19.5584-4.2496-26.2144-12.4928-49.2544-60.672-49.8176-171.3152-49.7152-183.7568 0.1536-18.6368 15.36-33.536 34.048-33.4848 18.6368 0.1536 33.6384 15.36 33.4848 33.9968-0.1536 27.136 5.7856 105.1648 34.6112 140.6976a33.80736 33.80736 0 0 1-4.9664 47.5136z" fill="#FF8E12" ></path><path d="M849.7664 734.8736c26.3168 0.9728 42.5472 11.9296 44.4416 32.1024 1.8432 20.1728-14.3872 34.5088-39.8848 38.7584-38.4512 6.4512-77.4144 12.0832-114.7392 22.9376-36.4032 10.5984-68.6592 30.5664-94.8224 59.5456-16.7424 18.5856-36.3008 20.1216-50.7392 6.7584-15.616-14.3872-15.4624-33.3824 1.7408-52.736 39.168-44.0832 89.856-70.1952 145.1008-86.3744 35.328-10.3424 72.5504-14.1824 108.9024-20.992zM168.448 737.3824c77.6192 4.9664 150.6816 24.1664 214.2208 70.912 15.9232 11.7248 30.3616 25.9584 43.4176 40.8064 12.7488 14.4896 9.8304 33.7408-4.1984 45.7728-13.8752 11.8784-30.976 12.288-44.032-1.7408C323.3792 834.56 252.6208 814.2336 176.4864 805.888a426.5472 426.5472 0 0 1-25.3952-3.584c-19.5072-3.2768-28.16-16.2816-27.904-34.7136 0.256-17.8688 15.36-30.4128 34.56-30.7712 3.584-0.0512 7.1168 0.3584 10.7008 0.5632z" fill="#FF8E12" ></path><path d="M760.4224 177.4592c-31.488 9.8304-62.2592 22.3744-92.672 35.2256-15.104 6.4-23.1936 2.9696-32.2048-9.2672-20.7872-28.2112-42.3936-55.808-64.256-83.2-36.1984-45.4144-88.5248-46.0288-125.952-1.7408-24.4736 28.928-49.1008 57.7536-72.8576 87.2448-7.9872 9.9328-15.2064 12.288-27.3408 7.4752-30.5664-12.0832-61.7472-22.6304-92.5184-34.0992-64.7168-24.064-114.0736 6.656-117.76 75.8784-2.2528 42.7008-2.5088 85.8112 0.768 128.4096 6.8608 89.4464 31.3344 172.544 94.3104 240.6912 62.5152 67.7376 134.8608 116.736 228.9664 126.6688 11.9296 1.28 15.2064 6.7072 15.0528 18.0736v0.6144c177.664-82.0224 301.0048-261.6832 301.0048-470.2208 0.0512-41.8304-5.0688-82.6368-14.5408-121.7536z m-430.592 360.6528a33.60768 33.60768 0 0 1-21.248 7.5264c-9.8304 0-19.5584-4.2496-26.2144-12.4928-49.2544-60.672-49.8176-171.3152-49.7152-183.7568 0.1536-18.6368 15.36-33.536 34.048-33.4848 18.6368 0.1536 33.6384 15.36 33.4848 33.9968-0.1536 27.136 5.7856 105.1648 34.6112 140.6976a33.80736 33.80736 0 0 1-4.9664 47.5136z" fill="#FCA315" ></path><path d="M571.2896 120.2688c-36.1984-45.4144-88.5248-46.0288-125.952-1.7408-24.4736 28.928-49.1008 57.7536-72.8576 87.2448-7.9872 9.9328-15.2064 12.288-27.3408 7.4752-30.5664-12.0832-61.7472-22.6304-92.5184-34.0992-64.7168-24.064-114.0736 6.656-117.76 75.8784-2.2528 42.7008-2.5088 85.8112 0.768 128.4096 6.7584 88.064 30.72 169.984 91.5968 237.6192 207.5648-45.6192 368.4864-215.7056 400.384-428.1344-18.3808-24.5248-37.2224-48.6912-56.32-72.6528zM329.8304 538.112a33.60768 33.60768 0 0 1-21.248 7.5264c-9.8304 0-19.5584-4.2496-26.2144-12.4928-49.2544-60.672-49.8176-171.3152-49.7152-183.7568 0.1536-18.6368 15.36-33.536 34.048-33.4848 18.6368 0.1536 33.6384 15.36 33.4848 33.9968-0.1536 27.136 5.7856 105.1648 34.6112 140.6976a33.80736 33.80736 0 0 1-4.9664 47.5136z" fill="#FCB138" ></path><path d="M445.3376 118.4768c-24.4736 28.928-49.1008 57.7536-72.8576 87.2448-7.9872 9.9328-15.2064 12.288-27.3408 7.4752-30.5664-12.0832-61.7472-22.6304-92.5184-34.0992-64.7168-24.064-114.0736 6.656-117.76 75.8784-2.2528 42.7008-2.5088 85.8112 0.768 128.4096 1.1264 14.4896 2.7648 28.7744 4.864 42.9056 32.8192-10.2912 64.1536-23.808 93.7472-40.0896-1.6384-18.9952-1.6896-32.9216-1.6384-36.864 0.1536-18.6368 15.36-33.536 34.048-33.4848 16.4864 0.1536 30.1056 12.0832 32.9216 27.7504 82.3296-62.976 145.2032-150.0672 178.0224-250.7776-11.4176 5.4784-22.3232 13.9776-32.256 25.6512z" fill="#FFC65E" ></path></svg>