<svg viewBox="0 0 1024 1024" version="1.1" xmlns="http://www.w3.org/2000/svg"><path d="M515.3792 94.8736c-227.6352 0-412.16 184.5248-412.16 412.16s184.5248 412.16 412.16 412.16 412.16-184.5248 412.16-412.16-184.5248-412.16-412.16-412.16z m124.5184 603.8016l-124.5184-65.4848-124.5184 65.4848 23.808-138.6496L313.856 461.7728l139.2128-20.224 62.2592-126.1568 62.2592 126.1568L716.8 461.7728l-100.7616 98.2016 23.8592 138.7008z" fill="#FC7032" ></path><path d="M872.2944 301.056c-71.2704-123.2384-204.3904-206.1824-356.9664-206.1824-227.6352 0-412.16 184.5248-412.16 412.16 0 143.9744 73.8816 270.6944 185.7536 344.3712 10.2912 0.5632 20.6848 0.8704 31.1296 0.8704 304.6912 0 551.7312-246.6816 552.2432-551.2192z m-356.9152 332.1344l-124.5184 65.4848 23.808-138.6496L313.856 461.7728l139.2128-20.224 62.2592-126.1568 62.2592 126.1568L716.8 461.7728l-100.7616 98.2016 23.808 138.6496-124.4672-65.4336z" fill="#FF7E3E" ></path><path d="M515.3792 94.8736c-227.6352 0-412.16 184.5248-412.16 412.16 0 52.1216 9.7792 101.888 27.392 147.8144 12.6976 0.8704 25.4976 1.3312 38.4512 1.3312 85.3504 0 166.1952-19.3536 238.336-53.9648l7.2192-42.24L313.856 461.7728l139.2128-20.224 62.2592-126.1568 62.2592 126.1568 25.5488 3.7376c65.28-82.8928 107.264-184.9344 116.2752-296.2944-60.16-34.4064-129.792-54.1184-204.032-54.1184z" fill="#FF9552" ></path><path d="M106.496 455.4752c205.312-28.416 374.528-169.6256 443.0336-359.1168-11.264-0.9216-22.6816-1.536-34.2016-1.536-210.1248 0.0512-383.4368 157.3888-408.832 360.6528z" fill="#FFA56A" ></path></svg>