<svg viewBox="0 0 1024 1024" version="1.1" xmlns="http://www.w3.org/2000/svg"><path d="M212.4288 327.5264v-87.04h720.5376c-6.2464-44.6464-44.544-79.0528-90.9312-79.0528H199.6288c-50.7904 0-91.904 41.1648-91.904 91.904v515.9424c0 50.7904 41.1648 91.904 91.904 91.904h642.4576c50.7904 0 91.904-41.1648 91.904-91.904V327.5264H212.4288z m559.4624 298.4448c-39.3216 0-71.168-31.8464-71.168-71.168 0-39.3216 31.8464-71.168 71.168-71.168 39.3216 0 71.168 31.8464 71.168 71.168 0 39.3216-31.8464 71.168-71.168 71.168z" fill="#FC7032" ></path><path d="M933.9904 327.5264H212.4288v-87.04h720.5376c-6.2464-44.6464-44.544-79.0528-90.9312-79.0528H199.6288c-50.7904 0-91.904 41.1648-91.904 91.904v515.9424c0 50.7904 41.1648 91.904 91.904 91.904h258.7136c248.5248-58.3168 439.808-249.8048 475.6992-504.7296v-28.928z m-162.0992 298.4448c-39.3216 0-71.168-31.8464-71.168-71.168s31.8464-71.168 71.168-71.168c39.3216 0 71.168 31.8464 71.168 71.168s-31.8464 71.168-71.168 71.168z" fill="#FF7E3E" ></path><path d="M212.4288 240.4864h521.216c9.0624-25.6512 16.4864-52.0192 22.1184-79.0528H199.6288c-50.7904 0-91.904 41.1648-91.904 91.904v402.5856c11.52 0.6144 23.0912 0.9728 34.7648 0.9728 244.9408 0 457.0112-125.7984 559.9744-329.3696H212.4288v-87.04z" fill="#FF9552" ></path><path d="M358.8608 327.5264h-146.432v-87.04h228.864c23.2448-24.576 44.544-50.9952 63.5392-79.0528H199.6288c-50.7904 0-91.904 41.1648-91.904 91.904v171.3664c92.672-18.3296 178.0736-43.0592 251.136-97.1776z" fill="#FFA56A" ></path></svg>