<svg viewBox="0 0 1024 1024" version="1.1" xmlns="http://www.w3.org/2000/svg"><path d="M642.5088 655.4112c-82.0224 0-148.736-66.7136-148.736-148.736s66.7136-148.736 148.736-148.736h271.3088V266.8544c0-62.6688-50.7904-113.4592-113.4592-113.4592H218.7264c-62.6688 0-113.4592 50.7904-113.4592 113.4592v485.4272c0 62.6688 50.7904 113.4592 113.4592 113.4592h581.632c62.6688 0 113.4592-50.7904 113.4592-113.4592v-96.8192h-271.3088z" fill="#FC7032" ></path><path d="M642.5088 414.1568c-50.9952 0-92.5184 41.5232-92.5184 92.5184s41.5232 92.5184 92.5184 92.5184h271.3088V414.1568h-271.3088z m3.7376 126.6176c-18.8416 0-34.0992-15.2576-34.0992-34.0992s15.2576-34.0992 34.0992-34.0992 34.0992 15.2576 34.0992 34.0992-15.2576 34.0992-34.0992 34.0992z" fill="#FC7032" ></path><path d="M908.8 414.1568h-266.2912c-50.9952 0-92.5184 41.5232-92.5184 92.5184s41.5232 92.5184 92.5184 92.5184h184.2176c36.7616-56.064 64.8192-118.3744 82.0736-185.0368z m-262.5536 126.6176c-18.8416 0-34.0992-15.2576-34.0992-34.0992s15.2576-34.0992 34.0992-34.0992 34.0992 15.2576 34.0992 34.0992-15.2576 34.0992-34.0992 34.0992z" fill="#FF7E3E" ></path><path d="M642.5088 655.4112c-82.0224 0-148.736-66.7136-148.736-148.736 0-82.0224 66.7136-148.736 148.736-148.736h271.3088V266.8544c0-62.6688-50.7904-113.4592-113.4592-113.4592H218.7264c-62.6688 0-113.4592 50.7904-113.4592 113.4592v485.4272c0 62.6688 50.7904 113.4592 113.4592 113.4592h225.5872c135.8848-31.1296 254.8224-106.5472 340.8896-210.2784h-142.6944z" fill="#FF7E3E" ></path><path d="M218.7264 153.3952c-62.6688 0-113.4592 50.7904-113.4592 113.4592v392.2432c9.3696 0.4096 18.8416 0.6656 28.3136 0.6656 136.0384 0 261.9392-43.5712 364.4928-117.4016-2.816-11.4176-4.352-23.3472-4.352-35.6352 0-82.0224 66.7136-148.736 148.736-148.736h25.7536c37.4784-61.952 64.4096-130.9696 78.4896-204.544H218.7264z" fill="#FF9552" ></path><path d="M550.3488 500.2752c28.7744-25.8048 55.1424-54.272 78.7456-84.992-42.5984 6.1952-75.776 41.472-78.7456 84.992z" fill="#FF9552" ></path><path d="M500.9408 153.3952H218.7264c-62.6688 0-113.4592 50.7904-113.4592 113.4592V425.472c165.4272-34.6624 306.7904-134.8096 395.6736-272.0768z" fill="#FFA56A" ></path></svg>