<svg viewBox="0 0 1024 1024" version="1.1" xmlns="http://www.w3.org/2000/svg"><path d="M915.968 373.4016c-15.9744 0-30.4128 6.5536-40.7552 17.152-22.6304-60.5696-45.312-121.088-68.0448-181.6064-14.2336-37.888-41.1648-56.576-81.4592-56.576-144.128-0.0512-288.2048-0.0512-432.3328 0-40.192 0-67.2768 18.8928-81.4592 56.6272-22.7328 60.4672-45.4144 120.9856-68.0448 181.504a56.9088 56.9088 0 0 0-40.7552-17.1008c-31.5392 0-57.088 25.5488-57.088 57.088v43.9296c0 31.5392 25.5488 57.088 57.088 57.088 4.0448 0 7.9872-0.4096 11.776-1.2288-0.1024 104.2944-0.1024 208.5376-0.0512 312.832 0 21.3504 12.9536 34.2016 34.2016 34.3552 18.9952 0.1536 37.9904 0.1536 57.0368 0 21.9136-0.1536 34.5088-12.9024 34.6624-34.9696 0.1024-14.1312 0-28.2112 0-43.0592h536.6272c0.4096 1.3824 0.768 1.9968 0.768 2.6624 0.1024 13.824 0 27.648 0.2048 41.472 0.256 20.736 13.056 33.6896 33.6384 33.8944 18.3296 0.2048 36.608 0.1024 54.9376 0.0512 25.3952-0.0512 37.3248-12.032 37.3248-37.5296 0-103.2192 0-206.4896-0.1024-309.7088 3.7888 0.8192 7.7312 1.2288 11.776 1.2288 31.5392 0 57.088-25.5488 57.088-57.088v-43.9296c0.1024-31.5392-25.4976-57.088-57.0368-57.088zM288.3584 688.9472c-33.9456 0.0512-63.4368-29.184-63.744-63.3344-0.3072-34.304 29.7984-64 64.4096-63.488 35.2768 0.512 62.6688 28.3648 62.464 63.6416-0.1536 35.1232-28.1088 63.0784-63.1296 63.1808z m442.4704 0c-34.56-0.0512-63.1808-28.7744-63.2832-63.3856-0.0512-34.9184 28.0064-63.1808 62.976-63.4368 34.0992-0.256 63.7952 29.1328 63.8976 63.1808 0.1536 33.792-29.7472 63.6928-63.5904 63.6416zM198.912 467.3536c10.3936-27.6992 20.3264-54.1184 30.2592-80.5376 18.3296-48.7424 36.9152-97.3824 54.784-146.2272 2.8672-7.8848 6.5536-10.1888 14.7968-10.1888 140.6464 0.256 281.2928 0.256 421.888 0.1024 6.8096 0 11.1104 0.8192 13.9264 8.448 26.9312 73.1136 54.3744 146.0224 81.6128 219.0336 1.0752 2.816 1.792 5.7856 2.9184 9.4208-206.6432-0.0512-412.4672-0.0512-620.1856-0.0512z" fill="#FC7032" ></path><path d="M875.2128 390.5536c-22.6304-60.5696-45.312-121.088-68.0448-181.6064-14.2336-37.888-41.1648-56.576-81.4592-56.576-144.128-0.0512-288.2048-0.0512-432.3328 0-40.192 0-67.2768 18.8928-81.4592 56.6272-22.7328 60.4672-45.4144 120.9856-68.0448 181.504a56.9088 56.9088 0 0 0-40.7552-17.1008c-31.5392 0-57.088 25.5488-57.088 57.088v43.9296c0 31.5392 25.5488 57.088 57.088 57.088 4.0448 0 7.9872-0.4096 11.776-1.2288-0.1024 104.2944-0.1024 208.5376-0.0512 312.832 0 21.3504 12.9536 34.2016 34.2016 34.3552 18.9952 0.1536 37.9904 0.1536 57.0368 0 21.9136-0.1536 34.5088-12.9024 34.6624-34.9696 0.1024-14.1312 0-28.2112 0-43.0592h405.8112c137.9328-97.7408 234.5984-249.856 258.8672-425.0624-11.7248 2.2016-22.1696 7.9872-30.208 16.1792zM288.3584 688.9472c-33.9456 0.0512-63.4368-29.184-63.744-63.3344-0.3072-34.304 29.7984-64 64.4096-63.488 35.2768 0.512 62.6688 28.3648 62.464 63.6416-0.1536 35.1232-28.1088 63.0784-63.1296 63.1808z m442.4704 0c-34.56-0.0512-63.1808-28.7744-63.2832-63.3856-0.0512-34.9184 28.0064-63.1808 62.976-63.4368 34.0992-0.256 63.7952 29.1328 63.8976 63.1808 0.1536 33.792-29.7472 63.6928-63.5904 63.6416zM198.912 467.3536c10.3936-27.6992 20.3264-54.1184 30.2592-80.5376 18.3296-48.7424 36.9152-97.3824 54.784-146.2272 2.8672-7.8848 6.5536-10.1888 14.7968-10.1888 140.6464 0.256 281.2928 0.256 421.888 0.1024 6.8096 0 11.1104 0.8192 13.9264 8.448 26.9312 73.1136 54.3744 146.0224 81.6128 219.0336 1.0752 2.816 1.792 5.7856 2.9184 9.4208-206.6432-0.0512-412.4672-0.0512-620.1856-0.0512z" fill="#FF7E3E" ></path><path d="M229.1712 386.816c18.3296-48.7424 36.9152-97.3824 54.784-146.2272 2.8672-7.8848 6.5536-10.1888 14.7968-10.1888 139.6736 0.256 279.3984 0.256 419.072 0.1024 6.912-25.344 12.288-51.3536 15.9744-77.8752-2.6624-0.2048-5.376-0.3072-8.1408-0.3072-144.128-0.0512-288.2048-0.0512-432.3328 0-40.192 0-67.2768 18.8928-81.4592 56.6272-22.7328 60.4672-45.4144 120.9856-68.0448 181.504a56.9088 56.9088 0 0 0-40.7552-17.1008c-31.5392 0-57.088 25.5488-57.088 57.088v43.9296c0 31.5392 25.5488 57.088 57.088 57.088 4.0448 0 7.9872-0.4096 11.776-1.2288-0.0512 53.8624 0 107.7248-0.0512 161.5872 46.8992-0.1536 92.6208-5.4272 136.6016-15.36-15.9232-11.6736-26.6752-30.4128-26.88-50.8928-0.3072-34.304 29.7984-64 64.4096-63.488 35.2768 0.512 62.6688 28.3648 62.464 63.6416-0.0512 7.2192-1.28 14.1312-3.4816 20.5824 96.0512-38.8608 180.224-100.7616 245.7088-178.944H198.7584c10.5472-27.6992 20.48-54.1184 30.4128-80.5376z" fill="#FF9552" ></path><path d="M219.8528 411.648c3.1232-8.2944 6.2464-16.5376 9.3184-24.832 18.3296-48.7424 36.9152-97.3824 54.784-146.2272 2.8672-7.8848 6.5536-10.1888 14.7968-10.1888 49.8176 0.1024 99.6864 0.1024 149.504 0.1536 19.4048-24.6272 36.9664-50.7904 52.5312-78.1824-69.12 0-138.2912-0.0512-207.4112 0-40.192 0-67.2768 18.8928-81.4592 56.6272-22.7328 60.4672-45.4144 120.9856-68.0448 181.504a56.9088 56.9088 0 0 0-40.7552-17.1008c-31.5392 0-57.088 25.5488-57.088 57.088v32.9728c61.2352-8.8576 119.6032-26.5728 173.824-51.8144z" fill="#FFA56A" ></path></svg>