<svg viewBox="0 0 1024 1024" version="1.1" xmlns="http://www.w3.org/2000/svg"><path d="M154.2144 385.0752c-17.3056-6.6048-34.56-11.3152-49.8688-19.5584-13.0048-7.0144-23.1424-19.0976-17.3568-35.8912 5.5808-16.1792 18.1248-22.5792 35.4816-22.4768 22.5792 0.1536 49.92 5.9904 66.4064-4.4544 15.7184-9.9328 20.224-37.6832 29.4912-57.6512 9.8816-21.248 19.7632-42.496 29.2352-63.8976 7.8848-17.7152 20.9408-26.2656 40.4992-26.2656 151.2448 0.1536 302.5408 0.1536 453.7856 0.0512 20.3264 0 33.6384 9.216 41.8816 27.648 16.5376 37.0688 33.9968 73.7792 50.432 110.9504 4.4544 10.0864 9.984 14.848 21.7088 14.1824 18.5856-1.0752 37.7344-2.816 55.7568 0.6144 11.8784 2.2528 27.5456 10.8032 31.5392 20.6336 3.3792 8.192-4.5568 26.6752-13.1072 32.8704-15.0016 10.8544-34.2528 15.8208-53.4016 23.9104 10.1888 22.528 22.6304 46.9504 32.3584 72.3968 5.9904 15.7184 11.008 32.9728 11.1616 49.6128 0.9728 106.3424 0.512 212.736 0.4608 319.1296 0 27.7504-5.12 34.1504-33.024 36.5056-20.5824 1.7408-41.3696 1.7408-62.0544 1.3824-16.4352-0.3072-26.624-8.2944-29.0816-26.0096-2.6112-19.0464-8.6016-37.7344-10.3936-56.832-1.536-16.2304-8.2432-20.0192-23.6544-19.968-136.0384 0.5632-272.128 0.3072-408.2176 0.3072-29.696 0-59.392 0.5632-89.088-0.256-12.8-0.3584-18.5856 3.328-20.3264 16.5888-2.6624 20.48-8.0384 40.5504-10.9568 60.9792-2.4064 16.8448-12.4416 24.7296-27.7504 24.9856-23.4496 0.3584-46.8992-0.7168-70.2976-2.048-17.152-0.9728-26.0608-10.4448-26.0608-28.2624 0.1536-112.5888-0.9216-225.1776 1.024-337.7664 0.3584-20.1216 12.4416-40.2944 20.224-59.9552 7.168-17.92 15.8208-35.1744 23.1936-51.456z m360.0384 22.5792c73.1136 0 146.176 0.256 219.2896-0.1024 34.0992-0.1536 40.8064-11.52 26.2656-41.4208-14.6944-30.3104-27.904-61.3376-44.0832-90.7776-4.7104-8.4992-17.408-17.8176-26.5728-17.92-115.8144-1.2288-231.68-1.1264-347.4944-0.1024-8.8576 0.1024-21.5552 8.0896-25.7536 16.0256-18.1248 33.9456-33.9968 69.0688-50.176 103.9872-6.6048 14.2848-0.4096 26.4192 14.848 29.0816 8.7552 1.536 17.8688 1.2288 26.8288 1.2288 68.9152 0.1024 137.8816 0.0512 206.848 0z m-153.856 227.6864c7.168-58.9824-39.3728-107.008-95.2832-100.9664-17.6128 1.8944-27.7504 11.0592-28.0576 29.2864-0.256 15.104-0.3584 30.2592 0.0512 45.4144 0.4096 16.1792 8.3968 26.0608 25.2416 26.2144 32.256 0.3072 64.512 0.0512 98.048 0.0512z m310.1696-0.1536c33.2288 0 66.7648 0.512 100.2496-0.256 14.4384-0.3584 22.3232-9.7792 22.6816-24.2688 0.4096-15.8208 0.256-31.6416 0.1024-47.4624-0.2048-17.408-10.0864-26.3168-26.4704-28.6208-55.808-7.8848-105.1648 42.5472-96.5632 100.608z" fill="#6C6CEA" ></path><path d="M872.3456 306.688c-5.4784 0.256-10.9568 0.6144-16.384 0.9216-11.7248 0.6656-17.2544-4.096-21.7088-14.1824-16.4352-37.12-33.8944-73.8304-50.432-110.9504-8.2432-18.432-21.6064-27.6992-41.8816-27.648-151.2448 0.1024-302.5408 0.1536-453.7856-0.0512-19.5584 0-32.6144 8.5504-40.4992 26.2656-9.5232 21.4016-19.4048 42.6496-29.2352 63.8976-9.2672 19.968-13.7728 47.7184-29.4912 57.6512-16.5376 10.4448-43.8272 4.608-66.4064 4.4544-17.3056-0.1024-29.9008 6.2976-35.4816 22.4768-5.7856 16.7424 4.352 28.8768 17.3568 35.8912 15.3088 8.2944 32.5632 13.0048 49.8688 19.5584-7.3728 16.2816-16.0256 33.536-23.0912 51.4048-7.7824 19.712-19.8656 39.8336-20.224 59.9552-1.9968 112.5376-0.9216 225.1776-1.024 337.7664 0 17.8176 8.9088 27.2896 26.0608 28.2624 23.3984 1.3312 46.8992 2.4064 70.2976 2.048 15.36-0.256 25.3952-8.1408 27.7504-24.9856 2.9184-20.4288 8.2944-40.5504 10.9568-60.9792 1.7408-13.2608 7.5776-16.9472 20.3264-16.5888 29.696 0.8192 59.392 0.256 89.088 0.256 110.1824 0 220.3648 0.0512 330.5472-0.2048 115.6608-110.1312 187.7504-265.5744 187.7504-437.9136-0.1024-5.6832-0.2048-11.4688-0.3584-17.3056z m-511.9488 328.6528c-33.536 0-65.792 0.2048-98.048-0.1024-16.8448-0.1536-24.832-10.0352-25.2416-26.2144-0.4096-15.104-0.3072-30.2592-0.0512-45.4144 0.3072-18.2272 10.4448-27.3408 28.0576-29.2864 55.9104-5.9904 102.4512 42.0864 95.2832 101.0176z m153.856-227.6864c-68.9664 0.0512-137.9328 0.0512-206.848 0-8.96 0-18.0736 0.3072-26.8288-1.2288-15.2576-2.6624-21.4528-14.7968-14.848-29.0816 16.1792-34.9184 32.0512-70.0928 50.176-103.9872 4.1984-7.8848 16.896-15.9232 25.7536-16.0256 115.8144-1.0752 231.68-1.1264 347.4944 0.1024 9.1136 0.1024 21.8624 9.3696 26.5728 17.92 16.1792 29.44 29.3888 60.5184 44.0832 90.7776 14.4896 29.9008 7.7824 41.2672-26.2656 41.4208-73.1136 0.3584-146.2272 0.1024-219.2896 0.1024z m279.296 203.008c-0.3584 14.4896-8.2432 23.9104-22.6816 24.2688-33.4848 0.768-67.0208 0.256-100.2496 0.256-8.6016-58.0608 40.704-108.4928 96.5632-100.608 16.384 2.304 26.2656 11.2128 26.4704 28.6208 0.1024 15.8208 0.3072 31.6416-0.1024 47.4624z" fill="#757BF2" ></path><path d="M628.6336 407.7568c-38.144 0-76.2368-0.0512-114.3808-0.0512-68.9664 0.0512-137.9328 0.0512-206.848 0-8.96 0-18.0736 0.3072-26.8288-1.2288-15.2576-2.6624-21.4528-14.7968-14.848-29.0816 16.1792-34.9184 32.0512-70.0928 50.176-103.9872 4.1984-7.8848 16.896-15.9232 25.7536-16.0256 115.7632-1.0752 231.5776-1.1264 347.3408 0.1024 8.3456-33.1776 13.9776-67.4816 16.5888-102.5536-139.1616 0.1024-278.272 0.1024-417.4336-0.0512-19.5584 0-32.6144 8.5504-40.4992 26.2656-9.5232 21.4016-19.4048 42.6496-29.2352 63.8976-9.2672 19.968-13.7728 47.7184-29.4912 57.6512-16.5376 10.4448-43.8272 4.608-66.4064 4.4544-17.3056-0.1024-29.9008 6.2976-35.4816 22.4768-5.7856 16.7424 4.352 28.8768 17.3568 35.8912 15.3088 8.2944 32.5632 13.0048 49.8688 19.5584-7.3728 16.2816-16.0256 33.536-23.0912 51.4048-7.7824 19.712-19.8656 39.8336-20.224 59.9552-1.28 72.448-1.28 144.9472-1.1264 217.4464 222.3616-2.5088 415.8976-125.184 518.8096-306.1248z m-268.2368 227.584c-33.536 0-65.792 0.2048-98.048-0.1024-16.8448-0.1536-24.832-10.0352-25.2416-26.2144-0.4096-15.104-0.3072-30.2592-0.0512-45.4144 0.3072-18.2272 10.4448-27.3408 28.0576-29.2864 55.9104-5.9904 102.4512 42.0864 95.2832 101.0176z" fill="#8486F8" ></path><path d="M114.2272 477.6448c57.856-16.2304 112.2304-40.8576 161.6896-72.4992-11.776-4.1472-16.0768-15.104-10.1888-27.8016 16.1792-34.9184 32.0512-70.0928 50.176-103.9872 4.1984-7.8848 16.896-15.9232 25.7536-16.0256 31.2832-0.3072 62.5152-0.4608 93.7984-0.6144 23.6544-31.6928 44.2368-65.792 61.44-101.888-69.5808 0-139.1616 0.0512-208.7424 0-19.5584 0-32.6144 8.5504-40.4992 26.2656-9.5232 21.4016-19.4048 42.6496-29.2352 63.8976-9.2672 19.968-13.7728 47.7184-29.4912 57.6512-16.5376 10.4448-43.8272 4.608-66.4064 4.4544-17.3056-0.1024-29.9008 6.2976-35.4816 22.4768-5.7856 16.7424 4.352 28.8768 17.3568 35.8912 15.3088 8.2944 32.5632 13.0048 49.8688 19.5584-7.3728 16.2816-16.0256 33.536-23.0912 51.4048-5.4272 13.6192-12.7488 27.392-16.9472 41.216z" fill="#8D92F8" ></path></svg>