<svg viewBox="0 0 1024 1024" version="1.1" xmlns="http://www.w3.org/2000/svg"><path d="M582.3488 322.7136h69.888v71.0656h-69.888z" fill="#1DCE75" ></path><path d="M788.1728 100.352H233.9328c-54.528 0-98.7136 44.1856-98.7136 98.7136v621.9776c0 54.528 44.1856 98.7136 98.7136 98.7136h554.24c54.528 0 98.7136-44.1856 98.7136-98.7136V199.0656c0.0512-54.528-44.1856-98.7136-98.7136-98.7136zM504.6272 303.1552c0-32.1024 26.112-58.2144 58.2144-58.2144h109.0048c32.1024 0 58.2144 26.112 58.2144 58.2144v110.1824c0 32.1024-26.112 58.2144-58.2144 58.2144h-109.0048c-32.1024 0-58.2144-26.112-58.2144-58.2144V303.1552zM328.3968 248.576h89.6512c21.4528 0 38.8608 17.408 38.8608 38.8608s-17.408 38.8608-38.8608 38.8608H328.3968c-21.4528 0-38.8608-17.408-38.8608-38.8608s17.3568-38.8608 38.8608-38.8608z m0 145.92h89.6512c21.4528 0 38.8608 17.408 38.8608 38.8608s-17.408 38.8608-38.8608 38.8608H328.3968c-21.4528 0-38.8608-17.408-38.8608-38.8608s17.3568-38.8608 38.8608-38.8608z m372.0192 383.3856H328.3968c-21.4528 0-38.8608-17.408-38.8608-38.8608s17.408-38.8608 38.8608-38.8608h372.0704c21.4528 0 38.8608 17.408 38.8608 38.8608s-17.408 38.8608-38.912 38.8608z m0-152.4224H328.3968c-21.4528 0-38.8608-17.408-38.8608-38.8608 0-21.4528 17.408-38.8608 38.8608-38.8608h372.0704c21.4528 0 38.8608 17.408 38.8608 38.8608 0 21.4528-17.408 38.8608-38.912 38.8608z" fill="#05C46D" ></path><path d="M886.9376 199.0656c0-54.528-44.1856-98.7136-98.7136-98.7136H233.9328c-54.528 0-98.7136 44.1856-98.7136 98.7136v621.9776c0 32.0512 15.3088 60.416 38.9632 78.4896 24.1152 2.6624 48.5888 4.096 73.4208 4.096 144.384 0 277.8624-46.6944 386.2016-125.7472H328.3968c-21.4528 0-38.8608-17.408-38.8608-38.8608s17.408-38.8608 38.8608-38.8608h372.0704c6.4 0 12.3904 1.6896 17.7152 4.4544 82.0224-84.48 141.568-190.9248 168.7552-309.76V199.0656zM504.6272 303.1552c0-32.1024 26.112-58.2144 58.2144-58.2144h109.0048c32.1024 0 58.2144 26.112 58.2144 58.2144v110.1824c0 32.1024-26.112 58.2144-58.2144 58.2144h-109.0048c-32.1024 0-58.2144-26.112-58.2144-58.2144V303.1552zM328.3968 248.576h89.6512c21.4528 0 38.8608 17.408 38.8608 38.8608s-17.408 38.8608-38.8608 38.8608H328.3968c-21.4528 0-38.8608-17.408-38.8608-38.8608s17.3568-38.8608 38.8608-38.8608z m0 145.92h89.6512c21.4528 0 38.8608 17.408 38.8608 38.8608 0 21.4528-17.408 38.8608-38.8608 38.8608H328.3968c-21.4528 0-38.8608-17.408-38.8608-38.8608-0.0512-21.4528 17.3568-38.8608 38.8608-38.8608z m372.0192 230.9632H328.3968c-21.4528 0-38.8608-17.408-38.8608-38.8608 0-21.4528 17.408-38.8608 38.8608-38.8608h372.0704c21.4528 0 38.8608 17.408 38.8608 38.8608 0 21.4528-17.408 38.8608-38.912 38.8608z" fill="#1DCE75" ></path><path d="M582.3488 322.7136v71.0656h21.1456c16.0768-22.6816 30.72-46.3872 43.8784-71.0656h-65.024z" fill="#3CD38E" ></path><path d="M135.2192 199.0656v468.224a653.0048 653.0048 0 0 0 179.3536-44.4928c-14.592-5.5808-25.0368-19.6608-25.0368-36.1984 0-21.4528 17.408-38.8608 38.8608-38.8608H450.56a656.9984 656.9984 0 0 0 91.904-79.9232c-22.0672-8.2944-37.8368-29.5424-37.8368-54.4768V303.1552c0-32.1024 26.112-58.2144 58.2144-58.2144h109.0048c3.5328 0 6.9632 0.3584 10.3424 0.9728 17.4592-46.2848 29.7984-95.0272 36.4032-145.6128H233.9328c-54.528 0.0512-98.7136 44.2368-98.7136 98.7648z m193.1776 49.5104h89.6512c21.4528 0 38.8608 17.408 38.8608 38.8608s-17.408 38.8608-38.8608 38.8608H328.3968c-21.4528 0-38.8608-17.408-38.8608-38.8608s17.3568-38.8608 38.8608-38.8608z m0 145.92h89.6512c21.4528 0 38.8608 17.408 38.8608 38.8608 0 21.4528-17.408 38.8608-38.8608 38.8608H328.3968c-21.4528 0-38.8608-17.408-38.8608-38.8608-0.0512-21.4528 17.3568-38.8608 38.8608-38.8608z" fill="#3CD38E" ></path><path d="M135.2192 199.0656V396.288a655.05792 655.05792 0 0 0 160.4608-88.064 38.66624 38.66624 0 0 1-6.144-20.7872c0-21.4528 17.408-38.8608 38.8608-38.8608h36.4544c44.0832-43.6736 81.9712-93.5424 112.2816-148.224h-243.2c-54.528 0-98.7136 44.1856-98.7136 98.7136z" fill="#48E1AA" ></path></svg>