<svg viewBox="0 0 1024 1024" version="1.1" xmlns="http://www.w3.org/2000/svg"><path d="M741.9904 82.5856H280.2176c-86.4768 0-156.8256 70.3488-156.8256 156.8256v621.4656c0 24.1152 12.4416 45.7728 33.3312 57.856 20.8896 12.1344 45.8752 12.1856 66.816 0.2048l125.3376-71.7312 124.416 85.76a66.7136 66.7136 0 0 0 37.9392 11.8784c13.056 0 26.0608-3.84 37.4784-11.5712l127.232-86.0672 122.3168 71.1168c20.9408 12.1856 45.9776 12.2368 66.9696 0.1536 20.992-12.0832 33.536-33.7408 33.536-58.0096V239.4112c0.0512-86.4768-70.2976-156.8256-156.7744-156.8256z m-55.7056 498.8416H484.352a43.1104 43.1104 0 0 1-43.1104-43.1104v-231.424a43.1104 43.1104 0 0 1 86.2208 0v188.2624h158.8224c23.808 0 43.1104 19.3024 43.1104 43.1104s-19.3024 43.1616-43.1104 43.1616z" fill="#F23D4F" ></path><path d="M898.816 408.2176V239.4112c0-86.4768-70.3488-156.8256-156.8256-156.8256H280.2176c-86.4768 0-156.8256 70.3488-156.8256 156.8256v621.4656c0 24.1152 12.4416 45.7728 33.3312 57.856 20.8896 12.1344 45.8752 12.1856 66.816 0.2048l125.3376-71.7312 112.5376 77.568c224.3584-81.1008 393.7792-276.8896 437.4016-516.5568zM484.352 581.4272a43.1104 43.1104 0 0 1-43.1104-43.1104v-231.424a43.1104 43.1104 0 0 1 86.2208 0v188.2624h158.8224a43.1104 43.1104 0 0 1 0 86.2208H484.352z" fill="#FC4956" ></path><path d="M466.0736 577.3312a43.06432 43.06432 0 0 1-24.8832-39.0144v-231.424a43.1104 43.1104 0 0 1 86.2208 0v188.2624H552.96c98.56-111.0528 161.28-254.6176 169.984-412.5696H280.2176c-86.4768 0-156.8256 70.3488-156.8256 156.8256v479.7952c128.6144-14.848 246.272-65.536 342.6816-141.8752z" fill="#FF5C64" ></path><path d="M493.6704 82.5856H280.2176c-86.4768 0-156.8256 70.3488-156.8256 156.8256v196.7104c164.7104-65.0752 297.8816-192.6656 370.2784-353.536z" fill="#FF716E" ></path></svg>