<svg viewBox="0 0 1024 1024" version="1.1" xmlns="http://www.w3.org/2000/svg"><path d="M837.12 197.8368c-138.8032-90.9312-251.2384-35.9424-324.7104 32.6656-73.472-68.608-185.9072-123.5968-324.7104-32.6656C96.3584 257.6384 57.088 341.9136 70.2464 439.296h284.8256l58.7776-125.4912c6.2976-13.4656 18.5856-23.6544 33.28-26.0096 22.5792-3.584 43.264 10.0864 49.4592 30.9248l53.0432 177.5616 18.0224-32.9216a44.06784 44.06784 0 0 1 38.656-22.8864h132.096c24.1664 0 45.2096 18.6368 45.9264 42.752a44.07808 44.07808 0 0 1-44.0832 45.4656h-107.8272l-56.2176 102.5536a44.04224 44.04224 0 0 1-38.656 22.8864c-5.2736 0-10.7008-0.9216-16.0768-3.0208-13.056-5.0688-22.6304-16.5376-26.6752-30.0032l-49.664-166.2976-22.1184 47.2064a44.09344 44.09344 0 0 1-39.936 25.3952H95.1808c49.2032 116.992 164.9152 246.4256 347.7504 372.1728 20.4288 14.0288 44.6976 21.4528 69.4272 21.4528 24.7808 0 49.1008-7.4752 69.5296-21.504 392.8576-270.1824 475.6992-557.2096 255.232-701.696z" fill="#F23D4F" ></path><path d="M894.2592 253.0304c0-2.56-0.0512-5.12-0.1024-7.6288-15.9744-17.152-35.0208-33.0752-57.088-47.5136-138.8032-90.9312-251.2384-35.9424-324.7104 32.6656-73.472-68.608-185.9072-123.5968-324.7104-32.6656-91.2896 59.7504-130.56 144.0256-117.4016 241.408h284.8256l59.2896-126.6176a44.18048 44.18048 0 0 1 43.2128-25.2928c18.2272 1.3312 33.792 13.824 39.0144 31.3856l53.0432 177.5616 18.0224-32.9216a44.06784 44.06784 0 0 1 38.656-22.8864h133.9392a44.0832 44.0832 0 0 1 0 88.1664h-107.8272l-56.2176 102.5536a44.04224 44.04224 0 0 1-43.3152 22.6304 44.14976 44.14976 0 0 1-37.632-31.232l-50.1248-167.8336-22.1184 47.2064a44.09344 44.09344 0 0 1-39.936 25.3952H95.1808c42.752 101.5808 135.6288 212.5824 279.04 322.4064 293.7344-40.1408 520.0384-292.0448 520.0384-596.7872z" fill="#FC4956" ></path><path d="M70.2464 439.296h284.8256l59.2896-126.6176a44.18048 44.18048 0 0 1 43.2128-25.2928c18.2272 1.3312 33.792 13.824 39.0144 31.3856l46.592 155.9552c88.9856-85.0432 151.9104-197.0176 175.7184-322.8672-84.9408-10.3424-155.2384 30.8224-206.4896 78.6944-73.472-68.608-185.9072-123.5968-324.7104-32.6656C96.3584 257.6384 57.088 341.9136 70.2464 439.296z" fill="#FF5C64" ></path><path d="M469.0944 534.9888l-23.9104-80.0768-22.1184 47.2064a44.09344 44.09344 0 0 1-39.936 25.3952H95.1808c15.4112 36.6592 37.3248 74.496 65.792 113.0496 114.0736-6.3488 219.6992-44.4416 308.1216-105.5744z" fill="#FF5C64" ></path><path d="M457.0112 187.8016c-70.0416-43.264-161.792-60.4672-269.3632 10.0352-85.5552 56.064-125.44 133.632-119.2448 223.3344 158.3616-24.5248 296.3456-110.7968 388.608-233.3696z" fill="#FF716E" ></path></svg>