<svg viewBox="0 0 1024 1024" version="1.1" xmlns="http://www.w3.org/2000/svg"><path d="M434.8928 182.8864m-106.9568 0a106.9568 106.9568 0 1 0 213.9136 0 106.9568 106.9568 0 1 0-213.9136 0Z" fill="#8486F8" ></path><path d="M744.0896 445.6448m-90.112 0a90.112 90.112 0 1 0 180.224 0 90.112 90.112 0 1 0-180.224 0Z" fill="#757BF2" ></path><path d="M269.0048 896.8192c-24.4224-117.0944-41.9328-393.5232-12.3392-474.9312-16.4352 34.56-53.0944 146.5856-69.9904 188.8256-9.9328 24.8832-50.7904 16.3328-54.8352-10.1376-9.0624-59.2896-13.1584-185.9584 116.224-334.5408 20.6848-26.4192 60.5184-18.944 84.2752 11.8784 23.7568 30.8224 55.9104 61.184 133.376 47.104 24.2176-5.2736 54.5792-20.6848 79.6672 47.9744s61.6448 176.9472 170.8032 199.8336c26.368 2.4064 88.9344-6.0416 147.9168-41.472 10.752-6.4512 24.4736-5.2224 33.536 3.4304l0.512 0.4608c10.4448 9.984 11.3152 26.2144 2.2528 37.4272-15.9232 19.6608-45.2096 43.8784-81.2544 65.28-57.2416 34.048-61.6448 53.7088-36.9664 120.6272 24.6272 66.9184 74.8032 115.3024 44.032 141.7216-30.8224 26.4192-80.9984 7.0656-150.528-141.7216-2.6624 67.7888 20.4288 157.7984-21.7088 165.7344s-85.7088-42.9056-87.04-196.096c-1.3312-35.6352 6.6048-99.0208 6.6048-99.0208S495.616 535.4496 483.7376 466.7904c-13.9264 38.8608-47.1552 242.688-53.9136 415.9488-1.6384 41.8816-34.7136 75.6736-76.5952 77.6704l-1.8432 0.1024c-39.3728 1.8432-74.3424-25.088-82.3808-63.6928z" fill="#6D6DF2" ></path><path d="M716.1344 572.8768c-109.1584-22.8864-145.7152-131.1744-170.8032-199.8336-25.088-68.6592-55.4496-53.248-79.6672-47.9744-77.4656 14.08-109.6192-16.2816-133.376-47.104-23.7568-30.8224-63.5904-38.2976-84.2752-11.8784-129.3824 148.5312-125.2864 275.2-116.224 334.5408 4.0448 26.4704 44.9024 34.9696 54.8352 10.1376 16.896-42.24 53.504-154.2656 69.9904-188.8256-29.5936 81.3568-12.0832 357.8368 12.3392 474.9312 2.4576 11.6736 7.3728 22.272 14.1312 31.3344h1.1776c48.1792 0 94.8736-6.0928 139.4688-17.5104 3.584-8.6528 5.7344-18.0224 6.144-27.8528 6.7584-173.312 39.9872-377.1392 53.9136-415.9488 11.8784 68.6592 89.8048 162.4064 89.8048 162.4064s-7.936 63.3856-6.6048 99.0208c0.4096 48.3328 5.0688 86.4256 12.4928 115.7632 34.7136-21.6064 66.9184-46.8992 96-75.3664 0-3.3792 0.0512-6.7072 0.2048-9.984 1.0752 2.304 2.1504 4.4544 3.1744 6.7072 58.624-58.3168 104.3968-129.536 132.7104-209.1008-40.4992 14.4896-76.9024 18.2272-95.4368 16.5376z" fill="#757BF2" ></path><path d="M545.3824 373.0432c-25.088-68.6592-55.4496-53.248-79.6672-47.9744-77.4656 14.08-109.6192-16.2816-133.376-47.104-23.7568-30.8224-63.5904-38.2976-84.2752-11.8784-129.3824 148.5312-125.2864 275.2-116.224 334.5408 4.0448 26.4704 44.9024 34.9696 54.8352 10.1376 16.896-42.24 53.504-154.2656 69.9904-188.8256-18.5344 50.9952-18.5856 178.5856-10.0352 295.5776 75.8272-15.9232 145.9712-47.1552 207.104-90.3168 11.008-78.7968 22.9888-140.6976 30.0032-160.3584 5.4272 31.232 24.4736 67.6864 43.6736 98.1504a560.2816 560.2816 0 0 0 67.328-81.664c-23.1936-36.864-37.5296-77.9776-49.3568-110.2848z" fill="#8486F8" ></path><path d="M434.8928 75.9296c-59.0848 0-106.9568 47.872-106.9568 106.9568s47.872 106.9568 106.9568 106.9568c5.7856 0 11.4176-0.5632 16.9984-1.4848 33.0752-48.0768 58.7776-101.5808 75.5712-158.9248-18.4832-31.9488-52.992-53.504-92.5696-53.504zM421.7344 328.2944c-46.848-2.3552-70.7584-26.1632-89.3952-50.3296-23.7568-30.8224-63.5904-38.2976-84.2752-11.8784-83.4048 95.744-111.3088 182.4256-118.2208 247.808 36.864-9.472 72.2432-22.5792 105.7792-38.9632 8.192-22.4768 15.6672-41.8304 20.992-52.992-4.352 11.9808-7.68 28.2624-10.0864 47.5648 67.584-34.9184 127.1808-83.0976 175.2064-141.2096z" fill="#8D92F8" ></path></svg>