<svg viewBox="0 0 1024 1024" version="1.1" xmlns="http://www.w3.org/2000/svg"><path d="M776.5504 148.1728H243.4048c-80.896 0-146.7392 65.8432-146.7392 146.7392v440.3712c0 80.896 65.8432 146.7392 146.7392 146.7392h533.1456c80.896 0 146.7392-65.8432 146.7392-146.7392V294.912c0-80.896-65.792-146.7392-146.7392-146.7392z m-451.584 155.7504c32.6144 0 59.0336 26.4192 59.0336 59.0336 0 32.6144-26.4192 59.0336-59.0336 59.0336-32.6144 0-59.0336-26.4192-59.0336-59.0336 0-32.6144 26.4192-59.0336 59.0336-59.0336z m510.5664 314.88c-15.8208 19.9168-44.7488 23.2448-64.6144 7.424l-147.9168-117.4016-163.0208 136.7552c-26.5728 22.272-66.048 19.968-89.856-5.2224l-11.1616-11.8272-111.0016 78.6944a45.7728 45.7728 0 0 1-26.5728 8.4992c-14.3872 0-28.5696-6.7584-37.5808-19.4048-14.6944-20.736-9.8304-49.4592 10.9056-64.1024l129.7408-92.0064c26.5216-18.7904 63.3344-15.1552 85.6064 8.4992l9.8304 10.3936 160.4608-134.6048c23.7568-19.9168 58.624-20.3776 82.8928-1.1264l164.8128 130.8672c19.968 15.7184 23.2448 44.6464 7.4752 64.5632z" fill="#6C6CEA" ></path><path d="M243.4048 148.1728c-80.896 0-146.7392 65.8432-146.7392 146.7392v440.3712c0 80.896 65.8432 146.7392 146.7392 146.7392h279.04c109.7216-55.296 200.9088-142.1312 261.5808-248.576-4.608-1.6384-9.0624-4.0448-13.1584-7.2704l-147.9168-117.4016-163.0208 136.7552c-26.5728 22.272-66.048 19.968-89.856-5.2224l-11.1616-11.8272-111.0016 78.6944a45.7728 45.7728 0 0 1-26.5728 8.4992c-14.3872 0-28.5696-6.7584-37.5808-19.4048-14.6944-20.736-9.8304-49.4592 10.9056-64.1024l129.7408-92.0064c26.5216-18.7904 63.3344-15.1552 85.6064 8.4992l9.8304 10.3936 160.4608-134.6048c23.7568-19.9168 58.624-20.3776 82.8928-1.1264l160.2048 127.1808c27.0848-69.8368 41.984-145.7664 41.984-225.1776 0-55.3984-7.2704-109.1072-20.8384-160.256-20.3776-10.7008-43.52-16.8448-68.096-16.8448H243.4048z m81.5616 273.8176c-32.6144 0-59.0336-26.4192-59.0336-59.0336 0-32.6144 26.4192-59.0336 59.0336-59.0336 32.6144 0 59.0336 26.4192 59.0336 59.0336 0 32.6144-26.4192 59.0336-59.0336 59.0336z" fill="#757BF2" ></path><path d="M205.312 712.7552a45.7728 45.7728 0 0 1-21.4528-16.4864c-14.6944-20.736-9.8304-49.4592 10.9056-64.1024l129.7408-92.0064c26.5216-18.7904 63.3344-15.1552 85.6064 8.4992l9.8304 10.3936 160.4608-134.6048c10.0864-8.448 22.1696-13.3632 34.6112-14.7968a618.9824 618.9824 0 0 0 78.4384-261.4784h-450.048c-80.896 0-146.7392 65.8432-146.7392 146.7392v431.6672c37.12-1.4336 73.4208-6.144 108.6464-13.824z m119.6544-408.832c32.6144 0 59.0336 26.4192 59.0336 59.0336 0 32.6144-26.4192 59.0336-59.0336 59.0336-32.6144 0-59.0336-26.4192-59.0336-59.0336 0-32.6144 26.4192-59.0336 59.0336-59.0336zM261.2224 697.8048c40.8064-13.0048 79.7696-30.1056 116.4288-50.7904-2.6112-2.048-5.1712-4.2496-7.5264-6.7072l-11.1616-11.8272-97.7408 69.3248z" fill="#8486F8" ></path><path d="M274.1248 392.9088a58.88 58.88 0 0 1-8.192-29.952c0-32.6144 26.4192-59.0336 59.0336-59.0336 14.2336 0 27.2896 5.0176 37.4784 13.4144 47.7696-49.2544 87.4496-106.3424 116.992-169.1648h-236.032c-80.896 0-146.7392 65.8432-146.7392 146.7392v184.832c64.1536-19.5072 123.904-49.0496 177.4592-86.8352z" fill="#8D92F8" ></path></svg>