<svg viewBox="0 0 1024 1024" version="1.1" xmlns="http://www.w3.org/2000/svg"><path d="M856.832 642.0992c-47.872-119.04-157.7472-202.5984-286.1568-220.2624v-20.992c59.5968-22.0672 102.1952-79.5136 102.1952-146.688 0-86.2208-70.144-156.416-156.3648-156.416s-156.3648 70.144-156.3648 156.416c0 70.7072 47.2064 130.6112 111.7696 149.8624v17.408c-129.4336 16.64-240.2304 100.096-288.7168 219.5456-59.5968 14.5408-103.936 67.1744-103.936 129.8944 0 73.8816 61.44 133.9904 136.96 133.9904s136.96-60.1088 136.96-133.9904c0-49.2032-27.3408-92.2112-67.8912-115.5072 37.2224-70.3488 106.24-119.808 186.624-133.9904v124.4672c-50.3296 19.3024-86.1696 67.9936-86.1696 125.0304 0 73.8816 60.1088 133.9904 133.9904 133.9904s133.9904-60.1088 133.9904-133.9904c0-55.808-34.3552-103.7312-82.9952-123.8528v-125.1328c78.2848 14.7968 145.6128 63.1296 182.528 131.584-42.2912 22.8352-71.0144 66.8672-71.0144 117.3504 0 73.8816 61.44 133.9904 136.96 133.9904s136.96-60.1088 136.96-133.9904c0-61.0816-42.0352-112.64-99.328-128.7168z" fill="#6C6CEA" ></path><path d="M886.8352 654.4896a138.14272 138.14272 0 0 0-30.0032-12.3904c-47.872-119.04-157.7472-202.5984-286.1568-220.2624v-20.992c59.5968-22.0672 102.1952-79.5136 102.1952-146.688 0-86.2208-70.144-156.416-156.3648-156.416s-156.3648 70.144-156.3648 156.416c0 70.7072 47.2064 130.6112 111.7696 149.8624v17.408c-129.4336 16.64-240.2304 100.096-288.7168 219.5456-59.5968 14.5408-103.936 67.1744-103.936 129.8944 0 73.8816 61.44 133.9904 136.96 133.9904s136.96-60.1088 136.96-133.9904c0-49.2032-27.3408-92.2112-67.8912-115.5072 37.2224-70.3488 106.24-119.808 186.624-133.9904v124.4672c-50.3296 19.3024-86.1696 67.9936-86.1696 125.0304 0 73.8816 60.1088 133.9904 133.9904 133.9904s133.9904-60.1088 133.9904-133.9904c0-55.808-34.3552-103.7312-82.9952-123.8528v-125.1328c78.2848 14.7968 145.6128 63.1296 182.528 131.584-42.2912 22.8352-71.0144 66.8672-71.0144 117.3504 0 28.8768 9.472 55.6032 25.4464 77.5168a625.31584 625.31584 0 0 0 179.1488-193.8432z" fill="#757BF2" ></path><path d="M570.6752 421.8368v-20.992c59.5968-22.0672 102.1952-79.5136 102.1952-146.688 0-86.2208-70.144-156.416-156.3648-156.416s-156.3648 70.144-156.3648 156.416c0 70.7072 47.2064 130.6112 111.7696 149.8624v17.408c-129.4336 16.64-240.2304 100.096-288.7168 219.5456-46.9504 11.4176-84.2752 46.5408-98.0992 91.5968 31.3856 4.864 63.5392 7.424 96.256 7.424 55.7056 0 109.7216-7.3728 161.0752-21.1456-11.5712-26.6752-31.744-48.9472-57.1392-63.488 37.2224-70.3488 106.24-119.808 186.624-133.9904v124.4672a134.23104 134.23104 0 0 0-64 51.5584c59.2384-23.1936 114.0736-55.296 162.816-94.5664v-80.9472c22.6304 4.2496 44.2368 11.4176 64.5632 20.992 22.8864-24.4736 43.8784-50.8416 62.6176-78.7968a367.63648 367.63648 0 0 0-127.232-42.24z" fill="#8486F8" ></path><path d="M516.5056 97.7408c-86.2208 0-156.3648 70.144-156.3648 156.416 0 50.2272 23.8592 94.8736 60.7744 123.4944 80.7936-66.816 144.384-153.7536 183.1424-253.0304a155.648 155.648 0 0 0-87.552-26.88z" fill="#8D92F8" ></path></svg>