<svg viewBox="0 0 1024 1024" version="1.1" xmlns="http://www.w3.org/2000/svg"><path d="M852.1728 265.0624h-111.0016V182.6816c0-36.608-29.7984-66.3552-66.3552-66.3552H356.096c-36.608 0-66.3552 29.7984-66.3552 66.3552v82.3808H178.7392c-44.288 0-80.1792 35.8912-80.1792 80.1792v96.2048H932.352V345.2416c0-44.288-35.8912-80.1792-80.1792-80.1792zM363.008 189.5936h304.896v75.52H363.008V189.5936z" fill="#3A9CED" ></path><path d="M607.6416 592.4352H423.2704V505.6H98.56v296.96c0 44.288 35.8912 80.1792 80.1792 80.1792h673.4848c44.288 0 80.1792-35.8912 80.1792-80.1792v-296.96h-324.7104v86.8352z" fill="#2595E8" ></path><path d="M932.352 505.6h-324.7104v86.8352H423.2704V505.6H98.56v296.96c0 44.288 35.8912 80.1792 80.1792 80.1792h372.3264c175.7184-60.416 315.9552-197.0688 381.2864-370.432v-6.7072z" fill="#3A9CED" ></path><path d="M770.6112 265.0624h-29.3888V182.6816c0-36.608-29.7984-66.3552-66.3552-66.3552H356.096c-36.608 0-66.3552 29.7984-66.3552 66.3552v82.3808H178.7392c-44.288 0-80.1792 35.8912-80.1792 80.1792v96.2048h580.9152a622.37696 622.37696 0 0 0 91.136-176.384z m-102.7072 0H363.008V189.5936h304.896v75.4688zM98.56 505.6v184.32c25.8048 3.2256 52.0704 4.9152 78.7456 4.9152 126.5152 0 244.2752-37.6832 342.6304-102.4H423.2704V505.6H98.56zM607.6416 505.6v17.2032c5.888-5.5808 11.6224-11.3664 17.3056-17.2032h-17.3056z" fill="#59ADF8" ></path><path d="M486.2464 265.0624H363.008V189.5936h180.9408c15.2064-23.3984 28.8768-47.872 40.9088-73.2672H356.096c-36.608 0-66.3552 29.7984-66.3552 66.3552v82.3808H178.7392c-44.288 0-80.1792 35.8912-80.1792 80.1792v96.2048h120.9856c103.7824-34.9184 195.328-96.4096 266.7008-176.384z" fill="#6BC2FC" ></path></svg>