<svg viewBox="0 0 1024 1024" version="1.1" xmlns="http://www.w3.org/2000/svg"><path d="M874.2912 190.2592c-74.9568 10.9056-269.9776 29.7984-353.7408-51.8144-10.0864-9.8304-26.112-10.2912-36.352-0.6144-31.5904 29.7984-116.8896 77.1072-336.7424 67.2256-15.0528-0.6656-27.6992 11.264-27.6992 26.368v212.1728c0 60.6208 25.7024 336.2816 362.5472 505.7536a43.32544 43.32544 0 0 0 38.5024 0.2048c378.1632-185.0368 383.5904-450.7136 383.5904-505.9584V216.3712c0-16.0256-14.2336-28.416-30.1056-26.112z m-196.2496 291.072l-65.1264 63.488c-3.84 3.7376-5.5808 9.1136-4.6592 14.336l15.36 89.6512c2.2528 13.2608-11.6224 23.3472-23.552 17.1008l-80.4864-42.3424c-4.7104-2.5088-10.3936-2.5088-15.104 0l-80.4864 42.3424c-11.8784 6.2464-25.8048-3.84-23.552-17.1008l15.36-89.6512c0.9216-5.2736-0.8192-10.6496-4.6592-14.336l-65.1264-63.488c-9.6256-9.3696-4.3008-25.7536 9.0112-27.648l90.0096-13.056c5.2736-0.768 9.8304-4.096 12.1856-8.8576l40.2432-81.5616c5.9392-12.032 23.1424-12.032 29.0816 0l40.2432 81.5616c2.3552 4.7616 6.912 8.0896 12.1856 8.8576l90.0096 13.056c13.3632 1.8944 18.688 18.2272 9.0624 27.648z" fill="#FF8E12" ></path><path d="M874.2912 190.2592c-74.9568 10.9056-269.9776 29.7984-353.7408-51.8144-10.0864-9.8304-26.112-10.2912-36.352-0.6144-31.5904 29.7984-116.8896 77.1072-336.7424 67.2256-15.0528-0.6656-27.6992 11.264-27.6992 26.368v212.1728c0 49.1008 16.896 239.36 202.3936 399.9232 2.7136 0.0512 5.4272 0.1024 8.1408 0.1024 315.2384 0 570.7776-255.5392 570.7776-570.7776 0-25.6512-1.7408-50.8928-5.0176-75.6224-5.632-5.2736-13.4656-8.1408-21.76-6.9632z m-196.2496 291.072l-65.1264 63.488c-3.84 3.7376-5.5808 9.1136-4.6592 14.336l15.36 89.6512c2.2528 13.2608-11.6224 23.3472-23.552 17.1008l-80.4864-42.3424c-4.7104-2.5088-10.3424-2.5088-15.104 0l-80.4864 42.3424c-11.8784 6.2464-25.8048-3.84-23.552-17.1008l15.36-89.6512c0.9216-5.2736-0.8192-10.6496-4.6592-14.336l-65.1264-63.488c-9.6256-9.3696-4.3008-25.7536 9.0112-27.648l90.0096-13.056c5.2736-0.768 9.8304-4.096 12.1856-8.8576l40.2432-81.5616c5.9392-12.032 23.1424-12.032 29.0816 0l40.2432 81.5616c2.3552 4.7616 6.912 8.0896 12.1856 8.8576l90.0096 13.056c13.3632 1.8944 18.688 18.2272 9.0624 27.648z" fill="#FCA315" ></path><path d="M415.8464 559.1552c0.9216-5.2736-0.8192-10.6496-4.6592-14.336l-65.1264-63.488c-9.6256-9.3696-4.3008-25.7536 9.0112-27.648l90.0096-13.056c5.2736-0.768 9.8304-4.096 12.1856-8.8576l40.2432-81.5616c5.9392-12.032 23.1424-12.032 29.0816 0l40.2432 81.5616c2.3552 4.7616 6.912 8.0896 12.1856 8.8576l26.0096 3.7888c59.8528-68.9152 103.5264-152.32 124.928-244.224-77.3632-1.2288-161.5872-15.0016-209.4592-61.696-10.0864-9.8304-26.112-10.2912-36.352-0.6144-31.5904 29.7984-116.8896 77.1072-336.7424 67.2256-15.0528-0.6656-27.6992 11.264-27.6992 26.368v212.1728c0 28.7744 5.8368 105.984 47.872 197.2224 2.1504 0 4.352 0.1024 6.5024 0.1024 84.3776 0 164.4544-18.3296 236.4928-51.1488l5.2736-30.6688z" fill="#FCB138" ></path><path d="M529.1008 146.1248c-2.9696-2.4576-5.8368-5.0176-8.6016-7.68-10.0864-9.8304-26.112-10.2912-36.352-0.6144-31.5904 29.7984-116.8896 77.1072-336.7424 67.2256-15.0528-0.6656-27.6992 11.264-27.6992 26.368v200.5504c176.1792-27.648 325.632-135.936 409.3952-285.8496z" fill="#FFC65E" ></path></svg>