<svg viewBox="0 0 1024 1024" version="1.1" xmlns="http://www.w3.org/2000/svg"><path d="M274.432 300.4416c-33.0752-37.888-66.1504-75.8272-99.2768-113.7664-12.5952-14.3872-27.136-27.5968-37.1712-43.5712-6.5536-10.3936-11.6736-26.6752-8.0384-36.9152 2.9696-8.3968 19.9168-16.6912 30.6688-16.7424 237.2608-0.9216 474.5216-0.9728 711.7312 0.1024 11.008 0.0512 26.112 9.8816 31.6416 19.5072 3.9936 7.0656-1.4848 23.9616-8.192 31.9488-39.7824 47.5136-81.1008 93.696-121.9072 140.3904-4.9664 5.6832-9.728 11.4688-15.9232 18.7904 93.0816 88.1152 136.3968 195.072 121.6 322.2528-11.2128 96.0512-55.296 176.384-129.7408 237.9264-147.968 122.368-370.1248 107.5712-500.0704-30.0544-133.376-141.312-140.288-381.2864 24.6784-529.8688z m119.04 406.9888c-1.5872 30.6688 20.736 46.2336 48.2304 33.536 18.0224-8.2944 35.5328-17.8688 52.8896-27.5456 14.5408-8.0896 28.0576-9.216 42.9568-0.2048 16.3328 9.8816 33.4336 18.5856 50.6368 26.88 29.9008 14.4384 52.8896-1.1264 49.6128-34.0992-1.9456-19.712-6.2464-39.2192-9.8304-58.7776-3.1744-17.3568 1.6896-31.2832 15.0016-43.1104 14.848-13.2096 29.9008-26.4704 43.008-41.3184 18.7904-21.1968 10.8544-46.0288-16.6912-52.3776-19.3024-4.4544-39.168-6.7072-58.9312-9.0112-18.2784-2.0992-31.232-10.1376-39.0144-27.392-8.192-18.1248-17.152-35.8912-26.7776-53.2992-15.104-27.2896-41.8304-27.5456-56.9856-0.5632-9.728 17.3056-18.5856 35.1744-26.7264 53.3504-7.68 17.2544-20.48 25.7536-38.8096 27.8016-16.7424 1.8432-34.0992 2.2016-49.7664 7.424-12.3904 4.096-26.6752 12.1856-32.9728 22.784-8.192 13.7216 1.536 27.2384 13.4656 37.6832 12.6464 11.1104 24.0128 23.552 36.352 35.072 13.4144 12.4928 19.0464 26.5728 14.5408 45.2608-4.5568 19.3024-6.9632 39.1168-10.1888 57.9072z" fill="#FF3369" ></path><path d="M871.4752 485.3248c-17.5616-69.12-56.0128-130.7648-113.5104-185.1904 6.1952-7.3216 10.9568-13.1072 15.9232-18.7904 40.8064-46.6432 82.1248-92.8256 121.9072-140.3904 6.656-7.9872 12.1856-24.8832 8.192-31.9488-5.4784-9.6768-20.5824-19.456-31.6416-19.5072-237.2608-1.0752-474.5216-1.0752-711.7312-0.1024-10.8032 0.0512-27.6992 8.3456-30.6688 16.7424-3.6352 10.2912 1.4848 26.5216 8.0384 36.9152 10.0864 15.9744 24.576 29.1328 37.1712 43.5712 33.1264 37.9392 66.2016 75.8784 99.2768 113.7664-164.9664 148.5824-158.0544 388.5568-24.6272 529.8688a350.8736 350.8736 0 0 0 29.184 27.4944c3.584 0.0512 7.168 0.1536 10.752 0.1536 258.048 0 480.4096-152.6272 581.7344-372.5824z m-185.4464 77.5168c-13.1584 14.848-28.16 28.1088-43.008 41.3184-13.2608 11.8272-18.176 25.8048-15.0016 43.1104 3.584 19.5584 7.8336 39.0656 9.7792 58.7776 3.2768 33.024-19.7632 48.5888-49.6128 34.0992-17.2032-8.3456-34.304-16.9984-50.6368-26.88-14.8992-9.0624-28.416-7.8848-42.9568 0.2048-17.3568 9.6768-34.8672 19.2-52.8896 27.5456-27.4944 12.6464-49.8176-2.8672-48.2304-33.536 3.2256-18.7904 5.632-38.6048 10.2912-57.9072 4.5056-18.688-1.1264-32.768-14.5408-45.2608-12.288-11.4688-23.7056-23.9616-36.352-35.072-11.9296-10.4448-21.6064-23.9616-13.4656-37.6832 6.2976-10.5984 20.5824-18.6368 32.9728-22.784 15.7184-5.2224 33.0752-5.5808 49.7664-7.424 18.3296-1.9968 31.0784-10.5472 38.8096-27.8016 8.0896-18.1248 16.9984-35.9936 26.7264-53.3504 15.1552-27.0336 41.8816-26.7264 56.9856 0.5632 9.6256 17.3568 18.5856 35.1744 26.7776 53.2992 7.7824 17.2544 20.736 25.2928 39.0144 27.392 19.712 2.304 39.5776 4.5568 58.9312 9.0112 27.4944 6.3488 35.4304 31.1808 16.64 52.3776z" fill="#FF4D7C" ></path><path d="M160.6144 89.3952c-10.8032 0.0512-27.6992 8.3456-30.6688 16.7424-3.6352 10.2912 1.4848 26.5216 8.0384 36.9152 10.0864 15.9744 24.576 29.1328 37.1712 43.5712 33.1264 37.9392 66.2016 75.8784 99.2768 113.7664-100.0448 90.1632-136.8064 213.9136-120.4736 328.9088 74.2912-4.5056 145.152-21.6064 210.432-49.3056-3.7888-3.6864-7.5776-7.2704-11.52-10.752-11.9296-10.4448-21.6064-23.9616-13.4656-37.6832 6.2976-10.5984 20.5824-18.6368 32.9728-22.784 15.7184-5.2224 33.0752-5.5808 49.7664-7.424 18.3296-1.9968 31.0784-10.5472 38.8096-27.8016 8.0896-18.1248 16.9984-35.9936 26.7264-53.3504 15.1552-27.0336 41.8816-26.7264 56.9856 0.5632 5.376 9.6768 10.4448 19.456 15.36 29.3888 97.792-94.72 165.4272-220.3136 187.2384-361.0624-195.5328-0.5632-391.0656-0.4608-586.6496 0.3072z" fill="#FF5F89" ></path><path d="M238.9504 336.9984C349.9008 281.6512 442.5216 195.072 505.2928 88.7296c-114.8928 0-229.7344 0.256-344.6272 0.6656-10.8032 0.0512-27.6992 8.3456-30.6688 16.7424-3.6352 10.2912 1.4848 26.5216 8.0384 36.9152 10.0864 15.9744 24.576 29.1328 37.1712 43.5712 33.1264 37.9392 66.2016 75.8784 99.2768 113.7664a384.896 384.896 0 0 0-35.5328 36.608z" fill="#FF7196" ></path></svg>