<svg viewBox="0 0 1024 1024" version="1.1" xmlns="http://www.w3.org/2000/svg"><path d="M916.3264 819.712h-54.9888V381.184a30.3616 30.3616 0 0 0-30.3616-30.3616h-117.0944a30.3616 30.3616 0 0 0-30.3616 30.3616v438.528h-83.6608v-285.5424a30.3616 30.3616 0 0 0-30.3616-30.3616H452.4544a30.3616 30.3616 0 0 0-30.3616 30.3616v285.5424H341.8112v-128.768a30.3616 30.3616 0 0 0-30.3616-30.3616H194.3552a30.3616 30.3616 0 0 0-30.3616 30.3616v128.768H111.4112c-25.088 0-45.4656 20.3264-45.4656 45.4656s20.3264 45.4656 45.4656 45.4656h804.9152c25.088 0 45.4656-20.3264 45.4656-45.4656s-20.3264-45.4656-45.4656-45.4656z" fill="#6C6CEA" ></path><path d="M183.3472 561.92c10.8544 0 21.7088-3.84 30.4128-11.6736L437.0944 349.184l64.6144 50.3808a45.40416 45.40416 0 0 0 58.8288-2.5088l161.9456-150.016v10.2912c0 25.088 20.3264 45.4656 45.4656 45.4656s45.4656-20.3264 45.4656-45.4656V135.68c0-25.088-20.3264-45.4656-45.4656-45.4656H641.536c-25.088 0-45.4656 20.3264-45.4656 45.4656s20.3264 45.4656 45.4656 45.4656h18.432L527.1552 304.128l-64.1536-50.0736a45.44512 45.44512 0 0 0-58.368 2.048L152.9344 482.7136a45.48608 45.48608 0 0 0-3.3792 64.2048 45.54752 45.54752 0 0 0 33.792 15.0016zM861.3888 597.248v-216.064a30.3616 30.3616 0 0 0-30.3616-30.3616h-117.0944a30.3616 30.3616 0 0 0-30.3616 30.3616v438.528h-83.6608v-285.5424a30.3616 30.3616 0 0 0-30.3616-30.3616H452.4544a30.3616 30.3616 0 0 0-30.3616 30.3616v285.5424H341.8112v-128.768a30.3616 30.3616 0 0 0-30.3616-30.3616H194.3552a30.3616 30.3616 0 0 0-30.3616 30.3616v128.768H111.4112c-25.088 0-45.4656 20.3264-45.4656 45.4656s20.3264 45.4656 45.4656 45.4656h506.7264c113.152-73.0624 199.9872-183.2448 243.2512-313.3952z" fill="#757BF2" ></path><path d="M596.0704 135.68c0 25.088 20.3264 45.4656 45.4656 45.4656h18.432L527.1552 304.128l-64.1536-50.0736a45.44512 45.44512 0 0 0-58.368 2.048L152.9344 482.7136a45.48608 45.48608 0 0 0-3.3792 64.2048 45.25568 45.25568 0 0 0 33.792 15.0528c10.8544 0 21.7088-3.84 30.4128-11.6736L437.0944 349.184l64.6144 50.3808a45.40416 45.40416 0 0 0 58.8288-2.5088l161.9456-150.016v10.2912c0 4.1472 0.6144 8.1408 1.6384 11.9808 2.8672-23.7056 4.5056-47.8208 4.5056-72.2944 0-36.5056-3.4304-72.1408-9.728-106.8544h-77.4144c-25.088 0.0512-45.4144 20.4288-45.4144 45.5168zM708.352 351.4368c-14.1312 2.6112-24.832 14.9504-24.832 29.7984v43.52c9.8304-23.7568 18.1248-48.2304 24.832-73.3184zM422.0928 534.1696v184.2688a600.2176 600.2176 0 0 0 177.8176-151.3984v-32.8704a30.3616 30.3616 0 0 0-30.3616-30.3616H452.4544a30.3616 30.3616 0 0 0-30.3616 30.3616zM341.8112 755.712v-64.768a30.3616 30.3616 0 0 0-30.3616-30.3616H194.3552a30.3616 30.3616 0 0 0-30.3616 30.3616v101.9392a592.5888 592.5888 0 0 0 177.8176-37.1712z" fill="#8486F8" ></path><path d="M462.9504 254.0544a45.44512 45.44512 0 0 0-58.368 2.048L152.9344 482.7136a45.48608 45.48608 0 0 0-3.3792 64.2048 45.25568 45.25568 0 0 0 33.792 15.0528c10.8544 0 21.7088-3.84 30.4128-11.6736L437.0944 349.184l21.9136 17.1008c18.2784-24.2688 34.6624-50.0224 49.1008-76.9536l-45.1584-35.2768z" fill="#8D92F8" ></path></svg>