<?xml version="1.0" standalone="no"?><!DOCTYPE svg PUBLIC "-//W3C//DTD SVG 1.1//EN" "http://www.w3.org/Graphics/SVG/1.1/DTD/svg11.dtd"><svg class="icon" width="66px" height="66.00px" viewBox="0 0 1024 1024" version="1.1" xmlns="http://www.w3.org/2000/svg"><path d="M460.664 65.338c24.524-7.036 45.532 14.734 47.074 40.96 3.204 54.546 14.16 114.63 43.104 154.86 15.05 20.92 44.006 25.916 62.032 7.672 18.35-18.572 32.71-46.754 43.834-77.19 11.036-30.206 46.256-44.512 70.91-24.65C842.342 259.424 960 400.44 960 590.036 960 845.444 759.424 960 512 960S64 845.444 64 590.036C64 330.542 284.402 162.054 416.024 84.57c14.304-8.42 29.292-14.832 44.64-19.232z" fill="#FF7B7B" /><path d="M528.2 493.78c-10.29-5.574-22.11-5.574-32.4 0-40.066 21.696-140.6 86.98-140.6 195.852 0 93.866 70.2 135.968 156.8 135.968 86.6 0 156.8-42.1 156.8-135.968 0-108.874-100.532-174.156-140.6-195.852z" fill="#FFB0B0" /></svg>