<svg viewBox="0 0 1024 1024" version="1.1" xmlns="http://www.w3.org/2000/svg"><path d="M540.4672 601.1904l92.7232-96.6656c14.8992-15.5648 39.6288-16.0768 55.1936-1.1264a39.00416 39.00416 0 0 1 1.1264 55.1936l-38.8096 40.448h242.7392c21.5552 0 39.0144 17.4592 39.0144 39.0144s-17.4592 39.0144-39.0144 39.0144h-245.6576l32.8704 35.9424c14.5408 15.9232 13.4656 40.6016-2.4576 55.1424-7.4752 6.8608-16.9472 10.24-26.3168 10.24-10.5984 0-21.0944-4.2496-28.8256-12.6976l-83.456-91.2384c-18.9952-20.736-18.6368-52.9408 0.8704-73.2672z" fill="#2595E8" ></path><path d="M896.5632 732.1088c-1.024 0.0512-2.048 0.1536-3.1232 0.1536h-147.6608c0.256 3.7376 0.3072 7.5264 0.1536 11.3152-1.1264 25.1392-11.9808 48.3328-30.5152 65.3312-17.408 15.9232-39.9872 24.6784-63.5392 24.6784a94.208 94.208 0 0 1-69.5296-30.6688L498.944 711.68c-38.5536-42.1376-37.7856-107.4688 1.792-148.6848l92.7232-96.6656c27.5456-28.7232 69.0176-36.096 103.8336-21.8112a226.816 226.816 0 0 0 38.656-126.8224c0-125.952-102.5024-228.4544-228.4544-228.4544S278.8864 191.744 278.8864 317.696c0 69.888 31.5392 132.5056 81.152 174.4384a415.9488 415.9488 0 0 0-135.5776 83.7632c-76.8 70.912-123.904 167.168-132.608 270.9504-0.2048 2.5088-0.256 5.0176-0.2048 7.5264 0.256 16.9472 6.7072 33.3824 18.2784 45.9264a69.8368 69.8368 0 0 0 51.1488 22.3744h0.1024c94.6688-0.1536 185.856-0.8192 274.0736-1.536 24.5248-0.2048 48.4864-0.3584 71.9872-0.5632 23.6032 0.1536 47.7184 0.3584 72.3456 0.5632 88.1664 0.6656 179.4048 1.3824 274.0736 1.536h0.1024c19.3536 0 37.9904-8.1408 51.1488-22.4256 11.5712-12.544 18.0736-28.9792 18.2784-45.8752 0.0512-2.5088 0-5.0688-0.2048-7.5776a416.95744 416.95744 0 0 0-26.4192-114.688z" fill="#2595E8" ></path><path d="M745.7792 732.2624c0.256 3.7376 0.3072 7.5264 0.1536 11.3152-1.1264 25.1392-11.9808 48.3328-30.5152 65.3312-17.408 15.9232-39.9872 24.6784-63.5392 24.6784a94.208 94.208 0 0 1-69.5296-30.6688L498.944 711.68c-38.5536-42.1376-37.7856-107.4688 1.792-148.6848l92.7232-96.6656c27.5456-28.7232 69.0176-36.096 103.8336-21.8112a226.816 226.816 0 0 0 38.656-126.8224c0-125.952-102.5024-228.4544-228.4544-228.4544S278.8864 191.744 278.8864 317.696c0 69.888 31.5392 132.5056 81.152 174.4384a415.9488 415.9488 0 0 0-135.5776 83.7632c-76.8 70.912-123.904 167.168-132.608 270.9504-0.2048 2.5088-0.256 5.0176-0.2048 7.5264 0.256 16.9472 6.7072 33.3824 18.2784 45.9264a69.8368 69.8368 0 0 0 51.1488 22.3744h0.1024c94.6688-0.1536 185.856-0.8192 274.0736-1.536 24.5248-0.2048 48.4864-0.3584 71.9872-0.5632 23.6032 0.1536 47.7184 0.3584 72.3456 0.5632 1.9968 0 3.9936 0.0512 5.9904 0.0512a625.34656 625.34656 0 0 0 196.2496-188.9792h-36.0448z" fill="#39A5E9" ></path><path d="M848.6912 599.04H650.752l38.8096-40.448a39.10144 39.10144 0 0 0-1.1264-55.1936c-15.5648-14.8992-40.2432-14.4384-55.1936 1.1264l-92.7232 96.6656c-19.5072 20.3264-19.8656 52.48-0.8704 73.2672l83.456 91.2384a38.78912 38.78912 0 0 0 28.8256 12.6976c9.4208 0 18.8416-3.3792 26.3168-10.24 15.9232-14.5408 16.9984-39.2192 2.4576-55.1424l-32.8704-35.9424h166.6048c13.056-25.0368 24.576-51.0976 34.2528-78.0288z" fill="#39A5E9" ></path><path d="M472.7808 660.3776c-6.9632-33.9968 2.2528-70.7072 27.8528-97.3312l92.7232-96.6656c16.4864-17.2032 37.9392-26.6752 60.0064-28.5184 32.5632-67.5328 53.0944-141.8752 59.2896-220.2624-37.1712-75.9296-115.2512-128.3584-205.312-128.3584-125.952 0-228.4544 102.5024-228.4544 228.4544 0 69.888 31.5392 132.5056 81.152 174.4384a415.9488 415.9488 0 0 0-135.5776 83.7632c-62.5664 57.8048-105.4208 132.4544-123.8528 214.272 140.0832-1.8432 269.0048-49.9712 372.1728-129.792z" fill="#55B5F3" ></path><path d="M507.3408 89.2416c-125.952 0-228.4544 102.5024-228.4544 228.4544 0 45.3632 13.3632 87.6032 36.2496 123.1872 111.2576-85.7088 192.6144-208.0768 226.0992-349.1328-11.0592-1.6384-22.3744-2.5088-33.8944-2.5088z" fill="#6BC2FC" ></path></svg>