<svg viewBox="0 0 1024 1024" version="1.1" xmlns="http://www.w3.org/2000/svg"><path d="M752.6912 121.8048H278.528c-82.7904 0-150.1696 67.3792-150.1696 150.1696v479.9488c0 82.7904 67.3792 150.1696 150.1696 150.1696h474.1632c82.7904 0 150.1696-67.3792 150.1696-150.1696V271.9744c0-82.8416-67.328-150.1696-150.1696-150.1696zM349.8496 726.784c-57.1904 0-103.7312-46.5408-103.7312-103.7312 0-57.1904 46.5408-103.7312 103.7312-103.7312s103.7312 46.5408 103.7312 103.7312c-0.0512 57.2416-46.592 103.7312-103.7312 103.7312z m118.9376-383.9488L365.1072 443.5968a38.69696 38.69696 0 0 1-26.9312 10.9568h-0.6656a38.6816 38.6816 0 0 1-27.2384-11.8784L249.6512 379.5968c-14.7968-15.4112-14.336-39.8848 1.0752-54.6816 15.4112-14.7968 39.8848-14.336 54.6816 1.0752l33.6384 35.0208 75.776-73.6256c15.3088-14.8992 39.8336-14.5408 54.6816 0.768a38.61504 38.61504 0 0 1-0.7168 54.6816z m295.7824 325.7856h-223.5392a42.19392 42.19392 0 0 1 0-84.3776h223.5392a42.19392 42.19392 0 0 1 0 84.3776z m0-252.7744h-223.5392a42.19392 42.19392 0 0 1 0-84.3776h223.5392a42.19392 42.19392 0 0 1 0 84.3776z" fill="#BD50D3" ></path><path d="M349.0304 588.5952c-19.5584 0-35.4304 15.9232-35.4304 35.4304s15.9232 35.4304 35.4304 35.4304c19.5584 0 35.4304-15.9232 35.4304-35.4304s-15.872-35.4304-35.4304-35.4304z" fill="#BD50D3" ></path><path d="M349.0304 588.5952c-19.5584 0-35.4304 15.9232-35.4304 35.4304 0 6.912 2.048 13.3632 5.5296 18.7904 21.76-8.8576 42.9056-18.944 63.3344-30.1568-4.7616-13.9264-17.8688-24.064-33.4336-24.064z" fill="#CA6EE0" ></path><path d="M862.3616 169.728c-27.4432-29.3888-66.4064-47.9232-109.6704-47.9232H278.528c-82.7904 0-150.1696 67.3792-150.1696 150.1696v479.9488c0 82.7904 67.3792 150.1696 150.1696 150.1696h65.024c162.3552-23.296 304.2816-109.7216 400.384-233.472h-202.9568a42.19392 42.19392 0 0 1 0-84.3776h223.5392c10.9568 0 20.9408 4.2496 28.4672 11.1104 51.456-90.2656 80.9472-194.7136 80.9472-306.0736 0.0512-40.9088-3.9936-80.896-11.5712-119.552z m-512.512 557.056c-57.1904 0-103.7312-46.5408-103.7312-103.7312 0-57.1904 46.5408-103.7312 103.7312-103.7312s103.7312 46.5408 103.7312 103.7312c-0.0512 57.2416-46.592 103.7312-103.7312 103.7312z m118.9376-383.9488L365.1072 443.5968a38.69696 38.69696 0 0 1-26.9312 10.9568h-0.6656a38.6816 38.6816 0 0 1-27.2384-11.8784L249.6512 379.5968c-14.7968-15.4112-14.336-39.8848 1.0752-54.6816 15.4112-14.7968 39.8848-14.336 54.6816 1.0752l33.6384 35.0208 75.776-73.6256c15.3088-14.8992 39.8336-14.5408 54.6816 0.768a38.61504 38.61504 0 0 1-0.7168 54.6816z m295.7824 73.0112h-223.5392a42.19392 42.19392 0 0 1 0-84.3776h223.5392a42.19392 42.19392 0 0 1 0 84.3776z" fill="#BF5CD6" ></path><path d="M541.0304 331.4688h105.3696c30.2592-64.6144 49.7152-135.2192 55.9616-209.664H278.528c-82.7904 0-150.1696 67.3792-150.1696 150.1696v415.0784c43.6224-2.9696 86.016-10.4448 126.6688-22.016a103.27552 103.27552 0 0 1-8.9088-41.9328c0-57.1904 46.5408-103.7312 103.7312-103.7312 40.0896 0 74.8544 22.8864 92.1088 56.2688 61.3376-43.264 114.3808-97.536 156.4672-159.7952h-57.3952a42.19392 42.19392 0 0 1 0-84.3776z m-72.2432 11.3664L365.1072 443.5968a38.69696 38.69696 0 0 1-26.9312 10.9568h-0.6656a38.6816 38.6816 0 0 1-27.2384-11.8784L249.6512 379.5968c-14.7968-15.4112-14.336-39.8848 1.0752-54.6816 15.4112-14.7968 39.8848-14.336 54.6816 1.0752l33.6384 35.0208 75.776-73.6256c15.3088-14.8992 39.8336-14.5408 54.6816 0.768a38.61504 38.61504 0 0 1-0.7168 54.6816z" fill="#CA6EE0" ></path><path d="M249.6512 379.5968c-14.7968-15.4112-14.336-39.8848 1.0752-54.6816 15.4112-14.7968 39.8848-14.336 54.6816 1.0752l9.0112 9.3696C386.4576 278.1184 445.44 205.2608 486.2464 121.8048H278.528c-82.7904 0-150.1696 67.3792-150.1696 150.1696v164.864c42.9056-14.5408 83.6096-33.6896 121.7024-56.7808l-0.4096-0.4608z" fill="#D786EA" ></path></svg>