<?xml version="1.0" standalone="no"?><!DOCTYPE svg PUBLIC "-//W3C//DTD SVG 1.1//EN" "http://www.w3.org/Graphics/SVG/1.1/DTD/svg11.dtd"><svg class="icon" width="66px" height="66.00px" viewBox="0 0 1024 1024" version="1.1" xmlns="http://www.w3.org/2000/svg"><path d="M813.668 142.196c38.66 3.88 68.968 29.468 76.562 67.572 11.222 56.4 24.17 159.66 24.17 335.832 0 176.176-12.948 279.44-24.17 335.82-7.594 38.126-37.9 63.706-76.562 67.58-52.596 5.288-145.736 11-302.468 11-156.732 0-249.872-5.712-302.468-11-38.66-3.874-68.968-29.454-76.562-67.58C120.948 825.04 108 721.776 108 545.6c0-176.174 12.948-279.432 24.17-335.832 7.594-38.104 37.9-63.692 76.562-67.572 52.596-5.28 145.736-10.996 302.468-10.996 156.732 0 249.872 5.716 302.468 10.996z" fill="#CFAEFF" /><path d="M712.016 387.762c22.826 13.174 30.24 43.334 15.702 65.674-79.206 121.732-150.394 201.566-190.714 242.714-20.316 20.72-51.16 23.43-74.032 5.712-35.84-27.798-91.212-77.146-144.838-150.46-13.014-17.808-10.796-42.606 4.324-58.554l12.186-12.836c17.046-17.972 44.888-19.054 62.294-1.432 52.26 52.886 97.44 110.096 97.44 110.096s63.48-93.968 155.232-196.344c14.134-15.77 37.026-19.214 55.238-8.708l7.168 4.14z" fill="#FFFFFF" /><path d="M615.516 65.02c38.954 0.81 68.366 35.082 64.064 73.802l-4.95 44.6c-3.786 34.032-32.546 59.778-66.796 59.778H414.52c-34.228 0-62.99-25.746-66.774-59.78l-4.952-44.598c-4.322-38.72 25.112-72.992 64.042-73.802 31.18-0.648 65.834-1.02 104.34-1.02s73.18 0.372 104.34 1.02z" fill="#A871FF" /></svg>