<svg viewBox="0 0 1024 1024" version="1.1" xmlns="http://www.w3.org/2000/svg"><path d="M921.4976 355.584a15.15008 15.15008 0 0 0-15.1552-16.1792h-239.36l-53.4528-224.4096c-2.8672-11.9808-13.568-20.48-25.9072-20.48H451.3792c-12.3392 0-23.04 8.448-25.9072 20.48L371.968 339.4048H117.6576c-8.96 0-15.9744 7.68-15.1552 16.5376 5.4272 57.6 36.8128 250.112 216.6784 333.8752l-41.6768 191.6928c-3.6352 16.5888 9.0624 32.3072 26.0608 32.3072h425.7792c16.9984 0 29.6448-15.7184 26.0096-32.3072l-41.7792-192.0512c177.4592-84.1728 203.9808-276.8384 207.9232-333.8752zM337.1008 588.9024a32.82944 32.82944 0 0 1-45.3632 10.0352c-71.9872-45.9264-95.1296-139.3152-96.1024-143.3088a32.85504 32.85504 0 0 1 24.2688-39.6288 32.8192 32.8192 0 0 1 39.5776 24.1664c0.256 1.0752 18.3296 71.936 67.584 103.3216 15.3088 9.8304 19.8144 30.1056 10.0352 45.4144z" fill="#F23D4F" ></path><path d="M666.9824 339.4048l-53.4528-224.4096c-2.8672-11.9808-13.568-20.48-25.9072-20.48H451.3792c-12.3392 0-23.04 8.448-25.9072 20.48L371.968 339.4048H117.6576c-8.96 0-15.9744 7.68-15.1552 16.5376 5.4272 57.6 36.8128 250.112 216.6784 333.8752l-41.6768 191.6928c-0.4608 2.2016-0.6656 4.4032-0.5632 6.5536 2.3552 0.0512 4.7104 0.1024 7.1168 0.1024 303.872 0 550.4512-245.3504 552.448-548.7616h-169.5232z m-329.8816 249.4976a32.7424 32.7424 0 0 1-45.312 10.0352c-71.9872-45.9264-95.1296-139.3152-96.1024-143.3088a32.85504 32.85504 0 0 1 24.2688-39.6288 32.8192 32.8192 0 0 1 39.5776 24.1664c0.256 1.0752 18.3296 71.936 67.584 103.3216 15.2576 9.8304 19.7632 30.1056 9.984 45.4144z" fill="#FC4956" ></path><path d="M659.3536 307.4048l-45.824-192.3584c-2.8672-11.9808-13.568-20.48-25.9072-20.48H451.3792c-12.3392 0-23.04 8.448-25.9072 20.48L371.968 339.4048H117.6576c-8.96 0-15.9744 7.68-15.1552 16.5376 5.0176 53.6064 32.6656 224.1536 181.6064 315.0336 177.9712-50.4832 319.2832-188.0064 375.2448-363.5712z m-322.2528 281.4976a32.7424 32.7424 0 0 1-45.312 10.0352c-71.9872-45.9264-95.1296-139.3152-96.1024-143.3088a32.85504 32.85504 0 0 1 24.2688-39.6288 32.8192 32.8192 0 0 1 39.5776 24.1664c0.256 1.0752 18.3296 71.936 67.584 103.3216 15.2576 9.8304 19.7632 30.1056 9.984 45.4144z" fill="#FF5C64" ></path><path d="M195.6352 455.6288a32.85504 32.85504 0 0 1 24.2688-39.6288c14.1312-3.4304 28.2112 3.0208 35.4816 14.7456 130.304-70.144 229.1712-191.0272 270.2336-336.1792h-74.24c-12.3392 0-23.04 8.448-25.9072 20.48L371.968 339.4048H117.6576c-8.96 0-15.9744 7.68-15.1552 16.5376 2.2528 23.808 8.96 70.6048 28.672 123.2896 22.272-5.6832 44.032-12.7488 65.1264-21.0432-0.3584-1.3312-0.5632-2.2528-0.6656-2.56z" fill="#FF716E" ></path></svg>