<?xml version="1.0" standalone="no"?><!DOCTYPE svg PUBLIC "-//W3C//DTD SVG 1.1//EN" "http://www.w3.org/Graphics/SVG/1.1/DTD/svg11.dtd"><svg class="icon" width="66px" height="66.00px" viewBox="0 0 1024 1024" version="1.1" xmlns="http://www.w3.org/2000/svg"><path d="M108.956 274.908c3.9-36.176 28.406-64.07 64.14-70.842C228.744 193.52 332.764 181 513 181s284.254 12.522 339.906 23.066c35.732 6.772 60.238 34.666 64.138 70.842C922.314 323.74 928 409.904 928 554.5c0 144.596-5.686 230.762-10.956 279.592-3.9 36.176-28.406 64.07-64.14 70.842C797.256 915.48 693.236 928 513 928s-284.254-12.522-339.906-23.066c-35.732-6.772-60.236-34.666-64.138-70.842C103.686 785.26 98 699.096 98 554.5c0-144.596 5.686-230.762 10.956-279.592z" fill="#FCBF28" /><path d="M758.472 99.296c12.97 1.072 21.892 10.572 22.764 23.56 0.808 11.928 1.514 30.306 1.514 58.144 0 4.472-0.02 8.7-0.062 12.696 29.112 3.336 52.186 6.956 70.198 10.37 35.752 6.772 60.258 34.666 64.158 70.842 1.992 18.37 4.026 42.028 5.81 72.092H103.146c1.784-30.064 3.818-53.72 5.79-72.092 3.92-36.176 28.406-64.07 64.16-70.842 18.01-3.414 41.104-7.034 70.216-10.372-0.04-3.994-0.062-8.222-0.062-12.694 0-27.84 0.706-46.216 1.514-58.146 0.872-12.986 9.794-22.486 22.764-23.558 8.82-0.728 21.124-1.296 37.972-1.296 16.848 0 29.154 0.568 37.972 1.296 12.97 1.072 21.892 10.572 22.764 23.56 0.808 11.928 1.514 30.306 1.514 58.144v3.12c41.77-1.94 89.91-3.12 145.25-3.12 55.32 0 103.48 1.18 145.25 3.12V181c0-27.84 0.706-46.216 1.514-58.146 0.872-12.986 9.794-22.486 22.764-23.558 8.82-0.728 21.122-1.296 37.972-1.296s29.154 0.568 37.972 1.296z" fill="#FF934A" /><path d="M244.184 496.38c0.726-11.918 8.486-21.15 20.314-22.692 9.15-1.194 22.348-2.188 41.002-2.188 18.654 0 31.852 0.994 41.002 2.188 11.828 1.542 19.588 10.774 20.314 22.694 0.52 8.524 0.934 20.584 0.934 37.368 0 16.784-0.416 28.844-0.934 37.368-0.726 11.92-8.486 21.152-20.314 22.694-9.15 1.194-22.348 2.188-41.002 2.188-18.654 0-31.852-0.994-41.002-2.188-11.828-1.542-19.588-10.774-20.314-22.694-0.52-8.524-0.934-20.584-0.934-37.368 0-16.784 0.414-28.844 0.934-37.368z m0 207.5c0.726-11.918 8.486-21.15 20.314-22.692 9.15-1.194 22.348-2.188 41.002-2.188 18.654 0 31.852 0.994 41.002 2.188 11.828 1.542 19.588 10.774 20.314 22.694 0.52 8.524 0.934 20.584 0.934 37.368 0 16.784-0.416 28.844-0.934 37.368-0.726 11.92-8.486 21.152-20.314 22.694-9.15 1.194-22.348 2.188-41.002 2.188-18.654 0-31.852-0.994-41.002-2.188-11.828-1.542-19.588-10.774-20.314-22.694-0.52-8.524-0.934-20.584-0.934-37.368 0-16.784 0.414-28.844 0.934-37.368z m227.814-230.192c-11.828 1.542-19.588 10.774-20.314 22.694-0.52 8.524-0.934 20.584-0.934 37.368 0 16.784 0.416 28.844 0.934 37.368 0.726 11.92 8.486 21.152 20.314 22.694 9.15 1.194 22.348 2.188 41.002 2.188 18.654 0 31.852-0.994 41.002-2.188 11.828-1.542 19.588-10.774 20.314-22.694 0.52-8.524 0.934-20.584 0.934-37.368 0-16.784-0.416-28.844-0.934-37.368-0.726-11.92-8.486-21.152-20.314-22.694-9.15-1.194-22.348-2.188-41.002-2.188-18.654 0-31.852 0.994-41.002 2.188zM451.684 703.88c0.726-11.92 8.486-21.152 20.314-22.694 9.15-1.194 22.348-2.188 41.002-2.188 18.654 0 31.852 0.994 41.002 2.188 11.828 1.542 19.588 10.774 20.314 22.694 0.52 8.524 0.934 20.584 0.934 37.368 0 16.784-0.416 28.844-0.934 37.368-0.726 11.92-8.486 21.152-20.314 22.694-9.15 1.194-22.348 2.188-41.002 2.188-18.654 0-31.852-0.994-41.002-2.188-11.828-1.542-19.588-10.774-20.314-22.694-0.52-8.524-0.934-20.584-0.934-37.368 0-16.784 0.416-28.844 0.934-37.368z m227.814-230.194c-11.828 1.542-19.588 10.774-20.314 22.694-0.52 8.524-0.934 20.584-0.934 37.368 0 16.784 0.414 28.844 0.934 37.368 0.726 11.92 8.486 21.152 20.314 22.694 9.15 1.194 22.348 2.188 41.002 2.188 18.654 0 31.852-0.994 41.002-2.188 11.828-1.542 19.588-10.774 20.314-22.694 0.52-8.524 0.934-20.584 0.934-37.368 0-16.784-0.414-28.844-0.934-37.368-0.726-11.92-8.486-21.152-20.314-22.694-9.15-1.194-22.348-2.188-41.002-2.188-18.654 0-31.852 0.994-41.002 2.188z" fill="#FFFFFF" /></svg>