<svg viewBox="0 0 1024 1024" version="1.1" xmlns="http://www.w3.org/2000/svg"><path d="M727.808 272.1792c-17.9712 0-32.512-14.5408-32.512-32.512V124.8768c0-17.9712 14.5408-32.512 32.512-32.512s32.512 14.5408 32.512 32.512v114.7904c0 17.92-14.592 32.512-32.512 32.512z" fill="#59ADF8" ></path><path d="M802.9696 151.6032v88.064c0 37.3248-37.8368 67.7376-75.1616 67.7376s-75.1616-30.3616-75.1616-67.7376V151.1424H376.2176v88.5248c0 37.3248-37.8368 67.7376-75.1616 67.7376S225.8944 276.992 225.8944 239.6672V151.296c-70.8096 2.8672-127.2832 61.1328-127.2832 132.6592v104.0384h826.88V283.904c-0.0512-69.8368-54.016-127.0784-122.5216-132.3008z" fill="#3A9CED" ></path><path d="M301.056 272.1792c-17.9712 0-32.512-14.5408-32.512-32.512V124.8768c0-17.9712 14.5408-32.512 32.512-32.512s32.512 14.5408 32.512 32.512v114.7904c0 17.92-14.592 32.512-32.512 32.512z" fill="#6BC2FC" ></path><path d="M98.56 454.3488v347.5456c0 73.3184 59.4432 132.7616 132.7616 132.7616h561.3056c73.3184 0 132.7616-59.4432 132.7616-132.7616V454.3488H98.56z m232.8576 388.1984H212.8896v-118.4768h118.4768v118.4768z m0-195.8912H212.8896v-118.4768h118.4768v118.4768z m239.8208 195.8912H452.7616v-118.4768h118.4768v118.4768z m0-195.8912H452.7616v-118.4768h118.4768v118.4768z m239.872 195.8912h-118.4768v-118.4768h118.4768v118.4768z m0-195.8912h-118.4768v-118.4768h118.4768v118.4768z" fill="#2595E8" ></path><path d="M925.44 454.3488H98.56v347.5456c0 73.3184 59.4432 132.7616 132.7616 132.7616h222.0544a656.57344 656.57344 0 0 0 239.2064-119.0912v-91.5456h95.1296c65.024-76.3904 112.896-167.8336 137.728-268.3392v-1.3312zM331.4176 842.5472H212.8896v-118.4768h118.4768v118.4768z m0-195.8912H212.8896v-118.4768h118.4768v118.4768z m239.8208 195.8912H452.7616v-118.4768h118.4768v118.4768z m0-195.8912H452.7616v-118.4768h118.4768v118.4768z m121.3952 0v-118.4768h118.4768v118.4768h-118.4768z" fill="#3A9CED" ></path><path d="M760.32 124.8768c0-17.9712-14.5408-32.512-32.512-32.512s-32.512 14.5408-32.512 32.512v114.7904c0 17.9712 14.5408 32.512 32.512 32.512 0.9728 0 1.8432-0.2048 2.816-0.3072 14.4384-43.3152 24.5248-88.6272 29.696-135.424v-11.5712zM717.9264 306.5856c-33.8432-4.7104-65.28-32.9216-65.28-66.9184V151.1424H376.2176v88.5248c0 37.3248-37.8368 67.7376-75.1616 67.7376s-75.1616-30.3616-75.1616-67.7376V151.296c-70.8096 2.8672-127.2832 61.1328-127.2832 132.6592v104.0384H678.912c14.7456-26.112 27.8016-53.2992 39.0144-81.408zM98.56 722.1248c2.2528 0 4.4544 0.1024 6.7072 0.1024 127.5392 0 246.5792-36.2496 347.4432-98.9696v-95.0784h118.4768v1.0752c23.296-23.296 44.8512-48.3328 64.4608-74.9056H98.56v267.776z m114.3296-193.9968h118.4768v118.4768H212.8896v-118.4768z" fill="#59ADF8" ></path><path d="M512.0512 151.1424H376.2176v88.5248c0 37.3248-37.8368 67.7376-75.1616 67.7376s-75.1616-30.3616-75.1616-67.7376V151.296c-70.8096 2.8672-127.2832 61.1328-127.2832 132.6592v104.0384h165.4272c102.0416-55.808 187.7504-137.728 248.0128-236.8512z" fill="#6BC2FC" ></path></svg>