<?xml version="1.0" standalone="no"?><!DOCTYPE svg PUBLIC "-//W3C//DTD SVG 1.1//EN" "http://www.w3.org/Graphics/SVG/1.1/DTD/svg11.dtd"><svg class="icon" width="66px" height="66.00px" viewBox="0 0 1024 1024" version="1.1" xmlns="http://www.w3.org/2000/svg"><path d="M101.964 482.708c5.746-19.334 26.228-26.474 46.376-27.284 46.002-1.84 151.37-4.674 364.66-4.674 213.29 0 318.658 2.832 364.66 4.674 20.148 0.81 40.63 7.95 46.376 27.284 2.324 7.82 3.964 17.774 3.964 30.292 0 12.52-1.64 22.47-3.964 30.292-5.746 19.334-26.228 26.474-46.376 27.284-46.002 1.84-151.37 4.674-364.66 4.674-213.29 0-318.658-2.832-364.66-4.674-20.148-0.81-40.63-7.95-46.376-27.284C99.64 535.472 98 525.52 98 513c0-12.52 1.64-22.47 3.964-30.292z" fill="#53B5FF" /><path d="M367.75 513m-145.25 0a145.25 145.25 0 1 0 290.5 0 145.25 145.25 0 1 0-290.5 0Z" fill="#FF934A" /><path d="M924.036 212.958c-5.746-19.334-26.228-26.474-46.376-27.284-46.002-1.84-151.37-4.674-364.66-4.674-213.29 0-318.658 2.832-364.66 4.674-20.148 0.81-40.63 7.95-46.376 27.284C99.64 220.778 98 230.732 98 243.25c0 12.52 1.64 22.47 3.964 30.292 5.746 19.334 26.228 26.474 46.376 27.284 46.002 1.84 151.37 4.674 364.66 4.674 213.29 0 318.658-2.832 364.66-4.674 20.148-0.81 40.63-7.95 46.376-27.284 2.324-7.82 3.964-17.774 3.964-30.292 0-12.52-1.64-22.47-3.964-30.292z" fill="#53B5FF" /><path d="MNaNNaNmNaNNaNaNaNNaNNaN 1 0NaNNaNNaNNaNNaN 1 0NaNNaNZ" fill="#FFDA8F" /><path d="M924.036 752.458c-5.746-19.334-26.228-26.474-46.376-27.284-46.002-1.84-151.37-4.674-364.66-4.674-213.29 0-318.658 2.832-364.66 4.674-20.148 0.81-40.63 7.95-46.376 27.284C99.64 760.278 98 770.232 98 782.75c0 12.52 1.64 22.47 3.964 30.292 5.746 19.334 26.228 26.474 46.376 27.284 46.002 1.84 151.37 4.674 364.66 4.674 213.29 0 318.658-2.832 364.66-4.674 20.148-0.81 40.63-7.95 46.376-27.284 2.324-7.82 3.964-17.774 3.964-30.292 0-12.52-1.64-22.47-3.964-30.292z" fill="#53B5FF" /><path d="MNaNNaNmNaNNaNaNaNNaNNaN 1 0NaNNaNNaNNaNNaN 1 0NaNNaNZ" fill="#FFDA8F" /></svg>