<svg viewBox="0 0 1024 1024" version="1.1" xmlns="http://www.w3.org/2000/svg"><path d="M825.856 198.6048H465.8688c-7.3728 0-14.4384-2.816-19.7632-7.8336L364.032 113.92a29.0048 29.0048 0 0 0-19.7632-7.8336H186.7776c-54.7328 0-99.1232 44.3904-99.1232 99.1232v593.152c0 54.7328 44.3904 99.1232 99.1232 99.1232H825.856c54.7328 0 99.1232-44.3904 99.1232-99.1232V297.728c0.0512-54.7328-44.3392-99.1232-99.1232-99.1232z m-162.2016 370.7392a53.85216 53.85216 0 0 1-38.8608 16.4864c-13.4656 0-26.9824-5.0176-37.4272-15.104l-24.6272-23.7568v150.7328c0 29.7984-24.1664 53.9648-53.9648 53.9648-29.7984 0-53.9648-24.1664-53.9648-53.9648v-153.7024l-23.9616 22.5792c-21.7088 20.4288-55.8592 19.4048-76.2368-2.304-20.4288-21.7088-19.4048-55.8592 2.304-76.2368l114.432-107.7248c20.9408-19.712 53.7088-19.5584 74.4448 0.4608l116.48 112.3328c21.4528 20.6336 22.0672 54.784 1.3824 76.2368z" fill="#FF8E12" ></path><path d="M925.0304 297.728c0-54.7328-44.3904-99.1232-99.1232-99.1232H465.8688c-7.3728 0-14.4384-2.816-19.7632-7.8336L364.032 113.92a29.0048 29.0048 0 0 0-19.7632-7.8336H186.7776c-54.7328 0-99.1232 44.3904-99.1232 99.1232v593.152c0 54.7328 44.3904 99.1232 99.1232 99.1232h295.3728c225.6896-74.8032 397.568-267.4176 442.88-504.9856V297.728z m-261.376 271.616a53.85216 53.85216 0 0 1-38.8608 16.4864c-13.4656 0-26.9824-5.0176-37.4272-15.104l-24.6272-23.7568v150.7328c0 29.7984-24.1664 53.9648-53.9648 53.9648-29.7984 0-53.9648-24.1664-53.9648-53.9648v-153.7024l-23.9616 22.5792c-21.7088 20.4288-55.8592 19.4048-76.2368-2.304-20.4288-21.7088-19.4048-55.8592 2.304-76.2368l114.432-107.7248c20.9408-19.712 53.7088-19.5584 74.4448 0.4608l116.48 112.3328c21.4528 20.6336 22.0672 54.784 1.3824 76.2368z" fill="#FCA315" ></path><path d="M465.8688 198.6048c-7.3728 0-14.4384-2.816-19.7632-7.8336L364.032 113.92a29.0048 29.0048 0 0 0-19.7632-7.8336H186.7776c-54.7328 0-99.1232 44.3904-99.1232 99.1232v490.1888c1.3312 0 2.7136 0.0512 4.0448 0.0512 134.0928 0 258.8672-39.7824 363.2128-108.1856v-43.3152l-23.9616 22.5792c-21.7088 20.4288-55.8592 19.4048-76.2368-2.304-20.4288-21.7088-19.4048-55.8592 2.304-76.2368l114.432-107.7248c20.9408-19.712 53.7088-19.5584 74.4448 0.4608l65.8432 63.488a661.10464 661.10464 0 0 0 122.5728-245.6576H465.8688z" fill="#FCB138" ></path><path d="M454.7584 196.352c-3.1744-1.3312-6.144-3.1744-8.704-5.5808L364.032 113.92a29.0048 29.0048 0 0 0-19.7632-7.8336H186.7776c-54.7328 0-99.1232 44.3904-99.1232 99.1232v235.2128c148.6848-37.4784 277.4016-125.2352 367.104-244.0704z" fill="#FFC65E" ></path></svg>