<svg viewBox="0 0 1024 1024" version="1.1" xmlns="http://www.w3.org/2000/svg"><path d="M912.5376 198.3488c-1.28-49.7152-42.496-89.088-92.2624-88.064l-292.4544 5.9904c-29.5936 0.6144-57.8048 12.6976-78.6432 33.792L151.5008 450.9184c-43.7248 44.1856-43.9296 115.3024-0.4608 159.744l250.7264 256.3072c43.9296 44.9024 115.8656 45.7728 160.8704 1.9456l322.56-314.0096a113.8944 113.8944 0 0 0 34.4064-84.5824l-7.0656-271.9744z m-422.2464 468.4288l38.6048-154.3168-111.2064-22.6816 204.288-189.5424-21.9648 131.2768 108.1856 23.0912-217.9072 212.1728z" fill="#FC7032" ></path><path d="M846.0288 308.6848c0-70.4-14.592-137.3696-40.8576-198.144l-277.3504 5.6832c-29.5936 0.6144-57.8048 12.6976-78.6432 33.792L151.5008 450.9184c-43.7248 44.1856-43.9296 115.3024-0.4608 159.744L345.0368 808.96h0.6656c276.3264 0.0512 500.3264-223.9488 500.3264-500.2752zM417.6896 489.728l204.288-189.5424-21.9648 131.2768 108.1856 23.0912-217.9072 212.224 38.6048-154.3168-111.2064-22.7328z" fill="#FF7E3E" ></path><path d="M528.896 512.4096l-111.2064-22.6816 204.288-189.5424-21.9648 131.2768 7.6288 1.6384c63.6928-83.968 101.5296-188.5696 101.5296-302.08 0-6.1952-0.256-12.3392-0.4608-18.4832l-180.8896 3.6864c-29.5936 0.6144-57.8048 12.6976-78.6432 33.792L151.5008 450.9184c-43.7248 44.1856-43.9296 115.3024-0.4608 159.744l18.5344 18.9952c12.9536 1.024 26.0096 1.6896 39.2704 1.6896 121.2928 0 232.448-43.1616 319.0272-114.944l1.024-3.9936z" fill="#FF9552" ></path><path d="M556.4416 115.6608l-28.672 0.5632c-29.5936 0.6144-57.8048 12.6976-78.6432 33.792L153.088 449.28c188.6208-26.4704 343.3984-158.0032 403.3536-333.6192z" fill="#FFA56A" ></path></svg>