<svg viewBox="0 0 1024 1024" version="1.1" xmlns="http://www.w3.org/2000/svg"><path d="M828.5184 127.2832l-146.944 104.4992v-42.8032c0-61.5424-69.4784-97.3824-119.6032-61.696L102.4512 454.144c-42.4448 30.208-42.4448 93.2352 0 123.4432l459.52 326.8608c50.1248 35.6864 119.6032-0.2048 119.6032-61.696v-42.8032l146.944 104.4992c50.1248 35.6864 119.6032-0.2048 119.6032-61.696V188.9792c0-61.5424-69.4784-97.3824-119.6032-61.696z m-282.1632 274.176L335.872 531.6096a51.2512 51.2512 0 0 1-70.6048-16.64c-14.8992-24.1152-7.424-55.7056 16.64-70.6048l210.4832-130.1504c24.1152-14.8992 55.7056-7.424 70.6048 16.64 14.8992 24.064 7.4752 55.7056-16.64 70.6048z" fill="#FC7032" ></path><path d="M948.1216 188.9792c0-61.5424-69.4784-97.3824-119.6032-61.696l-146.944 104.4992v-42.8032c0-61.5424-69.4784-97.3824-119.6032-61.696L102.4512 454.144c-42.4448 30.208-42.4448 93.2352 0 123.4432l459.52 326.8608c50.1248 35.6864 119.6032-0.2048 119.6032-61.696v-42.8032l66.9696 47.616c90.368-72.8064 160.2048-170.0352 199.5776-281.6512V188.9792z m-401.7664 212.48L335.872 531.6096a51.2512 51.2512 0 0 1-70.6048-16.64c-14.8992-24.1152-7.424-55.7056 16.64-70.6048l210.4832-130.1504c24.1152-14.8992 55.7056-7.424 70.6048 16.64 14.8992 24.064 7.4752 55.7056-16.64 70.6048z" fill="#FF8345" ></path><path d="M811.1616 139.5712l-129.5872 92.2112v-42.8032c0-61.5424-69.4784-97.3824-119.6032-61.696L102.4512 454.144c-42.4448 30.208-42.4448 93.2352 0 123.4432l233.3696 165.9904c270.8992-68.7104 471.808-312.576 475.3408-604.0064zM265.216 514.9184c-14.8992-24.1152-7.424-55.7056 16.64-70.6048l210.4832-130.1504c24.1152-14.8992 55.7056-7.424 70.6048 16.64 14.8992 24.1152 7.424 55.7056-16.64 70.6048l-210.432 130.2016c-8.3968 5.1712-17.7152 7.68-26.9312 7.68-17.2032 0-33.9968-8.6528-43.7248-24.3712z" fill="#FF9552" ></path><path d="M561.9712 127.2832L102.4512 454.144c-27.8016 19.7632-37.2736 53.6064-28.672 83.0976 64.6656-5.3248 126.5152-20.3264 184.1664-43.6736-2.0992-19.0464 6.6048-38.5024 23.9616-49.2544l210.4832-130.1504a50.33984 50.33984 0 0 1 18.0736-6.8608 630.08768 630.08768 0 0 0 107.6224-193.1264c-18.5344-3.1232-38.5536 0.5632-56.1152 13.1072z" fill="#FFA56A" ></path></svg>