<svg viewBox="0 0 1024 1024" version="1.1" xmlns="http://www.w3.org/2000/svg"><path d="M900.9152 775.1168L867.84 226.56c-3.4304-56.7296-50.432-100.9664-107.2128-100.9664H265.216c-56.832 0-103.7824 44.2368-107.2128 100.9664L124.928 775.1168c-3.7376 61.7472 45.3632 113.8688 107.2128 113.8688h561.5616c61.8496 0.0512 110.9504-52.0704 107.2128-113.8688z m-166.4-415.6416c-13.4656 110.3872-107.6736 196.1472-221.6448 196.1472-113.92 0-208.1792-85.76-221.5936-196.1472-14.848-11.3664-24.4736-29.2352-24.4736-49.3568 0-34.3552 27.8528-62.208 62.208-62.208s62.208 27.8528 62.208 62.208c0 18.3808-8.0384 34.8672-20.6848 46.2336 11.52 68.1984 70.912 120.32 142.336 120.32s130.8672-52.1216 142.336-120.32a61.8496 61.8496 0 0 1-20.6848-46.2336c0-34.3552 27.8528-62.208 62.208-62.208s62.208 27.8528 62.208 62.208c0.0512 20.1216-9.5744 37.9904-24.4224 49.3568z" fill="#05C46D" ></path><path d="M867.84 226.56c-3.4304-56.7296-50.432-100.9664-107.2128-100.9664H265.216c-56.832 0-103.7824 44.2368-107.2128 100.9664L124.928 775.1168c-3.7376 61.7472 45.3632 113.8688 107.2128 113.8688h238.2336c213.4016-75.52 373.2992-264.192 407.6032-493.9264l-10.1376-168.4992z m-133.3248 132.9152c-13.4656 110.3872-107.6736 196.1472-221.6448 196.1472-113.92 0-208.1792-85.76-221.5936-196.1472-14.848-11.3664-24.4736-29.2352-24.4736-49.3568 0-34.3552 27.8528-62.208 62.208-62.208s62.208 27.8528 62.208 62.208c0 18.3808-8.0384 34.8672-20.6848 46.2336 11.52 68.1984 70.912 120.32 142.336 120.32s130.8672-52.1216 142.336-120.32a61.8496 61.8496 0 0 1-20.6848-46.2336c0-34.3552 27.8528-62.208 62.208-62.208s62.208 27.8528 62.208 62.208c0.0512 20.1216-9.5744 37.9904-24.4224 49.3568z" fill="#1DCE75" ></path><path d="M496.128 554.9056c-106.2912-7.936-192.0512-90.5728-204.8-195.4816-14.848-11.3664-24.4736-29.2352-24.4736-49.3568 0-34.3552 27.8528-62.208 62.208-62.208s62.208 27.8528 62.208 62.208c0 18.3808-8.0384 34.8672-20.6848 46.2336 11.52 68.1984 70.912 120.32 142.336 120.32 28.9792 0 55.9104-8.704 78.5408-23.4496 23.2448-31.1808 43.6224-64.5632 60.8256-99.84-10.9056-11.2128-17.7152-26.4192-17.7152-43.264 0-32.768 25.344-59.5456 57.4976-62.0032 10.9056-39.424 18.0736-80.384 21.0432-122.5216H265.216c-56.832 0-103.7824 44.2368-107.2128 100.9664l-28.7232 475.9552c139.6736-8.0896 266.9056-62.2592 366.848-147.5584z" fill="#3CD38E" ></path><path d="M293.0176 370.8928c-0.6656-3.7888-1.2288-7.5776-1.7408-11.4176-14.848-11.3664-24.4736-29.2352-24.4736-49.3568 0-34.3552 27.8528-62.208 62.208-62.208 27.0336 0 49.9712 17.2544 58.5728 41.3696 45.4656-47.9232 83.3024-103.1168 111.7696-163.6352H265.216c-56.832 0-103.7824 44.2368-107.2128 100.9664l-13.312 220.9792c53.1456-18.944 102.9632-44.9024 148.3264-76.6976z" fill="#48E1AA" ></path></svg>