<svg viewBox="0 0 1024 1024" version="1.1" xmlns="http://www.w3.org/2000/svg"><path d="M285.696 455.5264c-8.1408 49.4592-33.8944 82.7392-81.8176 96.512-63.6928 18.2784-129.6384-26.0096-136.9088-91.8528-0.6144-5.376 0.3072-11.4176 2.2528-16.4864 22.6816-58.9312 45.824-107.8272 68.352-166.7584 2.816-7.3728 6.5536-9.216 14.0288-9.216 233.3696 0.2048 466.688 0.2048 700.0576-0.0512 8.2432 0 11.6736 2.7648 14.6432 10.1888 21.6064 54.4768 42.9056 99.2256 66.0992 153.0368 8.96 20.7872 7.424 39.6288-0.512 59.136-17.4592 42.8544-62.6176 69.0688-111.9232 65.3312-46.1824-3.4816-86.016-37.1712-96.5632-81.7152-1.3312-5.6832-2.56-11.3664-3.9936-17.8176-1.5872 55.6032-51.8656 100.3008-106.1376 99.9936-58.112-0.3072-103.0656-40.1408-109.568-100.5056-4.5056 30.8224-15.872 56.1664-39.2192 75.1104-23.4496 19.0464-50.2784 27.2384-80.3328 25.0368-50.432-3.7376-96.5632-45.312-98.4576-99.9424z" fill="#FF3369" ></path><path d="M857.6 139.0592c-13.0048-19.1488-32.1536-21.7088-49.152-21.7088h-0.0512c-105.0112 0.0512-210.0736 0.0512-315.0848 0.0512-98.4576 0-196.9152 0-295.3728 0.0512-6.6048 0-12.032 0.4096-17.1008 1.2288-22.1184 3.6864-38.9632 21.76-40.96 44.032-2.2528 25.088 10.7008 46.592 32.256 53.4528 9.8816 3.1232 20.3264 3.1744 28.0064 3.1744 60.5184 0.1024 121.0368 0.1024 181.5552 0.1024h379.6992c18.7904 0 38.2464 0 57.4464-0.3584 19.4048-0.3584 34.7648-10.5984 43.3664-28.8768 8.0384-17.2032 6.4512-34.9184-4.608-51.1488z" fill="#FF4D7C" ></path><path d="M780.1856 907.7248c46.336 0 83.8656-37.5296 83.8656-83.8656v-185.0368-13.2096c-63.9488 12.3392-111.7184-8.704-143.104-65.28-43.9296 93.696-176.6912 90.2656-217.2928-0.8704-23.04 44.032-58.624 69.2736-108.5952 69.7344-50.4832 0.4608-86.6304-24.3712-109.824-69.2736-31.488 57.4464-79.616 77.6704-142.5408 65.9456-0.3584 3.0208-0.8704 5.2224-0.8704 7.424 0 37.7856-0.0512 123.5968-0.0512 190.5152 0 46.336 37.5808 83.8656 83.8656 83.8656h554.5472z" fill="#FF3369" ></path><path d="M866.304 277.8112c-2.9696-7.424-6.3488-10.1888-14.6432-10.1888-233.3696 0.256-466.688 0.256-700.0576 0.0512-7.4752 0-11.2128 1.8432-14.0288 9.216-22.5792 58.9312-45.7216 107.8272-68.352 166.7584-1.9456 5.0688-2.8672 11.1104-2.2528 16.4864 7.2704 65.8432 73.216 110.1312 136.9088 91.8528 47.9232-13.7728 73.6768-47.0528 81.8176-96.512 1.9456 54.6304 48.0256 96.2048 98.5088 99.8912 30.1056 2.2016 56.8832-5.9904 80.3328-25.0368 23.296-18.944 34.7136-44.2368 39.2192-75.1104 6.5024 60.3648 51.456 100.1984 109.568 100.5056 54.272 0.3072 104.5504-44.3392 106.1376-99.9936 1.4336 6.4512 2.6624 12.1344 3.9936 17.8176 10.5472 44.544 50.432 78.2336 96.5632 81.7152 5.9904 0.4608 11.9808 0.4608 17.8176 0.0512a639.8976 639.8976 0 0 0 51.5584-222.2592c-7.7312-17.7152-15.36-35.84-23.0912-55.2448z" fill="#FF4D7C" ></path><path d="M720.9984 560.384c-43.9296 93.696-176.6912 90.2656-217.2928-0.8704-23.04 44.032-58.624 69.2736-108.5952 69.7344-50.4832 0.4608-86.6304-24.3712-109.824-69.2736-31.488 57.4464-79.616 77.6704-142.5408 65.9456-0.3584 3.0208-0.8704 5.2224-0.8704 7.424 0 37.7856-0.0512 123.5968-0.0512 190.5152 0 46.336 37.5808 83.8656 83.8656 83.8656h233.216c145.0496-50.3808 266.4448-151.3472 343.0912-281.7536-33.7408-7.5264-60.7744-29.1328-80.9984-65.5872z" fill="#FF4D7C" ></path><path d="M493.312 117.3504c-98.4576 0-196.9152 0-295.3728 0.0512-6.6048 0-12.032 0.4096-17.1008 1.2288-22.1184 3.6864-38.9632 21.76-40.96 44.032-2.2528 25.088 10.7008 46.592 32.256 53.4528 9.8816 3.1232 20.3264 3.1744 28.0064 3.1744 60.5184 0.1024 121.0368 0.1024 181.5552 0.1024h312.5248c8.5504-33.0752 14.4384-67.1744 17.6128-102.0416H493.312zM151.6032 267.6736c-7.4752 0-11.2128 1.8432-14.0288 9.216-22.5792 58.9312-45.7216 107.8272-68.352 166.7584-1.9456 5.0688-2.8672 11.1104-2.2528 16.4864 7.2704 65.8432 73.216 110.1312 136.9088 91.8528 47.9232-13.7728 73.6768-47.0528 81.8176-96.512 1.9456 54.6304 48.0256 96.2048 98.5088 99.8912 30.1056 2.2016 56.8832-5.9904 80.3328-25.0368 23.296-18.944 34.7136-44.2368 39.2192-75.1104 2.8672 26.4192 13.056 48.9472 28.5696 65.8944 68.864-70.656 121.6-157.1328 152.1664-253.4912-177.6128 0.1024-355.2256 0.2048-532.8896 0.0512zM393.5744 629.1968c-49.664-0.0512-85.3504-24.832-108.288-69.2224-31.488 57.4464-79.616 77.6704-142.5408 65.9456-0.3584 3.0208-0.8704 5.2224-0.8704 7.424 0 17.7152 0 46.08-0.0512 78.08 90.9312-9.7792 176.1792-38.5024 251.7504-82.2272z" fill="#FF5F89" ></path><path d="M197.888 117.4016c-6.6048 0-12.032 0.4096-17.1008 1.2288-22.1184 3.6864-38.9632 21.76-40.96 44.032-2.2528 25.088 10.7008 46.592 32.256 53.4528 9.8816 3.1232 20.3264 3.1744 28.0064 3.1744 60.5184 0.1024 121.0368 0.1024 181.5552 0.1024h40.7552a640.3072 640.3072 0 0 0 63.4368-102.0416c-95.9488 0.0512-191.9488 0.0512-287.9488 0.0512zM395.0592 267.6736c-81.152 0-162.304 0.1024-243.456 0-7.4752 0-11.2128 1.8432-14.0288 9.216-22.5792 58.9312-45.7216 107.8272-68.352 166.7584-1.9456 5.0688-2.8672 11.1104-2.2528 16.4864 0.3072 2.816 0.8704 5.5808 1.3824 8.3456 128.768-32.4608 242.0736-103.7824 326.7072-200.8064z" fill="#FF7196" ></path></svg>