<svg viewBox="0 0 1024 1024" version="1.1" xmlns="http://www.w3.org/2000/svg"><path d="M251.8016 448.5632v31.3344H171.8272c-26.7776 0-50.944 13.7216-64.7168 36.6592-13.7216 22.8352-14.4384 50.4832-1.9456 73.984 60.3648 113.2544 156.9792 175.7696 268.9536 175.7696 3.1232 0 6.2976-0.2048 9.4208-0.3072 46.08 30.3104 101.1712 48.0256 160.4608 48.0256h83.6608c161.3824 0 292.2496-130.816 292.2496-292.2496v-73.216H251.8016zM197.12 569.8048h58.6752c4.9664 29.952 14.4896 58.368 27.8016 84.48-38.0416-20.3264-66.1504-52.224-86.4768-84.48zM240.7424 845.9776h690.2784s-33.2288 83.6608-345.1392 83.6608-345.1392-83.6608-345.1392-83.6608z" fill="#BD50D3" ></path><path d="M501.248 87.3984s-84.992 27.6992-84.992 114.2272c0 58.2656 100.096 109.9264 101.7344 142.7456 1.6384 32.8192-0.8192 55.7568-29.5424 76.288 42.6496-8.192 102.9632-41.0112 97.4336-99.2768s-97.2288-101.12-103.2192-137.216c-8.8064-52.6848 18.5856-96.768 18.5856-96.768z" fill="#CA6EE0" ></path><path d="M671.1808 87.3984s-84.992 27.6992-84.992 114.2272c0 58.2656 100.096 109.9264 101.7344 142.7456 1.6384 32.8192-0.8192 55.7568-29.5424 76.288 42.6496-8.192 102.9632-41.0112 97.4336-99.2768s-97.2288-101.12-103.2192-137.216c-8.8064-52.6848 18.5856-96.768 18.5856-96.768zM251.8016 479.8464H171.8272c-26.7776 0-50.944 13.7216-64.7168 36.6592-13.7216 22.8352-14.4384 50.4832-1.9456 73.984 60.3648 113.2544 156.9792 175.7696 268.9536 175.7696 3.1232 0 6.2976-0.2048 9.4208-0.3072 46.08 30.3104 101.1712 48.0256 160.4608 48.0256h83.6608c34.7136 0 67.9936-6.0928 98.8672-17.2032 77.8752-90.9824 125.0304-209.1008 125.0304-338.2784 0-3.328-0.2048-6.656-0.256-9.984H251.8016v31.3344z m31.7952 174.4896c-38.0416-20.3776-66.1504-52.2752-86.4768-84.48h58.6752c4.9664 29.952 14.4896 58.3168 27.8016 84.48zM678.656 845.9776H240.7424s30.9248 77.7728 312.6272 83.3536c45.824-21.6576 87.9616-49.8688 125.2864-83.3536z" fill="#C65EDB" ></path><path d="M708.5568 248.3712c-25.6512-24.1152-52.7872-45.1072-55.9616-64.1536-8.8064-52.736 18.5856-96.768 18.5856-96.768s-84.992 27.6992-84.992 114.2272c0 58.2144 100.096 109.9264 101.7344 142.7456 1.6384 32.8192-0.8192 55.7568-29.5424 76.288a155.8528 155.8528 0 0 0 32.4608-10.1376c11.8784-43.6224 18.3296-89.4976 18.3296-136.9088 0-8.4992-0.256-16.896-0.6144-25.2928zM678.9632 448.5632H251.8016v31.3344H171.8272c-26.7776 0-50.944 13.7216-64.7168 36.6592-13.7216 22.8352-14.4384 50.4832-1.9456 73.984 57.5488 107.9296 148.0704 169.6768 253.3888 175.2064 149.0944-51.5584 267.4688-168.7552 320.4096-317.184zM197.12 569.8048h58.6752c4.9664 29.952 14.4896 58.368 27.8016 84.48-38.0416-20.3264-66.1504-52.224-86.4768-84.48z" fill="#CA6EE0" ></path><path d="M482.6112 184.2176c-8.8064-52.736 18.5856-96.768 18.5856-96.768s-84.992 27.6992-84.992 114.2272c0 53.8112 85.3504 101.9904 99.6352 134.912 13.312-24.6272 24.576-50.4832 33.792-77.2608-28.2112-28.8768-63.3344-53.248-67.0208-75.1104zM434.3296 448.5632H251.8016v31.3344H171.8272c-26.7776 0-50.944 13.7216-64.7168 36.6592-13.7216 22.8352-14.4384 50.4832-1.9456 73.984 2.9696 5.632 6.144 11.008 9.3184 16.384 32.6144-3.5328 64.256-10.0864 94.7712-19.3536-4.3008-5.8368-8.3968-11.776-12.1344-17.7152h58.6752c0.0512 0.3072 0.1024 0.6656 0.2048 0.9728 67.84-28.0064 128.4096-69.9904 178.3296-122.2656z" fill="#D786EA" ></path></svg>