<svg viewBox="0 0 1024 1024" version="1.1" xmlns="http://www.w3.org/2000/svg"><path d="M618.4448 515.7376h14.6432c59.648 0.2048 119.3472-0.4608 178.9952 0.9728 40.6528 0.9728 76.544 37.2736 77.6192 78.0288 1.3312 50.7904 0.9728 101.632 0.6656 152.4736-0.1024 19.5072-11.7248 29.6448-32.2048 29.6448-60.416 0.1024-120.832 0.0512-181.1968 0.0512H173.1072c-28.0064 0-37.376-9.1648-37.3248-36.9152 0.1024-48.5888-0.4608-97.2288 0.9216-145.8176 1.1264-39.8336 37.2736-76.4416 77.1072-77.3632 59.648-1.4336 119.296-0.768 178.9952-0.9728h15.3088c-1.536-20.1216-8.1408-37.6832-17.664-53.6064a503.25504 503.25504 0 0 0-36.7616-53.5552c-69.12-87.9616-54.4256-215.9616 33.1776-285.5936 89.088-70.7584 218.9824-53.8112 287.6928 37.5296 60.5696 80.5376 55.3984 184.2688-13.312 261.4272-22.4256 25.1392-36.5568 54.0672-42.3936 87.1424-0.3584 1.5872-0.256 3.3792-0.4096 6.5536zM884.992 846.848c-7.0144-7.7824-20.2752-17.1008-43.8272-17.1008-228.352-0.0512-427.8784 0-656.2304 0.0512-6.5024 0-12.3392 0.6144-17.7152 1.8432-23.296 5.3248-38.7584 26.0608-37.4784 50.4832 1.28 24.7808 18.7392 43.1104 43.4176 45.6704 5.2224 0.512 10.1888 0.512 14.6432 0.512H839.3728c4.7104 0 10.1376 0 15.7696-0.7168 22.5792-2.9184 38.7584-19.5584 41.2672-42.3424 1.536-15.0016-2.3552-28.2624-11.4176-38.4z" fill="#FC7032" ></path><path d="M734.5664 776.8064a604.4672 604.4672 0 0 0 119.3472-245.9648c-12.288-8.5504-26.7264-13.824-41.8816-14.1824-59.648-1.4336-119.296-0.768-178.9952-0.9728h-14.6432c0.1536-3.1232 0.0512-4.9664 0.3584-6.656 5.8368-33.0752 19.968-62.0032 42.3936-87.1424 68.7104-77.1584 73.8816-180.8896 13.312-261.4272-68.6592-91.3408-198.6048-108.288-287.6928-37.5296-87.6032 69.632-102.2976 197.632-33.1776 285.5936 13.3632 16.9984 25.7024 34.9696 36.7616 53.5552 9.5232 15.9232 16.0768 33.4848 17.664 53.6064H392.704c-59.648 0.2048-119.3472-0.4608-178.9952 0.9728-39.8336 0.9728-75.9808 37.5296-77.1072 77.3632-1.3312 48.5888-0.8192 97.2288-0.9216 145.8176-0.0512 27.7504 9.3184 36.9152 37.3248 36.9152h503.8592c19.3024 0.0512 38.5024 0.0512 57.7024 0.0512zM184.9344 829.8496c-6.5024 0-12.3392 0.6144-17.7152 1.8432-23.296 5.3248-38.7584 26.0608-37.4784 50.4832 1.28 24.7808 18.7392 43.1104 43.4176 45.6704 5.2224 0.512 10.1888 0.512 14.6432 0.512H553.6768c48.6912-26.7264 93.2864-60.0064 132.7104-98.56-167.5264-0.0512-325.9904 0-501.4528 0.0512z" fill="#FF7C33" ></path><path d="M702.3616 209.9712c-6.8096-17.152-16.0768-33.7408-27.904-49.5104-68.6592-91.3408-198.6048-108.288-287.6928-37.5296-87.6032 69.632-102.2976 197.632-33.1776 285.5936 13.3632 16.9984 25.7024 34.9696 36.7616 53.5552 9.5232 15.9232 16.0768 33.4848 17.664 53.6064H392.704c-59.648 0.2048-119.3472-0.4608-178.9952 0.9728-39.8336 0.9728-75.9808 37.5296-77.1072 77.3632-1.3312 48.5888-0.8192 97.2288-0.9216 145.8176-0.0512 27.7504 9.3184 36.9152 37.3248 36.9152h34.4576c272.5888-50.5856 481.1264-283.0336 494.8992-566.784z" fill="#FF9552" ></path><path d="M539.2384 81.0496c-52.48-7.1168-107.6224 6.2976-152.4224 41.8816-87.6032 69.632-102.2976 197.632-33.1776 285.5936 0.6144 0.768 1.1776 1.5872 1.792 2.3552 92.8768-85.9648 158.8224-200.5504 183.808-329.8304z" fill="#FFA56A" ></path></svg>