<svg viewBox="0 0 1024 1024" version="1.1" xmlns="http://www.w3.org/2000/svg"><path d="M517.6832 284.6208c77.7728 67.7888 154.8288 134.8608 231.8848 201.984 24.6272 21.4528 48.9984 43.264 73.984 64.3072 13.7728 11.5712 20.0704 25.1904 19.9168 43.4688-0.5632 84.1728 0 168.3456-0.3584 252.4672-0.1536 40.3968-10.9568 50.7904-50.5856 51.1488-60.4672 0.512-120.9856 0.4608-181.4528 1.8944-17.0496 0.4096-22.7328-4.096-22.4768-21.8624 1.024-61.184 0.4096-122.4192 0.4096-183.6032v-24.4224H444.3136v54.3744c0 51.456-0.512 102.9632 0.3072 154.4192 0.2048 14.9504-3.6352 21.248-19.6096 21.0944-62.5664-0.6144-125.184 0.1536-187.7504-0.4096-34.6112-0.3072-45.9776-12.288-46.08-47.2064-0.256-88.32-0.4608-176.6912 0.4096-265.0112 0.1024-9.8304 4.608-22.6816 11.7248-28.928 101.9392-90.4192 204.6464-179.968 307.2-269.6704 1.5872-1.3312 3.6352-2.0992 7.168-4.0448z" fill="#2595E8" ></path><path d="M697.5488 251.0336c0-35.9424-0.1024-66.2016 0-96.4608 0.1024-35.4304 3.0208-38.3488 37.5296-38.4512 23.6544-0.0512 47.2576-0.0512 70.912 0 34.816 0.0512 37.2224 2.4064 37.12 38.2976-0.2048 64.6656 0.1024 129.3824-1.2288 193.9968-0.4608 22.8864 6.7584 39.5264 24.5248 54.0672 30.6688 25.0368 60.0576 51.712 89.6512 78.0288 21.2992 18.9952 21.8624 24.6272 4.864 46.8992-38.912 51.0464-35.9936 51.0464-82.432 9.5744-114.0736-101.888-228.608-203.264-342.9376-304.7936-5.632-5.0176-11.4688-9.8304-18.5344-15.9232-14.8992 12.7488-29.184 24.6272-43.0592 36.9664-112.384 99.584-224.6656 199.2704-337.0496 298.8544-23.552 20.8896-27.904 20.4288-48.2304-3.9424-37.4272-44.9024-37.5296-45.056 5.8368-83.456 121.1904-107.4176 242.4832-214.784 363.8784-321.9968 43.7248-38.6048 72.96-38.4512 116.9408 0.2048 31.3344 27.5456 62.2592 55.552 93.3888 83.2512 8.0384 7.2192 16.3328 14.1312 28.8256 24.8832z" fill="#3BA4F2" ></path><path d="M889.2416 421.5808c-7.5264-6.4512-15.104-12.8-22.784-19.0464-17.7664-14.5408-24.9856-31.1808-24.5248-54.0672 1.3312-64.6656 1.024-129.3312 1.2288-193.9968 0.1024-35.8912-2.304-38.2976-37.12-38.2976-23.6544-0.0512-47.2576-0.0512-70.912 0-34.56 0.1024-37.4272 2.9696-37.5296 38.4512-0.1024 30.2592 0 60.5184 0 96.4608-12.4928-10.752-20.7872-17.664-28.8768-24.832-31.1808-27.7504-62.1056-55.7056-93.3888-83.2512-43.9808-38.656-73.216-38.8096-116.9408-0.2048-121.4464 107.1104-242.688 214.4768-363.8784 321.8944-43.3664 38.4-43.2128 38.5536-5.8368 83.456 20.3264 24.4224 24.6784 24.832 48.2304 3.9424 112.384-99.584 224.6656-199.2704 337.0496-298.8544 13.8752-12.288 28.16-24.1664 43.0592-36.9664 7.0656 6.0928 12.9024 10.9056 18.5344 15.9232 109.6192 97.3312 219.3408 194.5088 328.704 292.096 11.264-32.9728 19.6608-67.328 24.9856-102.7072z" fill="#3A9CED" ></path><path d="M842.0352 580.1984c-2.56-11.4688-8.5504-20.8896-18.4832-29.2864-24.9856-21.0432-49.3568-42.8544-73.984-64.3072l-231.8848-201.984c-3.5328 1.9968-5.5808 2.7136-7.0656 4.0448-102.5536 89.7024-205.2608 179.2512-307.2 269.6704-7.0656 6.2464-11.6224 19.0976-11.7248 28.928-0.8704 88.32-0.6656 176.6912-0.4096 265.0112 0.1024 34.9184 11.4688 46.8992 46.08 47.2064 62.5664 0.5632 125.184-0.2048 187.7504 0.4096 15.9744 0.1536 19.8144-6.0928 19.6096-21.0944-0.768-51.456-0.3072-102.912-0.3072-154.4192v-54.3744h144.6912v24.4224c0 53.0432 0.4096 106.0864-0.1536 159.1296 110.848-61.5424 199.9872-157.4912 253.0816-273.3568z" fill="#3A9CED" ></path><path d="M732.928 120.7808c0-1.536-0.0512-3.072-0.0512-4.608-32.3072 0.2048-35.1232 3.7888-35.2768 38.4-0.1024 30.2592 0 60.5184 0 96.4608-12.4928-10.752-20.7872-17.664-28.8768-24.832-31.1808-27.7504-62.1056-55.7056-93.3888-83.2512-43.9808-38.656-73.216-38.8096-116.9408-0.2048-121.4464 107.1616-242.688 214.528-363.8784 321.9456-43.3664 38.4-43.2128 38.5536-5.8368 83.456 20.3264 24.4224 24.6784 24.832 48.2304 3.9424 112.384-99.584 224.6656-199.2704 337.0496-298.8544 13.8752-12.288 28.16-24.1664 43.0592-36.9664 7.0656 6.0928 12.9024 10.9056 18.5344 15.9232 48.7936 43.3152 97.5872 86.5792 146.3808 129.8944 32.768-73.728 50.9952-155.392 50.9952-241.3056z" fill="#59ADF8" ></path><path d="M517.6832 284.6208c-3.5328 1.9968-5.5808 2.7136-7.0656 4.0448-102.5536 89.7024-205.2608 179.2512-307.2 269.6704-7.0656 6.2464-11.6224 19.0976-11.7248 28.928-0.4096 42.2912-0.5632 84.5824-0.6144 126.8736 202.0352-18.1248 374.9888-137.1136 468.1728-306.2272-47.0528-40.96-94.1568-81.9712-141.568-123.2896z" fill="#59ADF8" ></path><path d="M458.3424 142.6944C336.9472 249.9072 215.7056 357.2736 94.5152 464.6912c-19.6608 17.408-30.2592 26.9824-32.6144 36.352 74.1888-9.2672 144.0768-32.1536 207.2064-66.0992l204.9024-181.7088c0.1536-0.1536 0.3584-0.3072 0.5632-0.4608 28.5184-40.4992 52.1216-84.6848 69.9904-131.7376-28.8256-14.3872-53.4528-7.2192-86.2208 21.6576z" fill="#6BC2FC" ></path></svg>