<svg viewBox="0 0 1024 1024" version="1.1" xmlns="http://www.w3.org/2000/svg"><path d="M834.048 626.9952h-127.8976c-23.552-10.1376-48.128-28.6208-51.2512-61.9008-5.2224-55.4496 29.1328-79.104 39.5776-94.6688a237.4144 237.4144 0 0 0 54.7328-152.0128c0-131.7376-106.8032-238.4896-238.4896-238.4896-131.7376 0-238.5408 106.8032-238.5408 238.4896 0 49.5616 15.104 95.5904 40.96 133.6832l-0.2048 0.256s0.3584 0.3072 0.9728 0.8704c9.984 14.5408 21.504 27.8528 34.3552 39.8336 13.6704 20.5824 24.9856 46.6944 20.0192 72.9088-6.8608 36.5568-37.376 53.6064-63.0784 61.0304H187.4944c-37.7856 0-68.4032 30.6176-68.4032 68.4032v189.9008c0 37.7856 30.6176 68.4032 68.4032 68.4032H834.048c37.7856 0 68.4032-30.6176 68.4032-68.4032v-189.9008c0-37.7856-30.6176-68.4032-68.4032-68.4032z m-100.1984 252.16H287.6928c-25.2416 0-45.6704-20.4288-45.6704-45.6704s20.4288-45.6704 45.6704-45.6704h446.1056c25.2416 0 45.6704 20.4288 45.6704 45.6704 0.0512 25.2416-20.4288 45.6704-45.6192 45.6704z" fill="#FC7032" ></path><path d="M834.048 626.9952h-127.8976c-23.552-10.1376-48.128-28.6208-51.2512-61.9008-5.2224-55.4496 29.1328-79.104 39.5776-94.6688a237.4144 237.4144 0 0 0 54.7328-152.0128c0-131.7376-106.8032-238.4896-238.4896-238.4896-131.7376 0-238.5408 106.8032-238.5408 238.4896 0 49.5616 15.104 95.5904 40.96 133.6832l-0.2048 0.256s0.3584 0.3072 0.9728 0.8704c9.984 14.5408 21.504 27.8528 34.3552 39.8336 13.6704 20.5824 24.9856 46.6944 20.0192 72.9088-6.8608 36.5568-37.376 53.6064-63.0784 61.0304H187.4944c-37.7856 0-68.4032 30.6176-68.4032 68.4032v189.9008c0 37.7856 30.6176 68.4032 68.4032 68.4032h334.6944c47.4112-19.4048 91.8528-44.544 132.5056-74.496H287.6928c-25.2416 0-45.6704-20.4288-45.6704-45.6704s20.4288-45.6704 45.6704-45.6704h446.1056c6.0928 0 11.8272 1.2288 17.152 3.3792 42.2912-47.7184 77.312-101.9904 103.3728-161.1264-6.3488-2.048-13.2096-3.1232-20.2752-3.1232z" fill="#FF7E3E" ></path><path d="M733.2352 232.6528c-34.4576-89.344-121.088-152.7808-222.5664-152.7808-131.7376 0-238.5408 106.8032-238.5408 238.4896 0 49.5616 15.104 95.5904 40.96 133.6832l-0.2048 0.256s0.3584 0.3072 0.9728 0.8704c9.984 14.5408 21.504 27.8528 34.3552 39.8336 13.6704 20.5824 24.9856 46.6944 20.0192 72.9088-6.8608 36.5568-37.376 53.6064-63.0784 61.0304H187.4944c-37.7856 0-68.4032 30.6176-68.4032 68.4032v84.48c317.3376-0.2048 578.7136-239.3088 614.144-547.1744z" fill="#FF9552" ></path><path d="M564.8896 86.1184c-17.408-4.0448-35.5328-6.2464-54.1696-6.2464-131.7376 0-238.5408 106.8032-238.5408 238.4896 0 49.5616 15.104 95.5904 40.96 133.6832l-0.2048 0.256 0.0512 0.0512c124.3136-85.4016 215.8592-215.04 251.904-366.2336z" fill="#FFA56A" ></path></svg>