<svg viewBox="0 0 1024 1024" version="1.1" xmlns="http://www.w3.org/2000/svg"><path d="M597.9136 651.6224a39.49568 39.49568 0 0 1-29.7472 13.4656h-0.512a39.51616 39.51616 0 0 1-29.9008-14.2848L387.6352 470.1184a39.56736 39.56736 0 0 1 5.1712-55.7568 39.56736 39.56736 0 0 1 55.7568 5.1712l120.4736 145.0496 207.2576-236.3904c-68.864-87.7568-160.1024-165.7856-232.6016-228.352a46.336 46.336 0 0 0-60.3136-0.256c-148.1216 125.3888-334.0288 284.7744-334.0288 472.8832 0 201.216 163.1232 364.3392 364.3392 364.3392s364.3392-163.1232 364.3392-364.3392c0-61.3376-21.6064-120.832-55.296-177.2032l-224.8192 256.3584z" fill="#05C46D" ></path><path d="M822.7328 395.264l-224.768 256.3584a39.49568 39.49568 0 0 1-29.7472 13.4656h-0.512a39.51616 39.51616 0 0 1-29.9008-14.2848L387.6352 470.1184a39.56736 39.56736 0 0 1 5.1712-55.7568 39.56736 39.56736 0 0 1 55.7568 5.1712l120.4736 145.0496 207.2576-236.3904c-68.864-87.7568-160.1024-165.7856-232.6016-228.352a46.336 46.336 0 0 0-60.3136-0.256c-148.1216 125.3888-334.0288 284.7744-334.0288 472.8832 0 95.4368 36.7104 182.2208 96.7168 247.1936 50.176 14.1312 103.168 21.7088 157.8496 21.7088 195.1744 0 367.8208-96.2048 473.1904-243.8144 0.5632-8.2944 0.9728-16.64 0.9728-25.088-0.0512-61.3888-21.6576-120.832-55.3472-177.2032z" fill="#1DCE75" ></path><path d="M387.6352 470.1184a39.56736 39.56736 0 0 1 5.1712-55.7568 39.56736 39.56736 0 0 1 55.7568 5.1712l105.216 126.72c39.3728-24.7808 75.6224-54.1184 107.8784-87.3472l39.8336-45.4144c24.32-30.8224 45.5168-64.2048 63.2832-99.6352-67.2768-81.9712-152.5248-154.88-221.0816-214.016a46.336 46.336 0 0 0-60.3136-0.256c-148.1216 125.3888-334.0288 284.7744-334.0288 472.8832 0 18.8416 1.4336 37.3248 4.1984 55.3984 29.7984 4.7104 60.3648 7.2192 91.4944 7.2192 84.6336 0 165.0176-18.1248 237.568-50.6368L387.6352 470.1184z" fill="#35D895" ></path><path d="M597.5552 146.6368c-18.6368-16.384-36.8128-32.0512-53.9136-46.7968a46.336 46.336 0 0 0-60.3136-0.256c-107.0592 90.624-233.7792 199.0144-295.8848 323.1744 174.2848-26.7264 323.0208-130.816 410.112-276.1216z" fill="#48E1AA" ></path></svg>