<svg viewBox="0 0 1024 1024" version="1.1" xmlns="http://www.w3.org/2000/svg"><path d="M904.192 470.1696c-2.816-82.944-68.8128-168.6016-167.5776-189.2864-35.0208-7.3216-69.9904-7.0656-104.6528 2.7648-2.7648 0.768-5.5296 1.3312-8.3456 1.9456-0.256 0.0512-0.6144-0.3072-1.3824-0.7168 45.2096-32.4608 65.4848-75.8272 58.4192-132.608-37.0688-6.2464-70.2464 1.1776-100.1472 22.8864-4.8128 3.4816-9.216 7.2192-13.3632 11.1104 7.4752-13.8752 15.872-27.7504 25.5488-41.472 21.1456-1.28 22.5792 0.2048 22.5792 0.2048l9.8304-17.2032-48.2816-40.2432-14.336 10.0352-1.7408 14.7456s-23.8592 38.8608-45.1072 102.144C484.2496 123.7504 395.264 68.5568 298.3424 80.896c-7.424 0.9728-8.5504 4.7104-9.216 10.3424-7.68 69.9904 14.1824 128.9216 65.9968 176.5888 2.3552 2.2016 4.9152 4.1984 7.3216 6.4 0.4096 0.3584 0.3072 1.28 0.4096 1.7408-17.408 1.1776-34.9184 1.4848-52.1728 3.7376-84.8896 10.9056-158.8736 77.6192-174.9504 161.3312-5.8368 30.3616-5.7344 62.3616-4.5056 93.44 2.56 64.5632 18.0224 126.464 44.288 185.6 34.1504 76.9536 82.944 143.1552 148.6848 195.7376 58.88 47.104 137.2672 39.6288 188.8256-15.4112 1.4848-1.5872 2.9184-3.1744 5.4272-5.9392 16.896 21.3504 37.5808 35.1744 62.0032 43.2128 51.6096 16.9984 97.9968 6.7072 138.752-28.416 81.2544-69.9904 136.5504-156.9792 166.0928-259.84 16.7936-58.4192 20.992-118.1696 18.8928-179.2512zM489.4208 324.4032c-1.7408-1.9456-3.5328-3.9424-5.1712-5.8368 1.7408-0.1536 3.84-0.3072 6.144-0.512-0.3072 2.1504-0.6656 4.2496-0.9728 6.3488z m28.1088 29.5424c1.1776-13.1584 2.9696-26.8288 5.5296-40.8576 1.4848-1.8432 2.2016-4.4032 2.1504-7.8336 0-1.6384 0.1536-3.2768 0.3072-4.608 0.1536-0.768 0.3072-1.536 0.512-2.304 18.3808 11.0592 37.2224 4.5568 53.3504 3.8912-19.9168 16.5888-41.0112 34.304-61.8496 51.712z m288.9216 201.0112c-3.2768 17.664-18.7392 30.0032-36.0448 30.0032-2.2528 0-4.5056-0.2048-6.8096-0.6144-19.9168-3.7376-33.0752-22.9376-29.3376-42.8544 12.288-65.792-36.7616-89.4464-38.8608-90.4192a36.73088 36.73088 0 0 1 30.976-66.6112c35.6352 16.5376 98.2016 73.5232 80.0768 170.496z" fill="#05C46D" ></path><path d="M736.6144 280.8832c-35.0208-7.3216-69.9904-7.0656-104.6528 2.7648-2.7648 0.768-5.5296 1.3312-8.3456 1.9456-0.256 0.0512-0.6144-0.3072-1.3824-0.7168 45.2096-32.4608 65.4848-75.8272 58.4192-132.608-37.0688-6.2464-70.2464 1.1776-100.1472 22.8864-4.8128 3.4816-9.216 7.2192-13.3632 11.1104 7.4752-13.8752 15.872-27.7504 25.5488-41.472 21.1456-1.28 22.5792 0.2048 22.5792 0.2048l9.8304-17.2032-48.2816-40.2432-14.336 10.0352-1.7408 14.7456s-23.8592 38.8608-45.1072 102.144C484.2496 123.7504 395.264 68.5568 298.3424 80.896c-7.424 0.9728-8.5504 4.7104-9.216 10.3424-7.68 69.9904 14.1824 128.9216 65.9968 176.5888 2.3552 2.2016 4.9152 4.1984 7.3216 6.4 0.4096 0.3584 0.3072 1.28 0.4096 1.7408-17.408 1.1776-34.9184 1.4848-52.1728 3.7376-84.8896 10.9056-158.8736 77.6192-174.9504 161.3312-5.8368 30.3616-5.7344 62.3616-4.5056 93.44 2.56 64.5632 18.0224 126.464 44.288 185.6 33.1776 74.8032 80.2816 139.3664 143.2064 191.232 293.2736-15.2064 529.664-245.3504 554.752-535.9104-28.9792-45.3632-76.8512-81.9712-136.8576-94.5152z m-247.1936 43.52c-1.7408-1.9456-3.5328-3.9424-5.1712-5.8368 1.7408-0.1536 3.84-0.3072 6.144-0.512-0.3072 2.1504-0.6656 4.2496-0.9728 6.3488z m28.1088 29.5424c1.1776-13.1584 2.9696-26.8288 5.5296-40.8576 1.4848-1.8432 2.2016-4.4032 2.1504-7.8336 0-1.6384 0.1536-3.2768 0.3072-4.608 0.1536-0.768 0.3072-1.536 0.512-2.304 18.3808 11.0592 37.2224 4.5568 53.3504 3.8912-19.9168 16.5888-41.0112 34.304-61.8496 51.712z m288.9216 201.0112c-3.2768 17.664-18.7392 30.0032-36.0448 30.0032-2.2528 0-4.5056-0.2048-6.8096-0.6144-19.9168-3.7376-33.0752-22.9376-29.3376-42.8544 12.288-65.792-36.7616-89.4464-38.8608-90.4192a36.73088 36.73088 0 0 1 30.976-66.6112c35.6352 16.5376 98.2016 73.5232 80.0768 170.496z" fill="#1DCE75" ></path><path d="M692.736 275.9168c-20.3264-0.3584-40.6016 2.048-60.7232 7.7312-2.7648 0.768-5.5296 1.3312-8.3456 1.9456-0.256 0.0512-0.6144-0.3072-1.3824-0.7168 45.2096-32.4608 65.4848-75.8272 58.4192-132.608-37.0688-6.2464-70.2464 1.1776-100.1472 22.8864-4.8128 3.4816-9.216 7.2192-13.3632 11.1104 7.4752-13.8752 15.872-27.7504 25.5488-41.472 21.1456-1.28 22.5792 0.2048 22.5792 0.2048l9.8304-17.2032-48.2816-40.2432-14.336 10.0352-1.7408 14.7456s-23.8592 38.8608-45.1072 102.144C484.2496 123.7504 395.264 68.5568 298.3424 80.896c-7.424 0.9728-8.5504 4.7104-9.216 10.3424-7.68 69.9904 14.1824 128.9216 65.9968 176.5888 2.3552 2.2016 4.9152 4.1984 7.3216 6.4 0.4096 0.3584 0.3072 1.28 0.4096 1.7408-17.408 1.1776-34.9184 1.4848-52.1728 3.7376-84.8896 10.9056-158.8736 77.6192-174.9504 161.3312-5.8368 30.3616-5.7344 62.3616-4.5056 93.44 2.304 57.9584 15.104 113.8176 36.6592 167.424 250.9312-17.2544 458.5984-191.8976 524.8512-425.984z m-203.3152 48.4864c-1.7408-1.9456-3.5328-3.9424-5.1712-5.8368 1.7408-0.1536 3.84-0.3072 6.144-0.512-0.3072 2.1504-0.6656 4.2496-0.9728 6.3488z m33.6384-11.3152c1.4848-1.8432 2.2016-4.4032 2.1504-7.8336 0-1.6384 0.1536-3.2768 0.3072-4.608 0.1536-0.768 0.3072-1.536 0.512-2.304 18.3808 11.0592 37.2224 4.5568 53.3504 3.8912l-61.7984 51.7632c1.1264-13.2096 2.9184-26.88 5.4784-40.9088z" fill="#3CD38E" ></path><path d="M298.3424 80.896c-7.424 0.9728-8.5504 4.7104-9.216 10.3424-7.68 69.9904 14.1824 128.9216 65.9968 176.5888 2.3552 2.2016 4.9152 4.1984 7.3216 6.4 0.4096 0.3584 0.3072 1.28 0.4096 1.7408-17.408 1.1776-34.9184 1.4848-52.1728 3.7376-84.8896 10.9056-158.8736 77.6192-174.9504 161.3312-2.1504 11.264-3.4816 22.7328-4.2496 34.304 160.0512-42.8544 293.1712-151.5008 368.5888-295.2704-39.7824-69.888-117.76-109.824-201.728-99.1744z" fill="#48E1AA" ></path></svg>