<?xml version="1.0" standalone="no"?><!DOCTYPE svg PUBLIC "-//W3C//DTD SVG 1.1//EN" "http://www.w3.org/Graphics/SVG/1.1/DTD/svg11.dtd"><svg class="icon" width="66px" height="66.00px" viewBox="0 0 1024 1024" version="1.1" xmlns="http://www.w3.org/2000/svg"><path fill="#dbdbdb" d="M511.332 64c43.538 0 66.958 10.25 77.23 16.54 4.564 2.796 7.59 7.336 9.614 12.36 6.982 17.32 24.132 61.41 34.266 100.756 32.334 12.782 62.24 30.53 88.81 52.326 10.39-2.898 21.33-5.516 32.128-7.846l2.696-0.576c28.264-5.99 55.138-9.976 68.04-11.746 5.28-0.724 10.652-0.324 15.312 2.306 10.48 5.92 30.904 21.46 52.672 59.88 21.77 38.418 24.766 64.206 24.556 76.42-0.092 5.426-2.44 10.366-5.694 14.66-11.236 14.832-40.156 52.034-68.542 80.656A350.486 350.486 0 0 1 846.32 512c0 17.77-1.332 35.224-3.9 52.262 28.386 28.62 57.306 65.824 68.54 80.656 3.256 4.296 5.604 9.234 5.696 14.66 0.21 12.212-2.786 38.002-24.556 76.422-21.768 38.418-42.19 53.96-52.672 59.88-4.66 2.628-10.032 3.028-15.31 2.304-13.724-1.884-43.246-6.27-73.44-12.91l-2.704-0.6c-9.02-2.02-18.06-4.244-26.72-6.658-26.57 21.796-56.476 39.546-88.812 52.328-10.134 39.346-27.284 83.436-34.266 100.758-2.024 5.02-5.05 9.56-9.614 12.36-10.272 6.288-33.692 16.538-77.23 16.538-43.536 0-66.956-10.25-77.228-16.54-4.566-2.796-7.592-7.336-9.616-12.36-5.412-13.428-16.938-42.946-26.566-73.87l-0.832-2.692a553.944 553.944 0 0 1-6.866-24.194c-32.338-12.782-62.242-30.532-88.814-52.328-3.462 0.966-6.986 1.9-10.546 2.804l-2.676 0.672c-35.312 8.768-73.46 14.472-89.64 16.692-5.28 0.724-10.65 0.324-15.312-2.306-10.48-5.92-30.902-21.46-52.672-59.878-20.86-36.82-24.482-62.038-24.562-74.824v-0.816c0-0.266 0.004-0.526 0.008-0.78 0.092-5.428 2.44-10.366 5.694-14.662 11.236-14.832 40.156-52.034 68.54-80.656A350.458 350.458 0 0 1 176.346 512c0-17.77 1.334-35.226 3.9-52.264-28.384-28.62-57.304-65.824-68.54-80.656-3.256-4.294-5.602-9.234-5.694-14.66a66.43 66.43 0 0 1-0.008-0.782v-0.816c0.08-12.786 3.7-38.006 24.562-74.822 21.77-38.42 42.192-53.96 52.672-59.88 4.662-2.63 10.034-3.03 15.312-2.306 18.228 2.5 64.336 9.424 102.864 20.168 26.572-21.796 56.474-39.544 88.812-52.326a553.944 553.944 0 0 1 6.866-24.194l0.832-2.692c9.628-30.924 21.154-60.442 26.566-73.872 2.024-5.02 5.05-9.56 9.616-12.36C444.376 74.252 467.796 64 511.332 64z m0 277.334c-94.256 0-170.666 76.408-170.666 170.666s76.41 170.666 170.666 170.666C605.59 682.666 682 606.26 682 512s-76.41-170.666-170.668-170.666z"  /></svg>