<svg viewBox="0 0 1024 1024" version="1.1" xmlns="http://www.w3.org/2000/svg"><path d="M516.5056 560.7424c57.9072 0 105.0112-47.104 105.0112-105.0112 0-57.9072-47.104-105.0112-105.0112-105.0112S411.4432 397.7728 411.4432 455.68c0 57.9584 47.1552 105.0624 105.0624 105.0624z" fill="#BD50D3" ></path><path d="M795.2896 878.0288l-125.3888-92.0064c124.4672-57.9072 210.7904-184.0128 210.7904-330.3424 0-201.1648-163.072-364.1856-364.1856-364.1856-201.1648 0-364.1856 163.072-364.1856 364.1856 0 148.224 88.6272 275.712 215.7056 332.544l-120.3712 89.9072c-19.4048 14.4896-9.1648 45.4144 15.104 45.4144h517.6832c24.2688 0 34.5088-31.1296 14.848-45.5168zM516.5056 261.888c106.8544 0 193.792 86.9376 193.792 193.792s-86.9376 193.792-193.792 193.792C409.6 649.5232 322.6624 562.5856 322.6624 455.68S409.6 261.888 516.5056 261.888z" fill="#BD50D3" ></path><path d="M790.6304 378.7776c0-70.7072-13.568-138.1888-37.9392-200.192-63.5904-54.272-146.0224-87.0912-236.1856-87.0912-201.1648 0-364.1856 163.072-364.1856 364.1856 0 148.224 88.6272 275.712 215.7056 332.544l-120.3712 89.9072c-19.4048 14.4896-9.1648 45.4144 15.104 45.4144h33.28c277.504-26.5216 494.592-260.2496 494.592-544.768zM322.6624 455.68c0-106.8544 86.9376-193.792 193.792-193.792S710.2464 348.8256 710.2464 455.68s-86.9376 193.792-193.792 193.792C409.6 649.5232 322.6624 562.5856 322.6624 455.68z" fill="#C65EDB" ></path><path d="M599.9616 392.2432c-19.2-25.1904-49.408-41.5232-83.456-41.5232-57.9072 0-105.0112 47.104-105.0112 105.0112 0 49.9712 35.072 91.8016 81.8688 102.3488 44.8512-48.0256 81.2032-104.0896 106.5984-165.8368z" fill="#CA6EE0" ></path><path d="M322.6624 455.68c0-106.8544 86.9376-193.792 193.792-193.792 41.9328 0 80.7936 13.4144 112.5376 36.1472a550.144 550.144 0 0 0 11.8784-113.664c0-24.6784-1.792-48.9472-4.9664-72.7552a363.0592 363.0592 0 0 0-119.4496-20.1216c-201.1648 0-364.1856 163.072-364.1856 364.1856 0 97.8944 38.656 186.7264 101.5296 252.16a546.6112 546.6112 0 0 0 166.2464-84.1216c-58.112-33.4848-97.3824-96.256-97.3824-168.0384z" fill="#CA6EE0" ></path><path d="M412.672 292.1984a544.0512 544.0512 0 0 0 80.9984-199.8848C303.1552 104.0896 152.2688 262.2464 152.2688 455.68c0 15.1552 0.9728 30.1056 2.7648 44.8a546.85696 546.85696 0 0 0 181.504-116.736c15.2576-37.888 42.0864-69.888 76.1344-91.5456z" fill="#D786EA" ></path></svg>