<svg viewBox="0 0 1024 1024" version="1.1" xmlns="http://www.w3.org/2000/svg"><path d="M950.5792 298.24v443.2384c-21.6064 32.4608-38.6048 35.4304-69.9904 12.032-9.984-7.424-19.712-15.104-29.7472-22.4768-14.1824-10.4448-28.4672-20.6336-45.824-33.2288 0 25.4976 0.6656 45.9776-0.1536 66.3552-1.9456 49.0496-32.256 78.1824-81.2544 78.2336-190.1568 0.1536-380.2624 0.1536-570.4192 0-51.0976-0.0512-80.1792-29.184-80.2304-80.4352-0.1536-165.9904-0.1536-332.032 0-498.0224 0.0512-50.0224 29.2352-79.6672 78.6944-79.7184 190.8736-0.1536 381.7472-0.1536 572.6208 0 48.7424 0.0512 78.848 29.5936 80.5888 78.8992 0.768 21.9136 0 43.8784 0.256 65.792 0.0512 5.2224 1.28 10.4448 2.2016 17.7664 25.856-19.3536 49.2032-36.9152 72.6528-54.3744 31.8464-23.6544 43.6736-22.6304 70.6048 5.9392z m-603.8528 31.744c-66.8672 0.5632-127.8976 61.696-128.0512 128.3072-0.2048 66.3552 60.672 127.5904 127.7952 128.5632 66.6624 0.9216 130.3552-62.9248 129.0752-129.3824-1.3312-67.4816-62.5152-128.0512-128.8192-127.488z" fill="#2595E8" ></path><path d="M807.3216 346.6752c-0.9728-7.3216-2.1504-12.544-2.2016-17.7664-0.2048-21.9136 0.512-43.8784-0.256-65.792-1.7408-49.3056-31.8464-78.848-80.5888-78.8992-190.8736-0.1536-381.7472-0.1536-572.6208 0-49.4592 0.0512-78.6944 29.696-78.6944 79.7184-0.1536 165.9904-0.1536 332.032 0 498.0224 0.0512 51.2 29.1328 80.384 80.2304 80.4352 85.4528 0.0512 170.9568 0 256.4096 0 249.6512-69.9392 438.4256-285.3888 469.1456-549.12-23.04 17.1008-46.0288 34.3552-71.424 53.4016z m-460.8512 240.1792c-67.1232-0.9216-128-62.208-127.7952-128.5632 0.2048-66.6112 61.184-127.744 128.0512-128.3072 66.304-0.5632 127.488 60.0064 128.8192 127.488 1.28 66.4576-62.4128 130.304-129.0752 129.3824z" fill="#3A9CED" ></path><path d="M151.6544 184.2176c-49.4592 0.0512-78.6944 29.696-78.6944 79.7184-0.1024 123.904-0.0512 247.808 0 371.7632 86.1696-2.1504 168.0896-21.0944 242.7904-53.6064-53.8624-15.5648-97.1776-67.7376-97.024-123.7504 0.2048-66.6112 61.184-127.744 128.0512-128.3072 66.304-0.5632 127.488 60.0064 128.8192 127.488 0.2048 9.4208-1.0752 18.7392-3.328 27.8528 93.6448-78.1312 164.864-182.1696 202.8032-301.1072-174.4896-0.1536-348.9792-0.2048-523.4176-0.0512z" fill="#59ADF8" ></path><path d="M72.9088 263.936c-0.0512 39.0144 0 78.08 0 117.0944 121.3952-34.8672 228.1984-104.2432 309.1456-196.8128-76.8 0-153.6-0.0512-230.4 0-49.5104 0.0512-78.6944 29.696-78.7456 79.7184z" fill="#6BC2FC" ></path></svg>