<svg viewBox="0 0 1024 1024" version="1.1" xmlns="http://www.w3.org/2000/svg"><path d="M508.416 84.0192c-236.8 0-428.8 191.9488-428.8 428.8s191.9488 428.8 428.8 428.8 428.8-191.9488 428.8-428.8-192-428.8-428.8-428.8z m187.2896 456.9088L432.7424 692.736c-21.6576 12.4928-48.6912-3.1232-48.6912-28.1088v-303.616c0-24.9856 27.0336-40.6016 48.6912-28.1088l262.9632 151.808c21.6576 12.4928 21.6576 43.7248 0 56.2176z" fill="#BD50D3" ></path><path d="M910.4384 363.4688c-60.672-163.1744-217.7536-279.3984-402.0224-279.3984-236.8 0-428.8 191.9488-428.8 428.8 0 140.032 67.1744 264.3968 171.008 342.6304 25.1904 3.2768 50.8928 5.0176 77.0048 5.0176 294.2976-0.0512 538.1632-215.3984 582.8096-497.0496z m-214.7328 177.4592L432.7424 692.736c-21.6576 12.4928-48.6912-3.1232-48.6912-28.1088v-303.616c0-24.9856 27.0336-40.6016 48.6912-28.1088l262.9632 151.808c21.6576 12.4928 21.6576 43.7248 0 56.2176z" fill="#C65EDB" ></path><path d="M508.416 84.0192c-236.8 0-428.8 191.9488-428.8 428.8 0 47.0016 7.68 92.2112 21.6576 134.5024 21.3504 2.3552 43.008 3.584 64.9728 3.584 76.9024 0 150.3744-14.7456 217.8048-41.5232V361.0112c0-24.9856 27.0336-40.6016 48.6912-28.1088l185.6 107.1616c66.5088-79.1552 112.5376-176.0768 130.0992-282.5728-68.5056-46.3872-151.0912-73.472-240.0256-73.472z" fill="#CA6EE0" ></path><path d="M86.272 438.1184c212.5824-24.576 390.7072-162.048 472.8832-350.976-16.64-1.9456-33.536-3.072-50.7392-3.072-211.3024-0.0512-386.7648 152.8832-422.144 354.048z" fill="#D786EA" ></path></svg>