<svg viewBox="0 0 1024 1024" version="1.1" xmlns="http://www.w3.org/2000/svg"><path d="M886.528 838.5024l-35.4304-478.0032c-3.2768-44.0832-41.3696-78.2336-87.2448-78.2336h-40.448c-5.12-111.2064-97.1776-200.0896-209.6128-200.0896-112.4352 0-204.4928 88.8832-209.6128 200.0896h-40.448c-45.9264 0-84.0192 34.1504-87.2448 78.2336l-35.4304 478.0032c-3.6352 48.7936 36.5056 90.2656 87.2448 90.2656h570.9824c50.7904 0 90.88-41.472 87.2448-90.2656z m-372.736-664.6784c61.9008 0 112.7424 47.8208 117.7088 108.4416H396.0832c4.9664-60.6208 55.808-108.4416 117.7088-108.4416z m225.8944 637.4912a42.15296 42.15296 0 0 1-30.5152 13.0048c-10.5472 0-21.0944-3.8912-29.2864-11.776l-67.1232-64.4608A189.62432 189.62432 0 0 1 510.0544 778.24c-105.216 0-190.8224-85.6064-190.8224-190.8224s85.6064-190.8224 190.8224-190.8224c105.216 0 190.8224 85.6064 190.8224 190.8224 0 36.864-10.5472 71.2704-28.672 100.4544l66.304 63.6928c16.7936 16.128 17.3568 42.9056 1.1776 59.7504z" fill="#05C46D" ></path><path d="M510.0032 481.1264c-58.5728 0-106.24 47.6672-106.24 106.24s47.6672 106.24 106.24 106.24 106.24-47.6672 106.24-106.24-47.6672-106.24-106.24-106.24z" fill="#1DCE75" ></path><path d="M596.992 526.4896c-19.2512-27.392-50.9952-45.3632-86.9376-45.3632-58.5728 0-106.24 47.6672-106.24 106.24 0 36.6592 18.6368 68.9664 46.9504 88.1152a625.5104 625.5104 0 0 0 146.2272-148.992z" fill="#3CD38E" ></path><path d="M851.0976 360.4992c-3.2768-44.0832-41.3696-78.2336-87.2448-78.2336h-40.448c-5.12-111.2064-97.1776-200.0896-209.6128-200.0896-112.4352 0-204.4928 88.8832-209.6128 200.0896h-40.448c-45.9264 0-84.0192 34.1504-87.2448 78.2336l-35.4304 478.0032c-3.6352 48.7936 36.5056 90.2656 87.2448 90.2656h341.8624c49.2032-28.8256 94.1056-64.2048 133.4784-105.0112-8.6528-1.1264-16.9984-4.7616-23.808-11.264l-67.1232-64.4608a189.62432 189.62432 0 0 1-102.7072 30.1568c-105.216 0-190.8224-85.6064-190.8224-190.8224s85.6064-190.8224 190.8224-190.8224c105.216 0 190.8224 85.6064 190.8224 190.8224 0 36.864-10.5472 71.2704-28.672 100.4544l66.304 63.6928c5.5808 5.376 9.216 11.9296 11.2128 18.8928 54.4768-70.912 93.952-153.9584 113.7152-244.3776l-12.288-165.5296zM396.0832 282.2656c4.9664-60.6208 55.808-108.4416 117.7088-108.4416s112.7424 47.8208 117.7088 108.4416H396.0832z" fill="#1DCE75" ></path><path d="M375.1936 722.2784c-34.56-34.56-56.0128-82.2784-56.0128-134.912 0-105.216 85.6064-190.8224 190.8224-190.8224 51.4048 0 98.048 20.4288 132.4032 53.6064 36.608-73.0112 59.2384-154.2656 64.4096-240.2304-32.0512-75.008-106.4448-127.6928-193.024-127.6928-112.4352 0-204.4928 88.8832-209.6128 200.0896h-40.448c-45.9264 0-84.0192 34.1504-87.2448 78.2336l-31.8464 429.824c82.5344-7.5776 160.4608-31.3344 230.5536-68.096z m138.5984-548.4544c61.9008 0 112.7424 47.8208 117.7088 108.4416H396.0832c4.9664-60.6208 55.808-108.4416 117.7088-108.4416z" fill="#3CD38E" ></path><path d="M457.0624 282.2656H396.0832c4.9152-59.7504 54.3744-106.9568 115.0464-108.3392 11.1104-29.1328 20.1216-59.2896 26.7776-90.368-7.936-0.9216-15.9744-1.4336-24.1152-1.4336-112.4352 0-204.4928 88.8832-209.6128 200.0896h-40.448c-45.9264 0-84.0192 34.1504-87.2448 78.2336l-12.3904 167.5264c121.5488-49.2032 223.9488-135.8848 292.9664-245.7088z" fill="#48E1AA" ></path></svg>