<svg viewBox="0 0 1024 1024" version="1.1" xmlns="http://www.w3.org/2000/svg"><path d="M512.8704 465.4592l343.4496-197.888c-1.3824-0.9216-2.7648-1.792-4.1984-2.6624l-287.0784-166.7072c-32.1024-18.6368-71.68-18.7392-103.8336-0.256L173.2096 263.168c-1.4336 0.8192-2.816 1.6896-4.1984 2.6112l343.8592 199.68z" fill="#757BF2" ></path><path d="M559.5648 943.7184c1.0752-0.5632 2.2016-1.1264 3.2768-1.7408l287.9488-165.2736a103.77728 103.77728 0 0 0 52.1216-89.8048l0.8192-331.9808c0-1.6384-0.1024-3.2768-0.1536-4.864l-344.064 198.2464v395.4176zM464.4352 547.328L121.2416 347.9552c-0.1024 1.6384-0.1536 3.328-0.1536 5.0176l-0.8192 331.9808a103.7824 103.7824 0 0 0 51.712 90.0608l287.0784 166.7072c1.792 1.024 3.584 1.9968 5.4272 2.9184v-397.312z" fill="#6C6CEA" ></path><path d="M121.088 352.9728l-0.8192 331.9808a103.7824 103.7824 0 0 0 51.712 90.0608l93.184 54.1184a587.264 587.264 0 0 0 199.3728-3.6352V547.328L121.2416 347.9552c-0.1024 1.6896-0.1536 3.328-0.1536 5.0176zM559.5648 798.6176c160.3584-60.4672 286.976-189.696 343.9616-351.744l0.256-91.9552c0-1.6384-0.0512-3.2768-0.1536-4.864l-344.064 198.2464v250.3168z" fill="#757BF2" ></path><path d="M121.088 352.9728l-0.6656 271.4624c24.4224 3.1232 49.3568 4.7616 74.6496 4.7616 97.2288 0 188.8768-23.8592 269.4144-65.9968v-15.8208L121.2416 347.9552c-0.1024 1.6896-0.1536 3.328-0.1536 5.0176zM679.936 369.152c32.5632-48.9472 57.9584-103.0656 74.5984-160.9216l-189.5424-110.08c-32.1024-18.6368-71.68-18.7392-103.8336-0.256L173.2096 263.168c-1.4336 0.8192-2.816 1.6896-4.1984 2.6112l343.808 199.68L679.936 369.152z" fill="#8486F8" ></path><path d="M564.992 98.1504c-32.1024-18.6368-71.68-18.7392-103.8336-0.256L173.2096 263.168c-1.4336 0.8192-2.816 1.6896-4.1984 2.6112l153.3952 89.088a584.34048 584.34048 0 0 0 247.1936-254.0032l-4.608-2.7136z" fill="#8D92F8" ></path></svg>