<?xml version="1.0" standalone="no"?><!DOCTYPE svg PUBLIC "-//W3C//DTD SVG 1.1//EN" "http://www.w3.org/Graphics/SVG/1.1/DTD/svg11.dtd"><svg class="icon" width="66px" height="66.00px" viewBox="0 0 1024 1024" version="1.1" xmlns="http://www.w3.org/2000/svg"><path d="M119.526 231.254C123.29 192.766 148.58 162.4 186.48 154.726 241.63 143.562 341.87 130.8 512 130.8s270.37 12.76 325.52 23.926c37.9 7.674 63.19 38.04 66.954 76.528 5.152 52.548 10.73 145.74 10.73 302.75s-5.58 250.2-10.73 302.75c-3.764 38.488-29.054 68.854-66.954 76.528-55.15 11.164-155.39 23.926-325.52 23.926s-270.37-12.762-325.52-23.926c-37.9-7.674-63.19-38.04-66.954-76.528-5.152-52.55-10.73-145.74-10.73-302.75s5.58-250.2 10.73-302.75z" fill="#FFB172" /><path d="M959.914 263.194c1.59 25.482-19.13 46.808-45.046 46.808H109.132c-25.916 0-46.636-21.326-45.046-46.808 1.86-29.856 3.898-53.604 5.868-72.254 4.032-38.466 29.636-68.91 68.03-76.962C198.598 101.268 312.864 86 512 86c199.138 0 313.4 15.268 374.016 27.978 38.394 8.052 63.998 38.496 68.03 76.962 1.97 18.648 4.008 42.398 5.868 72.254z" fill="#FF934A" /><path d="M310.4 469.914c0-23.492 18.098-42.928 41.574-44.066 36.198-1.758 93.274-3.846 160.026-3.846 66.752 0 123.828 2.088 160.026 3.846 23.476 1.14 41.576 20.574 41.576 44.066v16.178c0 23.494-18.1 42.928-41.576 44.066-36.198 1.758-93.274 3.846-160.026 3.846-66.752 0-123.828-2.088-160.026-3.846-23.476-1.14-41.576-20.572-41.576-44.066v-16.178z" fill="#FFFFFF" /></svg>