<svg viewBox="0 0 1024 1024" version="1.1" xmlns="http://www.w3.org/2000/svg"><path d="M574.208 459.9808c-9.5744 1.9456-18.432 7.4752-28.7232 18.0224l-22.1184 22.6304-28.9792-12.5952a48.0256 48.0256 0 0 1-13.1072-7.68c-2.2528-1.8944-4.4032-3.84-6.4-5.9392-10.1888-10.5472-22.272-15.5136-39.2192-16.2304-1.1776-0.0512-2.3552-0.0512-3.5328-0.0512-17.664 0-30.208 5.6832-40.3968 18.1248-22.9888 28.16-23.6544 72.7552-1.4848 103.8336 13.6704 19.1488 30.976 37.0688 52.992 54.7328 19.712 15.872 40.96 32.256 68.6592 52.8896 39.3728-28.5184 76.4928-55.5008 106.9056-89.0368 27.136-29.952 36.096-57.4976 29.1328-89.344-5.1712-22.9376-21.4528-59.9552-73.728-49.3568z" fill="#FF7E3E" ></path><path d="M850.3808 238.8992h-306.0224c-19.0976 0-37.5296-7.168-51.6096-20.1216L411.7504 144.3328a76.2368 76.2368 0 0 0-51.6096-20.1216H173.6192c-41.472 0-75.1104 33.6384-75.1104 75.1104V821.76c0 41.472 33.6384 75.1104 75.1104 75.1104h676.7616c41.472 0 75.1104-33.6384 75.1104-75.1104V314.0096c0-41.472-33.6384-75.1104-75.1104-75.1104z m-163.6352 421.3248c-37.0688 40.9088-80.2304 72.192-121.9584 102.4l-4.1472 2.9696c-14.7968 10.7008-31.4368 16.0256-48.2304 16.0256-18.0224 0-36.2496-6.144-52.5824-18.3296-29.952-22.3744-52.8384-39.936-74.0864-57.0368-28.6208-22.9888-51.5584-46.848-70.1952-72.96-46.08-64.6144-43.9296-155.136 5.1712-215.1424 29.2352-35.7376 70.2464-53.5552 118.6304-51.6608 27.2896 1.1264 51.6608 8.1408 72.8064 21.0432 13.8752-8.6016 28.416-14.3872 43.8784-17.5104 87.3984-17.664 161.9968 31.5392 181.3504 119.552 13.5168 61.2352-3.584 118.6304-50.6368 170.6496z" fill="#FC7032" ></path><path d="M850.3808 238.8992h-306.0224c-19.0976 0-37.5296-7.168-51.6096-20.1216L411.7504 144.3328a76.2368 76.2368 0 0 0-51.6096-20.1216H173.6192c-41.472 0-75.1104 33.6384-75.1104 75.1104V821.76c0 41.472 33.6384 75.1104 75.1104 75.1104h287.8464c263.0144-81.5616 454.4-325.8368 456.6016-615.1168-12.032-25.344-37.7856-42.8544-67.6864-42.8544z m-163.6352 421.3248c-37.0688 40.9088-80.2304 72.192-121.9584 102.4l-4.1472 2.9696c-14.7968 10.7008-31.4368 16.0256-48.2304 16.0256-18.0224 0-36.2496-6.144-52.5824-18.3296-29.952-22.3744-52.8384-39.936-74.0864-57.0368-28.6208-22.9888-51.5584-46.848-70.144-72.96-46.08-64.6144-43.9296-155.136 5.1712-215.1424 29.2352-35.7376 70.2464-53.5552 118.6304-51.6608 27.2896 1.1264 51.6608 8.1408 72.8064 21.0432 13.8752-8.6016 28.416-14.3872 43.8784-17.5104 87.3984-17.664 161.9968 31.5392 181.4016 119.552 13.4144 61.2352-3.6864 118.6304-50.7392 170.6496z" fill="#FF7E3E" ></path><path d="M492.7488 218.7776L411.7504 144.3328a76.2368 76.2368 0 0 0-51.6096-20.1216H173.6192c-41.472 0-75.1104 33.6384-75.1104 75.1104v495.9232c81.2032-0.8704 158.7712-16.5888 230.1952-44.6976-4.608-5.632-9.0624-11.3664-13.2096-17.2032-46.08-64.6144-43.9296-155.136 5.1712-215.1424 29.2352-35.7376 70.2464-53.5552 118.6304-51.6608 27.2896 1.1264 51.6608 8.1408 72.8064 21.0432 13.8752-8.6016 28.416-14.3872 43.8784-17.5104 33.8432-6.8608 65.7408-3.5328 93.2864 8.0384a649.5744 649.5744 0 0 0 62.1568-139.2128h-167.1168c-19.0976 0-37.4784-7.168-51.5584-20.1216z" fill="#FF9552" ></path><path d="M593.0496 458.1888c-5.7344-0.1024-11.9296 0.4096-18.8416 1.792-9.5744 1.9456-18.432 7.4752-28.7232 18.0224l-22.1184 22.6304-28.9792-12.5952a48.0256 48.0256 0 0 1-13.1072-7.68c-2.2528-1.8944-4.4032-3.84-6.4-5.9392-10.1888-10.5472-22.272-15.5136-39.2192-16.2304-1.1776-0.0512-2.3552-0.0512-3.5328-0.0512-17.664 0-30.208 5.6832-40.3968 18.1248-22.9888 28.16-23.6544 72.7552-1.4848 103.8336 7.1168 9.984 15.2576 19.6608 24.5248 29.0816a653.14816 653.14816 0 0 0 178.2784-150.9888z" fill="#FF9552" ></path><path d="M459.9808 188.672l-48.2304-44.3392a76.2368 76.2368 0 0 0-51.6096-20.1216H173.6192c-41.472 0-75.1104 33.6384-75.1104 75.1104v243.6096c148.3264-40.2432 275.5072-131.7376 361.472-254.2592z" fill="#FFA56A" ></path></svg>