<?xml version="1.0" standalone="no"?><!DOCTYPE svg PUBLIC "-//W3C//DTD SVG 1.1//EN" "http://www.w3.org/Graphics/SVG/1.1/DTD/svg11.dtd"><svg class="icon" width="66px" height="66.00px" viewBox="0 0 1024 1024" version="1.1" xmlns="http://www.w3.org/2000/svg"><path d="M64 512C64 264.576 264.576 64 512 64s448 200.576 448 448-200.576 448-448 448S64 759.424 64 512z" fill="#FF934A" /><path d="M519.66 498.558a10.672 10.672 0 0 0-15.32 0c-21.14 21.718-82.92 84.97-147.134 148.374-14.508 14.328-35.158 19.874-51.414 7.74-6.656-4.968-14.186-11.574-22.272-20.344-11.03-11.94-18.39-23.302-23.274-32.774-8.022-15.514-3.948-33.674 6.228-47.758 79.574-110.25 165.484-185.438 211.606-221.8 20.288-15.994 47.552-15.994 67.84 0 46.122 36.362 132.032 111.55 211.606 221.8 10.176 14.084 14.25 32.244 6.228 47.758-4.884 9.472-12.244 20.836-23.274 32.774-8.086 8.77-15.616 15.376-22.272 20.342-16.256 12.136-36.906 6.59-51.414-7.74-64.212-63.4-125.994-126.654-147.136-148.372z" fill="#FFFFFF" /></svg>