<svg viewBox="0 0 1024 1024" version="1.1" xmlns="http://www.w3.org/2000/svg"><path d="M511.6928 382.5664m-91.8016 0a91.8016 91.8016 0 1 0 183.6032 0 91.8016 91.8016 0 1 0-183.6032 0Z" fill="#8486F8" ></path><path d="M509.8496 753.4592c54.4768-2.56 271.616-140.9536 273.5104-382.5152 0-150.016-121.6-271.616-271.616-271.616-150.016 0-271.616 121.6-271.616 271.616-2.7648 221.9008 222.5664 391.0656 269.7216 382.5152z m1.8432-532.3264c88.9856 0 161.3824 72.3968 161.3824 161.3824s-72.3968 161.3824-161.3824 161.3824S350.3104 471.552 350.3104 382.5664s72.3968-161.4336 161.3824-161.4336z" fill="#757BF2" ></path><path d="M773.5296 636.8256c-63.8976 71.5776-165.3248 166.7584-264.5504 182.4256-107.5712-19.5584-211.3024-131.5328-254.464-183.552-117.0432 28.5696-193.6896 76.032-193.6896 129.8432 0 87.3472 201.8304 158.1568 450.8672 158.1568 248.9856 0 450.8672-70.8096 450.8672-158.1568 0-53.0944-74.6496-100.0448-189.0304-128.7168z" fill="#6C6CEA" ></path><path d="M783.36 639.3344c-3.2256-0.8704-6.5024-1.6896-9.8304-2.56-63.8976 71.5776-165.3248 166.7584-264.5504 182.4256-107.5712-19.5584-211.3024-131.5328-254.464-183.552-117.0432 28.5696-193.6896 76.032-193.6896 129.8432 0 70.2464 130.7136 129.792 311.4496 150.3744 172.3904-31.6416 319.8976-134.2464 411.0848-276.5312z" fill="#757BF2" ></path><path d="M350.3104 382.5664c0-88.9856 72.3968-161.3824 161.3824-161.3824 68.7104 0 127.4368 43.1616 150.7328 103.7312 19.456-46.08 33.536-95.0272 41.4208-145.9712-49.152-49.152-117.0944-79.616-192.1024-79.616-150.016 0-271.616 121.6-271.616 271.616-1.3312 109.6192 52.9408 206.336 113.9712 275.1488a623.63136 623.63136 0 0 0 153.0368-102.2464c-86.9376-2.4576-156.8256-73.8304-156.8256-161.28z" fill="#8486F8" ></path><path d="M419.328 250.3168a620.9024 620.9024 0 0 0 88.7808-150.8864c-148.3776 1.9456-268.032 122.7264-268.032 271.5136-0.1536 10.8544 0.4096 21.5552 1.3312 32.1024C288.5632 376.064 331.8272 343.04 370.176 305.0496c11.9808-21.76 28.8768-40.4992 49.152-54.7328z" fill="#8D92F8" ></path><path d="M254.5152 635.648c-43.2128 10.5472-80.9472 23.7056-111.3088 38.7584 51.3024 1.4848 98.8672-3.9936 135.7824-10.5984-9.472-10.4448-17.7152-20.0192-24.4736-28.16z" fill="#8486F8" ></path></svg>