<svg viewBox="0 0 1024 1024" version="1.1" xmlns="http://www.w3.org/2000/svg"><path d="M923.0848 445.7984c32.4608-31.6416 14.5408-86.784-30.3104-93.2864l-199.0656-28.928c-17.8176-2.6112-33.2288-13.7728-41.1648-29.9008l-89.0368-180.3776c-20.0704-40.6528-78.0288-40.6528-98.0992 0L376.3712 293.632a54.64064 54.64064 0 0 1-41.1648 29.9008l-199.0656 28.928c-44.8512 6.5024-62.7712 61.6448-30.3104 93.2864l144.0768 140.4416a54.5792 54.5792 0 0 1 15.7184 48.4352l-33.9968 198.2976c-7.68 44.6976 39.2192 78.7456 79.36 57.6512l178.0736-93.5936c15.9232-8.3968 34.9696-8.3968 50.8928 0l178.0736 93.5936c40.1408 21.0944 87.04-12.9536 79.36-57.6512l-33.9968-198.2976c-3.0208-17.7664 2.816-35.84 15.7184-48.4352l143.9744-140.3904z m-169.984-18.2784a36.39808 36.39808 0 0 1-35.5328 28.9792c-2.4576 0-4.9152-0.256-7.424-0.768l-120.3712-24.9856a36.4288 36.4288 0 0 1-25.856-20.8896l-40.1408-90.9312a36.352 36.352 0 0 1 18.5856-47.9232c18.3296-8.0896 39.7824 0.2048 47.9232 18.5856l32.5632 73.8304 102.0416 21.1456c19.6608 4.096 32.3072 23.3472 28.2112 42.9568z" fill="#F23D4F" ></path><path d="M892.7744 352.512l-199.0656-28.928c-17.8176-2.6112-33.2288-13.7728-41.1648-29.9008l-89.0368-180.3776c-20.0704-40.6528-78.0288-40.6528-98.0992 0L376.3712 293.632a54.64064 54.64064 0 0 1-41.1648 29.9008l-199.0656 28.928c-44.8512 6.5024-62.7712 61.6448-30.3104 93.2864l144.0768 140.4416a54.5792 54.5792 0 0 1 15.7184 48.4352l-33.9968 198.2976c-1.9968 11.6224-0.2048 22.528 4.096 31.9488 26.6752 3.7376 53.9136 5.6832 81.664 5.6832 11.264 0 22.4256-0.3584 33.536-0.9728l138.1376-72.6016c15.9232-8.3968 34.9696-8.3968 50.8928 0l30.5664 16.0768a586.87488 586.87488 0 0 0 197.0176-154.2144l-4.1472-24.1664c-3.0208-17.7664 2.816-35.84 15.7184-48.4352l78.1312-76.1856c20.3776-49.1008 34.2528-101.632 40.5504-156.4672-1.6896-0.4096-3.2768-0.8192-5.0176-1.0752zM753.1008 427.52a36.39808 36.39808 0 0 1-35.5328 28.9792c-2.4576 0-4.9152-0.256-7.424-0.768l-120.3712-24.9856a36.4288 36.4288 0 0 1-25.856-20.8896l-40.1408-90.9312a36.352 36.352 0 0 1 18.5856-47.9232c18.3296-8.0896 39.7824 0.2048 47.9232 18.5856l32.5632 73.8304 102.0416 21.1456c19.6608 4.096 32.3072 23.3472 28.2112 42.9568z" fill="#FC4956" ></path><path d="M262.2976 653.6192c144.384-26.1632 270.336-105.4208 356.864-216.7808l-29.3888-6.0928a36.4288 36.4288 0 0 1-25.856-20.8896l-40.1408-90.9312a36.352 36.352 0 0 1 18.5856-47.9232c18.3296-8.0896 39.7824 0.2048 47.9232 18.5856l32.5632 73.8304 40.2432 8.3456c9.2672-15.9744 17.7664-32.4096 25.5488-49.2544a54.6304 54.6304 0 0 1-36.096-28.8768l-89.0368-180.3776c-20.0704-40.6528-78.0288-40.6528-98.0992 0L376.3712 293.632a54.64064 54.64064 0 0 1-41.1648 29.9008l-199.0656 28.928c-44.8512 6.5024-62.7712 61.6448-30.3104 93.2864l144.0768 140.4416a54.5792 54.5792 0 0 1 15.7184 48.4352l-3.328 18.9952z" fill="#FF5C64" ></path><path d="M550.2464 96.1024c-25.5488-22.2208-68.1984-16.5888-84.8384 17.152L376.3712 293.632a54.64064 54.64064 0 0 1-41.1648 29.9008l-199.0656 28.928c-44.8512 6.5024-62.7712 61.6448-30.3104 93.2864l2.3552 2.304c200.3968-33.6896 366.1824-169.4208 442.0608-351.9488z" fill="#FF716E" ></path></svg>