<svg viewBox="0 0 1024 1024" version="1.1" xmlns="http://www.w3.org/2000/svg"><path d="M544.1024 504.8832l-25.2416-51.1488-25.2416 51.1488a75.264 75.264 0 0 1-56.7296 41.216l-56.4736 8.192 40.8576 39.8336c17.7664 17.3056 25.856 42.24 21.6576 66.7136l-9.6256 56.2176 50.4832-26.5216c21.9648-11.52 48.1792-11.5712 70.144 0l50.4832 26.5216-9.6256-56.2176c-4.1984-24.4736 3.8912-49.408 21.6576-66.7136l40.8576-39.7824-56.4224-8.192c-24.576-3.584-45.7728-18.9952-56.7808-41.2672z" fill="#FCA315" ></path><path d="M845.4144 260.3008h-322.048c-17.3568 0-33.6384-8.4992-43.5712-22.784L421.9904 161.28a53.00736 53.00736 0 0 0-43.5712-22.784H192.3584c-58.7776 0-106.4448 47.6672-106.4448 106.4448v538.5216c0 58.7776 47.6672 106.4448 106.4448 106.4448h653.0048c58.7776 0 106.4448-47.6672 106.4448-106.4448V373.76c0.0512-58.7776-47.616-113.4592-106.3936-113.4592z m-116.736 341.9136l-50.2272 48.9472 11.8784 69.12c4.864 28.4672-6.6048 56.7296-30.0032 73.728-23.3984 16.9984-53.8112 19.2-79.36 5.7344l-62.1056-32.6144-62.1056 32.6144a75.44832 75.44832 0 0 1-35.1232 8.7552c-15.5648 0-31.0272-4.864-44.2368-14.4896-23.3984-16.9984-34.8672-45.2096-30.0032-73.728l11.8784-69.12-50.2272-48.9472c-20.6848-20.1728-28.0064-49.7664-19.0464-77.2608 8.9088-27.4944 32.256-47.1552 60.8256-51.3024l69.4272-10.0864 31.0272-62.8736c12.8-25.9072 38.7072-42.0352 67.584-42.0352s54.784 16.0768 67.584 41.984l31.0272 62.8736 69.4272 10.0864c28.6208 4.1472 51.9168 23.808 60.8256 51.3024 8.96 27.5456 1.6384 57.1392-19.0464 77.312z" fill="#FF8E12" ></path><path d="M845.4144 260.3008h-322.048c-17.3568 0-33.6384-8.4992-43.5712-22.784L421.9904 161.28a53.00736 53.00736 0 0 0-43.5712-22.784H192.3584c-58.7776 0-106.4448 47.6672-106.4448 106.4448v538.5216c0 58.7776 47.6672 106.4448 106.4448 106.4448h399.2576c204.544-108.1344 343.9104-322.9696 343.9104-570.4192 0-1.4336-0.0512-2.8672-0.0512-4.3008-18.8416-32-52.0704-54.8864-90.0608-54.8864z m-116.736 341.9136l-50.2272 48.9472 11.8784 69.12c4.864 28.4672-6.6048 56.7296-30.0032 73.728-23.3984 16.9984-53.8112 19.2-79.36 5.7344l-62.1056-32.6144-62.1056 32.6144a75.44832 75.44832 0 0 1-35.1232 8.7552c-15.5648 0-31.0272-4.864-44.2368-14.4896-23.3984-16.9984-34.8672-45.2096-30.0032-73.728l11.8784-69.12-50.2272-48.9472c-20.6848-20.1728-28.0064-49.7664-19.0464-77.2608 8.9088-27.4944 32.256-47.1552 60.8256-51.3024l69.4272-10.0864 31.0272-62.8736c12.8-25.9072 38.7072-42.0352 67.584-42.0352s54.784 16.0768 67.584 41.984l31.0272 62.8736 69.4272 10.0864c28.6208 4.1472 51.9168 23.808 60.8256 51.3024 8.96 27.5456 1.6384 57.1392-19.0464 77.312z" fill="#FCA315" ></path><path d="M479.7952 237.5168L421.9904 161.28a53.00736 53.00736 0 0 0-43.5712-22.784H192.3584c-58.7776 0-106.4448 47.6672-106.4448 106.4448v489.728c9.3696 0.4096 18.8416 0.6656 28.3136 0.6656 84.224 0 164.6592-16.1792 238.4384-45.5168l6.656-38.656-50.2272-48.9472c-20.6848-20.1728-28.0064-49.7664-19.0464-77.2608 8.9088-27.4944 32.256-47.1552 60.8256-51.3024l69.4272-10.0864 31.0272-62.8736c12.8-25.9072 38.7072-42.0352 67.584-42.0352s54.784 16.0768 67.584 41.984l31.0272 62.8736 20.6336 3.0208a642.35008 642.35008 0 0 0 98.3552-206.2336h-213.0944c-17.408 0-33.6896-8.4992-43.6224-22.784z" fill="#FCB138" ></path><path d="M544.1024 504.8832l-25.2416-51.1488-25.2416 51.1488a75.264 75.264 0 0 1-56.7296 41.216l-56.4736 8.192 40.8576 39.8336a75.1616 75.1616 0 0 1 22.5792 50.688c49.2544-29.3376 94.3104-65.0752 133.9392-106.0864-14.3872-7.2704-26.3168-18.944-33.6896-33.8432z" fill="#FCB138" ></path><path d="M478.1056 235.3152L421.9904 161.28a53.00736 53.00736 0 0 0-43.5712-22.784H192.3584c-58.7776 0-106.4448 47.6672-106.4448 106.4448v248.2176c161.1264-33.9968 300.032-128.1024 392.192-257.8432z" fill="#FFC65E" ></path></svg>