<?xml version="1.0" standalone="no"?><!DOCTYPE svg PUBLIC "-//W3C//DTD SVG 1.1//EN" "http://www.w3.org/Graphics/SVG/1.1/DTD/svg11.dtd"><svg class="icon" width="66px" height="66.00px" viewBox="0 0 1024 1024" version="1.1" xmlns="http://www.w3.org/2000/svg"><path d="M124.114 847.526c84.956-28.82 244.71-66.246 378.316-1.588a21.994 21.994 0 0 0 19.14 0c133.606-64.66 293.36-27.23 378.316 1.588C928.294 857.16 960 836.402 960 806.412V361.22c0-24.242-14.234-46.536-37.326-53.946-120.92-38.804-290.346-35.284-402.468 10.566a21.628 21.628 0 0 1-16.412 0c-112.122-45.85-281.548-49.37-402.468-10.566C78.234 314.684 64 336.98 64 361.22v445.192c0 29.99 31.706 50.748 60.114 41.114z" fill="#FCBF28" /><path d="M858.18 686.034c0 12.166-10.668 21.584-22.786 20.48-154.824-14.14-217.524 19.666-304.538 71.844-11.77 7.058-26.228 7.576-38.976 2.478-103-41.222-251.53-42.47-357.28-3.738-14.112 5.164-29.872-4.846-29.872-19.862V285.79c0-15.63 8.858-30.064 23.438-35.72 106.094-41.192 258.598-40.754 363.714 1.31 12.748 5.1 27.206 4.58 38.976-2.478 84.632-50.732 146.252-83.888 292.016-69.54 20.24 1.994 35.31 19.354 35.31 39.708v466.964z" fill="#FCDA6E" /><path d="M491.636 251.28l0.244 0.1c12.748 5.1 27.206 4.58 38.976-2.478 0.51-0.3 1-0.602 1.508-0.904v529.454c-0.51 0.3-1 0.6-1.508 0.906-11.77 7.058-26.228 7.576-38.976 2.478l-0.244-0.1V251.28zM212.92 463.842c-13.38 3.14-26.74-6.672-26.74-20.42V423c0-13.35 8.636-25.272 21.608-28.498 64.736-16.12 136.416-16.12 201.152 0 12.972 3.226 21.606 15.148 21.606 28.498v20.422c0 13.748-13.36 23.56-26.738 20.42-61.66-14.464-129.228-14.464-190.888 0zM212.92 626.752c-13.38 3.14-26.74-6.674-26.74-20.42v-20.424c0-13.35 8.636-25.27 21.608-28.496 64.736-16.122 136.416-16.122 201.152 0 12.972 3.226 21.606 15.146 21.606 28.496v20.424c0 13.746-13.36 23.56-26.738 20.42-61.66-14.464-129.228-14.464-190.888 0z" fill="#FFFFFF" /></svg>