<svg viewBox="0 0 1024 1024" version="1.1" xmlns="http://www.w3.org/2000/svg"><path d="M897.9968 561.5616c-6.5536-153.1392-139.4176-314.0096-334.592-216.064-6.1952-79.0016 39.7312-133.7856 73.5744-163.0208 19.456-16.7936 25.6-44.2368 15.2064-67.7376-15.5648-35.1232-60.2624-45.9776-90.0608-21.7088-28.3648 23.0912-59.4944 53.1456-76.8512 84.6336-30.4128-56.064-103.8336-125.2864-276.992-76.032 7.4752 129.9968 151.8592 182.272 248.4224 160.512-3.84 23.0912-5.5296 48.896-4.1472 77.9264-37.12-16.128-91.4944-29.44-162.3552-20.0704-145.1008 19.3024-175.5136 204.9536-166.4 299.3152 9.1136 94.3616 110.592 346.9824 389.632 346.9824s391.6288-238.336 384.5632-404.736zM333.1072 475.5456c-1.9456 3.2256-38.4 64.8704-20.224 154.368 4.5056 22.0672-6.144 45.312-26.7264 54.5792-6.7072 3.0208-13.6704 4.4544-20.3776 4.4544-22.3744 0-42.4448-15.6672-47.2064-38.4512-26.9824-130.304 30.464-222.5664 32.9216-226.4576 14.2848-22.4768 44.1344-29.0816 66.6112-14.7968 22.3744 14.2336 29.0816 43.8272 15.0016 66.304z" fill="#05C46D" ></path><path d="M874.7008 459.3152c-46.7968-110.5408-160.4096-189.5936-311.3472-113.8176-6.1952-79.0016 39.7312-133.7856 73.5744-163.0208 19.456-16.7936 25.6-44.2368 15.2064-67.7376-15.5648-35.1232-60.2624-45.9776-90.0608-21.7088-28.3648 23.0912-59.4944 53.1456-76.8512 84.6336-30.4128-56.064-103.8336-125.2864-276.992-76.032 7.4752 129.9968 151.8592 182.272 248.4224 160.512-3.84 23.0912-5.5296 48.896-4.1472 77.9264-37.12-16.128-91.4944-29.44-162.3552-20.0704-145.1008 19.3024-175.5136 204.9536-166.4 299.3152 6.0416 62.4128 52.5312 193.9968 163.9424 275.968 13.7728 1.024 27.648 1.6896 41.6256 1.6896 267.0592 0.1024 490.1888-187.2896 545.3824-437.6576zM333.1072 475.5456c-1.9456 3.2256-38.4 64.8704-20.224 154.368 4.5056 22.0672-6.144 45.312-26.7264 54.5792-6.7072 3.0208-13.6704 4.4544-20.3776 4.4544-22.3744 0-42.4448-15.6672-47.2064-38.4512-26.9824-130.304 30.464-222.5664 32.9216-226.4576 14.2848-22.4768 44.1344-29.0816 66.6112-14.7968 22.3744 14.2336 29.0816 43.8272 15.0016 66.304z" fill="#1DCE75" ></path><path d="M706.2016 317.5936c-42.2912-5.9392-90.2656 1.536-142.848 27.904-6.1952-79.0016 39.7312-133.7856 73.5744-163.0208 19.456-16.7936 25.6-44.2368 15.2064-67.7376-15.5648-35.1232-60.2624-45.9776-90.0608-21.7088-28.3648 23.0912-59.4944 53.1456-76.8512 84.6336-30.4128-56.064-103.8336-125.2864-276.992-76.032 7.4752 129.9968 151.8592 182.272 248.4224 160.512-3.84 23.0912-5.5296 48.896-4.1472 77.9264-37.12-16.128-91.4944-29.44-162.3552-20.0704-145.1008 19.3024-175.5136 204.9536-166.4 299.3152 1.9456 20.1728 8.192 47.616 19.4048 78.2336 11.0592 0.6656 22.1696 1.0752 33.4336 1.0752 246.4768 0.0512 455.4752-159.5904 529.6128-381.0304zM333.1072 475.5456c-1.9456 3.2256-38.4 64.8704-20.224 154.368 4.5056 22.0672-6.144 45.312-26.7264 54.5792-6.7072 3.0208-13.6704 4.4544-20.3776 4.4544-22.3744 0-42.4448-15.6672-47.2064-38.4512-26.9824-130.304 30.464-222.5664 32.9216-226.4576 14.2848-22.4768 44.1344-29.0816 66.6112-14.7968 22.3744 14.2336 29.0816 43.8272 15.0016 66.304z" fill="#3CD38E" ></path><path d="M435.0464 333.2608c-35.9936-12.6976-84.3776-21.248-144.8448-13.2096-92.2624 12.288-138.1376 91.8016-156.9792 172.3904 34.048-5.9904 67.072-14.9504 98.7136-26.7776 9.3696-25.2416 18.6368-40.0896 19.6096-41.6256 14.2848-22.4768 44.1344-29.0816 66.6112-14.7968 4.0448 2.56 7.5264 5.632 10.496 9.0624a560.0768 560.0768 0 0 0 106.3936-85.0432zM562.1248 93.0304c-28.3648 23.0912-59.4944 53.1456-76.8512 84.6336-30.4128-56.064-103.8336-125.2864-276.992-76.032 7.4752 129.9968 151.8592 182.272 248.4224 160.512-2.7136 16.1792-4.2496 33.792-4.5056 52.8384 58.1632-64.9216 101.376-143.5648 124.16-230.4512-4.9664 2.1504-9.7792 4.864-14.2336 8.4992z" fill="#48E1AA" ></path></svg>