<svg viewBox="0 0 1024 1024" version="1.1" xmlns="http://www.w3.org/2000/svg"><path d="M317.4912 142.3872H198.5024c-22.016 0-39.8848 17.8688-39.8848 39.8848v651.4688c0 22.016 17.8688 39.8848 39.8848 39.8848h118.9888c22.016 0 39.8848-17.8688 39.8848-39.8848V182.272c0-22.016-17.8688-39.8848-39.8848-39.8848z m-59.4944 684.032c-20.992 0-38.0416-17.0496-38.0416-38.0416s17.0496-38.0416 38.0416-38.0416 38.0416 17.0496 38.0416 38.0416-16.9984 38.0416-38.0416 38.0416z" fill="#757BF2" ></path><path d="M891.4944 798.1568L791.9104 212.1216a39.85408 39.85408 0 0 0-45.9776-32.6144l-117.2992 19.9168a39.84896 39.84896 0 0 0-31.8464 29.184V182.272c0-22.016-17.8688-39.8848-39.8848-39.8848H437.8624c-22.016 0-39.8848 17.8688-39.8848 39.8848v651.4688c0 22.016 17.8688 39.8848 39.8848 39.8848h118.9888c22.016 0 39.8848-17.8688 39.8848-39.8848V249.9584l98.816 581.4784a39.85408 39.85408 0 0 0 45.9776 32.6144l117.2992-19.9168c21.7088-3.6864 36.352-24.2688 32.6656-45.9776z m-394.1376 28.2624c-20.992 0-38.0416-17.0496-38.0416-38.0416s17.0496-38.0416 38.0416-38.0416 38.0416 17.0496 38.0416 38.0416-17.0496 38.0416-38.0416 38.0416z m295.0656-18.0736c-21.1456 3.584-41.1648-10.5984-44.7488-31.744a38.76864 38.76864 0 0 1 31.744-44.7488 38.8096 38.8096 0 0 1 44.7488 31.744 38.8096 38.8096 0 0 1-31.744 44.7488z" fill="#6C6CEA" ></path><path d="M791.9104 212.1216a39.85408 39.85408 0 0 0-45.9776-32.6144l-117.2992 19.9168a39.84896 39.84896 0 0 0-31.8464 29.184V182.272c0-22.016-17.8688-39.8848-39.8848-39.8848H437.8624c-22.016 0-39.8848 17.8688-39.8848 39.8848v651.4688c0 22.016 17.8688 39.8848 39.8848 39.8848h24.3712c47.872-17.2032 92.9792-40.1408 134.5024-67.9936V249.9584l83.0464 488.704c71.936-69.0176 127.0784-155.392 158.72-252.3648l-46.592-274.176zM497.3568 826.4192c-20.992 0-38.0416-17.0496-38.0416-38.0416s17.0496-38.0416 38.0416-38.0416 38.0416 17.0496 38.0416 38.0416-17.0496 38.0416-38.0416 38.0416z" fill="#757BF2" ></path><path d="M317.4912 142.3872H198.5024c-22.016 0-39.8848 17.8688-39.8848 39.8848v505.088c70.6048-8.192 137.5232-28.416 198.7584-58.4704V182.272c0-22.016-17.8688-39.8848-39.8848-39.8848zM628.5824 199.4752a39.84896 39.84896 0 0 0-31.8464 29.184V182.272c0-22.016-17.8688-39.8848-39.8848-39.8848H437.8624c-22.016 0-39.8848 17.8688-39.8848 39.8848v424.704c79.4624-46.7968 147.456-110.9504 198.7584-187.2384V249.9584l22.6816 133.376a610.16576 610.16576 0 0 0 71.3216-194.4576l-62.1568 10.5984z" fill="#8486F8" ></path><path d="M317.4912 142.3872H198.5024c-22.016 0-39.8848 17.8688-39.8848 39.8848v249.0368c74.496-29.5424 141.8752-73.2672 198.7584-127.7952V182.272c0-22.016-17.8688-39.8848-39.8848-39.8848zM397.9776 182.272v78.3872c31.0272-36.0448 57.9072-75.6736 79.9232-118.272h-40.0896c-21.9648 0-39.8336 17.8688-39.8336 39.8848z" fill="#8D92F8" ></path></svg>