<svg viewBox="0 0 1024 1024" version="1.1" xmlns="http://www.w3.org/2000/svg"><path d="M893.44 828.6208l-110.8992-114.944c48.896-63.5904 77.9776-143.1552 77.9776-229.5808 0-208.2816-168.8576-377.1392-377.1392-377.1392S106.24 275.8144 106.24 484.096s168.8576 377.1392 377.1392 377.1392c89.856 0 172.2368-31.5392 237.056-84.0192l109.1072 113.1008a44.32384 44.32384 0 0 0 31.9488 13.568c11.1104 0 22.2208-4.1472 30.8224-12.4416 17.664-17.0496 18.1248-45.1584 1.1264-62.8224zM485.632 729.6h-1.4848c-145.9712 0-217.1904-111.0016-234.496-169.9328-5.9392-20.1728 5.632-41.3184 25.8048-47.2576a38.02624 38.02624 0 0 1 47.2064 25.6c1.5872 5.12 37.0688 115.4048 161.4848 115.4048h1.28c20.9408 0 37.9392 16.896 38.0928 37.888 0.1024 21.0432-16.8448 38.1952-37.888 38.2976z" fill="#2595E8" ></path><path d="M805.2736 324.3008c0-13.2096-0.6656-26.2656-1.5872-39.2704-66.56-106.9056-185.088-178.0736-320.3072-178.0736-208.2816 0-377.1392 168.8576-377.1392 377.1392 0 172.1856 115.456 317.3376 273.152 362.496 242.9952-49.6128 425.8816-264.6016 425.8816-522.2912zM275.456 512.4096a38.02624 38.02624 0 0 1 47.2064 25.6c1.5872 5.12 37.0688 115.4048 161.4848 115.4048h1.28c20.9408 0 37.9392 16.896 38.0928 37.888a38.0416 38.0416 0 0 1-37.888 38.2464h-1.4848c-145.9712 0-217.1904-111.0016-234.496-169.9328-5.9392-20.1216 5.5808-41.2672 25.8048-47.2064z" fill="#3A9CED" ></path><path d="M483.3792 106.9568c-208.2816 0-377.1392 168.8576-377.1392 377.1392 0 66.56 17.3056 129.024 47.5136 183.296 48.896-2.4576 96-11.6736 140.544-26.4704-23.5008-28.6208-38.0416-58.7264-44.6464-81.2544-5.9392-20.1728 5.632-41.3184 25.8048-47.2576a38.02624 38.02624 0 0 1 47.2064 25.6c0.9216 2.9184 12.9024 40.192 46.2336 71.6288 168.1408-86.0672 284.4672-258.7648 290.1504-459.264-52.48-27.6992-112.2304-43.4176-175.6672-43.4176z" fill="#59ADF8" ></path><path d="M106.6496 466.9952c186.7264-40.8576 336.896-179.456 393.8816-359.6288-5.6832-0.256-11.4176-0.4096-17.2032-0.4096-202.496 0-367.7184 159.6928-376.6784 360.0384z" fill="#6BC2FC" ></path></svg>