<svg viewBox="0 0 1024 1024" version="1.1" xmlns="http://www.w3.org/2000/svg"><path d="M512.256 879.1552c-88.6784 0-177.408 0.4608-266.0864-0.1536-82.5856-0.5632-151.8592-52.736-172.544-128.6656-26.88-98.7648 42.2912-199.8336 146.5856-213.248 19.3024-2.4576 38.9632-2.2528 58.4704-2.3552 8.704-0.0512 12.0832-2.816 13.6192-11.52 20.5312-115.5584 115.968-198.656 230.4-210.944 144.896-15.5648 270.4896 81.0496 291.6864 216.4224 1.792 11.5712 9.1136 11.52 16.3328 13.6192 78.5408 22.5792 129.5872 93.2864 126.0544 174.6944-3.3792 77.5168-68.352 148.7872-145.5616 159.232-13.824 1.8432-27.904 2.7648-41.8816 2.7648-85.6576 0.3072-171.3664 0.1536-257.0752 0.1536z" fill="#2595E8" ></path><path d="M92.5184 529.7152c-4.1472-6.2976-8.3456-11.2128-10.9056-16.896-38.0416-83.712-30.976-198.656 36.864-271.8208 54.1696-58.368 122.9824-82.7392 200.8064-82.432 55.5008 0.256 108.288 13.2096 154.2656 46.4384 15.5136 11.2128 28.3136 24.9856 35.8912 44.288-131.2256 24.4736-232.0384 83.968-267.4688 222.6176-56.0128-0.1536-106.1376 16.128-149.4528 57.8048z" fill="#59ADF8" ></path><path d="M819.0464 537.9584c-2.2016-1.792-3.84-4.5056-4.5568-9.216-21.1456-135.3728-146.7904-232.0384-291.6864-216.4224-114.432 12.288-209.8688 95.3856-230.4 210.944-1.536 8.704-4.9152 11.4688-13.6192 11.52-19.5072 0.1024-39.2192-0.1024-58.4704 2.3552-104.2944 13.3632-173.4656 114.4832-146.5856 213.248 20.6848 75.9296 89.9072 128.1536 172.544 128.6656 88.6784 0.5632 177.408 0.1536 266.0864 0.1536h10.1376c136.2944-73.0112 242.8416-194.4064 296.5504-341.248z" fill="#3A9CED" ></path><path d="M641.1776 325.0688c-36.5056-12.3904-76.6464-17.2544-118.3744-12.7488-114.432 12.288-209.8688 95.3856-230.4 210.944-1.536 8.704-4.9152 11.4688-13.6192 11.52-19.5072 0.1024-39.2192-0.1024-58.4704 2.3552-96.6144 12.3904-163.0208 100.0448-150.9376 191.4368 260.7104-7.6288 481.9456-172.7488 571.8016-403.5072z" fill="#59ADF8" ></path><path d="M118.528 241.0496C59.3408 304.7936 46.4384 400.3328 69.2736 479.2832c86.528-25.2928 165.376-68.5568 232.2944-125.44 12.2368-14.1312 25.856-26.6752 40.6528-37.7856 38.4-38.912 71.7824-82.7392 99.1232-130.4576-37.7856-18.8928-79.104-26.7776-122.0608-26.9312-77.7728-0.3584-146.5856 24.0128-200.7552 82.3808z" fill="#6BC2FC" ></path></svg>