<svg viewBox="0 0 1024 1024" version="1.1" xmlns="http://www.w3.org/2000/svg"><path d="M153.2928 692.1216c-17.92-3.1232-29.5936-11.1616-36.9152-25.9584-7.5776-15.2576-4.9152-29.6448 5.4272-42.0864 8.704-10.5472 18.432-20.4288 28.7744-29.3376 16.5888-14.2848 40.7552-12.6976 55.2448 2.4064 15.7696 16.4352 16.1792 39.168 0.4608 56.1152-8.3968 9.0624-16.896 18.3808-26.6752 25.8048-7.68 5.7344-17.4592 8.8064-26.3168 13.056z" fill="#59ADF8" ></path><path d="M99.9936 401.4592c15.8208-0.5632 32.6144-0.8192 45.056 13.9776 9.984 11.8784 12.6976 25.1904 7.7824 39.6288-5.3248 15.6672-16.896 25.2416-33.0752 26.88-14.4384 1.4336-29.2352 1.536-43.6736 0.1024-21.8624-2.2016-36.9152-20.8896-35.7888-42.1376 1.0752-21.1968 17.8176-37.376 39.936-38.4 6.2464-0.3072 12.4416-0.0512 19.7632-0.0512zM196.608 315.5968c-2.2016-0.1536-4.4032-0.1536-6.6048-0.4608-20.1728-2.7136-56.8832-39.424-58.7776-59.6992-1.4848-16.2304 4.7616-29.5936 18.688-38.5024 15.0016-9.5744 31.1296-9.6768 44.6976 1.28 12.9536 10.4448 24.832 22.784 35.072 35.9424 9.3184 12.032 8.96 26.9312 1.3312 40.192-7.3728 12.9024-18.4832 21.3504-34.4064 21.248z" fill="#6BC2FC" ></path><path d="M584.0384 246.9888c0.3072 29.1328-39.1168 68.864-64.768 68.3008-15.2576-0.3072-27.3408-7.3728-34.7136-20.9408-8.448-15.616-6.9632-31.232 4.1472-44.7488 8.704-10.5984 18.432-20.5824 28.9792-29.2864 13.312-11.008 28.7744-13.568 44.7488-5.2736 14.2848 7.424 21.248 19.5584 21.6064 31.9488z" fill="#59ADF8" ></path><path d="M399.4624 197.12c0.9216 19.2512 1.1264 36.4032-14.336 49.2544-12.3392 10.24-26.3168 11.0592-40.1408 6.4512-14.3872-4.864-23.808-16.2816-25.1392-31.5904-1.3312-15.4112-1.3312-31.1296-0.0512-46.5408 1.5872-19.0464 20.3776-34.3552 39.7824-34.2528 20.1728 0.1024 38.0928 15.9744 39.7824 35.7888 0.6656 7.4752 0.1024 15.0528 0.1024 20.8896z" fill="#6BC2FC" ></path><path d="M991.4368 697.1904c-3.9424-74.9568-66.4576-146.0736-140.9024-154.88-20.1216-2.4064-40.4992-2.6112-60.7232-3.84-2.4576-134.2976-146.3296-211.6096-255.6928-146.6368-16.9472-22.4256-32.1536-45.9264-50.7904-66.2528-19.4048-21.1456-44.9536-34.5088-72.8064-42.3936-27.2896-7.68-55.1936-10.0352-82.9952-4.0448C252.5184 295.2704 202.1376 339.9168 184.32 414.72c-20.8384 87.5008 13.9264 154.0096 87.7056 203.3664-24.5248 41.3184-32.3072 84.8384-20.4288 130.2528 20.3776 77.824 84.6848 126.6688 165.376 126.8224 133.6832 0.256 267.3664-1.0752 401.0496 0.4608 102.1952 1.1776 178.432-83.3536 173.4144-178.432z m-220.5184 104.8576H456.96a44.032 44.032 0 0 1-44.032-44.032 44.032 44.032 0 0 1 44.032-44.032h314.0096a44.032 44.032 0 0 1 44.032 44.032c-0.0512 24.32-19.7632 44.032-44.0832 44.032z" fill="#2595E8" ></path><path d="M850.5344 542.3104c-20.1216-2.4064-40.4992-2.6112-60.7232-3.84-2.4576-134.2976-146.3296-211.6096-255.6928-146.6368-16.9472-22.4256-32.1536-45.9264-50.7904-66.2528-19.4048-21.1456-44.9536-34.5088-72.8064-42.3936-27.2896-7.68-55.1936-10.0352-82.9952-4.0448C252.5184 295.2704 202.1376 339.9168 184.32 414.72c-20.8384 87.5008 13.9264 154.0096 87.7056 203.3664-24.5248 41.3184-32.3072 84.8384-20.4288 130.2528 20.3776 77.824 84.6848 126.6688 165.376 126.8224 87.4496 0.1536 174.9504-0.3072 262.4-0.256 26.7776-22.1184 51.5584-46.5408 74.0864-72.9088H456.96a44.032 44.032 0 0 1-44.032-44.032 44.032 44.032 0 0 1 44.032-44.032h314.0096c14.1312 0 26.624 6.656 34.7136 16.9984a592.68608 592.68608 0 0 0 75.3152-181.3504c-9.8816-3.4816-20.0192-6.0416-30.464-7.2704z" fill="#3A9CED" ></path><path d="M702.8736 390.912c-50.0736-28.416-113.7664-31.7952-168.7552 0.8704-16.9472-22.4256-32.1536-45.9264-50.7904-66.2528-19.4048-21.1456-44.9536-34.5088-72.8064-42.3936-27.2896-7.68-55.1936-10.0352-82.9952-4.0448C252.5184 295.2704 202.1376 339.9168 184.32 414.72c-20.8384 87.5008 13.9264 154.0096 87.7056 203.3664-24.5248 41.3184-32.3072 84.8384-20.4288 130.2528 3.4816 13.2608 8.2944 25.6 14.1824 37.12 205.824-45.3632 371.6608-197.0688 437.0944-394.5472z" fill="#59ADF8" ></path><path d="M517.7344 220.3136c-10.5472 8.7552-20.2752 18.7392-28.9792 29.2864-11.1104 13.5168-12.5952 29.1328-4.1472 44.7488 2.5088 4.6592 5.632 8.4992 9.216 11.6224 18.7392-30.208 34.9184-62.208 48.0768-95.744-8.5504 0.512-16.6912 3.8912-24.1664 10.0864zM482.0992 324.3008c-19.2512-20.3776-44.2368-33.4336-71.5264-41.1136-27.2896-7.68-55.1936-10.0352-82.9952-4.0448C252.5184 295.2704 202.1376 339.9168 184.32 414.72c-12.288 51.6096-5.12 95.8464 17.8688 133.632C316.928 503.9104 414.4128 424.96 482.0992 324.3008z" fill="#6BC2FC" ></path></svg>