<svg viewBox="0 0 1024 1024" version="1.1" xmlns="http://www.w3.org/2000/svg"><path d="M718.9504 100.9664H309.76c-106.2912 0-192.512 86.1696-192.512 192.512v432.4864c0 106.2912 86.1696 192.512 192.512 192.512h409.1392c106.2912 0 192.512-86.1696 192.512-192.512V293.4784c0-106.2912-86.1696-192.512-192.4608-192.512z m-347.392 452.9664v154.9312c0 22.3744-18.1248 40.4992-40.4992 40.4992s-40.5504-18.1248-40.5504-40.4992v-158.1056c-22.016-14.1824-36.608-38.8608-36.608-67.0208s14.592-52.7872 36.608-67.0208V320.4096a40.4992 40.4992 0 0 1 40.5504-40.4992c22.3744 0 40.4992 18.1248 40.4992 40.4992v93.184c24.9344 13.4656 41.8304 39.8336 41.8304 70.144 0 30.3104-16.9472 56.6784-41.8304 70.1952z m178.3296 115.5584v39.3216c0 22.3744-18.1248 40.4992-40.4992 40.4992s-40.4992-18.1248-40.4992-40.4992v-42.496c-22.016-14.1824-36.608-38.8608-36.608-67.0208s14.592-52.7872 36.608-67.0208V320.4096c0-22.3744 18.1248-40.4992 40.4992-40.4992s40.4992 18.1248 40.4992 40.4992v208.7936c24.9344 13.4656 41.8304 39.8336 41.8304 70.144 0 30.3104-16.896 56.6784-41.8304 70.144z m185.088-115.5584v154.9312a40.4992 40.4992 0 0 1-40.5504 40.4992c-22.3744 0-40.4992-18.1248-40.4992-40.4992v-158.1056c-22.016-14.1824-36.608-38.8608-36.608-67.0208s14.592-52.7872 36.608-67.0208V320.4096c0-22.3744 18.1248-40.4992 40.4992-40.4992s40.5504 18.1248 40.5504 40.4992v93.184c24.9344 13.4656 41.8304 39.8336 41.8304 70.144 0 30.3104-16.9472 56.6784-41.8304 70.1952z" fill="#6C6CEA" ></path><path d="M718.9504 100.9664H309.76c-106.2912 0-192.512 86.1696-192.512 192.512v432.4864c0 106.2912 86.1696 192.512 192.512 192.512h46.2336c312.7296-36.4544 555.4176-302.1824 555.4176-624.6912v-0.512c-0.1536-106.24-86.272-192.3072-192.4608-192.3072z m-347.392 452.9664v154.9312c0 22.3744-18.1248 40.4992-40.4992 40.4992s-40.5504-18.1248-40.5504-40.4992v-158.1056c-22.016-14.1824-36.608-38.8608-36.608-67.0208s14.592-52.7872 36.608-67.0208V320.4096a40.4992 40.4992 0 0 1 40.5504-40.4992c22.3744 0 40.4992 18.1248 40.4992 40.4992v93.184c24.9344 13.4656 41.8304 39.8336 41.8304 70.144 0 30.3104-16.9472 56.6784-41.8304 70.1952z m178.3296 115.5584v39.3216c0 22.3744-18.1248 40.4992-40.4992 40.4992s-40.4992-18.1248-40.4992-40.4992v-42.496c-22.016-14.1824-36.608-38.8608-36.608-67.0208s14.592-52.7872 36.608-67.0208V320.4096c0-22.3744 18.1248-40.4992 40.4992-40.4992s40.4992 18.1248 40.4992 40.4992v208.7936c24.9344 13.4656 41.8304 39.8336 41.8304 70.144 0 30.3104-16.896 56.6784-41.8304 70.144z m185.088-115.5584v154.9312a40.4992 40.4992 0 0 1-40.5504 40.4992c-22.3744 0-40.4992-18.1248-40.4992-40.4992v-158.1056c-22.016-14.1824-36.608-38.8608-36.608-67.0208s14.592-52.7872 36.608-67.0208V320.4096c0-22.3744 18.1248-40.4992 40.4992-40.4992s40.5504 18.1248 40.5504 40.4992v93.184c24.9344 13.4656 41.8304 39.8336 41.8304 70.144 0 30.3104-16.9472 56.6784-41.8304 70.1952z" fill="#757BF2" ></path><path d="M309.76 100.9664c-106.2912 0-192.512 86.1696-192.512 192.512v405.8112c60.16-0.6656 118.2208-9.728 173.2096-26.112v-122.368c-22.016-14.1824-36.608-38.8608-36.608-67.0208s14.592-52.7872 36.608-67.0208V320.4096a40.4992 40.4992 0 0 1 40.5504-40.4992c22.3744 0 40.4992 18.1248 40.4992 40.4992v93.184c24.9344 13.4656 41.8304 39.8336 41.8304 70.144 0 30.3104-16.896 56.6784-41.8304 70.144v88.7808c21.1456-9.6768 41.6768-20.48 61.4912-32.3584-0.512-3.584-0.768-7.2704-0.768-11.008 0-28.1088 14.592-52.7872 36.608-67.0208V320.4096c0-22.3744 18.1248-40.4992 40.4992-40.4992s40.4992 18.1248 40.4992 40.4992v199.8336c40.3456-39.424 75.3664-84.1728 103.9872-133.1712V320.4096a40.48896 40.48896 0 0 1 49.3056-39.5264c20.0192-56.3712 32.256-116.4288 35.328-178.8928-6.4512-0.6656-13.0048-0.9728-19.6096-0.9728H309.76z" fill="#8486F8" ></path><path d="M290.5088 378.112V320.4096a40.4992 40.4992 0 0 1 40.5504-40.4992c21.0944 0 38.4512 16.1792 40.3456 36.7616 66.5088-59.4944 120.2688-132.9152 156.672-215.6544H309.76c-106.2912 0-192.512 86.1696-192.512 192.512v161.3312c62.1056-16.896 120.3712-42.9568 173.2608-76.7488z" fill="#8D92F8" ></path></svg>