<svg viewBox="0 0 1024 1024" version="1.1" xmlns="http://www.w3.org/2000/svg"><path d="M843.7248 332.9024C765.0304 80.64 439.1936 7.0656 259.4816 200.704c-107.776 116.1728-119.5008 299.0592-46.7456 423.0144 65.3312 111.3088 152.9344 203.776 248.1152 289.5872 40.4992 36.5056 64.6656 35.8912 105.8816-0.512 67.84-59.904 129.8432-125.44 185.2416-196.9664 58.7264-75.8272 109.5168-155.4432 106.1376-249.2416 4.608-50.8416-1.6896-92.928-14.3872-133.6832z m-333.4656 387.9424c-154.8288-0.3584-281.1904-129.024-280.3712-285.3888 0.8704-157.2864 129.2288-285.1328 284.7232-283.4944 157.4912 1.6384 282.6752 128.4096 282.3168 285.8496-0.3072 157.7472-127.6416 283.4432-286.6688 283.0336z" fill="#6C6CEA" ></path><path d="M546.2528 264.5504c-32.8192-1.024-65.6896-0.7168-98.5088-0.7168-34.8672 0-43.6736 8.6016-43.7248 43.1616-0.1024 97.28-0.0512 194.56 0 291.7888 0 5.12 0.256 10.2912 0.768 15.4112 1.6896 15.9232 11.3664 23.9104 26.6752 25.3952 21.1456 2.048 33.536-9.9328 34.0992-34.4576 0.6656-28.928 0.1536-57.9072 0.1536-90.6752 29.184 0 56.1664 1.28 82.9952-0.256 69.888-3.8912 122.624-58.7776 121.8048-125.2864-0.8192-69.12-53.4016-122.112-124.2624-124.3648z m-3.328 188.8768c-23.1936 0.4608-46.4384-0.1024-69.632-0.3584-1.792 0-3.5328-1.0752-6.3488-2.048V325.376c28.0576 0 54.4768-1.3824 80.6912 0.3072 35.8912 2.304 61.8496 31.1808 61.0304 64.9728-0.8704 34.9184-28.9792 62.0544-65.7408 62.7712z" fill="#757BF2" ></path><path d="M843.7248 332.9024C765.0304 80.64 439.1936 7.0656 259.4816 200.704c-107.776 116.1728-119.5008 299.0592-46.7456 423.0144 45.2608 77.056 101.1712 145.1008 162.9184 208.1792 222.9248-23.9104 408.1664-173.6704 483.2256-376.832 2.7136-45.7216-3.4304-84.5824-15.1552-122.1632z m-333.4656 387.9424c-154.8288-0.3584-281.1904-129.024-280.3712-285.3888 0.8704-157.2864 129.2288-285.1328 284.7232-283.4944 157.4912 1.6384 282.6752 128.4096 282.368 285.8496-0.3584 157.7472-127.6928 283.4432-286.72 283.0336z" fill="#757BF2" ></path><path d="M658.5856 336.128c-19.456-41.6768-61.0304-69.9392-112.2816-71.5776-32.8192-1.024-65.6896-0.7168-98.5088-0.7168-34.8672 0-43.6736 8.6016-43.7248 43.1616-0.1024 88.3712-0.0512 176.7424 0 265.0624 21.3504-10.1888 41.984-21.6576 61.7984-34.2528-0.0512-7.5776-0.0512-15.3088-0.0512-23.296 11.52 0 22.5792 0.2048 33.536 0.3072 29.5936-21.8624 56.9856-46.4896 81.92-73.4208-10.6496 7.3216-23.7568 11.776-38.2464 12.032-23.1936 0.4608-46.4384-0.1024-69.632-0.3584-1.792 0-3.5328-1.0752-6.3488-2.048V325.376c28.0576 0 54.4768-1.3824 80.6912 0.3584 35.8912 2.304 61.8496 31.1808 61.0304 64.9728-0.256 9.7792-2.7136 18.944-6.8096 27.0848 20.992-25.4464 40.0384-52.7872 56.6272-81.664z" fill="#8486F8" ></path><path d="M229.888 435.456c0.8704-157.2864 129.2288-285.1328 284.7232-283.4944 74.5472 0.768 141.824 29.5936 192 76.4416 7.1168-21.6064 13.0048-43.776 17.5616-66.4064-134.144-101.5296-336.5376-99.328-464.64 38.7584-107.776 116.1728-119.5008 299.0592-46.7456 423.0144 0.3584 0.6144 0.7168 1.1776 1.0752 1.792 26.112-2.6624 51.712-7.1168 76.6464-13.1584-38.1952-48.8448-60.9792-110.336-60.6208-176.9472z" fill="#8486F8" ></path><path d="M236.544 375.6544c27.0848-123.5456 133.9392-217.4464 262.2464-223.3856 12.3904-19.5072 23.6544-39.7824 33.6896-60.7744-97.3824-5.888-197.9392 28.3136-272.9984 109.2096C207.872 256.3584 178.3296 327.2192 169.5232 399.6672c22.9376-6.656 45.312-14.6944 67.0208-24.0128z" fill="#8D92F8" ></path></svg>