<svg viewBox="0 0 1024 1024" version="1.1" xmlns="http://www.w3.org/2000/svg"><path d="M647.3216 945.408H371.7632c-21.4528 0-38.8608-17.408-38.8608-38.8608s17.408-38.8608 38.8608-38.8608h275.5584c21.4528 0 38.8608 17.408 38.8608 38.8608s-17.408 38.8608-38.8608 38.8608zM516.608 82.2272c-182.6816-5.9392-337.92 144.1792-337.92 326.9632 0 117.1968 61.696 219.9552 154.3168 277.7088v74.4448c0 31.232 25.2928 56.5248 56.5248 56.5248h238.08c31.232 0 56.5248-25.2928 56.5248-56.5248v-77.9776c89.5488-58.368 148.7872-159.3344 148.7872-274.176 0-177.1008-140.6464-321.28-316.3136-326.9632zM419.0208 300.3904c-1.0752 1.024-51.8144 50.176-54.6304 123.2384-0.8704 22.6816-19.5584 40.4992-42.0864 40.4992-0.5632 0-1.0752 0-1.6384-0.0512-23.2448-0.8704-41.3696-20.48-40.448-43.7248 4.1984-109.2608 78.336-178.8416 81.5104-181.76 17.1008-15.7696 43.7248-14.6944 59.5456 2.4064 15.6672 17.0496 14.6432 43.5712-2.2528 59.392z" fill="#F23D4F" ></path><path d="M791.808 313.7536c0-24.6272-1.8432-48.7936-5.2224-72.4992-55.3984-92.4672-155.2384-155.3408-269.9776-159.0784-182.6816-5.9392-337.92 144.1792-337.92 326.9632 0 117.1968 61.696 219.9552 154.3168 277.7088v74.4448c0 24.7296 15.872 45.6704 37.9904 53.3504 239.0016-41.5744 420.8128-249.9584 420.8128-500.8896z m-372.7872-13.3632c-1.0752 1.024-51.8144 50.176-54.6304 123.2384-0.8704 22.6816-19.5584 40.4992-42.0864 40.4992-0.5632 0-1.0752 0-1.6384-0.0512-23.2448-0.8704-41.3696-20.48-40.448-43.7248 4.1984-109.2608 78.336-178.8416 81.5104-181.76 17.1008-15.7696 43.7248-14.6944 59.5456 2.4064 15.6672 17.0496 14.6432 43.5712-2.2528 59.392z" fill="#FC4956" ></path><path d="M178.688 409.1392c0 84.0704 31.8464 160.6144 84.0192 218.5216 223.6416-53.4528 389.9904-254.5664 389.9904-494.592 0-5.5296-0.256-11.008-0.4096-16.4864a325.62176 325.62176 0 0 0-135.6288-34.4064C333.9264 76.288 178.688 226.3552 178.688 409.1392z m240.3328-108.7488c-1.0752 1.024-51.8144 50.176-54.6304 123.2384-0.8704 22.6816-19.5584 40.4992-42.0864 40.4992-0.5632 0-1.0752 0-1.6384-0.0512-23.2448-0.8704-41.3696-20.48-40.448-43.7248 4.1984-109.2608 78.336-178.8416 81.5104-181.76 17.1008-15.7696 43.7248-14.6944 59.5456 2.4064 15.6672 17.0496 14.6432 43.5712-2.2528 59.392z" fill="#FF5C64" ></path><path d="M361.728 238.592c17.1008-15.7696 43.7248-14.6944 59.5456 2.4064 2.8672 3.1232 5.1712 6.5536 6.912 10.1376 36.4032-50.2272 63.8976-107.3152 80.0256-169.0112-179.0464-1.0752-329.5232 147.0464-329.5232 327.0144 0 8.6016 0.4096 17.1008 1.0752 25.5488a506.63424 506.63424 0 0 0 104.2944-49.2544C300.0832 296.448 358.912 241.2032 361.728 238.592z" fill="#FF716E" ></path></svg>