<svg viewBox="0 0 1024 1024" version="1.1" xmlns="http://www.w3.org/2000/svg"><path d="M557.1072 938.0864H466.944c-34.304 0-62.0544-27.8016-62.0544-62.0544 0-34.304 27.8016-62.0544 62.0544-62.0544h90.1632c34.304 0 62.0544 27.8016 62.0544 62.0544 0 34.2528-27.8016 62.0544-62.0544 62.0544zM811.2128 572.6208h-25.5488V367.872c0-151.1424-122.5216-273.664-273.664-273.664S238.336 216.7296 238.336 367.872v204.6976h-25.5488c-56.7296 0-102.7072 45.9776-102.7072 102.7072 0 56.7296 45.9776 102.7072 102.7072 102.7072h598.4256c56.7296 0 102.7072-45.9776 102.7072-102.7072 0.0512-56.6784-45.9776-102.656-102.7072-102.656zM406.272 516.608a42.6496 42.6496 0 0 1-85.2992 0v-174.08a42.6496 42.6496 0 0 1 85.2992 0v174.08z" fill="#FC7032" ></path><path d="M785.664 572.6208V367.872c0-151.1424-122.5216-273.664-273.664-273.664S238.336 216.7296 238.336 367.872v204.6976h-25.5488c-56.7296 0-102.7072 45.9776-102.7072 102.7072 0 56.7296 45.9776 102.7072 102.7072 102.7072h391.424c83.968-49.7664 153.856-120.6784 202.3936-205.4656h-20.9408z m-379.392-56.0128a42.6496 42.6496 0 0 1-85.2992 0v-174.08a42.6496 42.6496 0 0 1 85.2992 0v174.08zM532.5312 813.9264H466.944c-24.4736 0-45.568 14.1824-55.6544 34.7648 42.1376-7.1168 82.7904-18.8928 121.2416-34.7648z" fill="#FF7E3E" ></path><path d="M112.2816 654.1312c16.7936 1.4848 33.792 2.304 50.9952 2.304 278.6304 0 509.952-202.2912 555.264-468.0192-50.176-57.7024-124.0576-94.208-206.4896-94.208-151.1424 0-273.664 122.5216-273.664 273.664v204.6976h-25.5488c-49.5104 0.0512-90.7776 34.9696-100.5568 81.5616zM320.9216 342.528a42.6496 42.6496 0 0 1 85.2992 0v174.08a42.6496 42.6496 0 0 1-85.2992 0v-174.08z" fill="#FF9552" ></path><path d="M320.9216 370.9952V342.528c0-23.552 19.0976-42.6496 42.6496-42.6496 12.9024 0 24.4736 5.7856 32.3072 14.848 66.4064-59.136 118.784-133.7344 151.3472-218.1632-11.5712-1.4848-23.296-2.3552-35.2256-2.3552-151.1424 0-273.664 122.5216-273.664 273.664v45.9776a558.0288 558.0288 0 0 0 82.5856-42.8544z" fill="#FFA56A" ></path></svg>