<svg viewBox="0 0 1024 1024" version="1.1" xmlns="http://www.w3.org/2000/svg"><path d="M941.1584 438.1184l-396.288-338.2272c-20.4288-17.408-51.3536-17.408-71.7824 0L76.8 438.1184c-36.6592 31.2832-13.3632 88.9856 35.8912 88.9856h88.8832v316.0576c0 48.64 41.5232 88.064 92.7232 88.064h429.3632c51.2 0 92.7232-39.424 92.7232-88.064v-316.0576h88.8832c49.2544 0.0512 72.5504-57.7024 35.8912-88.9856z m-302.7456 231.8848c24.1664 0 43.776 18.6368 43.776 41.5744s-19.6096 41.5744-43.776 41.5744H556.032v41.0624c0 22.9888-19.6096 41.5744-43.776 41.5744-24.1664 0-43.776-18.6368-43.776-41.5744v-41.0624H386.048c-24.1664 0-43.776-18.6368-43.776-41.5744s19.6096-41.5744 43.776-41.5744h82.3808v-26.8288H386.048c-24.1664 0-43.776-18.6368-43.776-41.5744s19.6096-41.5744 43.776-41.5744h40.9088l-56.832-67.7376c-15.0528-17.9712-11.9808-44.1344 6.9632-58.4704 18.8928-14.336 46.4384-11.3664 61.4912 6.6048l72.192 86.0672 72.0384-89.2416c14.6944-18.2272 42.1888-21.6576 61.3888-7.68 19.2 13.9776 22.784 40.0896 8.0896 58.3168l-58.1632 72.0384h44.2368c24.1664 0 43.776 18.6368 43.776 41.5744s-19.6096 41.5744-43.776 41.5744h-82.3808v26.8288h82.432z" fill="#6C6CEA" ></path><path d="M544.8704 99.8912c-20.4288-17.408-51.3536-17.408-71.7824 0L76.8 438.1184c-36.6592 31.2832-13.3632 88.9856 35.8912 88.9856h88.8832v316.0576c0 14.5408 3.7376 28.16 10.2912 40.2432 37.888 8.192 77.1584 12.6464 117.4528 12.6464 210.944 0 394.1376-118.4256 487.0144-292.352v-76.5952H849.92c15.7696-44.8512 25.8048-92.3648 29.44-141.6704l-334.4896-285.5424z m93.5424 570.112c24.1664 0 43.776 18.6368 43.776 41.5744 0 22.9888-19.6096 41.5744-43.776 41.5744H556.032v41.0624c0 22.9888-19.6096 41.5744-43.776 41.5744-24.1664 0-43.776-18.6368-43.776-41.5744v-41.0624H386.048c-24.1664 0-43.776-18.6368-43.776-41.5744 0-22.9888 19.6096-41.5744 43.776-41.5744h82.3808v-26.8288H386.048c-24.1664 0-43.776-18.6368-43.776-41.5744s19.6096-41.5744 43.776-41.5744h40.9088l-56.832-67.7376c-15.0528-17.9712-11.9808-44.1344 6.9632-58.4704 18.8928-14.336 46.4384-11.3664 61.4912 6.6048l72.192 86.0672 72.0384-89.2416c14.6944-18.2272 42.1888-21.6576 61.3888-7.68 19.2 13.9776 22.784 40.0896 8.0896 58.3168l-58.1632 72.0384h44.2368c24.1664 0 43.776 18.6368 43.776 41.5744s-19.6096 41.5744-43.776 41.5744h-82.3808v26.8288h82.432z" fill="#757BF2" ></path><path d="M544.8704 99.8912c-20.4288-17.408-51.3536-17.408-71.7824 0L76.8 438.1184c-36.6592 31.2832-13.3632 88.9856 35.8912 88.9856h88.8832v172.4416c79.1552-3.2768 154.0096-23.1936 221.184-56.4224H386.048c-24.1664 0-43.776-18.6368-43.776-41.5744s19.6096-41.5744 43.776-41.5744h40.9088l-56.832-67.6864c-15.0528-17.9712-11.9808-44.1344 6.9632-58.4704 18.8928-14.336 46.4384-11.3664 61.4912 6.6048l72.192 86.0672 72.0384-89.2416c14.6944-18.2272 42.1888-21.6576 61.3888-7.68 2.2016 1.5872 4.1472 3.3792 5.9392 5.2224 33.9968-55.8592 58.2144-118.272 70.6048-184.8832l-175.872-150.016z" fill="#8486F8" ></path><path d="M473.088 99.8912L76.8 438.1184c-21.76 18.5856-22.272 46.4896-8.8064 66.048 234.8032-11.8784 430.848-170.5472 498.2784-386.048l-21.4016-18.2784c-20.3776-17.3568-51.3536-17.3568-71.7824 0.0512z" fill="#8D92F8" ></path></svg>