<svg viewBox="0 0 1024 1024" version="1.1" xmlns="http://www.w3.org/2000/svg"><path d="M426.24 428.544c93.9008-88.3712 106.752-238.4896 103.0144-339.3536-6.8608-0.3072-13.7728-0.512-20.736-0.512-233.0112 0-421.888 188.8768-421.888 421.888 0 9.8816 0.4608 19.6096 1.1264 29.3376 93.696 6.6048 232.2944-11.4176 338.4832-111.36z" fill="#FF5C64" ></path><path d="M538.7776 555.1616c102.0416-124.2624 260.6592-148.992 379.0848-147.0976-37.888-151.8592-158.0544-271.0528-310.4256-307.6608 2.4576 115.0464-16.7424 279.7056-128.1024 384.512C368.9472 588.8 230.8608 617.984 123.136 617.984c-7.7824 0-15.3088-0.1536-22.7328-0.4608 38.912 148.8384 157.0304 265.5744 306.688 302.5408 2.6112-94.9248 27.136-237.568 131.6864-364.9024z" fill="#F23D4F" ></path><path d="M598.6304 604.3136c-93.44 113.8176-112.6912 244.992-113.92 327.424 7.8848 0.4608 15.872 0.7168 23.8592 0.7168 233.0112 0 421.888-188.8768 421.888-421.888 0-8.1408-0.3072-16.1792-0.7168-24.1664-103.3728-3.4816-245.7088 13.9264-331.1104 117.9136z" fill="#F23D4F" ></path><path d="M607.4368 100.4544c2.4576 115.0464-16.7424 279.7056-128.1024 384.512-110.3872 103.8848-248.4736 133.0688-356.2496 133.0688-7.7824 0-15.3088-0.1536-22.7328-0.4608 38.912 148.8384 157.0304 265.5744 306.688 302.5408 2.6624-94.976 27.1872-237.6192 131.7376-364.9536 77.1072-93.9008 186.5216-130.9696 286.464-142.6432 1.9968-19.968 3.0208-40.2432 3.0208-60.7232 0-45.5168-5.0688-89.9072-14.6432-132.5568-55.04-57.5488-126.1568-99.584-206.1824-118.784z" fill="#FC4956" ></path><path d="M811.52 493.1584c-77.4656 12.3904-157.2864 43.4176-212.8896 111.1552-80.64 98.2016-105.984 209.3056-112.2304 290.9184 161.1264-77.4144 282.4704-224.4096 325.12-402.0736z" fill="#FC4956" ></path><path d="M663.3984 137.7792c0-6.656-0.1536-13.2096-0.3584-19.8144a417.59232 417.59232 0 0 0-55.6032-17.5104c2.4576 115.0464-16.7424 279.7056-128.1024 384.512-110.3872 103.8848-248.4736 133.0688-356.2496 133.0688-7.7824 0-15.3088-0.1536-22.7328-0.4608a420.1472 420.1472 0 0 0 50.1248 116.224c290.304-43.3664 512.9216-293.6832 512.9216-596.0192z" fill="#FF5C64" ></path><path d="M86.8864 500.5312c194.2528-59.8528 346.5728-215.2448 402.1248-411.3408-220.5696 10.0352-396.9024 189.4912-402.1248 411.3408z" fill="#FF716E" ></path></svg>