<svg viewBox="0 0 1024 1024" version="1.1" xmlns="http://www.w3.org/2000/svg"><path d="M857.088 881.1008H236.8c-59.2896 0-107.52-48.2304-107.52-107.52V154.624c0-19.6096 15.9232-35.5328 35.5328-35.5328s35.5328 15.9232 35.5328 35.5328v618.9568c0 20.0704 16.3328 36.4032 36.4032 36.4032H857.088c19.6096 0 35.5328 15.9232 35.5328 35.5328s-15.9232 35.584-35.5328 35.584z" fill="#6C6CEA" ></path><path d="M406.0672 766.8224H278.4768a16.6912 16.6912 0 0 1-16.6912-16.6912v-297.472c0-9.216 7.4752-16.6912 16.6912-16.6912h127.5904c9.216 0 16.6912 7.4752 16.6912 16.6912v297.472c0 9.216-7.4752 16.6912-16.6912 16.6912zM631.1424 766.8224H503.552a16.6912 16.6912 0 0 1-16.6912-16.6912V151.04c0-9.216 7.4752-16.6912 16.6912-16.6912h127.5904c9.216 0 16.6912 7.4752 16.6912 16.6912v599.1424c0 9.1648-7.4752 16.64-16.6912 16.64z" fill="#757BF2" ></path><path d="M856.2176 766.8224h-127.5904a16.6912 16.6912 0 0 1-16.6912-16.6912V230.1952c0-9.216 7.4752-16.6912 16.6912-16.6912h127.5904c9.216 0 16.6912 7.4752 16.6912 16.6912v519.936c0 9.216-7.4752 16.6912-16.6912 16.6912z" fill="#6C6CEA" ></path><path d="M690.688 809.984H236.8c-20.0704 0-36.4032-16.3328-36.4032-36.4032V154.624c0-19.6096-15.9232-35.5328-35.5328-35.5328s-35.5328 15.9232-35.5328 35.5328v618.9568c0 59.2896 48.2304 107.52 107.52 107.52h299.776c54.784-17.0496 106.4448-41.1136 154.0608-71.1168zM872.9088 237.824c0-13.4144-10.9056-24.32-24.32-24.32H736.256c-13.4144 0-24.32 10.9056-24.32 24.32v504.6784c0 13.4144 10.9056 24.32 24.32 24.32h15.0528c45.9776-36.8128 86.8864-79.6672 121.5488-127.3344V237.824z" fill="#757BF2" ></path><path d="M161.2288 677.2736c13.1584 0 26.2144-0.4096 39.168-1.1776V154.624c0-19.6096-15.9232-35.5328-35.5328-35.5328s-35.5328 15.9232-35.5328 35.5328v521.8816c10.5472 0.512 21.1456 0.768 31.8976 0.768zM398.4384 435.968H286.1568c-13.4144 0-24.32 10.9056-24.32 24.32v209.3568c56.32-8.6528 110.2848-24.4736 160.9728-46.4896V460.288a24.38656 24.38656 0 0 0-24.3712-24.32zM647.8336 461.824V158.6688c0-13.4144-10.9056-24.32-24.32-24.32H511.232c-13.4144 0-24.32 10.9056-24.32 24.32v432.384a659.75296 659.75296 0 0 0 160.9216-129.2288zM789.504 213.504h-53.1968c-13.4144 0-24.32 10.9056-24.32 24.32v140.9536c33.0752-50.688 59.3408-106.1888 77.5168-165.2736z" fill="#8486F8" ></path><path d="M200.3968 412.2112V154.624c0-19.6096-15.9232-35.5328-35.5328-35.5328s-35.5328 15.9232-35.5328 35.5328v276.5312c24.1664-5.0176 47.872-11.3664 71.0656-18.944zM512.9216 193.1776c14.7968-18.8416 28.5696-38.4512 41.2672-58.88h-42.9568c-13.4144 0-24.32 10.9056-24.32 24.32V224.256c8.96-10.0352 17.664-20.4288 26.0096-31.0784" fill="#8D92F8" ></path></svg>