<?xml version="1.0" standalone="no"?><!DOCTYPE svg PUBLIC "-//W3C//DTD SVG 1.1//EN" "http://www.w3.org/Graphics/SVG/1.1/DTD/svg11.dtd"><svg class="icon" width="66px" height="66.00px" viewBox="0 0 1024 1024" version="1.1" xmlns="http://www.w3.org/2000/svg"><path d="M936.416 583.5c6.856-3.036 12.612-8.01 14.904-15.148 3.816-11.9 8.68-35.604 8.68-79.152s-4.864-67.254-8.68-79.154c-2.292-7.138-8.048-12.11-14.904-15.146-28.8-12.74-112.36-47.954-187.24-62.5 0 0-13.176 13.44-13.176 156.8s13.176 156.8 13.176 156.8c74.88-14.548 158.44-49.762 187.24-62.5z" fill="#FFDA8F" /><path d="M441.768 887.348c-8.648 35.782-44.03 57.22-78.42 47.516l-95.658-26.992c-38.714-10.924-58.09-55.76-40.144-92.894l92.488-191.38 169.566 65.79-47.832 197.96z" fill="#FF934A" /><path d="M135.944 679.16c-30.048-4.164-55.886-23.12-61.57-53.718C68.98 596.4 64 552.462 64 489.2c0-63.262 4.98-107.2 10.374-136.244 5.684-30.596 31.522-49.554 61.57-53.716 111.754-15.482 394.126-65.656 593.878-196.592 49.92-32.722 112.016-16.678 120.852 43.478 10.39 70.72 19.726 179.72 19.726 343.074s-9.336 272.354-19.726 343.074c-8.836 60.154-70.934 76.2-120.854 43.478-199.75-130.938-482.122-181.11-593.876-196.594z" fill="#53B5FF" /><path d="M74.374 625.45c5.684 30.596 31.522 49.552 61.57 53.714a1940.54 1940.54 0 0 1 62.456 9.724V289.524a1940.54 1940.54 0 0 1-62.456 9.724c-30.048 4.16-55.886 23.12-61.57 53.714C68.98 382.006 64 425.944 64 489.206s4.98 107.202 10.374 136.244z" fill="#FFDA8F" /></svg>