<svg viewBox="0 0 1024 1024" version="1.1" xmlns="http://www.w3.org/2000/svg"><path d="M875.52 487.0144c-8.6528-45.568-43.4688-207.104-120.6784-324.1472-42.4448-70.2464-128.0512-104.8064-175.7696-50.4832-11.52 15.9232-38.1952 38.9632-74.4448 38.9632-36.2496 0-54.528-8.2432-72.0896-28.3648-16.896-19.3536-83.0464-87.4496-169.3696 39.8848-22.8352 33.6896-81.92 156.2624-128.256 326.6048a15.7696 15.7696 0 0 0 8.704 18.432c59.5968 27.136 112.2304 51.5584 112.2304 51.5584s-62.9248 351.1808 61.44 381.9008 187.2896-237.056 187.2896-237.056 36.5568 239.5136 187.2896 239.5136 61.44-390.4512 61.44-390.4512l112.9472-48.9472a15.744 15.744 0 0 0 9.2672-17.408z m-370.432 117.8112c-22.6304 0-40.96-18.3296-40.96-40.96s18.3296-40.96 40.96-40.96 40.96 18.3296 40.96 40.96-18.3296 40.96-40.96 40.96z m0-144.1792c-22.6304 0-40.96-18.3296-40.96-40.96s18.3296-40.96 40.96-40.96 40.96 18.3296 40.96 40.96-18.3296 40.96-40.96 40.96z" fill="#FF3369" ></path><path d="M579.0208 112.384c-11.52 15.9232-38.1952 38.9632-74.4448 38.9632-36.2496 0-54.528-8.2432-72.0896-28.3648-16.896-19.3536-83.0464-87.4496-169.3696 39.8848-22.784 33.6896-81.8688 156.2624-128.2048 326.6048a15.7696 15.7696 0 0 0 8.704 18.432c59.5968 27.136 112.2304 51.5584 112.2304 51.5584s-35.3792 197.4272-0.6656 309.1968c3.0208 0.0512 6.0416 0.1024 9.0624 0.1024 68.1984 0 133.4272-12.4416 193.6896-35.072 31.0272-62.8736 46.6432-129.3312 46.6432-129.3312s6.8608 44.6464 26.7264 95.3856c96.3584-53.6064 174.9504-135.2192 224.6656-233.9328-1.6384-7.936-2.6624-12.3904-2.6624-12.3904l10.9056-4.7104c32.3072-70.0416 50.3808-148.0704 50.3808-230.2976 0-14.5408-0.5632-28.928-1.6896-43.1616-15.9232-38.5536-35.1232-77.3632-58.112-112.2816-42.3936-70.2976-128-104.9088-175.7696-50.5856z m-73.9328 492.4416c-22.6304 0-40.96-18.3296-40.96-40.96s18.3296-40.96 40.96-40.96 40.96 18.3296 40.96 40.96-18.3296 40.96-40.96 40.96z m0-144.1792c-22.6304 0-40.96-18.3296-40.96-40.96s18.3296-40.96 40.96-40.96 40.96 18.3296 40.96 40.96-18.3296 40.96-40.96 40.96z" fill="#FF4D7C" ></path><path d="M579.0208 112.384c-11.52 15.9232-38.1952 38.9632-74.4448 38.9632-36.2496 0-54.528-8.2432-72.0896-28.3648-16.896-19.3536-83.0464-87.4496-169.3696 39.8848-22.784 33.6896-81.8688 156.2624-128.2048 326.6048a15.7696 15.7696 0 0 0 8.704 18.432c59.5968 27.136 112.2304 51.5584 112.2304 51.5584s-7.5264 42.0864-12.2368 98.3552c85.0944-20.5824 162.4576-60.928 226.9184-115.9168 4.096-6.4 9.8816-11.5712 16.7424-14.8992C596.0192 426.4448 664.064 282.624 664.064 122.88c0-11.3152-0.3584-22.528-1.0752-33.6896-30.72-8.192-61.4912-2.304-83.968 23.1936zM505.088 460.6464c-22.6304 0-40.96-18.3296-40.96-40.96s18.3296-40.96 40.96-40.96 40.96 18.3296 40.96 40.96-18.3296 40.96-40.96 40.96z" fill="#FF5F89" ></path><path d="M479.232 149.5552c-20.48-3.3792-33.792-11.7248-46.6944-26.5216-16.896-19.3536-83.0464-87.4496-169.3696 39.8848C242.0736 194.048 190.0544 301.056 145.7152 451.584c149.4528-48.6912 270.7968-159.5392 333.5168-302.0288z" fill="#FF7196" ></path></svg>