<svg viewBox="0 0 1024 1024" version="1.1" xmlns="http://www.w3.org/2000/svg"><path d="M764.416 97.4848H259.6352c-58.9312 0-106.752 47.7696-106.752 106.752v664.0128c0 40.1408 41.7792 66.6112 78.08 49.5104l235.1104-111.0016a106.7008 106.7008 0 0 1 91.0336-0.0512l235.9296 111.104c36.3008 17.1008 78.0288-9.3696 78.0288-49.5104V204.2368c0.0512-58.9312-47.7184-106.752-106.6496-106.752z m-92.7232 480.3584H352.3072a38.144 38.144 0 1 1 0-76.288h319.3856c21.0944 0 38.144 17.1008 38.144 38.144s-17.0496 38.144-38.144 38.144z m0-174.1312H352.3072a38.144 38.144 0 0 1-38.144-38.144 38.144 38.144 0 0 1 38.144-38.144h319.3856a38.144 38.144 0 0 1 38.144 38.144 38.144 38.144 0 0 1-38.144 38.144z" fill="#2595E8" ></path><path d="M871.1168 469.8112V204.2368c0-58.9312-47.7696-106.752-106.752-106.752H259.6352c-58.9312 0-106.752 47.7696-106.752 106.752v634.1632a635.2896 635.2896 0 0 0 135.8336 14.6432c31.9488 0 63.3344-2.4064 94.0032-6.9632l83.3536-39.3728c23.6032-11.1104 50.2272-13.0048 74.9056-5.9392 147.8144-64.1536 266.3424-182.9376 330.1376-330.9568z m-199.424 108.032H352.3072a38.144 38.144 0 1 1 0-76.288h319.3856c21.0944 0 38.144 17.1008 38.144 38.144s-17.0496 38.144-38.144 38.144z m0-174.1312H352.3072a38.144 38.144 0 0 1-38.144-38.144 38.144 38.144 0 0 1 38.144-38.144h319.3856a38.144 38.144 0 0 1 38.144 38.144 38.144 38.144 0 0 1-38.144 38.144z" fill="#3A9CED" ></path><path d="M362.5984 577.8432h-10.2912a38.144 38.144 0 1 1 0-76.288h142.848c38.1952-28.6208 73.0112-61.4912 103.8336-97.8432H352.3072a38.144 38.144 0 0 1-38.144-38.144 38.144 38.144 0 0 1 38.144-38.144h302.2336a630.49216 630.49216 0 0 0 86.272-229.888H259.6352c-58.9312 0-106.752 47.7696-106.752 106.752v422.5024c74.0352-4.352 144.64-21.3504 209.7152-48.9472z" fill="#59ADF8" ></path><path d="M498.4832 97.4848H259.6352c-58.9312 0-106.752 47.7696-106.752 106.752v168.0384c145.4592-47.5136 267.7248-146.176 345.6-274.7904z" fill="#6BC2FC" ></path></svg>