<svg viewBox="0 0 1024 1024" version="1.1" xmlns="http://www.w3.org/2000/svg"><path d="M747.7248 732.0064l-192.7168-102.0928 55.5008-79.3088a51.0208 51.0208 0 0 0 9.2672-29.3376v-153.088c0-102.0416-82.9952-185.0368-185.0368-185.0368S249.7536 266.1376 249.7536 368.1792v152.6784c0 11.0592 3.6864 22.016 10.3424 30.8224l57.4976 76.0832-208.7424 109.4656a51.00544 51.00544 0 0 0-27.392 45.312v54.3744c0 28.2112 22.9376 51.1488 51.1488 51.1488h591.2064c28.2112 0 51.1488-22.9376 51.1488-51.1488V777.216a51.11296 51.11296 0 0 0-27.2384-45.2096z" fill="#2595E8" ></path><path d="M927.1296 673.4848l-192.7168-102.0928 55.5008-79.3088a51.0208 51.0208 0 0 0 9.2672-29.3376v-153.088c0-102.0416-82.9952-185.0368-185.0368-185.0368-17.7152 0-32.0512 14.336-32.0512 32.0512s14.336 32.0512 32.0512 32.0512c66.6624 0 120.9344 54.2208 120.9344 120.9344v148.992l-61.5936 87.9616c-8.3968 11.9808-11.264 27.0848-7.8336 41.3184a51.2512 51.2512 0 0 0 25.8048 33.2288l198.7584 105.3184v38.9632h-27.2896c-17.7152 0-32.0512 14.336-32.0512 32.0512s14.336 32.0512 32.0512 32.0512h40.192c28.2112 0 51.1488-22.9376 51.1488-51.1488v-59.6992c0.0512-19.0464-10.3424-36.352-27.136-45.2096z" fill="#2595E8" ></path><path d="M555.008 629.9136l55.5008-79.3088a51.0208 51.0208 0 0 0 9.2672-29.3376v-153.088c0-102.0416-82.9952-185.0368-184.9856-185.0368-102.0416 0-185.0368 82.9952-185.0368 185.0368v152.6784c0 11.0592 3.6864 22.016 10.3424 30.8224l57.4976 76.0832-208.7424 109.4656a51.00544 51.00544 0 0 0-27.392 45.312v54.3744c0 28.2112 22.9376 51.1488 51.1488 51.1488h321.4336c101.7856-33.7408 191.1808-94.6176 259.584-174.08l-158.6176-84.0704z" fill="#3A9CED" ></path><path d="M619.776 411.5968v-43.4176c0-102.0416-82.9952-185.0368-184.9856-185.0368-102.0416 0-185.0368 82.9952-185.0368 185.0368v152.6784c0 11.0592 3.6864 22.016 10.3424 30.8224l57.4976 76.0832-151.0912 79.2064c194.7648-18.7904 361.6256-133.0176 453.2736-295.3728z" fill="#59ADF8" ></path><path d="M789.9136 492.032a51.0208 51.0208 0 0 0 9.2672-29.3376v-153.088c0-102.0416-82.9952-185.0368-185.0368-185.0368-17.7152 0-32.0512 14.336-32.0512 32.0512s14.336 32.0512 32.0512 32.0512c66.6624 0 120.9344 54.2208 120.9344 120.9344v148.992l-61.5936 87.9616c-8.3968 11.9808-11.264 27.0848-7.8336 41.3184a51.2512 51.2512 0 0 0 25.8048 33.2288l65.9968 34.9696c11.8272-17.7664 22.7328-36.1984 32.5632-55.296l-55.6544-29.4912 55.552-79.2576z" fill="#3A9CED" ></path><path d="M614.144 124.6208c-17.7152 0-32.0512 14.336-32.0512 32.0512s14.336 32.0512 32.0512 32.0512c27.904 0 53.5552 9.5744 74.0352 25.4976 3.584-23.296 5.7856-47.0016 6.5536-71.1168a184.09472 184.09472 0 0 0-80.5888-18.4832z" fill="#59ADF8" ></path><path d="M480.9216 188.9792a185.1904 185.1904 0 0 0-46.1312-5.8368c-102.0416 0-185.0368 82.9952-185.0368 185.0368v59.0336a588.37504 588.37504 0 0 0 231.168-238.2336z" fill="#6BC2FC" ></path></svg>