<svg viewBox="0 0 1024 1024" version="1.1" xmlns="http://www.w3.org/2000/svg"><path d="M677.1712 295.8848L476.3648 106.6496c-31.8464-30.0032-81.5616-29.952-113.3568 0.1024L162.8672 295.8848a82.70336 82.70336 0 0 0-25.856 60.0064v488.8064c0 45.6192 36.9664 82.5856 82.5856 82.5856h400.9472c45.6192 0 82.5856-36.9664 82.5856-82.5856V355.9936c0-22.784-9.3696-44.544-25.9584-60.1088zM422.0928 231.2704c26.1632 0 47.36 21.1968 47.36 47.36s-21.1968 47.36-47.36 47.36-47.36-21.1968-47.36-47.36 21.1968-47.36 47.36-47.36zM338.7904 767.1808l52.2752-151.1424H294.656L457.216 430.592l-10.3936 137.8304 86.3744 4.3008-194.4064 194.4576zM751.3088 471.6544l121.2928 239.5136c14.3872 28.416 3.7888 63.1808-24.0128 78.7456l-99.1232 55.4496 1.8432-373.7088z" fill="#FF8E12" ></path><path d="M476.3648 106.6496c-31.8464-30.0032-81.5616-29.952-113.3568 0.1024L162.8672 295.8848a82.70336 82.70336 0 0 0-25.856 60.0064v467.3536c57.8048 18.176 119.296 27.9552 183.1424 27.9552 145.0496 0 278.272-50.6368 382.976-135.168V355.9936c0-22.7328-9.3696-44.4928-25.9584-60.1088L476.3648 106.6496z m-54.272 124.6208c26.1632 0 47.36 21.1968 47.36 47.36s-21.1968 47.36-47.36 47.36-47.36-21.1968-47.36-47.36 21.1968-47.36 47.36-47.36zM338.7904 767.1808l52.2752-151.1424H294.656L457.216 430.592l-10.3936 137.8304 86.3744 4.3008-194.4064 194.4576zM750.336 673.8432c23.6544-23.5008 45.3632-48.896 64.8704-75.9808l-63.8976-126.208-0.9728 202.1888z" fill="#FCA315" ></path><path d="M677.1712 295.8848L476.3648 106.6496c-31.8464-30.0032-81.5616-29.952-113.3568 0.1024L162.8672 295.8848a82.70336 82.70336 0 0 0-25.856 60.0064v278.3744c5.376 0.1536 10.752 0.2048 16.1792 0.2048 51.5584 0 101.5808-6.4 149.3504-18.432h-7.8848L457.216 430.592l-9.6768 128.3072c102.912-56.7808 187.648-142.336 243.4048-245.9136-3.7888-6.1952-8.3456-12.032-13.7728-17.1008z m-255.0784 30.1568c-26.1632 0-47.36-21.1968-47.36-47.36s21.1968-47.36 47.36-47.36 47.36 21.1968 47.36 47.36-21.1968 47.36-47.36 47.36z" fill="#FCB138" ></path><path d="M363.008 106.7008L162.8672 295.8848a82.70336 82.70336 0 0 0-25.856 60.0064v47.0528a608.1024 608.1024 0 0 0 238.848-114.176c-0.7168-3.2768-1.1264-6.656-1.1264-10.1376 0-26.1632 21.1968-47.36 47.36-47.36 5.2224 0 10.24 0.8704 14.9504 2.4576a614.4 614.4 0 0 0 74.8032-93.6448l-35.4816-33.4336c-31.8464-30.0032-81.5616-30.0032-113.3568 0.0512z" fill="#FFC65E" ></path></svg>