<svg viewBox="0 0 1024 1024" version="1.1" xmlns="http://www.w3.org/2000/svg"><path d="M176.3328 856.064c0 33.8432 27.4432 61.3376 61.3376 61.3376h245.9136V544.256H176.3328v311.808z" fill="#FCA315" ></path><path d="M545.536 917.3504h245.9136c33.8432 0 61.3376-27.4432 61.3376-61.3376v-311.8592h-307.2512v373.1968zM884.736 300.2368h-104.96c8.7552-15.5136 15.4112-33.1264 17.3056-52.2752 2.304-23.3984-1.8944-58.5216-34.9184-93.184-39.9872-41.9328-80.5888-59.3408-120.6784-51.7632-46.4896 8.7552-87.3472 49.7152-128.6144 130.304-41.2672-80.5376-82.176-121.4976-128.6144-130.304-40.0896-7.5776-80.64 9.8304-120.6784 51.7632-33.024 34.6624-37.2224 69.7856-34.9184 93.184 1.8944 19.1488 8.5504 36.7616 17.3056 52.2752H144.3328c-34.048 0-61.6448 27.5968-61.6448 61.6448V421.888c0 34.048 27.5968 61.6448 61.6448 61.6448h339.2V362.5472h61.952v120.9856h339.2c34.048 0 61.6448-27.5968 61.6448-61.6448V361.8816c0.0512-34.048-27.5456-61.6448-61.5936-61.6448zM654.8992 174.08c14.4384-2.7648 32.9216 7.5776 54.9376 30.6176 15.2576 16.0256 16.0256 28.2624 15.3088 36.0448-2.0992 22.3232-22.784 45.7216-38.0416 59.4944h-126.208c46.08-102.1952 78.2336-123.1872 94.0032-126.1568z m-354.304 66.816c-0.768-7.8336-0.0512-20.1216 15.3088-36.1984 22.016-23.04 40.4992-33.3824 54.9376-30.6176 15.8208 2.9696 47.9232 24.0128 94.0032 126.208H338.6368c-14.7456-13.4656-35.84-36.864-38.0416-59.392z" fill="#FF8E12" ></path><path d="M797.0816 247.9616c2.304-23.3984-1.8944-58.5216-34.9184-93.184-39.9872-41.9328-80.5888-59.3408-120.6784-51.7632-46.4896 8.7552-87.3472 49.7152-128.6144 130.304-41.2672-80.5376-82.176-121.4976-128.6144-130.304-40.0896-7.5776-80.64 9.8304-120.6784 51.7632-33.024 34.6624-37.2224 69.7856-34.9184 93.184 1.8944 19.1488 8.5504 36.7616 17.3056 52.2752H144.3328c-34.048 0-61.6448 27.5968-61.6448 61.6448V421.888c0 34.048 27.5968 61.6448 61.6448 61.6448h339.2V362.5472h61.952v120.9856h308.992a603.87328 603.87328 0 0 0 7.68-183.296H779.776c8.7552-15.5136 15.4112-33.1264 17.3056-52.2752zM338.6368 300.2368c-14.7456-13.4144-35.7888-36.8128-38.0416-59.392-0.768-7.8336-0.0512-20.1216 15.3088-36.1984 22.016-23.04 40.4992-33.3824 54.9376-30.6176 15.8208 2.9696 47.9232 24.0128 94.0032 126.208H338.6368z m386.5088-59.4944c-2.0992 22.3232-22.784 45.7216-38.0416 59.4944h-126.208c46.08-102.1952 78.1824-123.2384 94.0032-126.208 14.4384-2.7648 32.9216 7.5776 54.9376 30.6176 15.2576 16.0256 16.0256 28.2624 15.3088 36.096zM545.536 897.4848c139.4176-73.472 246.4256-200.2432 293.7344-353.28h-293.7344v353.28z" fill="#FCA315" ></path><path d="M560.896 300.2368c46.08-102.1952 78.1824-123.2384 94.0032-126.208 10.752-2.048 23.7056 3.1744 38.656 15.4112 1.0752-14.5408 1.5872-29.184 1.5872-43.9808 0-12.8512-0.4608-25.6-1.2288-38.2464-17.5104-6.0928-35.072-7.5776-52.48-4.2496-46.4896 8.7552-87.3472 49.7152-128.6144 130.304-41.2672-80.5376-82.176-121.4976-128.6144-130.304-40.0896-7.5776-80.64 9.8304-120.6784 51.7632-33.024 34.6624-37.2224 69.7856-34.9184 93.184 1.8944 19.1488 8.5504 36.7616 17.3056 52.2752H144.3328c-34.048 0-61.6448 27.5968-61.6448 61.6448V421.888c0 34.048 27.5968 61.6448 61.6448 61.6448h339.2V362.5472h61.952v120.9856h45.2608a595.968 595.968 0 0 0 84.1728-183.296h-114.0224z m-222.2592 0c-14.7456-13.4144-35.7888-36.8128-38.0416-59.392-0.768-7.8336-0.0512-20.1216 15.3088-36.1984 22.016-23.04 40.4992-33.3824 54.9376-30.6176 15.8208 2.9696 47.9232 24.0128 94.0032 126.208H338.6368zM176.3328 739.4816c116.2752-15.616 222.0032-64.5632 307.2512-136.96v-58.3168H176.3328v195.2768z" fill="#FCB138" ></path><path d="M384.2048 103.0144c-40.0896-7.5776-80.64 9.8304-120.6784 51.7632-33.024 34.6624-37.2224 69.7856-34.9184 93.184 1.8944 19.1488 8.5504 36.7616 17.3056 52.2752H144.3328c-34.048 0-61.6448 27.5968-61.6448 61.6448V421.888c0 34.048 27.5968 61.6448 61.6448 61.6448h64.4608a601.1904 601.1904 0 0 0 223.5392-183.296h-93.696c-14.7456-13.4144-35.7888-36.8128-38.0416-59.392-0.768-7.8336-0.0512-20.1216 15.3088-36.1984 22.016-23.04 40.4992-33.3824 54.9376-30.6176 14.2336 2.7136 41.8304 20.0704 80.9472 98.6112 15.616-23.552 29.6448-48.2816 41.8304-74.0352-34.9184-57.7024-70.144-88.1664-109.4144-95.5904z" fill="#FFC65E" ></path></svg>