<svg viewBox="0 0 1024 1024" version="1.1" xmlns="http://www.w3.org/2000/svg"><path d="M775.7312 117.9648H253.6448c-72.448 0-131.1744 58.7264-131.1744 131.1744v522.0864c0 72.448 58.7264 131.1744 131.1744 131.1744h522.0864c72.448 0 131.1744-58.7264 131.1744-131.1744V249.1392c-0.0512-72.448-58.7264-131.1744-131.1744-131.1744z m-48.64 371.5072l-72.0384 70.2464a30.88896 30.88896 0 0 0-8.9088 27.4432l16.9984 99.1744c4.352 25.2928-22.2208 44.6464-44.9536 32.6656l-89.088-46.848a30.8736 30.8736 0 0 0-28.8256 0l-89.088 46.848c-22.7328 11.9296-49.3056-7.3728-44.9536-32.6656l16.9984-99.1744c1.7408-10.0352-1.5872-20.3264-8.9088-27.4432L302.2336 489.472c-18.3808-17.92-8.2432-49.152 17.152-52.8384l99.584-14.4896a31.0016 31.0016 0 0 0 23.3472-16.9472l44.544-90.2656c11.3664-23.04 44.2368-23.04 55.6032 0l44.544 90.2656a31.0016 31.0016 0 0 0 23.3472 16.9472l99.584 14.4896c25.3952 3.6864 35.584 34.9184 17.152 52.8384z" fill="#FC7032" ></path><path d="M906.8544 249.1392c0-72.448-58.7264-131.1744-131.1744-131.1744H253.6448c-72.448 0-131.1744 58.7264-131.1744 131.1744v522.0864c0 72.448 58.7264 131.1744 131.1744 131.1744h204.9536c225.2288-65.6384 399.3088-251.2896 448.3072-483.1232V249.1392zM727.0912 489.472l-72.0384 70.2464a30.88896 30.88896 0 0 0-8.9088 27.4432l16.9984 99.1744c4.352 25.2928-22.2208 44.6464-44.9536 32.6656l-89.088-46.848a30.8736 30.8736 0 0 0-28.8256 0l-89.088 46.848c-22.7328 11.9296-49.3056-7.3728-44.9536-32.6656l16.9984-99.1744c1.7408-10.0352-1.5872-20.3264-8.9088-27.4432L302.2336 489.472c-18.3808-17.92-8.2432-49.152 17.152-52.8384l99.584-14.4896a31.0016 31.0016 0 0 0 23.3472-16.9472l44.544-90.2656c11.3664-23.04 44.2368-23.04 55.6032 0l44.544 90.2656a31.0016 31.0016 0 0 0 23.3472 16.9472l99.584 14.4896c25.3952 3.6864 35.584 34.9184 17.152 52.8384z" fill="#FF7E3E" ></path><path d="M253.6448 117.9648c-72.448 0-131.1744 58.7264-131.1744 131.1744v450.4576c89.7536-2.6624 174.848-23.7568 251.6992-59.648l9.0624-52.7872c1.7408-10.0352-1.5872-20.3264-8.9088-27.4432L302.2336 489.472c-18.3808-17.92-8.2432-49.152 17.152-52.8384l99.584-14.4896a31.0016 31.0016 0 0 0 23.3472-16.9472l44.544-90.2656c11.3664-23.04 44.2368-23.04 55.6032 0l44.544 90.2656a31.0016 31.0016 0 0 0 23.3472 16.9472l19.456 2.816a639.02208 639.02208 0 0 0 112.5376-306.9952H253.6448z" fill="#FF9552" ></path><path d="M122.4704 249.1392v197.632c172.1344-50.4832 314.2144-171.0592 393.3184-328.7552h-262.144c-72.448-0.0512-131.1744 58.6752-131.1744 131.1232z" fill="#FFA56A" ></path></svg>