<svg viewBox="0 0 1024 1024" version="1.1" xmlns="http://www.w3.org/2000/svg"><path d="M870.2976 150.1184H170.1888c-39.1168 0-70.8096 31.6928-70.8096 70.8096v471.1424c0 39.1168 31.6928 70.8096 70.8096 70.8096h700.1088c39.1168 0 70.8096-31.6928 70.8096-70.8096V220.9792c0-39.168-31.6928-70.8608-70.8096-70.8608zM464.0768 407.04H412.7232v145.408c0 23.1424-18.7904 41.9328-41.9328 41.9328s-41.9328-18.7904-41.9328-41.9328V407.04H277.504c-23.1424 0-41.9328-18.7904-41.9328-41.9328s18.7904-41.9328 41.9328-41.9328h186.5728c23.1424 0 41.9328 18.7904 41.9328 41.9328s-18.7904 41.9328-41.9328 41.9328z m326.0416-22.3744l-98.816 187.3408a41.94304 41.94304 0 0 1-37.0688 22.3744h-0.5632a41.83552 41.83552 0 0 1-37.0176-23.3472l-92.672-187.3408c-10.2912-20.736-1.7408-45.9264 18.9952-56.1664 20.736-10.2912 45.9264-1.7408 56.1664 18.9952l56.2688 113.7664 60.5184-114.7392c10.8032-20.48 36.1984-28.3136 56.6784-17.5104 20.48 10.752 28.3136 36.1472 17.5104 56.6272zM679.168 893.44H370.7904c-24.9344 0-45.1584-20.224-45.1584-45.1584s20.224-45.1584 45.1584-45.1584h308.3776c24.9344 0 45.1584 20.224 45.1584 45.1584s-20.1728 45.1584-45.1584 45.1584z" fill="#FF8E12" ></path><path d="M941.1072 220.9792c0-39.1168-31.6928-70.8096-70.8096-70.8096H170.1888c-39.1168 0-70.8096 31.6928-70.8096 70.8096v471.1424c0 39.1168 31.6928 70.8096 70.8096 70.8096h459.2128c176.896-106.752 298.496-295.8336 311.7056-514.2016v-27.7504zM464.0768 407.04H412.7232v145.408c0 23.1424-18.7904 41.9328-41.9328 41.9328s-41.9328-18.7904-41.9328-41.9328V407.04H277.504c-23.1424 0-41.9328-18.7904-41.9328-41.9328s18.7904-41.9328 41.9328-41.9328h186.5728c23.1424 0 41.9328 18.7904 41.9328 41.9328s-18.7904 41.9328-41.9328 41.9328z m326.0416-22.3744l-98.816 187.3408a41.94304 41.94304 0 0 1-37.0688 22.3744h-0.5632a41.83552 41.83552 0 0 1-37.0176-23.3472l-92.672-187.3408a41.90208 41.90208 0 0 1 18.9952-56.1664c20.736-10.2912 45.9264-1.7408 56.1664 18.9952l56.2688 113.7664 60.5184-114.7392c10.8032-20.48 36.1984-28.3136 56.6784-17.5104 20.48 10.752 28.3136 36.1472 17.5104 56.6272zM370.7904 803.1232c-24.9344 0-45.1584 20.224-45.1584 45.1584 0 2.2016 0.2048 4.3008 0.512 6.4 79.5648-3.6352 155.392-21.7088 224.9216-51.6096H370.7904z" fill="#FCA315" ></path><path d="M99.328 220.9792v404.6336c6.6048 0.2048 13.2096 0.3072 19.8656 0.3072 79.4112 0 155.4432-14.336 225.6896-40.5504a41.72288 41.72288 0 0 1-16.0256-32.9216V407.04H277.504c-23.1424 0-41.9328-18.7904-41.9328-41.9328s18.7904-41.9328 41.9328-41.9328h186.5728c23.1424 0 41.9328 18.7904 41.9328 41.9328s-18.7904 41.9328-41.9328 41.9328H412.7232v145.408c0 1.0752-0.1024 2.1504-0.1536 3.2256a648.77568 648.77568 0 0 0 145.9712-102.0416l-34.56-69.888a41.90208 41.90208 0 0 1 18.9952-56.1664c20.736-10.2912 45.9264-1.7408 56.1664 18.9952l20.6848 41.8304c56.3712-68.9664 98.816-149.8112 122.9312-238.2336H170.1888c-39.1168-0.0512-70.8608 31.6416-70.8608 70.8096z" fill="#FCB138" ></path><path d="M99.328 220.9792v160.3584C246.528 348.16 374.7328 264.8064 464.896 150.1184H170.1888c-39.1168 0-70.8608 31.6928-70.8608 70.8608z" fill="#FFC65E" ></path></svg>