<svg viewBox="0 0 1024 1024" version="1.1" xmlns="http://www.w3.org/2000/svg"><path d="M709.0176 428.9536h-23.1936v28.2112h23.1936c7.7824 0 14.1312-6.3488 14.1312-14.1312 0-7.7824-6.3488-14.08-14.1312-14.08z" fill="#757BF2" ></path><path d="M958.9248 369.5616l-129.1264-177.2544a81.86368 81.86368 0 0 0-66.2528-33.6896H275.2512c-25.9584 0-50.3808 12.288-65.8432 33.1264l-130.2528 175.616a82.01728 82.01728 0 0 0 6.0416 104.9088l374.9376 399.616c32.4096 34.5088 87.2448 34.5088 119.6032-0.0512l372.7872-397.9776c26.88-28.7232 29.5936-72.4992 6.4-104.2944z m-477.44 31.5392l-64.4096 171.9808a36.71552 36.71552 0 0 1-34.304 23.808h-21.6064c-15.2064 0-28.8768-9.4208-34.2528-23.6544L262.144 402.5856c-7.168-18.944 2.3552-40.0896 21.248-47.2576 18.944-7.2192 40.0896 2.3552 47.2576 21.248l41.1136 108.3904 41.0624-109.568c7.1168-18.944 28.2112-28.5696 47.1552-21.4528a36.58752 36.58752 0 0 1 21.504 47.1552z m96.768 165.888c0 20.224-16.384 36.6592-36.6592 36.6592a36.6592 36.6592 0 0 1-36.6592-36.6592V388.5568c0-20.224 16.384-36.6592 36.6592-36.6592 20.224 0 36.6592 16.384 36.6592 36.6592v178.432z m130.7648-36.5568h-23.1936v36.5568c0 20.224-16.384 36.6592-36.6592 36.6592a36.6592 36.6592 0 0 1-36.6592-36.6592V392.2944c0-20.224 16.384-36.6592 36.6592-36.6592h59.8528c48.1792 0 87.3984 39.2192 87.3984 87.3984s-39.168 87.3984-87.3984 87.3984z" fill="#6C6CEA" ></path><path d="M767.744 507.5968c-15.5136 14.1312-36.096 22.8352-58.7264 22.8352h-23.1936v36.5568c0 20.224-16.4352 36.6592-36.6592 36.6592s-36.6592-16.4352-36.6592-36.6592V392.2944c0-20.224 16.384-36.6592 36.6592-36.6592h59.8528c34.9184 0 65.024 20.6336 79.0016 50.2784a583.82336 583.82336 0 0 0-26.368-247.296h-486.4c-25.9584 0-50.3808 12.288-65.8432 33.1264l-130.2528 175.616a82.01728 82.01728 0 0 0 6.0416 104.9088l373.4016 398.0288c148.4288-70.8608 262.144-202.496 309.1456-362.7008zM504.9856 388.5568c0-20.224 16.384-36.6592 36.6592-36.6592s36.6592 16.384 36.6592 36.6592v178.432c0 20.224-16.4352 36.6592-36.6592 36.6592s-36.6592-16.4352-36.6592-36.6592V388.5568z m-122.2656 208.3328h-21.6064c-15.2064 0-28.8768-9.4208-34.2528-23.6544L262.144 402.5856c-7.168-18.944 2.3552-40.0896 21.248-47.2576 18.944-7.2192 40.0896 2.3552 47.2576 21.248l41.1136 108.3904 41.0624-109.568c7.1168-18.944 28.2112-28.5696 47.1552-21.4528 18.944 7.1168 28.5696 28.2112 21.4528 47.1552l-64.4096 171.9808a36.54144 36.54144 0 0 1-34.304 23.808z" fill="#757BF2" ></path><path d="M275.2512 158.6176c-25.9584 0-50.3808 12.288-65.8432 33.1264l-130.2528 175.616a82.01728 82.01728 0 0 0 6.0416 104.9088l189.1328 201.5744c90.9824-38.3488 170.0864-99.2256 230.656-175.4624V388.5568c0-20.224 16.384-36.6592 36.6592-36.6592 17.664 0 32.3584 12.4928 35.84 29.0816 31.5904-68.0448 50.4832-143.2064 53.6064-222.4128h-355.84z m206.2336 242.4832l-64.4096 171.9808a36.71552 36.71552 0 0 1-34.304 23.808h-21.6064c-15.2064 0-28.8768-9.4208-34.2528-23.6544L262.144 402.5856c-7.168-18.944 2.3552-40.0896 21.248-47.2576 18.944-7.2192 40.0896 2.3552 47.2576 21.248l41.1136 108.3904 41.0624-109.568c7.1168-18.944 28.2112-28.5696 47.1552-21.4528a36.58752 36.58752 0 0 1 21.504 47.1552z" fill="#8486F8" ></path><path d="M209.408 191.744l-130.2528 175.616a82.01728 82.01728 0 0 0 6.0416 104.9088l7.5264 7.9872C153.6512 459.0592 209.92 428.032 259.7888 389.0688A36.62848 36.62848 0 0 1 301.4144 353.28c57.7536-54.528 104.3968-120.6272 136.192-194.6624H275.2512c-25.9584 0-50.3808 12.288-65.8432 33.1264z" fill="#8D92F8" ></path></svg>