<svg viewBox="0 0 1024 1024" version="1.1" xmlns="http://www.w3.org/2000/svg"><path d="M730.9824 200.0384c-14.2336-7.424-26.624-12.1856-36.9152-19.8656-5.4272-4.0448-10.9056-14.2336-9.3696-19.6096 1.4848-5.12 12.4416-11.3664 18.5344-10.7008 18.3808 1.9456 37.4784 4.4544 54.3232 11.52 22.784 9.5232 20.6848 19.2512 9.3696 40.9088-7.9872 15.2064-5.9392 35.6864-8.5504 55.1424 28.5696 0.2048 49.5616 7.7824 64.9728 27.7504 25.7536 33.4336 18.7904 79.6672-16.6912 102.912-22.9376 15.0016-31.5392 36.7616-32.8192 62.464-0.7168 14.4896-0.1536 29.0816-0.1536 43.6224 0 38.656 7.168 45.2608 45.1072 52.3264 21.6576 4.0448 43.9296 10.4448 63.1808 20.8384 56.4224 30.5664 86.8352 94.3616 78.4384 158.0032-8.448 63.8976-55.296 115.712-119.7568 132.4544-59.7504 15.5136-125.2352-7.0144-162.6112-57.6512-11.008-14.8992-19.4048-32.1536-26.7264-49.2544-4.3008-9.984-8.192-14.6944-19.8656-14.6432-72.704 0.5632-145.408 0.512-218.112 0.0512-12.1856-0.0512-17.2032 3.9424-21.248 15.8208-23.552 69.1712-85.0944 112.7936-155.136 111.5648-69.4272-1.2288-126.7712-45.4656-149.8624-115.456-5.6832-17.152-14.4896-33.792-16.9472-51.4048-5.6832-40.8064 1.6384-78.1312 31.488-110.5408 16.384-17.8176 26.624-41.3184 39.1168-62.5664 11.6736-19.8656 8.7552-27.8528-12.9536-36.352-17.5104-6.8608-17.7152-21.1968-16.2816-36.1472 1.5872-16.2304 12.6976-18.6368 26.5728-18.5856 101.0688 0.256 202.1376-0.2048 303.2064 0.6144 12.3904 0.1024 34.2016 4.5568 35.3792 10.24 3.4304 17.152 3.072 37.7344-3.7376 53.5552-8.96 20.9408-26.112 38.1952-38.2464 57.9584-4.352 7.1168-8.1408 18.7904-5.1712 24.9856 2.7648 5.7856 14.7968 9.4208 22.9888 9.8304 27.5968 1.3312 55.296 1.9968 82.8416 0.2048 8.9088-0.5632 20.9408-7.3728 25.2928-14.8992 25.5488-43.8784 49.5104-88.7296 73.3696-133.632 3.5328-6.7072 4.9664-15.104 5.2224-22.8352 0.768-21.0432-0.512-42.24 0.6656-63.232 1.28-21.9648-4.2496-34.048-29.7472-33.4336-20.7872 0.512-22.1184-17.2032-22.0672-33.1264 0.0512-15.9232 4.0448-29.7472 23.4496-30.1056 29.0816-0.5632 58.1632-0.1024 87.2448-0.256 28.16-0.1024 32.1536-4.2496 32.256-33.2288-0.0512-8.6016-0.0512-17.2544-0.0512-25.2416z m170.752 503.6032c-0.2048-54.784-43.4176-98.6112-97.6896-99.1232-54.528-0.512-99.9936 44.7488-100.0448 99.4816-0.0512 54.6816 45.4144 99.5328 100.4032 99.072 54.528-0.4096 97.536-44.3904 97.3312-99.4304z m-562.9952 1.4336c0.4608-54.9888-44.0832-100.4544-98.7136-100.7104-53.76-0.256-98.2016 43.8272-99.0208 98.2016-0.8192 54.8352 43.9808 100.5056 98.7136 100.5568 53.7088 0.0512 98.56-44.3392 99.0208-98.048z" fill="#FF8E12" ></path><path d="M294.0416 188.5696c43.6224 0 87.296-0.256 130.9184 0.0512 35.6864 0.256 52.0704 17.4592 51.5072 52.48-0.4608 32.7168-0.0512 65.4848-0.6144 98.2016-0.5632 35.9424-14.6432 50.176-50.5856 50.5344-86.528 0.8704-173.056 1.536-259.584 1.792-40.2432 0.1024-54.5792-14.9504-54.5792-55.552-0.0512-32.7168-0.1536-65.4848 0.0512-98.2016 0.2048-33.6384 15.4112-48.9472 49.7152-49.2032 44.4416-0.3584 88.832-0.1024 133.1712-0.1024z m2.2016 56.2176c-30.4128 0-60.8768 0.2048-91.2896-0.0512-16.2304-0.1536-30.0032 3.9936-30.8736 22.5792-0.8704 19.2 13.312 23.9104 29.2352 23.9616 60.16 0.2048 120.2688 0.1024 180.4288 0.0512 15.36 0 28.4672-5.0176 28.7232-22.528 0.256-18.432-12.4416-24.2176-29.2864-24.064-28.9792 0.256-57.9584 0.1024-86.9376 0.0512z" fill="#FCB138" ></path><path d="M810.9056 749.3632c-29.3376 0.5632-52.6336-22.3744-52.6336-51.8144-0.0512-29.952 22.5792-53.1968 51.712-53.0944 28.2112 0.1024 52.3776 24.7296 52.224 53.1968-0.2048 27.7504-23.4496 51.2-51.3024 51.712z" fill="#FF8E12" ></path><path d="M195.2256 696.6272c0.3072-30.1056 23.1424-52.8384 52.3776-52.1728 28.6208 0.6656 52.2752 25.4976 51.456 54.0672-0.768 27.8528-24.32 50.7904-52.3264 50.944-29.0304 0.2048-51.7632-23.0912-51.5072-52.8384z" fill="#FFB023" ></path><path d="M704 704c0.0512-44.8512 30.6176-83.3024 71.6288-95.488 11.6224-20.7872 22.016-42.3424 31.0784-64.6144-27.3408-6.5536-32.9728-15.6672-32.9728-49.7664 0-14.5408-0.5632-29.1328 0.1536-43.6224 1.2288-25.7024 9.8816-47.4624 32.8192-62.464 35.4816-23.1936 42.4448-69.4784 16.6912-102.912-15.4112-19.968-36.4032-27.5456-64.9728-27.7504 2.6112-19.5072 0.6144-39.936 8.5504-55.1424 11.3664-21.6576 13.4144-31.3856-9.3696-40.9088-16.8448-7.0144-35.9424-9.5744-54.3232-11.52-6.0928-0.6656-17.1008 5.5296-18.5344 10.7008-1.536 5.4272 3.9424 15.5648 9.3696 19.6096 10.2912 7.68 22.6816 12.4928 36.9152 19.8656 0 7.9872 0.0512 16.6912 0 25.344-0.1024 28.9792-4.0448 33.0752-32.256 33.2288-29.0816 0.1024-58.1632-0.3072-87.2448 0.256-19.4048 0.3584-23.3984 14.1824-23.4496 30.1056-0.0512 15.9744 1.28 33.6384 22.0672 33.1264 25.4976-0.6144 31.0272 11.4688 29.7472 33.4336-1.2288 21.0432 0.0512 42.1888-0.6656 63.232-0.256 7.68-1.6896 16.128-5.2224 22.8352-23.8592 44.8512-47.8208 89.7024-73.3696 133.632-4.4032 7.5776-16.384 14.336-25.2928 14.8992-27.4944 1.792-55.2448 1.1264-82.7904-0.2048-8.1408-0.4096-20.224-4.0448-22.9888-9.8304-2.9696-6.1952 0.8192-17.8688 5.1712-24.9856 12.1344-19.7632 29.2864-37.0176 38.2464-57.9584 6.8096-15.872 7.168-36.4544 3.7376-53.5552-1.1264-5.7344-22.9888-10.1888-35.3792-10.24-101.0688-0.8192-202.1376-0.3072-303.2064-0.6144-13.8752-0.0512-24.9856 2.3552-26.5728 18.5856-1.4336 14.9504-1.2288 29.2864 16.2816 36.1472 21.76 8.4992 24.6272 16.4352 12.9536 36.352-12.4928 21.248-22.7328 44.7488-39.1168 62.5664-29.7984 32.4608-37.1712 69.7344-31.488 110.5408 2.4576 17.5616 11.3152 34.2016 16.9472 51.4048 23.0912 69.9904 80.384 114.2272 149.8624 115.456 70.0416 1.2288 131.584-42.3936 155.136-111.5648 4.0448-11.8784 9.0624-15.872 21.248-15.8208 72.704 0.4608 145.408 0.512 218.112-0.0512 11.6224-0.1024 15.5648 4.6592 19.8656 14.6432 1.28 3.0208 2.6624 6.0416 4.0448 9.0624 17.2544-15.6672 33.5872-32.4096 48.9472-49.9712-0.1536-2.048-0.3584-4.0448-0.3584-6.0416z m-464.2816 99.1232c-54.7328-0.0512-99.584-45.7216-98.7136-100.5568 0.8192-54.3744 45.312-98.4576 99.0208-98.2016 54.6304 0.256 99.1744 45.7216 98.7136 100.7104-0.4608 53.7088-45.312 98.0992-99.0208 98.048z" fill="#FCA315" ></path><path d="M611.4816 258.816c-19.4048 0.3584-23.3984 14.1824-23.4496 30.1056-0.0512 15.9744 1.28 33.6384 22.0672 33.1264 19.712-0.4608 27.4944 6.656 29.3888 20.0704 11.5712-26.88 21.1968-54.8352 28.7744-83.5584-18.944-0.0512-37.8368-0.1024-56.7808 0.256z" fill="#FFBC42" ></path><path d="M429.4656 580.0448c-2.9696-6.1952 0.8192-17.8688 5.1712-24.9856 12.1344-19.7632 29.2864-37.0176 38.2464-57.9584 6.8096-15.872 7.168-36.4544 3.7376-53.5552-1.1264-5.7344-22.9888-10.1888-35.3792-10.24-101.0688-0.8192-202.1376-0.3072-303.2064-0.6144-13.8752-0.0512-24.9856 2.3552-26.5728 18.5856-1.4336 14.9504-1.2288 29.2864 16.2816 36.1472 21.76 8.4992 24.6272 16.4352 12.9536 36.352-12.4928 21.248-22.7328 44.7488-39.1168 62.5664-29.7984 32.4608-37.1712 69.7344-31.488 110.5408 0.256 1.8944 0.6656 3.84 1.0752 5.7344 6.8096 0.2048 13.6192 0.4096 20.48 0.4096 16.64 0 33.1264-0.7168 49.408-2.048 1.6896-53.6064 45.7216-96.8192 98.9184-96.5632 36.6592 0.1536 68.7104 20.736 85.76 50.8416 41.7792-17.8688 81.152-40.3968 117.3504-66.9184-5.9904-1.6384-11.8272-4.5056-13.6192-8.2944z" fill="#FCB138" ></path><path d="M684.8512 165.7856l0.6144-6.8608c-0.3584 0.5632-0.6656 1.0752-0.8192 1.6384-0.4096 1.4336-0.256 3.2768 0.2048 5.2224z" fill="#FFBC42" ></path><path d="M425.0112 188.6208c-43.6224-0.3072-87.296-0.0512-130.9184-0.0512-44.3904 0-88.7296-0.256-133.12 0.1024-34.3552 0.256-49.5616 15.5648-49.7152 49.2032-0.1536 32.7168-0.0512 65.4848-0.0512 98.2016 0.0512 40.6528 14.336 55.7056 54.5792 55.552 35.9936-0.1024 71.936-0.3072 107.9296-0.5632 42.24-28.3648 80.5888-62.0032 114.2272-99.9424-1.3824 0.1024-2.7648 0.2048-4.1984 0.2048-60.16 0.1024-120.2688 0.1536-180.4288-0.0512-15.9232-0.0512-30.1056-4.7616-29.2352-23.9616 0.8192-18.6368 14.6432-22.7328 30.8736-22.5792 30.4128 0.256 60.8768 0.0512 91.2896 0.0512 28.9792 0 57.9584 0.2048 86.9376-0.0512 14.6432-0.1536 26.1632 4.2496 28.7232 17.5616a603.648 603.648 0 0 0 44.9536-66.3552c-8.0384-4.7616-18.6368-7.2192-31.8464-7.3216zM111.4624 451.2256c-0.5632 5.632-0.8704 11.1616-0.1024 16.2304 31.0784-9.216 61.0816-20.8384 89.8048-34.7648-21.0432 0-42.0864 0-63.1808-0.1024-13.8752 0.0512-24.9856 2.4576-26.5216 18.6368z" fill="#FFC65E" ></path></svg>