<svg viewBox="0 0 1024 1024" version="1.1" xmlns="http://www.w3.org/2000/svg"><path d="M837.2736 407.3472c25.7536-1.2288 52.224-3.1744 79.3088-5.888-9.0624-35.84-22.7328-69.8368-40.2944-101.376-10.4448 31.2832-23.3984 67.5328-39.0144 107.264z" fill="#6C6CEA" ></path><path d="M278.1184 314.2656c-21.4528-49.3568-36.9152-93.0304-47.7184-127.4368-24.064 20.9408-45.7216 44.5952-64.512 70.4512 28.7744 17.2032 66.2016 37.2224 112.2304 56.9856z" fill="#8D92F8" ></path><path d="M366.4384 314.0608c26.5216 4.864 47.872 24.5248 55.1424 50.1248 80.0256 21.8624 178.5856 39.6288 293.9392 43.8272 10.0864-16.0768 26.7776-27.5968 46.2848-30.6688 25.7024-65.0752 44.032-120.6272 55.552-158.3104-77.1072-83.4048-187.392-135.7824-309.9648-135.7824-75.4688 0-146.2272 19.8656-207.5136 54.528 11.4688 40.0384 32.4096 103.2192 66.56 176.2816zM442.368 452.5568c51.968 81.5616 111.36 152.576 177.9712 212.6848 36.1984-59.3408 67.3792-119.6032 93.8496-176.7424-103.424-3.6352-194.4576-17.6128-271.8208-35.9424z" fill="#757BF2" ></path><path d="M576.512 732.928c-87.6032-77.1584-164.1984-170.8032-227.5328-278.9376-29.6448-1.9456-54.1696-22.1184-62.6176-49.4592-67.9936-26.1632-121.9072-54.2208-161.4848-77.824-25.4464 54.272-39.68 114.8416-39.68 178.7392 0 202.0864 141.9776 370.944 331.6224 412.3648 60.3136-54.1696 113.408-117.8624 159.6928-184.8832zM639.488 784.128c-35.072 50.1248-73.9328 98.6112-116.7872 143.2064 82.7392-2.9696 159.4368-29.696 223.3856-73.6256-36.864-20.8384-72.448-44.032-106.5984-69.5808zM822.1696 488.448c-7.2704 8.0896-16.4864 14.336-26.88 18.1248-30.5152 67.4816-67.5328 139.6736-111.7696 210.7904 40.3968 30.464 83.1488 57.2928 128.1024 80.5888 73.0112-75.8784 117.9648-178.944 117.9648-292.5056 0-8.192-0.3072-16.2816-0.8192-24.32-36.6592 3.7376-72.192 6.144-106.5984 7.3216z" fill="#6C6CEA" ></path><path d="M348.9792 453.9904c-29.6448-1.9456-54.1696-22.1184-62.6176-49.4592-67.9936-26.1632-121.9072-54.2208-161.4848-77.824-25.4464 54.272-39.68 114.8416-39.68 178.7392 0 186.112 120.4736 343.9104 287.6416 400.128 27.648-5.7344 54.5792-13.3632 80.64-22.784 45.4144-45.824 86.4256-96.7168 123.0848-149.8624-87.6544-77.1584-164.2496-170.8032-227.584-278.9376zM795.2896 506.5728c-30.5152 67.4816-67.5328 139.6736-111.7696 210.7904 2.5088 1.8944 5.0688 3.584 7.5776 5.4784 59.4432-65.8432 104.2432-145.0496 129.3312-232.6528-6.9632 7.168-15.5136 12.9024-25.1392 16.384z" fill="#757BF2" ></path><path d="M136.0896 706.3552c114.5344-8.6528 219.904-49.9712 306.8928-114.6368-33.8944-42.8032-65.28-88.7808-93.952-137.728-29.6448-1.9456-54.1696-22.1184-62.6176-49.4592-67.9936-26.1632-121.9072-54.2208-161.4848-77.824-25.4464 54.272-39.68 114.8416-39.68 178.7392a419.44576 419.44576 0 0 0 50.8416 200.9088zM442.368 452.5568c19.456 30.5152 39.936 59.5968 61.44 87.1424 20.6336-20.1728 39.7312-41.7792 57.2416-64.768-42.4448-6.0928-82.1248-13.7216-118.6816-22.3744zM681.6256 120.8832c-53.0944-24.1664-112.0768-37.632-174.2336-37.632-75.4688 0-146.2272 19.8656-207.5136 54.528 11.52 40.0384 32.4608 103.2192 66.6112 176.2816 26.5216 4.864 47.872 24.5248 55.1424 50.1248 54.3232 14.848 117.248 27.8016 188.1088 35.8912 45.2608-82.9952 71.2704-178.0736 71.8848-279.1936z" fill="#8486F8" ></path><path d="M271.7184 398.6944c-61.0304-24.4736-110.1824-50.1248-146.8416-71.9872a419.8912 419.8912 0 0 0-39.0144 154.7264c67.2768-16.8448 129.9456-45.1072 185.856-82.7392zM299.8272 137.7792c11.52 40.0384 32.4608 103.2192 66.6112 176.2816 1.4336 0.256 2.7648 0.7168 4.1472 1.0752 61.7984-65.024 108.9024-144.0768 136.0896-231.8848-75.1616 0.1024-145.7152 19.9168-206.848 54.528z" fill="#8D92F8" ></path></svg>