<svg viewBox="0 0 1024 1024" version="1.1" xmlns="http://www.w3.org/2000/svg"><path d="M721.4592 366.3872c-94.3616 1.2288-176.5888 26.9824-240.8448 95.6416-65.536 70.0416-83.1488 150.6816-49.4592 248.8832-43.008-5.0176-81.4592-10.24-120.064-13.6704-11.264-0.9728-24.576 0.1536-34.2016 5.376-28.5184 15.4624-55.3472 34.048-83.6608 49.92-6.656 3.7376-18.2784 4.352-24.576 0.9728-4.1984-2.2528-5.5808-14.7968-3.9936-21.8112 5.2736-23.2448 11.6224-46.336 19.0976-69.0176 4.9664-15.1552 1.8432-24.2688-10.9568-34.9696-88.7296-73.9328-122.368-167.5776-89.1392-278.8864 22.9888-76.9024 77.568-130.1504 148.5824-166.7584 131.4816-67.7888 296.6016-48.4352 406.4768 48.0768 40.8576 35.9424 68.9152 79.9744 82.7392 136.2432zM510.3616 374.272c21.76-0.512 38.656-17.3056 38.2464-37.888-0.4096-20.6336-17.7664-36.1472-40.0384-35.84-21.504 0.3072-39.5776 17.7664-39.1168 37.632 0.4608 19.3024 20.0704 36.608 40.9088 36.096z m-212.7872 0c21.6064-0.5632 38.8608-17.7152 38.2464-37.9904-0.6144-20.6848-17.92-36.096-40.192-35.6864-21.76 0.3584-38.9632 17.2544-38.4 37.7344 0.512 20.1216 18.8928 36.5056 40.3456 35.9424z" fill="#1DCE75" ></path><path d="M964.096 614.9632c-0.6144 75.52-29.0304 126.0032-76.4416 166.4-11.9808 10.1888-15.3088 19.5584-12.1344 33.8944 2.8672 12.8512 4.864 26.0096 5.4272 39.1168 0.3072 6.5024-1.5872 16.7424-5.8368 18.8928-5.7344 2.9696-15.5648 1.792-22.016-1.1264-11.9296-5.4784-23.9616-12.1856-33.6384-20.8896-18.1248-16.3328-36.6592-16.9984-60.2624-13.1584-77.9776 12.6976-151.9616-0.512-215.3472-49.6128-117.8624-91.2384-114.8928-241.92 5.12-330.4448 115.2512-85.0432 289.8944-61.3888 376.6784 51.9168 26.112 34.0992 39.9872 73.1648 38.4512 105.0112z m-332.8-24.4736c16.9472 0 30.8736-12.8 30.5664-28.1088-0.3072-15.104-14.9504-28.672-30.7712-28.5184-15.9232 0.1536-30.4128 13.7216-30.5664 28.672-0.2048 15.1552 13.8752 27.9552 30.7712 27.9552z m178.5856-25.2928c0.5632-17.3056-13.1072-31.232-29.0816-31.4368-16.0256-0.2048-30.464 13.2608-30.5664 28.5184-0.0512 15.36 13.9776 28.672 30.6688 28.1088 17.1008-0.6144 27.0848-9.6256 28.9792-25.1904z" fill="#05C46D" ></path><path d="M927.0272 511.8464c-0.4608-0.6144-0.8704-1.28-1.3824-1.9456-86.784-113.2544-261.4272-136.96-376.6784-51.9168-119.9616 88.5248-122.9824 239.2064-5.12 330.4448 6.6048 5.12 13.3632 9.728 20.1728 14.08 158.208-41.0112 289.6896-148.3776 363.008-290.6624z m-295.7312 78.6432c-16.896 0-30.9248-12.8-30.7712-28.0064 0.1536-14.9504 14.6432-28.5184 30.5664-28.672 15.8208-0.1536 30.464 13.4656 30.7712 28.5184 0.3072 15.36-13.6704 28.2112-30.5664 28.16z m149.5552-0.1024c-16.64 0.6144-30.72-12.7488-30.6688-28.1088 0.0512-15.2576 14.5408-28.7744 30.5664-28.5184 16.0256 0.2048 29.6448 14.1312 29.0816 31.4368-1.8432 15.5648-11.8272 24.576-28.9792 25.1904z" fill="#1DCE75" ></path><path d="M638.72 230.1952c-109.9264-96.512-274.9952-115.8656-406.4768-48.0768-71.0144 36.608-125.5936 89.856-148.5824 166.7584-30.7712 103.0656-4.1984 191.0272 70.4 262.1952 28.6208 4.1984 57.9584 6.4 87.7568 6.4a599.04 599.04 0 0 0 174.2848-25.8048c5.9392-47.36 27.5968-90.1632 64.512-129.5872 64.256-68.6592 146.4832-94.4128 240.8448-95.6416-13.824-56.32-41.8816-100.352-82.7392-136.2432zM297.5744 374.272c-21.4528 0.5632-39.8336-15.7696-40.3968-35.9424-0.5632-20.48 16.64-37.376 38.4-37.7344 22.272-0.3584 39.6288 15.0016 40.192 35.6864 0.6656 20.2752-16.5376 37.376-38.1952 37.9904z m212.7872 0c-20.8384 0.512-40.448-16.7936-40.9088-36.096-0.4608-19.9168 17.6128-37.3248 39.1168-37.632 22.272-0.3072 39.5776 15.2064 40.0384 35.84 0.4096 20.5824-16.4864 37.3248-38.2464 37.888z" fill="#3CD38E" ></path><path d="M548.9664 458.0352c-47.0016 34.7136-75.9808 78.9504-86.8352 125.3888 97.0752-35.8912 181.6576-97.4336 245.5552-176.4864-56.1152 0.2048-112.2304 16.7936-158.72 51.0976z" fill="#3CD38E" ></path><path d="M257.2288 338.3296c-0.5632-20.48 16.64-37.376 38.4-37.7344 22.272-0.3584 39.6288 15.0016 40.192 35.6864 0.2048 7.1168-1.792 13.7728-5.376 19.5072 90.5728-39.5264 169.472-100.8128 230.0928-177.2544-101.5808-49.152-225.28-49.5616-328.3456 3.584-71.0144 36.608-125.5936 89.856-148.5824 166.7584-5.7856 19.3536-9.472 38.144-11.264 56.3712 6.2464 0.2048 12.544 0.3072 18.8416 0.3072 68.352 0 134.0416-11.4688 195.2256-32.5632-16.3328-4.1984-28.7744-18.176-29.184-34.6624z" fill="#48E1AA" ></path></svg>