<svg viewBox="0 0 1024 1024" version="1.1" xmlns="http://www.w3.org/2000/svg"><path d="M830.464 195.4304c-79.5136-2.2016-233.3696-14.6432-309.76-75.52-17.3568-13.824-41.472-15.36-60.2112-3.4304-49.0496 31.1296-148.224 82.3808-276.6336 88.0128-27.8016 1.2288-49.8176 23.808-49.8176 51.6608 0.0512 195.1744 0.2048 210.3296 0.2048 261.6832 0 54.6304-9.1648 291.6352 354.816 428.4928 13.1072 4.9152 27.4944 5.6832 40.448 0.3584 300.9024-123.904 351.0784-254.5152 351.0784-405.76V247.0912c-0.0512-27.9552-22.2208-50.8928-50.1248-51.6608z m-204.032 354.6112c23.0912 0 41.8304 18.7392 41.8304 41.8304s-18.7392 41.8304-41.8304 41.8304h-84.3264v38.7584c0 23.0912-18.7392 41.8304-41.8304 41.8304s-41.8304-18.7392-41.8304-41.8304v-38.7584H374.2208c-23.0912 0-41.8304-18.7392-41.8304-41.8304s18.7392-41.8304 41.8304-41.8304h84.3264v-38.144H374.2208c-23.0912 0-41.8304-18.7392-41.8304-41.8304s18.7392-41.8304 41.8304-41.8304H432.128l-47.4112-48.4352c-16.1792-16.4864-15.872-42.9568 0.6144-59.136s42.9568-15.872 59.136 0.6144l59.0848 60.3648 50.4832-60.4672c14.7968-17.7152 41.1648-20.1216 58.88-5.2736a41.8048 41.8048 0 0 1 5.2736 58.88l-44.6464 53.4528h52.8896c23.0912 0 41.8304 18.7392 41.8304 41.8304s-18.7392 41.8304-41.8304 41.8304h-84.3264v38.144h84.3264z" fill="#2595E8" ></path><path d="M868.5056 284.3648c0-25.4464-1.5872-50.5344-4.608-75.2128-8.8576-8.192-20.5312-13.3632-33.4336-13.7216-79.5136-2.2016-233.3696-14.6432-309.76-75.52-17.3568-13.824-41.472-15.36-60.2112-3.4304-49.0496 31.1296-148.224 82.3808-276.6336 88.0128-27.8016 1.2288-49.8176 23.808-49.8176 51.6608 0.0512 195.1744 0.2048 210.3296 0.2048 261.6832 0 47.5136-6.8608 232.7552 230.4 370.3296 286.5152-51.712 503.8592-302.3872 503.8592-603.8016zM374.2208 511.8976c-23.0912 0-41.8304-18.7392-41.8304-41.8304s18.7392-41.8304 41.8304-41.8304H432.128l-47.4112-48.4352c-16.1792-16.4864-15.872-42.9568 0.6144-59.136s42.9568-15.872 59.136 0.6144l59.0848 60.3648 50.4832-60.4672c14.7968-17.7152 41.1648-20.1216 58.88-5.2736a41.8048 41.8048 0 0 1 5.2736 58.88l-44.6464 53.4528h52.8896c23.0912 0 41.8304 18.7392 41.8304 41.8304s-18.7392 41.8304-41.8304 41.8304h-84.3264v38.144h84.3264c23.0912 0 41.8304 18.7392 41.8304 41.8304s-18.7392 41.8304-41.8304 41.8304h-84.3264v38.7584c0 23.0912-18.7392 41.8304-41.8304 41.8304s-41.8304-18.7392-41.8304-41.8304v-38.7584H374.2208c-23.0912 0-41.8304-18.7392-41.8304-41.8304s18.7392-41.8304 41.8304-41.8304h84.3264v-38.144H374.2208z" fill="#3A9CED" ></path><path d="M573.5424 428.288h9.0624c11.9808-16.4352 23.1936-33.4336 33.5872-51.0464l-42.6496 51.0464zM520.704 119.9104c-17.3568-13.824-41.472-15.36-60.2112-3.4304-49.0496 31.1296-148.224 82.3808-276.6336 88.0128-27.8016 1.2288-49.8176 23.808-49.8176 51.6608 0.0512 195.1744 0.2048 210.3296 0.2048 261.6832 0 24.4224-1.792 85.4016 28.7232 157.4912 64.7168-7.9872 126.2592-26.0608 183.1424-52.5824a41.67168 41.67168 0 0 1-13.7216-30.9248c0-23.0912 18.7392-41.8304 41.8304-41.8304h84.3264v-38.144H374.2208c-23.0912 0-41.8304-18.7392-41.8304-41.8304s18.7392-41.8304 41.8304-41.8304H432.128l-47.4112-48.4352c-16.1792-16.4864-15.872-42.9568 0.6144-59.136s42.9568-15.872 59.136 0.6144l59.0848 60.3648 50.4832-60.4672c14.7968-17.7152 41.1648-20.1216 58.88-5.2736a41.84576 41.84576 0 0 1 13.4144 43.52c29.696-54.528 51.3024-114.0736 63.3344-177.0496-62.9248-10.5472-127.4368-29.2864-168.96-62.4128z" fill="#59ADF8" ></path><path d="M488.96 108.5952c-9.8304-0.1536-19.712 2.3552-28.4672 7.8848-49.0496 31.1296-148.224 82.3808-276.6336 88.0128-27.8016 1.2288-49.8176 23.808-49.8176 51.6608 0 87.04 0.0512 138.24 0.1024 172.8512 157.0304-54.528 285.0816-171.1104 354.816-320.4096z" fill="#6BC2FC" ></path></svg>