<svg viewBox="0 0 1024 1024" version="1.1" xmlns="http://www.w3.org/2000/svg"><path d="M861.6448 236.032h-309.504c-19.3536 0-37.9392-7.2704-52.1728-20.3264l-81.92-75.3152a76.99968 76.99968 0 0 0-52.1728-20.3264H177.2544c-41.9328 0-75.9296 33.9968-75.9296 75.9296v629.504c0 41.9328 33.9968 75.9296 75.9296 75.9296h684.3904c41.9328 0 75.9296-33.9968 75.9296-75.9296V311.9616c0-41.9328-33.9968-75.9296-75.9296-75.9296z m-201.6256 386.6624h-79.872v79.872c0 32.0512-25.9584 58.0096-58.0096 58.0096s-58.0096-25.9584-58.0096-58.0096v-79.872h-79.872c-32.0512 0-58.0096-25.9584-58.0096-58.0096s25.9584-58.0096 58.0096-58.0096h79.872v-79.872c0-32.0512 25.9584-58.0096 58.0096-58.0096s58.0096 25.9584 58.0096 58.0096v79.872h79.872c32.0512 0 58.0096 25.9584 58.0096 58.0096s-25.9584 58.0096-58.0096 58.0096z" fill="#2595E8" ></path><path d="M937.5744 311.9616c0-41.9328-33.9968-75.9296-75.9296-75.9296h-309.504c-19.3536 0-37.9392-7.2704-52.1728-20.3264l-81.92-75.3152a76.99968 76.99968 0 0 0-52.1728-20.3264H177.2544c-41.9328 0-75.9296 33.9968-75.9296 75.9296v629.504c0 41.9328 33.9968 75.9296 75.9296 75.9296h330.24c238.08-93.4912 410.6752-317.2352 430.08-583.5264v-5.9392z m-277.5552 310.7328h-79.872v79.872c0 32.0512-25.9584 58.0096-58.0096 58.0096s-58.0096-25.9584-58.0096-58.0096v-79.872h-79.872c-32.0512 0-58.0096-25.9584-58.0096-58.0096s25.9584-58.0096 58.0096-58.0096h79.872v-79.872c0-32.0512 25.9584-58.0096 58.0096-58.0096s58.0096 25.9584 58.0096 58.0096v79.872h79.872c32.0512 0 58.0096 25.9584 58.0096 58.0096s-25.9584 58.0096-58.0096 58.0096z" fill="#3A9CED" ></path><path d="M552.1408 236.032c-19.3536 0-37.9392-7.2704-52.1728-20.3264l-81.92-75.3152a76.99968 76.99968 0 0 0-52.1728-20.3264H177.2544c-41.9328 0-75.9296 33.9968-75.9296 75.9296v509.952c107.9808-4.5056 209.5104-34.0992 298.8032-83.2h-15.7696c-32.0512 0-58.0096-25.9584-58.0096-58.0096s25.9584-58.0096 58.0096-58.0096h79.872v-79.872c0-32.0512 25.9584-58.0096 58.0096-58.0096s58.0096 25.9584 58.0096 58.0096v52.48c62.3104-69.6832 110.4384-152.2688 139.9296-243.3024h-168.0384z" fill="#59ADF8" ></path><path d="M457.8816 176.9984l-39.8336-36.608a76.99968 76.99968 0 0 0-52.1728-20.3264H177.2544c-41.9328 0-75.9296 33.9968-75.9296 75.9296v239.872c145.7152-44.7488 270.6432-137.0624 356.5568-258.8672z" fill="#6BC2FC" ></path></svg>