<svg viewBox="0 0 1024 1024" version="1.1" xmlns="http://www.w3.org/2000/svg"><path d="M181.0944 493.6704c21.76-43.8272 65.6384-71.0656 114.5856-71.0656h548.352v-30.5664c0-54.8352-44.4416-99.2256-99.2256-99.2256H601.6c-23.3472 0-45.9776-8.2432-63.8464-23.2448l-111.4112-93.696a99.3536 99.3536 0 0 0-63.8464-23.2448H185.9584c-54.8352 0-99.2256 44.4416-99.2256 99.2256v431.9744l94.3616-190.1568z" fill="#F23D4F" ></path><path d="M879.0016 487.936H295.68c-23.7568 0-45.5168 13.4656-56.064 34.7648l-143.2576 288.768c15.9232 33.536 50.0224 56.7808 89.6 56.7808h558.7968c40.3968 0 75.1616-24.1664 90.6752-58.8288l0.1024 0.1024 100.9152-234.24c17.8176-41.3184-12.4928-87.3472-57.4464-87.3472z m-176.9984 309.9136h-186.5216c-20.992 0-37.9904-16.9984-37.9904-37.9904s16.9984-37.9904 37.9904-37.9904h186.5216c20.992 0 37.9904 16.9984 37.9904 37.9904 0 20.9408-16.9984 37.9904-37.9904 37.9904z" fill="#F23D4F" ></path><path d="M800.3584 333.7216c0-8.1408-0.2048-16.2304-0.512-24.2688a98.74944 98.74944 0 0 0-55.0912-16.6912H601.6c-23.3472 0-45.9776-8.2432-63.8464-23.2448L426.3424 175.872a99.3536 99.3536 0 0 0-63.8464-23.2448H185.9584c-54.8352 0-99.2256 44.4416-99.2256 99.2256v431.9744l94.3616-190.208c21.76-43.8272 65.6384-71.0656 114.5856-71.0656h498.2272c4.2496-28.9792 6.4512-58.6752 6.4512-88.832z" fill="#FC4956" ></path><path d="M295.68 487.936c-23.7568 0-45.5168 13.4656-56.064 34.7648l-143.2576 288.768c15.9232 33.536 50.0224 56.7808 89.6 56.7808h296.6528c36.6592-19.968 71.0144-43.6224 102.6048-70.4h-69.6832c-20.992 0-37.9904-16.9984-37.9904-37.9904s16.9984-37.9904 37.9904-37.9904H660.48a606.15168 606.15168 0 0 0 120.2176-233.9328H295.68z" fill="#FC4956" ></path><path d="M608.4096 292.7616h-6.8096c-23.3472 0-45.9776-8.2432-63.8464-23.2448L426.3424 175.872a99.3536 99.3536 0 0 0-63.8464-23.2448H185.9584c-54.8352 0-99.2256 44.4416-99.2256 99.2256v431.9744l94.3616-190.208c21.76-43.8272 65.6384-71.0656 114.5856-71.0656h256.512c23.5008-40.4992 42.4448-84.0192 56.2176-129.792z" fill="#FF5C64" ></path><path d="M239.616 522.7008l-95.0784 191.5904c147.4048-29.184 275.6096-111.616 363.8272-226.4064H295.68c-23.808 0.0512-45.5168 13.5168-56.064 34.816z" fill="#FF5C64" ></path><path d="M418.9696 170.2912a99.18464 99.18464 0 0 0-56.5248-17.664H185.9584c-54.8352 0-99.2256 44.4416-99.2256 99.2256v220.1088c145.3568-54.6304 264.2944-163.328 332.2368-301.6704z" fill="#FF716E" ></path></svg>