<svg viewBox="0 0 1024 1024" version="1.1" xmlns="http://www.w3.org/2000/svg"><path d="M513.5872 90.7776c-231.7824-0.3072-425.3184 193.4336-425.0112 425.3696 0.3072 233.3184 192.512 425.3696 425.1648 424.7552 234.5472-0.6144 423.8336-190.3616 423.936-424.96 0.1536-233.6768-190.5664-424.8576-424.0896-425.1648z m-1.6896 671.8976c-39.4752-0.3072-69.8368-31.3344-69.3248-70.8096 0.512-38.4512 32.8704-70.144 71.168-69.632 37.9904 0.4608 70.656 33.8944 69.888 71.5264-0.768 39.1168-32.1536 69.2224-71.7312 68.9152z m224.512-170.496a46.89408 46.89408 0 0 1-34.4064 14.9504 46.8992 46.8992 0 0 1-32.0512-12.6464c-166.4-155.0848-310.1696-8.2432-316.2112-1.9456-17.92 18.7904-47.6672 19.456-66.4576 1.536s-19.456-47.6672-1.536-66.4576c2.1504-2.2528 53.9648-55.8592 134.3488-82.7904 76.2368-25.5488 192.5632-32.256 313.9584 80.896 18.9952 17.7152 20.0192 47.4624 2.3552 66.4576z m50.8416-142.3872c-9.984 0-20.0704-3.1744-28.5696-9.728-109.0048-83.6608-225.0752-109.2608-344.9856-76.1856-88.9856 24.576-147.968 73.984-148.5312 74.496-19.6608 16.9472-49.3056 14.7456-66.304-4.9152-16.9472-19.6608-14.7456-49.3056 4.9152-66.304 2.9696-2.56 74.3424-63.3856 184.8832-93.9008 103.0144-28.4672 260.7616-35.5328 427.2128 92.2112 20.5824 15.8208 24.4736 45.312 8.6528 65.8944a46.73024 46.73024 0 0 1-37.2736 18.432z" fill="#BD50D3" ></path><path d="M877.9776 310.7328c0-3.9936-0.0512-7.936-0.1536-11.8784-74.1888-124.2112-209.8176-207.872-364.2368-208.0768-231.7824-0.3072-425.3184 193.4336-425.0112 425.3696 0.2048 168.6016 100.6592 315.5968 244.1728 384 304.9984-23.4496 545.2288-278.3744 545.2288-589.4144z m-366.08 451.9424c-39.4752-0.3072-69.8368-31.3344-69.3248-70.8096 0.512-38.4512 32.8704-70.144 71.168-69.632 37.9904 0.4608 70.656 33.8944 69.888 71.5264-0.768 39.1168-32.1536 69.2224-71.7312 68.9152z m-312.9856-329.216c-16.9472-19.6608-14.7456-49.3056 4.9152-66.304 2.9696-2.56 74.3424-63.3856 184.8832-93.9008 103.0144-28.4672 260.7616-35.5328 427.2128 92.2112 20.5824 15.8208 24.4736 45.312 8.6528 65.8944a46.99648 46.99648 0 0 1-37.3248 18.3808c-9.984 0-20.0704-3.1744-28.5696-9.728C649.6768 356.352 533.6064 330.752 413.696 363.8272c-88.9856 24.576-147.968 73.984-148.5312 74.496a46.90944 46.90944 0 0 1-66.2528-4.864z m86.8352 94.208c2.1504-2.2528 53.9648-55.8592 134.3488-82.7904 76.2368-25.5488 192.5632-32.256 313.9584 80.896a47.0016 47.0016 0 0 1 2.3552 66.4064 46.89408 46.89408 0 0 1-34.4064 14.9504 46.8992 46.8992 0 0 1-32.0512-12.6464c-166.4-155.0848-310.1696-8.2432-316.2112-1.9456-17.92 18.7904-47.6672 19.456-66.4576 1.536-18.7392-17.8688-19.456-47.616-1.536-66.4064z" fill="#C65EDB" ></path><path d="M127.3856 691.9168c158.976-0.6144 303.1552-63.9488 409.0368-166.6048-103.3728-13.8752-178.3808 62.72-182.6816 67.2768-17.92 18.7904-47.6672 19.456-66.4576 1.536s-19.456-47.6672-1.536-66.4576c2.1504-2.2528 53.9648-55.8592 134.3488-82.7904 48.5888-16.2816 113.4592-24.8832 185.5488 0.3072 15.7184-21.9136 29.952-44.9024 42.6496-68.9152-75.8272-30.208-154.3168-34.5088-234.5472-12.3392-88.9856 24.576-147.968 73.984-148.5312 74.496-19.6608 16.9472-49.3056 14.7456-66.304-4.9152-16.9472-19.6608-14.7456-49.3056 4.9152-66.304 2.9696-2.56 74.3424-63.3856 184.8832-93.9008 75.52-20.8384 180.48-30.1568 296.6528 16.64 15.8208-46.8992 25.9072-96.4608 29.44-147.8144-59.9552-32.6144-128.512-51.2512-201.216-51.3024-231.7824-0.3072-425.3184 193.4336-425.0112 425.3696 0.1024 62.5152 14.08 122.0096 38.8096 175.7184z" fill="#CA6EE0" ></path><path d="M513.5872 90.7776c-216.7808-0.256-400.0768 169.1648-422.656 380.8256 38.8608-7.6288 76.3904-19.0464 112.128-33.8944-1.4336-1.3312-2.8672-2.7136-4.1984-4.1984-16.9472-19.6608-14.7456-49.3056 4.9152-66.304 2.9696-2.56 74.3424-63.3856 184.8832-93.9008 14.848-4.096 30.8736-7.7312 47.872-10.5984a590.08 590.08 0 0 0 96.4096-171.4176c-6.4-0.3072-12.8512-0.512-19.3536-0.512z" fill="#D786EA" ></path></svg>