<svg viewBox="0 0 1024 1024" version="1.1" xmlns="http://www.w3.org/2000/svg"><path d="M363.5712 280.576c24.6784 0 44.6464-20.0192 44.6464-44.6464V145.1008c0-24.6784-20.0192-44.6464-44.6464-44.6464-24.6784 0-44.6464 20.0192-44.6464 44.6464v90.7776c-0.0512 24.6784 19.968 44.6976 44.6464 44.6976z" fill="#FFC65E" ></path><path d="M662.6304 280.576c24.6784 0 44.6464-20.0192 44.6464-44.6464V145.1008c0-24.6784-20.0192-44.6464-44.6464-44.6464-24.6784 0-44.6464 20.0192-44.6464 44.6464v90.7776c-0.0512 24.6784 19.968 44.6976 44.6464 44.6976z" fill="#FCB138" ></path><path d="M743.936 181.0944V234.496c0 40.2432-36.3008 72.8576-81.1008 72.8576s-81.1008-32.6144-81.1008-72.8576V180.8896H444.672V234.496c0 40.2432-36.3008 72.8576-81.1008 72.8576S282.4192 274.7392 282.4192 234.496V180.9408c-69.1712 1.4848-124.8256 58.0096-124.8256 127.5904v492.032c0 70.5024 57.1392 127.6416 127.6416 127.6416h451.3792c70.5024 0 127.6416-57.1392 127.6416-127.6416v-492.032c0-68.0448-53.248-123.648-120.32-127.4368zM317.8496 406.1696h262.4512c21.4528 0 38.8608 17.408 38.8608 38.8608 0 21.4528-17.408 38.8608-38.8608 38.8608H317.8496c-21.4528 0-38.8608-17.408-38.8608-38.8608 0-21.4528 17.408-38.8608 38.8608-38.8608z m396.8512 395.2128H317.8496c-21.4528 0-38.8608-17.408-38.8608-38.8608 0-21.4528 17.408-38.8608 38.8608-38.8608h396.8512c21.4528 0 38.8608 17.408 38.8608 38.8608 0 21.504-17.408 38.8608-38.8608 38.8608z m0-158.72H317.8496c-21.4528 0-38.8608-17.408-38.8608-38.8608s17.408-38.8608 38.8608-38.8608h396.8512c21.4528 0 38.8608 17.408 38.8608 38.8608s-17.408 38.8608-38.8608 38.8608z" fill="#FF8E12" ></path><path d="M864.256 308.5312c0-68.0448-53.248-123.5968-120.32-127.4368V234.496c0 40.2432-36.3008 72.8576-81.1008 72.8576s-81.1008-32.6144-81.1008-72.8576V180.8896H444.672V234.496c0 40.2432-36.3008 72.8576-81.1008 72.8576S282.4704 274.7392 282.4704 234.496V180.9408c-69.1712 1.4848-124.8256 58.0096-124.8256 127.5904v492.032c0 56.7296 37.0176 104.7552 88.2176 121.3952 18.0224 1.536 36.2496 2.3552 54.6816 2.3552 140.9024 0 271.1552-45.6192 376.832-122.88H317.8496c-21.4528 0-38.8608-17.408-38.8608-38.8608 0-21.4528 17.408-38.8608 38.8608-38.8608h396.8512c13.8752 0 25.9584 7.3216 32.8192 18.2784a643.2256 643.2256 0 0 0 116.736-155.2896V308.5312zM317.8496 406.1696h262.4512c21.4528 0 38.8608 17.408 38.8608 38.8608 0 21.4528-17.408 38.8608-38.8608 38.8608H317.8496c-21.4528 0-38.8608-17.408-38.8608-38.8608 0-21.4528 17.408-38.8608 38.8608-38.8608z m396.8512 236.4928H317.8496c-21.4528 0-38.8608-17.408-38.8608-38.8608 0-21.4528 17.408-38.8608 38.8608-38.8608h396.8512c21.4528 0 38.8608 17.408 38.8608 38.8608 0 21.4528-17.408 38.8608-38.8608 38.8608z" fill="#FCA315" ></path><path d="M743.936 220.8768c3.3792-12.8 6.2976-25.7536 8.9088-38.8096-2.9696-0.3584-5.888-0.768-8.9088-0.9216v39.7312z" fill="#FFB32B" ></path><path d="M384.4608 642.6624H317.8496c-21.4528 0-38.8608-17.408-38.8608-38.8608 0-21.4528 17.408-38.8608 38.8608-38.8608h197.2224c94.0544-72.3456 167.3728-170.2912 209.6128-283.392-14.8992 15.7696-37.0688 25.8048-61.8496 25.8048-44.8 0-81.1008-32.6144-81.1008-72.8576V180.8896H444.672V234.496c0 40.2432-36.3008 72.8576-81.1008 72.8576S282.4704 274.7392 282.4704 234.496V180.9408c-69.1712 1.4848-124.8256 58.0096-124.8256 127.5904v387.9424a636.928 636.928 0 0 0 226.816-53.8112zM317.8496 406.1696h262.4512c21.4528 0 38.8608 17.408 38.8608 38.8608 0 21.4528-17.408 38.8608-38.8608 38.8608H317.8496c-21.4528 0-38.8608-17.408-38.8608-38.8608 0-21.4528 17.408-38.8608 38.8608-38.8608z" fill="#FCB138" ></path><path d="M500.4288 180.8896H444.672V234.496c0 8.96-1.8944 17.5104-5.2224 25.4464 22.3232-24.6784 42.7008-51.0976 60.9792-79.0528zM400.9472 299.1104A88.4992 88.4992 0 0 1 363.52 307.3536c-44.8 0-81.1008-32.6144-81.1008-72.8576V180.9408c-69.1712 1.4848-124.8256 58.0096-124.8256 127.5904v132.9152c91.8528-29.0304 174.6944-78.1824 243.3536-142.336z" fill="#FFC65E" ></path></svg>