<svg viewBox="0 0 1024 1024" version="1.1" xmlns="http://www.w3.org/2000/svg"><path d="M755.0976 97.4848H265.8816c-72.8576 0-131.9424 59.0848-131.9424 131.9424v563.8656c0 72.8576 59.0848 131.9424 131.9424 131.9424h489.216c72.8576 0 131.9424-59.0848 131.9424-131.9424V229.4784c0-72.9088-59.0848-131.9936-131.9424-131.9936z m-84.736 633.856H350.5664c-32.2048 0-58.2656-26.112-58.2656-58.2656 0-32.2048 26.112-58.2656 58.2656-58.2656h319.7952c32.2048 0 58.2656 26.112 58.2656 58.2656 0.0512 32.1536-26.0608 58.2656-58.2656 58.2656z m0-158.4128H350.5664c-32.2048 0-58.2656-26.112-58.2656-58.2656 0-32.2048 26.112-58.2656 58.2656-58.2656h319.7952c32.2048 0 58.2656 26.112 58.2656 58.2656 0.0512 32.1536-26.0608 58.2656-58.2656 58.2656z m0-166.144H350.5664c-32.2048 0-58.2656-26.112-58.2656-58.2656s26.112-58.2656 58.2656-58.2656h319.7952c32.2048 0 58.2656 26.112 58.2656 58.2656s-26.0608 58.2656-58.2656 58.2656z" fill="#2595E8" ></path><path d="M887.04 229.4784c0-72.8576-59.0848-131.9424-131.9424-131.9424H265.8816c-72.8576 0-131.9424 59.0848-131.9424 131.9424v563.8656c0 72.8576 59.0848 131.9424 131.9424 131.9424h67.3792c268.9024-28.8768 488.2432-223.4368 553.7792-479.5904V229.4784z m-216.6784 501.8624H350.5664c-32.2048 0-58.2656-26.112-58.2656-58.2656 0-32.2048 26.112-58.2656 58.2656-58.2656h319.7952c32.2048 0 58.2656 26.112 58.2656 58.2656 0.0512 32.1536-26.0608 58.2656-58.2656 58.2656z m0-158.4128H350.5664c-32.2048 0-58.2656-26.112-58.2656-58.2656 0-32.2048 26.112-58.2656 58.2656-58.2656h319.7952c32.2048 0 58.2656 26.112 58.2656 58.2656 0.0512 32.1536-26.0608 58.2656-58.2656 58.2656z m0-166.144H350.5664c-32.2048 0-58.2656-26.112-58.2656-58.2656 0-32.2048 26.112-58.2656 58.2656-58.2656h319.7952c32.2048 0 58.2656 26.112 58.2656 58.2656 0.0512 32.1536-26.0608 58.2656-58.2656 58.2656z" fill="#3A9CED" ></path><path d="M265.8816 97.4848c-72.8576 0-131.9424 59.0848-131.9424 131.9424v469.4528c55.0912-3.8912 108.288-14.7456 158.6688-31.6416 2.8672-29.4912 27.7504-52.5312 58.0096-52.5312H409.088c22.016-12.6976 43.2128-26.6752 63.488-41.8304H350.5664c-32.2048 0-58.2656-26.112-58.2656-58.2656 0-32.2048 26.112-58.2656 58.2656-58.2656h241.8176c12.5952-15.9232 24.4736-32.4608 35.584-49.5616H350.5664c-32.2048 0-58.2656-26.112-58.2656-58.2656 0-32.2048 26.112-58.2656 58.2656-58.2656h319.7952c5.6832 0 11.1616 0.8704 16.3328 2.3552 24.0128-61.0304 38.8608-126.5664 43.1104-195.072H265.8816z" fill="#59ADF8" ></path><path d="M133.9392 229.4784v209.1008c57.1392-19.5072 110.592-46.7968 159.1808-80.64-0.512-3.072-0.8192-6.1952-0.8192-9.4208 0-32.2048 26.112-58.2656 58.2656-58.2656h24.5248C431.4624 235.2128 477.7984 169.984 511.0272 97.4848H265.8816c-72.9088 0-131.9424 59.0848-131.9424 131.9936z" fill="#6BC2FC" ></path></svg>