<svg viewBox="0 0 1024 1024" version="1.1" xmlns="http://www.w3.org/2000/svg"><path d="M457.5744 464.2304h114.2784v158.72H457.5744z" fill="#757BF2" ></path><path d="M938.7008 401.3056l-40.448-169.3696a107.264 107.264 0 0 0-104.704-82.6368H238.4896c-49.3568 0-92.2624 33.4336-104.3968 81.2544l-43.008 169.8816c-2.2016 8.6528-3.2768 17.5104-3.2768 26.4192v344.1664c0 59.392 48.2816 107.6736 107.6736 107.6736h638.5152c59.392 0 107.6736-48.2816 107.6736-107.6736V426.2912c0-8.3968-1.024-16.7936-2.9696-24.9856z m-119.7568 62.9248h-165.7856v166.4512c0 40.5504-32.9728 73.5232-73.5232 73.5232H449.8432c-40.5504 0-73.5232-32.9728-73.5232-73.5232V464.2304H206.08c-22.4256 0-40.6528-18.176-40.6528-40.6528s18.176-40.6528 40.6528-40.6528H386.56l42.24-142.1312c6.4-21.504 28.9792-33.7408 50.5344-27.392 21.504 6.4 33.792 29.0304 27.392 50.5344l-35.328 118.9888h88.7808l-30.8224-119.4496c-5.632-21.7088 7.4752-43.8784 29.184-49.5104 21.76-5.632 43.8784 7.4752 49.5104 29.184l36.096 139.776h174.8992c22.4256 0 40.6528 18.176 40.6528 40.6528s-18.3296 40.6528-40.7552 40.6528z" fill="#6C6CEA" ></path><path d="M793.5488 149.248H238.4896c-49.3568 0-92.2624 33.4336-104.3968 81.2544l-43.008 169.8816c-2.2016 8.6528-3.2768 17.5104-3.2768 26.4192v344.1664c0 59.392 48.2816 107.6736 107.6736 107.6736h292.9152c242.944-87.5008 416.6144-319.9488 416.6144-593.0496 0-9.4208-0.256-18.8416-0.6656-28.16l-6.0928-25.5488a107.3152 107.3152 0 0 0-104.704-82.6368z m25.3952 314.9824h-165.7856v166.4512c0 40.5504-32.9728 73.5232-73.5232 73.5232H449.8432c-40.5504 0-73.5232-32.9728-73.5232-73.5232V464.2304H206.08a40.6528 40.6528 0 0 1 0-81.3056H386.56l42.24-142.1312c6.4-21.504 28.9792-33.7408 50.5344-27.392 21.504 6.4 33.792 29.0304 27.392 50.5344l-35.328 118.9888h88.7808l-30.8224-119.4496c-5.632-21.7088 7.4752-43.8784 29.184-49.5104 21.7088-5.632 43.8784 7.4752 49.5104 29.184l36.096 139.776h174.8992a40.6528 40.6528 0 0 1 40.6528 40.6528c-0.1536 22.4768-18.3296 40.6528-40.7552 40.6528z" fill="#757BF2" ></path><path d="M102.5024 692.0192c98.1504 0 191.0272-22.4256 273.8688-62.464V464.2304H206.08a40.6528 40.6528 0 0 1 0-81.3056H386.56l42.24-142.1312c6.4-21.504 28.9792-33.7408 50.5344-27.392 21.504 6.4 33.792 29.0304 27.392 50.5344l-35.328 118.9888h88.7808l-30.8224-119.4496c-5.632-21.7088 7.4752-43.8784 29.184-49.5104 21.7088-5.632 43.8784 7.4752 49.5104 29.184l36.096 139.776h0.7168c41.6768-70.2464 70.144-149.2992 81.8176-233.728H238.4896c-49.3568 0-92.2624 33.4336-104.3968 81.2544l-43.008 169.8816c-2.2016 8.6528-3.2768 17.5104-3.2768 26.4192v265.0112c4.864 0.1536 9.7792 0.256 14.6944 0.256z" fill="#8486F8" ></path><path d="M457.5744 582.4512c42.0352-28.7232 80.384-62.4128 114.2784-100.1984v-18.0224H457.5744v118.2208z" fill="#8486F8" ></path><path d="M165.8368 428.8c-0.2048-1.6896-0.3584-3.4304-0.3584-5.1712a40.6528 40.6528 0 0 1 40.6528-40.6528h55.8592c63.4368-37.1712 119.808-85.0432 166.6048-141.2608l0.256-0.8704a40.5248 40.5248 0 0 1 19.5072-24.1152c16.128-21.4528 30.8736-44.032 44.1856-67.4816H238.592c-49.3568 0-92.2624 33.4336-104.3968 81.2544l-43.008 169.8816c-2.2016 8.6528-3.2768 17.5104-3.2768 26.4192v25.7024c26.5728-6.2464 52.6336-14.1824 77.9264-23.7056z" fill="#8D92F8" ></path></svg>