<svg viewBox="0 0 1024 1024" version="1.1" xmlns="http://www.w3.org/2000/svg"><path d="M951.0912 425.6256l-409.6512-316.2624c-20.48-15.8208-49.1008-15.8208-69.5808 0.0512L62.8224 425.6256c-26.7264 18.1248-13.9264 59.904 18.3808 59.904h83.9168v359.0144c0 35.9424 29.1328 65.0752 65.0752 65.0752h553.5744c35.9424 0 65.0752-29.1328 65.0752-65.0752V485.5296h83.968c32.2048 0 45.0048-41.7792 18.2784-59.904z m-299.9296 215.8592c21.76 0 39.3728 17.6128 39.3728 39.3728s-17.6128 39.3728-39.3728 39.3728H547.84v56.9344c0 21.76-17.6128 39.3728-39.3728 39.3728s-39.3728-17.6128-39.3728-39.3728v-56.9344h-103.424c-21.76 0-39.3728-17.6128-39.3728-39.3728s17.6128-39.3728 39.3728-39.3728H468.992v-57.4976H365.6704c-21.76 0-39.3728-17.6128-39.3728-39.3728s17.6128-39.3728 39.3728-39.3728h54.6304l-47.0016-52.9408a39.3728 39.3728 0 0 1 3.328-55.6032 39.3728 39.3728 0 0 1 55.6032 3.328l76.3392 86.016 81.2544-89.9584a39.41888 39.41888 0 0 1 55.6544-2.816c16.128 14.592 17.408 39.4752 2.816 55.6544l-50.944 56.4224h53.8112c21.76 0 39.3728 17.6128 39.3728 39.3728s-17.6128 39.3728-39.3728 39.3728H547.84v57.4976h103.3216z" fill="#6C6CEA" ></path><path d="M471.8592 109.3632L62.8224 425.6256c-26.7264 18.1248-13.9264 59.904 18.3808 59.904h83.9168v359.0144c0 35.9424 29.1328 65.0752 65.0752 65.0752h180.8384c250.9824-60.5696 437.4528-286.464 437.4528-556.032 0-2.4576-0.1536-4.864-0.2048-7.3216l-306.8416-236.9024a56.9344 56.9344 0 0 0-69.5808 0z m173.6192 283.7504c16.128 14.592 17.408 39.4752 2.816 55.6544l-50.944 56.4224h53.8112c21.76 0 39.3728 17.6128 39.3728 39.3728s-17.6128 39.3728-39.3728 39.3728H547.84v57.4976h103.3216c21.76 0 39.3728 17.6128 39.3728 39.3728s-17.6128 39.3728-39.3728 39.3728H547.84v56.9344c0 21.76-17.6128 39.3728-39.3728 39.3728s-39.3728-17.6128-39.3728-39.3728v-56.9344h-103.424c-21.76 0-39.3728-17.6128-39.3728-39.3728s17.6128-39.3728 39.3728-39.3728H468.992v-57.4976H365.6704c-21.76 0-39.3728-17.6128-39.3728-39.3728s17.6128-39.3728 39.3728-39.3728h54.6304l-47.0016-52.9408a39.3728 39.3728 0 0 1 3.328-55.6032 39.3728 39.3728 0 0 1 55.6032 3.328l76.3392 86.016 81.2544-89.9584a39.33184 39.33184 0 0 1 55.6544-2.9184z" fill="#757BF2" ></path><path d="M471.8592 109.3632L62.8224 425.6256c-26.7264 18.1248-13.9264 59.904 18.3808 59.904h83.9168v235.008c56.4736-4.4544 110.6432-17.0496 161.3312-36.7104-0.0512-0.9728-0.1536-1.9968-0.1536-2.9696 0-21.76 17.6128-39.3728 39.3728-39.3728h47.616c19.3536-11.6224 37.9392-24.3712 55.7568-38.0928v-19.4048H365.6704c-21.76 0-39.3728-17.6128-39.3728-39.3728s17.6128-39.3728 39.3728-39.3728h54.6304l-47.0016-52.9408a39.3728 39.3728 0 0 1 3.328-55.6032 39.3728 39.3728 0 0 1 55.6032 3.328l76.3392 86.016 81.2544-89.9584c12.9536-14.3872 34.0992-16.896 49.9712-7.0144 23.8592-51.9168 40.1408-108.032 47.5136-166.9632l-145.92-112.64c-20.48-15.9232-49.0496-15.9232-69.5296-0.1024z" fill="#8486F8" ></path><path d="M527.0016 101.4272c-18.176-6.9632-39.1168-4.4032-55.1424 7.936L62.8224 425.6256c-26.7264 18.1248-13.9264 59.904 18.3808 59.904h83.9168v2.304c175.4112-61.4912 311.7056-205.9776 361.8816-386.4064z" fill="#8D92F8" ></path></svg>