<svg viewBox="0 0 1024 1024" version="1.1" xmlns="http://www.w3.org/2000/svg"><path d="M381.7472 388.096c21.76 0 39.4752-17.7152 39.4752-39.4752s-17.7152-39.4752-39.4752-39.4752-39.4752 17.7152-39.4752 39.4752 17.7152 39.4752 39.4752 39.4752z" fill="#2595E8" ></path><path d="M806.1952 99.4816H227.5328c-61.4912 0-111.36 49.8688-111.36 111.36v605.1328c0 61.4912 49.8688 111.36 111.36 111.36h578.6624c61.4912 0 111.36-49.8688 111.36-111.36V210.7904c0-61.4912-49.8688-111.3088-111.36-111.3088z m-424.448 135.2704c62.7712 0 113.8688 51.0976 113.8688 113.8688 0 62.7712-51.0976 113.8688-113.8688 113.8688-62.7712 0-113.8688-51.0976-113.8688-113.8688 0-62.7712 51.0976-113.8688 113.8688-113.8688z m409.0368 244.2752l-200.8064 207.2064c-14.848 15.36-38.656 17.5616-56.1664 5.2736l-120.3712-84.736-112.384 145.2032a43.33056 43.33056 0 0 1-34.3552 16.8448c-9.2672 0-18.6368-2.9696-26.5216-9.0624-18.944-14.6944-22.4256-41.9328-7.7312-60.8768l137.8304-177.9712c14.2336-18.3296 40.3456-22.272 59.2896-8.9088l123.904 87.2448 175.0016-180.5824a43.40736 43.40736 0 0 1 61.3376-0.9728 43.3152 43.3152 0 0 1 0.9728 61.3376z" fill="#2595E8" ></path><path d="M917.5552 210.7904c0-61.4912-49.8688-111.36-111.36-111.36H227.5328c-61.4912 0-111.36 49.8688-111.36 111.36v605.1328a110.592 110.592 0 0 0 24.32 69.3248c48.0768 11.5712 98.2016 17.7664 149.8112 17.7664 313.4976 0 574.1568-226.4576 627.2512-524.6976V210.7904zM381.7472 234.752c62.7712 0 113.8688 51.0976 113.8688 113.8688 0 62.7712-51.0976 113.8688-113.8688 113.8688-62.7712 0-113.8688-51.0976-113.8688-113.8688 0-62.7712 51.0976-113.8688 113.8688-113.8688z m409.0368 244.2752l-200.8064 207.2064c-14.848 15.36-38.656 17.5616-56.1664 5.2736l-120.3712-84.736-112.384 145.2032a43.33056 43.33056 0 0 1-34.3552 16.8448c-9.2672 0-18.6368-2.9696-26.5216-9.0624-18.944-14.6944-22.4256-41.9328-7.7312-60.8768l137.8304-177.9712c14.1824-18.3296 40.3456-22.272 59.2896-8.9088l123.904 87.2448 175.0016-180.5824a43.40736 43.40736 0 0 1 61.3376-0.9728 43.3152 43.3152 0 0 1 0.9728 61.3376z" fill="#3A9CED" ></path><path d="M116.1728 210.7904v465.9712c50.432 0 99.4816-5.888 146.5344-16.9984l107.5712-138.9568c14.1824-18.3296 40.3456-22.272 59.2896-8.9088l61.1328 43.0592c143.9232-104.8064 242.2272-268.3904 259.6352-455.5264H227.5328c-61.5424 0.0512-111.36 49.8688-111.36 111.36z m265.5744 23.9616c62.7712 0 113.8688 51.0976 113.8688 113.8688 0 62.7712-51.0976 113.8688-113.8688 113.8688-62.7712 0-113.8688-51.0976-113.8688-113.8688 0-62.7712 51.0976-113.8688 113.8688-113.8688z" fill="#59ADF8" ></path><path d="M116.1728 210.7904v220.1088c54.3744-14.08 105.8816-35.2256 153.6-62.3104-1.1776-6.5024-1.8944-13.1584-1.8944-20.0192 0-62.7712 51.0976-113.8688 113.8688-113.8688 15.7696 0 30.7712 3.2256 44.4416 9.0624 39.3728-43.1104 72.9088-91.648 99.328-144.3328h-297.984c-61.5424 0.0512-111.36 49.8688-111.36 111.36z" fill="#6BC2FC" ></path></svg>