<svg viewBox="0 0 1024 1024" version="1.1" xmlns="http://www.w3.org/2000/svg"><path d="M851.6096 136.8064H168.448c-44.0832 0-79.872 35.7376-79.872 79.872v479.1808c0 44.0832 35.7376 79.872 79.872 79.872h95.6928l0.8704 105.5232c0.1536 15.5648 16.7424 25.4464 30.5152 18.176l232.704-123.6992h323.3792c44.0832 0 79.872-35.7376 79.872-79.872v-479.232c0-44.0832-35.7376-79.8208-79.872-79.8208z m-287.3856 453.6832H296.192c-23.9616 0-43.3664-19.4048-43.3664-43.3664s19.4048-43.3664 43.3664-43.3664h268.032c23.9616 0 43.3664 19.4048 43.3664 43.3664s-19.4048 43.3664-43.3664 43.3664z m168.3968-175.5136H296.192c-23.9616 0-43.3664-19.4048-43.3664-43.3664s19.4048-43.3664 43.3664-43.3664h436.48c23.9616 0 43.3664 19.4048 43.3664 43.3664s-19.456 43.3664-43.4176 43.3664z" fill="#FC7032" ></path><path d="M931.4816 216.6272c0-44.0832-35.7376-79.872-79.872-79.872H168.448c-44.0832 0-79.872 35.7376-79.872 79.872v479.1808c0 44.0832 35.7376 79.872 79.872 79.872h95.6928l0.256 31.8976c25.088 3.072 50.5856 4.8128 76.544 4.8128 53.3504 0 105.0624-6.7072 154.3168-19.2l32.9728-17.5104h24.3712c190.6688-68.5568 335.5648-227.072 378.88-421.7856V216.6272z m-367.2576 373.8624H296.192c-23.9616 0-43.3664-19.4048-43.3664-43.3664 0-23.9616 19.4048-43.3664 43.3664-43.3664h268.032c23.9616 0 43.3664 19.4048 43.3664 43.3664 0 23.9616-19.4048 43.3664-43.3664 43.3664z m168.3968-175.5136H296.192c-23.9616 0-43.3664-19.4048-43.3664-43.3664 0-23.9616 19.4048-43.3664 43.3664-43.3664h436.48c23.9616 0 43.3664 19.4048 43.3664 43.3664-0.0512 23.9616-19.456 43.3664-43.4176 43.3664z" fill="#FF7E3E" ></path><path d="M88.6272 216.6272v383.5392c28.4672 3.9424 57.4976 6.0928 87.0912 6.0928 48.0768 0 94.7712-5.5808 139.6224-15.7696h-19.2c-23.9616 0-43.3664-19.4048-43.3664-43.3664 0-23.9616 19.4048-43.3664 43.3664-43.3664h222.1568c38.656-25.6512 74.0864-55.4496 105.5232-88.832h-327.68c-23.9616 0-43.3664-19.4048-43.3664-43.3664 0-23.9616 19.4048-43.3664 43.3664-43.3664h395.1616c36.864-57.9072 63.3856-122.5216 77.2608-191.488H168.448c-44.0832 0.1024-79.8208 35.84-79.8208 79.9232z" fill="#FF9552" ></path><path d="M88.6272 216.6272v180.8896c58.5728-5.9904 114.5856-20.0704 166.9632-40.96 6.144-16.4864 21.9648-28.2624 40.6016-28.2624h20.1728c86.528-46.1312 159.9488-112.0768 213.76-191.488H168.448c-44.0832 0-79.8208 35.7376-79.8208 79.8208z" fill="#FFA56A" ></path></svg>