<svg viewBox="0 0 1024 1024" version="1.1" xmlns="http://www.w3.org/2000/svg"><path d="M81.3568 182.272v656.9472c0 61.8496 69.8368 97.8432 120.2176 62.0032l147.6608-105.0112v43.008c0 61.8496 69.8368 97.8432 120.2176 62.0032l461.7728-328.448c42.6496-30.3616 42.6496-93.696 0-124.0064l-461.824-328.4992c-50.3808-35.84-120.2176 0.2048-120.2176 62.0032V225.28L201.5744 120.2688c-50.3808-35.84-120.2176 0.1536-120.2176 62.0032z m386.9696 142.5408c14.9504-24.2176 46.7456-31.6928 70.9632-16.7424l211.5072 130.7648c24.2176 14.9504 31.6928 46.7456 16.7424 70.9632a51.5072 51.5072 0 0 1-70.9632 16.7424L485.0688 395.776c-24.2176-15.0016-31.6928-46.7456-16.7424-70.9632z" fill="#FC7032" ></path><path d="M469.4016 120.2688c-50.3808-35.84-120.2176 0.2048-120.2176 62.0032V225.28L201.5744 120.2688c-50.3808-35.84-120.2176 0.2048-120.2176 62.0032v656.9472c0 61.8496 69.8368 97.8432 120.2176 62.0032l147.6608-105.0112v43.008c0 18.7392 6.4512 35.1232 16.7936 47.8208 170.2912-59.8528 307.3024-190.208 375.9616-356.1472-5.8368 2.2016-12.032 3.3792-18.2784 3.3792-9.2672 0-18.6368-2.5088-27.0848-7.7312L485.0688 395.776c-24.2176-14.9504-31.6928-46.7456-16.7424-70.9632s46.7456-31.6928 70.9632-16.7424l211.5072 130.7648c7.0656 4.352 12.6976 10.1888 16.7424 16.8448 9.6256-35.328 16.2816-71.8848 19.6608-109.3632L469.4016 120.2688z" fill="#FF8345" ></path><path d="M349.184 182.272V225.28L201.5744 120.2688c-50.3808-35.84-120.2176 0.2048-120.2176 62.0032v507.5968c179.712-28.2112 334.2848-131.8912 430.4384-277.5552l-26.7264-16.4864c-24.2176-14.9504-31.6928-46.7456-16.7424-70.9632s46.7456-31.6928 70.9632-16.7424l22.1184 13.6704c15.616-34.9696 28.16-71.5776 37.3248-109.5168L469.4016 120.2688c-50.3808-35.84-120.2176 0.1536-120.2176 62.0032z" fill="#FF9552" ></path><path d="M333.7728 214.3232L201.5744 120.2688c-50.3808-35.84-120.2176 0.2048-120.2176 62.0032v235.6736a636.34432 636.34432 0 0 0 252.416-203.6224zM395.008 112.4352c-26.0608 11.3664-45.824 36.9152-45.824 69.8368v10.2912c17.152-25.4464 32.4608-52.224 45.824-80.128z" fill="#FFA56A" ></path></svg>