<?xml version="1.0" standalone="no"?><!DOCTYPE svg PUBLIC "-//W3C//DTD SVG 1.1//EN" "http://www.w3.org/Graphics/SVG/1.1/DTD/svg11.dtd"><svg class="icon" width="66px" height="66.00px" viewBox="0 0 1024 1024" version="1.1" xmlns="http://www.w3.org/2000/svg"><path d="M512 64c247.424 0 448 200.576 448 448S759.424 960 512 960 64 759.424 64 512 264.576 64 512 64z" fill="#FF934A" /><path d="M525.442 519.666a10.686 10.686 0 0 0 0-15.332c-21.718-21.126-84.97-82.904-148.374-147.128-14.328-14.516-19.874-35.152-7.74-51.408 4.968-6.654 11.574-14.192 20.344-22.284 11.94-11.014 23.302-18.38 32.774-23.28 15.514-8.02 33.674-3.928 47.758 6.24 110.25 79.572 185.438 165.484 221.8 211.612 15.994 20.29 15.994 47.538 0 67.828-36.362 46.128-111.55 132.04-221.8 211.614-14.084 10.166-32.244 14.256-47.758 6.238-9.472-4.9-20.836-12.266-32.774-23.28-8.77-8.092-15.376-15.63-20.342-22.284-12.136-16.256-6.59-36.892 7.74-51.406 63.4-64.226 126.654-126.004 148.372-147.13z" fill="#FFFFFF" /></svg>