<svg viewBox="0 0 1024 1024" version="1.1" xmlns="http://www.w3.org/2000/svg"><path d="M829.0816 208.2304H474.368a28.5184 28.5184 0 0 1-19.5072-7.7312L374.0672 124.8256a28.37504 28.37504 0 0 0-19.5072-7.68h-155.136c-53.9648 0-97.6896 43.7248-97.6896 97.6896v584.3456c0 53.9648 43.7248 97.6896 97.6896 97.6896h629.6064c53.9648 0 97.6896-43.7248 97.6896-97.6896V305.8688c0-53.9136-43.7248-97.6384-97.6384-97.6384z m-164.1984 419.2768l-114.7392 110.6944c-20.4288 19.6608-52.6848 19.8656-73.3184 0.4608l-112.7424-106.1376c-21.3504-20.1216-22.3744-53.76-2.2528-75.1104s53.76-22.3744 75.1104-2.2528l23.6032 22.2208V425.9328c0-29.3376 23.808-53.1456 53.1456-53.1456s53.1456 23.808 53.1456 53.1456v148.48l24.2688-23.3984c10.2912-9.9328 23.6032-14.8992 36.864-14.8992 13.9264 0 27.8528 5.4272 38.2464 16.2304a53.0944 53.0944 0 0 1-1.3312 75.1616z" fill="#FF8E12" ></path><path d="M926.72 305.8688c0-53.9648-43.7248-97.6896-97.6896-97.6896H474.368a28.5184 28.5184 0 0 1-19.5072-7.7312L374.0672 124.8256a28.37504 28.37504 0 0 0-19.5072-7.68h-155.136c-53.9648 0-97.6896 43.7248-97.6896 97.6896v584.3456c0 53.9648 43.7248 97.6896 97.6896 97.6896h242.2272c228.8128-48.5376 413.3376-216.7808 485.0688-436.0704V305.8688z m-261.8368 321.6384l-114.7392 110.6944c-20.4288 19.6608-52.6848 19.8656-73.3184 0.4608l-112.7424-106.1376c-21.3504-20.1216-22.3744-53.76-2.2528-75.1104s53.76-22.3744 75.1104-2.2528l23.6032 22.2208V425.9328c0-29.3376 23.808-53.1456 53.1456-53.1456s53.1456 23.808 53.1456 53.1456v148.48l24.2688-23.3984c10.2912-9.9328 23.6032-14.8992 36.864-14.8992 13.9264 0 27.8528 5.4272 38.2464 16.2304a53.0944 53.0944 0 0 1-1.3312 75.1616z" fill="#FCA315" ></path><path d="M474.368 208.2304a28.5184 28.5184 0 0 1-19.5072-7.7312L374.0672 124.8256a28.37504 28.37504 0 0 0-19.5072-7.68h-155.136c-53.9648 0-97.6896 43.7248-97.6896 97.6896v463.616c8.192 0.3072 16.384 0.512 24.6784 0.512 84.3776 0 165.0176-15.9744 239.0528-45.1072l-1.3824-1.3312c-21.3504-20.1216-22.3744-53.76-2.2528-75.1104s53.76-22.3744 75.1104-2.2528l23.6032 22.2208V425.9328c0-29.3376 23.808-53.1456 53.1456-53.1456s53.1456 23.808 53.1456 53.1456v82.3808c87.552-79.872 153.344-183.1936 187.3408-300.0832H474.368z" fill="#FCB138" ></path><path d="M468.224 207.4624a27.904 27.904 0 0 1-13.312-6.9632L374.0672 124.8256a28.37504 28.37504 0 0 0-19.5072-7.68h-155.136c-53.9648 0-97.6896 43.7248-97.6896 97.6896v217.7536c146.5856-32 274.7904-113.0496 366.4896-225.1264z" fill="#FFC65E" ></path></svg>