<svg viewBox="0 0 1024 1024" version="1.1" xmlns="http://www.w3.org/2000/svg"><path d="M367.7696 193.6384c0-44.3904-36.4544-91.6992-58.368-91.6992-22.3744 0-58.368 52.224-58.368 91.6992 0 32.256 26.112 58.368 58.368 58.368s58.368-26.112 58.368-58.368z" fill="#6BC2FC" ></path><path d="M563.456 193.6384c0-44.3904-36.4544-91.6992-58.368-91.6992-22.3744 0-58.368 52.224-58.368 91.6992 0 32.256 26.112 58.368 58.368 58.368s58.368-26.112 58.368-58.368z" fill="#56B0F4" ></path><path d="M758.784 193.6384c0-44.3904-36.4544-91.6992-58.368-91.6992-22.3744 0-58.368 52.224-58.368 91.6992 0 32.256 26.112 58.368 58.368 58.368s58.368-26.112 58.368-58.368z" fill="#3A9CED" ></path><path d="M905.4208 526.2336c0-38.6048-19.456-69.9392-43.4176-69.9392-11.3664 0-21.7088 7.1168-29.44 18.5856L760.832 308.6336a31.488 31.488 0 0 0-28.928-18.9952H283.2384c-12.9536 0-24.576 7.8848-29.2864 19.968L189.1328 474.0096c-7.68-11.008-17.7664-17.7152-28.8256-17.7152-24.0128 0-43.4176 31.3344-43.4176 69.9392 0 38.144 18.9952 69.12 42.5984 69.888v298.496c0 17.408 14.08 31.488 31.488 31.488h61.0816c17.408 0 31.488-14.08 31.488-31.488v-16.384c0-17.408 14.08-31.488 31.488-31.488h393.984c17.408 0 31.488 14.08 31.488 31.488v16.384c0 17.408 14.08 31.488 31.488 31.488h61.0816c17.408 0 31.488-14.08 31.488-31.488V595.968c22.784-2.2528 40.8576-32.5632 40.8576-69.7344z m-660.3776-3.1744L294.4 359.424c1.536-5.0688 6.1952-8.4992 11.4688-8.4992h412.3648c5.2736 0 9.9328 3.4304 11.4688 8.4992l49.408 163.6352c2.304 7.68-3.4304 15.4112-11.4688 15.4112H256.4608c-7.9872 0-13.7728-7.7312-11.4176-15.4112z m54.0672 205.4656c-34.8672 0-63.1296-28.2624-63.1296-63.1296s28.2624-63.1296 63.1296-63.1296 63.1296 28.2624 63.1296 63.1296-28.2624 63.1296-63.1296 63.1296z m425.1136 0c-34.8672 0-63.1296-28.2624-63.1296-63.1296s28.2624-63.1296 63.1296-63.1296c34.8672 0 63.1296 28.2624 63.1296 63.1296s-28.2624 63.1296-63.1296 63.1296z" fill="#2595E8" ></path><path d="M861.952 456.2944c-11.3664 0-21.7088 7.1168-29.44 18.5856l-71.7312-166.2464a31.488 31.488 0 0 0-28.928-18.9952H283.2384c-12.9536 0-24.576 7.8848-29.2864 19.968L189.1328 474.0096c-7.68-11.008-17.7664-17.7152-28.8256-17.7152-24.0128 0-43.4176 31.3344-43.4176 69.9392 0 38.144 18.9952 69.12 42.5984 69.888v298.496c0 3.9936 0.8192 7.7824 2.2016 11.3152 32.1536 8.96 65.4336 15.2576 99.5328 18.6368 12.9024-3.9424 22.3744-15.7696 22.3744-30.0032v-16.384c0-17.408 14.08-31.488 31.488-31.488h302.0288c136.192-80.1792 237.2096-213.7088 274.2784-371.9168-7.8336-11.4688-18.1248-18.4832-29.44-18.4832zM245.0432 523.0592L294.4 359.424c1.536-5.0688 6.1952-8.4992 11.4688-8.4992h412.3648c5.2736 0 9.9328 3.4304 11.4688 8.4992l49.408 163.6352c2.304 7.68-3.4304 15.4112-11.4688 15.4112H256.4608c-7.9872 0-13.7728-7.7312-11.4176-15.4112z m54.0672 205.4656c-34.8672 0-63.1296-28.2624-63.1296-63.1296s28.2624-63.1296 63.1296-63.1296 63.1296 28.2624 63.1296 63.1296-28.2624 63.1296-63.1296 63.1296z m425.1136 0c-34.8672 0-63.1296-28.2624-63.1296-63.1296s28.2624-63.1296 63.1296-63.1296c34.8672 0 63.1296 28.2624 63.1296 63.1296s-28.2624 63.1296-63.1296 63.1296z" fill="#3A9CED" ></path><path d="M700.416 101.9392c-22.3744 0-58.368 52.224-58.368 91.6992 0 32.256 26.112 58.368 58.368 58.368 13.5168 0 25.9584-4.6592 35.8912-12.3904 5.6832-30.7712 9.0112-62.3616 9.728-94.6176-12.5952-24.6272-31.9488-43.0592-45.6192-43.0592zM159.4368 719.0016c32.768 0 64.8704-2.7648 96.1536-7.936a62.8736 62.8736 0 0 1-19.6096-45.6704c0-34.8672 28.2624-63.1296 63.1296-63.1296s63.1296 28.2624 63.1296 63.1296c0 6.4512-0.9728 12.6464-2.7648 18.5344 85.3504-30.976 161.4848-81.2032 223.1808-145.4592H256.512c-8.0384 0-13.7728-7.7312-11.4688-15.4112L294.4 359.424c1.536-5.0688 6.1952-8.4992 11.4688-8.4992h398.08c7.9872-19.9168 14.9504-40.3456 20.7872-61.2864H283.2384c-12.9536 0-24.576 7.8848-29.2864 19.968L189.1328 474.0096c-7.68-11.008-17.7664-17.7152-28.8256-17.7152-24.0128 0-43.4176 31.3344-43.4176 69.9392 0 38.144 18.9952 69.12 42.5984 69.888v122.88z" fill="#56B0F4" ></path><path d="M505.088 101.9392c-22.3744 0-58.368 52.224-58.368 91.6992 0 30.1056 22.784 54.8864 52.0704 58.0096a585.7792 585.7792 0 0 0 54.528-101.12c-12.4416-27.3408-33.5872-48.5888-48.2304-48.5888zM266.0864 453.3248L294.4 359.424c1.536-5.0688 6.1952-8.4992 11.4688-8.4992h108.7488c20.1728-19.0464 38.9632-39.5264 56.2688-61.2864H283.2384c-12.9536 0-24.576 7.8848-29.2864 19.968L189.1328 474.0096c-7.68-11.008-17.7664-17.7152-28.8256-17.7152-18.5344 0-34.304 18.688-40.5504 44.9536 51.456-9.6256 100.5568-25.856 146.3296-47.9232z" fill="#6BC2FC" ></path></svg>