<svg viewBox="0 0 1024 1024" version="1.1" xmlns="http://www.w3.org/2000/svg"><path d="M634.1632 822.8352c9.6256 25.1904 44.0832 37.632 66.9184 29.2352 27.4944-11.3152 54.7328-23.3472 82.0224-35.2256 37.9392-16.5376 76.4416-32 113.6128-50.1248 77.1584-37.5296 93.44-141.0048 31.3856-200.3968-37.4784-35.84-82.1248-44.0832-131.2768-27.0848-3.1232 1.0752-6.1952 2.3552-8.1408 3.072-8.3968-12.4416-15.36-25.088-24.576-35.7888-22.528-26.1632-51.6096-40.2432-86.1696-42.1376-44.5952-2.4576-80.896 14.5408-107.1616 50.0224-28.416 38.4512-32.2048 80.896-13.9776 125.2352l77.3632 183.1936z" fill="#F23D4F" ></path><path d="M570.6752 848.6912l-76.9024-182.3744c-27.8528-67.6864-19.968-135.8848 22.016-192.6656 39.8336-53.8624 98.7648-81.4592 166.0928-77.7728 53.4016 2.9696 99.8912 25.7536 134.4 65.8944 0.6144 0.7168 1.2288 1.4336 1.792 2.1504 9.0112-1.2288 17.92-1.7408 26.7776-1.6896 28.8768-79.616 19.8656-155.8016-31.4368-225.2288-49.8688-67.4816-118.9376-99.84-203.6736-95.1296-65.7408 3.6352-121.0368 30.3616-163.84 80.128-17.5104 20.3776-30.72 44.3904-46.6944 68.0448-3.6864-1.3824-9.5232-3.7888-15.4624-5.8368-93.3888-32.3584-178.2784-16.6912-249.4976 51.5072-117.9648 112.9472-87.0912 309.5552 59.5968 380.928 70.7072 34.4064 143.872 63.7952 216.0128 95.2832 51.8656 22.6304 103.6288 45.4656 155.9552 67.0208 8.2944 3.072 17.408 4.3008 26.8288 4.096-9.3184-10.0352-16.896-21.504-21.9648-34.3552z" fill="#FC4956" ></path><path d="M882.432 537.2928c-26.368-9.4208-55.0912-8.6016-85.5552 1.9456-3.1232 1.0752-6.1952 2.3552-8.1408 3.072-8.3968-12.4416-15.36-25.088-24.576-35.7888-22.528-26.1632-51.6096-40.2432-86.1696-42.1376-44.5952-2.4576-80.896 14.5408-107.1616 50.0224-28.416 38.4512-32.2048 80.896-13.9776 125.2352l77.2608 183.1936c3.8912 10.1376 11.776 18.176 21.3504 23.6544 107.264-75.5712 187.0848-184.576 226.9696-309.1968z" fill="#FC4956" ></path><path d="M712.6016 157.2864c-31.0784-12.288-65.4848-17.5104-103.0144-15.4112-65.7408 3.6352-121.0368 30.3616-163.84 80.128-17.5104 20.3776-30.72 44.4416-46.6944 68.0448-3.6864-1.3824-9.5232-3.7888-15.4624-5.8368-93.3888-32.3584-178.2784-16.6912-249.4976 51.5072-117.9648 112.9472-87.0912 309.5552 59.5968 380.928 25.0368 12.1856 50.3808 23.7056 75.8784 34.9696a597.75488 597.75488 0 0 0 215.7568-109.4144c-17.1008-59.5968-6.6048-118.528 30.3616-168.5504 37.3248-50.4832 91.4944-77.9264 153.5488-78.08 29.952-74.1376 45.3632-154.9312 43.3664-238.2848z" fill="#FF5C64" ></path><path d="M633.6 469.1456c-24.7808 7.2704-45.8752 22.4256-62.7712 45.2608-16.9472 22.9376-25.088 47.2576-25.0368 72.5504 33.9456-35.5328 63.4368-75.1616 87.808-117.8112z" fill="#FF5C64" ></path><path d="M496.64 177.3056c-18.4832 11.9296-35.5328 26.7776-50.8928 44.6464-17.5104 20.3776-30.72 44.4416-46.6944 68.0448-3.6864-1.3824-9.5232-3.7888-15.4624-5.8368-93.3888-32.3584-178.2784-16.6912-249.4976 51.5072C67.1744 399.7184 48.2304 490.6496 71.0144 570.368c204.8-50.7392 361.8304-203.0592 425.6256-393.0624z" fill="#FF716E" ></path></svg>