<svg viewBox="0 0 1024 1024" version="1.1" xmlns="http://www.w3.org/2000/svg"><path d="M234.24 499.5584l65.9968-71.7824a37.42208 37.42208 0 0 1 31.6928-11.8272c11.8272 1.3312 22.3232 8.2944 28.2112 18.6368l48.0768 84.5312L473.088 379.4432a37.376 37.376 0 0 1 33.6384-21.6064c14.336 0.1536 27.648 8.192 33.8944 21.1968l74.0352 154.6752 23.3472-49.4592a37.30432 37.30432 0 0 1 33.7408-21.4016h278.016c7.3216-39.7312 6.8608-81.7664-3.0208-126.6688-31.744-144.384-144.7424-234.7008-305.3568-202.2912-50.432 10.1888-90.2144 37.888-125.6448 74.0864-2.9696-1.28-4.1984-1.536-5.0176-2.2528-2.2528-1.8944-4.4544-3.84-6.5024-5.9392-46.08-47.7184-103.0656-69.632-168.5504-72.2944-78.2848-3.1744-144.7936 22.5792-194.6112 83.5072C75.5712 291.1744 57.856 401.2032 87.3984 499.5584h146.8416z" fill="#F23D4F" ></path><path d="M695.3984 537.5488l-46.7456 99.072a37.38624 37.38624 0 0 1-33.6384 21.4016h-0.1024c-14.3872 0-27.4432-8.2432-33.6896-21.1968L507.4432 482.6624l-62.0544 133.5296a37.36576 37.36576 0 0 1-32.3072 21.5552c-13.9264 0.512-27.0848-6.7072-33.9968-18.8416L320.512 515.9424l-42.496 46.1824a37.40672 37.40672 0 0 1-27.4944 12.0832H120.7296c3.8912 6.4 7.9872 12.6976 12.3904 18.8416 41.6256 58.3168 91.9552 108.288 147.456 152.8832 57.1392 45.9264 115.5584 90.368 174.336 134.1952 36.864 27.4944 76.9024 29.44 111.36 4.5056 100.2496-72.6528 201.1648-144.64 284.9792-237.2096 31.3856-34.6624 56.7808-71.1168 74.6496-109.8752h-230.5024z" fill="#F23D4F" ></path><path d="M813.5168 151.7568c-47.7184-23.6032-105.8304-31.1296-172.1344-17.7664-50.432 10.1888-90.2144 37.888-125.6448 74.0864-2.9696-1.28-4.1984-1.536-5.0176-2.2528-2.2528-1.8944-4.4544-3.84-6.5024-5.9392-46.08-47.7184-103.0656-69.632-168.5504-72.2944-78.2848-3.1744-144.7936 22.5792-194.6112 83.5072C75.5712 291.1744 57.856 401.2032 87.3984 499.5584h146.7904l65.9968-71.7824a37.42208 37.42208 0 0 1 31.6928-11.8272c11.8272 1.3312 22.3232 8.2944 28.2112 18.6368l48.0768 84.5312L473.088 379.4432a37.376 37.376 0 0 1 33.6384-21.6064c14.336 0.1536 27.648 8.192 33.8944 21.1968l74.0352 154.6752 23.3472-49.4592a37.30432 37.30432 0 0 1 33.7408-21.4016h128.5632c17.9712-56.832 27.648-117.3504 27.648-180.1216 0-44.9536-5.0176-88.832-14.4384-130.9696z" fill="#FC4956" ></path><path d="M771.0208 537.5488h-75.6224l-46.7456 99.072a37.38624 37.38624 0 0 1-33.6384 21.4016h-0.1024c-14.3872 0-27.4432-8.2432-33.6896-21.1968L507.4432 482.6624l-62.0544 133.5296a37.36576 37.36576 0 0 1-32.3072 21.5552c-13.9264 0.512-27.0848-6.7072-33.9968-18.8416L320.512 515.9424l-42.496 46.1824a37.40672 37.40672 0 0 1-27.4944 12.0832H120.7296c3.8912 6.4 7.9872 12.6976 12.3904 18.8416 41.6256 58.3168 91.9552 108.288 147.456 152.8832 44.4928 35.7376 89.7536 70.6048 135.3216 104.96 157.0304-51.2 285.3888-165.6832 355.1232-313.344z" fill="#FC4956" ></path><path d="M641.3824 133.9904c-50.432 10.1888-90.2144 37.888-125.6448 74.0864-2.9696-1.28-4.1984-1.536-5.0176-2.2528-2.2528-1.8944-4.4544-3.84-6.5024-5.9392-46.08-47.7184-103.0656-69.632-168.5504-72.2944-78.2848-3.1744-144.7936 22.5792-194.6112 83.5072C75.5712 291.1744 57.856 401.2032 87.3984 499.5584h146.7904l65.9968-71.7824a37.42208 37.42208 0 0 1 31.6928-11.8272c11.8272 1.3312 22.3232 8.2944 28.2112 18.6368l48.0768 84.5312L473.088 379.4432a37.376 37.376 0 0 1 33.6384-21.6064c14.336 0.1536 27.648 8.192 33.8944 21.1968l16.1792 33.7408a594.3296 594.3296 0 0 0 104.7552-282.2656c-6.656 1.024-13.3632 2.0992-20.1728 3.4816zM320.5632 515.9424l-42.496 46.1824a37.40672 37.40672 0 0 1-27.4944 12.0832H120.7296c3.8912 6.4 7.9872 12.6976 12.3904 18.8416 15.9232 22.3232 33.1776 43.4176 51.456 63.4368 63.5904-12.6976 123.4944-35.4304 178.0736-66.56l-42.0864-73.984z" fill="#FF5C64" ></path><path d="M437.8112 151.552c-31.0784-14.8992-65.2288-22.4768-102.144-23.9616-78.2848-3.1744-144.7936 22.5792-194.6112 83.5072-51.5072 62.976-73.3184 144.4864-65.9968 224.3072 155.392-42.6496 285.4912-146.3808 362.752-283.8528z" fill="#FF716E" ></path></svg>