<svg viewBox="0 0 1024 1024" version="1.1" xmlns="http://www.w3.org/2000/svg"><path d="M955.648 421.5808l-108.9536 4.7104 2.4064 56.5248-49.8688-30.3616a270.35136 270.35136 0 0 0 12.8512-82.5856c0-149.76-121.856-271.6672-271.616-271.6672S268.8 220.0576 268.8 369.8688s121.856 271.616 271.6672 271.616c81.92 0 155.392-36.5056 205.2096-94.0032l52.8384 32.2048-56.2688 32.512 54.528 94.464 166.912-96.3584-8.0384-188.7232z m-415.1296 110.7968c-89.6512 0-162.56-72.9088-162.56-162.56s72.96-162.56 162.56-162.56 162.56 72.96 162.56 162.56-72.9088 162.56-162.56 162.56z" fill="#F23D4F" ></path><path d="M397.3632 692.0704c18.7392-4.352 36.8128-10.5984 53.8624-18.5856-54.0672-15.872-102.0416-45.7728-139.8784-85.4528-77.7728-12.0832-137.472-79.5136-137.472-160.6656 0-49.408 22.1696-93.696 57.088-123.5456a315.38176 315.38176 0 0 1 74.8544-146.3296c-135.424 15.2576-240.9984 130.4576-240.9984 269.8752 0 133.376 96.6144 244.48 223.488 267.264v42.7008H195.2768v109.056H288.256v77.9264h109.056v-77.9264h92.9792v-109.056H397.3632v-45.2608z" fill="#F23D4F" ></path><path d="M812.1344 369.8176c0-149.76-121.856-271.6672-271.616-271.6672s-271.6672 121.856-271.6672 271.6672 121.856 271.616 271.6672 271.616c81.92 0 155.392-36.5056 205.2096-94.0032l8.7552 5.3248c24.6272-44.9024 43.1616-93.5424 54.9376-144.7936 1.7408-12.4416 2.7136-25.1904 2.7136-38.144z m-271.616 162.56c-89.6512 0-162.56-72.9088-162.56-162.56 0-89.6512 72.96-162.56 162.56-162.56s162.56 72.96 162.56 162.56c0 89.6512-72.9088 162.56-162.56 162.56z" fill="#FC4956" ></path><path d="M397.3632 692.0704c18.7392-4.352 36.8128-10.5984 53.8624-18.5856-54.0672-15.872-102.0416-45.7728-139.8784-85.4528-77.7728-12.0832-137.472-79.5136-137.472-160.6656 0-49.408 22.1696-93.696 57.088-123.5456a315.38176 315.38176 0 0 1 74.8544-146.3296c-135.424 15.2576-240.9984 130.4576-240.9984 269.8752 0 133.376 96.6144 244.48 223.488 267.264v42.7008H195.2768v106.4448c10.2912 1.1264 20.6848 2.048 31.1296 2.6112h61.9008v0.0512c71.7312-3.84 139.8784-21.1456 202.0352-49.2032v-59.904H397.3632v-45.2608z" fill="#FC4956" ></path><path d="M377.9072 369.8176c0-89.6512 72.96-162.56 162.56-162.56 39.5264 0 75.776 14.1824 103.9872 37.7344 11.264-37.0688 18.7392-75.7248 22.2208-115.5584a270.08 270.08 0 0 0-126.208-31.1808c-149.76 0-271.6672 121.856-271.6672 271.6672 0 84.5824 38.912 160.256 99.7376 210.1248 34.816-18.5344 67.4304-40.6016 97.4336-65.6896-52.224-27.1872-88.064-81.7152-88.064-144.5376z" fill="#FF5C64" ></path><path d="M311.3472 587.9808c-77.7728-12.0832-137.472-79.5136-137.472-160.6656 0-49.408 22.1696-93.696 57.088-123.5456a315.38176 315.38176 0 0 1 74.8544-146.3296c-135.424 15.2576-240.9984 130.4576-240.9984 269.8752 0 87.2448 41.3696 165.0176 105.5232 214.6816 54.1184-6.4512 105.9328-20.3776 154.2656-41.0112-4.5568-4.1472-9.0112-8.4992-13.2608-13.0048z" fill="#FF5C64" ></path><path d="M230.9632 303.8208a315.38176 315.38176 0 0 1 74.8544-146.3296c-135.424 15.2576-240.9984 130.4576-240.9984 269.8752 0 2.9184 0.1024 5.7856 0.2048 8.6528 38.4-7.168 75.4688-18.176 110.6944-32.7168 5.888-39.5776 26.112-74.5984 55.2448-99.4816zM269.3632 353.9456c92.3136-60.2624 165.9392-146.688 210.3808-248.832-115.6608 26.5216-203.3152 127.0272-210.3808 248.832z" fill="#FF716E" ></path></svg>