<?xml version="1.0" standalone="no"?><!DOCTYPE svg PUBLIC "-//W3C//DTD SVG 1.1//EN" "http://www.w3.org/Graphics/SVG/1.1/DTD/svg11.dtd"><svg class="icon" width="66px" height="66.00px" viewBox="0 0 1024 1024" version="1.1" xmlns="http://www.w3.org/2000/svg"><path d="M453.132 111.504c25.334-47.34 92.4-47.34 117.736 0L680.2 315.716l225.168 42.956c51.968 9.916 72.62 74.098 36.4 113.14l-157.608 169.836 29.456 231.306c6.788 53.312-47.4 93.072-95.29 69.91L512 843.094l-206.328 99.77c-47.892 23.162-102.078-16.6-95.29-69.91l29.456-231.306-157.608-169.838c-36.22-39.042-15.568-103.22 36.4-113.14L343.8 315.718l109.334-204.212z" fill="#FF934A" /><path d="M719.336 447.1c16.42-31.864 61.712-31.864 78.132 0l40.23 78.044 86.756 17.184c33.512 6.642 47.064 47.512 24.216 73.074l-61.96 69.336 11.268 91.872c4.3 35.056-31.92 60.84-63.348 45.046l-76.228-38.28-76.228 38.28c-31.428 15.792-67.648-9.99-63.348-45.046l11.268-91.872-61.96-69.336c-22.848-25.562-9.296-66.432 24.216-73.074l86.756-17.184 40.23-78.042z" fill="#FCDA6E" /></svg>