<svg viewBox="0 0 1024 1024" version="1.1" xmlns="http://www.w3.org/2000/svg"><path d="M56.0128 353.792l103.0144 129.5872s129.5872-119.6032 365.5168-119.6032 322.304 119.6032 322.304 119.6032l111.3088-129.5872s-111.3088-159.488-433.664-159.488-468.48 159.488-468.48 159.488z" fill="#BD50D3" ></path><path d="M210.5344 544.8192s108.3392-102.5024 296.9088-102.5024 286.2592 102.5024 286.2592 102.5024l-88.064 114.6368s-57.7536-64.3072-199.7824-64.3072c-129.6896 0-193.9968 64.3072-193.9968 64.3072l-101.3248-114.6368zM502.1184 895.3856l-139.5712-174.4384s41.5232-48.1792 139.5712-48.1792 147.0464 45.6704 147.0464 45.6704l-147.0464 176.9472z" fill="#BD50D3" ></path><path d="M56.0128 353.792l103.0144 129.5872s129.5872-119.6032 365.5168-119.6032c104.448 0 179.5584 23.4496 230.8608 49.5616 1.28-14.2848 2.048-28.7232 2.048-43.3664 0-52.1728-8.5504-102.3488-24.1152-149.2992-56.7296-15.7184-125.696-26.368-208.7936-26.368C202.24 194.2528 56.0128 353.792 56.0128 353.792z" fill="#C65EDB" ></path><path d="M738.3552 503.2448c-47.3088-28.416-124.672-60.928-230.912-60.928-188.5696 0-296.9088 102.5024-296.9088 102.5024l101.376 114.6368s64.256-64.3072 193.9968-64.3072c84.6336 0 139.3152 22.8352 169.6768 41.2672a472.4224 472.4224 0 0 0 62.7712-133.1712zM622.848 700.8768c-23.9104-12.9024-64.1024-28.1088-120.7296-28.1088-98.048 0-139.5712 48.1792-139.5712 48.1792l77.4144 96.7168c69.888-24.4736 132.2496-64.8192 182.8864-116.7872z" fill="#C65EDB" ></path><path d="M56.0128 353.792l103.0144 129.5872s129.5872-119.6032 365.5168-119.6032c28.0576 0 53.9136 1.7408 77.8752 4.7104a474.1888 474.1888 0 0 0 25.2928-152.7296c0-5.2224-0.2048-10.3424-0.4096-15.5136-31.5904-3.7376-65.7408-5.888-102.7584-5.888C202.24 194.2528 56.0128 353.792 56.0128 353.792zM507.4432 442.3168c-188.5696 0-296.9088 102.5024-296.9088 102.5024l101.376 114.6368s37.7344-37.6832 113.6128-55.3472a476.3648 476.3648 0 0 0 142.4896-158.1056c-19.0464-2.304-39.168-3.6864-60.5696-3.6864z" fill="#CA6EE0" ></path><path d="M56.0128 353.792l103.0144 129.5872s56.7808-52.3776 163.584-87.808c62.208-52.736 110.6944-121.088 139.2128-199.168C183.2448 215.0912 56.0128 353.792 56.0128 353.792z" fill="#D786EA" ></path></svg>