<svg viewBox="0 0 1024 1024" version="1.1" xmlns="http://www.w3.org/2000/svg"><path d="M842.7008 150.9376H181.1456c-49.2032 0-89.0368 39.8848-89.0368 89.0368v454.0416c0 49.2032 39.8848 89.0368 89.0368 89.0368H403.968c9.1136 0 17.8176 3.84 23.9616 10.5472l61.1328 66.6624c13.1584 14.3872 35.9424 14.0288 48.6912-0.768l55.9104-65.0752a32.47616 32.47616 0 0 1 24.6784-11.3152h224.3072c49.2032 0 89.0368-39.8848 89.0368-89.0368V239.9744c0.0512-49.152-39.8336-89.0368-88.9856-89.0368z m-463.36 413.44c0 13.7728-8.7552 26.0608-21.76 30.5664-13.0048 4.5056-27.4432 0.256-35.9936-10.5984L236.4928 475.904v95.3344a32.3072 32.3072 0 1 1-64.6144 0V382.3616c0-13.7728 8.7552-26.0608 21.76-30.5664 13.056-4.5056 27.4944-0.256 35.9936 10.5984l85.1456 108.4416V378.9312a32.3072 32.3072 0 1 1 64.6144 0v185.4464z m195.072 43.1104H446.208a32.3072 32.3072 0 0 1-32.3072-32.3072v-199.68a32.3072 32.3072 0 0 1 32.3072-32.3072h120.832a32.3072 32.3072 0 1 1 0 64.6144H478.5152v33.2288h90.4704a32.3072 32.3072 0 1 1 0 64.6144H478.5152v37.12h95.8976c17.8688 0 32.3072 14.4896 32.3072 32.3072s-14.4896 32.4096-32.3072 32.4096z m289.9968-222.1568l-35.2256 194.3552a32.38912 32.38912 0 0 1-27.8016 26.3168 32.44032 32.44032 0 0 1-33.4336-18.6368l-22.4256-49.0496-20.1728 48.896c-5.0176 12.1856-16.896 19.968-29.8496 19.968-1.1264 0-2.2528-0.0512-3.3792-0.1536a32.3328 32.3328 0 0 1-28.416-26.3168l-36.1984-196.864a32.32256 32.32256 0 1 1 63.5904-11.6736l16.384 89.088 6.7072-16.2816c4.9152-11.8784 16.384-19.712 29.2864-19.968h0.6144c12.6464 0 24.1152 7.3728 29.3888 18.8928l10.496 22.9376L800.768 373.76c3.1744-17.5616 20.0192-29.184 37.5808-26.0096a32.3584 32.3584 0 0 1 26.0608 37.5808z" fill="#05C46D" ></path><path d="M842.7008 150.9376H181.1456c-49.2032 0-89.0368 39.8848-89.0368 89.0368v454.0416c0 49.2032 39.8848 89.0368 89.0368 89.0368H403.968c9.1136 0 17.8176 3.84 23.9616 10.5472l32 34.8672c134.5536-36.1984 251.392-115.6096 334.6432-222.5152-11.4176-1.024-21.7088-7.936-26.624-18.688l-22.4256-49.0496-20.1728 48.896c-5.0176 12.1856-16.896 19.968-29.8496 19.968-1.1264 0-2.2528-0.0512-3.3792-0.1536a32.3328 32.3328 0 0 1-28.416-26.3168l-36.1984-196.864a32.32256 32.32256 0 1 1 63.5904-11.6736l16.384 89.088 6.7072-16.2816c4.9152-11.8784 16.384-19.712 29.2864-19.968h0.6144c12.6464 0 24.1152 7.3728 29.3888 18.8928l10.496 22.9376L800.768 373.76c3.1744-17.5616 20.0192-29.184 37.5808-26.0096 17.5616 3.1744 29.2352 20.0192 26.0096 37.5808l-29.44 162.3552c58.8288-96.0512 92.7744-208.9472 92.7744-329.8304 0-1.4848-0.0512-3.0208-0.0512-4.5056-11.3152-36.1472-45.056-62.4128-84.9408-62.4128z m-463.36 413.44c0 13.7728-8.7552 26.0608-21.76 30.5664-13.0048 4.5056-27.4432 0.256-35.9936-10.5984L236.4928 475.904v95.3344a32.3072 32.3072 0 1 1-64.6144 0V382.3616c0-13.7728 8.7552-26.0608 21.76-30.5664 13.056-4.5056 27.4944-0.256 35.9936 10.5984l85.1456 108.4416V378.9312a32.3072 32.3072 0 1 1 64.6144 0v185.4464z m195.072 43.1104H446.208a32.3072 32.3072 0 0 1-32.3072-32.3072v-199.68a32.3072 32.3072 0 0 1 32.3072-32.3072h120.832a32.3072 32.3072 0 1 1 0 64.6144H478.5152v33.2288h90.4704a32.3072 32.3072 0 1 1 0 64.6144H478.5152v37.12h95.8976c17.8688 0 32.3072 14.4896 32.3072 32.3072s-14.4896 32.4096-32.3072 32.4096z" fill="#1DCE75" ></path><path d="M478.5152 515.84c4.864-3.328 9.6256-6.7072 14.3872-10.1376h-14.3872v10.1376z" fill="#35D895" ></path><path d="M645.2224 349.0304a629.64736 629.64736 0 0 0 89.7024-198.0928H181.1456c-49.2032 0-89.0368 39.8848-89.0368 89.0368v384.8704c10.0352 0.4608 20.1216 0.7168 30.2592 0.7168 72.2944 0 141.7728-12.1856 206.4896-34.5088-2.7136-1.8432-5.1712-4.096-7.2704-6.7584L236.4928 475.904v95.3344a32.3072 32.3072 0 1 1-64.6144 0V382.3616c0-13.7728 8.7552-26.0608 21.76-30.5664 13.056-4.5056 27.4944-0.256 35.9936 10.5984l85.1456 108.4416V378.9312a32.3072 32.3072 0 1 1 64.6144 0v185.4464c0 2.4576-0.3584 4.864-0.9216 7.2192 12.032-5.3248 23.808-11.008 35.4304-17.0496V375.5008a32.3072 32.3072 0 0 1 32.3072-32.3072h120.832a32.3072 32.3072 0 1 1 0 64.6144H478.5152v33.2288h90.368c21.0432-20.992 40.6016-43.4688 58.5216-67.2256a32.12288 32.12288 0 0 1 17.8176-24.7808z" fill="#3CD38E" ></path><path d="M92.1088 239.9744v148.736c29.1328-6.0416 57.5488-14.08 85.0432-23.9616a32.31744 32.31744 0 0 1 16.4352-12.9024c6.0416-2.0992 12.3904-2.2016 18.3296-0.768 101.7856-43.5712 189.7984-113.0496 255.744-200.1408H181.1456c-49.152 0-89.0368 39.8848-89.0368 89.0368z" fill="#48E1AA" ></path></svg>