<svg viewBox="0 0 1024 1024" version="1.1" xmlns="http://www.w3.org/2000/svg"><path d="M578.816 615.5776c-19.1488 19.3024-44.544 28.9792-69.9904 28.9792-24.6784 0-49.408-9.1136-68.4032-27.4432L76.544 266.2912c-0.5632 4.352-0.9216 8.7552-0.9216 13.2608v473.3952c0 57.6 46.6944 104.2432 104.2432 104.2432h659.712c57.6 0 104.2432-46.6944 104.2432-104.2432V279.5008c0-9.6256-1.4336-18.944-3.84-27.8016l-361.1648 363.8784z" fill="#05C46D" ></path><path d="M496.1792 559.2576c7.1168 6.912 18.6368 6.7584 25.6512-0.256l368.0768-370.7904a103.58784 103.58784 0 0 0-50.2784-12.9536H179.8656c-22.8864 0-44.032 7.4752-61.2352 20.0192l377.5488 363.9808z" fill="#1DCE75" ></path><path d="M943.8208 279.5008c0-9.6256-1.4336-18.944-3.84-27.8016l-361.1648 363.8272c-19.1488 19.3024-44.544 28.9792-69.9904 28.9792-24.6784 0-49.408-9.1136-68.4032-27.4432L76.544 266.2912c-0.5632 4.352-0.9216 8.7552-0.9216 13.2608v473.3952c0 57.6 46.6944 104.2432 104.2432 104.2432h358.912c210.4832-74.1376 368.7424-258.9184 405.0432-484.5568V279.5008z" fill="#1DCE75" ></path><path d="M670.3616 409.344a615.424 615.424 0 0 0 100.3008-234.0864H179.8656c-22.8864 0-44.032 7.4752-61.2352 20.0192l377.4976 364.032a18.2272 18.2272 0 0 0 19.1488 3.84c2.56-1.792 5.1712-3.5328 7.68-5.376l147.4048-148.4288zM164.0448 672.5632c96.7168 0 188.2112-22.2208 269.7728-61.7984L76.544 266.2912c-0.5632 4.352-0.9216 8.7552-0.9216 13.2608v386.7136c28.8768 4.096 58.4192 6.2976 88.4224 6.2976z" fill="#3CD38E" ></path><path d="M179.8656 175.2576c-22.8864 0-44.032 7.4752-61.2352 20.0192l188.416 181.6576c88.0128-48.5888 162.9184-118.0672 218.0608-201.6768H179.8656zM228.9152 413.184L76.544 266.24c-0.5632 4.352-0.9216 8.7552-0.9216 13.2608v170.496c53.4528-5.7344 104.8576-18.3296 153.2928-36.8128z" fill="#48E1AA" ></path></svg>