<svg viewBox="0 0 1024 1024" version="1.1" xmlns="http://www.w3.org/2000/svg"><path d="M835.072 320.4096H201.8304c-47.3088 0-85.7088 38.3488-85.7088 85.7088v396.0832c0 47.3088 38.3488 85.7088 85.7088 85.7088H835.072c47.3088 0 85.7088-38.3488 85.7088-85.7088V406.1184c0-47.36-38.4-85.7088-85.7088-85.7088z m-170.8032 342.8864c-36.2496 40.0384-79.9232 71.2192-123.3408 102.656-14.8992 10.8032-32.256 9.9328-48.1792-1.9456-25.4464-18.9952-50.688-38.1952-75.4176-58.0608-24.0128-19.3024-45.824-40.9088-63.7952-66.1504-35.3792-49.6128-34.4064-118.9888 3.4304-165.2736 21.5552-26.368 50.3296-37.4784 84.224-36.1472 28.3648 1.1264 52.992 10.6496 72.9088 31.2832 0.8704 0.9216 1.8432 1.7408 2.816 2.56 0.3584 0.3072 0.8704 0.4096 2.1504 0.9728 15.3088-15.6672 32.5632-27.648 54.3744-32.0512 69.5296-14.0288 118.3744 25.0368 132.1472 87.552 11.5712 52.4288-6.4512 96.1536-41.3184 134.6048z" fill="#FF8E12" ></path><path d="M797.6448 280.1664H239.2576a30.8224 30.8224 0 1 1 0-61.6448h558.3872a30.8224 30.8224 0 1 1 0 61.6448zM733.4912 192.7168H303.36a30.8224 30.8224 0 1 1 0-61.6448h430.1312a30.8224 30.8224 0 1 1 0 61.6448zM201.8304 320.4096c-47.3088 0-85.7088 38.3488-85.7088 85.7088v396.0832c0 47.3088 38.3488 85.7088 85.7088 85.7088h372.5824c187.4432-104.8064 314.2144-305.2032 314.2144-535.2448 0-4.5056-0.0512-9.0112-0.1536-13.5168a85.30432 85.30432 0 0 0-53.3504-18.688H201.8304z m462.4384 342.8864c-36.2496 40.0384-79.9232 71.2192-123.3408 102.656-14.8992 10.8032-32.256 9.9328-48.1792-1.9456-25.4464-18.9952-50.688-38.1952-75.4176-58.0608-24.0128-19.3024-45.824-40.9088-63.7952-66.1504-35.3792-49.6128-34.4064-118.9888 3.4304-165.2736 21.5552-26.368 50.3296-37.4784 84.224-36.1472 28.3648 1.1264 52.992 10.6496 72.9088 31.2832 0.8704 0.9216 1.8432 1.7408 2.816 2.56 0.3584 0.3072 0.8704 0.4096 2.1504 0.9728 15.3088-15.6672 32.5632-27.648 54.3744-32.0512 69.5296-14.0288 118.4256 25.0368 132.1472 87.552 11.5712 52.4288-6.4512 96.1536-41.3184 134.6048z" fill="#FCA315" ></path><path d="M272.5376 161.8944c0 17.0496 13.824 30.8224 30.8224 30.8224h414.8224c1.792-18.9952 2.7136-38.2464 2.7136-57.7536 0-1.3312-0.0512-2.6112-0.0512-3.8912H303.4112c-17.0496 0-30.8736 13.7728-30.8736 30.8224z" fill="#FCB138" ></path><path d="M528.7424 131.072H303.4112a30.8224 30.8224 0 1 0 0 61.6448h198.5536c9.984-19.968 18.944-40.5504 26.7776-61.6448z" fill="#FFC65E" ></path><path d="M715.264 218.5216H239.2576a30.8224 30.8224 0 1 0 0 61.6448h464.3328c4.9152-20.1728 8.8064-40.7552 11.6736-61.6448z" fill="#FCB138" ></path><path d="M488.192 218.5216H239.2576a30.8224 30.8224 0 1 0 0 61.6448h209.152c14.4384-19.712 27.7504-40.2944 39.7824-61.6448z" fill="#FFC65E" ></path><path d="M116.1216 406.1184v341.6064c98.048-1.28 190.5152-25.4976 272.2816-67.6352-12.6464-12.4416-24.4736-25.7024-34.8672-40.3456-35.3792-49.6128-34.4064-118.9888 3.4304-165.2736 21.5552-26.368 50.3296-37.4784 84.224-36.1472 28.3648 1.1264 52.992 10.6496 72.9088 31.2832 0.8704 0.9216 1.8432 1.7408 2.816 2.56 0.3584 0.3072 0.8704 0.4096 2.1504 0.9728 15.3088-15.6672 32.5632-27.648 54.3744-32.0512 23.8592-4.8128 45.2608-3.2256 63.6928 3.2768 22.7328-38.8096 41.3184-80.3328 55.1936-123.9552h-490.496c-47.36 0-85.7088 38.3488-85.7088 85.7088z" fill="#FCB138" ></path><path d="M116.1216 406.1184v103.1168c118.0672-32.3072 221.952-99.072 300.0832-188.7744H201.8304c-47.36-0.0512-85.7088 38.2976-85.7088 85.6576z" fill="#FFC65E" ></path></svg>