<svg viewBox="0 0 1024 1024" version="1.1" xmlns="http://www.w3.org/2000/svg"><path d="M956.7744 366.5408v-83.456c0-62.1056-50.3296-112.4352-112.4352-112.4352H182.528c-62.1056 0-112.4352 50.3296-112.4352 112.4352v83.456h886.6816zM70.0928 444.1088v319.8464c0 62.1056 50.3296 112.4352 112.4352 112.4352H844.288c62.1056 0 112.4352-50.3296 112.4352-112.4352V444.1088H70.0928z m730.6752 284.928h-168.7552l54.016-120.4736h168.7552l-54.016 120.4736z" fill="#FF8E12" ></path><path d="M922.2144 315.392c0-42.0352-3.9936-83.0976-11.5712-122.9312-18.6368-13.6704-41.5232-21.8112-66.3552-21.8112H182.528c-62.1056 0-112.4352 50.3296-112.4352 112.4352v83.456h850.176c1.28-16.8448 1.9456-33.9456 1.9456-51.1488zM70.0928 444.1088v319.8464c0 62.1056 50.3296 112.4352 112.4352 112.4352h422.4c64.8192-39.0656 122.368-88.9856 169.984-147.3536h-142.8992l54.016-120.4736h166.9632c25.7536-51.3024 44.9536-106.496 56.5248-164.4544H70.0928z" fill="#FCA315" ></path><path d="M737.3824 170.6496H182.528c-62.1056 0-112.4352 50.3296-112.4352 112.4352v83.456h608.7168c29.184-60.672 49.2544-126.5664 58.5728-195.8912zM70.0928 737.1264c6.2464 0.1536 12.4928 0.3072 18.7904 0.3072 227.9424 0 428.5952-116.5824 545.792-293.2736H70.0928v292.9664z" fill="#FCB138" ></path><path d="M495.5648 170.6496H182.528c-62.1056 0-112.4352 50.3296-112.4352 112.4352v83.456h257.792a657.2288 657.2288 0 0 0 167.68-195.8912zM201.9328 444.1088H70.0928v45.3632c45.9776-10.4448 90.0608-25.8048 131.84-45.3632z" fill="#FFC65E" ></path></svg>