<svg viewBox="0 0 1024 1024" version="1.1" xmlns="http://www.w3.org/2000/svg"><path d="M484.096 843.4688c-16.3328-56.6272-45.7216-105.728-91.1872-143.7696-62.72-52.4288-137.1648-72.3456-217.3952-73.5744-9.3696 0-18.8416-0.768-28.1088 0.1536-21.1456 2.1504-37.2224 20.6848-35.7376 41.3696 2.816 38.0416 9.5744 75.3152 25.1392 110.4384 41.8816 94.5152 118.1696 146.7904 215.552 170.0864 33.4848 7.9872 68.864 9.5744 103.5264 10.752 29.1328 0.9728 47.1552-20.736 42.5984-47.4624-3.9424-22.784-7.9872-45.7728-14.3872-67.9936z" fill="#3A9CED" ></path><path d="M871.0144 625.6128c-43.2128-1.1776-85.6064 4.3008-126.7712 17.2544-65.0752 20.48-118.4256 57.4976-156.7744 114.688-30.464 45.4656-45.7216 96.256-53.6576 149.9136-4.3008 29.0304 10.24 49.3056 39.424 51.8144 6.1952 0.512 12.4928 0.1024 18.7392 0.1024 42.1376-1.3312 83.5584-6.7072 123.4944-21.0432 56.2176-20.1216 105.2672-50.944 142.6432-98.1504 37.12-46.8992 55.6544-101.0688 60.672-160.4096 3.1232-37.0688-10.7008-53.1968-47.7696-54.1696zM512.9216 335.9232h-0.1536c-15.5648 0.0512-30.464 6.2976-41.9328 17.7152-11.4176 11.3152-17.664 25.856-17.6128 41.0112 0.0512 17.8176 6.656 34.1504 18.6368 45.9776 11.0592 10.9056 25.7024 16.8448 41.216 16.64 16.1792-0.1536 31.2832-6.6048 42.496-18.1248 11.008-11.3152 16.9472-26.112 16.7424-41.7792-0.5632-35.6352-25.4976-61.44-59.392-61.44z" fill="#2595E8" ></path><path d="M762.624 391.3216c58.9824-53.504 54.016-121.2416 32.7168-161.536-12.032-22.7328-30.0544-39.8848-52.736-51.712-34.1504-17.8176-69.8368-18.688-105.8816-6.9632-28.7744-75.776-70.144-110.4384-129.3312-108.4416-28.416 0.9728-54.1696 9.8304-76.8512 27.392-26.624 20.5824-41.5744 48.1792-48.5888 81.0496-65.3824-18.3808-120.4736-3.584-156.1088 55.1936-37.0688 61.2352-19.8656 116.8384 28.5184 165.0688-58.368 52.8384-53.5552 120.064-32.256 159.6928 12.4928 23.2448 30.8736 41.2672 54.6816 53.504 34.048 17.4592 69.0688 18.4832 104.704 5.6832 19.2512 79.9232 77.1072 107.2128 123.3408 108.6464 63.0784 1.9456 101.888-29.7984 131.6352-108.032 67.328 16.0768 119.6032-0.3584 150.8864-46.0288 16.0256-23.3984 23.0912-48.9984 22.5792-76.9536-0.768-39.424-18.3296-70.912-47.3088-96.5632z m-251.8528 161.3312h-0.512c-39.168-0.1024-78.0288-16.7936-106.6496-45.7728-29.696-30.0544-45.824-70.4-45.4144-113.5104 0.8192-84.224 70.3488-152.7808 155.0336-152.7808h0.0512c42.3936 0 81.7664 16.5888 110.848 46.7456 29.44 30.464 44.8512 71.2704 43.3152 114.7904-2.9696 85.9136-70.2464 150.528-156.672 150.528zM809.2672 628.6848c-21.9648 2.816-43.6736 7.4752-65.024 14.1824-65.0752 20.48-118.4256 57.4976-156.7744 114.688-30.464 45.4656-45.7216 96.256-53.6576 149.9136-1.3824 9.472-0.768 18.0224 1.6896 25.2928 122.5216-66.8672 219.7504-174.2336 273.7664-304.0768z" fill="#3A9CED" ></path><path d="M687.8208 163.4304c-16.8448-0.6144-33.9456 2.0992-51.1488 7.6288-28.7744-75.776-70.144-110.4384-129.3312-108.4416-28.416 0.9728-54.1696 9.8304-76.8512 27.392-26.624 20.5824-41.5744 48.1792-48.5888 81.0496-65.3824-18.3808-120.4736-3.584-156.1088 55.1936-37.0688 61.2352-19.8656 116.8384 28.5184 165.0688-58.368 52.8384-53.5552 120.064-32.256 159.6928 12.4928 23.2448 30.8736 41.2672 54.6816 53.504 34.048 17.4592 69.0688 18.4832 104.704 5.6832 7.68 31.8464 21.504 55.2448 38.2976 72.0896a619.7248 619.7248 0 0 0 145.2544-138.9056 163.23584 163.23584 0 0 1-54.1696 9.2672h-0.512c-39.168-0.1024-78.0288-16.7936-106.6496-45.7728-29.696-30.0544-45.824-70.4-45.4144-113.5104 0.8192-84.224 70.3488-152.7808 155.0336-152.7808h0.0512c42.3936 0 81.7664 16.5888 110.848 46.7456 17.9712 18.5856 30.6176 41.0624 37.4784 65.5872 17.1008-56.5248 26.368-116.4288 26.368-178.5344-0.0512-3.6352-0.1536-7.2704-0.2048-10.9568zM175.4624 626.176c-9.3696 0-18.8416-0.768-28.1088 0.1536-21.1456 2.1504-37.2224 20.6848-35.7376 41.3696 2.816 38.0416 9.5744 75.3152 25.1392 110.4384 1.1264 2.56 2.4064 4.9664 3.584 7.4752 91.7504-9.984 177.408-40.0896 252.5184-85.9136-62.7712-52.4288-137.1648-72.2944-217.3952-73.5232z" fill="#59ADF8" ></path><path d="M358.4512 386.2528c3.4816-62.1056 44.288-114.6368 100.3008-135.7312a609.39776 609.39776 0 0 0 65.3312-187.2896c-5.4272-0.512-10.9568-0.768-16.7424-0.5632-28.416 0.9728-54.1696 9.8304-76.8512 27.392-26.624 20.5824-41.5744 48.1792-48.5888 81.0496-65.3824-18.3808-120.4736-3.584-156.1088 55.1936-37.0688 61.2352-19.8656 116.8384 28.5184 165.0688-37.3248 33.792-48.7424 73.5232-46.592 108.1344a617.7792 617.7792 0 0 0 150.7328-113.2544z" fill="#6BC2FC" ></path></svg>