<svg viewBox="0 0 1024 1024" version="1.1" xmlns="http://www.w3.org/2000/svg"><path d="M921.6512 216.2176c30.5152-31.0784 8.4992-83.6096-35.072-83.6096H136.96c-43.3664 0-65.4848 52.0704-35.3792 83.2512l368.7936 382.5152v206.4896H351.0272c-22.8352 0-41.3696 18.5344-41.3696 41.3696s18.5344 41.3696 41.3696 41.3696h321.4336c22.8352 0 41.3696-18.5344 41.3696-41.3696s-18.5344-41.3696-41.3696-41.3696h-119.3472v-213.504l368.5376-375.1424zM445.6448 439.296a35.4816 35.4816 0 0 1-24.4224 9.7792c-9.3696 0-18.7392-3.6864-25.7024-11.008L265.3696 301.056c-13.4656-14.1824-12.9024-36.6592 1.28-50.1248 14.1824-13.5168 36.6592-12.9024 50.1248 1.28L446.9248 389.12a35.50208 35.50208 0 0 1-1.28 50.176z" fill="#6C6CEA" ></path><path d="M678.1952 210.2784c0-26.5216-2.4064-52.4288-6.7584-77.6704H136.96c-43.3664 0-65.4848 52.0704-35.3792 83.2512L465.92 593.7664c127.488-80.0256 212.2752-221.7984 212.2752-383.488zM421.2224 449.024c-9.3696 0-18.7392-3.6864-25.7024-11.008L265.3696 301.056c-13.4656-14.1824-12.9024-36.6592 1.28-50.1248 14.1824-13.5168 36.6592-12.9024 50.1248 1.28L446.9248 389.12c13.4656 14.1824 12.9024 36.6592-1.28 50.1248a35.24608 35.24608 0 0 1-24.4224 9.7792z" fill="#757BF2" ></path><path d="M371.6608 412.928L265.3696 301.056c-13.4656-14.1824-12.9024-36.6592 1.28-50.1248 14.1824-13.5168 36.6592-12.9024 50.1248 1.28l108.3392 113.9712c61.5424-62.8224 104.8576-143.5136 121.5488-233.5232H136.96c-43.3664 0-65.4848 52.0704-35.3792 83.2512l220.7232 228.9152c17.152-9.6256 33.6896-20.224 49.3568-31.8976z" fill="#8486F8" ></path><path d="M369.5104 132.608H136.96c-43.3664 0-65.4848 52.0704-35.3792 83.2512l79.7696 82.7392c77.2608-36.5568 142.4384-94.4128 188.16-165.9904z" fill="#8D92F8" ></path></svg>