<svg viewBox="0 0 1024 1024" version="1.1" xmlns="http://www.w3.org/2000/svg"><path d="M298.0864 894.464h-120.832c-24.1664 0-43.7248-19.5584-43.7248-43.7248V282.5728c0-24.1664 19.5584-43.7248 43.7248-43.7248h120.832c24.1664 0 43.7248 19.5584 43.7248 43.7248v568.1664c0 24.1152-19.6096 43.7248-43.7248 43.7248z" fill="#757BF2" ></path><path d="M879.7696 117.9648H436.0704a33.8432 33.8432 0 0 0-33.8432 33.8432v710.656a33.8432 33.8432 0 0 0 33.8432 33.8432h443.6992a33.8432 33.8432 0 0 0 33.8432-33.8432V151.808c-0.0512-18.688-15.2064-33.8432-33.8432-33.8432z m-98.7648 646.6048H529.408V678.912h251.5968v85.6576z m0-219.136H529.408V459.776h251.5968v85.6576z m0-219.136H529.408V240.64h251.5968v85.6576z" fill="#6C6CEA" ></path><path d="M913.5616 501.9136V151.808a33.8432 33.8432 0 0 0-33.8432-33.8432H436.0704a33.8432 33.8432 0 0 0-33.8432 33.8432v710.656a33.8432 33.8432 0 0 0 33.8432 33.8432h62.8224c89.344-26.112 170.3424-71.6288 238.2336-131.6864H529.408V678.912h251.5968v42.8544c58.2656-62.6688 103.8336-137.3184 132.5568-219.8528zM529.408 240.64h251.5968v85.6576H529.408V240.64z m0 304.7936V459.776h251.5968v85.6576H529.408z" fill="#757BF2" ></path><path d="M300.032 238.848H175.3088c-23.0912 0-41.7792 18.7392-41.7792 41.7792v418.4576a624.5888 624.5888 0 0 0 208.3328-28.9792V280.6272c-0.0512-23.0912-18.7904-41.7792-41.8304-41.7792z" fill="#8486F8" ></path><path d="M300.032 238.848H175.3088c-23.0912 0-41.7792 18.7392-41.7792 41.7792V462.848a621.2608 621.2608 0 0 0 208.3328-89.5488v-92.672c-0.0512-23.0912-18.7904-41.7792-41.8304-41.7792z" fill="#8D92F8" ></path><path d="M402.2272 151.808v495.5648a625.1008 625.1008 0 0 0 160.8192-101.888h-33.6384V459.776h114.944c31.9488-40.704 58.88-85.504 80.0256-133.4784H529.408V240.64h225.4848c10.8544-39.4752 17.92-80.4864 20.8384-122.624H436.0704a33.77152 33.77152 0 0 0-33.8432 33.792z" fill="#8486F8" ></path><path d="M402.2272 151.808v175.616c66.816-57.4464 121.344-128.7168 159.1296-209.4592H436.0704a33.8432 33.8432 0 0 0-33.8432 33.8432z" fill="#8D92F8" ></path></svg>