<?xml version="1.0" standalone="no"?><!DOCTYPE svg PUBLIC "-//W3C//DTD SVG 1.1//EN" "http://www.w3.org/Graphics/SVG/1.1/DTD/svg11.dtd"><svg class="icon" width="66px" height="66.00px" viewBox="0 0 1024 1024" version="1.1" xmlns="http://www.w3.org/2000/svg"><path d="M386.4 576.622c-124.28 139.826-179.176 268.066-199.12 324.498-5.008 14.17 7 27.526 21.822 25.042l76.202-12.688c11.254-1.88 22.78 0.94 31.906 7.764l46.024 34.538c11.398 8.536 27.944 3.568 32.882-9.808 15.468-41.844 50.774-132.75 115.5-277.52 64.726 144.77 100.028 235.676 115.5 277.52 4.936 13.376 21.488 18.344 32.882 9.808l46.016-34.54a41.806 41.806 0 0 1 31.91-7.762l76.194 12.688c14.838 2.484 26.838-10.872 21.83-25.042-19.952-56.432-74.84-184.672-199.114-324.498H386.4z" fill="#FF934A" /><path d="M437.632 88.192c44.046-32.256 103.914-32.256 147.96 0l24.242 17.754a20.876 20.876 0 0 0 12.372 4.032l30.112-0.06c54.49-0.104 102.78 35.026 119.456 86.886l9.37 29.134a20.828 20.828 0 0 0 7.596 10.494l24.856 18.056c43.91 31.906 62.274 88.474 45.454 140.09l-9.6 29.49a20.74 20.74 0 0 0 0 12.928l9.6 29.494c16.82 51.614-1.544 108.184-45.454 140.08l-24.856 18.074a20.72 20.72 0 0 0-7.596 10.476l-9.37 29.132c-16.674 51.86-64.966 87.006-119.456 86.9l-30.112-0.062c-4.45 0-8.782 1.4-12.372 4.028l-24.24 17.76c-44.048 32.242-103.916 32.242-147.962 0l-24.244-17.76a20.908 20.908 0 0 0-12.37-4.028l-30.12 0.062c-54.476 0.106-102.766-35.04-119.444-86.9l-9.368-29.132a20.766 20.766 0 0 0-7.602-10.476l-24.854-18.074c-43.916-31.896-62.278-88.466-45.464-140.08l9.608-29.494c1.368-4.2 1.368-8.726 0-12.928l-9.608-29.49c-16.814-51.616 1.546-108.184 45.464-140.09l24.854-18.056a20.876 20.876 0 0 0 7.602-10.494l9.368-29.134c16.678-51.86 64.968-86.99 119.444-86.886l30.12 0.06c4.448 0.008 8.782-1.406 12.37-4.032l24.244-17.754z" fill="#FCBF28" /><path d="M475.128 223.266c15.33-29.72 57.608-29.72 72.938 0l44.274 85.838 94.768 18.764c31.282 6.194 43.93 44.31 22.62 68.156l-67.49 75.468 12.334 100.42c4.006 32.696-29.808 56.738-59.128 42.026l-83.848-42.086-83.846 42.086c-29.32 14.712-63.136-9.33-59.12-42.026l12.322-100.42-67.478-75.468c-21.322-23.846-8.676-61.962 22.612-68.156l94.768-18.764 44.274-85.838z" fill="#FFFFFF" /></svg>