<svg viewBox="0 0 1024 1024" version="1.1" xmlns="http://www.w3.org/2000/svg"><path d="M819.968 156.0064l-292.5568-67.4816c-12.9024-2.9696-26.2656-2.9696-39.168 0L195.6864 156.0064a87.1424 87.1424 0 0 0-67.584 84.9408v440.064c0 30.0032 15.4624 57.9072 40.9088 73.8816l292.5568 183.296a87.26016 87.26016 0 0 0 92.5696 0l292.5568-183.296c25.4464-15.9232 40.9088-43.8272 40.9088-73.8816V240.9472c-0.0512-40.6016-28.0576-75.8272-67.6352-84.9408z m-170.3424 265.728h-89.6v252.3648c0 28.8256-23.3472 52.1728-52.1728 52.1728S455.68 702.9248 455.68 674.0992V421.7344H366.08c-28.8256 0-52.1728-23.3472-52.1728-52.1728s23.3472-52.1728 52.1728-52.1728h283.5968c28.8256 0 52.1728 23.3472 52.1728 52.1728s-23.3984 52.1728-52.224 52.1728z" fill="#FF3369" ></path><path d="M887.552 305.92v-65.024c0-40.6016-28.0064-75.8272-67.584-84.9408l-292.5568-67.4816c-12.9024-2.9696-26.2656-2.9696-39.168 0L195.6864 156.0064a87.1424 87.1424 0 0 0-67.584 84.9408v440.064c0 30.0032 15.4624 57.9072 40.9088 73.8816l203.9808 127.7952c278.7328-53.0944 493.0048-288.0512 514.56-576.768zM313.856 369.5104c0-28.8256 23.3472-52.1728 52.1728-52.1728h283.5968c28.8256 0 52.1728 23.3472 52.1728 52.1728s-23.3472 52.1728-52.1728 52.1728h-89.6v252.3648c0 28.8256-23.3472 52.1728-52.1728 52.1728S455.68 702.8736 455.68 674.048V421.7344H366.08c-28.8768 0-52.224-23.3984-52.224-52.224z" fill="#FF4D7C" ></path><path d="M455.6288 544.768V421.7344h-89.6c-28.8256 0-52.1728-23.3472-52.1728-52.1728s23.3472-52.1728 52.1728-52.1728h281.856c29.1328-57.9072 49.664-120.8832 59.9552-187.2384l-180.4288-41.5744c-12.9024-2.9696-26.2656-2.9696-39.168 0L195.6864 156.0064a87.1424 87.1424 0 0 0-67.584 84.9408v425.3184c122.0608-9.3184 234.4448-53.0432 327.5264-121.4976zM581.9904 421.7344h-21.9648v26.8288c7.5776-8.7552 14.8992-17.7152 21.9648-26.8288z" fill="#FF5F89" ></path><path d="M489.8816 88.2688c-0.5632 0.1024-1.0752 0.1536-1.6384 0.3072L195.6864 156.0064a87.1424 87.1424 0 0 0-67.584 84.9408v166.9632c158.4128-55.04 288.3072-170.9056 361.7792-319.6416z" fill="#FF7196" ></path></svg>