<svg viewBox="0 0 1024 1024" version="1.1" xmlns="http://www.w3.org/2000/svg"><path d="M836.096 452.4544l-281.8048 189.696a76.7744 76.7744 0 0 1-85.1968 0.3072L181.6064 451.7376c-25.6512-16.9984-59.904 1.3824-59.904 32.1536v344.0128c0 45.0048 36.5056 81.5104 81.5104 81.5104h611.4816c45.0048 0 81.5104-36.5056 81.5104-81.5104V484.4544c0.0512-30.8736-34.4576-49.2544-60.1088-32z" fill="#FC7032" ></path><path d="M719.0016 120.6784h-418.304c-47.9744 0-86.8352 38.8608-86.8352 86.8352v200.2944l278.4768 185.088a31.58016 31.58016 0 0 0 35.0208 0l278.4768-185.088V207.5648c0-47.9744-38.8608-86.8864-86.8352-86.8864z m-38.0928 264.2944H339.6608c-19.1488 0-34.7136-15.5648-34.7136-34.7136s15.5648-34.7136 34.7136-34.7136h341.1968c19.1488 0 34.7136 15.5648 34.7136 34.7136 0.0512 19.1488-15.5136 34.7136-34.6624 34.7136z m0-121.4464H492.1344c-19.1488 0-34.7136-15.5648-34.7136-34.7136s15.5648-34.7136 34.7136-34.7136h188.7744c19.1488 0 34.7136 15.5648 34.7136 34.7136s-15.5648 34.7136-34.7136 34.7136z" fill="#FF7E3E" ></path><path d="M836.096 452.4544l-281.8048 189.696a76.7744 76.7744 0 0 1-85.1968 0.3072L181.6064 451.7376c-25.6512-16.9984-59.904 1.3824-59.904 32.1536v344.0128c0 45.0048 36.5056 81.5104 81.5104 81.5104h226.56c222.5664-55.808 396.6976-233.6768 447.1808-458.3424-12.032-6.8608-27.5968-7.5264-40.8576 1.3824z" fill="#FF7E3E" ></path><path d="M653.9264 384.9728H339.6608c-19.1488 0-34.7136-15.5648-34.7136-34.7136s15.5648-34.7136 34.7136-34.7136h341.1968c1.4336 0 2.816 0.256 4.2496 0.4096 7.68-20.224 14.336-41.0112 19.8144-62.208a34.46784 34.46784 0 0 1-24.064 9.7792H492.1344c-19.1488 0-34.7136-15.5648-34.7136-34.7136s15.5648-34.7136 34.7136-34.7136h188.7744c14.8992 0 27.5456 9.472 32.4608 22.6816 6.0416-31.1808 9.728-63.1808 10.8544-95.7952-1.7408-0.1024-3.4304-0.256-5.2224-0.256h-418.304c-47.9744 0-86.8352 38.8608-86.8352 86.8352v200.2944l268.8512 178.688c70.7072-53.76 129.3824-122.5216 171.2128-201.5744zM434.6368 619.5712L181.6064 451.7376c-25.6512-16.9984-59.904 1.3824-59.904 32.1536v226.7648c114.688-1.536 221.7472-34.6624 312.9344-91.0848z" fill="#FF9552" ></path><path d="M304.9472 350.2592c0-19.1488 15.5648-34.7136 34.7136-34.7136h33.1264c32.3584-29.7472 61.5424-62.8736 86.9376-98.9184 1.9456-5.1712 5.12-9.728 9.1648-13.4144 17.408-26.1632 32.8192-53.7088 46.08-82.4832H300.6976c-47.9744 0-86.8352 38.8608-86.8352 86.8352v200.2944l11.7248 7.7824c29.2864-14.1824 57.2416-30.6176 83.6608-49.1008-2.6624-4.864-4.3008-10.3936-4.3008-16.2816z" fill="#FFA56A" ></path></svg>