<svg viewBox="0 0 1024 1024" version="1.1" xmlns="http://www.w3.org/2000/svg"><path d="M514.1504 85.6576c-3.072 0-6.1952 0.0512-9.2672 0.1024-15.36 0.3072-20.992 20.6848-7.68 28.4672 88.8832 51.8656 146.7904 151.0912 139.008 263.1168-9.6256 138.8032-122.2144 251.136-261.0176 260.5568-112.4864 7.6288-211.968-50.944-263.4752-140.5952-7.68-13.3632-28.0576-7.7824-28.4672 7.6288-0.1024 3.9424-0.1536 7.936-0.1536 11.9296 0 244.8896 204.1344 442.0608 451.4816 430.6944 220.8768-10.1376 400.128-189.44 410.3168-410.3168 11.3152-247.4496-185.9072-451.584-430.7456-451.584z" fill="#6C6CEA" ></path><path d="M323.4816 455.5264m-67.2768 0a67.2768 67.2768 0 1 0 134.5536 0 67.2768 67.2768 0 1 0-134.5536 0Z" fill="#8D92F8" ></path><path d="M514.1504 85.6576c-3.072 0-6.1952 0.0512-9.2672 0.1024-15.36 0.3072-20.992 20.6848-7.68 28.4672 88.8832 51.8656 146.7904 151.0912 139.008 263.1168-9.6256 138.8032-122.2144 251.136-261.0176 260.5568-112.4864 7.6288-211.968-50.944-263.4752-140.5952-7.68-13.3632-28.0576-7.7824-28.4672 7.6288-0.1024 3.9424-0.1536 7.936-0.1536 11.9296 0 143.9232 70.6048 271.3088 178.944 349.6448a492.8512 492.8512 0 0 0 144.9472 21.7088c271.9232 0 492.3392-220.416 492.3392-492.3392 0-30.0544-2.816-59.392-7.9872-87.9104-73.6256-132.5568-214.8864-222.3104-377.1904-222.3104z" fill="#757BF2" ></path><path d="M504.8832 85.76c-15.36 0.3072-20.992 20.6848-7.68 28.4672 88.8832 51.8656 146.7904 151.0912 139.008 263.1168-9.6256 138.8032-122.2144 251.136-261.0176 260.5568-112.4864 7.6288-211.968-50.944-263.4752-140.5952-7.68-13.3632-28.0576-7.7824-28.4672 7.6288-0.1024 3.9424-0.1536 7.936-0.1536 11.9296 0 67.2256 15.4624 130.8672 42.9568 187.5968a492.38016 492.38016 0 0 0 149.504 23.1936c271.9232 0 492.3392-220.416 492.3392-492.3392 0-24.0128-1.792-47.616-5.12-70.7584-70.2464-49.6128-155.9552-78.848-248.4736-78.848-3.2768-0.0512-6.3488 0-9.4208 0.0512z" fill="#8486F8" ></path><path d="M111.6672 497.2544c-7.68-13.3632-28.0576-7.7824-28.4672 7.6288a435.2512 435.2512 0 0 0 1.9456 53.8112c21.76 2.9184 43.9296 4.608 66.5088 4.608 4.1984 0 8.2944-0.2048 12.4416-0.3072-20.5824-19.1488-38.3488-41.216-52.4288-65.7408zM514.1504 85.6576c-3.072 0-6.1952 0.0512-9.2672 0.1024-15.36 0.3072-20.992 20.6848-7.68 28.4672a282.2912 282.2912 0 0 1 115.6096 129.2288 487.76192 487.76192 0 0 0 29.7984-138.24 431.16032 431.16032 0 0 0-128.4608-19.5584z" fill="#8D92F8" ></path></svg>