<svg viewBox="0 0 1024 1024" version="1.1" xmlns="http://www.w3.org/2000/svg"><path d="M601.9072 88.576c53.9648 68.1472 86.272 154.2656 86.272 248.0128 0 220.8768-179.0464 399.9232-399.9232 399.9232-74.8032 0-144.7424-20.5824-204.5952-56.32 64.1024 166.6048 225.5872 284.928 414.7712 284.928 245.4016 0 444.3648-198.9632 444.3648-444.3648 0.0512-209.8176-145.3568-385.536-340.8896-432.1792z" fill="#FF8E12" ></path><path d="M324.864 184.2688l36.352 73.6768a18.6368 18.6368 0 0 0 14.08 10.24l81.3056 11.8272c15.36 2.2528 21.504 21.0944 10.3936 31.9488l-58.8288 57.344c-4.4032 4.3008-6.4 10.496-5.376 16.5888l13.8752 80.9984c2.6112 15.3088-13.4144 26.9312-27.1872 19.712l-72.7552-38.2464a18.688 18.688 0 0 0-17.408 0l-72.7552 38.2464c-13.7216 7.2192-29.7984-4.4544-27.1872-19.712l13.8752-80.9984c1.024-6.0928-0.9728-12.288-5.376-16.5888l-58.8288-57.344c-11.1104-10.8544-4.9664-29.696 10.3936-31.9488l81.3056-11.8272a18.6368 18.6368 0 0 0 14.08-10.24l36.352-73.6768c7.0144-13.9264 26.8288-13.9264 33.6896 0z" fill="#FCB138" ></path><path d="M935.7312 441.2928c-31.3344-173.6192-163.584-312.064-333.7728-352.6656 53.9648 68.1472 86.272 154.2656 86.272 248.0128 0 220.8768-179.0464 399.9232-399.9232 399.9232-74.8032 0-144.7424-20.5824-204.5952-56.32 33.8944 88.064 94.976 162.6112 173.0048 213.3504 27.3408 3.6864 55.1936 5.6832 83.5584 5.6832 285.4912-0.1024 525.6192-194.4064 595.456-457.984z" fill="#FCA315" ></path><path d="M681.2672 410.624a612.352 612.352 0 0 0 96.4608-235.3664c-50.6368-40.96-110.3872-71.0656-175.8208-86.6816 53.9648 68.1472 86.272 154.2656 86.272 248.0128 0.0512 25.2928-2.4064 50.0224-6.912 74.0352z" fill="#FCB138" ></path><path d="M361.2672 257.9456l-36.352-73.6768c-6.8608-13.9264-26.7264-13.9264-33.5872 0l-36.352 73.6768a18.6368 18.6368 0 0 1-14.08 10.24l-81.3056 11.8272c-15.36 2.2528-21.504 21.0944-10.3936 31.9488l58.8288 57.344c4.4032 4.3008 6.4512 10.496 5.376 16.5888l-8.0896 47.104c95.3344-30.6176 180.48-83.8144 249.2416-153.2928l-79.2064-11.52a18.6368 18.6368 0 0 1-14.08-10.24z" fill="#FFC65E" ></path></svg>