<svg viewBox="0 0 1024 1024" version="1.1" xmlns="http://www.w3.org/2000/svg"><path d="M606.5664 251.5456H417.2288c-41.7792 0-75.6224-33.8432-75.6224-75.6224s33.8432-75.6224 75.6224-75.6224h189.3376c41.7792 0 75.6224 33.8432 75.6224 75.6224s-33.8944 75.6224-75.6224 75.6224z" fill="#3CD38E" ></path><path d="M808.2432 186.2656h-63.744c-2.4576 62.9248-54.2208 113.2032-117.7088 113.2032H397.0048c-63.5392 0-115.2512-50.2784-117.7088-113.2032H215.552c-55.296 0-100.1472 44.8512-100.1472 100.1472v529.1008c0 55.296 44.8512 100.1472 100.1472 100.1472h592.7424c55.296 0 100.1472-44.8512 100.1472-100.1472V286.4128c0-55.296-44.8512-100.1472-100.1984-100.1472z m-149.0432 437.4528H553.984v105.216c0 20.6336-16.7424 37.3248-37.3248 37.3248-20.6336 0-37.3248-16.7424-37.3248-37.3248v-105.216H374.016c-20.6336 0-37.3248-16.7424-37.3248-37.3248 0-20.6336 16.7424-37.3248 37.3248-37.3248H479.232V443.8016c0-20.6336 16.7424-37.3248 37.3248-37.3248 20.6336 0 37.3248 16.7424 37.3248 37.3248v105.216h105.216c20.6336 0 37.3248 16.7424 37.3248 37.3248 0.1024 20.6848-16.5888 37.376-37.2224 37.376z" fill="#05C46D" ></path><path d="M908.4416 286.4128c0-55.296-44.8512-100.1472-100.1472-100.1472h-63.744c-2.4576 62.9248-54.2208 113.2032-117.7088 113.2032H397.0048c-63.5392 0-115.3024-50.2784-117.7088-113.2032H215.552c-55.296 0-100.1472 44.8512-100.1472 100.1472v529.1008c0 55.296 44.8512 100.1472 100.1472 100.1472h147.8144c287.2832-42.6496 512.7168-274.8928 545.0752-565.4528V286.4128z m-249.2416 337.3056H553.984v105.216c0 20.6336-16.7424 37.3248-37.3248 37.3248s-37.3248-16.7424-37.3248-37.3248v-105.216H374.016c-20.6336 0-37.3248-16.7424-37.3248-37.3248 0-20.6336 16.7424-37.3248 37.3248-37.3248H479.232V443.8016c0-20.6336 16.7424-37.3248 37.3248-37.3248s37.3248 16.7424 37.3248 37.3248v105.216h105.216c20.6336 0 37.3248 16.7424 37.3248 37.3248 0.1024 20.6848-16.5888 37.376-37.2224 37.376z" fill="#1DCE75" ></path><path d="M384.1024 623.7184h-10.0864c-20.6336 0-37.3248-16.7424-37.3248-37.3248 0-20.6336 16.7424-37.3248 37.3248-37.3248H479.232V443.8016c0-20.6336 16.7424-37.3248 37.3248-37.3248s37.3248 16.7424 37.3248 37.3248v54.4256c60.672-62.5152 108.8-137.216 140.3392-220.16-19.1488 13.4144-42.3424 21.4016-67.4816 21.4016H397.0048c-63.5392 0-115.3024-50.2784-117.7088-113.2032H215.552c-55.296 0-100.1472 44.8512-100.1472 100.1472v406.8864c96.4608-3.4816 187.5456-28.16 268.6976-69.5808z" fill="#3CD38E" ></path><path d="M510.5664 100.3008H417.2288c-41.7792 0-75.6224 33.8432-75.6224 75.6224 0 39.168 29.7984 71.3728 67.9424 75.2128 40.3456-45.0048 74.496-95.744 101.0176-150.8352zM366.08 295.2192c-48.5888-13.2096-84.7872-56.6784-86.784-108.9536H215.552c-55.296 0-100.1472 44.8512-100.1472 100.1472v152.0128C209.92 410.0096 295.3216 360.448 366.08 295.2192z" fill="#48E1AA" ></path></svg>