<svg viewBox="0 0 1024 1024" version="1.1" xmlns="http://www.w3.org/2000/svg"><path d="M500.3264 708.4032a21.35552 21.35552 0 0 0 28.16-0.2048l362.6496-323.84c-1.2288-1.2288-2.3552-2.5088-3.6864-3.6864l-309.0432-278.016c-37.2224-33.4848-93.696-33.4848-130.9184 0l-309.0432 278.016c-2.56 2.304-4.9664 4.7104-7.2704 7.2704l369.152 320.4608z" fill="#3A9CED" ></path><path d="M591.6672 778.9056c-21.9648 19.6096-49.664 29.44-77.3632 29.44-27.1872 0-54.3232-9.4208-76.1344-28.3648L106.0352 491.6736v326.0928c0 63.3344 51.3536 114.688 114.688 114.688h584.4992c63.3344 0 114.688-51.3536 114.688-114.688V485.8368l-328.2432 293.0688z" fill="#2595E8" ></path><path d="M919.9104 485.8368l-328.2432 293.12c-21.9648 19.6096-49.664 29.44-77.3632 29.44-27.1872 0-54.3232-9.4208-76.1344-28.3648L106.0352 491.6736v326.0928c0 63.3344 51.3536 114.688 114.688 114.688H501.248c202.752-64.1024 361.3184-227.5328 418.6624-433.152v-13.4656z" fill="#3A9CED" ></path><path d="M442.8288 658.4832c151.7056-83.8656 265.3184-228.1472 308.3264-400.4352l-172.7488-155.392c-37.2224-33.4848-93.696-33.4848-130.9184 0l-309.0432 278.016c-2.56 2.304-4.9664 4.7104-7.2704 7.2704l311.6544 270.5408z" fill="#59ADF8" ></path><path d="M447.488 102.656l-309.0432 278.016c-2.56 2.304-4.9664 4.7104-7.2704 7.2704l88.9344 77.2096c162.9184-67.5328 291.5328-201.0624 352.3584-367.36-37.12-28.4672-89.7024-26.88-124.9792 4.864z" fill="#6BC2FC" ></path><path d="M343.1936 697.5488L106.0352 491.6736v246.6816c92.3136-1.4848 176.1792-21.248 237.1584-40.8064z" fill="#59ADF8" ></path></svg>