<svg viewBox="0 0 1024 1024" version="1.1" xmlns="http://www.w3.org/2000/svg"><path d="M908.3392 817.92h-47.4624V163.2256c0-40.7552-33.024-73.7792-73.7792-73.7792H242.7904c-40.7552 0-73.7792 33.024-73.7792 73.7792v654.6944h-47.4624a46.4896 46.4896 0 0 0-46.4896 46.4896 46.4896 46.4896 0 0 0 46.4896 46.4896h786.7904a46.4896 46.4896 0 0 0 46.4896-46.4896 46.4896 46.4896 0 0 0-46.4896-46.4896z m-230.7584-19.6096a46.4896 46.4896 0 0 1-46.4896 46.4896 46.4896 46.4896 0 0 1-46.4896-46.4896v-131.584H445.2864v131.584a46.4896 46.4896 0 0 1-46.4896 46.4896 46.4896 46.4896 0 0 1-46.4896-46.4896v-178.0736a46.4896 46.4896 0 0 1 46.4896-46.4896h232.2944a46.4896 46.4896 0 0 1 46.4896 46.4896v178.0736z m-46.4896-387.3792h-69.6832v69.6832a46.4896 46.4896 0 0 1-46.4896 46.4896 46.4896 46.4896 0 0 1-46.4896-46.4896V410.9312h-69.632a46.4896 46.4896 0 1 1 0-92.9792H468.48V248.32a46.4896 46.4896 0 0 1 46.4896-46.4896 46.4896 46.4896 0 0 1 46.4896 46.4896v69.632h69.6832c25.7024 0 46.4896 20.8384 46.4896 46.4896s-20.8896 46.4896-46.5408 46.4896z" fill="#6C6CEA" ></path><path d="M601.5488 834.2016a46.46912 46.46912 0 0 1-16.9472-35.8912v-131.584H445.2864v131.584a46.4896 46.4896 0 0 1-46.4896 46.4896 46.4896 46.4896 0 0 1-46.4896-46.4896v-178.0736a46.4896 46.4896 0 0 1 46.4896-46.4896h232.2944a46.4896 46.4896 0 0 1 46.4896 46.4896v156.6208c81.2032-71.0144 144.7936-161.6896 183.296-264.6528V163.2256c0-40.7552-33.024-73.7792-73.7792-73.7792H242.7904c-40.7552 0-73.7792 33.024-73.7792 73.7792v654.6944h-47.4624a46.4896 46.4896 0 0 0-46.4896 46.4896 46.4896 46.4896 0 0 0 46.4896 46.4896h314.4704c59.136-17.8688 114.7392-43.8784 165.5296-76.6976zM398.7968 317.952H468.48V248.32a46.4896 46.4896 0 1 1 92.9792 0v69.632h69.6832a46.4896 46.4896 0 1 1 0 92.9792h-69.6832v69.6832a46.4896 46.4896 0 0 1-46.4896 46.4896 46.4896 46.4896 0 0 1-46.4896-46.4896v-69.632H398.7968c-25.7024 0-46.4896-20.8384-46.4896-46.4896s20.7872-46.5408 46.4896-46.5408z" fill="#757BF2" ></path><path d="M352.3072 640.1536v-19.9168a46.4896 46.4896 0 0 1 46.4896-46.4896H460.8c19.3024-14.5408 37.7856-30.1568 55.3472-46.6944-0.4096 0-0.768 0.0512-1.1776 0.0512a46.4896 46.4896 0 0 1-46.4896-46.4896v-69.632H398.7968a46.4896 46.4896 0 1 1 0-92.9792H468.48V248.32a46.4896 46.4896 0 1 1 92.9792 0v69.632h69.6832c11.1104 0 21.2992 3.8912 29.2864 10.3936 34.4576-73.216 55.808-153.856 60.9792-238.8992H242.7904c-40.7552 0-73.7792 33.024-73.7792 73.7792v534.4256c64.7168-10.1888 126.3104-29.8496 183.296-57.4976z" fill="#8486F8" ></path><path d="M561.408 479.9488c18.944-21.76 36.5056-44.8512 52.48-69.0176h-52.48v69.0176z" fill="#8486F8" ></path><path d="M498.176 89.4976H242.7904c-40.7552 0-73.7792 33.024-73.7792 73.7792v252.8768c145.4592-65.2288 262.8608-181.8112 329.1648-326.656z" fill="#8D92F8" ></path></svg>