<svg viewBox="0 0 1024 1024" version="1.1" xmlns="http://www.w3.org/2000/svg"><path d="M821.8112 278.3744h-76.288V221.8496c0-53.0432-43.1616-96.256-96.256-96.256H380.2112c-53.0432 0-96.256 43.1616-96.256 96.256v56.5248h-76.288c-50.8928 0-92.1088 41.2672-92.1088 92.1088v431.7696c0 50.8928 41.2672 92.1088 92.1088 92.1088h614.144c50.8928 0 92.1088-41.2672 92.1088-92.1088V370.4832c0.0512-50.8928-41.216-92.1088-92.1088-92.1088zM371.456 221.8496c0-4.8128 3.9424-8.7552 8.7552-8.7552h269.056c4.8128 0 8.7552 3.9424 8.7552 8.7552v56.5248H371.456V221.8496z m319.2832 406.4256c0 5.5808-4.5056 10.1376-10.1376 10.1376h-89.7024c-5.5808 0-10.1376 4.5056-10.1376 10.1376v89.7024c0 5.5808-4.5056 10.1376-10.1376 10.1376H472.9856c-5.5808 0-10.1376-4.5056-10.1376-10.1376v-89.7024c0-5.5808-4.5056-10.1376-10.1376-10.1376H363.0592c-5.5808 0-10.1376-4.5056-10.1376-10.1376v-97.6896c0-5.5808 4.5056-10.1376 10.1376-10.1376h89.7024c5.5808 0 10.1376-4.5056 10.1376-10.1376V420.608c0-5.5808 4.5056-10.1376 10.1376-10.1376h97.6896c5.5808 0 10.1376 4.5056 10.1376 10.1376v89.7024c0 5.5808 4.5056 10.1376 10.1376 10.1376h89.7024c5.5808 0 10.1376 4.5056 10.1376 10.1376v97.6896z" fill="#2595E8" ></path><path d="M745.5232 278.3744V221.8496c0-53.0432-43.1616-96.256-96.256-96.256H380.2112c-53.0432 0-96.256 43.1616-96.256 96.256v56.5248h-76.288c-50.8928 0-92.1088 41.2672-92.1088 92.1088v431.7696c0 50.8928 41.2672 92.1088 92.1088 92.1088h295.7824c215.7568-95.5392 366.336-311.5008 366.336-562.6368 0-13.6704-0.512-27.1872-1.3824-40.6016a91.6992 91.6992 0 0 0-46.592-12.7488h-76.288zM371.456 221.8496c0-4.8128 3.9424-8.7552 8.7552-8.7552h269.056c4.8128 0 8.7552 3.9424 8.7552 8.7552v56.5248H371.456V221.8496z m319.2832 406.4256c0 5.5808-4.5056 10.1376-10.1376 10.1376h-89.7024c-5.5808 0-10.1376 4.5056-10.1376 10.1376v89.7024c0 5.5808-4.5056 10.1376-10.1376 10.1376H472.9856c-5.5808 0-10.1376-4.5056-10.1376-10.1376v-89.7024c0-5.5808-4.5056-10.1376-10.1376-10.1376H363.0592c-5.5808 0-10.1376-4.5056-10.1376-10.1376v-97.6896c0-5.5808 4.5056-10.1376 10.1376-10.1376h89.7024c5.5808 0 10.1376-4.5056 10.1376-10.1376V420.608c0-5.5808 4.5568-10.1376 10.1376-10.1376h97.6896c5.5808 0 10.1376 4.5056 10.1376 10.1376v89.7024c0 5.5808 4.5056 10.1376 10.1376 10.1376h89.7024c5.5808 0 10.1376 4.5056 10.1376 10.1376v97.6896z" fill="#3A9CED" ></path><path d="M406.9376 638.3616h-43.8784c-5.5808 0-10.1376-4.5056-10.1376-10.1376v-97.6896c0-5.5808 4.5056-10.1376 10.1376-10.1376h89.7024c5.5808 0 10.1376-4.5056 10.1376-10.1376V420.608c0-5.5808 4.5568-10.1376 10.1376-10.1376h97.6896c5.5808 0 10.1376 4.5056 10.1376 10.1376v58.6752a612.07552 612.07552 0 0 0 120.1152-338.5344c-14.9504-9.5232-32.6144-15.1552-51.6096-15.1552H380.2112c-53.0432 0-96.256 43.1616-96.256 96.256v56.5248h-76.288c-50.8928 0-92.1088 41.2672-92.1088 92.1088v357.1712c106.4448-4.9664 205.824-36.9664 291.3792-89.2928z m-35.4816-416.512c0-4.8128 3.9424-8.7552 8.7552-8.7552h269.056c4.8128 0 8.7552 3.9424 8.7552 8.7552v56.5248H371.456V221.8496z" fill="#59ADF8" ></path><path d="M413.2864 278.3744h-41.8304V221.8496c0-4.8128 3.9424-8.7552 8.7552-8.7552h78.4896c16.7936-27.8016 31.3856-57.0368 43.6736-87.4496H380.2112c-53.0432 0-96.256 43.1616-96.256 96.256v56.5248h-76.288c-50.8928 0-92.1088 41.2672-92.1088 92.1088V482.816c118.784-37.1712 222.0032-109.3632 297.728-204.4416z" fill="#6BC2FC" ></path></svg>