<svg viewBox="0 0 1024 1024" version="1.1" xmlns="http://www.w3.org/2000/svg"><path d="M658.7392 231.2192H366.7968c-10.4448 0-18.944-8.4992-18.944-18.944V109.056c0-10.4448 8.4992-18.944 18.944-18.944h291.8912c10.4448 0 18.944 8.4992 18.944 18.944v103.168a18.90304 18.90304 0 0 1-18.8928 18.9952z" fill="#3CD38E" ></path><path d="M790.2208 161.0752h-39.3728v83.0976c0 28.672-23.2448 51.9168-51.9168 51.9168H326.656c-28.672 0-51.9168-23.2448-51.9168-51.9168V161.0752h-39.3728c-60.0064 0-108.6464 48.64-108.6464 108.6464v566.9888c0 60.0064 48.64 108.6464 108.6464 108.6464h554.8544c60.0064 0 108.6464-48.64 108.6464-108.6464V269.7216c0-60.0064-48.64-108.6464-108.6464-108.6464z m-144.128 495.104h-89.2416v89.2416a44.0832 44.0832 0 0 1-88.1664 0v-89.2416H379.4432a44.0832 44.0832 0 0 1 0-88.1664h89.2416V478.7712a44.0832 44.0832 0 0 1 88.1664 0v89.2416h89.2416a44.0832 44.0832 0 0 1 44.0832 44.0832c0 24.32-19.7632 44.0832-44.0832 44.0832z" fill="#05C46D" ></path><path d="M898.8672 269.7216c0-60.0064-48.64-108.6464-108.6464-108.6464h-39.3728v83.0976c0 28.672-23.2448 51.9168-51.9168 51.9168H326.656c-28.672 0-51.9168-23.2448-51.9168-51.9168V161.0752h-39.3728c-60.0064 0-108.6464 48.64-108.6464 108.6464v566.9888c0 60.0064 48.64 108.6464 108.6464 108.6464h123.8528c272.5888-42.3936 489.2672-253.7472 539.648-523.6224V269.7216z m-252.7744 386.4576h-89.2416v89.2416c0 24.32-19.712 44.0832-44.0832 44.0832s-44.0832-19.712-44.0832-44.0832v-89.2416H379.4432a44.0832 44.0832 0 0 1 0-88.1664h89.2416V478.7712c0-24.32 19.712-44.0832 44.0832-44.0832s44.0832 19.712 44.0832 44.0832v89.2416h89.2416a44.0832 44.0832 0 0 1 44.0832 44.0832c0 24.32-19.7632 44.0832-44.0832 44.0832z" fill="#1DCE75" ></path><path d="M368.1792 654.6432c-18.8416-5.0176-32.768-22.1184-32.768-42.5472a44.0832 44.0832 0 0 1 44.0832-44.0832h89.2416V478.7712c0-24.32 19.712-44.0832 44.0832-44.0832s44.0832 19.712 44.0832 44.0832v35.3792c58.2144-62.464 104.3456-136.3968 134.5536-218.0608H326.656c-28.672 0-51.9168-23.2448-51.9168-51.9168V161.0752h-39.3728c-60.0064 0-108.6464 48.64-108.6464 108.6464v450.304c86.1696-6.0928 167.7312-28.9792 241.4592-65.3824z" fill="#3CD38E" ></path><path d="M380.8768 296.1408H326.656c-28.672 0-51.9168-23.2448-51.9168-51.9168V161.0752h-39.3728c-60.0064 0-108.6464 48.64-108.6464 108.6464v186.5728c97.0752-33.1264 183.808-88.576 254.1568-160.1536zM517.7856 90.112H375.2448a27.392 27.392 0 0 0-27.392 27.392V203.776c0 15.1552 12.288 27.392 27.392 27.392h61.5936c32.5632-43.1616 59.8528-90.4704 80.9472-141.056z" fill="#48E1AA" ></path></svg>