<svg viewBox="0 0 1024 1024" version="1.1" xmlns="http://www.w3.org/2000/svg"><path d="M879.36 787.3536h-114.3808c78.4896-70.7072 127.8976-173.1584 127.8976-287.1296 0-219.4432-182.9376-396.1856-404.6336-385.9456-200.3968 9.216-361.984 173.6704-367.9232 374.1696-6.2976 211.6096 157.6448 386.4064 365.056 397.568h0.3072c6.912 0.3584 13.8752 0.5632 20.8384 0.5632 7.0144 0 13.9264-0.2048 20.8384-0.5632h352c7.4752 0 13.5168-6.0416 13.5168-13.5168v-71.6288c0-7.4752-6.0416-13.5168-13.5168-13.5168zM297.0624 590.4384c-51.968 0-94.0544-42.0864-94.0544-94.0544s42.0864-94.0544 94.0544-94.0544c51.9168 0 94.0544 42.0864 94.0544 94.0544s-42.1376 94.0544-94.0544 94.0544z m209.408 209.4592c-51.9168 0-94.0544-42.0864-94.0544-94.0544s42.0864-94.0544 94.0544-94.0544 94.0544 42.0864 94.0544 94.0544-42.0864 94.0544-94.0544 94.0544zM434.0736 493.6192c0-39.9872 32.4096-72.3968 72.3968-72.3968 39.9872 0 72.3968 32.4096 72.3968 72.3968 0 39.9872-32.4096 72.3968-72.3968 72.3968-39.9872 0-72.3968-32.4096-72.3968-72.3968z m72.3968-112.64c-51.9168 0-94.0544-42.0864-94.0544-94.0544 0-51.9168 42.0864-94.0544 94.0544-94.0544s94.0544 42.0864 94.0544 94.0544-42.0864 94.0544-94.0544 94.0544z m115.4048 115.4048c0-51.9168 42.0864-94.0544 94.0544-94.0544 51.9168 0 94.0544 42.0864 94.0544 94.0544s-42.0864 94.0544-94.0544 94.0544-94.0544-42.0864-94.0544-94.0544z" fill="#BD50D3" ></path><path d="M881.2032 405.9648c-43.52-173.4144-204.1344-300.3904-392.96-291.6864-200.3968 9.216-361.984 173.6704-367.9232 374.1696-5.0688 170.9568 100.9664 317.7984 251.2384 373.8624 255.232-19.7632 462.848-209.6128 509.6448-456.3456zM297.0624 590.4384c-51.968 0-94.0544-42.0864-94.0544-94.0544s42.0864-94.0544 94.0544-94.0544c51.9168 0 94.0544 42.0864 94.0544 94.0544s-42.1376 94.0544-94.0544 94.0544z m209.408 209.4592c-51.9168 0-94.0544-42.0864-94.0544-94.0544 0-51.9168 42.0864-94.0544 94.0544-94.0544s94.0544 42.0864 94.0544 94.0544c0 51.9168-42.0864 94.0544-94.0544 94.0544zM434.0736 493.6192c0-39.9872 32.4096-72.3968 72.3968-72.3968 39.9872 0 72.3968 32.4096 72.3968 72.3968 0 39.9872-32.4096 72.3968-72.3968 72.3968-39.9872 0-72.3968-32.4096-72.3968-72.3968z m72.3968-112.64c-51.9168 0-94.0544-42.0864-94.0544-94.0544s42.0864-94.0544 94.0544-94.0544 94.0544 42.0864 94.0544 94.0544-42.0864 94.0544-94.0544 94.0544z m115.4048 115.4048c0-51.9168 42.0864-94.0544 94.0544-94.0544 51.9168 0 94.0544 42.0864 94.0544 94.0544s-42.0864 94.0544-94.0544 94.0544-94.0544-42.0864-94.0544-94.0544z" fill="#C65EDB" ></path><path d="M434.0736 493.6192c0-39.9872 32.4096-72.3968 72.3968-72.3968 39.3216 0 71.2192 31.3344 72.2944 70.4 79.2576-82.0736 133.8368-188.1088 151.7568-306.2272-67.7888-48.3328-151.808-75.3152-242.2784-71.168-200.3968 9.216-361.984 173.6704-367.9232 374.1696-1.8432 62.72 11.3152 122.1632 36.0448 175.104 5.632 0.1536 11.264 0.256 16.9472 0.256 118.5792 0 228.5568-36.6592 319.3344-99.1744-33.3824-6.4-58.5728-35.7376-58.5728-70.9632z m-137.0112 96.8192c-51.968 0-94.0544-42.0864-94.0544-94.0544s42.0864-94.0544 94.0544-94.0544c51.9168 0 94.0544 42.0864 94.0544 94.0544s-42.1376 94.0544-94.0544 94.0544z m209.408-397.5168c51.968 0 94.0544 42.0864 94.0544 94.0544s-42.0864 94.0544-94.0544 94.0544c-51.9168 0-94.0544-42.0864-94.0544-94.0544s42.1376-94.0544 94.0544-94.0544z" fill="#CA6EE0" ></path><path d="M122.624 456.96c38.5024-6.2464 75.7248-16.4352 111.2064-30.0544 14.592-13.2608 33.28-22.0672 54.016-24.1152 46.9504-24.0128 90.0608-54.4768 128.256-90.112-2.304-8.192-3.6352-16.7936-3.6352-25.7536 0-51.9168 42.0864-94.0544 94.0544-94.0544 2.304 0 4.608 0.2048 6.912 0.3584 14.848-24.3712 27.8528-50.0224 38.912-76.6464-20.8896-2.4576-42.2912-3.328-64.0512-2.3552-189.8496 8.7552-344.7808 156.7744-365.6704 342.7328z" fill="#D786EA" ></path></svg>