<svg viewBox="0 0 1024 1024" version="1.1" xmlns="http://www.w3.org/2000/svg"><path d="M299.5712 117.3504c101.9392 0 184.5248 82.6368 184.5248 184.5248v107.008c0 42.8032-34.7136 77.568-77.568 77.568H299.52c-101.9392 0-184.5248-82.6368-184.5248-184.5248 0.0512-101.9904 82.6368-184.576 184.576-184.576z" fill="#8486F8" ></path><path d="M299.5712 917.4528c101.9392 0 184.5248-82.6368 184.5248-184.5248v-107.008c0-42.8032-34.7136-77.568-77.568-77.568H299.52c-101.9392 0-184.5248 82.6368-184.5248 184.5248 0.0512 101.9392 82.6368 184.576 184.576 184.576zM726.2208 117.3504c-101.9392 0-184.5248 82.6368-184.5248 184.5248v107.008c0 42.8032 34.7136 77.568 77.568 77.568h107.008c101.9392 0 184.5248-82.6368 184.5248-184.5248-0.0512-101.9904-82.688-184.576-184.576-184.576zM726.2208 917.4528c-101.9392 0-184.5248-82.6368-184.5248-184.5248v-107.008c0-42.8032 34.7136-77.568 77.568-77.568h107.008c101.9392 0 184.5248 82.6368 184.5248 184.5248-0.0512 101.9392-82.688 184.576-184.576 184.576z" fill="#6C6CEA" ></path><path d="M446.5152 548.352h-146.944c-101.9392 0-184.5248 82.6368-184.5248 184.5248 0 64.7168 33.3824 121.6512 83.8144 154.5728 14.848 1.0752 29.8496 1.6384 45.0048 1.6384 66.304 0 130.2016-10.496 190.1056-29.7984 31.0784-33.024 50.176-77.5168 50.176-126.464v-146.8928c0-20.736-16.896-37.5808-37.632-37.5808zM854.5792 169.3696c-33.2288-32.2048-78.4896-52.0192-128.3584-52.0192-101.9392 0-184.5248 82.6368-184.5248 184.5248v146.8928a37.632 37.632 0 0 0 37.632 37.632h146.8928c41.216 0 79.2576-13.5168 109.9776-36.352a619.4688 619.4688 0 0 0 26.5728-179.9168c0.0512-34.304-2.816-67.9424-8.192-100.7616zM790.8352 560.0256a184.02816 184.02816 0 0 0-64.6144-11.6736h-146.8928a37.632 37.632 0 0 0-37.632 37.632v146.8928c0 25.4464 5.1712 49.664 14.4896 71.7312a622.03904 622.03904 0 0 0 234.6496-244.5824z" fill="#757BF2" ></path><path d="M442.112 548.352H299.5712c-78.6944 0-145.8688 49.3056-172.3904 118.6816 117.3504-9.8816 225.3824-52.48 314.9312-118.6816zM541.6448 301.8752v146.8928c0 2.3552 0.256 4.608 0.6656 6.8096 79.616-91.8528 132.608-207.36 147.0976-334.592-84.2752 17.0496-147.7632 91.5456-147.7632 180.8896z" fill="#8486F8" ></path><path d="M433.5616 175.0528c-33.6384-35.5328-81.2032-57.7536-133.9904-57.7536-101.9392 0-184.5248 82.6368-184.5248 184.5248 0 38.8608 12.032 74.9568 32.6144 104.704 117.1456-46.592 216.6784-128 285.9008-231.4752z" fill="#8D92F8" ></path></svg>