<svg viewBox="0 0 1024 1024" version="1.1" xmlns="http://www.w3.org/2000/svg"><path d="M828.1088 186.368H201.5744c-60.1088 0-108.8 48.6912-108.8 108.8v51.2512h844.1344V295.168c0-60.1088-48.7424-108.8-108.8-108.8z" fill="#FCA315" ></path><path d="M92.7232 730.9824c0 60.1088 48.7424 108.8 108.8 108.8h626.5344c60.1088 0 108.8-48.6912 108.8-108.8V405.76H92.7232v325.2224z m625.6128-94.3616H860.16l-51.6608 102.0928h-141.824l51.6608-102.0928z m-102.1952 0h48.0768l-51.6096 102.0928h-48.0768l51.6096-102.0928z m-107.9296 0h48.0768l-51.6096 102.0928h-48.0768l51.6096-102.0928z" fill="#FF8E12" ></path><path d="M92.7744 405.76v325.2224c0 60.1088 48.7424 108.8 108.8 108.8h353.9456a596.59776 596.59776 0 0 0 172.6464-101.0688h-61.44l51.6096-102.0928h106.0352a593.408 593.408 0 0 0 104.2432-230.8608H92.7744z m411.8528 332.9536h-48.0768l51.6096-102.0928h48.0768l-51.6096 102.0928z m107.9296 0h-48.0768l51.6096-102.0928h48.0768l-51.6096 102.0928z" fill="#FCA315" ></path><path d="M92.7744 659.5584c29.0304 4.352 58.7264 6.6048 88.9856 6.6048 204.8 0 385.4848-103.168 492.9024-260.4032H92.7744v253.7984zM766.9248 186.368H201.5744c-60.1088 0-108.8 48.6912-108.8 108.8v51.2512h617.5744c26.0096-49.664 45.312-103.424 56.576-160.0512z" fill="#FCB138" ></path><path d="M269.2608 405.76H92.7744v46.1312c62.1568-6.2976 121.4464-22.2208 176.4864-46.1312zM530.0736 186.368H201.5744c-60.1088 0-108.8 48.6912-108.8 108.8v51.2512h282.1632a600.79104 600.79104 0 0 0 155.136-160.0512z" fill="#FFC65E" ></path></svg>