<svg viewBox="0 0 1024 1024" version="1.1" xmlns="http://www.w3.org/2000/svg"><path d="M180.7872 359.936h689.5616a28.8256 28.8256 0 0 0 28.8256-28.8256v-0.9728h55.2448V271.4624l-430.5408-176.896-432.9984 172.032v64l61.0816 0.512a28.8256 28.8256 0 0 0 28.8256 28.8256zM212.5824 389.7344v343.04h-18.3296c-22.784 0-41.2672 18.4832-41.2672 41.2672v20.7872h750.6432v-20.7872c0-22.784-18.4832-41.2672-41.2672-41.2672h-17.3568v-343.04H730.624v343.04h-58.368v-343.04h-114.3808v343.04H499.6096v-343.04H385.2288v343.04H326.912v-343.04H212.5824zM914.1248 819.8144H142.4384c-22.784 0-41.2672 18.4832-41.2672 41.2672v44.2368H955.392v-44.2368c0-22.784-18.4832-41.2672-41.2672-41.2672z" fill="#FF8E12" ></path><path d="M90.88 266.5984v64l61.0816 0.512a28.8256 28.8256 0 0 0 28.8256 28.8256h689.5616a28.7232 28.7232 0 0 0 24.2176-13.312c0-1.8944 0.0512-3.7888 0.0512-5.6832 0-32.9728-2.5088-65.3824-7.3216-97.024l-363.4688-149.3504-432.9472 172.032zM844.9536 588.0832V389.7344h-114.3808v343.04H672.256v-343.04h-114.3808v343.04H499.6096v-343.04H385.2288v343.04H326.912v-343.04H212.5824v343.04h-18.3296c-22.784 0-41.2672 18.4832-41.2672 41.2672v20.7872H704.512c59.4944-58.5216 107.52-128.6656 140.4416-206.7456zM677.7344 819.8144H142.4384c-22.784 0-41.2672 18.4832-41.2672 41.2672v44.2368h452.096c44.9024-23.552 86.6304-52.3264 124.4672-85.504z" fill="#FCA315" ></path><path d="M717.6192 174.1824l-193.7408-79.616-432.9984 172.032v64l61.0816 0.512a28.8256 28.8256 0 0 0 28.8256 28.8256h490.6496c24.2688-58.0608 40.1408-120.4736 46.1824-185.7536zM385.2288 675.7888c41.0112-22.1184 79.36-48.5888 114.3296-78.848V389.7344H385.2288v286.0544zM557.9264 539.648c40.0896-44.7488 73.9328-95.1296 100.1984-149.9136h-100.1984v149.9136zM326.912 703.488V389.7344H212.5824v343.04h-18.3296c-12.288 0-23.296 5.4272-30.8736 13.9264 57.1904-7.1168 112.0768-21.9136 163.5328-43.2128z" fill="#FCB138" ></path><path d="M523.8784 94.5664l-432.9984 172.032v64l61.0816 0.512a28.8256 28.8256 0 0 0 28.8256 28.8256h171.6224c78.2336-71.424 138.5984-162.048 173.6192-264.448l-2.1504-0.9216zM317.2864 389.7344H212.5824v67.1744c37.1712-18.9952 72.192-41.5232 104.704-67.1744z" fill="#FFC65E" ></path></svg>