<svg viewBox="0 0 1024 1024" version="1.1" xmlns="http://www.w3.org/2000/svg"><path d="M644.5568 910.2848c-38.912 16.0768-86.016 23.3984-133.376 21.7088-41.984-1.4848-83.8144-9.5232-125.44-16.3328-6.656-1.0752-16.896-10.9056-16.9472-16.7936-1.0752-89.6512-0.768-179.2512-0.768-268.4928 92.8768 93.952 185.2928 187.4944 276.5312 279.9104z" fill="#05C46D" ></path><path d="M133.9392 332.8c17.7664-65.6896 120.7296-170.0352 197.8368-200.448C395.9808 199.168 460.9536 266.8032 524.3392 332.8H133.9392z" fill="#3CD38E" ></path><path d="M617.7792 653.2096c98.1504-95.8464 191.9488-187.4944 287.0272-280.32 19.7632 46.6432 27.0336 93.6448 25.2416 140.9536-1.4848 40.4992-9.7792 80.7936-15.9232 121.0368-1.4848 9.7792-4.5056 18.7392-19.1488 18.6368-90.3168-0.6656-180.6848-0.3072-277.1968-0.3072zM689.152 526.4384V134.8096c8.96 3.8912 15.5648 6.2464 21.6576 9.5232 73.2672 39.3728 129.536 96.256 171.8784 167.3728 5.632 9.4208 10.8544 17.408-0.1024 28.672-62.208 63.6928-123.4944 128.256-185.088 192.5632-2.7648-2.1504-5.5296-4.3008-8.3456-6.5024z" fill="#05C46D" ></path><path d="M652.3904 398.7968L373.7088 116.224c69.6832-24.1664 142.848-29.2864 217.1392-16.5888 61.696 10.5472 61.5424 11.3664 61.5424 73.472v225.6896z" fill="#1DCE75" ></path><path d="M497.7152 693.0432h391.7312c-25.6512 57.6512-62.5664 102.1952-107.6224 139.8272-23.3984 19.5584-49.408 36.096-75.3664 52.224-5.7344 3.584-19.6096 2.9184-23.9616-1.536-63.0784-63.8464-125.1328-128.6656-184.7808-190.5152zM331.4176 890.0608c-45.9264-19.0976-84.0192-45.1584-115.3024-78.7968-29.1328-31.3856-53.8624-66.9184-79.3088-101.5296-3.584-4.9152-3.4816-18.0736 0.4608-22.2208 61.6448-65.28 124.16-129.7408 186.4704-194.4064 2.56 1.8432 5.12 3.6352 7.68 5.4784v391.4752z" fill="#05C46D" ></path><path d="M397.2608 377.8048c-92.7232 90.5728-185.4464 181.1968-283.8016 277.2992-7.7824-37.0176-17.152-68.7616-20.6848-101.12-5.9392-54.7328-1.4336-109.4144 14.1312-162.5088 2.1504-7.2704 10.8544-17.92 16.64-17.9712 90.4192-1.1264 180.8384-0.8192 271.2576-0.8192 0.8704 1.6896 1.6896 3.4304 2.4576 5.12z" fill="#3CD38E" ></path><path d="M710.8608 144.384c-6.0928-3.2768-12.6976-5.632-21.6576-9.5232v391.6288c2.7648 2.2016 5.5808 4.352 8.3456 6.5536 49.3568-51.5584 98.6624-103.168 148.2752-154.4704 3.5328-25.0368 5.4272-50.6368 5.4272-76.6976 0-13.0048-0.512-25.856-1.3824-38.656-37.4272-48.7936-83.3024-88.9344-139.008-118.8352zM137.2672 687.5136c-3.8912 4.1472-4.0448 17.3056-0.4608 22.2208 25.4464 34.6112 50.176 70.144 79.3088 101.5296 10.5984 11.4176 22.016 21.8624 34.2016 31.5392 18.7392 1.9456 37.7344 2.9696 56.9856 2.9696 8.0896 0 16.0768-0.2048 24.1152-0.5632V498.6368c-2.56-1.8432-5.12-3.6352-7.68-5.4784-62.3104 64.6144-124.8256 129.0752-186.4704 194.3552zM368.0768 630.3232c0 70.4512-0.1536 141.2096 0.256 211.968 58.0096-6.5024 113.3056-22.0672 164.352-45.312-54.6304-55.296-109.5168-110.8992-164.608-166.656zM497.7152 693.0432c25.8048 26.7264 52.0704 54.0672 78.6432 81.6128 39.68-22.6304 76.1856-50.0736 108.8-81.6128H497.7152zM722.4832 653.1584c50.8928-60.1088 88.9856-131.3792 110.0288-209.664-70.7072 69.0688-141.5168 138.24-214.784 209.7152 35.6864 0 70.5024-0.0512 104.7552-0.0512z" fill="#1DCE75" ></path><path d="M701.4912 140.032c-3.6352-1.536-7.68-3.1744-12.3392-5.1712v93.696c6.4512-28.7232 10.6496-58.3168 12.3392-88.5248zM652.3904 336.7936V173.1072c0-62.1056 0.1536-62.9248-61.5424-73.472-74.2912-12.6976-147.456-7.6288-217.1392 16.5888 85.0944 86.272 169.9328 172.288 257.6896 261.3248 7.5776-13.2608 14.5408-26.8288 20.992-40.7552zM170.8032 652.3904c56.064-1.2288 109.9776-10.9568 160.6144-27.904V498.5856c-2.56-1.8432-5.12-3.6352-7.68-5.4784-51.0976 52.992-102.1952 105.984-152.9344 159.2832z" fill="#3CD38E" ></path><path d="M373.7088 116.224c33.4848 33.9456 66.9184 67.84 100.4544 101.888 25.6512-38.3488 46.5408-80.1792 61.8496-124.5696-55.3984-2.9184-109.824 4.4544-162.304 22.6816zM331.776 132.3008C254.6688 162.7648 151.7056 267.1104 133.9392 332.8h237.4144c28.2112-23.7056 54.016-50.2272 76.9536-79.1552-38.8096-40.3968-77.7728-80.9984-116.5312-121.344zM93.6448 455.3216c81.7152-10.8032 157.7472-39.7312 223.8464-82.688-64.6656-0.0512-129.28 0-193.9456 0.8192-5.7856 0.0512-14.4896 10.7008-16.64 17.9712-6.144 21.1456-10.496 42.4448-13.2608 63.8976z" fill="#48E1AA" ></path></svg>