<svg viewBox="0 0 1024 1024" version="1.1" xmlns="http://www.w3.org/2000/svg"><path d="M880.8448 613.8368V508.0576c0-199.7312-162.4576-362.1888-362.1888-362.1888-199.7312 0-362.1888 162.4576-362.1888 362.1888v102.3488c-38.5536 19.4048-65.024 59.2896-65.024 105.3696 0 65.1264 52.7872 117.9648 117.9648 117.9648h22.7328c14.592 28.2112 43.9808 47.5136 77.9264 47.5136 48.4352 0 87.7056-39.2704 87.7056-87.7056v-155.4944c0-48.4352-39.2704-87.7056-87.7056-87.7056-17.4592 0-33.6384 5.1712-47.3088 13.9264V508.0576c0-141.1072 114.7904-255.8976 255.8976-255.8976s255.8976 114.7904 255.8976 255.8976v60.7232c-14.848-11.52-33.4336-18.432-53.7088-18.432-48.4352 0-87.7056 39.2704-87.7056 87.7056v155.4944c0 48.4352 39.2704 87.7056 87.7056 87.7056 33.9456 0 63.3344-19.3024 77.9264-47.5136h22.7328c65.1264 0 117.9648-52.7872 117.9648-117.9648-0.0512-43.52-23.6032-81.4592-58.624-101.9392z" fill="#FC7032" ></path><path d="M875.3664 446.0032c-29.5424-170.24-178.2272-300.1344-356.7616-300.1344-199.7312 0-362.1888 162.4576-362.1888 362.1888v102.3488c-38.5536 19.4048-65.024 59.2896-65.024 105.3696 0 65.1264 52.7872 117.9648 117.9648 117.9648h22.7328c14.592 28.2112 43.9808 47.5136 77.9264 47.5136 48.4352 0 87.7056-39.2704 87.7056-87.7056v-155.4944c0-48.4352-39.2704-87.7056-87.7056-87.7056-17.4592 0-33.6384 5.1712-47.3088 13.9264V508.0576c0-141.1072 114.7904-255.8976 255.8976-255.8976s255.8976 114.7904 255.8976 255.8976v60.7232c-14.848-11.52-33.4336-18.432-53.7088-18.432-48.4352 0-87.7056 39.2704-87.7056 87.7056v155.4944c0 2.7648 0.1536 5.4784 0.4096 8.192 121.856-81.0496 210.6368-207.7696 241.8688-355.7376z" fill="#FF7E3E" ></path><path d="M518.656 252.16c69.12 0 131.84 27.5968 177.92 72.2432 13.4656-36.1472 23.3472-73.984 29.2352-113.152-58.7264-41.1136-130.1504-65.3312-207.1552-65.3312-199.7312 0-362.1888 162.4576-362.1888 362.1888v102.3488c-31.2832 15.7184-54.5792 44.9536-62.2592 80.0256 22.7328 2.7648 45.8752 4.1984 69.376 4.1984 83.5072 0 162.7648-18.0224 234.1888-50.3296v-6.2464c0-48.4352-39.2704-87.7056-87.7056-87.7056-17.4592 0-33.6384 5.1712-47.3088 13.9264V508.0576c-0.0512-141.1072 114.7392-255.8976 255.8976-255.8976z" fill="#FF9552" ></path><path d="M544.1024 146.8416c-8.448-0.6144-16.896-0.9728-25.4976-0.9728-189.1328 0-344.7808 145.7152-360.7552 330.8032 40.4992-10.0352 79.2576-24.4224 115.7632-42.6496 28.5696-94.3616 110.2336-165.7856 210.0736-179.456 23.9104-33.3824 44.1856-69.4784 60.416-107.7248z" fill="#FFA56A" ></path></svg>