<svg viewBox="0 0 1024 1024" version="1.1" xmlns="http://www.w3.org/2000/svg"><path d="M853.248 394.0864h-7.9872v181.1968c0 55.8592-45.312 101.1712-101.1712 101.1712H278.272c-55.8592 0-101.1712-45.312-101.1712-101.1712V394.0864h-7.9872c-47.616 0-86.2208 38.6048-86.2208 86.2208v356.3008c0 47.616 38.6048 86.2208 86.2208 86.2208h684.1856c47.616 0 86.2208-38.6048 86.2208-86.2208V480.3072c-0.0512-47.616-38.656-86.2208-86.272-86.2208z" fill="#BD50D3" ></path><path d="M708.864 106.9568H313.4464c-33.3824 0-60.4672 27.0848-60.4672 60.4672v375.552c0 33.3824 27.0848 60.4672 60.4672 60.4672h395.4176c33.3824 0 60.4672-27.0848 60.4672-60.4672V167.424c0.0512-33.3824-27.0336-60.4672-60.4672-60.4672z m-173.7216 361.1648H383.8976c-22.9376 0-41.5744-18.6368-41.5744-41.5744 0-22.9376 18.6368-41.5744 41.5744-41.5744h151.2448a41.5744 41.5744 0 1 1 0 83.1488z m107.8272-146.2784h-259.072c-22.9376 0-41.5744-18.6368-41.5744-41.5744s18.6368-41.5744 41.5744-41.5744h259.072a41.5744 41.5744 0 1 1 0 83.1488z" fill="#BF5CD6" ></path><path d="M853.248 394.0864h-7.9872v181.1968c0 55.8592-45.312 101.1712-101.1712 101.1712H278.272c-55.8592 0-101.1712-45.312-101.1712-101.1712V394.0864h-7.9872c-47.616 0-86.2208 38.6048-86.2208 86.2208v356.3008c0 47.616 38.6048 86.2208 86.2208 86.2208h280.7296c235.4176-59.0336 421.12-243.4048 481.8944-478.1056-13.568-29.8496-43.5712-50.6368-78.4896-50.6368z" fill="#BF5CD6" ></path><path d="M320.8704 676.4544h-42.6496c-55.8592 0-101.1712-45.312-101.1712-101.1712V394.0864h-7.9872c-47.616 0-86.2208 38.6048-86.2208 86.2208v280.9344c93.1328-24.5248 174.7456-56.2176 238.0288-84.7872z" fill="#CA6EE0" ></path><path d="M708.864 106.9568H313.4464c-33.3824 0-60.4672 27.0848-60.4672 60.4672v375.552c0 33.3824 27.0848 60.4672 60.4672 60.4672h147.6608c159.3344-100.9664 272.896-267.776 302.2848-462.1824-9.7792-20.224-30.464-34.304-54.528-34.304z m-173.7216 361.1648H383.8976c-22.9376 0-41.5744-18.6368-41.5744-41.5744 0-22.9376 18.6368-41.5744 41.5744-41.5744h151.2448a41.5744 41.5744 0 1 1 0 83.1488z m107.8272-146.2784h-259.072c-22.9376 0-41.5744-18.6368-41.5744-41.5744s18.6368-41.5744 41.5744-41.5744h259.072a41.5744 41.5744 0 1 1 0 83.1488z" fill="#CA6EE0" ></path><path d="M177.0496 426.7008v-32.6144h-7.9872c-38.5024 0-71.1168 25.2928-82.176 60.16 30.9248-7.1168 61.0304-16.3328 90.1632-27.5456zM252.928 167.424v224.4096c39.5776-21.2992 76.7488-46.4896 111.0016-75.0592a41.49248 41.49248 0 0 1-21.6064-36.4544c0-22.9376 18.6368-41.5744 41.5744-41.5744h59.1872c34.4064-40.0896 64.1024-84.2752 88.32-131.7888H313.4464c-33.4336 0-60.5184 27.0848-60.5184 60.4672z" fill="#D786EA" ></path></svg>