<svg viewBox="0 0 1024 1024" version="1.1" xmlns="http://www.w3.org/2000/svg"><path d="M913.4592 443.5968c-16.7936-149.4528-123.136-235.264-123.136-235.264-101.7856-98.816-293.9904-146.432-464.0256-52.992-181.1968 99.5328-253.1328 306.5344-219.5968 457.5232 33.536 150.9888 166.2464 294.3488 358.4 323.328 57.9584 7.6288 146.432-18.2784 102.1952-102.1952-44.2368-83.8656-10.7008-140.288 115.9168-126.5664 126.5664 13.7216 247.04-114.3808 230.2464-263.8336zM260.7104 530.8928c-37.888 0-68.608-30.72-68.608-68.608s30.72-68.608 68.608-68.608 68.608 30.72 68.608 68.608-30.6688 68.608-68.608 68.608z m137.2672-171.6224c-37.888 0-68.608-30.72-68.608-68.608s30.72-68.608 68.608-68.608 68.608 30.72 68.608 68.608c0.0512 37.888-30.6688 68.608-68.608 68.608z m217.088-12.4928c-37.888 0-68.608-30.72-68.608-68.608s30.72-68.608 68.608-68.608 68.608 30.72 68.608 68.608-30.72 68.608-68.608 68.608z m137.2672 176.384c-37.888 0-68.608-30.72-68.608-68.608s30.72-68.608 68.608-68.608 68.608 30.72 68.608 68.608-30.72 68.608-68.608 68.608z" fill="#F23D4F" ></path><path d="M752.3328 523.1616c-37.888 0-68.608-30.72-68.608-68.608s30.72-68.608 68.608-68.608c18.0736 0 34.5088 7.0656 46.7456 18.4832 1.9456-19.0976 2.9696-38.5024 2.9696-58.1632 0-49.92-6.5024-98.304-18.688-144.384C679.9872 107.52 492.5952 64 326.2976 155.3408 145.1008 254.8736 73.1648 461.8752 106.7008 612.864c26.0096 116.992 111.5648 229.4272 238.1824 287.5904 77.568-14.8992 149.4528-45.7216 212.1728-88.832-26.1632-68.9152 8.7552-113.6128 115.1488-105.1648a563.47648 563.47648 0 0 0 102.8096-187.136c-7.1168 2.4576-14.7456 3.84-22.6816 3.84z m-491.6224 7.7312c-37.888 0-68.608-30.72-68.608-68.608s30.72-68.608 68.608-68.608 68.608 30.72 68.608 68.608c0.0512 37.888-30.6688 68.608-68.608 68.608z m137.2672-171.6224c-37.888 0-68.608-30.72-68.608-68.608s30.72-68.608 68.608-68.608 68.608 30.72 68.608 68.608c0.0512 37.888-30.6688 68.608-68.608 68.608z m217.088-12.4928c-37.888 0-68.608-30.72-68.608-68.608s30.72-68.608 68.608-68.608 68.608 30.72 68.608 68.608-30.72 68.608-68.608 68.608z" fill="#FC4956" ></path><path d="M610.8672 346.5728c-35.9424-2.1504-64.4608-31.9488-64.4608-68.4032 0-37.888 30.72-68.608 68.608-68.608 10.0864 0 19.6608 2.2528 28.3136 6.144 2.816-22.8864 4.3008-46.1824 4.3008-69.8368 0-7.0656-0.1536-14.08-0.4096-21.0944-96.8192-31.0784-213.2992-28.5184-320.9216 30.6176-181.1968 99.4816-253.1328 306.4832-219.5968 457.472 7.168 32.1536 18.8416 63.9488 34.6112 94.4128 215.552-22.016 395.2128-165.4272 469.5552-360.704z m-350.1568 184.32c-37.888 0-68.608-30.72-68.608-68.608s30.72-68.608 68.608-68.608 68.608 30.72 68.608 68.608c0.0512 37.888-30.6688 68.608-68.608 68.608z m137.2672-171.6224c-37.888 0-68.608-30.72-68.608-68.608s30.72-68.608 68.608-68.608 68.608 30.72 68.608 68.608c0.0512 37.888-30.6688 68.608-68.608 68.608z" fill="#FF5C64" ></path><path d="M326.2976 155.3408C192 229.12 117.76 361.9328 101.9904 487.2704c31.5904-9.3696 62.0544-21.4528 91.0848-35.9424 5.2736-32.6656 33.4848-57.6512 67.6864-57.6512 7.1168 0 13.9264 1.0752 20.3776 3.072 23.808-17.9712 46.1312-37.7856 66.816-59.2896-11.4688-12.288-18.5856-28.7232-18.5856-46.848 0-37.888 30.72-68.608 68.608-68.608 11.3152 0 21.9648 2.7648 31.3856 7.6288 22.272-38.2464 40.1408-79.36 52.992-122.624-51.968 5.0688-105.0112 20.3264-156.0576 48.3328z" fill="#FF716E" ></path></svg>