<svg viewBox="0 0 1024 1024" version="1.1" xmlns="http://www.w3.org/2000/svg"><path d="M555.008 400.64c0-26.4704-21.5552-48.0256-48.0256-48.0256-26.4704 0-48.0256 21.5552-48.0256 48.0256 0 26.4704 21.5552 48.0256 48.0256 48.0256 26.4704 0 48.0256-21.5552 48.0256-48.0256z" fill="#8486F8" ></path><path d="M907.8784 877.5168l-100.0448-102.656c69.4784-73.8816 112.128-173.312 112.128-282.7264 0-228.0448-184.8832-412.928-412.928-412.928-228.0448 0-412.928 184.8832-412.928 412.928s184.8832 412.928 412.928 412.928c87.808 0 169.1648-27.4944 236.1344-74.24l103.5776 106.2912a42.4448 42.4448 0 0 0 30.5664 12.9024c10.752 0 21.504-4.0448 29.7984-12.1344 16.8448-16.4352 17.2032-43.4688 0.768-60.3648z m-239.6672-182.2208c-23.6032 0-42.7008-19.0976-42.7008-42.7008 0-65.3312-53.1456-118.528-118.528-118.528-65.3312 0-118.528 53.1456-118.528 118.528 0 23.6032-19.0976 42.7008-42.7008 42.7008s-42.7008-19.0976-42.7008-42.7008c0-72.96 38.5536-137.1136 96.3584-173.1584a132.77184 132.77184 0 0 1-25.856-78.7968c0-73.5744 59.8528-133.4272 133.4272-133.4272s133.4272 59.8528 133.4272 133.4272c0 29.44-9.6256 56.7296-25.856 78.7968 57.8048 36.0448 96.3584 100.1472 96.3584 173.1584 0 23.6032-19.0976 42.7008-42.7008 42.7008z" fill="#6C6CEA" ></path><path d="M830.5152 335.5136c0-38.8096-3.9936-76.7488-11.3664-113.5104-75.7248-87.3984-187.4432-142.7968-312.1664-142.7968-228.0448 0-412.928 184.8832-412.928 412.928 0 196.4544 137.216 360.7552 321.024 402.5344 241.408-78.1824 415.4368-298.9056 415.4368-559.1552zM345.7536 695.296c-23.6032 0-42.7008-19.0976-42.7008-42.7008 0-72.96 38.5536-137.1136 96.3584-173.1584a132.77184 132.77184 0 0 1-25.856-78.7968c0-73.5744 59.8528-133.4272 133.4272-133.4272s133.4272 59.8528 133.4272 133.4272c0 29.44-9.6256 56.7296-25.856 78.7968 57.8048 36.0448 96.3584 100.1472 96.3584 173.1584 0 23.6032-19.0976 42.7008-42.7008 42.7008-23.6032 0-42.7008-19.0976-42.7008-42.7008 0-65.3312-53.1456-118.528-118.528-118.528-65.3312 0-118.528 53.1968-118.528 118.528 0 23.6032-19.0976 42.7008-42.7008 42.7008z" fill="#757BF2" ></path><path d="M394.3424 615.936c36.1472-23.552 69.4784-50.7904 99.584-81.152-46.7968 5.2224-85.4016 37.6832-99.584 81.152zM94.0544 492.1344c0 79.0528 22.2208 152.8832 60.7744 215.6544 52.5312-8.3456 102.7584-23.2448 149.8624-43.776-1.024-3.6352-1.5872-7.4752-1.5872-11.4688 0-72.96 38.5536-137.1136 96.3584-173.1584a132.77184 132.77184 0 0 1-25.856-78.7968c0-73.5744 59.8528-133.4272 133.4272-133.4272 50.3808 0 94.3104 28.0576 116.992 69.376 25.8048-65.3824 40.0896-136.3456 40.0896-210.5344 0-5.376-0.256-10.7008-0.4096-16.0256a412.1344 412.1344 0 0 0-156.672-30.8736c-228.096 0.1024-412.9792 184.9856-412.9792 413.0304z" fill="#8486F8" ></path><path d="M94.464 476.9792C284.16 415.8976 432.2816 266.8544 487.4752 79.7184c-213.9648 9.9328-385.28 182.7328-393.0112 397.2608z" fill="#8D92F8" ></path></svg>