<svg viewBox="0 0 1024 1024" version="1.1" xmlns="http://www.w3.org/2000/svg"><path d="M99.584 698.7264c57.6512-8.3968 92.16-42.496 92.16-90.4704 0-47.9232-35.1744-82.7392-93.1328-90.4192 0-56.6784-1.3312-113.664 0.6144-170.5984 0.9216-26.624 24.2176-46.9504 52.5312-51.7632 9.5744-1.6384 19.5584-1.536 29.3376-1.536 222.6176-0.0512 445.2352-0.0512 667.8528-0.0512 62.1056 0 84.0704 21.0432 84.0704 80.384v142.7456c-60.3136 10.5472-93.952 44.7488-93.2352 93.184 0.7168 46.4384 34.9696 79.8208 92.7232 88.832 0 56.0128 1.2288 112.3328-0.512 168.5504-0.9216 29.7984-27.904 52.1216-60.5696 54.6816-12.1856 0.9728-24.5248 0.4608-36.8128 0.4608H188.8768c-71.0656 0-90.9824-18.7392-90.9312-85.9136 0-43.8784 0.1024-87.808 0.2048-131.6864 0.0512-1.4848 0.6656-3.0208 1.4336-6.4z m415.0272-146.8928c60.4672 0 120.9344 0.1024 181.4016-0.0512 28.5184-0.1024 42.2912-12.1344 42.9056-36.7616 0.7168-28.16-13.1584-43.008-42.0864-43.0592-120.1152-0.256-240.2304-0.256-360.2944 0-30.1056 0.0512-44.544 14.0288-44.3904 41.1648 0.1536 26.5216 13.3632 38.5536 43.5712 38.656 59.5968 0.2048 119.2448 0.0512 178.8928 0.0512z m-1.6896 112.896c-58.0096 0-116.0704-0.0512-174.08 0.0512-31.5392 0.0512-47.0528 13.7216-46.7456 40.7552 0.3072 26.88 14.3872 39.1168 46.08 39.168 118.528 0.1024 237.0048 0.1536 355.5328 0 31.4368-0.0512 45.568-12.8 45.2096-39.7312-0.3584-28.2624-13.2096-40.0384-44.544-40.1408-60.5184-0.2048-120.9856-0.1024-181.4528-0.1024z" fill="#FC7032" ></path><path d="M194.7648 230.0928h430.336L384.8192 110.336c-44.9024-22.3744-99.3792-8.6528-128.3072 32.3072L194.7648 230.0928z" fill="#FF9552" ></path><path d="M933.0176 374.272c0-59.3408-21.9648-80.384-84.0704-80.384-222.6176 0-445.2352 0-667.8528 0.0512-9.7792 0-19.7632-0.1024-29.3376 1.536-28.2624 4.8128-51.6096 25.1392-52.5312 51.7632-1.9456 56.9344-0.6144 113.92-0.6144 170.5984 57.9584 7.68 93.0816 42.496 93.1328 90.4192 0 47.9744-34.4576 82.0736-92.1088 90.4704-0.768 3.3792-1.4336 4.9152-1.4336 6.4-0.1024 43.8784-0.2048 87.808-0.2048 131.6864-0.0512 67.1232 19.8656 85.9136 90.9312 85.9136h325.632c140.8-49.408 259.4304-145.9712 336.9984-270.6944-7.424-12.1856-11.52-26.2656-11.7248-41.8304-0.6656-42.9568 25.8048-74.7008 73.8816-88.6784 7.6288-22.0672 14.08-44.6464 19.3024-67.7376V374.272zM336.4864 471.9616c120.1152-0.256 240.2304-0.256 360.2944 0 28.928 0.0512 42.8032 14.8992 42.0864 43.0592-0.6144 24.6272-14.3872 36.6592-42.9056 36.7616-60.4672 0.1536-120.9344 0.0512-181.4016 0.0512-59.648 0-119.296 0.1536-178.944-0.0512-30.208-0.1024-43.4176-12.1344-43.5712-38.656-0.1024-27.136 14.2848-41.1136 44.4416-41.1648z m357.2224 272.6912c-118.528 0.1536-237.0048 0.1536-355.5328 0-31.6928-0.0512-45.7728-12.288-46.08-39.168-0.3072-27.0336 15.2064-40.704 46.7456-40.7552 58.0096-0.1024 116.0704-0.0512 174.08-0.0512 60.4672 0 120.9856-0.1024 181.4528 0.0512 31.3344 0.1024 44.1856 11.8784 44.544 40.1408 0.3072 26.9824-13.824 39.7312-45.2096 39.7824z" fill="#FF7C33" ></path><path d="M151.7568 295.4752c-28.2624 4.8128-51.6096 25.1392-52.5312 51.7632-1.9456 56.9344-0.6144 113.92-0.6144 170.5984 57.9584 7.68 93.0816 42.496 93.1328 90.4192 0 47.9744-34.4576 82.0736-92.1088 90.4704-0.768 3.3792-1.4336 4.9152-1.4336 6.4 0 7.6288 0 15.2576-0.0512 22.8352 7.7312 0.256 15.5136 0.4608 23.3472 0.4608 59.0848 0 116.2752-7.936 170.6496-22.6816v-0.256c-0.3072-27.0336 15.2064-40.704 46.7456-40.7552 21.1968-0.0512 42.3424 0 63.5392 0a650.01984 650.01984 0 0 0 164.4032-112.896h-52.1728c-59.648 0-119.296 0.1536-178.944-0.0512-30.208-0.1024-43.4176-12.1344-43.5712-38.656-0.1536-27.136 14.2336-41.0624 44.3904-41.1648 100.7616-0.2048 201.5232-0.1536 302.2848 0a649.4208 649.4208 0 0 0 96.0512-178.0736c-184.576 0-369.152 0-553.6768 0.0512-9.9328 0-19.8656-0.1024-29.44 1.536z" fill="#FF9552" ></path><path d="M151.7568 295.4752c-28.2624 4.8128-51.6096 25.1392-52.5312 51.7632-1.536 45.312-1.024 90.7264-0.7168 135.9872 129.7408-28.5696 244.8896-95.8976 332.7488-189.2864H181.0944c-9.8304 0-19.7632-0.1024-29.3376 1.536zM518.8096 177.1008L384.8192 110.336c-44.8512-22.3744-99.3792-8.6528-128.3072 32.3072L194.7648 230.0928h289.3824c12.3392-17.0496 23.9104-34.7136 34.6624-52.992z" fill="#FFA56A" ></path></svg>