<svg viewBox="0 0 1024 1024" version="1.1" xmlns="http://www.w3.org/2000/svg"><path d="M967.936 717.9264c-1.4848-1.9968-3.072-4.096-4.7104-6.2464-9.0624-11.9296-25.1392-15.5648-38.2976-8.6528-33.7408 17.8176-82.432 35.5328-82.432 35.5328s1.536-42.752-10.8544-128.9728c-12.3904-86.272-36.0448-112.7424-57.7536-140.0832-21.7088-27.2896-8.1408-45.5168 5.4272-50.6368s19.7632-16.9984 19.7632-24.5248c-4.2496-49.0496-79.8208-56.9856-106.9568-56.9856H453.4272s0-19.7632-34.0992-102.8608c-46.4896-99.6864-188.3136-83.5072-222.0032-83.5072s-45.312 2.7648-45.312 22.528c0 19.7632 0.5632 55.6032 2.304 121.4464 1.7408 65.8944 15.104 97.7408 47.6672 97.7408s42.5984-10.2912 52.3264-53.4016c9.6768-43.1104 38.3488-20.992 41.472-7.936 12.8 53.4016-9.6768 85.8624-19.7632 100.096-62.7712 72.0896-87.296 194.2016-85.0432 225.5872 6.4 89.3952-29.6448 81.5104-42.8032 77.568-7.7312-2.304-33.3824-13.9264-53.248-23.0912-14.2848-6.6048-31.1296-1.1776-39.0656 12.6464l-3.6352 6.2976c-8.0896 14.0288-4.352 32.1024 8.7552 41.4208 48.0256 34.3552 180.48 105.216 455.2704 105.216 274.2784 0 401.2032-78.08 446.7712-116.1216 12.7488-10.7008 14.848-29.696 4.9152-43.0592z m-648.4992 44.7488c33.6896-128.2048 99.9936-208.896 208.4864-208.896 95.3344 0 149.5552 79.5136 201.8816 208.896-238.336 75.9808-410.368 0-410.368 0z" fill="#BD50D3" ></path><path d="M578.4064 793.6c-156.416 14.2848-258.9696-30.9248-258.9696-30.9248 33.6896-128.2048 99.9936-208.896 208.4864-208.896 79.36 0 130.2528 55.1424 175.2576 148.2752 46.08-43.6736 85.4016-94.464 116.224-150.528-12.7488-42.496-29.5936-62.1056-45.4144-82.0224-21.7088-27.2896-8.1408-45.5168 5.4272-50.6368 13.568-5.12 19.7632-16.9984 19.7632-24.5248-4.2496-49.0496-79.8208-56.9856-106.9568-56.9856H453.5296s0-19.7632-34.0992-102.8608c-46.4896-99.6864-188.3136-83.5072-222.0032-83.5072s-45.312 2.7648-45.312 22.528c0 19.7632 0.5632 55.6032 2.304 121.4464 1.7408 65.8944 15.104 97.7408 47.6672 97.7408s42.5984-10.2912 52.3264-53.4016c9.6768-43.1104 38.3488-20.992 41.472-7.936 12.8 53.4016-9.6768 85.8624-19.7632 100.096-62.8736 72.0896-87.3984 194.2016-85.1456 225.5872 6.4 89.3952-29.6448 81.5104-42.8032 77.568-7.7312-2.304-33.3824-13.9264-53.248-23.0912-14.2848-6.6048-31.1296-1.1776-39.0656 12.6464l-3.6352 6.2976c-8.0896 14.0288-4.352 32.1024 8.7552 41.4208 36.9152 26.4192 123.8016 74.3424 286.8224 95.1296 82.944-9.1648 160.9216-34.7136 230.6048-73.4208z" fill="#C65EDB" ></path><path d="M190.976 647.3216c197.0688-25.2416 364.9024-143.8208 457.8816-309.9648H453.4784s0-19.7632-34.0992-102.8608c-46.4896-99.6864-188.3136-83.5072-222.0032-83.5072s-45.312 2.7648-45.312 22.528c0 19.7632 0.5632 55.6032 2.304 121.4464 1.7408 65.8944 15.104 97.7408 47.6672 97.7408s42.5984-10.2912 52.3264-53.4016c9.6768-43.1104 38.3488-20.992 41.472-7.936 12.8 53.4016-9.6768 85.8624-19.7632 100.096-57.5488 66.048-82.944 174.08-85.0944 215.8592z" fill="#CA6EE0" ></path><path d="M254.3104 339.3536c9.6768-43.1104 38.3488-20.992 41.472-7.936 0.1536 0.5632 0.2048 1.1264 0.3584 1.6896 44.544-29.44 84.992-64.512 120.3712-104.2432-49.152-93.3888-186.112-77.8752-219.136-77.8752-33.6896 0-45.312 2.7648-45.312 22.528 0 19.7632 0.5632 55.6032 2.304 121.4464 1.4848 55.1936 11.1616 86.4256 33.3824 95.1296 20.6848-8.3968 40.8576-17.8176 60.3648-28.3136 2.2016-6.2464 4.1984-13.6192 6.1952-22.4256z" fill="#D786EA" ></path><path d="M239.4112 234.5472m-24.5248 0a24.5248 24.5248 0 1 0 49.0496 0 24.5248 24.5248 0 1 0-49.0496 0Z" fill="#FBE1FF" ></path></svg>