<svg viewBox="0 0 1024 1024" version="1.1" xmlns="http://www.w3.org/2000/svg"><path d="M512.1536 517.7856l321.9968-282.5216c-78.5408-89.4464-193.6384-145.9712-321.9968-145.9712-236.6464 0-428.4416 191.8464-428.4416 428.4416 0 236.6464 191.8464 428.4416 428.4416 428.4416 145.408 0 273.8176-72.4992 351.2832-183.296l-351.2832-245.0944z m-39.9872-237.056c0-33.8944 27.4944-61.3376 61.3376-61.3376s61.3376 27.4944 61.3376 61.3376-27.4944 61.3376-61.3376 61.3376-61.3376-27.4944-61.3376-61.3376z" fill="#FF3369" ></path><path d="M714.0352 506.7776m-62.0544 0a62.0544 62.0544 0 1 0 124.1088 0 62.0544 62.0544 0 1 0-124.1088 0Z" fill="#FF4D7C" ></path><path d="M876.4416 506.7776m-62.0544 0a62.0544 62.0544 0 1 0 124.1088 0 62.0544 62.0544 0 1 0-124.1088 0Z" fill="#FF3369" ></path><path d="M721.3568 663.808l-209.2032-146.0224 276.8896-242.944c-6.1952-36.5056-15.7184-71.8848-28.3136-105.7792-70.0928-50.1248-155.8528-79.7184-248.576-79.7184-236.6464 0-428.4416 191.8464-428.4416 428.4416 0 197.9392 134.2464 364.4416 316.6208 413.5936 136.8064-47.2064 250.7776-143.4112 321.024-267.5712zM472.1664 280.7296c0-33.8944 27.4944-61.3376 61.3376-61.3376s61.3376 27.4944 61.3376 61.3376-27.4944 61.3376-61.3376 61.3376-61.3376-27.4944-61.3376-61.3376z" fill="#FF4D7C" ></path><path d="M516.4544 520.7552l-4.3008-3.0208 17.9712-15.7696c66.816-95.5904 106.0352-211.8656 106.0352-337.3056 0-19.5072-0.9728-38.8096-2.816-57.856a428.26752 428.26752 0 0 0-121.1392-17.5104c-236.6464 0-428.4416 191.8464-428.4416 428.4416 0 83.6096 24.064 161.5872 65.4336 227.5328 149.248-26.1632 279.1936-108.544 367.2576-224.512z m17.1008-301.4144c33.8944 0 61.3376 27.4944 61.3376 61.3376s-27.4944 61.3376-61.3376 61.3376-61.3376-27.4944-61.3376-61.3376 27.4432-61.3376 61.3376-61.3376z" fill="#FF5F89" ></path><path d="M83.712 515.7888c192.8704-63.8464 341.6064-224.5632 388.5056-424.5504-217.2416 20.0704-387.4816 202.2912-388.5056 424.5504z" fill="#FF7196" ></path></svg>