<svg viewBox="0 0 1024 1024" version="1.1" xmlns="http://www.w3.org/2000/svg"><path d="M626.0224 260.0448h-74.9568V200.0384h67.1232c24.832 0 45.0048-20.1216 45.0048-45.0048s-20.1216-45.0048-45.0048-45.0048h-86.8352c-38.7584 0-70.2976 31.5392-70.2976 70.2976v79.7184h-71.168c-177.3056 0-321.024 143.7184-321.024 321.024s143.7184 321.024 321.024 321.024h236.0832c177.3056 0 321.024-143.7184 321.024-321.024 0-177.2544-143.7184-321.024-320.9728-321.024z m-233.984 365.312h-45.8752v45.8752a45.0048 45.0048 0 0 1-45.0048 45.0048 45.0048 45.0048 0 0 1-45.0048-45.0048v-45.8752h-45.8752a45.0048 45.0048 0 0 1-45.0048-45.0048 45.0048 45.0048 0 0 1 45.0048-45.0048h45.8752V489.472a45.0048 45.0048 0 0 1 45.0048-45.0048 45.0048 45.0048 0 0 1 45.0048 45.0048v45.8752h45.8752a45.0048 45.0048 0 0 1 45.0048 45.0048 45.0048 45.0048 0 0 1-45.0048 45.0048zM655.36 567.6032c-32.512 0-58.88-26.368-58.88-58.88s26.368-58.88 58.88-58.88 58.88 26.368 58.88 58.88-26.368 58.88-58.88 58.88z m133.376 132.7104c-32.512 0-58.88-26.368-58.88-58.88s26.368-58.88 58.88-58.88 58.88 26.368 58.88 58.88c0.0512 32.512-26.3168 58.88-58.88 58.88z" fill="#FF3369" ></path><path d="M551.0656 260.0448V200.0384h67.1232a45.0048 45.0048 0 0 0 45.0048-45.0048 45.0048 45.0048 0 0 0-45.0048-45.0048h-86.8352c-38.7584 0-70.2976 31.5392-70.2976 70.2976v79.7184h-71.168c-177.3056 0-321.024 143.7184-321.024 321.024s143.7184 321.024 321.024 321.024h134.4a525.9776 525.9776 0 0 0 238.6432-207.8208c-19.5584-9.5744-33.1264-29.6448-33.1264-52.8896 0-32.512 26.368-58.88 58.88-58.88 8.448 0 16.4864 1.8432 23.7568 5.0176 17.4592-52.224 27.0848-108.0832 27.0848-166.1952 0-29.2864-2.5088-58.0096-7.168-86.016-55.808-46.9504-127.7952-75.264-206.4384-75.264h-74.8544z m-159.0272 365.312h-45.8752v45.8752a45.0048 45.0048 0 0 1-45.0048 45.0048 45.0048 45.0048 0 0 1-45.0048-45.0048v-45.8752h-45.8752a45.0048 45.0048 0 0 1-45.0048-45.0048 45.0048 45.0048 0 0 1 45.0048-45.0048h45.8752V489.472a45.0048 45.0048 0 0 1 45.0048-45.0048 45.0048 45.0048 0 0 1 45.0048 45.0048v45.8752h45.8752a45.0048 45.0048 0 0 1 45.0048 45.0048 45.0048 45.0048 0 0 1-45.0048 45.0048z m322.2016-116.6848c0 32.512-26.368 58.88-58.88 58.88s-58.88-26.368-58.88-58.88 26.368-58.88 58.88-58.88 58.88 26.368 58.88 58.88z" fill="#FF4D7C" ></path><path d="M551.0656 260.0448V200.0384h67.1232a45.0048 45.0048 0 0 0 45.0048-45.0048 45.0048 45.0048 0 0 0-45.0048-45.0048h-86.8352c-38.7584 0-70.2976 31.5392-70.2976 70.2976v79.7184h-71.168c-177.3056 0-321.024 143.7184-321.024 321.024 0 64.8704 19.3024 125.2352 52.4288 175.7696 16.6912 1.5872 33.6384 2.5088 50.7392 2.5088 178.2272 0 335.5648-89.0368 430.2848-224.9728-3.7888-7.7824-5.9392-16.4352-5.9392-25.6512 0-30.7712 23.6032-56.0128 53.7088-58.624 25.344-56.2688 41.0624-117.76 45.0048-182.4256a323.4304 323.4304 0 0 0-69.12-7.5264h-74.9056z m-159.0272 365.312h-45.8752v45.8752a45.0048 45.0048 0 0 1-45.0048 45.0048 45.0048 45.0048 0 0 1-45.0048-45.0048v-45.8752h-45.8752a45.0048 45.0048 0 0 1-45.0048-45.0048 45.0048 45.0048 0 0 1 45.0048-45.0048h45.8752V489.472a45.0048 45.0048 0 0 1 45.0048-45.0048 45.0048 45.0048 0 0 1 45.0048 45.0048v45.8752h45.8752a45.0048 45.0048 0 0 1 45.0048 45.0048 45.0048 45.0048 0 0 1-45.0048 45.0048z" fill="#FF5F89" ></path><path d="M171.8784 557.1584a44.83584 44.83584 0 0 1 38.5024-21.76h26.9824c6.3488-2.56 12.6464-5.3248 18.8928-8.1408v-37.7344a45.0048 45.0048 0 0 1 45.0048-45.0048c20.3264 0 37.4784 13.4656 43.0592 32 117.76-84.0192 199.2192-215.4496 216.576-366.4896h-29.44c-38.7584 0-70.2976 31.5392-70.2976 70.2976v79.7184h-71.168c-174.592 0-316.5184 139.4176-320.8192 312.9344 35.2256-1.8944 69.632-7.2704 102.7072-15.8208z" fill="#FF7196" ></path></svg>