<svg viewBox="0 0 1024 1024" version="1.1" xmlns="http://www.w3.org/2000/svg"><path d="M803.7888 172.4416H224.8704c-87.7056 0-159.0272 71.3216-159.0272 159.0272v380.7744c0 87.7056 71.3216 159.0272 159.0272 159.0272h578.9184c87.7056 0 159.0272-71.3216 159.0272-159.0272V331.52c0-87.7056-71.3216-159.0784-159.0272-159.0784zM607.8464 328.704h151.7056c24.2176 0 43.8272 19.6096 43.8272 43.8272s-19.6096 43.8272-43.8272 43.8272h-151.7056c-24.2176 0-43.8272-19.6096-43.8272-43.8272s19.6096-43.8272 43.8272-43.8272z m0 132.4544h151.7056c24.2176 0 43.8272 19.6096 43.8272 43.8272s-19.6096 43.8272-43.8272 43.8272h-151.7056c-24.2176 0-43.8272-19.6096-43.8272-43.8272s19.6096-43.8272 43.8272-43.8272z m-93.8496 215.3472c-16.7936 30.0032-48.5376 48.6912-82.8928 48.6912h-158.72c-34.304 0-66.0992-18.6368-82.8928-48.6912-16.896-30.208-16.2304-65.792 1.8432-95.1296 14.592-23.7568 33.7408-43.3664 55.9104-58.2144-16.8448-22.1184-26.9824-49.6128-26.9824-79.5136 0-72.4992 58.9824-131.5328 131.5328-131.5328S483.328 371.0976 483.328 443.648c0 29.9008-10.1376 57.3952-26.9824 79.5136 22.1696 14.848 41.3184 34.4576 55.9104 58.2144 17.9712 29.3376 18.6368 64.9216 1.7408 95.1296z m299.7248 32.768h-205.8752c-24.2176 0-43.8272-19.6096-43.8272-43.8272s19.6096-43.8272 43.8272-43.8272h205.8752c24.2176 0 43.8272 19.6096 43.8272 43.8272s-19.6608 43.8272-43.8272 43.8272z" fill="#00A0E9" ></path><path d="M351.744 443.5968m-40.6016 0a40.6016 40.6016 0 1 0 81.2032 0 40.6016 40.6016 0 1 0-81.2032 0Z" fill="#55B5F3" ></path><path d="M351.744 582.4512c-34.048 0-65.0752 17.3568-82.944 46.4384-0.3584 0.6144-0.9216 1.4848 0.0512 3.1744 1.1776 2.1504 2.816 2.1504 3.5328 2.1504h158.72c0.7168 0 2.3552 0 3.5328-2.1504 0.9728-1.6896 0.4096-2.56 0.0512-3.1744-17.8688-29.0816-48.8448-46.4384-82.944-46.4384z" fill="#39A5E9" ></path><path d="M803.7888 172.4416H224.8704c-87.7056 0-159.0272 71.3216-159.0272 159.0272v380.7744c0 87.7056 71.3216 159.0272 159.0272 159.0272h284.1088c101.4272-31.5904 191.9488-88.0128 264.4992-161.9968h-165.632c-24.2176 0-43.8272-19.6096-43.8272-43.8272s19.6096-43.8272 43.8272-43.8272h205.8752c9.6768 0 18.5344 3.1744 25.8048 8.448 69.7344-98.9696 111.9232-218.7776 115.3536-348.2112-20.9408-63.488-80.7424-109.4144-151.0912-109.4144z m-289.792 504.064c-16.7936 30.0032-48.5376 48.6912-82.8928 48.6912h-158.72c-34.304 0-66.0992-18.6368-82.8928-48.6912-16.896-30.208-16.2304-65.792 1.8432-95.1296 14.592-23.7568 33.7408-43.3664 55.9104-58.2144-16.8448-22.1184-26.9824-49.6128-26.9824-79.5136 0-72.4992 58.9824-131.5328 131.4816-131.5328s131.5328 58.9824 131.5328 131.5328c0 29.9008-10.1376 57.3952-26.9824 79.5136 22.1696 14.848 41.3184 34.4576 55.9104 58.2144 18.0224 29.3376 18.688 64.9216 1.792 95.1296z m245.5552-127.6416h-151.7056c-24.2176 0-43.8272-19.6096-43.8272-43.8272s19.6096-43.8272 43.8272-43.8272h151.7056c24.2176 0 43.8272 19.6096 43.8272 43.8272s-19.6608 43.8272-43.8272 43.8272z m0-132.4544h-151.7056c-24.2176 0-43.8272-19.6096-43.8272-43.8272s19.6096-43.8272 43.8272-43.8272h151.7056c24.2176 0 43.8272 19.6096 43.8272 43.8272s-19.6608 43.8272-43.8272 43.8272z" fill="#39A5E9" ></path><path d="M145.92 674.3552c14.0288 0 27.9552-0.512 41.7792-1.3824-14.9504-29.3888-13.6704-63.3856 3.6864-91.5968 14.592-23.7568 33.7408-43.3664 55.9104-58.2144-16.8448-22.1184-26.9824-49.6128-26.9824-79.5136 0-72.4992 58.9824-131.5328 131.4816-131.5328S483.328 371.0976 483.328 443.648c0 29.9008-10.1376 57.3952-26.9824 79.5136 17.1008 11.4176 32.3584 25.7536 45.1072 42.5472 22.4256-15.1552 43.8272-31.744 64.0512-49.5616-0.9216-3.5328-1.4848-7.2192-1.4848-11.0592 0-24.2176 19.6096-43.8272 43.8272-43.8272h12.8c12.8-14.336 24.9344-29.2864 36.352-44.7488h-49.2032c-24.2176 0-43.8272-19.6096-43.8272-43.8272s19.6096-43.8272 43.8272-43.8272h103.68c25.0368-48.7424 43.9296-101.2224 55.7056-156.2624H224.8704c-87.7056 0-159.0272 71.3216-159.0272 159.0272v337.8176c26.2144 3.1744 52.9408 4.9152 80.0768 4.9152z" fill="#55B5F3" ></path><path d="M351.744 582.4512c-34.048 0-65.0752 17.3568-82.944 46.4384-0.3584 0.6144-0.9216 1.4848 0.0512 3.1744 1.1776 2.1504 2.816 2.1504 3.5328 2.1504h96.0512c17.9712-6.7072 35.584-14.1824 52.736-22.4768a96.50688 96.50688 0 0 0-69.4272-29.2864z" fill="#55B5F3" ></path><path d="M227.0208 402.1248c17.408-52.224 66.6624-90.0608 124.7232-90.0608 8.8064 0 17.408 0.9216 25.7024 2.56a638.34112 638.34112 0 0 0 133.3248-142.1824H224.8704c-87.7056 0-159.0272 71.3216-159.0272 159.0272v112.9984c56.3712-7.0144 110.4384-21.504 161.1776-42.3424z" fill="#6BC2FC" ></path></svg>