<svg viewBox="0 0 1024 1024" version="1.1" xmlns="http://www.w3.org/2000/svg"><path d="M858.368 406.6816l-199.1168 192.4096a105.15456 105.15456 0 0 1-30.464 20.5824l-103.1168 46.1312a120.59136 120.59136 0 0 1-49.5616 10.5984c-30.4128 0-59.5456-11.3152-82.0224-31.8976a121.3952 121.3952 0 0 1-32.768-129.2288l35.5328-102.8608c5.3248-15.4112 14.2336-29.5424 25.856-40.96l218.5728-215.552-16.2816-18.7904a39.68 39.68 0 0 0-29.9008-13.6704H236.2368c-64.4096 0-116.9408 52.3776-116.992 116.7872-0.2048 133.7344-0.0512 403.7632 0.0512 552.8064 0.0512 63.9488 52.0704 116.0192 116.0704 116.0704 78.4896 0.0512 232.6528 0.1536 368.8448 0.1536 69.376 0 134.144 0 181.8112-0.1024 64.4096-0.1024 116.7872-52.5824 116.7872-116.992v-319.488c0-9.5232-3.4304-18.688-9.6256-25.856l-34.816-40.1408z" fill="#FC7032" ></path><path d="M681.728 215.6544L473.1392 422.656c-3.7376 3.6864-6.6048 8.2432-8.3456 13.2096l-35.5328 102.8608a49.52064 49.52064 0 0 0 13.3632 52.736 49.4336 49.4336 0 0 0 53.7088 8.6528l103.1168-46.1312a34.7136 34.7136 0 0 0 9.8304-6.656l198.8608-193.8432-126.4128-137.8304z" fill="#FF7E3E" ></path><path d="M893.6448 193.7408l-51.712-53.8112a56.51968 56.51968 0 0 0-40.2432-17.4592c-15.2576-0.3072-29.7984 5.632-40.704 16.384l-24.8832 24.576L863.1808 302.08l28.9792-28.0064c22.4768-21.7088 23.1424-57.7536 1.4848-80.3328z" fill="#FC7032" ></path><path d="M874.752 425.6256l-16.384-18.944-199.1168 192.4096a105.15456 105.15456 0 0 1-30.464 20.5824l-103.1168 46.1312a120.59136 120.59136 0 0 1-49.5616 10.5984c-30.4128 0-59.5456-11.3152-82.0224-31.8976a121.3952 121.3952 0 0 1-32.768-129.2288l35.5328-102.8608c5.3248-15.4112 14.2336-29.5424 25.856-40.96l218.5728-215.552-16.2816-18.7904a39.68 39.68 0 0 0-29.9008-13.6704H236.2368c-64.4096 0-116.9408 52.3776-116.992 116.7872-0.2048 133.7344-0.0512 403.7632 0.0512 552.8064 0.0512 63.9488 52.0704 116.0192 116.0704 116.0704 41.6768 0.0512 104.6528 0.0512 174.9504 0.1024 233.216-58.6752 414.976-246.8352 464.4352-483.584zM876.9024 176.3328l-34.9696-36.4032a56.51968 56.51968 0 0 0-40.2432-17.4592c-15.2576-0.3072-29.7984 5.632-40.704 16.384l-24.8832 24.576L863.1808 302.08l24.7296-23.9104c-0.9216-34.7136-4.7104-68.7104-11.008-101.8368z" fill="#FF7E3E" ></path><path d="M361.3184 515.2768l35.5328-102.8608c5.3248-15.4112 14.2336-29.5424 25.856-40.96l218.5728-215.552-16.2816-18.7904a39.68 39.68 0 0 0-29.9008-13.6704H236.2368c-64.4096 0-116.9408 52.3776-116.992 116.7872-0.1536 109.7216-0.1024 311.1424 0 462.2848 93.9008-5.4272 182.3232-31.3344 260.864-73.3184-24.832-32.0512-32.3584-74.8032-18.7904-113.92z" fill="#FF9552" ></path><path d="M694.8352 229.9392l-13.1072-14.2848-208.5888 207.0016c-3.7376 3.6864-6.6048 8.2432-8.3456 13.2096l-35.5328 102.8608a49.46432 49.46432 0 0 0 13.1072 52.4288c122.7264-85.0944 213.9648-212.5312 252.4672-361.216z" fill="#FF9552" ></path><path d="M492.3392 123.4432H236.2368c-64.4096 0-116.9408 52.3776-116.992 116.7872-0.0512 53.248-0.1024 128.1536-0.1024 208.384C283.136 395.2128 417.7408 276.6336 492.3392 123.4432z" fill="#FFA56A" ></path></svg>