<svg viewBox="0 0 1024 1024" version="1.1" xmlns="http://www.w3.org/2000/svg"><path d="M450.9696 533.76h116.9408L511.6416 407.6544z" fill="#FF5F89" ></path><path d="M513.2288 89.1392c-235.3664 0-426.9056 191.488-426.9056 426.9056s191.488 426.9056 426.9056 426.9056 426.9056-191.488 426.9056-426.9056-191.5392-426.9056-426.9056-426.9056z m190.6176 637.952a45.4144 45.4144 0 0 1-60.0064-22.9888L608.4096 624.64H407.296l-38.8096 80.6912c-10.8544 22.6304-38.0416 32.1024-60.6208 21.248-22.5792-10.8544-32.1024-37.9904-21.248-60.6208l185.7024-385.9968a45.39904 45.39904 0 0 1 40.9088-25.7536h0.6656c17.7152 0.256 33.6384 10.752 40.8064 26.9312l172.1344 385.9968c10.1888 22.8864-0.1024 49.7664-22.9888 59.9552z" fill="#FF3369" ></path><path d="M816.3328 215.7568c-77.4144-78.1312-184.6784-126.6176-303.104-126.6176-235.3664 0-426.9056 191.488-426.9056 426.9056 0 190.1056 124.928 351.5392 296.96 406.6304 121.2928-30.976 227.6352-99.2256 306.176-191.7952-1.3824 0.1024-2.7648 0.2048-4.1472 0.2048-17.408 0-33.9456-10.0352-41.5232-26.9312L608.4096 624.64H407.296l-38.8096 80.6912c-10.8544 22.6304-38.0416 32.1024-60.6208 21.248-22.5792-10.8544-32.1024-37.9904-21.248-60.6208l185.7024-385.9968a45.4912 45.4912 0 0 1 40.9088-25.7536h0.6656c17.664 0.256 33.6384 10.752 40.8064 26.9312l172.1344 385.9968c1.4848 3.328 2.5088 6.8096 3.1232 10.24 63.5904-94.72 100.7104-208.6912 100.7104-331.3152 0-44.7488-4.9664-88.3712-14.336-130.304z" fill="#FF4D7C" ></path><path d="M86.3232 515.9936a423.7312 423.7312 0 0 0 55.3472 209.7664c49.0496-5.632 96.256-17.2544 140.9024-34.048-1.1776-8.4992 0.0512-17.4592 4.0448-25.8048l185.7024-385.9968a45.4912 45.4912 0 0 1 40.9088-25.7536h0.6656c17.664 0.256 33.6384 10.752 40.8064 26.9312l52.0192 116.6336c39.168-79.3088 61.184-168.6016 61.184-263.0656 0-5.5296-0.1024-11.0592-0.256-16.5888a424.14592 424.14592 0 0 0-154.4192-29.0304c-235.4176 0.1024-426.9056 191.5904-426.9056 426.9568zM410.624 624.64h-3.3792l-1.6896 3.4816c1.7408-1.1776 3.3792-2.3552 5.0688-3.4816z" fill="#FF5F89" ></path><path d="M86.8352 496.384C283.2896 440.32 438.2208 285.7984 494.8992 89.6c-220.416 9.3696-398.0288 186.5728-408.064 406.784z" fill="#FF7196" ></path></svg>