<svg viewBox="0 0 1024 1024" version="1.1" xmlns="http://www.w3.org/2000/svg"><path d="M227.2768 416.768H129.6384a40.0896 40.0896 0 1 1 0-80.1792h97.6384a40.0896 40.0896 0 1 1 0 80.1792zM227.2768 694.3232H129.6384a40.0896 40.0896 0 1 1 0-80.1792h97.6384a40.0896 40.0896 0 1 1 0 80.1792z" fill="#3CD38E" ></path><path d="M579.4816 438.1696c19.712 0 35.7376-16.0256 35.7376-35.7376 0-19.712-16.0256-35.7376-35.7376-35.7376-19.712 0-35.7376 16.0256-35.7376 35.7376 0.0512 19.712 16.0768 35.7376 35.7376 35.7376z" fill="#05C46D" ></path><path d="M579.4816 579.1232c-48.9472 0-92.0576 29.5936-109.824 74.4448h219.6992c-17.7664-44.9024-60.8768-74.4448-109.8752-74.4448z" fill="#1DCE75" ></path><path d="M736.4096 97.6384H338.176c-90.3168 0-163.84 73.472-163.84 163.84v5.9904h52.8896c60.3648 0 109.312 48.9472 109.312 109.312s-48.9472 109.312-109.312 109.312H174.3872v59.0848h52.8896c60.3648 0 109.312 48.9472 109.312 109.312s-48.9472 109.312-109.312 109.312H174.3872v3.8912c0 90.3168 73.472 163.84 163.84 163.84h398.1824c90.3168 0 163.84-73.472 163.84-163.84V261.4272c-0.0512-90.3168-73.5232-163.7888-163.84-163.7888z m27.2384 609.8944c-15.36 20.9408-40.0384 33.4336-65.9968 33.4336H461.3632c-25.9584 0-50.6368-12.4928-65.9968-33.4336-15.4112-21.0432-19.8144-47.3088-11.9808-72.0896 19.7632-62.7712 67.1744-110.3872 126.4128-131.584-32.256-22.2208-53.4016-59.392-53.4016-101.4272 0-67.8912 55.2448-123.136 123.136-123.136 67.8912 0 123.136 55.2448 123.136 123.136 0 42.0352-21.1968 79.1552-53.4016 101.4272 59.2384 21.1968 106.6496 68.8128 126.4128 131.584 7.7824 24.7808 3.3792 51.0464-12.032 72.0896z" fill="#05C46D" ></path><path d="M736.4096 97.6384H338.176c-90.3168 0-163.84 73.472-163.84 163.84v5.9904h52.8896c60.3648 0 109.312 48.9472 109.312 109.312s-48.9472 109.312-109.312 109.312H174.3872v59.0848h52.8896c60.3648 0 109.312 48.9472 109.312 109.312s-48.9472 109.312-109.312 109.312H174.3872v3.8912c0 90.3168 73.472 163.84 163.84 163.84h398.1824c90.3168 0 163.84-73.472 163.84-163.84V261.4272c-0.0512-90.3168-73.5232-163.7888-163.84-163.7888z m27.2384 609.8944c-15.36 20.9408-40.0384 33.4336-65.9968 33.4336H461.3632c-25.9584 0-50.6368-12.4928-65.9968-33.4336-15.4112-21.0432-19.8144-47.3088-11.9808-72.0896 19.7632-62.7712 67.1744-110.3872 126.4128-131.584-32.256-22.2208-53.4016-59.392-53.4016-101.4272 0-67.8912 55.2448-123.136 123.136-123.136 67.8912 0 123.136 55.2448 123.136 123.136 0 42.0352-21.1968 79.1552-53.4016 101.4272 59.2384 21.1968 106.6496 68.8128 126.4128 131.584 7.7824 24.7808 3.3792 51.0464-12.032 72.0896z" fill="#05C46D" ></path><path d="M900.1984 409.4976V261.4272c0-90.3168-73.472-163.84-163.84-163.84H338.176c-90.3168 0-163.84 73.472-163.84 163.84v5.9904h52.8896c60.3648 0 109.312 48.9472 109.312 109.312s-48.9472 109.312-109.312 109.312H174.3872v59.0848h52.8896c60.3648 0 109.312 48.9472 109.312 109.312s-48.9472 109.312-109.312 109.312H174.3872v3.8912c0 87.3984 68.8128 159.0272 155.0848 163.584 161.1264-15.0016 304.896-89.4976 409.1904-201.3696-12.3392 7.168-26.4192 11.2128-41.0112 11.2128H461.3632c-25.9584 0-50.6368-12.4928-65.9968-33.4336-15.4112-21.0432-19.8144-47.3088-11.9808-72.0896 19.7632-62.7712 67.1744-110.3872 126.4128-131.584-32.256-22.2208-53.4016-59.392-53.4016-101.4272 0-67.8912 55.2448-123.136 123.136-123.136 67.8912 0 123.136 55.2448 123.136 123.136 0 42.0352-21.1968 79.1552-53.4016 101.4272 59.2384 21.1968 106.6496 68.8128 126.4128 131.584 5.632 17.8176 4.8128 36.4032-1.7408 53.2992 62.8224-80.0768 107.0592-175.3088 126.2592-279.3472z" fill="#1DCE75" ></path><path d="M382.8736 637.44c0.2048-0.6656 0.3072-1.3312 0.512-1.9968 19.7632-62.7712 67.1744-110.3872 126.4128-131.584-32.256-22.2208-53.4016-59.392-53.4016-101.4272 0-67.8912 55.2448-123.136 123.136-123.136 40.4992 0 76.4416 19.7632 98.8672 50.0736a637.54752 637.54752 0 0 0 56.1664-231.7312H338.176c-90.3168 0-163.84 73.472-163.84 163.84v5.9904h52.8896c60.3648 0 109.312 48.9472 109.312 109.312s-48.9472 109.312-109.312 109.312H174.3872v59.0848h52.8896c60.3648 0 109.312 48.9472 109.312 109.312 0 1.4336-0.1536 2.816-0.2048 4.2496 15.8208-6.5536 31.2832-13.6192 46.4896-21.2992z" fill="#3CD38E" ></path><path d="M519.0656 97.6384H338.176c-90.3168 0-163.84 73.472-163.84 163.84v5.9904h52.8896c47.7696 0 88.2176 30.6688 103.1168 73.3696 81.1008-64.256 146.2784-147.5584 188.7232-243.2zM227.2768 336.64H129.6384c-22.1184 0-40.0896 17.9712-40.0896 40.0896s17.9712 40.0896 40.0896 40.0896h78.8992c19.8656-9.472 39.168-19.968 57.856-31.3344a40.09472 40.09472 0 0 0-39.1168-48.8448z" fill="#48E1AA" ></path></svg>