<svg viewBox="0 0 1024 1024" version="1.1" xmlns="http://www.w3.org/2000/svg"><path d="M718.4896 610.5088c0.2048-0.0512 0.4096-0.0512 0.6144-0.1536 207.7184-59.4944 211.7632-291.5328 210.4832-337.4592-0.768-27.2384-22.7328-48.4864-49.9712-48.4864h-0.1024l-99.3792 0.2048v-15.3088c0-39.2192-31.9488-71.168-71.168-71.168H322.7136c-39.2192 0-71.168 31.9488-71.168 71.168v15.104H148.9408c-27.2384 0-49.2032 21.2992-49.9712 48.4864-1.28 45.9264 2.7136 277.9648 210.4832 337.4592 1.4848 0.4096 2.9696 0.6656 4.4544 0.9216 40.0896 47.5136 96.6144 80.7424 160.7168 90.8288v95.5904H327.4752c-23.2448 0-42.0352 18.8416-42.0352 42.0352 0 23.2448 18.8416 42.0352 42.0352 42.0352h376.4224c23.2448 0 42.0352-18.8416 42.0352-42.0352 0-23.2448-18.8416-42.0352-42.0352-42.0352h-145.2032v-95.8976c63.7952-10.3936 120.0128-43.776 159.7952-91.2896z m61.6448-169.4208V308.736l64.6144-0.1536c-3.1744 45.6704-16.5376 121.4464-67.7888 173.4656 2.0992-13.3632 3.1744-27.0336 3.1744-40.96zM183.8592 308.48h67.7376v132.608c0 15.2064 1.3824 30.1056 3.84 44.6464-54.3744-52.1216-68.352-130.4576-71.5776-177.2544z m229.6832 131.584a40.24832 40.24832 0 0 1-80.4864 0V286.6688a40.24832 40.24832 0 0 1 80.4864 0v153.3952z" fill="#FF8E12" ></path><path d="M747.5712 277.6064c0-47.4112-6.7584-93.2352-19.1488-136.704-6.1952-1.7408-12.6976-2.7648-19.4048-2.7648H322.7136c-39.2192 0-71.168 31.9488-71.168 71.168v15.104H148.9408c-27.2384 0-49.2032 21.2992-49.9712 48.4864-1.28 45.9264 2.7136 277.9648 210.4832 337.4592 1.4848 0.4096 2.9696 0.6656 4.4544 0.9216 40.0896 47.5136 96.6144 80.7424 160.7168 90.8288v19.5072c161.8944-82.1248 272.9472-250.0096 272.9472-444.0064z m-563.712 30.8736h67.7376v132.608c0 15.2064 1.3824 30.1056 3.84 44.6464-54.3744-52.1216-68.352-130.4576-71.5776-177.2544z m229.6832 131.584a40.24832 40.24832 0 0 1-80.4864 0V286.6688a40.24832 40.24832 0 0 1 80.4864 0v153.3952z" fill="#FCA315" ></path><path d="M609.8944 138.1376H322.7136c-39.2192 0-71.168 31.9488-71.168 71.168v15.104H148.9408c-27.2384 0-49.2032 21.2992-49.9712 48.4864-1.1264 40.3456 1.8944 224.3072 143.4624 308.736 200.9088-53.6576 351.5904-229.7856 367.4624-443.4944zM183.8592 308.48h67.7376v132.608c0 15.2064 1.3824 30.1056 3.84 44.6464-54.3744-52.1216-68.352-130.4576-71.5776-177.2544z m229.6832 131.584a40.24832 40.24832 0 0 1-80.4864 0V286.6688a40.24832 40.24832 0 0 1 80.4864 0v153.3952z" fill="#FCB138" ></path><path d="M183.8592 308.48h67.7376v38.7072a496.3328 496.3328 0 0 0 81.5616-63.5904c1.4336-18.9952 16.0256-34.2528 34.6624-36.8128a498.4832 498.4832 0 0 0 70.4-108.6464H322.7136c-39.2192 0-71.168 31.9488-71.168 71.168v15.104H148.9408c-27.2384 0-49.2032 21.2992-49.9712 48.4864-0.5632 19.6608-0.1024 73.3696 16.8448 133.0176a495.7696 495.7696 0 0 0 79.36-28.4672c-6.8608-25.6-10.0352-49.92-11.3152-68.9664z" fill="#FFC65E" ></path></svg>