<svg viewBox="0 0 1024 1024" version="1.1" xmlns="http://www.w3.org/2000/svg"><path d="M675.6864 344.32c161.3824-205.7728-25.856-218.0608-69.0176-202.1888-55.4496-51.8656-139.2128-49.152-194.6624 3.7376-261.1712-35.84-86.2208 198.4512-86.2208 198.4512-246.1184 148.1728-234.5984 346.2656-224.256 446.0032 12.8 122.88 134.6048 129.0752 134.6048 129.0752h570.7264c69.3248 0 99.7888-71.168 109.056-126.5664 35.1232-290.2016-112.128-357.3248-240.2304-448.512z m15.616 350.0544c16.64 0 30.1568 17.3056 30.1568 33.9456s-13.5168 33.3312-30.1568 33.3312h-150.0672v58.5216c0 16.64-15.5136 30.1568-32.1536 30.1568s-31.9488-13.5168-31.9488-30.1568v-58.5216H326.912c-16.64 0-30.1568-18.1248-30.1568-34.7648s13.5168-32.5632 30.1568-32.5632H477.184v-54.4768H326.912c-16.64 0-30.0544-17.7664-30.0544-34.4576s13.3632-32.8704 30.0544-32.8704h125.6448L363.3664 492.2368a30.13632 30.13632 0 0 1-2.2016-42.5984 30.13632 30.13632 0 0 1 42.5984-2.2016L509.5424 542.72l107.9296-95.4368a30.1568 30.1568 0 0 1 42.5984 2.6112 30.1568 30.1568 0 0 1-2.6112 42.5984l-90.624 80.128h124.5696c16.64 0 30.1568 16.128 30.1568 32.8192 0 16.64-13.5168 34.5088-30.1568 34.5088h-150.0672v54.4768h149.9648z" fill="#FC7032" ></path><path d="M675.6864 344.32c161.3824-205.7728-25.856-218.0608-69.0176-202.1888-55.4496-51.8656-139.2128-49.152-194.6624 3.7376-261.1712-35.84-86.2208 198.4512-86.2208 198.4512-246.1184 148.1728-234.5984 346.2656-224.256 446.0032 12.8 122.88 134.6048 129.0752 134.6048 129.0752h317.3888c158.1056-78.08 277.7088-222.208 322.7648-396.3392-48.128-82.3808-127.488-126.6688-200.6016-178.7392z m15.616 350.0544c16.64 0 30.1568 17.3056 30.1568 33.9456s-13.5168 33.3312-30.1568 33.3312h-150.0672v58.5216c0 16.64-15.5136 30.1568-32.1536 30.1568s-31.9488-13.5168-31.9488-30.1568v-58.5216H326.912c-16.64 0-30.1568-18.1248-30.1568-34.7648s13.5168-32.5632 30.1568-32.5632H477.184v-54.4768H326.912c-16.64 0-30.0544-17.7664-30.0544-34.4576 0-16.64 13.3632-32.8704 30.0544-32.8704h125.6448L363.3664 492.2368a30.13632 30.13632 0 0 1-2.2016-42.5984 30.13632 30.13632 0 0 1 42.5984-2.2016L509.5424 542.72l107.9296-95.4368a30.1568 30.1568 0 0 1 42.5984 2.6112 30.1568 30.1568 0 0 1-2.6112 42.5984l-90.624 80.128h124.5696c16.64 0 30.1568 16.128 30.1568 32.8192 0 16.64-13.5168 34.5088-30.1568 34.5088h-150.0672v54.4768h149.9648z" fill="#FF7E3E" ></path><path d="M711.168 292.9152c9.3696-39.5264 14.848-80.4864 16.1792-122.5216-28.3648-37.0688-96.9216-36.9664-120.9344-28.16-55.4496-51.8656-139.2128-49.152-194.6624 3.7376-261.1712-35.84-86.2208 198.4512-86.2208 198.4512-226.3552 136.2432-234.8032 314.7264-226.6112 420.096 5.0176 0.1024 10.0864 0.2048 15.1552 0.2048 64.4096 0 126.464-7.5776 184.7808-25.9584-1.536-3.6352-2.0992-7.3216-2.0992-11.4688 0-16.64 13.2608-32.8192 29.9008-32.8192H399.36c27.7504-14.592 52.5312-24.32 77.568-42.8544V640H326.656c-16.64 0-30.0544-17.7664-30.0544-34.4576 0-16.64 13.3632-32.8704 30.0544-32.8704h125.6448L363.1104 492.3392a30.13632 30.13632 0 0 1-2.2016-42.5984 30.13632 30.13632 0 0 1 42.5984-2.2016l105.7792 95.2832 107.9296-95.4368c10.24-9.0624 24.9344-9.7792 35.9424-2.816a615.936 615.936 0 0 0 39.3728-88.1152c-5.6832-3.9424-11.4176-7.936-17.0496-11.9296 14.6432-18.8416 26.4192-35.9424 35.6864-51.6096z" fill="#FF9552" ></path><path d="M147.3536 518.2976c192.1024-61.5424 342.9888-215.1424 400.7424-408.9344-46.4896-12.4928-97.9456 0.1536-136.0896 36.5056-261.1712-35.84-86.2208 198.4512-86.2208 198.4512-89.344 53.76-144.5888 114.1248-178.432 173.9776z" fill="#FFA56A" ></path></svg>