<svg viewBox="0 0 1024 1024" version="1.1" xmlns="http://www.w3.org/2000/svg"><path d="M518.656 84.1728c-237.056 0-429.2608 192.2048-429.2608 429.2608 0 237.056 192.2048 429.2608 429.2608 429.2608 237.1072 0 429.2608-192.2048 429.2608-429.2608 0.0512-237.056-192.1536-429.2608-429.2608-429.2608z m185.6512 394.7008l-62.72 61.184a27.17696 27.17696 0 0 0-7.8336 24.1664l14.7968 86.3744c3.84 22.3232-19.5584 39.3216-39.6288 28.7744l-77.568-40.7552a27.17696 27.17696 0 0 0-25.3952 0l-77.568 40.7552c-20.0192 10.5472-43.4176-6.4512-39.6288-28.7744l14.7968-86.3744c1.536-8.8576-1.4336-17.8688-7.8336-24.1664L333.056 478.8736c-16.1792-15.7696-7.2704-43.3152 15.104-46.5408l86.6816-12.5952a27.08992 27.08992 0 0 0 20.5312-14.9504l38.7584-78.592c10.0352-20.2752 38.9632-20.2752 48.9472 0l38.7584 78.592a27.50464 27.50464 0 0 0 20.5312 14.9504l86.7328 12.5952c22.4768 3.2256 31.4368 30.72 15.2064 46.5408z" fill="#BD50D3" ></path><path d="M902.7072 321.6384c-70.4512-140.7488-215.9104-237.4656-384-237.4656-237.056 0-429.2608 192.2048-429.2608 429.2608 0 166.9632 95.3856 311.552 234.5472 382.5152 311.1936-15.2576 561.1008-263.7312 578.7136-574.3104zM348.16 432.2816l86.6816-12.5952a27.08992 27.08992 0 0 0 20.5312-14.9504l38.7584-78.592c10.0352-20.2752 38.9632-20.2752 48.9472 0l38.7584 78.592a27.50464 27.50464 0 0 0 20.5312 14.9504l86.7328 12.5952c22.3744 3.2768 31.3344 30.7712 15.104 46.5408l-62.72 61.184a27.17696 27.17696 0 0 0-7.8336 24.1664l14.7968 86.3744c3.84 22.3232-19.5584 39.3216-39.6288 28.7744l-77.568-40.7552a27.17696 27.17696 0 0 0-25.3952 0l-77.568 40.7552c-20.0192 10.5472-43.4176-6.5024-39.6288-28.7744l14.7968-86.3744c1.536-8.8576-1.4336-17.8688-7.8336-24.1664L333.056 478.8736c-16.2304-15.8208-7.2704-43.3152 15.104-46.592z" fill="#BF5CD6" ></path><path d="M518.656 84.1728c-237.056 0-429.2608 192.2048-429.2608 429.2608 0 59.0848 11.9296 115.3536 33.536 166.5536 1.28 0 2.5088 0.0512 3.7376 0.0512 96 0 186.8288-22.2208 267.6736-61.696l9.2672-54.1696c1.536-8.8576-1.4336-17.8688-7.8336-24.1664L333.056 478.8736c-16.1792-15.7696-7.2704-43.3152 15.104-46.5408l86.6816-12.5952a27.08992 27.08992 0 0 0 20.5312-14.9504l38.7584-78.592c10.0352-20.2752 38.9632-20.2752 48.9472 0l38.7584 78.592a27.50464 27.50464 0 0 0 20.5312 14.9504l21.9136 3.1744a606.95552 606.95552 0 0 0 108.2368-281.5488c-62.8736-36.3008-135.8848-57.1904-213.8624-57.1904z" fill="#CA6EE0" ></path><path d="M93.8496 452.1984c202.1376-40.5504 368.128-180.9408 444.3648-367.5136-6.4512-0.3072-12.9536-0.512-19.5072-0.512-216.32 0-395.1616 159.9488-424.8576 368.0256z" fill="#D786EA" ></path></svg>