<svg viewBox="0 0 1024 1024" version="1.1" xmlns="http://www.w3.org/2000/svg"><path d="M851.1488 434.0224c-55.7568-44.032-111.9232-62.6688-167.6288-55.9616-5.2224 0.6144-7.7824 6.656-4.608 10.8032 75.008 98.4064 135.8336 229.0688 149.8112 399.7184 0.512 6.0928 8.0896 8.4992 11.9808 3.7888 59.2896-71.6288 95.6928-162.816 98.304-262.4512 0.0512-1.4848-0.3584-2.9184-1.2288-4.1472-15.1552-20.9408-45.4144-59.2384-86.6304-91.7504zM601.088 301.6192c5.7856 5.5808 11.5712 11.3152 17.3056 17.2032 1.792 1.8432 4.4544 2.4576 6.8608 1.6896 90.4192-29.44 183.2448-8.8064 270.336 60.5696 3.6864 2.9696 7.3216 5.9392 10.8544 8.96 5.2224 4.4032 13.0048-0.6656 10.8544-7.168a429.01504 429.01504 0 0 0-87.0912-150.272c-1.2288-1.3824-2.9184-2.2016-4.7104-2.304-48.128-2.304-124.672 6.7584-222.976 60.5184-3.9936 2.2016-4.7104 7.68-1.4336 10.8032z" fill="#6C6CEA" ></path><path d="M516.2496 230.3488c6.4512 4.7616 12.9024 9.6256 19.3536 14.6432 2.2016 1.6896 5.2224 1.8944 7.5776 0.4608 74.496-44.544 140.1856-66.8672 194.6624-76.9024 6.0416-1.1264 7.5776-9.0624 2.3552-12.3392a428.16 428.16 0 0 0-135.7824-56.6272c-3.072-0.7168-6.1952 0.8192-7.5776 3.6864-16.896 35.4304-42.752 78.08-81.2544 116.9408-2.9184 2.9184-2.6624 7.68 0.6656 10.1376z" fill="#757BF2" ></path><path d="M537.3952 947.5072c82.7904-5.2736 159.1808-34.0992 222.6688-79.7184 1.792-1.28 2.8672-3.3792 2.8672-5.5808 0.1536-176.896-51.5072-328.0896-154.4192-451.7888-2.2528-2.6624-6.2464-3.2768-9.1136-1.28-47.5648 33.8944-59.392 91.3408-64.256 188.6208-3.5328 71.1168-4.608 246.8864-4.9152 342.9888 0 3.84 3.2768 6.9632 7.168 6.7584zM466.176 594.2784c4.608-92.416 15.36-179.7632 84.3264-234.8544 3.2256-2.6112 3.584-7.424 0.5632-10.24-4.2496-4.0448-8.6016-8.0384-13.0048-11.9808-2.3552-2.0992-5.8368-2.3552-8.448-0.512-21.1456 14.9504-43.0592 31.8976-65.6896 51.1488-90.8288 77.9264-192.7168 181.6064-262.656 425.0624-0.6656 2.3552-0.0512 4.9152 1.6896 6.7072 65.6384 66.9184 152.9856 112.4352 250.624 125.184 4.0448 0.512 7.5776-2.6112 7.6288-6.656 0.256-97.1776 1.3312-271.0528 4.9664-343.8592z" fill="#6C6CEA" ></path><path d="M419.0208 335.2576c17.7152-15.0528 35.072-28.8256 52.0704-41.4208 3.6352-2.7136 3.6352-8.192-0.0512-10.8544-4.608-3.328-9.216-6.6048-13.824-9.8304-2.2016-1.536-5.12-1.5872-7.424-0.1536-26.2656 16.5376-56.1152 30.72-90.3168 41.0112-125.0816 37.7344-209.92 81.2544-268.8 118.7328-1.5872 1.024-2.6624 2.6112-3.0208 4.4544a431.25248 431.25248 0 0 0-7.7824 81.4592c0 80.2304 22.0672 155.2896 60.416 219.5456 2.9696 5.0176 10.3936 4.1984 12.2368-1.28 70.912-210.8416 169.2672-318.208 266.496-401.664z" fill="#757BF2" ></path><path d="M339.6096 247.8592c12.3904-3.7376 24.064-8.1408 35.1744-13.0048 5.12-2.2528 5.4272-9.4208 0.512-12.1344-41.1136-22.3232-79.8208-39.2704-112.5376-51.9168-2.1504-0.8192-4.5568-0.512-6.4512 0.8704a431.5648 431.5648 0 0 0-126.0544 145.1008c-3.072 5.7856 3.072 12.1856 8.96 9.216 54.4256-27.2896 119.5008-53.7088 200.3968-78.1312zM454.5024 183.04c29.4912-26.6752 51.1488-56.576 66.7136-83.8144 2.56-4.4544-0.6144-10.0352-5.7344-10.1376-1.9456-0.0512-3.9424-0.0512-5.888-0.0512-56.5248 0-110.4384 11.008-159.8464 30.8224-5.4784 2.2016-5.7856 9.9328-0.4096 12.3904A1005.2096 1005.2096 0 0 1 446.464 183.7568c2.5088 1.536 5.8368 1.28 8.0384-0.7168z" fill="#8D92F8" ></path><path d="M880.64 302.0288a429.51168 429.51168 0 0 0-50.4832-69.4272c-1.2288-1.3824-2.9184-2.2016-4.7104-2.304-48.128-2.304-124.672 6.7584-222.976 60.5184-3.9936 2.2016-4.7104 7.6288-1.4336 10.8032 5.7856 5.5808 11.5712 11.3152 17.3056 17.2032 1.792 1.8432 4.4544 2.4576 6.8608 1.6896 83.456-27.1872 169.0624-11.5712 250.2144 45.6192 2.9184-21.0432 4.7104-42.3936 5.2224-64.1024zM859.904 441.1904c-2.8672-2.4064-5.7344-4.7616-8.704-7.1168-55.7568-44.032-111.9232-62.6688-167.6288-55.9616-5.2224 0.6144-7.7824 6.656-4.608 10.8032 43.9296 57.6 82.8416 126.3104 110.4896 207.5648 30.8224-47.3088 54.784-99.584 70.4512-155.2896zM538.0096 337.152c-2.3552-2.0992-5.8368-2.3552-8.448-0.512-21.1456 14.9504-43.0592 31.8976-65.6896 51.1488-90.8288 77.9264-192.7168 181.6064-262.656 425.0624-0.6656 2.3552-0.0512 4.9152 1.6896 6.7072 9.7792 9.984 20.1216 19.4048 30.8224 28.416 26.624 3.84 53.8112 5.888 81.4592 5.888 50.6368 0 99.7376-6.7072 146.4832-19.2 0.6656-88.9856 1.9456-189.3888 4.4544-240.3328 4.608-92.416 15.36-179.7632 84.3264-234.8544 3.2256-2.6112 3.584-7.424 0.5632-10.24-4.2496-4.096-8.6016-8.0896-13.0048-12.0832zM738.4064 663.3984c-24.6784-94.0032-67.9424-178.5344-129.8944-253.0304-2.2528-2.6624-6.2464-3.2768-9.1136-1.28-47.5648 33.8944-59.392 91.3408-64.256 188.6208-2.2528 44.9024-3.4816 131.4816-4.1984 213.4016 80.0768-33.024 150.8864-83.9168 207.4624-147.712z" fill="#757BF2" ></path><path d="M723.0976 145.8688a426.33216 426.33216 0 0 0-118.7328-46.2848c-3.072-0.7168-6.1952 0.8192-7.5776 3.6864-16.896 35.4304-42.752 78.08-81.2544 116.9408-2.9184 2.9184-2.6112 7.68 0.7168 10.1376 6.4512 4.7616 12.9024 9.6256 19.3536 14.6432 2.2016 1.6896 5.2224 1.8944 7.5776 0.4608 66.4576-39.7312 125.8496-61.7472 176.5888-73.1648 1.28-8.7552 2.4064-17.5616 3.328-26.4192zM457.2672 273.1008c-2.2016-1.536-5.12-1.5872-7.424-0.1536-26.2656 16.5376-56.1152 30.72-90.3168 41.0112-125.1328 37.7856-209.9712 81.3056-268.8512 118.784-1.5872 1.024-2.6624 2.6112-3.0208 4.4544a431.25248 431.25248 0 0 0-7.7824 81.4592c0 45.7216 7.168 89.7024 20.4288 131.0208 19.7632 2.0992 39.8336 3.1744 60.16 3.1744 8.0896 0 16.1792-0.2048 24.2176-0.5632 66.9696-156.5696 151.04-245.6576 234.3424-317.1328 17.7152-15.0528 35.072-28.8256 52.0704-41.4208 3.6352-2.7136 3.6352-8.192-0.0512-10.8544-4.5568-3.2768-9.1648-6.5536-13.7728-9.7792zM602.4704 290.8672c-3.9936 2.2016-4.7104 7.6288-1.4336 10.8032 5.7856 5.5808 11.5712 11.3152 17.3056 17.2032 1.792 1.8432 4.4544 2.4576 6.8608 1.6896 18.5344-6.0416 37.1712-9.8304 55.808-11.6736 8.448-19.8144 15.7696-40.2432 21.9648-61.184-30.208 9.3184-63.8464 23.0912-100.5056 43.1616zM538.0096 337.152c-2.3552-2.0992-5.8368-2.3552-8.448-0.512-21.1456 14.9504-43.0592 31.8976-65.6896 51.1488-66.2016 56.7808-138.24 127.3344-199.5264 255.5904 73.984-13.7216 142.9504-41.8816 203.776-81.408 5.9904-80.1792 21.504-153.9072 82.3296-202.5472 3.2256-2.6112 3.584-7.424 0.5632-10.24-4.2496-4.0448-8.6016-8.0384-13.0048-12.032zM617.0624 421.1712c-2.8672-3.584-5.632-7.2192-8.5504-10.8032-2.2528-2.6624-6.2464-3.2768-9.1136-1.28-29.0304 20.736-44.7488 50.2784-53.7088 92.3136 26.2656-24.4224 50.176-51.3024 71.3728-80.2304z" fill="#8486F8" ></path><path d="M410.7264 294.3488a377.20064 377.20064 0 0 1-51.2 19.6608C234.3936 351.744 149.5552 395.264 90.6752 432.7424c-1.5872 1.024-2.6624 2.6112-3.0208 4.4544-0.7168 3.7888-1.28 7.68-1.9456 11.52 125.5936-14.9504 238.5408-71.0144 325.0176-154.368z" fill="#8D92F8" ></path></svg>