<svg viewBox="0 0 1024 1024" version="1.1" xmlns="http://www.w3.org/2000/svg"><path d="M819.6608 428.8c-2.8672-158.464-132.1472-286.0032-291.2768-286.0032-156.0064 0-283.392 122.624-291.0208 276.736-101.0688 18.2784-177.7664 106.6496-177.7664 212.992 0 119.552 96.9216 216.4736 216.4736 216.4736h470.1184c119.552 0 216.4736-96.9216 216.4736-216.4736 0-93.7984-59.5968-173.6192-143.0016-203.7248z m-180.9408 115.5584l-171.1104 104.6016c-12.9536 7.936-29.5936-1.3824-29.5936-16.5888V424.8576c0-15.1552 16.5376-24.4736 29.4912-16.6912l171.1104 102.912c12.4928 7.5264 12.5952 25.6512 0.1024 33.28z" fill="#6C6CEA" ></path><path d="M819.6608 428.8c-2.8672-158.464-132.1472-286.0032-291.2768-286.0032-156.0064 0-283.392 122.624-291.0208 276.736-101.0688 18.2784-177.7664 106.6496-177.7664 212.992 0 119.552 96.9216 216.4736 216.4736 216.4736h396.6464c114.5856-92.16 194.8672-225.1776 218.6752-376.9344a216.49408 216.49408 0 0 0-71.7312-43.264z m-180.9408 115.5584l-171.1104 104.6016c-12.9536 7.936-29.5936-1.4336-29.5936-16.5888V424.8576c0-15.1552 16.5376-24.4736 29.4912-16.6912l171.1104 102.912c12.4928 7.5264 12.5952 25.6512 0.1024 33.28z" fill="#757BF2" ></path><path d="M544.3584 602.0096l-76.7488 46.8992c-12.9536 7.936-29.5936-1.4336-29.5936-16.5888V424.8576c0-15.1552 16.5376-24.4736 29.4912-16.6912l160.2048 96.3072a601.25184 601.25184 0 0 0 102.656-280.2688c-52.3776-50.3808-123.4944-81.408-201.8816-81.408-156.0064 0-283.392 122.624-291.0208 276.736-101.0688 18.2784-177.7664 106.6496-177.7664 212.992 0 50.8928 17.6128 97.5872 46.9504 134.5536 7.3728 0.256 14.7968 0.4608 22.272 0.4608 160.8192-0.0512 307.0976-62.976 415.4368-165.5296z" fill="#8486F8" ></path><path d="M549.2736 143.616c-6.912-0.512-13.824-0.8192-20.8896-0.8192-156.0064 0-283.392 122.624-291.0208 276.736-71.4752 12.9024-130.7136 60.928-159.3344 125.5424 220.672-37.2736 400.7424-193.9968 471.2448-401.4592z" fill="#8D92F8" ></path></svg>