<svg viewBox="0 0 1024 1024" version="1.1" xmlns="http://www.w3.org/2000/svg"><path d="M470.6816 391.424H143.872a25.4976 25.4976 0 0 0-25.4976 25.4976v134.0416a25.4976 25.4976 0 0 0 25.4976 25.4976h18.3808v298.0864c0 32.4096 26.2656 58.7264 58.7264 58.7264h249.7024V391.424z" fill="#FC4956" ></path><path d="M882.8928 391.424h-326.8096v541.8496h248.5248c32.4096 0 58.7264-26.2656 58.7264-58.7264v-298.0864h19.5584a25.4976 25.4976 0 0 0 25.4976-25.4976V416.9216c0.0512-14.08-11.3664-25.4976-25.4976-25.4976z" fill="#F23D4F" ></path><path d="M282.6752 337.8688h446.0032c40.9088 0 115.6608-34.4064 110.336-69.376-5.3248-34.9696-116.8384-168.448-181.504-168.448-32.0512 0-90.7264 97.28-107.9296 169.6256h-71.168s-46.848-170.24-126.3104-170.24-192.768 145.92-192.768 185.0368 78.848 53.4016 123.3408 53.4016zM556.0832 900.096c187.648-96.0512 319.1808-286.0544 332.544-507.9552-1.8432-0.4096-3.7376-0.7168-5.7344-0.7168h-326.8096v508.672z" fill="#FC4956" ></path><path d="M549.5808 269.6704h-71.168s-46.848-170.24-126.3104-170.24c-79.4624 0-192.768 145.92-192.768 185.0368s78.8992 53.4016 123.392 53.4016h405.9648c21.8112-62.8736 33.6896-130.3552 33.6896-200.6528 0-2.9696-0.0512-5.888-0.1024-8.8576-22.9888-16.9472-45.824-28.3136-64.6656-28.3136-32.1024 0-90.8288 97.28-108.032 169.6256zM118.3744 416.9216v134.0416a25.4976 25.4976 0 0 0 25.4976 25.4976h18.3808v170.8544c114.7392-9.728 220.4672-51.0464 308.4288-115.3024V391.424H143.872a25.4976 25.4976 0 0 0-25.4976 25.4976zM667.1872 391.424h-111.104v165.1712c45.4656-48.3328 83.2-104.0384 111.104-165.1712z" fill="#FF5C64" ></path><path d="M472.2176 249.9584C457.0624 205.1584 414.72 99.4816 352.1024 99.4816c-79.4624 0-192.768 145.92-192.768 185.0368S238.2336 337.92 282.7264 337.92h121.2928c25.2416-27.1872 48.128-56.576 68.1984-87.9616zM347.3408 391.424H143.872a25.4976 25.4976 0 0 0-25.4976 25.4976v94.1056c85.1968-23.3472 162.9696-64.6656 228.9664-119.6032z" fill="#FF716E" ></path></svg>