<svg viewBox="0 0 1024 1024" version="1.1" xmlns="http://www.w3.org/2000/svg"><path d="M699.904 328.5504h215.9104c21.248 0 38.4512-17.2032 38.4512-38.4512s-17.2032-38.4512-38.4512-38.4512H699.904c-21.248 0-38.4512 17.2032-38.4512 38.4512s17.2544 38.4512 38.4512 38.4512zM915.8656 447.9488h-186.4704c-21.248 0-38.4512 17.2032-38.4512 38.4512s17.2032 38.4512 38.4512 38.4512h186.4704c21.248 0 38.4512-17.2032 38.4512-38.4512-0.0512-21.248-17.2544-38.4512-38.4512-38.4512zM915.8656 656.896h-93.2352c-21.248 0-38.4512 17.2032-38.4512 38.4512s17.2032 38.4512 38.4512 38.4512h93.2352c21.248 0 38.4512-17.2032 38.4512-38.4512-0.0512-21.248-17.2544-38.4512-38.4512-38.4512zM529.7664 464.6912c43.3152-34.816 71.1168-88.1664 71.1168-147.9168 0-104.6016-85.0944-189.696-189.696-189.696-104.6016 0-189.696 85.0944-189.696 189.696 0 59.7504 27.8016 113.1008 71.1168 147.9168-135.68 43.0592-234.2912 170.1376-234.2912 319.8976 0 42.1376 34.2528 76.3904 76.3904 76.3904h553.0624c42.1376 0 76.3904-34.2528 76.3904-76.3904-0.1024-149.76-98.7136-276.8896-234.3936-319.8976z m10.6496 297.3696H281.9584c-21.248 0-38.4512-17.2032-38.4512-38.4512s17.2032-38.4512 38.4512-38.4512h258.4576c21.248 0 38.4512 17.2032 38.4512 38.4512s-17.2544 38.4512-38.4512 38.4512z" fill="#2595E8" ></path><path d="M774.8096 251.648H699.904c-21.248 0-38.4512 17.2032-38.4512 38.4512s17.2032 38.4512 38.4512 38.4512h83.3024c-0.9216-26.1632-3.7888-51.8144-8.3968-76.9024zM729.344 447.9488c-21.248 0-38.4512 17.2032-38.4512 38.4512s17.2032 38.4512 38.4512 38.4512h24.576c8.6528-24.832 15.5136-50.5344 20.48-76.9024h-45.056zM529.7664 464.6912c43.3152-34.816 71.1168-88.1664 71.1168-147.9168 0-104.6016-85.0944-189.696-189.696-189.696-104.6016 0-189.696 85.0944-189.696 189.696 0 59.7504 27.8016 113.1008 71.1168 147.9168-135.68 43.0592-234.2912 170.1376-234.2912 319.8976 0 42.1376 34.2528 76.3904 76.3904 76.3904h268.5952c133.5296-40.192 244.9408-131.072 312.064-250.368-41.8816-68.6592-107.5712-121.1904-185.6-145.92z m10.6496 297.3696H281.9584c-21.248 0-38.4512-17.2032-38.4512-38.4512s17.2032-38.4512 38.4512-38.4512h258.4576c21.248 0 38.4512 17.2032 38.4512 38.4512 0 21.1968-17.2544 38.4512-38.4512 38.4512z" fill="#3A9CED" ></path><path d="M71.1168 692.6848c10.4448 0.6144 20.9408 1.024 31.5392 1.024 180.224 0 339.5072-89.2416 436.4288-225.8432-3.072-1.0752-6.144-2.1504-9.2672-3.1232 13.2608-10.6496 25.088-23.0912 35.072-36.9152 9.6768-16.5888 18.432-33.6896 26.3168-51.3536 6.2464-18.7392 9.6768-38.8096 9.6768-59.648 0-104.6016-85.0944-189.696-189.696-189.696-104.6016 0-189.696 85.0944-189.696 189.696 0 59.7504 27.8016 113.1008 71.1168 147.9168-106.8544 33.792-190.6688 119.808-221.4912 227.9424z" fill="#59ADF8" ></path><path d="M475.5968 138.3424c-20.1216-7.2704-41.8304-11.264-64.4096-11.264-104.6016 0-189.696 85.0944-189.696 189.696 0 38.8608 11.8272 75.008 31.9488 105.1136 103.424-65.4336 182.8352-165.2736 222.1568-283.5456z" fill="#6BC2FC" ></path></svg>