<?xml version="1.0" standalone="no"?><!DOCTYPE svg PUBLIC "-//W3C//DTD SVG 1.1//EN" "http://www.w3.org/Graphics/SVG/1.1/DTD/svg11.dtd"><svg class="icon" width="66px" height="66.00px" viewBox="0 0 1024 1024" version="1.1" xmlns="http://www.w3.org/2000/svg"><path d="M64 512c0 247.424 200.576 448 448 448s448-200.576 448-448S759.424 64 512 64 64 264.576 64 512z" fill="#FF934A" /><path d="M519.66 525.44a10.654 10.654 0 0 1-15.32 0c-21.14-21.718-82.92-84.97-147.134-148.374-14.508-14.336-35.158-19.86-51.414-7.744-6.656 4.972-14.186 11.584-22.272 20.352-11.03 11.926-18.39 23.296-23.274 32.768-8.022 15.51-3.948 33.686 6.228 47.766 79.574 110.25 165.484 185.43 211.606 221.802 20.288 15.98 47.552 15.98 67.84 0 46.122-36.372 132.032-111.552 211.606-221.802 10.176-14.08 14.25-32.256 6.228-47.766-4.884-9.472-12.244-20.842-23.274-32.768-8.086-8.768-15.616-15.38-22.272-20.352-16.256-12.116-36.906-6.592-51.414 7.744-64.212 63.404-125.994 126.656-147.136 148.374z" fill="#FFFFFF" /></svg>