<svg viewBox="0 0 1024 1024" version="1.1" xmlns="http://www.w3.org/2000/svg"><path d="M485.888 524.288c8.448-31.0272 21.504-78.8992 28.672-104.6528 0.768-2.7136 2.9696-6.5024 4.9664-8.4992 71.0144-71.0656 119.808-119.6544 190.9248-190.6688 0.3072-0.3072 0.7168-0.512 1.6384-1.1264 33.7408 32.768 67.5328 65.6384 101.6832 98.7648-2.048 2.1504-3.6352 3.8912-5.3248 5.5808-69.632 69.5808-116.992 116.8384-186.7776 186.2656-3.2768 3.2768-7.3728 5.6832-11.8272 6.9632-26.7776 7.6288-72.7552 20.3264-102.7584 28.5696-12.8512 3.584-24.7296-8.2432-21.1968-21.1968z" fill="#3A9CED" ></path><path d="M844.7488 286.464c-33.6896-32.6144-67.4816-65.28-101.5296-98.2528 1.4848-1.6384 2.56-2.9696 3.7376-4.1984 16.6912-16.7424 33.2288-33.6896 50.1248-50.2272 30.3616-29.7472 77.1072-28.0064 104.9088 3.6864 23.6032 26.9312 22.4768 70.0928-2.7648 95.4368-17.7664 17.8176-35.8912 35.328-54.4768 53.5552z" fill="#2595E8" ></path><path d="M664.5248 553.8304c-12.0832 12.1856-27.5968 20.48-44.4928 23.7056l-165.8368 32c-21.0944 4.096-39.4752-14.6944-35.0208-35.6864l35.9424-168.704a85.4528 85.4528 0 0 1 24.0128-43.4688l222.8736-216.832H256.6656c-75.2128 0-136.1408 60.9792-136.1408 136.1408v489.728c0 75.2128 60.9792 136.1408 136.1408 136.1408h501.5552c75.2128 0 136.1408-60.9792 136.1408-136.1408V322.3552l-229.8368 231.4752z m-113.2544 214.1184H289.9456a43.5712 43.5712 0 1 1 0-87.1424h261.2736c24.064 0 43.5712 19.5072 43.5712 43.5712 0 24.064-19.5072 43.5712-43.52 43.5712z" fill="#2595E8" ></path><path d="M879.872 120.2688c-26.624-13.5168-59.4432-9.2672-82.7392 13.5168-16.896 16.5376-33.4336 33.4336-50.1248 50.2272-1.2288 1.2288-2.304 2.56-3.7376 4.1984 34.048 32.9728 67.84 65.6896 101.5296 98.2528 18.5856-18.2272 36.7104-35.7376 54.4768-53.6064 1.2288-1.2288 2.304-2.5088 3.4304-3.7888-4.352-37.376-12.032-73.7792-22.8352-108.8z" fill="#3A9CED" ></path><path d="M894.3616 322.3552l-229.8368 231.5264c-12.0832 12.1856-27.5968 20.48-44.4928 23.7056l-165.8368 32c-21.0944 4.096-39.4752-14.6944-35.0208-35.6864l35.9424-168.704a85.4528 85.4528 0 0 1 24.0128-43.4688l222.8736-216.832H256.6656c-75.2128 0-136.1408 60.9792-136.1408 136.1408v489.728c0 68.7616 50.9952 125.44 117.1968 134.656 4.4544 0.4608 8.9088 0.8704 13.4144 1.1776 1.8432 0.0512 3.6864 0.256 5.5296 0.256h84.0192c274.944-18.9952 499.6608-220.6208 553.728-484.4032V322.3552z m-343.0912 445.5936H289.9456a43.5712 43.5712 0 1 1 0-87.1424h261.2736c24.064 0 43.5712 19.5072 43.5712 43.5712s-19.5072 43.5712-43.52 43.5712z" fill="#3A9CED" ></path><path d="M712.0896 219.392c-0.9216 0.6144-1.3312 0.8192-1.6384 1.1264-71.1168 70.9632-119.9104 119.552-190.9248 190.6688-1.9968 1.9968-4.1984 5.7856-4.9664 8.4992-7.1168 25.7536-20.224 73.6256-28.672 104.6528-3.5328 12.9024 8.2944 24.7808 21.248 21.248 8.96-2.4576 19.3536-5.3248 30.208-8.2944 89.7536-80.3328 155.4944-186.88 185.2416-307.6096-3.4816-3.4816-7.0144-6.912-10.496-10.2912z" fill="#59ADF8" ></path><path d="M120.5248 692.1216c3.6864 0.0512 7.3728 0.1536 11.0592 0.1536 112.3328 0 217.5488-30.464 307.8656-83.5072-13.9776-4.4544-23.6032-18.9952-20.224-34.8672l35.9424-168.704a85.4528 85.4528 0 0 1 24.0128-43.4688l222.8736-216.832H256.6656c-75.2128 0-136.1408 60.9792-136.1408 136.1408v411.0848z" fill="#59ADF8" ></path><path d="M520.7552 144.8448H256.6656c-75.2128 0-136.1408 60.9792-136.1408 136.1408v179.0976c174.7968-41.728 320.3072-158.9248 400.2304-315.2384z" fill="#6BC2FC" ></path></svg>