<svg viewBox="0 0 1024 1024" version="1.1" xmlns="http://www.w3.org/2000/svg"><path d="M812.4416 392.96a34.81088 34.81088 0 0 1 0-27.904l83.456-191.1808c10.0864-23.04-6.8096-48.8448-32-48.8448H311.04c0-23.7056-19.2-42.9056-42.9056-42.9056S225.28 101.3248 225.28 125.0304v738.304h-19.3024c-23.7056 0-42.9056 19.2-42.9056 42.9056 0 23.7056 19.2 42.9056 42.9056 42.9056h127.488c23.7056 0 42.9056-19.2 42.9056-42.9056 0-23.7056-19.2-42.9056-42.9056-42.9056h-22.3744v-230.3488h552.8576c25.1392 0 42.0352-25.8048 32-48.8448l-83.5072-191.1808z m-81.7664 127.0784c-4.9152 2.048-10.0352 3.0208-15.0528 3.0208-15.4112 0-30.0544-9.1136-36.352-24.2688l-46.6944-112.5376c-4.3008-10.3424-3.9936-21.9648 0.8704-32.0512l46.1312-96.4096c9.3696-19.5584 32.8704-27.904 52.4288-18.4832 19.6096 9.3696 27.8528 32.8704 18.4832 52.4288l-38.5536 80.5888 39.9872 96.3584c8.2944 20.0704-1.2288 43.0592-21.248 51.3536z" fill="#6C6CEA" ></path><path d="M730.6752 520.0384c-4.9152 2.048-10.0352 3.0208-15.0528 3.0208-15.4112 0-30.0544-9.1136-36.352-24.2688l-46.6944-112.5376c-4.3008-10.3424-3.9936-21.9648 0.8704-32.0512l46.1312-96.4096c9.3696-19.5584 32.8704-27.904 52.4288-18.4832 19.6096 9.3696 27.8528 32.8704 18.4832 52.4288l-38.5536 80.5888 39.9872 96.3584c1.3824 3.3792 2.2528 6.8608 2.6624 10.3424 24.8832-62.3104 38.656-130.2016 38.656-201.3696 0-52.992-7.7312-104.192-21.8624-152.6272H311.04c0-23.7056-19.2-42.9056-42.9056-42.9056S225.28 101.3248 225.28 125.0304v696.4224c7.8336 0.3584 15.6672 0.6144 23.552 0.6144 21.0432 0 41.7792-1.3312 62.208-3.6352v-185.4464h350.0544c30.5664-35.4304 56.6272-74.8032 77.3632-117.2992-2.4064 1.6896-4.9664 3.1744-7.7824 4.352z" fill="#757BF2" ></path><path d="M642.6624 125.0304H311.04c0-23.7056-19.2-42.9056-42.9056-42.9056S225.28 101.3248 225.28 125.0304v489.0112c227.4304-53.6064 399.6672-249.7536 417.3824-489.0112z" fill="#8486F8" ></path><path d="M454.912 125.0304h-143.872c0-23.7056-19.2-42.9056-42.9056-42.9056S225.28 101.3248 225.28 125.0304v243.712c99.84-54.9888 180.5312-140.3904 229.632-243.712z" fill="#8D92F8" ></path></svg>