<svg viewBox="0 0 1024 1024" version="1.1" xmlns="http://www.w3.org/2000/svg"><path d="M845.2608 152.4224H181.1968c-60.8768 0-110.2336 49.3568-110.2336 110.2336v498.7392c0 60.8768 49.3568 110.2336 110.2336 110.2336h664.064c60.8768 0 110.2336-49.3568 110.2336-110.2336V262.656c0-60.8768-49.3568-110.2336-110.2336-110.2336z m-284.16 552.448c0 23.8592-19.3536 43.1616-43.1616 43.1616h-285.184c-23.8592 0-43.1616-19.3536-43.1616-43.1616v-69.12c0-62.7712 31.3344-118.3232 79.104-151.9616-17.7152-22.8352-28.3648-51.4048-28.3648-82.4832 0-74.4448 60.5696-135.0144 135.0144-135.0144s135.0144 60.5696 135.0144 135.0144c0 31.0784-10.6496 59.648-28.3648 82.4832 47.7696 33.6384 79.104 89.1904 79.104 151.9616v69.12z m222.7712-0.9216h-92.3136c-23.8592 0-43.1616-19.3536-43.1616-43.1616s19.3536-43.1616 43.1616-43.1616h92.3136a43.16672 43.16672 0 0 1 0 86.3232z m0-148.7872h-137.7792a43.16672 43.16672 0 0 1 0-86.3232h137.7792c23.8592 0 43.1616 19.3536 43.1616 43.1616 0 23.8592-19.3024 43.1616-43.1616 43.1616z m0-154.3168h-137.7792a43.16672 43.16672 0 0 1 0-86.3232h137.7792c23.8592 0 43.1616 19.3536 43.1616 43.1616 0 23.8592-19.3024 43.1616-43.1616 43.1616z" fill="#FF8E12" ></path><path d="M375.3472 536.3712c-54.8352 0-99.4304 44.5952-99.4304 99.4304v25.9584h198.8608v-25.9584c0-54.8352-44.5952-99.4304-99.4304-99.4304z" fill="#FCA315" ></path><path d="M375.3472 449.9968c26.8288 0 48.6912-21.8624 48.6912-48.6912s-21.8624-48.6912-48.6912-48.6912-48.6912 21.8624-48.6912 48.6912c0 26.88 21.8624 48.6912 48.6912 48.6912z" fill="#FF8E12" ></path><path d="M845.2608 152.4224H181.1968c-60.8768 0-110.2336 49.3568-110.2336 110.2336v498.7392c0 60.8768 49.3568 110.2336 110.2336 110.2336h298.24c107.7248-31.3344 203.8272-89.856 280.5248-167.6288h-68.4032a43.16672 43.16672 0 0 1 0-86.3232h92.3136c14.3872 0 27.0336 7.0656 34.9184 17.8176 80.4864-108.1344 128.1536-242.176 128.1536-387.328 0-9.9328-0.256-19.8144-0.7168-29.6448-17.0496-38.912-55.808-66.0992-100.9664-66.0992z m-284.16 552.448c0 23.8592-19.3536 43.1616-43.1616 43.1616h-285.184c-23.8592 0-43.1616-19.3536-43.1616-43.1616v-69.12c0-62.7712 31.3344-118.3232 79.104-151.9616-17.7152-22.8352-28.3648-51.4048-28.3648-82.4832 0-74.4448 60.5696-135.0144 135.0144-135.0144s135.0144 60.5696 135.0144 135.0144c0 31.0784-10.6496 59.648-28.3648 82.4832 47.7696 33.6384 79.104 89.1904 79.104 151.9616v69.12z m222.7712-149.7088h-137.7792a43.16672 43.16672 0 0 1 0-86.3232h137.7792c23.8592 0 43.1616 19.3536 43.1616 43.1616 0 23.8592-19.3024 43.1616-43.1616 43.1616z m0-154.3168h-137.7792c-23.8592 0-43.1616-19.3536-43.1616-43.1616s19.3536-43.1616 43.1616-43.1616h137.7792a43.16672 43.16672 0 0 1 0 86.3232z" fill="#FCA315" ></path><path d="M70.9632 262.656v402.3808a649.54368 649.54368 0 0 0 118.5792-1.8944v-27.3408c0-62.7712 31.3344-118.3232 79.104-151.9616-17.7152-22.8352-28.3648-51.4048-28.3648-82.4832 0-74.4448 60.5696-135.0144 135.0144-135.0144s135.0144 60.5696 135.0144 135.0144c0 31.0784-10.6496 59.648-28.3648 82.4832 16.3328 11.4688 30.6688 25.6 42.5472 41.5744 45.1584-36.0448 85.4528-77.9776 119.6032-124.6208-22.9376-1.024-41.216-19.8656-41.216-43.0592 0-23.8592 19.3536-43.1616 43.1616-43.1616h51.456c26.0608-50.5344 45.6192-104.96 57.7024-162.0992H181.1968c-60.8768-0.0512-110.2336 49.3056-110.2336 110.1824z" fill="#FCB138" ></path><path d="M275.9168 635.7504v12.1856a646.1952 646.1952 0 0 0 177.7152-73.2672c-18.2272-23.296-46.4896-38.3488-78.2848-38.3488-54.8352 0.0512-99.4304 44.6464-99.4304 99.4304z" fill="#FCB138" ></path><path d="M70.9632 262.656v164.352a644.5568 644.5568 0 0 0 173.1584-56.9344c14.1312-59.392 67.5328-103.7824 131.2256-103.7824 6.3488 0 12.544 0.6144 18.6368 1.4336 37.6832-34.3552 71.2704-73.0624 100.0448-115.3536h-312.832c-60.8768 0.0512-110.2336 49.408-110.2336 110.2848z" fill="#FFC65E" ></path></svg>