<svg viewBox="0 0 1024 1024" version="1.1" xmlns="http://www.w3.org/2000/svg"><path d="M888.0128 452.7104l-86.3744 48.4864V444.7744c0-52.0192-42.1376-94.1568-94.1568-94.1568h-104.0896c51.6096-18.9952 88.4224-68.608 88.4224-126.8224 0-74.5984-60.5184-135.1168-135.1168-135.1168-61.5424 0-113.408 41.1648-129.7408 97.4336-16.3328-56.2688-68.1984-97.4336-129.7408-97.4336-74.5984 0-135.1168 60.5184-135.1168 135.1168 0 58.2144 36.8128 107.8272 88.4736 126.8224H175.6672c-52.0192 0-94.1568 42.1376-94.1568 94.1568v353.5872c0 52.0192 42.1376 94.1568 94.1568 94.1568h531.8656c52.0192 0 94.1568-42.1376 94.1568-94.1568v-56.4224l86.3744 48.4864c24.3712 13.6704 54.4768-3.9424 54.4768-31.8976v-273.92c-0.0512-27.9552-30.1568-45.568-54.528-31.8976zM427.008 261.4784c11.9808 41.2672 43.0592 74.4448 83.0976 89.1392H343.9104A135.45984 135.45984 0 0 0 427.008 261.4784z m132.5056 391.9872l-180.7872 101.4272c-24.3712 13.6704-54.4768-3.9424-54.4768-31.8976v-202.8544c0-27.9552 30.1056-45.568 54.4768-31.8976l180.7872 101.4272c24.8832 13.9776 24.8832 49.8176 0 63.7952z" fill="#BD50D3" ></path><path d="M801.6384 501.1968V444.7744c0-52.0192-42.1376-94.1568-94.1568-94.1568h-104.0896c51.6096-18.9952 88.4736-68.608 88.4736-126.8224 0-74.5984-60.5184-135.1168-135.1168-135.1168-61.5424 0-113.408 41.1648-129.7408 97.4336-16.3328-56.2688-68.1984-97.4336-129.7408-97.4336-74.5984 0-135.1168 60.5184-135.1168 135.1168 0 58.2144 36.8128 107.8272 88.4736 126.8224H175.6672c-52.0192 0-94.1568 42.1376-94.1568 94.1568v353.5872c0 52.0192 42.1376 94.1568 94.1568 94.1568h357.3248c170.5984-83.2512 298.0864-241.2032 339.8656-431.3088l-71.2192 39.9872zM427.008 261.4784a135.45984 135.45984 0 0 0 83.0976 89.1392H343.9104A135.45984 135.45984 0 0 0 427.008 261.4784z m132.5056 391.9872l-180.7872 101.4272c-24.3712 13.6704-54.4768-3.9424-54.4768-31.8976v-202.8544c0-27.9552 30.1056-45.568 54.4768-31.8976l180.7872 101.4272c24.8832 13.9776 24.8832 49.8176 0 63.7952z" fill="#BF5CD6" ></path><path d="M603.392 350.6176c51.6096-18.9952 88.4736-68.608 88.4736-126.8224 0-74.5984-60.5184-135.1168-135.1168-135.1168-61.5424 0-113.408 41.1648-129.7408 97.4336-16.3328-56.2688-68.1984-97.4336-129.7408-97.4336-74.5984 0-135.1168 60.5184-135.1168 135.1168 0 58.2144 36.8128 107.8272 88.4736 126.8224H175.6672c-52.0192 0-94.1568 42.1376-94.1568 94.1568v287.232c0.8192 0 1.5872 0.0512 2.4064 0.0512 85.0944 0 166.2464-16.896 240.3328-47.4112V520.192c0-27.9552 30.1056-45.568 54.4768-31.8976l134.2976 75.3664c63.9488-59.3408 115.5584-131.7376 150.5792-212.992h-60.2112z m-259.4816 0A135.45984 135.45984 0 0 0 427.008 261.4784a135.45984 135.45984 0 0 0 83.0976 89.1392H343.9104z" fill="#CA6EE0" ></path><path d="M518.0416 94.4128C474.2144 107.52 439.7568 142.1312 427.008 186.112c-16.3328-56.2688-68.1984-97.4336-129.7408-97.4336-74.5984 0-135.1168 60.5184-135.1168 135.1168 0 58.2144 36.8128 107.8272 88.4736 126.8224H175.6672c-52.0192 0-94.1568 42.1376-94.1568 94.1568v44.3904c202.3424-51.5584 365.6192-200.9088 436.5312-394.752z" fill="#D786EA" ></path></svg>