<svg viewBox="0 0 1024 1024" version="1.1" xmlns="http://www.w3.org/2000/svg"><path d="M729.0368 208.64V171.008c0-60.4672-57.4976-103.68-114.3296-85.9136l-385.8944 120.32c-37.12 11.5712-62.464 46.4384-62.464 85.9136v559.5136c0 54.9376 47.4624 95.5904 98.7648 89.2928h459.4688c76.1856 0 138.1888-63.7952 138.1888-142.1824V350.72c-0.0512-76.8512-59.648-139.6224-133.7344-142.08z m-316.928 492.7488l150.6816-55.3984c22.4256-8.2432 47.1552 3.584 55.2448 26.368 8.0896 22.784-3.4816 47.9232-25.9072 56.1664l-150.6816 55.3984c-4.864 1.792-9.7792 2.6112-14.6432 2.6112-17.664 0-34.2528-11.1104-40.6016-28.9792-8.0896-22.784 3.5328-47.9232 25.9072-56.1664z m376.6784 96.6144c0 36.9152-28.8256 66.9696-64.2048 66.9696h-213.504l155.4944-48.4864c37.12-11.5712 62.464-46.4384 62.464-85.9136V284.0064c33.3312 2.4064 59.7504 31.3856 59.7504 66.7136v447.2832z" fill="#05C46D" ></path><path d="M862.72 457.216V350.72c0-76.8512-59.5968-139.6224-133.7344-142.0288V171.008c0-60.4672-57.4976-103.68-114.3296-85.9136l-385.8432 120.32c-37.12 11.5712-62.464 46.4384-62.464 85.9136v559.5136c0 8.6528 1.28 16.9472 3.4816 24.7808a607.232 607.232 0 0 0 116.1728 11.264c175.36 0 333.1584-74.752 443.0336-193.9456V284.0064c33.3312 2.4064 59.7504 31.3856 59.7504 66.7136v265.7792A594.1248 594.1248 0 0 0 862.72 457.216z m-270.592 271.3088l-150.6816 55.3984c-4.864 1.792-9.7792 2.6112-14.6432 2.6112-17.664 0-34.2528-11.1104-40.6016-28.9792-8.0896-22.784 3.4816-47.9232 25.9072-56.1664l150.6816-55.3984c22.4256-8.2432 47.1552 3.584 55.2448 26.368 8.0896 22.784-3.4816 47.9744-25.9072 56.1664z" fill="#1DCE75" ></path><path d="M719.9744 131.4816c-18.3296-37.9904-61.952-59.9552-105.2672-46.4384L228.8128 205.4144c-37.12 11.5712-62.464 46.4384-62.464 85.9136v381.3376c292.7104-21.4016 527.0528-251.3408 553.6256-541.184z" fill="#3CD38E" ></path><path d="M515.9424 115.8656L228.8128 205.4144c-37.12 11.5712-62.464 46.4384-62.464 85.9136v138.8544c155.0336-53.1456 281.2928-167.5776 349.5936-314.3168z" fill="#48E1AA" ></path></svg>