<svg viewBox="0 0 1024 1024" version="1.1" xmlns="http://www.w3.org/2000/svg"><path d="M505.9072 151.296c85.5552 0 164.1472 29.5424 226.3552 78.848V132.7616c0-33.1264-26.8288-59.9552-59.9552-59.9552H340.0704c-33.1264 0-59.9552 26.8288-59.9552 59.9552v96.9728c62.1056-49.0496 140.4928-78.4384 225.792-78.4384z" fill="#757BF2" ></path><path d="M505.9072 880.6912c-85.2992 0-163.6864-29.3376-225.792-78.4384v92.0064c0 33.1264 26.8288 59.9552 59.9552 59.9552h332.2368c33.1264 0 59.9552-26.8288 59.9552-59.9552v-92.416c-62.1568 49.3568-140.8 78.848-226.3552 78.848z" fill="#6C6CEA" ></path><path d="M505.9072 193.9968c-177.8688 0-322.048 144.1792-322.048 322.048 0 177.8688 144.1792 322.048 322.048 322.048 177.8688 0 322.048-144.1792 322.048-322.048 0-177.8688-144.1792-322.048-322.048-322.048z m193.2288 232.7552l-170.752 133.8368a41.728 41.728 0 0 1-54.1184-2.2016L343.7568 437.76a41.76384 41.76384 0 0 1-2.304-59.0336 41.76384 41.76384 0 0 1 59.0336-2.304l104.3968 96.4608 142.6944-111.872c18.176-14.2336 44.4416-11.0592 58.6752 7.1168 14.2336 18.1248 11.0592 44.3904-7.1168 58.624z" fill="#6C6CEA" ></path><path d="M796.8768 377.856c-51.712-108.6976-162.5088-183.8592-290.9184-183.8592-177.8688 0-322.048 144.1792-322.048 322.048 0 176.896 142.6432 320.4096 319.1808 321.9456 165.1712-91.0848 280.2176-261.632 293.7856-460.1344z m-294.2464 191.6416c-10.24 0-20.3776-3.7376-28.3648-11.1104L343.7568 437.76a41.76384 41.76384 0 0 1-2.304-59.0336 41.76384 41.76384 0 0 1 59.0336-2.304l104.3968 96.4608 142.7456-111.872c18.176-14.2336 44.4416-11.0592 58.6752 7.1168 14.2336 18.176 11.0592 44.4416-7.1168 58.6752l-170.752 133.8368a42.13248 42.13248 0 0 1-25.8048 8.8576zM280.1152 802.304v92.0064c0 3.9936 0.4096 7.936 1.1776 11.7248 51.2512-4.7104 100.5056-16.2304 146.944-33.5872a364.86144 364.86144 0 0 1-148.1216-70.144z" fill="#757BF2" ></path><path d="M638.8224 72.7552H340.0704c-33.1264 0-59.9552 26.8288-59.9552 59.9552v96.9728c62.1056-49.0496 140.4928-78.4384 225.792-78.4384 47.6672 0 93.1328 9.1648 134.8608 25.856 0.9728-13.568 1.6384-27.2896 1.6384-41.1136 0-21.3504-1.28-42.4448-3.584-63.232z" fill="#8486F8" ></path><path d="M183.9104 515.9936c0 61.3888 17.2032 118.7328 47.0016 167.5776 88.7296-25.6512 168.4992-72.2432 233.728-134.144L343.7568 437.76a41.76384 41.76384 0 0 1-2.304-59.0336 41.76384 41.76384 0 0 1 59.0336-2.304l104.3968 96.4608 56.9856-44.6464a566.016 566.016 0 0 0 74.1888-206.7456 320.65024 320.65024 0 0 0-130.0992-27.4432c-177.8688-0.0512-322.048 144.128-322.048 321.9456z" fill="#8486F8" ></path><path d="M481.9968 72.7552H340.0704c-33.1264 0-59.9552 26.8288-59.9552 59.9552v96.9728c49.4592-39.0656 109.2608-65.5872 174.592-74.8032a561.5616 561.5616 0 0 0 27.2896-82.1248zM193.1264 439.3984a572.59008 572.59008 0 0 0 238.848-236.8c-117.5552 27.648-210.2272 119.6544-238.848 236.8z" fill="#8D92F8" ></path></svg>