<svg viewBox="0 0 1024 1024" version="1.1" xmlns="http://www.w3.org/2000/svg"><path d="M892.6208 859.904H128.1536c-18.0736 0-32.7168-14.6432-32.7168-32.7168v-19.456c0-18.0736 14.6432-32.7168 32.7168-32.7168h764.416c18.0736 0 32.7168 14.6432 32.7168 32.7168v19.456c0.0512 18.0736-14.6432 32.7168-32.6656 32.7168zM166.8608 740.3008h683.8784c40.8576 0 68.4032-41.8304 52.2752-79.36L752.64 310.8352c-18.5344-43.1104-78.336-46.5408-101.632-5.8368l-123.904 216.1152c-12.4928 21.76-43.6736 22.4256-57.0368 1.1776L392.4992 399.104c-21.7088-34.4576-71.4752-35.6352-94.7712-2.2528l-177.4592 254.0032c-26.368 37.6832 0.6144 89.4464 46.592 89.4464z" fill="#6C6CEA" ></path><path d="M385.2288 207.6672m-70.5536 0a70.5536 70.5536 0 1 0 141.1072 0 70.5536 70.5536 0 1 0-141.1072 0Z" fill="#8D92F8" ></path><path d="M836.096 505.1392L752.64 310.8352c-18.5344-43.1104-78.336-46.5408-101.632-5.8368l-123.904 216.1152c-12.4928 21.76-43.6736 22.4256-57.0368 1.1776L392.4992 399.104c-21.7088-34.4576-71.4752-35.6352-94.7712-2.2528l-177.4592 254.0032c-26.368 37.7344 0.6144 89.4976 46.6432 89.4976h586.9056c44.9536-68.9152 74.1376-148.992 82.2784-235.2128zM137.8816 775.0144c-23.4496 0-42.4448 18.9952-42.4448 42.4448 0 23.4496 18.9952 42.4448 42.4448 42.4448h508.3648c30.72-25.0368 58.4704-53.5552 82.7904-84.8896H137.8816z" fill="#757BF2" ></path><path d="M695.6032 276.5824c-17.5104 1.3824-34.5088 10.752-44.6464 28.416l-123.904 216.1152c-12.4928 21.76-43.6736 22.4256-57.0368 1.1776L392.4992 399.104c-21.7088-34.4576-71.4752-35.6352-94.7712-2.2528l-177.4592 254.0032c-26.368 37.7344 0.6144 89.4976 46.6432 89.4976h233.6256c172.8512-83.5072 292.5568-259.5328 295.0656-463.7696zM173.9776 791.9104c45.6704 0 89.9072-5.888 132.096-16.896H137.8816c-11.776 0-22.4768 4.8128-30.1568 12.5952 21.76 2.7136 43.8272 4.3008 66.2528 4.3008z" fill="#8486F8" ></path><path d="M421.12 444.5696l-28.6208-45.4656c-21.7088-34.4576-71.4752-35.6352-94.7712-2.2528l-137.6768 197.0176c101.5296-23.3472 191.744-76.288 261.0688-149.2992z" fill="#8D92F8" ></path></svg>