<svg viewBox="0 0 1024 1024" version="1.1" xmlns="http://www.w3.org/2000/svg"><path d="M511.232 96.8192c-229.6832 0-415.8976 186.2144-415.8976 415.8976 0 229.6832 186.2144 415.8976 415.8976 415.8976s415.8976-186.2144 415.8976-415.8976c0.0512-229.6832-186.1632-415.8976-415.8976-415.8976z m257.024 539.648c-48.4864 98.6624-146.8928 160-256.768 160-83.2 0-160.4608-36.2496-213.7088-95.9488v5.0688c0 15.9232-12.9024 28.7744-28.7744 28.7744-15.9232 0-28.7744-12.9024-28.7744-28.7744v-109.2608c0-14.0288 10.0864-26.0096 23.9104-28.3648 13.824-2.3552 27.3408 5.5296 32 18.7904 32.2048 91.0336 118.7328 152.1664 215.3472 152.1664 87.7568 0 166.3488-48.9472 205.1072-127.7952a28.8 28.8 0 0 1 38.5536-13.1584c14.2336 6.9632 20.1216 24.2176 13.1072 38.5024z m-174.0288-178.688c15.9232 0 28.7744 12.9024 28.7744 28.7744 0 15.9232-12.9024 28.7744-28.7744 28.7744h-50.3808v22.3232h50.3808c15.9232 0 28.7744 12.9024 28.7744 28.7744 0 15.9232-12.9024 28.7744-28.7744 28.7744h-50.3808v46.2336c0 15.9232-12.9024 28.7744-28.7744 28.7744-15.9232 0-28.7744-12.9024-28.7744-28.7744v-46.2336h-50.3808c-15.9232 0-28.7744-12.9024-28.7744-28.7744 0-15.9232 12.9024-28.7744 28.7744-28.7744h50.3808v-22.3232h-50.3808c-15.9232 0-28.7744-12.9024-28.7744-28.7744 0-15.9232 12.9024-28.7744 28.7744-28.7744h13.3632l-36.5056-39.4752a28.80512 28.80512 0 0 1 42.2912-39.1168l60.2624 65.2288 61.952-65.4336a28.7488 28.7488 0 0 1 40.704-1.1264c11.5712 10.9056 12.032 29.1328 1.1264 40.704l-37.12 39.2192h12.2368z m184.2688-44.3392c0 13.7728-9.728 25.6-23.2448 28.2624-1.8432 0.3584-3.7376 0.5632-5.5296 0.5632-11.52 0-22.1696-6.912-26.624-17.92C687.8208 337.92 604.7744 282.112 511.488 282.112c-86.9376 0-165.2224 48.2816-204.2368 126.0544a28.73344 28.73344 0 0 1-38.656 12.8 28.73344 28.73344 0 0 1-12.8-38.656C304.64 284.9792 402.5856 224.512 511.488 224.512c81.3056 0 156.416 33.8944 209.4592 90.9312v-5.888c0-15.9232 12.9024-28.7744 28.7744-28.7744 15.9232 0 28.7744 12.9024 28.7744 28.7744v103.8848z" fill="#F23D4F" ></path><path d="M764.0064 644.7616c70.0928-83.8656 115.6608-188.8768 125.9008-304.0256-65.4336-143.8208-210.3296-243.8656-378.624-243.8656-229.6832 0-415.8976 186.2144-415.8976 415.8976 0 129.9456 59.5968 245.9136 152.9344 322.2016 30.1056 5.0688 61.0304 7.7824 92.5696 7.7824 85.76 0 166.912-19.5584 239.2576-54.4768a290.3808 290.3808 0 0 1-68.6592 8.2432c-83.2 0-160.4608-36.2496-213.7088-95.9488v5.0688c0 15.9232-12.9024 28.7744-28.7744 28.7744-15.9232 0-28.7744-12.9024-28.7744-28.7744v-109.2608c0-14.0288 10.0864-26.0096 23.9104-28.3648 13.824-2.3552 27.3408 5.5296 32 18.7904 32.2048 91.0336 118.7328 152.1664 215.3472 152.1664 87.7568 0 166.3488-48.9472 205.1072-127.7952a28.8 28.8 0 0 1 38.5536-13.1584 28.8 28.8 0 0 1 13.1584 38.5536c-1.4336 2.7136-2.8672 5.4272-4.3008 8.192z m-169.7792-186.9824c15.9232 0 28.7744 12.9024 28.7744 28.7744 0 15.9232-12.9024 28.7744-28.7744 28.7744h-50.3808v22.3232h50.3808c15.9232 0 28.7744 12.9024 28.7744 28.7744 0 15.9232-12.9024 28.7744-28.7744 28.7744h-50.3808v46.2336c0 15.9232-12.9024 28.7744-28.7744 28.7744-15.9232 0-28.7744-12.9024-28.7744-28.7744v-46.2336h-50.3808c-15.9232 0-28.7744-12.9024-28.7744-28.7744 0-15.9232 12.9024-28.7744 28.7744-28.7744h50.3808v-22.3232h-50.3808c-15.9232 0-28.7744-12.9024-28.7744-28.7744 0-15.9232 12.9024-28.7744 28.7744-28.7744h13.3632l-36.5056-39.4752a28.80512 28.80512 0 0 1 42.2912-39.1168l60.2624 65.2288 61.952-65.4336a28.7488 28.7488 0 0 1 40.704-1.1264c11.5712 10.9056 12.032 29.1328 1.1264 40.704l-37.12 39.2192h12.2368z m161.024-16.0768c-1.8432 0.3584-3.7376 0.5632-5.5296 0.5632a28.8256 28.8256 0 0 1-26.6752-17.92C687.8208 337.92 604.7744 282.112 511.488 282.112c-86.9376 0-165.2224 48.2816-204.2368 126.0544a28.73344 28.73344 0 0 1-38.656 12.8 28.73344 28.73344 0 0 1-12.8-38.656C304.64 284.9792 402.5856 224.512 511.488 224.512c81.3056 0 156.416 33.8944 209.4592 90.9312v-5.888c0-15.9232 12.9024-28.7744 28.7744-28.7744s28.7744 12.9024 28.7744 28.7744v103.8336c0 13.824-9.728 25.6512-23.2448 28.3136z" fill="#FC4956" ></path><path d="M543.8464 518.4c1.1776-1.024 2.4064-1.9968 3.584-3.0208h-3.584v3.0208zM95.3344 512.768c0 45.1072 7.2704 88.5248 20.5824 129.2288 24.2688 3.2768 48.9984 4.9664 74.1376 4.9664 16.896 0 33.5872-0.8192 50.1248-2.304v-48.384c0-14.0288 10.0864-26.0096 23.9104-28.3648 13.824-2.3552 27.3408 5.5296 32 18.7904 5.6832 16.0768 13.1072 31.232 21.9648 45.2608 37.888-9.0112 74.2912-21.9136 108.6976-38.2976-11.4176-3.84-19.6608-14.4896-19.6608-27.1872 0-15.9232 12.9024-28.7744 28.7744-28.7744h50.3808v-22.3232h-50.3808c-15.9232 0-28.7744-12.9024-28.7744-28.7744 0-15.9232 12.9024-28.7744 28.7744-28.7744h13.3632l-36.5056-39.4752a28.80512 28.80512 0 0 1 42.2912-39.1168l60.2624 65.2288 61.952-65.4336a28.7488 28.7488 0 0 1 40.704-1.1264c11.5712 10.9056 12.032 29.1328 1.1264 40.704l-37.12 39.2192h12.288c3.4816 0 6.7584 0.7168 9.8304 1.8432 28.416-32.3072 53.0944-67.9424 73.3696-106.24-42.24-44.7488-101.6832-71.2704-165.9904-71.2704-86.9376 0-165.2224 48.2816-204.2368 126.0544a28.73344 28.73344 0 0 1-38.656 12.8 28.73344 28.73344 0 0 1-12.8-38.656C304.64 284.9792 402.5856 224.512 511.488 224.512c72.6016 0 140.1856 27.0336 191.5392 73.4208 16.7424-42.4448 28.3648-87.5008 34.0992-134.3488a413.80864 413.80864 0 0 0-225.8944-66.7648c-229.6832 0-415.8976 186.2144-415.8976 415.9488z" fill="#FF5C64" ></path><path d="M324.1472 379.8016c41.2672-23.552 79.1552-52.224 112.8448-85.248a226.67776 226.67776 0 0 0-112.8448 85.248zM100.096 449.7408c55.3984-4.864 108.4928-17.92 158.0032-37.9392-5.9392-8.3968-7.2704-19.6096-2.304-29.44 46.6944-93.0304 138.2912-152.2688 241.3568-157.3376 27.8016-38.144 50.8416-79.9232 68.1984-124.5696-17.7152-2.304-35.7376-3.6352-54.0672-3.6352-208.3328 0-380.8256 153.1392-411.1872 352.9216z" fill="#FF716E" ></path></svg>