<svg viewBox="0 0 1024 1024" version="1.1" xmlns="http://www.w3.org/2000/svg"><path d="M878.5408 198.5536h-96.6656V139.9296c0-28.7232-23.296-51.968-51.968-51.968H163.328c-28.7232 0-51.968 23.296-51.968 51.968v220.0576c0 28.7232 23.296 51.968 51.968 51.968h566.6304c28.7232 0 51.968-23.296 51.968-51.968V280.9344h55.4496v191.1808H427.5712a41.1648 41.1648 0 0 0-41.1648 41.1648v160.3584h-31.744c-17.2032 0-31.1808 13.9776-31.1808 31.1808v219.648c0 17.2032 13.9776 31.1808 31.1808 31.1808h145.7664c17.2032 0 31.1808-13.9776 31.1808-31.1808v-219.648c0-17.2032-13.9776-31.1808-31.1808-31.1808h-31.6416V554.496h409.8048c22.7328 0 41.1648-18.432 41.1648-41.1648V239.7696c0-22.784-18.432-41.216-41.216-41.216z m-226.9184 161.5872H241.6128a35.33312 35.33312 0 0 1 0-70.656h410.0096a35.33312 35.33312 0 0 1 0 70.656z" fill="#FF3369" ></path><path d="M878.5408 198.5536h-96.6656V139.9296c0-28.7232-23.296-51.968-51.968-51.968H163.328c-28.7232 0-51.968 23.296-51.968 51.968v220.0576c0 28.7232 23.296 51.968 51.968 51.968h566.6304c28.7232 0 51.968-23.296 51.968-51.968V280.9344h55.4496v191.1808H427.5712a41.1648 41.1648 0 0 0-41.1648 41.1648v160.3584h-31.744c-17.2032 0-31.1808 13.9776-31.1808 31.1808v219.648c0 17.2032 13.9776 31.1808 31.1808 31.1808h145.7664c17.2032 0 31.1808-13.9776 31.1808-31.1808v-219.648c0-17.2032-13.9776-31.1808-31.1808-31.1808h-31.6416V554.496h409.8048c22.7328 0 41.1648-18.432 41.1648-41.1648V239.7696c0-22.784-18.432-41.216-41.216-41.216z m-226.9184 161.5872H241.6128a35.33312 35.33312 0 0 1 0-70.656h410.0096a35.33312 35.33312 0 0 1 0 70.656z" fill="#FF3369" ></path><path d="M731.648 554.496c15.1552-26.3168 28.416-53.8112 39.68-82.3808H427.5712a41.1648 41.1648 0 0 0-41.1648 41.1648v160.3584h-31.744c-17.2032 0-31.1808 13.9776-31.1808 31.1808v147.8144c75.3664-16.1792 145.664-46.0288 208.128-86.784v-61.0304c0-17.2032-13.9776-31.1808-31.1808-31.1808h-31.6416V554.496h262.8608zM781.9264 139.9296c0-28.7232-23.296-51.968-51.968-51.968H163.328c-28.7232 0-51.968 23.296-51.968 51.968v220.0576c0 28.7232 23.296 51.968 51.968 51.968h566.6304c28.7232 0 51.968-23.296 51.968-51.968V280.9344h31.3344c0.7168-12.0832 1.0752-24.2688 1.0752-36.5568 0-15.4112-0.5632-30.72-1.6896-45.824h-30.72V139.9296z m-130.304 220.2112H241.6128a35.33312 35.33312 0 0 1 0-70.656h410.0096a35.33312 35.33312 0 0 1 0 70.656z" fill="#FF4D7C" ></path><path d="M163.328 411.9552h344.576c13.312-16.5888 25.7536-33.8944 37.3248-51.8144h-303.616a35.33312 35.33312 0 0 1 0-70.656h342.8864c29.4912-62.208 48.9984-130.0992 56.32-201.6256H163.328c-28.7232 0-51.968 23.296-51.968 51.968v220.0576A51.96288 51.96288 0 0 0 163.328 411.9552zM427.5712 472.1152a41.1648 41.1648 0 0 0-41.1648 41.1648v14.3872c23.4496-16.9984 45.7216-35.584 66.56-55.6032h-25.3952z" fill="#FF5F89" ></path><path d="M241.6128 289.536h11.9296A624.65536 624.65536 0 0 0 418.816 87.9104H163.328c-28.7232 0-51.968 23.296-51.968 51.968V359.936c0 4.9152 0.7168 9.6256 1.9968 14.08 32.5632-14.1824 63.6928-31.0272 93.0816-50.3296 0.6144-18.944 16.0768-34.1504 35.1744-34.1504z" fill="#FF7196" ></path></svg>