<svg viewBox="0 0 1024 1024" version="1.1" xmlns="http://www.w3.org/2000/svg"><path d="M916.0192 508.672L760.9856 401.408a64.83456 64.83456 0 0 1-27.9552-53.504l0.4608-188.5696c0.1536-53.76-61.44-84.3264-104.192-51.712L479.3344 221.952A64.76288 64.76288 0 0 1 419.84 231.9872L240.64 173.312c-51.0976-16.7424-99.1744 32.3584-81.408 83.0976l62.4128 177.92c7.0656 20.1216 3.7376 42.4448-8.8064 59.6992l-111.2064 152.2688c-31.6928 43.4176 0.1536 104.2944 53.8624 103.0656l188.5184-4.352c21.3504-0.512 41.5744 9.5232 54.0672 26.8288l110.4384 152.832c31.488 43.5712 99.2768 32.1024 114.688-19.3536l51.9168-173.2608 173.2096 161.8944a38.10816 38.10816 0 0 0 24.32 10.24c10.8032 0.512 21.76-3.584 29.696-12.0832a38.15424 38.15424 0 0 0-1.8432-54.016l-170.9056-159.744 169.4208-54.5792c51.1488-16.4864 61.2352-84.48 16.9984-115.0976zM382.6688 499.8144l-58.624 106.496a38.2208 38.2208 0 0 1-33.536 19.8144c-6.2464 0-12.544-1.536-18.3808-4.7616-18.4832-10.1888-25.2416-33.4336-15.0528-51.9168l54.784-99.5328-26.0608-87.1424c-6.0416-20.224 5.4272-41.5232 25.6512-47.5648 20.224-6.0416 41.5232 5.4272 47.5648 25.6512l28.3136 94.72c4.4544 14.6432 2.7648 30.7712-4.6592 44.2368z" fill="#BD50D3" ></path><path d="M788.1216 420.1984l-27.136-18.7904a64.83456 64.83456 0 0 1-27.9552-53.504l0.4608-188.5696c0.1536-53.76-61.44-84.3264-104.192-51.712L479.3344 221.952A64.73728 64.73728 0 0 1 419.84 231.9872L240.64 173.312c-51.0976-16.7424-99.1744 32.3584-81.408 83.0976l62.4128 177.92c7.0656 20.1216 3.7376 42.4448-8.8064 59.6992l-111.2064 152.2688c-31.6928 43.4176 0.1536 104.2944 53.8624 103.0656l188.5184-4.352c21.3504-0.512 41.5744 9.5232 54.0672 26.8288l47.4112 65.6384c178.0736-66.6112 311.3472-224.8192 342.6304-417.28zM382.6688 499.8144l-58.624 106.496a38.2208 38.2208 0 0 1-33.536 19.8144c-6.2464 0-12.544-1.536-18.3808-4.7616-18.4832-10.1888-25.2416-33.4336-15.0528-51.9168l54.784-99.5328-26.0608-87.1424c-6.0416-20.224 5.4272-41.5232 25.6512-47.5648 20.224-6.0416 41.5232 5.4272 47.5648 25.6512l28.3136 94.72c4.4544 14.6432 2.7648 30.7712-4.6592 44.2368z" fill="#C65EDB" ></path><path d="M101.632 646.2976c-7.68 10.5472-11.5712 22.0672-12.3904 33.536 6.7584 0.256 13.5168 0.512 20.3264 0.512 297.3184 0 538.368-241.0496 538.368-538.368 0-14.6944-0.768-29.2352-1.8944-43.6736-5.7856 2.2016-11.3664 5.2736-16.7424 9.3184L479.3344 221.952A64.73728 64.73728 0 0 1 419.84 231.9872L240.64 173.312c-51.0976-16.7424-99.1744 32.3584-81.408 83.0976l62.4128 177.92c7.0656 20.1216 3.7376 42.4448-8.8064 59.6992l-111.2064 152.2688z m155.4944-76.8512l54.784-99.5328-26.0608-87.1424c-6.0416-20.224 5.4272-41.5232 25.6512-47.5648 20.224-6.0416 41.5232 5.4272 47.5648 25.6512l28.3136 94.72c4.4032 14.6944 2.6624 30.8224-4.7104 44.2368l-58.624 106.496a38.2208 38.2208 0 0 1-33.536 19.8144c-6.2464 0-12.544-1.536-18.3808-4.7616a38.21056 38.21056 0 0 1-15.0016-51.9168z" fill="#CA6EE0" ></path><path d="M419.84 231.9872L240.64 173.312c-51.0976-16.7424-99.1744 32.3584-81.408 83.0976l60.9792 173.8752c23.552-12.1344 46.08-25.9584 67.4816-41.2672l-1.8432-6.2464c-6.0416-20.224 5.4272-41.5232 25.6512-47.5648 12.032-3.584 24.4736-0.9216 33.8432 6.0416 33.1776-31.6416 62.4128-67.3792 86.6816-106.5984-4.096-0.5632-8.192-1.3312-12.1856-2.6624z" fill="#D786EA" ></path></svg>