<svg viewBox="0 0 1024 1024" version="1.1" xmlns="http://www.w3.org/2000/svg"><path d="M516.9664 222.2592c-156.928 0-284.6208 127.6928-284.6208 284.6208s127.6928 284.6208 284.6208 284.6208c156.928 0 284.6208-127.6928 284.6208-284.6208s-127.6416-284.6208-284.6208-284.6208z m109.568 310.2208c21.8624 0 39.5776 17.7152 39.5776 39.5776 0 21.8624-17.7152 39.5776-39.5776 39.5776H556.544v22.7328c0 21.8624-17.7152 39.5776-39.5776 39.5776-21.8624 0-39.5776-17.7152-39.5776-39.5776v-22.7328H407.4496c-21.8624 0-39.5776-17.7152-39.5776-39.5776 0-21.8624 17.7152-39.5776 39.5776-39.5776h69.9904v-27.1872H407.4496c-21.8624 0-39.5776-17.7152-39.5776-39.5776 0-21.8624 17.7152-39.5776 39.5776-39.5776h26.6752l-16.896-23.7056c-12.6976-17.7664-8.5504-42.496 9.216-55.1936 17.7664-12.6976 42.496-8.5504 55.1936 9.216l34.4064 48.2816 31.8464-47.36a39.552 39.552 0 0 1 65.6384 44.1344l-16.5376 24.6272h29.5424c21.8624 0 39.5776 17.7152 39.5776 39.5776 0 21.8624-17.7152 39.5776-39.5776 39.5776H556.544V532.48h69.9904z" fill="#3A9CED" ></path><path d="M516.9664 68.6592C274.944 68.6592 78.7456 264.8576 78.7456 506.88s196.1984 438.2208 438.2208 438.2208 438.2208-196.1984 438.2208-438.2208c0.0512-242.0224-196.1984-438.2208-438.2208-438.2208z m0 808.0896c-203.9296 0-369.8688-165.9392-369.8688-369.8688s165.9392-369.8688 369.8688-369.8688S886.8352 302.9504 886.8352 506.88s-165.9392 369.8688-369.8688 369.8688z" fill="#2595E8" ></path><path d="M469.5552 873.5744C287.9488 850.2272 147.1488 694.7328 147.1488 506.88c0-203.9296 165.9392-369.8688 369.8688-369.8688 188.5696 0 344.5248 141.8752 366.9504 324.5056 14.1312-48.8448 22.3232-100.2496 23.6032-153.344-72.448-142.1312-220.0576-239.5136-390.5536-239.5136-242.0736 0-438.272 196.1984-438.272 438.2208 0 169.5232 96.3584 316.4672 237.2096 389.376 53.1456-0.9728 104.6528-8.8064 153.6-22.6816z" fill="#3A9CED" ></path><path d="M147.1488 506.88c0-203.9296 165.9392-369.8688 369.8688-369.8688 79.1552 0 152.5248 25.088 212.736 67.584 5.1712-24.3712 8.8064-49.2544 10.9056-74.5472-65.4848-38.9632-141.9264-61.3888-223.6416-61.3888-242.0736 0-438.272 196.1984-438.272 438.2208 0 62.1568 13.0048 121.2416 36.352 174.848 8.192 0.3072 16.4352 0.5632 24.7296 0.5632 16.9984 0 33.8432-0.7168 50.4832-2.0992A368.4352 368.4352 0 0 1 147.1488 506.88zM556.544 515.072c3.3792-3.2256 6.7072-6.5024 10.0352-9.8304h-10.0352v9.8304z" fill="#59ADF8" ></path><path d="M516.9664 222.2592c-156.928 0-284.6208 127.6928-284.6208 284.6208a283.0848 283.0848 0 0 0 48.4864 158.7712c50.2272-12.032 97.9456-30.3104 142.4384-54.0672h-15.8208c-21.8624 0-39.5776-17.7152-39.5776-39.5776 0-21.8624 17.7152-39.5776 39.5776-39.5776h69.9904v-27.1872H407.4496c-21.8624 0-39.5776-17.7152-39.5776-39.5776 0-21.8624 17.7152-39.5776 39.5776-39.5776h26.6752l-16.896-23.7056c-12.6976-17.7664-8.5504-42.496 9.216-55.1936 17.7664-12.6976 42.496-8.5504 55.1936 9.216l34.4064 48.2816 31.8464-47.36a39.552 39.552 0 0 1 65.6384 44.1344l-16.5376 24.6272h29.5424c2.0992 0 4.1472 0.2048 6.144 0.512a602.2144 602.2144 0 0 0 71.2704-134.144c-50.0736-43.6224-115.456-70.1952-186.9824-70.1952z" fill="#59ADF8" ></path><path d="M81.0496 461.7728c24.2176-3.7376 47.9232-8.9088 71.1168-15.4624 28.9792-175.2064 181.504-309.248 364.8-309.248 3.2768 0 6.5024 0.1536 9.728 0.256 10.9056-21.5552 20.5312-43.8784 28.7744-66.816a435.968 435.968 0 0 0-38.5536-1.792c-226.7136-0.0512-413.2864 172.2368-435.8656 393.0624z" fill="#6BC2FC" ></path><path d="M249.5488 409.4464c88.2176-42.496 164.5056-105.8304 222.464-183.6032-102.912 16.384-187.5968 88.1152-222.464 183.6032z" fill="#6BC2FC" ></path></svg>