<svg viewBox="0 0 1024 1024" version="1.1" xmlns="http://www.w3.org/2000/svg"><path d="M747.264 107.2128H290.6624c-27.136 0-51.6608 16.128-62.464 41.0112L89.7536 467.4048a68.4544 68.4544 0 0 0-5.632 27.0848v348.5696c0 37.632 30.5152 68.096 68.096 68.096h722.9952c37.632 0 68.096-30.5152 68.096-68.096V495.8208c0-8.6528-1.6384-17.2032-4.864-25.2416l-128-320.512c-10.24-25.856-35.328-42.8544-63.1808-42.8544z m73.1136 667.5968c0 22.784-18.4832 41.2672-41.2672 41.2672H241.2032c-22.784 0-41.2672-18.4832-41.2672-41.2672 0-22.784 18.4832-41.2672 41.2672-41.2672h537.9072c22.784 0 41.2672 18.4832 41.2672 41.2672z m-167.2704-266.5472l-38.912 71.3216a22.80448 22.80448 0 0 1-20.0192 11.8784H445.8496c-7.8848 0-15.1552-4.0448-19.3536-10.7008l-46.336-74.1376a32.17408 32.17408 0 0 0-27.2896-15.1552h-116.736c-17.5104 0-29.6448-17.4592-23.552-33.8944l91.4432-245.504c9.9328-26.6752 35.3792-44.3392 63.7952-44.3392h302.7456a68.096 68.096 0 0 1 63.488 43.52l95.2832 246.016c6.3488 16.4352-5.7856 34.2016-23.3984 34.2016h-124.5184c-11.8272 0-22.6304 6.4512-28.3136 16.7936z" fill="#FC7032" ></path><path d="M632.8832 393.7792h-75.264v-23.2448h75.264c20.224 0 36.608-16.384 36.608-36.608s-16.384-36.608-36.608-36.608h-38.8096l28.3648-40.6528a36.56704 36.56704 0 0 0-9.0624-50.944 36.56704 36.56704 0 0 0-50.944 9.0624l-42.1376 60.3648-44.7488-61.0816c-11.9296-16.2816-34.816-19.8144-51.1488-7.8848-16.2816 11.9296-19.8144 34.816-7.8848 51.1488l29.2864 39.9872h-36.6592c-20.224 0-36.608 16.384-36.608 36.608s16.384 36.608 36.608 36.608h75.264v23.2448h-75.264c-20.224 0-36.608 16.384-36.608 36.608s16.384 36.608 36.608 36.608h75.264v33.6384c0 20.224 16.384 36.608 36.608 36.608s36.608-16.384 36.608-36.608V466.944h75.264c20.224 0 36.608-16.384 36.608-36.608 0-20.1728-16.384-36.5568-36.608-36.5568z" fill="#FF7C33" ></path><path d="M810.496 150.0672a68.13696 68.13696 0 0 0-63.232-42.8544H290.6624c-27.136 0-51.6608 16.128-62.464 41.0112L89.7536 467.4048a68.4544 68.4544 0 0 0-5.632 27.0848v348.5696c0 37.632 30.5152 68.096 68.096 68.096h346.368a640.97792 640.97792 0 0 0 190.6176-95.1296h-448c-22.784 0-41.2672-18.4832-41.2672-41.2672 0-22.784 18.4832-41.2672 41.2672-41.2672h537.9072c1.024 0 2.048 0.1024 3.0208 0.1536 71.3216-76.5952 124.2112-170.5984 151.6032-274.944L810.496 150.0672z m-4.5568 341.4016h-124.5184a32.2048 32.2048 0 0 0-28.2624 16.7936l-38.912 71.3216a22.80448 22.80448 0 0 1-20.0192 11.8784H445.8496c-7.8848 0-15.1552-4.0448-19.3536-10.7008l-46.336-74.1376a32.17408 32.17408 0 0 0-27.2896-15.1552h-116.736c-17.5104 0-29.6448-17.4592-23.552-33.8944l91.4432-245.504c9.9328-26.6752 35.3792-44.3392 63.7952-44.3392h302.7456a68.096 68.096 0 0 1 63.488 43.52l95.2832 246.016c6.4 16.4864-5.7344 34.2016-23.3984 34.2016z" fill="#FF7C33" ></path><path d="M134.3488 710.2464c138.9568 0 267.6736-43.9808 372.8896-118.8352H445.8496c-7.8848 0-15.1552-4.0448-19.3536-10.7008l-46.336-74.1376a32.17408 32.17408 0 0 0-27.2896-15.1552h-116.736c-17.5104 0-29.6448-17.4592-23.552-33.8944l91.4432-245.504c9.9328-26.6752 35.3792-44.3392 63.7952-44.3392h302.7456a68.096 68.096 0 0 1 63.488 43.52l16.5888 42.8032c13.6704-44.8512 22.5792-91.7504 26.1632-140.1344-9.0112-4.352-19.0976-6.7584-29.5424-6.7584H290.6624c-27.136 0-51.6608 16.128-62.464 41.0112L89.7536 467.4048a68.4544 68.4544 0 0 0-5.632 27.0848v213.8112c16.5888 1.3312 33.3312 1.9456 50.2272 1.9456z" fill="#FF9552" ></path><path d="M632.8832 393.7792h-75.264v-23.2448h75.264c20.224 0 36.608-16.384 36.608-36.608s-16.384-36.608-36.608-36.608h-38.8096l28.3648-40.6528a36.56704 36.56704 0 0 0-9.0624-50.944 36.56704 36.56704 0 0 0-50.944 9.0624l-42.1376 60.3648-44.7488-61.0816c-11.9296-16.2816-34.816-19.8144-51.1488-7.8848-16.2816 11.9296-19.8144 34.816-7.8848 51.1488l29.2864 39.9872h-36.6592c-20.224 0-36.608 16.384-36.608 36.608s16.384 36.608 36.608 36.608h75.264v23.2448h-75.264c-20.224 0-36.608 16.384-36.608 36.608s16.384 36.608 36.608 36.608h75.264v33.6384c0 20.224 16.384 36.608 36.608 36.608s36.608-16.384 36.608-36.608V466.944h75.264c2.1504 0 4.1984-0.256 6.1952-0.6144 10.496-13.2096 20.48-26.7776 29.9008-40.7552-2.3552-17.92-17.5104-31.7952-36.096-31.7952z" fill="#FF9552" ></path><path d="M222.1056 432.0256l81.92-219.904c9.9328-26.6752 35.3792-44.3392 63.7952-44.3392h157.952c11.6736-19.5584 22.3232-39.7312 31.8976-60.5696H290.6624c-27.136 0-51.6608 16.128-62.464 41.0112L89.7536 467.4048c-0.6144 1.4848-1.1264 2.9696-1.6896 4.4544 46.6432-8.448 91.4944-21.9136 134.0416-39.8336zM409.1904 297.4208c-20.224 0-36.608 16.384-36.608 36.608 0 2.7648 0.3584 5.4784 0.9728 8.0384 17.5616-13.9776 34.4064-28.928 50.3808-44.6464h-14.7456z" fill="#FFA56A" ></path><path d="M475.5456 214.1696c-11.9296-16.2816-34.816-19.8144-51.1488-7.8848-16.2816 11.9296-19.8144 34.816-7.8848 51.1488l19.968 27.2896c17.3568-18.0736 33.6896-37.12 48.896-57.088l-9.8304-13.4656z" fill="#FFA56A" ></path></svg>