<svg viewBox="0 0 1024 1024" version="1.1" xmlns="http://www.w3.org/2000/svg"><path d="M946.432 564.6848c-20.6848-39.6288-51.9168-67.8912-93.5936-84.5312-20.736-8.2944-42.24-12.2368-64.4608-12.288-5.5296 0-7.2192-9.4208-10.752-26.2144-12.1856-57.8048-17.0496-76.2368-35.9424-148.5312-3.072-11.8272-5.2224-19.3024-7.2192-29.952h7.9872c21.1968 0 42.3424-0.2048 63.5392 0.1024 8.0896 0.1024 8.192-3.5328 6.912-15.2576-1.792-16.7424-1.4336-33.6384 0.3584-50.3296 1.024-9.5232-0.8192-11.6224-7.8336-11.5712-40.2432 0.1536-112.5888 0.256-147.9168 0.4608-10.4448 0.0512-18.1248 9.8304-15.7696 20.0192 12.4928 53.0432 24.9344 105.728 37.4784 159.0784h-7.8848c-69.5296 0-139.0592-0.0512-208.5888 0.0512-5.2224 0-7.0656-1.3824-7.0144-6.8096 0.256-21.1968 0-42.3424 0.1536-63.5392 0.0512-4.9152-1.4848-6.7584-6.656-6.7584-63.9488 0.1536-127.9488 0.1024-191.8976 0-5.8368 0-6.6048 2.6624-5.5296 10.8544 2.4064 18.6368 2.7648 37.5296 0 56.064-1.28 8.5504 0.2048 10.2912 5.632 10.24 19.6608-0.1536 39.3728-0.1024 59.0336-0.1024h8.1408c-1.6896 4.864-25.856 58.5728-38.2464 86.3232-8.6528 19.4048-9.8816 23.3472-19.456 20.992-40.5504-10.0352-79.8208-5.6832-117.504 12.032-80.0256 37.632-121.7024 130.9696-94.1568 214.2208 22.8352 69.0688 70.9632 111.1552 143.4112 124.0064 73.4208 13.056 146.3808-22.6816 182.4256-87.9104 11.7248-21.1968 19.712-43.6224 21.9136-67.7888 0.5632-6.0928 2.7136-8.6016 9.1648-8.0896 7.68 0.5632 15.4112-0.2048 23.0912 0.3072 2.7136 0.2048 6.2976 1.8944 7.7312 4.0448 25.856 38.656 80.3328 45.9776 115.456 13.824 24.576-22.4768 31.2832-56.3712 18.944-85.7088-10.752-25.6-30.72-40.9088-58.1632-46.336-2.6112-0.512-5.632-2.816-6.7584-5.1712-14.2336-30.6688-28.16-61.4912-42.1376-92.2624-0.6656-1.4336-0.9728-3.072-1.536-5.0176 2.0992-0.3072 3.5328-0.6656 4.9664-0.6656 72.7552-0.0512 145.4592 0 218.2144-0.1024 6.2976 0 5.5808 3.8912 7.68 12.544 2.1504 8.8576 3.6864 15.0528 5.7856 22.9376 2.048 7.7824 1.536 9.6256-4.4544 12.8-4.5056 2.4064-8.96 4.9152-13.056 7.936-59.2384 43.264-85.4528 100.6592-77.1072 171.6736 9.1648 78.08 71.7824 140.9024 147.456 152.7808 42.9056 6.7584 83.2-0.1024 120.32-22.4768 52.0704-31.3856 80.8448-78.2848 87.1936-138.3936 3.584-34.2016-3.4304-67.0208-19.3536-97.4848zM215.3984 748.3904c-57.088-6.6048-98.816-58.0608-90.3168-116.6336 8.8064-60.5184 66.8672-95.6928 117.5552-85.1968-1.2288 3.1744-2.304 6.2464-3.6352 9.2672-6.656 14.7968-13.2608 29.6448-20.1728 44.3392l-14.1824 32.9216c-5.2736 12.2368 3.6352 25.9072 16.9472 26.0608l35.84 0.3584c19.8656-0.1024 39.7824-0.0512 59.648 0 2.9184 0 5.888 0.256 9.216 0.4096-4.3008 52.5312-58.1632 94.5664-110.8992 88.4736z m216.832-165.5296c-11.1104-0.0512-22.2208-0.1536-33.3312 0.0512-4.1472 0.0512-6.656-1.1264-8.2944-5.1712-9.728-23.9104-24.3712-44.4928-43.3152-62.0032-3.2768-3.0208-3.5328-5.4272-1.7408-9.3696 10.0864-21.7088 19.8656-43.52 29.7472-65.28 0.9728-2.0992 2.048-4.096 3.8912-7.7824 7.0656 15.4624 13.3632 29.184 19.6096 42.9056 14.1312 31.0784 28.2112 62.208 42.3424 93.3376 4.7104 10.1888 2.56 13.3632-8.9088 13.312z m378.2656 163.4816c-50.2272 12.1344-103.424-17.664-119.8592-68.096-15.2064-46.7456 6.7584-94.208 35.9936-111.9232 6.9632 29.5424 13.9264 58.368 20.4288 87.2448 0.9728 4.1984 4.7104 7.168 9.0112 7.0656 21.6064-0.3072 43.1616-0.1536 64.768-0.1536 3.9424 0 6.8096-3.6864 5.888-7.4752-8.4992-35.8912-16.8448-71.0656-25.2416-106.3936 34.816 1.6384 79.36 32.2048 87.04 85.4016 8.1408 56.1152-28.672 102.4-78.0288 114.3296z" fill="#F23D4F" ></path><path d="M852.8384 480.1536c-20.736-8.2944-42.24-12.2368-64.4608-12.288-5.5296 0-7.2192-9.4208-10.752-26.2144-12.1856-57.8048-17.0496-76.2368-35.9424-148.5312-3.072-11.8272-5.2224-19.3024-7.2192-29.952h7.9872c21.1968 0 42.3424-0.2048 63.5392 0.1024 8.0896 0.1024 13.2096-3.4816 13.2096-15.2576 0-17.2544 0.3584-33.7408 0.3584-50.3296 0-9.5744-7.0656-11.6224-14.1312-11.5712-40.2432 0.1536-112.5888 0.256-147.9168 0.4608-10.4448 0.0512-18.1248 9.8304-15.7696 20.0192 12.4928 53.0432 24.9344 105.728 37.4784 159.0784h-7.8848c-69.5296 0-139.0592-0.0512-208.5888 0.0512-5.2224 0-7.0656-1.3824-7.0144-6.8096 0.256-21.1968 0-42.3424 0.1536-63.5392 0.0512-4.9152-1.4848-6.7584-6.656-6.7584-63.9488 0.1536-127.9488 0.1024-191.8976 0-5.8368 0-6.6048 2.6624-5.5296 10.8544 2.4064 18.6368 2.7648 37.5296 0 56.064-1.28 8.5504 0.2048 10.2912 5.632 10.24 19.6608-0.1536 39.3728-0.1024 59.0336-0.1024h8.1408c-1.6896 4.864-25.856 58.5728-38.2464 86.3232-8.6528 19.4048-9.8816 23.3472-19.456 20.992-40.5504-10.0352-79.8208-5.6832-117.504 12.032-80.0256 37.632-121.7024 130.9696-94.1568 214.2208 22.8352 69.0688 70.9632 111.1552 143.4112 124.0064 73.4208 13.056 146.3808-22.6816 182.4256-87.9104 11.7248-21.1968 19.712-43.6224 21.9136-67.7888 0.5632-6.0928 2.7136-8.6016 9.1648-8.0896 7.68 0.5632 15.4112-0.2048 23.0912 0.3072 2.7136 0.2048 6.2976 1.8944 7.7312 4.0448 25.856 38.656 80.3328 45.9776 115.456 13.824 24.576-22.4768 31.2832-56.3712 18.944-85.7088-10.752-25.6-30.72-40.9088-58.1632-46.3872-2.6112-0.512-5.632-2.816-6.7584-5.1712-14.2336-30.6688-28.16-61.4912-42.1376-92.2624-0.6656-1.4336-0.9728-3.072-1.536-5.0176 2.0992-0.3072 3.5328-0.6656 4.9664-0.6656 72.7552-0.0512 145.4592 0 218.2144-0.1024 6.2976 0 5.5808 3.8912 7.68 12.544 2.1504 8.8576 3.6864 15.0528 5.7856 22.9376 2.048 7.7824 1.536 9.6256-4.4544 12.8-4.5056 2.4064-8.96 4.9152-13.056 7.936-59.2384 43.264-85.4528 100.6592-77.1072 171.6736 7.3216 62.1568 48.4864 114.5344 103.168 139.3664 22.1184-18.7904 42.752-39.3216 61.696-61.3376-38.0416-4.7104-72.3968-31.1808-85.0432-69.9392-15.2064-46.7456 6.7584-94.208 35.9936-111.9232 6.9632 29.5424 13.9264 58.368 20.4288 87.2448 0.9728 4.1984 4.7104 7.168 9.0112 7.0656 21.6064-0.3072 43.1616-0.1536 64.768-0.1536 3.9424 0 6.8096-3.6864 5.888-7.4752-8.4992-35.8912-16.8448-71.0656-25.2416-106.3936 23.808 1.1264 52.1728 15.7696 70.144 41.9328 10.496-26.9312 18.944-54.8864 25.1904-83.6608-13.056-9.984-27.6992-18.2784-43.9808-24.7808z m-637.44 268.2368c-57.088-6.6048-98.816-58.0608-90.3168-116.6336 8.8064-60.5184 66.8672-95.6928 117.5552-85.1968-1.2288 3.1744-2.304 6.2464-3.6352 9.2672-6.656 14.7968-13.2608 29.6448-20.1728 44.3392l-14.1824 32.9216c-5.2736 12.2368 3.6352 25.9072 16.9472 26.0608l35.84 0.3584c19.8656-0.1024 39.7824-0.0512 59.648 0 2.9184 0 5.888 0.256 9.216 0.4096-4.3008 52.5312-58.1632 94.5664-110.8992 88.4736z m216.8832-165.5296c-11.1104-0.0512-22.2208-0.1536-33.3312 0.0512-4.1472 0.0512-6.656-1.1264-8.2944-5.1712-9.728-23.9104-24.3712-44.4928-43.3152-62.0032-3.2768-3.0208-3.5328-5.4272-1.7408-9.3696 10.0864-21.7088 19.8656-43.52 29.7472-65.28 0.9728-2.0992 2.048-4.096 3.8912-7.7824 7.0656 15.4624 13.3632 29.184 19.6096 42.9056 14.1312 31.0784 28.2112 62.208 42.3424 93.3376 4.6592 10.1888 2.5088 13.3632-8.9088 13.312z" fill="#FC4956" ></path><path d="M741.6832 293.12c-3.072-11.8272-5.2224-19.3024-7.2192-29.952h18.688c3.1232-23.7568 4.7104-47.9744 4.7104-72.5504 0-1.4848-0.0512-2.9184-0.0512-4.352-36.1984 0.1024-76.6464 0.2048-100.352 0.3072-10.4448 0.0512-18.1248 9.8304-15.7696 20.0192 12.4928 53.0432 24.9344 105.728 37.4784 159.0784h-7.8848c-69.5296 0-139.0592-0.0512-208.5888 0.0512-5.2224 0-7.0656-1.3824-7.0144-6.8096 0.256-21.1968 0-42.3424 0.1536-63.5392 0.0512-4.9152-1.4848-6.7584-6.656-6.7584-63.9488 0.1536-127.9488 0.1024-191.8976 0-5.8368 0-6.6048 2.6624-5.5296 10.8544 2.4064 18.6368 2.7648 37.5296 0 56.064-1.28 8.5504 0.2048 10.2912 5.632 10.24 19.6608-0.1536 39.3728-0.1024 59.0336-0.1024h8.1408c-1.6896 4.864-25.856 58.5728-38.2464 86.3232-8.6528 19.4048-9.8816 23.3472-19.456 20.992-40.5504-10.0352-79.8208-5.6832-117.504 12.032-80.0256 37.632-121.7024 130.9696-94.1568 214.2208 3.2768 9.984 7.168 19.3024 11.52 28.1088a553.5232 553.5232 0 0 0 129.8432 17.0496c-47.104-14.4384-79.104-60.672-71.5264-112.64 8.8064-60.5184 66.8672-95.6928 117.5552-85.1968-1.2288 3.1744-2.304 6.2464-3.6352 9.2672-6.656 14.7968-13.2608 29.6448-20.1728 44.3392l-14.1824 32.9216c-5.2736 12.2368 3.6352 25.9072 16.9472 26.0608l35.84 0.3584c19.8656-0.1024 39.7824-0.0512 59.648 0 2.9184 0 5.888 0.256 9.216 0.4096-2.9696 36.3008-29.5936 67.584-63.1296 81.4592 44.9024-4.7616 88.1664-14.8992 129.1776-29.696 5.5296-14.08 9.3184-28.7232 10.7008-44.1344 0.5632-6.0928 2.7136-8.6016 9.1648-8.0896 7.68 0.5632 15.4112-0.2048 23.0912 0.3072 2.7136 0.2048 6.2976 1.8944 7.7312 4.0448 4.7616 7.1168 10.496 13.1584 16.896 18.1248 43.6224-22.784 83.8144-51.1488 119.6032-84.224-0.6656-1.9456-1.3824-3.8912-2.1504-5.7856-10.752-25.6-30.72-40.9088-58.1632-46.3872-2.6112-0.512-5.632-2.816-6.7584-5.1712-14.2336-30.6688-28.16-61.4912-42.1376-92.2624-0.6656-1.4336-0.9728-3.072-1.536-5.0176 2.0992-0.3072 3.5328-0.6656 4.9664-0.6656 72.7552-0.0512 145.4592 0 218.2144-0.1024 2.3552 0 3.7376 0.5632 4.6592 1.6896 21.9136-42.5472 38.5024-88.32 48.8448-136.3968-1.1264-4.608-2.4064-9.3696-3.7376-14.4896z m-309.4016 289.7408c-11.1104-0.0512-22.2208-0.1536-33.3312 0.0512-4.1472 0.0512-6.656-1.1264-8.2944-5.1712-9.728-23.9104-24.3712-44.4928-43.3152-62.0032-3.2768-3.0208-3.5328-5.4272-1.7408-9.3696 10.0864-21.7088 19.8656-43.52 29.7472-65.28 0.9728-2.0992 2.048-4.096 3.8912-7.7824 7.0656 15.4624 13.3632 29.184 19.6096 42.9056 14.1312 31.0784 28.2112 62.208 42.3424 93.3376 4.6592 10.1888 2.5088 13.3632-8.9088 13.312z" fill="#FF5C64" ></path><path d="M475.8528 365.6704h-13.1072c-5.2224 0-7.0656-1.3824-7.0144-6.8096 0.256-21.1968 0-42.3424 0.1536-63.5392 0.0512-4.9152-1.4848-6.7584-6.656-6.7584-63.9488 0.1536-127.9488 0.1024-191.8976 0-5.8368 0-11.776 2.6112-11.8272 10.8544-0.1024 18.7392 0 34.7136 0 56.064 0 8.6528 6.5024 10.2912 11.9296 10.24 19.6608-0.1536 39.3728-0.1024 59.0336-0.1024h8.1408c-1.6896 4.864-25.856 58.5728-38.2464 86.3232-8.6528 19.4048-9.8816 23.3472-19.456 20.992-40.5504-10.0352-79.8208-5.6832-117.504 12.032-30.3616 14.2848-55.1936 36.5568-72.8064 63.3344 107.264-2.2528 207.0016-35.0208 290.9184-89.9584 2.6112-5.7344 5.2224-11.4688 7.8336-17.2544 0.9728-2.0992 2.048-4.096 3.8912-7.7824 2.048 4.4544 3.9936 8.7552 5.9392 13.0048 33.1264-23.5008 63.5392-50.5856 90.6752-80.64z" fill="#FF716E" ></path></svg>