<svg viewBox="0 0 1024 1024" version="1.1" xmlns="http://www.w3.org/2000/svg"><path d="M629.4016 96.512h-441.856c-54.3232 0-98.3552 44.032-98.3552 98.3552v634.3168c0 54.3232 44.032 98.3552 98.3552 98.3552h441.856c54.3232 0 98.3552-44.032 98.3552-98.3552V194.8672c0-54.3232-44.032-98.3552-98.3552-98.3552zM200.7552 296.6016h149.7088v140.544H200.7552V296.6016z m399.0528 468.224H238.5408c-20.8896 0-37.8368-16.9472-37.8368-37.8368s16.9472-37.8368 37.8368-37.8368h361.2672c20.8896 0 37.8368 16.9472 37.8368 37.8368s-16.9472 37.8368-37.8368 37.8368z m-0.7168-170.3424H239.3088c-21.2992 0-38.5536-17.2544-38.5536-38.5536s17.2544-38.5536 38.5536-38.5536h359.7824c21.2992 0 38.5536 17.2544 38.5536 38.5536s-17.2544 38.5536-38.5536 38.5536zM872.0896 343.1936h-77.9264v489.5744c0 85.5552-45.056 85.5552-45.056 85.5552h122.9824c35.4304 0 64.1536-28.7232 64.1536-64.1536V407.3472c0.0512-35.4304-28.7232-64.1536-64.1536-64.1536z" fill="#2595E8" ></path><path d="M727.7568 731.3408V194.8672c0-54.3232-44.032-98.3552-98.3552-98.3552h-441.856c-54.3232 0-98.3552 44.032-98.3552 98.3552v634.3168c0 38.4512 22.1184 71.6288 54.2208 87.808 38.0928 6.912 77.3632 10.5472 117.4528 10.5472 182.9376-0.0512 348.2112-75.1616 466.8928-196.1984zM200.7552 296.6016h149.7088v140.544H200.7552V296.6016z m399.0528 468.224H238.5408c-20.8896 0-37.8368-16.9472-37.8368-37.8368s16.9472-37.8368 37.8368-37.8368h361.2672c20.8896 0 37.8368 16.9472 37.8368 37.8368s-16.9472 37.8368-37.8368 37.8368z m37.8368-208.896c0 21.2992-17.2544 38.5536-38.5536 38.5536H239.3088c-21.2992 0-38.5536-17.2544-38.5536-38.5536s17.2544-38.5536 38.5536-38.5536h359.7824c21.2992 0.0512 38.5536 17.3056 38.5536 38.5536zM909.6704 355.4304a63.83616 63.83616 0 0 0-37.5296-12.1856h-77.9264v308.7872c60.9792-85.8624 101.7856-187.0336 115.456-296.6016z" fill="#3A9CED" ></path><path d="M629.4016 96.512h-441.856c-54.3232 0-98.3552 44.032-98.3552 98.3552v500.3776c125.5424-1.3312 242.6368-38.0928 341.6576-100.7104H239.3088c-21.2992 0-38.5536-17.2544-38.5536-38.5536s17.2544-38.5536 38.5536-38.5536h291.0208c97.536-91.904 166.8096-213.4016 193.4336-350.208-11.9808-40.8576-49.664-70.7072-94.3616-70.7072zM350.464 437.1456H200.7552V296.6016h149.7088v140.544z" fill="#59ADF8" ></path><path d="M200.7552 399.5648V296.6016h149.7088v3.4304a656.9472 656.9472 0 0 0 155.0336-203.52H187.5968c-54.3232 0-98.3552 44.032-98.3552 98.3552v246.272c38.7072-10.5472 76.032-24.4736 111.5136-41.5744z" fill="#6BC2FC" ></path></svg>