<svg viewBox="0 0 1024 1024" version="1.1" xmlns="http://www.w3.org/2000/svg"><path d="M705.1776 103.1168v169.8304h166.656z" fill="#3A9CED" ></path><path d="M664.1152 355.072a41.0624 41.0624 0 0 1-41.0624-41.0624v-226.304H237.824c-48.896 0-88.5248 39.6288-88.5248 88.5248v674.6624c0 48.896 39.6288 88.5248 88.5248 88.5248h548.5056c48.896 0 88.5248-39.6288 88.5248-88.5248V355.072h-210.7392zM716.8 768.8704H311.6544a41.0624 41.0624 0 0 1-41.0624-41.0624 41.0624 41.0624 0 0 1 41.0624-41.0624H716.8a41.0624 41.0624 0 0 1 41.0624 41.0624 41.0624 41.0624 0 0 1-41.0624 41.0624z m0-171.9296H311.6544a41.0624 41.0624 0 0 1-41.0624-41.0624 41.0624 41.0624 0 0 1 41.0624-41.0624H716.8a41.0624 41.0624 0 0 1 41.0624 41.0624 41.0624 41.0624 0 0 1-41.0624 41.0624z" fill="#2595E8" ></path><path d="M874.8544 355.072H664.064a41.0624 41.0624 0 0 1-41.0624-41.0624v-226.304H237.824c-48.896 0-88.5248 39.6288-88.5248 88.5248v674.6624c0 31.0272 15.9744 58.2656 40.1408 74.0864 13.3632 0.8192 26.8288 1.28 40.448 1.28 162.2528 0 310.6816-59.2896 424.7552-157.3888H311.6544a41.0624 41.0624 0 0 1-41.0624-41.0624 41.0624 41.0624 0 0 1 41.0624-41.0624H716.8c5.4784 0 10.6496 1.0752 15.4624 3.0208 74.4448-89.9072 125.1328-200.192 142.6432-321.1776v-13.5168zM716.8 596.9408H311.6544a41.0624 41.0624 0 0 1-41.0624-41.0624 41.0624 41.0624 0 0 1 41.0624-41.0624H716.8a41.0624 41.0624 0 0 1 41.0624 41.0624 41.0624 41.0624 0 0 1-41.0624 41.0624z" fill="#3A9CED" ></path><path d="M395.0592 596.9408H311.6544a41.0624 41.0624 0 0 1-41.0624-41.0624 41.0624 41.0624 0 0 1 41.0624-41.0624h189.5424a654.65856 654.65856 0 0 0 130.8672-175.1552 40.8064 40.8064 0 0 1-9.0112-25.6512v-226.304H237.824c-48.896 0-88.5248 39.6288-88.5248 88.5248v511.232c89.088-13.4144 172.288-44.8512 245.76-90.5216z" fill="#56B0F4" ></path><path d="M478.464 87.7056h-240.64c-48.896 0-88.5248 39.6288-88.5248 88.5248v233.1648C294.2464 345.7536 411.5968 230.912 478.464 87.7056z" fill="#6BC2FC" ></path></svg>