<svg viewBox="0 0 1024 1024" version="1.1" xmlns="http://www.w3.org/2000/svg"><path d="M914.6368 497.1008c0-227.328-189.4912-410.368-419.1232-399.8208-203.1616 9.3184-368.896 172.8-380.7232 375.808-6.2464 106.4448 29.2352 204.4928 91.4944 279.4496 34.9184 42.0352 21.0944 104.192-24.9856 128.6144-5.7856 3.072-9.0624 9.3184-7.8848 15.7184 1.1264 6.144 5.9904 10.9568 12.1856 11.8784 199.9872 30.1568 441.6512 48.128 581.7344-101.5296 89.9072-73.4208 147.3024-185.0368 147.3024-310.1184z m-405.6064 300.6976c-19.968 0-36.1984-16.1792-36.1984-36.1984s16.1792-36.1984 36.1984-36.1984a36.1984 36.1984 0 1 1 0 72.3968z m150.6304-324.4544c-37.6832 58.3168-82.688 93.2352-109.568 114.0736-2.5088 1.9456-4.9664 3.84-7.168 5.5808v64.768c0 18.7392-15.1552 33.8944-33.8944 33.8944s-33.8944-15.1552-33.8944-33.8944v-80.5376c0-9.3184 3.84-18.2272 10.5984-24.6272 6.144-5.7856 13.8752-11.776 22.784-18.7392 24.9856-19.3536 62.7712-48.64 94.1568-97.28 15.2576-23.6032 17.3056-50.6368 5.5296-72.2944-14.5408-26.6752-48.7936-42.0352-93.9008-42.0352-92.1088 0-110.848 86.6304-112.6912 96.512-3.4304 18.3296-20.992 30.5664-39.3728 27.2896-18.3296-3.2768-30.6176-20.6848-27.392-39.0656 9.1648-52.736 58.4704-152.5248 179.456-152.5248 70.7584 0 126.6688 28.2112 153.4464 77.4144 23.9104 43.7248 20.8896 96.6656-8.0896 141.4656z" fill="#6C6CEA" ></path><path d="M885.76 347.904c-60.3136-149.9136-208.5888-254.976-380.9792-250.9312-212.0704 4.9152-385.1776 177.7152-390.5536 389.7856-2.56 101.4272 32.6656 194.56 92.6208 266.3936 23.6544 28.3648 24.5248 66.0992 8.3456 95.0272 31.8464 5.4272 64.5632 8.3456 97.9456 8.3456 295.424 0 538.9312-222.208 572.6208-508.6208z m-376.7296 449.8944a36.1984 36.1984 0 1 1 0-72.3968 36.1984 36.1984 0 1 1 0 72.3968z m150.6304-324.4544c-37.6832 58.3168-82.688 93.2352-109.568 114.0736-2.5088 1.9456-4.9664 3.84-7.168 5.5808v64.768c0 18.7392-15.1552 33.8944-33.8944 33.8944s-33.8944-15.1552-33.8944-33.8944v-80.5376c0-9.3184 3.84-18.2272 10.5984-24.6272 6.144-5.7856 13.8752-11.776 22.784-18.7392 24.9856-19.3536 62.7712-48.64 94.1568-97.28 15.2576-23.6032 17.3056-50.6368 5.5296-72.2944-14.5408-26.6752-48.7936-42.0352-93.9008-42.0352-92.1088 0-110.848 86.6304-112.6912 96.512-3.4304 18.3296-20.992 30.5664-39.3728 27.2896-18.3296-3.2768-30.6176-20.6848-27.392-39.0656 9.1648-52.736 58.4704-152.5248 179.456-152.5248 70.7584 0 126.6688 28.2112 153.4464 77.4144 23.9104 43.7248 20.8896 96.6656-8.0896 141.4656z" fill="#757BF2" ></path><path d="M504.7808 96.9728c-212.0704 4.9152-385.1776 177.7152-390.5536 389.7856a398.83776 398.83776 0 0 0 30.9248 164.864c3.4304 0.0512 6.8096 0.1536 10.24 0.1536 175.3088 0 332.3904-78.2848 438.1184-201.728 3.1232-4.352 6.2464-8.7552 9.2672-13.4656 15.2576-23.6032 17.3056-50.6368 5.5296-72.2944-14.5408-26.6752-48.7936-42.0352-93.9008-42.0352-92.1088 0-110.848 86.6304-112.6912 96.512-3.4304 18.3296-20.992 30.5664-39.3728 27.2896-18.3296-3.2768-30.6176-20.6848-27.392-39.0656 9.1648-52.736 58.4704-152.5248 179.456-152.5248 70.7584 0 126.6688 28.2112 153.4464 77.4144 0.7168 1.3312 1.3312 2.6624 1.9968 3.9936 27.904-54.9376 47.2576-114.944 56.32-178.2784-64-40.0384-139.9808-62.5152-221.3888-60.6208z" fill="#8486F8" ></path><path d="M118.6816 437.4528c98.9184-18.7904 188.928-62.8736 262.9632-125.2864 8.3456-9.3696 17.92-18.176 28.8256-25.9584 55.0912-53.0944 99.6352-117.0432 130.1504-188.3648-11.8272-0.768-23.7568-1.1264-35.84-0.8704-195.3792 4.5568-357.5296 151.552-386.0992 340.48z" fill="#8D92F8" ></path></svg>