<svg viewBox="0 0 1024 1024" version="1.1" xmlns="http://www.w3.org/2000/svg"><path d="M148.5824 419.4816l345.344 160.1536c9.1136 4.2496 18.8928 6.3488 28.6208 6.3488 10.24 0 20.5312-2.3552 30.0032-7.0144l336.8448-165.4784c23.296-11.4688 37.888-34.7136 38.0416-60.672 0.1536-25.9584-14.1312-49.408-37.2736-61.1328l-333.6704-169.216c-19.1488-9.728-42.0352-9.7792-61.2864-0.1536L146.7392 296.8576c-23.552 11.8272-37.9904 35.5328-37.5808 61.9008 0.3584 26.3168 15.4624 49.6128 39.424 60.7232zM886.784 639.8976l-363.8784 188.2624-373.0944-182.2208a43.4688 43.4688 0 0 0-58.1632 20.0192 43.4688 43.4688 0 0 0 20.0192 58.1632l375.2448 183.2448c11.3152 5.5296 23.7056 8.2944 36.096 8.2944 13.0048 0 26.0096-3.072 37.7856-9.1648l366.0288-189.3376a43.4688 43.4688 0 0 0 18.6368-58.624c-11.1104-21.3504-37.3248-29.696-58.6752-18.6368z" fill="#FC7032" ></path><path d="M111.616 574.0544l375.2448 183.2448c11.3152 5.5296 23.7056 8.2944 36.096 8.2944 13.0048 0 26.0096-3.072 37.7856-9.1648l366.0288-189.3376a43.4688 43.4688 0 0 0 18.6368-58.624 43.4688 43.4688 0 0 0-58.624-18.6368l-363.8784 188.2624-373.0944-182.2208a43.4688 43.4688 0 0 0-58.1632 20.0192c-10.5984 21.5552-1.6384 47.616 19.968 58.1632z" fill="#FC7032" ></path><path d="M495.2576 122.3168L146.7392 296.8576c-23.552 11.8272-37.9904 35.5328-37.5808 61.9008 0.4096 26.368 15.5136 49.6128 39.424 60.7232l345.344 160.1536c9.1136 4.2496 18.8928 6.3488 28.6208 6.3488 10.24 0 20.5312-2.3552 30.0032-7.0144l253.6448-124.6208c7.1168-34.3552 10.9056-69.9904 10.9056-106.4448 0-33.4848-3.2768-66.2016-9.3184-97.9456l-251.3408-127.488c-19.0976-9.728-41.984-9.7792-61.184-0.1536z" fill="#FF7C33" ></path><path d="M778.0352 546.0992l-255.1808 131.9936-373.0432-182.2208a43.4688 43.4688 0 0 0-58.1632 20.0192 43.4688 43.4688 0 0 0 20.0192 58.1632l375.2448 183.2448c11.3152 5.5296 23.7056 8.2944 36.096 8.2944 13.0048 0 26.0096-3.072 37.7856-9.1648l127.9488-66.2016c37.12-42.496 67.4816-91.0848 89.2928-144.128zM511.1808 822.4256l-361.3696-176.4864a43.4688 43.4688 0 0 0-58.1632 20.0192 43.4688 43.4688 0 0 0 20.0192 58.1632l278.7328 136.0896c42.24-7.68 82.688-20.5312 120.7808-37.7856z" fill="#FF7C33" ></path><path d="M674.1504 182.1696l-117.6576-59.648c-19.1488-9.728-42.0352-9.7792-61.2864-0.1536L146.7392 296.8576c-23.552 11.8272-37.9904 35.5328-37.5808 61.9008 0.4096 26.368 15.5136 49.6128 39.424 60.7232l327.9872 152.1152c115.9168-91.6992 191.8464-231.5776 197.5808-389.4272zM403.8144 619.9296L149.8112 495.872a43.4688 43.4688 0 0 0-58.1632 20.0192 43.4688 43.4688 0 0 0 20.0192 58.1632L295.936 664.064c37.8368-10.752 74.0352-25.5488 107.8784-44.1344zM153.6512 683.8784c22.0672 0 43.776-1.536 65.1776-4.1984l-69.0176-33.6896a43.4688 43.4688 0 0 0-58.1632 20.0192 44.2368 44.2368 0 0 0-4.0448 13.6192c21.6576 2.6624 43.6736 4.2496 66.048 4.2496z" fill="#FF9552" ></path><path d="M495.2576 122.3168L146.7392 296.8576c-23.552 11.8272-37.9904 35.5328-37.5808 61.9008 0.4096 26.368 15.5136 49.6128 39.424 60.7232l80.5888 37.376c144.128-62.3104 254.464-187.8528 296.192-341.6576a68.096 68.096 0 0 0-30.1056 7.1168z" fill="#FFA56A" ></path></svg>