<svg viewBox="0 0 1024 1024" version="1.1" xmlns="http://www.w3.org/2000/svg"><path d="M848.6912 108.8512H187.8528c-55.552 0-100.5568 45.0048-100.5568 100.5568v463.3088c0 55.552 45.0048 100.5568 100.5568 100.5568h660.8384c55.552 0 100.5568-45.0048 100.5568-100.5568V209.408c0-55.552-45.0048-100.5568-100.5568-100.5568z m-109.4144 287.6416l-122.9824 113.152c-18.8416 17.3568-47.8208 17.3056-66.6624-0.0512L469.2992 435.6096l-104.9088 98.7648a49.06496 49.06496 0 0 1-33.7408 13.3632 48.9984 48.9984 0 0 1-35.84-15.4624c-18.6368-19.8144-17.7152-50.944 2.0992-69.5808L435.2 332.4928a49.23904 49.23904 0 0 1 67.1232-0.3584l80.6912 74.3424 89.6512-82.432c20.0192-18.432 51.1488-17.1008 69.5808 2.9184 18.3296 19.968 17.0496 51.0976-2.9696 69.5296zM745.8816 822.784H290.6624c-27.1872 0-49.2544 22.016-49.2544 49.2544 0 27.1872 22.016 49.2544 49.2544 49.2544h455.2192c27.1872 0 49.2544-22.016 49.2544-49.2544 0-27.1872-22.0672-49.2544-49.2544-49.2544z" fill="#6C6CEA" ></path><path d="M848.6912 108.8512H187.8528c-55.552 0-100.5568 45.0048-100.5568 100.5568v463.3088c0 55.552 45.0048 100.5568 100.5568 100.5568H645.12c181.1968-116.3776 301.2096-319.6416 301.2096-550.9632 0-14.1312-0.512-28.1088-1.3824-41.984-12.4928-41.3696-50.8416-71.4752-96.256-71.4752z m-109.4144 287.6416l-122.9824 113.152c-18.8416 17.3568-47.8208 17.3056-66.6624-0.0512L469.2992 435.6096l-104.9088 98.7648a49.06496 49.06496 0 0 1-33.7408 13.3632 48.9984 48.9984 0 0 1-35.84-15.4624c-18.6368-19.8144-17.7152-50.944 2.0992-69.5808L435.2 332.4928a49.23904 49.23904 0 0 1 67.1232-0.3584l80.6912 74.3424 89.6512-82.432c20.0192-18.432 51.1488-17.1008 69.5808 2.9184 18.3296 19.968 17.0496 51.0976-2.9696 69.5296zM552.2432 822.784H290.6624c-27.1872 0-49.2544 22.016-49.2544 49.2544 0 0.9216 0.1024 1.792 0.1536 2.7136 16.64 1.28 33.4336 1.8944 50.3808 1.8944 92.5184 0 180.5312-19.2 260.3008-53.8624z" fill="#757BF2" ></path><path d="M187.8528 108.8512c-55.552 0-100.5568 45.0048-100.5568 100.5568v434.3296c8.4992 0.3072 17.0496 0.5632 25.6 0.5632 159.1808 0 305.1008-56.8832 418.5088-151.3472l-62.1056-57.344-104.9088 98.7648a49.06496 49.06496 0 0 1-33.7408 13.3632 48.9984 48.9984 0 0 1-35.84-15.4624c-18.6368-19.8144-17.7152-50.944 2.0992-69.5808L435.2 332.4928a49.23904 49.23904 0 0 1 67.1232-0.3584l80.6912 74.3424 89.6512-82.432c1.792-1.6384 3.6864-3.072 5.632-4.4032 37.4784-64.1024 64.3584-135.168 78.2336-210.7392H187.8528z" fill="#8486F8" ></path><path d="M87.296 209.408v188.4672c173.5168-37.5296 321.3824-143.8208 413.6448-289.024H187.8528c-55.5008 0-100.5568 45.0048-100.5568 100.5568z" fill="#8D92F8" ></path></svg>