<svg viewBox="0 0 1024 1024" version="1.1" xmlns="http://www.w3.org/2000/svg"><path d="M822.016 151.3472H203.9296c-65.3312 0-118.272 52.9408-118.272 118.272V737.28c0 65.3312 52.9408 118.272 118.272 118.272h618.0864c65.3312 0 118.272-52.9408 118.272-118.272V269.6192c0-65.3312-52.9408-118.272-118.272-118.272zM271.1552 505.7536l153.6-143.5648a43.29472 43.29472 0 0 1 58.0096-1.024l56.7296 49.3056 84.8896-84.0192h-46.9504c-23.9616 0-43.3664-19.4048-43.3664-43.3664s19.4048-43.3664 43.3664-43.3664h149.0432c23.9616 0 43.3664 19.4048 43.3664 43.3664v137.216c0 23.9616-19.4048 43.3664-43.3664 43.3664s-43.3664-19.4048-43.3664-43.3664v-30.0544l-111.2576 110.08a43.31008 43.31008 0 0 1-58.9312 1.8944l-57.6-50.0224-125.0816 116.8896a43.32544 43.32544 0 0 1-29.5936 11.6736c-11.5712 0-23.1424-4.608-31.6928-13.7216-16.1792-17.5104-15.2576-44.9536 2.2016-61.2864z m551.5264 242.0224H215.552c-23.9616 0-43.3664-19.4048-43.3664-43.3664 0-23.9616 19.4048-43.3664 43.3664-43.3664h607.1808c23.9616 0 43.3664 19.4048 43.3664 43.3664-0.0512 23.9616-19.456 43.3664-43.4176 43.3664z" fill="#2595E8" ></path><path d="M902.4 182.9888c-21.0944-19.6096-49.3056-31.6416-80.384-31.6416H203.9296c-65.3312 0-118.272 52.9408-118.272 118.272V737.28c0 65.3312 52.9408 118.272 118.272 118.272h346.2656a654.7456 654.7456 0 0 0 153.344-107.8272H215.552c-23.9616 0-43.3152-19.4048-43.3152-43.3664 0-23.9616 19.4048-43.3664 43.3152-43.3664h564.9408c80.4352-108.544 128.0512-242.8928 128.0512-388.4032 0-30.3104-2.1504-60.2624-6.144-89.6z m-132.5568 237.2608c0 23.9616-19.4048 43.3664-43.3664 43.3664-23.9616 0-43.3152-19.4048-43.3152-43.3664v-30.0544l-111.2576 110.08a43.31008 43.31008 0 0 1-58.9312 1.8944l-57.6-50.0224-125.0816 116.8896a43.32544 43.32544 0 0 1-29.5936 11.6736c-11.5712 0-23.1424-4.608-31.6928-13.7216a43.41248 43.41248 0 0 1 2.048-61.2864l153.6-143.5648a43.29472 43.29472 0 0 1 58.0096-1.024l56.7296 49.3056 84.8896-84.0192h-46.9504c-23.9616 0-43.3664-19.4048-43.3664-43.3664 0-23.9616 19.4048-43.3664 43.3664-43.3664h149.0432c23.9616 0 43.3664 19.4048 43.3664 43.3664v137.216z" fill="#3A9CED" ></path><path d="M176.2304 686.2848a43.30496 43.30496 0 0 1 39.3216-25.1904h65.8432a652.4416 652.4416 0 0 0 248.4736-150.016c-6.0416-1.6896-11.8272-4.5056-16.8448-8.9088l-57.6-50.0224-125.0816 116.8896a43.32544 43.32544 0 0 1-29.5936 11.6736c-11.5712 0-23.1424-4.608-31.6928-13.7216a43.41248 43.41248 0 0 1 2.048-61.2864l153.6-143.5648a43.29472 43.29472 0 0 1 58.0096-1.024l56.7296 49.3056 84.8896-84.0192h-46.9504c-23.9616 0-43.3664-19.4048-43.3664-43.3664 0-23.9616 19.4048-43.3664 43.3664-43.3664h121.5488c9.1648-28.672 16.384-58.1632 21.5552-88.3712H203.9296c-65.3312 0-118.272 52.9408-118.272 118.272v424.0896c30.72-0.3584 60.9792-2.8672 90.5728-7.3728z" fill="#59ADF8" ></path><path d="M469.1968 151.3472H203.9296c-65.3312 0-118.272 52.9408-118.272 118.272v169.8816c161.4336-44.2368 297.8816-148.8896 383.5392-288.1536z" fill="#6BC2FC" ></path></svg>