<svg viewBox="0 0 1024 1024" version="1.1" xmlns="http://www.w3.org/2000/svg"><path d="M216.6272 173.3632a100.864 93.7472 90 1 0 187.4944 0 100.864 93.7472 90 1 0-187.4944 0Z" fill="#48E1AA" ></path><path d="M431.4112 165.5296a80.8448 75.1104 90 1 0 150.2208 0 80.8448 75.1104 90 1 0-150.2208 0Z" fill="#3CD38E" ></path><path d="M608.2048 211.3024a67.2256 62.5152 90 1 0 125.0304 0 67.2256 62.5152 90 1 0-125.0304 0Z" fill="#1DCE75" ></path><path d="M755.8144 293.5808a52.224 48.5376 90 1 0 97.0752 0 52.224 48.5376 90 1 0-97.0752 0Z" fill="#1DCE75" ></path><path d="M778.4448 421.2736c-39.3728-91.7504-96.7168-105.3184-127.6416-113.2032-40.8576-10.4448-187.2384-21.4528-322.0992 7.7824-50.8416 10.752-134.6048 83.456-46.848 186.9824 26.9312 28.9792 97.2288 94.4128 37.888 225.8944-59.3408 131.4304 14.9504 227.4816 158.5664 224.256 143.616-3.2256 218.88-107.3152 248.832-187.8016 29.8496-80.4864 90.6752-252.16 51.3024-343.9104z m-89.6 234.5984c-5.7856 12.8512-17.664 20.3264-30.1056 20.3264-4.864 0-9.8304-1.1776-14.4896-3.584-16.5888-8.6528-23.552-30.1056-15.5136-47.9744 42.2912-94.1568 9.4208-160.4608 7.9872-163.2256-9.216-17.2032-3.6864-39.0144 12.288-48.9472 15.9744-9.9328 36.5056-3.8912 45.7216 13.312 2.1504 3.9424 52.3776 100.3008-5.888 230.0928z" fill="#05C46D" ></path><path d="M775.2192 612.8128c16.5376-69.2224 24.4736-142.0288 3.2256-191.5392-39.3728-91.7504-96.7168-105.3184-127.6416-113.2032-40.8576-10.4448-187.2384-21.4528-322.0992 7.7824-50.8416 10.752-134.6048 83.456-46.848 186.9824 26.9312 28.9792 97.2288 94.4128 37.888 225.8944-32.3584 71.68-24.8832 132.8128 11.776 173.056 189.0304-22.016 351.0784-132.5056 443.6992-288.9728z m-116.48 63.3344c-4.864 0-9.8304-1.1776-14.4896-3.584-16.5888-8.6528-23.552-30.1056-15.5136-47.9744 42.2912-94.1568 9.4208-160.4608 7.9872-163.2256-9.216-17.2032-3.6864-39.0144 12.288-48.9472 15.9744-9.9328 36.5056-3.8912 45.7216 13.312 2.1504 4.0448 52.4288 100.352-5.888 230.144-5.7856 12.8-17.7152 20.2752-30.1056 20.2752z" fill="#1DCE75" ></path><path d="M670.72 144.0768c-34.5088 0-62.5152 30.1056-62.5152 67.2256 0 35.7888 26.0096 65.024 58.8288 67.072 13.1584-41.5232 21.9136-84.992 25.7024-129.8944-6.8608-2.816-14.2336-4.4032-22.016-4.4032zM328.6528 315.8528c-50.8416 10.752-134.6048 83.456-46.848 186.9824 20.224 21.76 64.8192 64 60.7744 139.264C486.4 577.536 599.9616 457.6256 656.2304 309.4528c-1.8944-0.512-3.7376-0.9728-5.4272-1.3824-40.8576-10.4448-187.2384-21.4528-322.1504 7.7824z" fill="#3CD38E" ></path><path d="M328.6528 315.8528c-32.6144 6.8608-78.7456 39.3216-84.48 88.9856 46.4384-26.5728 88.9856-59.1872 126.5152-96.8192-14.0288 2.2016-28.0576 4.8128-42.0352 7.8336zM506.5216 84.6848c-41.472 0-75.1104 36.1984-75.1104 80.8448 0 18.432 5.7856 35.4304 15.4624 48.9984 26.4192-40.0896 48.128-83.5584 64.3584-129.5872-1.5872-0.1024-3.1232-0.256-4.7104-0.256z" fill="#48E1AA" ></path></svg>