<svg viewBox="0 0 1024 1024" version="1.1" xmlns="http://www.w3.org/2000/svg"><path d="M889.9072 678.0928h-39.8336V582.144c0-39.0144-31.744-70.7584-70.7584-70.7584H557.056V443.0848h69.2736c34.6624 0 62.7712-28.1088 62.7712-62.7712V192c0-34.6624-28.1088-62.7712-62.7712-62.7712H409.8048c-34.6624 0-62.7712 28.1088-62.7712 62.7712v188.2624c0 34.6624 28.1088 62.7712 62.7712 62.7712h79.5648v68.3008H248.832c-39.0144 0-70.7584 31.744-70.7584 70.7584v95.9488h-32.3584c-26.8288 0-48.5376 21.76-48.5376 48.5376v128.6656c0 26.8288 21.76 48.5376 48.5376 48.5376h148.992c26.8288 0 48.5376-21.76 48.5376-48.5376v-128.6656c0-26.8288-21.76-48.5376-48.5376-48.5376H245.76V582.144c0-1.7408 1.3824-3.1232 3.1232-3.1232h240.5376v99.072h-45.824c-26.8288 0-48.5376 21.76-48.5376 48.5376v128.6656c0 26.8288 21.76 48.5376 48.5376 48.5376h148.992c26.8288 0 48.5376-21.76 48.5376-48.5376v-128.6656c0-26.8288-21.76-48.5376-48.5376-48.5376h-35.4816v-99.072h222.3104c1.7408 0 3.1232 1.3824 3.1232 3.1232v95.9488h-41.472c-26.8288 0-48.5376 21.76-48.5376 48.5376v128.6656c0 26.8288 21.76 48.5376 48.5376 48.5376h148.992c26.8288 0 48.5376-21.76 48.5376-48.5376v-128.6656c-0.1024-26.8288-21.8624-48.5376-48.6912-48.5376z" fill="#2595E8" ></path><path d="M740.9664 678.0928c-26.8288 0-48.5376 21.76-48.5376 48.5376v127.5904a600.17152 600.17152 0 0 0 157.696-179.0464V582.144c0-39.0144-31.744-70.7584-70.7584-70.7584H557.056V443.0848h69.2736c34.6624 0 62.7712-28.1088 62.7712-62.7712V192c0-34.6624-28.1088-62.7712-62.7712-62.7712H409.8048c-34.6624 0-62.7712 28.1088-62.7712 62.7712v188.2624c0 34.6624 28.1088 62.7712 62.7712 62.7712h79.5648v68.3008H248.832c-39.0144 0-70.7584 31.744-70.7584 70.7584v95.9488h-32.3584c-26.8288 0-48.5376 21.76-48.5376 48.5376v128.6656c0 26.8288 21.76 48.5376 48.5376 48.5376h148.992c26.8288 0 48.5376-21.76 48.5376-48.5376v-128.6656c0-26.8288-21.76-48.5376-48.5376-48.5376H245.76V582.144c0-1.7408 1.3824-3.1232 3.1232-3.1232h240.5376v99.072h-45.824c-26.8288 0-48.5376 21.76-48.5376 48.5376v128.6656c0 26.8288 21.76 48.5376 48.5376 48.5376h148.992c26.8288 0 48.5376-21.76 48.5376-48.5376v-128.6656c0-26.8288-21.76-48.5376-48.5376-48.5376h-35.4816v-99.072h222.3104c1.7408 0 3.1232 1.3824 3.1232 3.1232v95.9488h-41.5744z" fill="#3A9CED" ></path><path d="M557.056 511.3344V443.0848h69.2736c34.6624 0 62.7712-28.1088 62.7712-62.7712V192c0-34.6624-28.1088-62.7712-62.7712-62.7712H409.8048c-34.6624 0-62.7712 28.1088-62.7712 62.7712v188.2624c0 34.6624 28.1088 62.7712 62.7712 62.7712h79.5648v68.3008H248.832c-39.0144 0-70.7584 31.744-70.7584 70.7584v95.9488h-32.3584c-26.8288 0-48.5376 21.76-48.5376 48.5376v32.3072c23.3472 2.7648 47.104 4.2496 71.2192 4.2496 60.8256 0 119.552-9.1136 174.848-26.0096v-10.5472c0-26.8288-21.76-48.5376-48.5376-48.5376H245.76V582.144c0-1.7408 1.3824-3.1232 3.1232-3.1232h240.5376v90.6752c23.7568-15.1552 46.336-31.9488 67.6864-50.2272v-40.3968h42.752c20.224-21.1456 38.9632-43.7248 55.9616-67.6864H557.056z" fill="#59ADF8" ></path><path d="M395.776 718.336c27.8016-11.4688 54.528-24.9344 80.0256-40.2432h-32.256c-23.9616 0-43.8272 17.408-47.7696 40.2432z" fill="#72BCFB" ></path><path d="M589.4656 129.2288H409.8048c-34.6624 0-62.7712 28.1088-62.7712 62.7712v188.2624c0 22.0672 11.4176 41.472 28.672 52.6336 100.352-75.0592 176.2304-180.9408 213.76-303.6672z" fill="#6BC2FC" ></path></svg>